<svg xmlns="http://www.w3.org/2000/svg" xmlns:xlink="http://www.w3.org/1999/xlink" x="0px" y="0px" width="55px" height="55px" viewBox="0 0 55 55" xml:space="preserve">
<path d="M26.591,54.561c0.249,0.279,0.604,0.438,0.977,0.438c0.378,0.021,0.735-0.161,0.983-0.444  c0.45-0.512,11.102-12.708,16.979-26.178c1.293-2.702,1.948-5.566,1.948-8.517C47.479,8.909,38.516,0,27.501,0  C16.484,0,7.521,8.909,7.521,19.859c0,2.995,0.646,5.86,1.901,8.475C15.318,41.85,26.133,54.048,26.591,54.561z M27.501,2.619  c9.572,0,17.358,7.734,17.358,17.241c0,2.556-0.57,5.041-1.711,7.428c-4.71,10.794-12.801,21.021-15.588,24.383  C24.74,48.315,16.53,38.078,11.804,27.244c-1.104-2.3-1.663-4.785-1.663-7.385C10.141,10.353,17.929,2.619,27.501,2.619z"></path>
<path d="M27.5,29.115c5.226,0,9.478-4.251,9.478-9.477c0-5.225-4.252-9.477-9.478-9.477  c-5.225,0-9.477,4.251-9.477,9.477C18.023,24.864,22.275,29.115,27.5,29.115z M27.5,12.781c3.781,0,6.858,3.076,6.858,6.858  c0,3.781-3.077,6.858-6.858,6.858c-3.782,0-6.858-3.077-6.858-6.858C20.642,15.857,23.718,12.781,27.5,12.781z"></path>
</svg>