<svg xmlns="http://www.w3.org/2000/svg" xmlns:xlink="http://www.w3.org/1999/xlink" x="0px" y="0px" width="55px" height="55px" viewBox="0 0 55 55" xml:space="preserve">
<g>
	<path d="M27.5,0C12.336,0,0,12.336,0,27.5C0,42.663,12.336,55,27.5,55C42.663,55,55,42.663,55,27.5   C55,12.336,42.663,0,27.5,0z M27.5,52.963C13.459,52.963,2.037,41.54,2.037,27.5c0-14.041,11.422-25.463,25.463-25.463   c14.04,0,25.463,11.422,25.463,25.463C52.963,41.54,41.54,52.963,27.5,52.963z"></path>
	<path d="M28.519,22.51V6.111c0-0.563-0.456-1.019-1.019-1.019s-1.019,0.456-1.019,1.019V22.51   c-1.992,0.406-3.565,1.979-3.971,3.971h-9.27c-0.563,0-1.019,0.456-1.019,1.019s0.456,1.019,1.019,1.019h9.27   c0.474,2.321,2.53,4.074,4.99,4.074c2.808,0,5.093-2.285,5.093-5.093C32.593,25.041,30.84,22.984,28.519,22.51z M27.5,30.556   c-1.685,0-3.056-1.371-3.056-3.056c0-1.685,1.371-3.056,3.056-3.056c1.685,0,3.056,1.371,3.056,3.056   C30.556,29.185,29.185,30.556,27.5,30.556z"></path>
</g>
</svg>