<svg xmlns="http://www.w3.org/2000/svg" xmlns:xlink="http://www.w3.org/1999/xlink" id="Layer_1" x="0px" y="0px" width="55px" height="55px" viewBox="0 0 55 55" xml:space="preserve">
<g>
	<path d="M54.28,44.819c-0.143-0.966-0.77-1.817-1.916-2.602l-11.832-8.096c-0.61-0.416-1.321-0.637-2.055-0.637   c-1.143,0-2.213,0.539-2.868,1.448l-3.071,4.347c-0.241,0.337-0.297,0.752-0.313,1.152c-1.174,0.173-4.579,0.067-10.166-5.518   c-5.402-5.395-7.96-9.362-7.628-11.812c0.06-0.029,0.103-0.088,0.157-0.129c0.282-0.078,0.541-0.174,0.75-0.337l4.24-3.212   c1.513-1.142,1.81-3.362,0.658-4.955l-8.48-11.563c-1.631-2.222-3.55-2.454-5.609-0.685C4.844,3.338,2.683,6.035,1.787,7.657   c-0.491,0.869-0.695,1.766-0.608,2.668c-0.313,1.299-0.996,5.127,0.141,10.466c1.545,7.257,5.724,14.224,12.421,20.708   c11.198,10.835,21.034,12.453,25.9,12.454c0,0,0,0,0.001,0c2.862,0,4.856-0.525,5.776-0.912c0.855,0.036,1.699-0.204,2.523-0.698   c1.596-0.944,4.217-3.194,5.289-4.538C54.079,46.755,54.421,45.778,54.28,44.819z M51.671,46.552   c-0.924,1.159-3.364,3.251-4.75,4.071c-0.188,0.112-0.374,0.194-0.558,0.263c-1.351-0.586-3.726-1.828-4.438-2.719   c-0.345-0.431-0.975-0.501-1.405-0.156c-0.431,0.346-0.501,0.975-0.156,1.406c0.628,0.785,1.83,1.568,2.927,2.178   c-0.877,0.19-2.096,0.357-3.648,0.357h-0.001c-4.563-0.001-13.817-1.546-24.509-11.892C-0.115,25.299,2.781,12.097,3.162,10.641   c0.034-0.13,0.041-0.266,0.021-0.398c-0.078-0.529,0.035-1.054,0.35-1.61C4.315,7.215,6.328,4.702,7.45,3.74   c0.516-0.444,0.975-0.679,1.327-0.679c0.151,0,0.611,0,1.367,1.029l8.476,11.558c0.515,0.712,0.404,1.69-0.248,2.183l-4.195,3.183   c-0.017,0.008-0.046,0.018-0.074,0.026c-1.105-0.849-2.619-2.129-3.096-2.859c-0.301-0.463-0.922-0.592-1.384-0.292   c-0.462,0.302-0.593,0.922-0.291,1.384c0.646,0.991,2.208,2.301,3.206,3.085c-0.796,3.258,1.734,7.607,8.109,13.973   c5.08,5.078,8.783,6.144,10.995,6.144c0.97,0,1.696-0.216,2.052-0.418c0.268-0.152,0.451-0.419,0.496-0.724   c0.02-0.136,0.026-0.332,0.029-0.548c0.001-0.12,0.004-0.326,0.018-0.44l3.002-4.248c0.457-0.634,1.476-0.793,2.167-0.322   l11.83,8.095c0.653,0.446,1.012,0.864,1.067,1.242C52.356,45.481,52.146,45.965,51.671,46.552z"></path>
	<path d="M26.359,12.569c7.735,2.362,13.787,8.383,16.189,16.105c0.133,0.429,0.528,0.703,0.955,0.703   c0.098,0,0.198-0.015,0.297-0.045c0.527-0.164,0.822-0.725,0.658-1.252c-2.6-8.355-9.146-14.869-17.515-17.423   c-0.529-0.166-1.087,0.136-1.249,0.664C25.533,11.849,25.831,12.408,26.359,12.569z"></path>
	<path d="M27.731,5.159C39.328,7.9,48.194,17.246,50.318,28.968c0.087,0.482,0.509,0.821,0.983,0.821   c0.059,0,0.119-0.005,0.179-0.016c0.544-0.099,0.904-0.619,0.806-1.163C50.021,16.106,40.563,6.136,28.191,3.211   c-0.537-0.122-1.076,0.206-1.203,0.743C26.861,4.493,27.194,5.031,27.731,5.159z"></path>
</g>
</svg>