<?xml version="1.0" standalone="no"?>
<!DOCTYPE svg PUBLIC "-//W3C//DTD SVG 1.1//EN" "http://www.w3.org/Graphics/SVG/1.1/DTD/svg11.dtd" >
<svg xmlns="http://www.w3.org/2000/svg" xmlns:xlink="http://www.w3.org/1999/xlink" version="1.1">
<metadata>
Created by FontForge 20201107 at Sat Apr 13 01:10:28 2024
 By koj
</metadata>
<defs>
<font id="icomoon" horiz-adv-x="1024" >
  <font-face 
    font-family="icomoon"
    font-weight="400"
    font-stretch="normal"
    units-per-em="1024"
    panose-1="0 0 0 0 0 0 0 0 0 0"
    ascent="960"
    descent="-64"
    bbox="-3.06218 -86 1034 961.463"
    underline-thickness="0"
    underline-position="0"
    unicode-range="U+0001-E98D"
  />
    <missing-glyph />
    <glyph glyph-name="glyph1" horiz-adv-x="0" 
d="M0 0v0v0v0z" />
    <glyph glyph-name="glyph1" horiz-adv-x="0" 
d="M0 0v0v0v0z" />
    <glyph glyph-name="glyph2" horiz-adv-x="341" 
 />
    <glyph glyph-name="uni0001" horiz-adv-x="0" 
d="M0 0v0v0v0z" />
    <glyph glyph-name="uniE87D" unicode="&#xe87d;" 
d="M62.4639 365.787q-4.16895 4.38867 -6.58301 8.33887q-1.75488 3.07178 -1.75488 6.43652q0 3.8212 1.6084 6.43652q2.50841 4.26329 5.85156 7.60645q4.23916 3.34694 8.0459 4.82812q3.51384 1.31641 7.75293 1.31641h135.461q4.16063 0 9.21582 -1.60938
q4.51876 -1.50625 7.31445 -3.65723q3.60181 -3.40274 4.53516 -6.43652q1.16992 -3.74406 1.16992 -8.48438q0 -4.50758 -1.16992 -8.48438q-0.585938 -2.63477 -4.24219 -6.29102q-3.68679 -3.89048 -8.77734 -6.43652q-4.32358 -2.04785 -8.0459 -2.04785h-135.606
q-3.3656 0 -6.43652 1.75586q-4.1363 2.52595 -8.33887 6.72852zM107.374 489.253q-2.68641 2.68641 -4.82812 6.72852q-1.6084 3.21833 -1.6084 8.0459q0 3.80315 1.6084 7.02148q1.90375 3.8061 5.70508 7.60742q2.25205 3.0706 7.16797 5.41211
q4.6084 2.19434 8.77734 2.19434h135.899q3.78839 0 7.16797 -1.90137q4.20183 -2.56753 7.60742 -6.72949q3.14319 -3.14319 5.55859 -7.31445q1.75586 -3.07349 1.75586 -6.43652q0 -4.60632 -1.75586 -7.45996q-2.84439 -4.26658 -6.58301 -8.19238
q-2.02473 -2.70064 -4.68066 -3.36426q-4.68359 -1.1709 -9.21582 -1.1709h-135.607q-5.19084 0 -10.6787 1.31738q-3.46906 0.815849 -6.29004 4.24219zM170.569 612.718q-3.00707 3.22216 -5.55859 7.16797q-1.75586 3.07092 -1.75586 6.43652q0 5.17869 2.04785 9.06934
q2.02742 4.05483 5.12012 8.33887l0.438477 0.438477q2.74071 1.82765 5.85156 3.07227q3.51123 1.31689 8.77734 1.31641h135.606q4.4328 0 9.94824 -1.60938q3.47453 -0.96529 6.58203 -2.7793q2.6994 -3.25761 4.82812 -8.0459q1.90137 -4.22589 1.90137 -9.6543
q0 -3.80427 -1.60938 -7.02148q-2.13875 -4.04109 -5.70508 -7.60742q-2.25233 -2.7019 -5.99707 -3.94922q-5.51545 -1.60938 -9.94824 -1.60938h-135.606q-5.48706 0 -8.77734 1.31641q-2.57366 0.919252 -6.14355 5.12012zM1024.15 449.17
q1.82561 -2.967 1.60938 -7.31348v-184.76q0 -16.5538 -5.99805 -32.3291q-5.57925 -14.8054 -19.0176 -25.5996l-1.31641 -1.31641q-10.5018 -12.253 -25.4531 -18.7246q-15.3149 -6.43652 -32.6221 -6.43652h-58.0752l-1.90234 -6.87598
q-4.87886 -17.3003 -14.7744 -33.3525q-9.74765 -15.8123 -23.6982 -27.0635q-15.1825 -11.4412 -33.5 -18.7246q-38.9927 -15.5974 -75.0439 -0.145508q-17.2011 7.37105 -34.2314 18.7246q-14.765 11.073 -24.1367 26.916q-9.49954 16.3488 -14.3359 33.5l-1.90137 6.875
h-240.056l-1.6084 -7.31445q-3.78149 -16.9017 -14.0439 -32.6211q-10.9124 -16.5977 -24.2832 -27.21q-15.3989 -11.4383 -33.0605 -18.7246q-17.1164 -7.02148 -37.7422 -7.02148q-20.6248 0 -37.7412 7.02148q-17.6617 7.28632 -33.0605 18.7246
q-14.6989 11.0249 -24.7227 27.0635q-10.1194 16.2806 -14.7744 33.3525l-1.90234 6.87598h-176.42q-4.6084 0 -7.46094 1.75488l-8.92285 5.55957q-1.8252 2.96386 -2.63379 5.99707q-1.31641 5.04598 -1.31641 9.94824q0 4.74031 1.16992 8.48438
q0.610194 2.64011 3.07227 5.99707l0.438477 0.439453q3.85423 2.88947 6.72949 3.65723q3.51384 1.31641 8.77734 1.31641h176.713l1.75586 7.02148q4.96593 19.19 14.6279 33.792q9.82997 15.0723 25.4541 27.7939q14.6951 13.1606 32.0361 19.1641
q38.1815 13.4613 76.3613 0q17.2198 -5.96149 32.1836 -19.1641q14.1976 -12.2319 24.8682 -27.7939q10.1124 -14.5075 13.8975 -33.207l1.46289 -7.45996h240.347l1.75586 7.02148q5.00159 19.554 14.1895 34.084q9.16072 14.8316 24.2832 27.0635
q17.5178 13.5254 33.792 19.6025q36.3143 13.4938 75.7764 -0.146484q17.656 -5.95949 32.6221 -19.1641q14.2701 -12.2943 24.2832 -27.6475q10.0192 -14.9166 14.6289 -33.792l1.75488 -7.02148h58.3682q8.84961 0 16.0918 4.38867q5.53593 3.27995 11.5557 9.06934
q5.62079 4.49664 9.2168 11.2637q4.24219 7.81511 4.24219 16.2383v162.377h-380.636q-4.49396 0 -6.58301 1.46289q-3.44877 2.5294 -7.31445 7.16797q-3.74984 3.53038 -5.11914 6.72949q-1.1709 2.80922 -1.1709 6.875v246.931q0 7.96299 -4.0957 16.3838
q-3.68681 7.37217 -9.80176 12.5801q-5.44668 6.28592 -12.4336 9.21582q-6.41404 2.78027 -15.6523 2.78027h-307.054q-5.74906 0 -9.50879 1.46289q-4.28892 1.50026 -7.16797 3.80273q-3.51514 3.30812 -4.38867 7.02246q-1.31641 4.82487 -1.31641 7.89941
q0 4.90129 1.31641 9.94727q0.926432 3.70573 4.0957 6.875q3.69669 3.69669 7.31445 4.97363q3.75973 1.46289 9.50879 1.46289h307.346q17.5744 0 31.8906 -6.29004q14.7012 -6.36328 28.0869 -19.749q11.8227 -10.9307 18.1396 -25.3066
q6.29004 -14.8282 6.29004 -32.915v-24.7217l152.576 -0.146484l5.70508 -1.75586l0.584961 -0.584961q2.04991 -3.07373 6.14453 -6.14355l162.377 -190.318h51.1992q4.15525 0 8.0459 -2.04785q3.83963 -2.03212 5.2666 -4.68066l2.34082 -2.63379
q3.62411 -2.89832 5.70508 -6.43652zM895.562 465.115l-134.583 155.355h-137.07v-155.355h271.653zM842.605 195.95q0 14.6888 -5.12012 27.0625q-5.36883 12.9748 -14.7744 22.3818q-10.8649 10.6382 -23.5518 15.7988q-12.9451 5.26562 -27.502 5.26562
q-14.7033 0 -27.209 -5.26562q-12.8629 -5.51222 -21.2119 -15.2139q-10.7926 -9.49719 -16.8223 -22.6748q-5.99805 -13.1053 -5.99805 -27.3545q0 -14.4293 5.85156 -27.6484q5.55241 -12.8126 15.9453 -22.5283q9.87451 -11.8491 22.8203 -16.2373
q11.8568 -4.0957 25.8926 -4.0957q14.6289 0 27.3555 3.94922q13.6345 4.47071 24.1367 16.0918q9.60677 9.60677 14.9219 23.1133q5.26562 13.383 5.26562 27.3555zM379.465 195.95q0 14.1906 -5.26562 26.916q-5.18862 12.7558 -14.3359 22.9668
q-11.1293 10.0382 -23.9912 15.3604q-12.9451 5.26562 -27.502 5.26562t-27.502 -5.26562q-13.2034 -5.50203 -22.3809 -15.7988q-9.51056 -9.51056 -15.2139 -22.2354q-5.99805 -13.1053 -5.99805 -27.3555q0 -14.4293 5.85156 -27.6484q5.65333 -13.3416 14.3359 -21.7969
q10.149 -12.5747 23.9912 -16.9688q26.8991 -8.4821 53.6865 0q13.3906 4.31983 25.7461 16.6768q8.27661 9.39349 13.3125 22.5283q5.26562 13.1633 5.26562 27.3555h0.00019z" />
    <glyph glyph-name="uniE900" unicode="&#xe900;" 
d="M906.972 382.172l-5.85156 -2.92578l-8.77734 -1.46289l-160.914 1.46289q-10.9718 0 -18.6519 7.67973q-7.68013 7.67973 -7.68013 18.6513v86.3086q0 18.0413 14.6289 27.7939q9.7526 7.31445 20.4805 7.31445h65.8281q41.6909 0 78.9941 -52.6631
q28.284 -42.4247 35.1084 -62.9023q6.11739 -15.2935 -5.85059 -24.8691l-2.92578 2.92578l1.46289 -2.92578zM870.4 418.743q-10.1597 18.2861 -27.7949 40.96q-17.5535 26.3311 -38.0342 26.3311h-61.4395v-65.8281zM71.6797 232.96q5.85156 -5.85156 19.0176 -5.85156
h27.7939v-43.8857h-27.7939q-30.7197 0 -51.2002 20.4805q-21.9424 19.7467 -21.9424 49.7373v89.2334h45.3486v-89.2334q0 -13.4594 8.77637 -20.4805zM1003.52 450.926q20.4805 -38.6838 20.4805 -54.126v-162.377q0 -19.0166 -11.7031 -30.7197t-30.7197 -11.7031
h-84.8457v45.3486h81.9199v159.451q0 13.1665 -17.5547 43.8857q-11.812 20.2511 -42.4229 58.5146q-29.8656 32.8523 -51.1992 52.6631q-29.0145 24.8682 -52.6631 24.8682h-115.565q-10.1069 0 -29.2578 -23.4053q-8.77637 -13.166 -23.4053 -36.5723l-1.46289 -1.46289
l-16.0918 11.7031v-270.629q0 -33.6456 -21.9424 -51.1992q-23.2437 -19.0176 -52.6631 -19.0176h-165.303v43.8857h163.84q12.6784 0 20.4805 5.85156q11.7021 9.36297 11.7021 20.4795v495.909q0 14.3351 -11.7021 19.0166q-10.9717 4.38867 -21.9434 4.38867h-460.8
q-10.9717 0 -17.5547 -4.38867q-10.2393 -6.82617 -10.2393 -19.0166v-80.457h-45.3486v80.457q0 31.8908 20.4795 48.2744q21.1311 19.0166 52.6631 19.0166h462.263q29.4188 0 52.6631 -19.0166q21.9424 -19.7495 21.9424 -49.7373v-185.783l14.6289 19.0176
q12.2338 18.3506 23.4053 26.3311q16.3844 11.7031 35.1094 11.7031h115.565q30.8414 0 70.2168 -27.7939q37.2999 -29.8399 67.292 -65.8291q31.4524 -43.2475 49.7363 -77.5312zM217.966 417.28q-3.90104 -5.85156 -14.6289 -5.85156h-182.856
q-8.77734 0 -14.6289 5.85156q-5.85156 3.90104 -5.85156 14.6279q0 8.77734 4.38867 13.166q7.80208 5.85156 16.0918 5.85156h184.319q7.31445 0 13.166 -5.85156q5.85156 -3.90104 5.85156 -13.166q0 -8.77637 -5.85156 -14.6279h-0.00011zM276.48 490.423v1.46289
h-182.857q-8.77734 0 -14.6289 5.85156q-5.85156 3.90104 -5.85156 14.6279q0 8.77734 5.85156 14.6289q3.90104 5.85156 14.6289 5.85156h182.857q7.31348 0 13.165 -5.85156l1.46289 -2.92578q4.38867 -6.58301 4.38867 -13.165q0 -8.77734 -5.85156 -14.6289
q-3.90104 -5.85156 -13.165 -5.85156v-1e-05zM365.714 625.006q7.31445 0 13.166 -5.85156q7.31445 -7.31445 7.31445 -16.0918q0 -8.77637 -5.85156 -14.6279q-3.90104 -5.85156 -14.6289 -5.85156h-198.948q-7.31445 0 -13.166 5.85156l-1.46289 2.92578
q-4.3877 6.58374 -4.3877 13.165q0 8.77702 5.85059 14.6289q3.90104 5.85156 13.166 5.85156h198.948zM759.223 287.086q39.1601 0 74.6055 -30.7207q30.7207 -32.9136 30.7207 -74.6055q0 -43.2766 -24.8691 -70.2168q-29.1579 -33.6455 -80.457 -33.6455
q-45.3486 0 -74.6055 29.2568q-29.2568 31.3452 -29.2568 74.6055q0 45.35 29.2568 74.6055q30.7192 30.7207 74.6055 30.7207h-0.0001zM813.349 139.337q13.166 19.749 13.166 40.96q0 27.7939 -19.0176 46.8115q-21.1306 19.0176 -46.8115 19.0176
q-27.7939 0 -46.8115 -19.0176q-19.0166 -21.1297 -19.0166 -46.8115q0 -27.7933 19.0166 -46.8115q16.9049 -19.0166 46.8115 -19.0166q34.0109 0 52.6631 24.8682v-0.0001zM253.074 287.086q39.1601 0 74.6055 -30.7207q30.7207 -32.9136 30.7207 -74.6055
q0 -39.0987 -26.332 -70.2168q-27.3356 -33.6455 -78.9941 -33.6455q-45.3501 0 -74.6055 29.2568q-29.2568 31.3452 -29.2568 74.6055q0 43.0996 29.2568 74.6055q30.7192 30.7207 74.6055 30.7207h-0.0001zM308.663 140.8q8.01568 11.451 11.7021 40.96
q0 27.7949 -19.0166 46.8115q-21.1306 19.0176 -46.8115 19.0176q-27.7939 0 -46.8115 -19.0176q-19.0166 -21.1296 -19.0166 -46.8115q0 -27.7949 19.0166 -46.8115q21.1311 -19.0166 46.8115 -19.0166q37.5463 0 54.126 24.8682v-0.0001z" />
    <glyph glyph-name="uniE901" unicode="&#xe901;" 
d="M738.743 562.103q0 -60.7085 -26.332 -111.177q-27.1497 -50.1237 -78.9941 -90.6973q-47.7988 -39.1078 -117.028 -61.4404q-65.8301 -21.9424 -143.36 -21.9424q-51.4924 0 -105.325 11.7031q-51.7674 11.2541 -93.623 32.1826q-27.6644 -17.0242 -68.7539 -30.7197
q-39.498 -13.166 -89.2344 -13.166q-1.46289 0 -7.31445 2.92578q-3.90104 1.95052 -5.85156 5.85156q-1.46289 2.92578 -1.46289 8.77734q0 1.46191 2.92578 7.31348q8.80603 8.81463 23.4053 27.7949q23.9079 28.2534 40.96 68.7539q-32.147 34.2916 -49.7363 76.0684
q-17.5547 41.6924 -17.5547 87.7715q0 57.9516 29.2568 109.715q25.3564 46.8105 78.9941 90.6973q42.9817 35.1655 117.029 61.4395q65.8286 21.9434 143.359 21.9434q75.3374 0 143.36 -21.9434q67.2775 -24.6675 117.028 -61.4395q49.8096 -36.8169 78.9941 -90.6973
q29.2578 -51.7623 29.2578 -109.715zM956.709 171.52q19.1483 -45.4793 42.4229 -68.7539l23.4053 -27.7939q2.92578 -2.92578 2.92578 -7.31445q0 -5.85156 -1.46289 -8.77734q-1.95052 -3.90104 -5.85156 -5.85156q-2.92578 -2.92578 -7.31445 -2.92578
q-49.7363 0 -89.2344 13.166q-41.0899 13.6971 -68.7539 30.7197q-50.8599 -22.886 -93.623 -32.1826q-53.8328 -11.7031 -105.325 -11.7031q-57.0513 0 -109.715 13.166q-46.8085 11.7025 -96.5479 36.5713q-46.8125 23.4062 -77.5322 54.126
q-36.561 34.2758 -55.5879 70.2168q4.38806 0 13.8966 -0.731445t13.8973 -0.731445q8.77734 -1.46289 27.7939 -1.46289q87.7725 0 166.766 26.332q72.5002 24.8563 134.583 73.1426q58.5756 45.5585 92.1602 108.251q33.6455 62.8035 33.6455 133.12v17.5547
q-0.731445 2.92578 -1.46289 8.77734t-1.46289 8.77734q51.0571 -15.5391 93.623 -42.4238q42.9146 -27.1025 71.6807 -59.9766q29.9498 -34.5592 46.8105 -74.6055q17.5547 -39.498 17.5547 -84.8457q0 -46.0811 -17.5547 -87.7715q-17.589 -41.7773 -49.7363 -76.0693z
" />
    <glyph glyph-name="uniE902" unicode="&#xe902;" 
d="M745.662 798.939q55.2909 0 103.205 -22.9375q50.6521 -22.0096 86.0156 -57.3291q35.2931 -35.2946 57.3438 -86.002q21.5039 -47.357 21.5039 -103.219q0 -69.5156 -42.9932 -123.275l-45.875 -57.3291l-412.862 -412.848l-412.848 414.267l-45.875 57.3438
q-42.9858 53.7378 -42.9932 123.275q0 53.7671 21.5039 103.204q22.0337 50.6905 57.3438 86.002q35.2958 35.2958 86.0156 57.3438q47.2881 21.5039 103.205 21.5039q76.913 0 140.493 -37.2734q57.8519 -33.9013 93.1689 -64.5117q35.1709 30.5028 93.1689 64.5117
q63.5787 37.2734 140.479 37.2734v0z" />
    <glyph glyph-name="uniE903" unicode="&#xe903;" 
d="M693.395 629.395q37.9232 -37.9249 57.0508 -81.9199q19.0176 -49.9211 19.0176 -98.0117q0 -59.3264 -19.0176 -99.4746q-20.3448 -45.2125 -57.0508 -81.9199q-32.3738 -34.5307 -81.9199 -57.0508q-49.9211 -19.0176 -98.0117 -19.0176q-55.7504 0 -98.0117 19.0176
q-47.4732 22.6055 -81.9199 57.0508q-34.5307 32.3738 -57.0508 81.9199q-19.0176 52.2983 -19.0176 99.4746q0 55.7504 19.0176 98.0117q22.6055 47.4732 57.0508 81.9199q32.3738 34.5307 81.9199 57.0508q49.9211 19.0176 98.0117 19.0176q55.7504 0 98.0117 -19.0176
q47.4732 -22.6055 81.9199 -57.0508zM664.137 298.788q60.6555 62.902 58.5146 150.675q0 87.7715 -59.9775 147.749q-59.2451 61.4395 -149.211 61.4395q-88.4772 0 -149.212 -62.9023q-59.9766 -57.8359 -59.9766 -147.749q0 -89.2339 59.9766 -149.212
q59.3222 -61.4395 149.212 -61.4395q91.4287 0 150.674 61.4395zM788.48 753.737q11.7021 0 20.4795 -8.77734q8.77734 -7.02188 8.77734 -20.4795q0 -10.9717 -8.77734 -21.9434q-6.58301 -8.77734 -20.4795 -8.77734q-11.7031 0 -20.4805 8.77734
q-8.77734 7.02188 -8.77734 21.9434q0 11.7021 8.77734 20.4795q5.26641 8.77734 20.4805 8.77734zM980.114 765.44q24.4741 -51.3956 20.4805 -105.326v-424.229q0 -58.9126 -21.9434 -106.789q-20.2561 -49.5134 -59.9775 -89.2334q-40.7327 -40.7342 -87.7705 -59.9775
q-50.0634 -20.4805 -106.789 -20.4805h-422.766q-59.684 0 -106.789 20.4805q-54.0148 24.7575 -89.2334 59.9775q-33.555 35.6508 -59.9775 90.6963q-21.9434 48.2754 -21.9434 106.789v422.766q0 56.9178 21.9434 106.789q27.465 59.5059 61.4395 89.2334
q34.8151 32.7671 89.2344 59.9775q48.2754 21.9434 106.789 21.9434h421.303q62.9023 0 106.789 -21.9434q54.0148 -24.7575 89.2334 -59.9775q33.555 -35.6508 59.9775 -90.6963zM958.172 237.349v424.229q0 46.3243 -19.0176 90.6973q-24.3838 46.3275 -51.2002 73.1426
q-24.2842 28.0217 -73.1426 49.7373q-42.788 19.0176 -90.6973 19.0176h-422.766q-52.6635 0 -90.6973 -19.0176q-42.1333 -18.7266 -74.6055 -51.2002q-29.6693 -27.69 -51.2002 -73.1426q-17.5547 -43.8853 -17.5547 -90.6973v-424.229q0 -45.6742 19.0176 -92.1602
q20.5824 -38.8764 51.2002 -71.6797q29.5359 -33.757 73.1426 -51.2002q43.8853 -17.5547 90.6973 -17.5547h424.229q49.0063 0 90.6973 17.5547q43.8892 21.9454 73.1426 51.2002q26.1572 24.5212 51.2002 74.6055q17.5547 43.8853 17.5547 90.6973h-0.0001z" />
    <glyph glyph-name="uniE904" unicode="&#xe904;" 
d="M409.6 646.948l315.978 -178.468l32.1826 -19.0176l-32.1826 -20.4805l-283.794 -162.377l-32.1836 -19.0166v399.359zM453.485 322.194l217.966 125.806l-217.966 124.343v-250.148v-0.001zM1013.76 586.972q6.54925 -67.6741 8.77734 -138.972
q0 -64.8535 -7.31445 -140.435q-8.77734 -73.1426 -14.6279 -105.325q-8.76583 -46.0206 -40.96 -76.0684q-34.4972 -29.8976 -78.9951 -36.5723q-25.0176 -2.94336 -71.6797 -8.77637q-38.0316 -4.75415 -86.3086 -8.77734q-59.164 -5.63484 -99.4746 -7.31445
q-109.714 -4.57154 -219.428 0q-7.8542 0.714018 -23.5963 1.44622q-15.7421 0.732204 -23.2152 1.47956q-19.0303 1.46387 -54.126 4.38867q-48.277 4.02319 -86.3086 8.77734q-39.5317 4.39258 -70.2168 8.77637q-46.8884 4.46556 -78.9951 36.5723
q-33.3354 29.1683 -42.4229 74.6055q-3.14865 17.3199 -14.6279 105.325q-7.31445 75.5811 -7.31445 140.435q0 59.9775 5.85156 138.972q7.18123 71.8107 14.6279 105.325q8.76572 46.02 40.96 76.0693q33.8412 31.5836 78.9951 38.0342q7.31348 0 21.9424 2.92578
q28.2214 5.64239 48.2744 7.31348q55.5817 5.85091 87.7715 8.77734q63.1275 5.73904 100.938 7.31445q61.4395 2.92578 109.714 2.92578t109.714 -2.92578q63.8333 -3.19167 100.938 -7.31445q48.277 -4.02319 86.3086 -8.77734q7.13635 -1.18939 23.657 -3.44202
t24.6175 -3.87146q3.6571 -0.731421 10.9713 -1.46287q7.31421 -0.731445 10.9711 -1.46292q46.6222 -6.35758 78.9951 -36.5723q32.6992 -32.6992 40.96 -76.0684q5.85059 -32.1826 14.6279 -105.325zM969.874 310.491q8.56534 62.0973 1.46289 133.12
q0 87.2842 -5.85156 136.046q-6.82863 61.4562 -13.165 99.4746q-6.42269 32.112 -29.2578 52.6621q-21.6979 21.6994 -54.125 26.332q-25.0798 4.17997 -68.7549 8.77734q-29.2374 2.92286 -84.8457 8.77637q-30.7197 2.92578 -98.0107 5.85156q-107.521 6.86313 -215.04 0
q-69.9623 -3.1801 -98.0117 -5.85156q-55.5695 -5.84962 -84.8457 -8.77637q-37.0596 -3.90115 -68.7549 -8.77734q-29.8526 -4.26486 -54.125 -26.332q-22.2914 -17.8316 -29.2578 -52.6621q-6.38335 -36.1804 -13.165 -99.4746q-5.85156 -46.8112 -5.85156 -136.046
q0 -87.2842 5.85156 -136.046q6.58301 -59.2456 13.165 -100.937q6.58271 -28.5251 29.2578 -51.2002q24.3875 -22.1718 55.5879 -26.332q14.2158 -1.67188 37.5967 -4.73804t31.1582 -4.03832q38.0316 -4.75415 86.3086 -8.77734q55.5879 -5.55898 99.4736 -7.31445
q33.6465 -1.46289 106.789 -1.46289q71.6797 0 106.788 1.46289q7.83402 0.712183 22.8472 1.44455q15.0132 0.732363 22.5014 1.48123q0.0253737 0.00195182 52.6631 4.38867q69.5012 7.31592 84.8457 8.77734q39.4782 4.38647 70.2178 8.77637
q27.9435 3.99212 54.125 27.7949q22.886 20.8041 29.2578 52.6631q6.58154 41.6909 13.165 100.937z" />
    <glyph glyph-name="uniE905" unicode="&#xe905;" 
d="M512 960q114.611 0 196.022 -46.8115q93.0969 -38.97 163.841 -109.714q70.2158 -70.2173 109.714 -162.378q39.4971 -92.1603 39.4971 -198.948q0 -106.056 -39.4971 -200.411q-39.4966 -92.1606 -109.714 -162.377q-70.7431 -70.7431 -163.841 -109.715
q-92.1603 -39.4971 -198.948 -39.4971q-24.8691 0 -77.5312 5.85156q-35.8663 3.98529 -74.6055 16.0918q21.1409 33.2225 35.1084 62.9023q20.0285 42.5606 27.7939 71.6797l19.0176 70.2178l13.165 51.2002q12.9036 -23.6566 45.3486 -40.96
q32.915 -17.5547 71.6807 -17.5547q57.0502 0 106.788 24.8682q49.2502 24.6258 83.3828 67.292q37.6155 47.0178 55.5889 100.937q20.4795 61.4385 20.4795 124.344q0 65.2988 -23.4053 118.491q-22.54 51.2258 -67.291 93.623q-41.1919 39.0224 -99.4746 61.4395
q-55.3224 23.4062 -124.343 23.4062q-82.6519 0 -146.286 -26.332q-62.3849 -25.8136 -105.325 -68.7539q-43.3369 -43.3369 -64.3662 -98.0117q-21.9424 -57.0525 -21.9424 -117.028q0 -57.838 27.7939 -115.565q29.1817 -60.6081 76.0684 -81.9209
q8.77783 -4.38745 11.7031 -2.9248q3.51133 1.75566 5.85156 8.77637l5.85156 26.332l7.31445 32.1826v7.31445q0 1.46289 -2.92578 7.31445q-14.966 17.1025 -26.332 51.1992q-11.7021 35.1064 -11.7021 65.8291q0 44.3066 14.6279 81.9199
q15.3955 39.5869 45.3486 71.6797q30.5017 32.6804 73.1426 49.7373q42.2613 19.0176 98.0117 19.0176q48.6928 0 86.3086 -14.6289q37.3044 -12.4353 67.292 -42.4229q28.5249 -28.5264 43.8848 -65.8281q16.0918 -39.0801 16.0918 -83.3828q0 -51.2007 -13.166 -95.0859
q-14.2228 -47.4147 -33.6455 -74.6064q-22.9515 -32.1326 -51.2002 -48.2734q-28.5249 -17.5547 -62.9023 -17.5547q-37.9213 0 -61.4404 27.7939q-23.5641 27.8502 -14.6279 65.8291q10.9702 46.0796 26.3311 92.1602q16.0918 48.2739 16.0918 78.9941
q0 28.2119 -16.0918 51.2002q-15.3604 21.9419 -48.2744 21.9424q-38.0343 0 -64.3652 -35.1084q-26.332 -35.1094 -26.332 -89.2344l7.31445 -55.5889l7.31445 -20.4795l-7.31445 -33.6455q-3.27998 -12.2999 -9.74909 -39.3185t-9.26751 -38.2137
q-3.18735 -12.749 -9.85011 -41.9904q-6.66276 -29.2414 -10.6304 -44.3182q-9.50842 -42.7863 -13.166 -55.5879q-7.74009 -38.7005 -5.85156 -74.6064q2.04793 -38.9093 4.38867 -71.6797q-67.1123 24.4055 -131.657 74.6055q-57.4965 46.8501 -102.399 109.715
q-42.5491 59.5693 -67.292 136.046q-23.4053 72.3465 -23.4053 156.525q0 106.788 39.4971 198.948q39.4966 92.1606 109.715 162.378q70.7446 70.7446 163.84 109.714q90.5434 40.96 198.948 40.96z" />
    <glyph glyph-name="uniE906" unicode="&#xe906;" 
d="M535.405 960q78.0624 0 141.897 -23.4053q63.9585 -23.452 117.028 -67.292q48.5997 -40.1462 80.457 -103.862q30.7207 -61.4399 30.7207 -137.509q0 -71.6802 -17.5547 -141.897q-19.4071 -71.158 -57.0508 -128.731q-36.4905 -55.8076 -96.5488 -93.623
q-58.0847 -36.5713 -140.435 -36.5713q-40.3102 0 -80.457 19.0176q-43.1286 20.4285 -59.9775 54.125q-40.8549 -168.869 -48.2734 -197.485q-16.7232 -64.5023 -90.6973 -163.84l-8.77734 -2.92578q-2.93152 1.4715 -5.85156 5.85156q-0.731417 9.50793 -2.92575 28.5253
q-2.19434 19.0173 -2.92581 28.5265q-2.92578 38.0332 -2.92578 57.0508q0 54.8577 7.31445 102.4q11.0529 74.6055 20.4805 117.028q8.77637 39.4971 26.3311 115.565q4.71603 19.6496 12.4267 53.4301q7.71063 33.7805 10.9786 47.5074q-9.5082 19.0189 -14.6279 49.7373
q-4.38867 26.3306 -4.38867 52.6631q0 61.3268 29.2568 95.085q28.9514 35.6325 62.9033 42.4229q34.8295 6.96621 62.9023 -14.6279q29.2568 -22.5053 29.2568 -71.6807q0 -56.7876 -24.8682 -115.565q-24.8682 -56.517 -24.8682 -114.103q0 -39.3854 27.7939 -62.9033
q29.3914 -24.8682 65.8281 -24.8682q51.8828 0 87.7715 33.6455q33.1382 31.0671 55.5889 80.457q21.9434 48.2739 30.7197 100.938q8.77734 52.6626 8.77734 93.623q0 54.8569 -17.5537 96.5479q-17.9741 42.6884 -49.7373 70.2178q-34.5944 29.9802 -76.0684 42.4229
q-41.7981 14.6279 -96.5488 14.6279q-58.0286 0 -112.641 -20.4795q-50.0047 -18.7523 -90.6963 -57.0518q-38.5048 -36.2383 -59.9775 -87.7715q-21.9434 -52.6626 -21.9434 -112.64q0 -60.9089 23.4062 -90.6973q23.4053 -29.7885 23.4053 -45.3486
q0 -16.8214 -7.31348 -42.4229q-8.77748 -30.7197 -23.4062 -30.7197q-37.8725 0 -83.3828 58.5137q-45.3486 58.3058 -45.3486 165.304q0 82.6499 35.1084 150.674q31.9648 61.9304 93.623 114.103q54.0833 45.764 131.657 73.1436q76.8684 24.8682 152.137 24.8682z" />
    <glyph glyph-name="uniE907" unicode="&#xe907;" 
d="M626.103 472.868q0 -27.7945 29.2578 -57.0508q46.1272 -39.0327 62.9023 -52.6631q33.4607 -27.1869 62.9033 -70.2168q29.2568 -42.7622 29.2568 -106.789q0 -31.5562 -16.0918 -77.5312q-18.9638 -47.4118 -57.0508 -83.3828q-40.8401 -38.5712 -105.326 -64.3662
q-65.8298 -26.3311 -165.303 -26.3311q-85.5776 0 -140.435 21.9434q-56.0736 22.4285 -86.3086 52.6621q-32.1834 32.1849 -42.4229 62.9033q-11.7021 35.1096 -11.7021 54.126q0 57.5402 33.6455 102.399q31.6437 42.1921 83.3828 70.2168
q50.9298 27.5877 115.565 40.9609q63.6366 13.165 124.343 13.165q-1.73435 2.60152 -5.9598 9.10259t-8.55988 13.0028q-4.33443 6.50176 -8.88559 13.003q-16.0918 22.9883 -16.0918 55.5889q0 18.5303 5.85156 32.1826q3.90104 13.6536 7.31445 20.4805
q-3.65723 0 -10.9717 -0.731445t-10.9717 -0.731445h-20.4795q-56.3997 0 -96.5488 19.0166q-42.8655 19.2901 -70.2168 51.2002q-29.2567 34.1329 -40.96 67.292q-14.6289 35.5259 -14.6289 73.1426q0 21.3578 11.7031 65.8281q11.0207 44.0827 45.3486 84.8457
q36.1707 42.9545 96.5488 73.1436q61.4409 30.7197 165.303 30.7197h267.702l-81.9199 -48.2744h-83.3828q6.58301 -4.38867 48.2744 -48.2744q42.4229 -44.6557 42.4229 -134.583q0 -122.502 -68.7539 -157.988q-68.7549 -35.4857 -68.7549 -98.0117zM536.868 531.383
q89.8396 0 100.938 64.3662q11.7031 67.8766 11.7031 73.1426q0 15.1162 -7.31445 61.4395q-7.31414 46.3229 -24.8682 83.3828q-21.0644 44.4693 -49.7373 73.1436q-30.7212 30.7197 -80.457 30.7197q-76.3391 0 -98.0117 -58.5146q-21.9434 -59.2456 -21.9434 -86.3086
q0 -41.9349 14.6289 -90.6963q11.2038 -35.4786 36.5713 -76.0693q20.1983 -32.316 54.126 -54.125q29.5814 -20.4805 64.3652 -20.4805zM531.018 -8.41113q127.155 0 160.914 58.5137q33.6455 58.32 33.6455 87.7715q0 70.0409 -54.126 111.178
q-36.5469 27.7754 -89.2344 67.291h-14.6279h-16.0918q-167.019 0 -209.188 -64.3652q-40.96 -62.5186 -40.96 -96.5488q0 -48.5402 23.4053 -80.457q22.5267 -28.6703 59.9775 -49.7373q35.1079 -19.749 74.6055 -26.3311q43.8867 -7.31445 71.6807 -7.31445z" />
    <glyph glyph-name="uniE908" unicode="&#xe908;" 
d="M1024 -29.3447l-295.424 0.0146484l-263.563 335.682l-290.011 -340.89h-122.236l353.748 415.393l-406.514 517.837h306.483l257.478 -332.99l285.754 335.58h121.49l-349.286 -410.565zM276.012 836.638h-148.406l631.135 -803.957h138.854z" />
    <glyph glyph-name="uniE909" unicode="&#xe909;" 
d="M649.509 960q17.5527 0 87.7715 -4.38867q35.1079 -2.19434 48.2744 -4.38867v-175.543h-99.4746q-44.0195 0 -64.3662 -24.8682q-19.0166 -23.2442 -19.0166 -73.1426v-121.418h182.857l-36.5723 -181.394h-146.285v-438.857h-181.395v438.857h-182.857v181.394h182.857
v153.601q0 61.4401 14.6289 112.64q12.4929 43.7252 43.8857 77.5312q30.3819 30.3833 73.1426 45.3486q41.7955 14.6289 96.5488 14.6289z" />
    <glyph glyph-name="uniE90A" unicode="&#xe90a;" 
d="M1018.15 749.349h1.46289v-215.04h-43.8857v-560.274h-925.988v560.274h-43.8857v215.04h236.982l-10.2393 29.2568q-2.92578 5.85156 -5.85156 17.5547q-1.46289 5.85156 -1.46289 17.5537q0 23.4067 8.77734 40.96q5.8501 17.5542 23.4053 35.1094
q17.5562 17.5545 35.1084 23.4053q21.9434 7.31445 42.4229 7.31445q39.9851 0 71.6797 -19.0176q36.0068 -20.2523 70.2178 -67.291l5.85156 -8.77734q0.82149 0 1.59864 -1.99071q0.68574 -1.75656 1.32714 -2.39796q0.731567 -1.09735 3.90062 -5.85146t4.87575 -7.31358
l17.5547 -27.7949l17.5547 27.7949q2.19312 2.92432 7.31348 13.165q0.00860524 1.4715 4.38867 5.85156l2.92578 2.92578q34.8458 45.7336 71.6807 68.7539q34.044 23.4062 73.1426 23.4062q25.9653 0 42.4229 -7.31445q23.404 -11.702 35.1084 -23.4053
q15.8564 -18.1216 23.4053 -35.1094q8.77734 -17.5532 8.77734 -40.96q0 -11.7021 -1.46289 -17.5537q-2.92578 -11.7031 -5.85156 -19.0176l-10.2393 -29.2568h236.982zM579.291 800.549l-40.96 -51.2002h150.675q30.7192 0 48.2744 17.5547
q17.5537 17.5537 17.5537 46.8105q0 30.7207 -17.5537 48.2744q-18.3906 16.0918 -48.2744 16.0918q-26.006 0 -55.5889 -20.4805q-29.4389 -22.0787 -54.126 -57.0508zM288.183 861.988q-19.0166 -19.0166 -19.0166 -46.8115q0 -29.2563 17.5537 -46.8115
q17.5547 -17.5532 48.2744 -17.5537h152.138l-24.8691 32.1826q-1.46289 2.92578 -4.38867 5.85156l-4.38867 4.38867l-7.31348 10.2402q-30.4292 39.7905 -54.126 55.5879q-30.9036 19.0176 -55.5889 19.0176q-32.1826 0 -48.2744 -16.0918zM928.914 17.9199v516.389
h-835.291v-516.389h394.972v430.08h45.3477v-430.08h394.972zM974.263 578.194v128.731h-924.525v-128.731h440.32v42.4229h45.3477v-42.4229h438.857h0.0003z" />
    <glyph glyph-name="uniE90B" unicode="&#xe90b;" 
d="M355.475 657.335q-1.28275 -3.48019 -4.97363 -7.60742q-2.63379 -3.29004 -5.70508 -4.3877q-10.1972 -3.8995 -20.1875 0q-2.86573 0.955244 -5.99805 4.53418l-1.75586 1.75586q-3.29102 2.63193 -4.38867 5.70508q-1.6084 4.13764 -1.6084 9.50879
q0 5.55908 1.75488 10.3857q1.2096 3.42699 5.2666 6.87598q2.52173 2.716 6.58301 4.38867q4.13764 1.6084 9.50879 1.6084q6.39459 0 10.5322 -1.6084q3.72949 -1.53662 6.58301 -4.38867q2.70552 -2.70691 4.24219 -6.87598q1.75488 -4.82666 1.75488 -10.3857
q0 -5.14094 -1.6084 -9.50879zM705.39 649.582q-2.9967 -3.22757 -5.70508 -4.38867q-10.0694 -3.92973 -20.041 0q-3.00361 1.20171 -6.58301 5.41211q-2.7158 2.52284 -4.38867 6.58301q-1.60938 4.14015 -1.60938 9.50879q0 5.5564 1.75586 10.3857
q1.53662 4.17041 4.24219 6.87598q2.52173 2.716 6.58301 4.38867q4.14015 1.60938 10.5322 1.60938q5.36864 0 9.50879 -1.60938q3.83013 -1.49028 7.60645 -5.2666q2.90409 -2.28119 4.24316 -5.85156q1.75488 -4.82666 1.75488 -10.3857q0 -5.14246 -1.60938 -9.50879
q-1.41765 -3.31048 -4.68066 -5.99805zM561.006 309.76q-11.0889 -9.38211 -23.4062 -14.6279q-25.8046 -10.1815 -50.3223 0.291992q-11.8864 5.15793 -22.0889 15.3604q-10.1998 10.1998 -15.3604 22.0889q-4.97363 11.4617 -4.97363 25.0146q0 14.7939 4.97363 26.0391
q5.16058 11.8891 15.3604 22.0889q10.2024 10.2024 22.0889 15.3604q11.4632 4.97363 25.0156 4.97363q7.87104 0 16.2373 -2.48633q8.5838 -2.57571 18.5781 -7.46094l10.9717 -3.80371l240.786 138.972l23.2598 -40.8135l-242.688 -139.996v-12.7266
q0 -15.8173 -4.97363 -27.0625q-5.44188 -12.3054 -13.458 -21.2119zM224.695 526.556q-1.91322 -4.91892 -4.24316 -7.46094q-2.52134 -2.71559 -6.58203 -4.38867q-10.1988 -3.89888 -20.1875 0q-3.25682 1.22148 -5.70508 3.36523q-3.87783 4.52198 -6.14453 9.50781
q-1.75488 3.73096 -1.75488 8.63086q0 5.2829 1.90137 9.50879q2.03331 4.51915 5.12012 7.60742q2.52266 2.717 6.58301 4.3877q4.1362 1.60938 9.50781 1.60938q6.39547 0 10.5332 -1.60938q3.72949 -1.53516 6.58301 -4.3877q2.70552 -2.70691 4.24219 -6.87598
q1.75488 -4.6084 1.75488 -10.3857q0 -5.14094 -1.6084 -9.50879zM224.695 170.496q-1.82883 -4.96172 -4.53516 -7.46094q-2.85454 -2.85308 -6.58301 -4.38867q-10.0521 -3.65437 -20.041 0q-3.51133 1.40484 -5.85156 3.51074q-3.73764 4.61665 -5.99805 9.3623
q-1.75488 3.73096 -1.75488 8.63086q0 5.2829 1.90137 9.50879q1.86479 4.35209 5.12012 7.60742q2.52173 2.716 6.58301 4.38867q10.2408 3.74652 20.041 0q3.82929 -1.48996 6.72949 -4.38867q2.70552 -2.70691 4.24219 -6.87598q1.75488 -4.82666 1.75488 -10.3857
q0 -5.14094 -1.6084 -9.50879zM173.056 340.919q-2.91264 -3.13703 -6.875 -4.38867q-10.0669 -3.92873 -20.041 0q-3.42635 1.37084 -5.70508 3.36426q-3.4564 4.10384 -5.2666 8.63086q-1.60938 4.13774 -1.60938 9.50879q0 5.55994 1.75586 10.3867
q1.58111 4.06744 4.24219 6.72852q2.90099 2.90099 6.72949 4.38867q9.79764 3.74746 20.041 0q3.83024 -1.48891 6.72852 -4.38867q3.10087 -2.89387 5.12012 -7.60645q1.90234 -4.22806 1.90234 -9.50879q0 -4.89783 -1.75586 -8.63086
q-2.19421 -4.38843 -5.2666 -8.48438v2e-05zM529.408 697.271q-3.70451 -3.05001 -7.89941 -4.68066q-9.50879 -3.59732 -19.0176 0q-3.46434 1.34667 -7.31445 4.0957q-3.05001 3.70451 -4.68066 7.89941q-1.60938 4.13774 -1.60938 9.50879q0 5.7796 1.75586 10.3867
q1.41715 4.04996 3.21777 5.85059q4.10384 3.4564 8.63086 5.2666q4.13774 1.60938 9.50879 1.60938q5.14246 0 9.50879 -1.60938q4.41529 -1.71797 7.75293 -4.38867q2.90082 -3.14121 4.0957 -6.72852q1.75586 -4.60712 1.75586 -10.3867q0 -5.14246 -1.60938 -9.50879
q-1.34667 -3.46434 -4.0957 -7.31445h2e-05zM889.563 349.403q-2.5452 -5.34527 -5.2666 -8.48438q-3.12982 -2.90594 -6.72852 -4.38867q-10.3747 -3.77301 -20.041 0q-3.25282 1.21998 -5.70605 3.36426q-3.87782 4.52508 -6.14355 9.50879
q-1.75586 3.73303 -1.75586 8.63086q0 5.28073 1.90234 9.50879q1.86405 4.35038 5.12012 7.60645q2.85205 2.85352 6.58301 4.38867q4.1362 1.60938 9.50781 1.60938q6.39547 0 10.5332 -1.60938q3.83024 -1.48891 6.72852 -4.38867q3.10087 -2.89387 5.12012 -7.60645
q1.90234 -4.22806 1.90234 -9.50879q0 -4.89783 -1.75586 -8.63086h-2e-05zM836.9 162.743q-2.89828 -2.89977 -6.72852 -4.38867q-9.99121 -3.6552 -20.042 0q-3.25213 1.22023 -5.70508 3.36426q-3.45584 4.1049 -5.26562 8.63086q-1.60938 4.1362 -1.60938 9.50879
q0 5.55908 1.75488 10.3857q1.70772 4.39059 4.24316 6.72949q2.52134 2.71559 6.58203 4.38867q4.13774 1.60938 10.5332 1.60938q5.37105 0 9.50879 -1.60938q3.83013 -1.49028 6.72852 -4.38867q3.0998 -2.89287 5.12012 -7.60645q1.90137 -4.22589 1.90137 -9.50879
q0 -4.90137 -1.75488 -8.63086q-2.53584 -5.07169 -5.2666 -8.48438zM958.025 105.106q-21.6595 -37.6302 -52.2246 -73.2891l-5.70508 -8.77734h-776.631l-6.29004 8.77734q-29.249 36.339 -51.2002 74.3125q-21.4583 36.9098 -36.4248 78.4092
q-14.6153 40.523 -22.5283 84.2607q-7.02148 42.7925 -7.02148 89.2344q0 53.1444 9.06934 101.815q9.84193 48.5512 28.9648 93.915q18.9152 45.0864 46.958 87.04q27.7996 41.9203 66.1211 79.1406q37.4771 38.3692 78.9941 65.9746q40.613 27.8804 86.3086 46.958
q46.1804 19.1852 94.208 28.9648q101.196 18.6052 202.167 0q48.3934 -9.80965 94.5 -28.9648q45.5045 -18.9972 86.4551 -46.958q41.2955 -27.3843 79.1406 -66.1211q37.8203 -36.7273 65.9746 -78.8477q28.4354 -42.5402 47.1045 -87.04q19.0648 -45.004 28.9648 -93.623
q9.06934 -49.3342 9.06934 -102.254q0 -46.3701 -7.02148 -88.9414q-8.39201 -45.3589 -22.5283 -84.5537q-14.6948 -40.9687 -36.4248 -79.4326zM882.396 78.6289q47.2431 63.2093 71.6797 133.412q23.9912 70.2119 23.9912 145.847q0 48.3613 -8.48438 92.3066
q-8.61362 44.836 -25.6006 86.3086q-17.1989 41.8948 -43.5928 78.8477q-25.4536 38.1796 -59.5381 72.2656q-33.7087 33.9278 -71.2412 59.5381q-37.5058 25.0029 -79.1406 43.0078q-40.9862 17.5346 -86.0166 26.1855q-92.4921 17.4551 -184.759 0
q-45.1618 -8.6765 -85.8691 -26.1855q-41.4297 -17.9156 -79.2871 -43.1543q-37.3097 -25.6081 -71.0947 -59.3916q-34.0845 -34.0845 -59.2461 -71.8262q-26.7152 -37.5354 -43.8857 -79.1406q-16.7954 -40.482 -25.5996 -86.3086q-8.48438 -45.1034 -8.48438 -92.3066
q0 -75.6333 23.9902 -145.847q24.1182 -70.3619 71.2412 -133.12l6.43652 -9.80078h728.211z" />
    <glyph glyph-name="uniE90C" unicode="&#xe90c;" 
d="M485.669 468.48v491.52h51.1992v-491.52h-51.1992zM708.022 -25.9658q-55.5963 -21.1802 -95.085 -26.3311q-102.4 -20.4804 -204.801 0q-53.4596 9.72022 -93.6221 27.7939q-40.371 15.3794 -86.3086 46.8115q-35.7363 22.5703 -78.9941 65.8281
q-37.3037 37.3037 -65.8291 78.9951q-28.8525 39.9481 -46.8115 84.8457q-15.0886 37.7202 -27.7939 93.6221q-8.77734 48.2754 -8.77734 102.4q0 86.3067 23.4053 156.525q24.7148 76.3897 71.6807 140.435q47.5286 65.6354 108.251 111.177
q51.6041 40.387 112.641 64.3662v-57.0518q-50.8961 -22.3929 -100.938 -62.9023q-49.4311 -40.8356 -87.7715 -99.4746q-40.1807 -61.4537 -58.5146 -118.491q-19.0166 -61.2789 -19.0166 -133.12q0 -48.2739 8.77734 -92.1602q5.85105 -30.7222 23.4053 -86.3086
q13.4362 -36.4685 42.4229 -77.5312q23.4102 -35.1139 59.9775 -71.6797q34.6528 -36.9646 70.2168 -59.9775q30.4581 -21.5007 77.5312 -42.4229q41.0266 -17.2743 86.3086 -26.3311q90.2999 -15.8028 182.857 0q46.5508 9.31047 84.8457 26.3311
q34.2735 14.4315 77.5312 42.4229q35.1139 23.4102 71.6797 59.9775q38.5183 38.5167 59.9775 71.6797q27.9914 43.2577 42.4229 77.5312q16.2651 41.8244 24.8682 84.8457q8.77734 43.8853 8.77734 92.1602q0 71.8413 -19.0166 133.12q-20.6735 64.316 -57.0518 119.954
q-38.3404 58.639 -87.7715 99.4746q-50.0414 40.5094 -100.938 62.9023v57.0518q60.8311 -26.0711 112.641 -64.3662q64.0577 -48.0429 108.251 -111.177q46.9647 -64.0414 71.6807 -140.435q23.4053 -72.3465 23.4053 -156.525q0 -54.125 -8.77734 -102.4
q-8.04673 -44.2557 -27.7939 -93.6221q-15.3794 -40.371 -46.8115 -86.3086q-22.5691 -35.7344 -65.8281 -78.9951q-37.3037 -37.3022 -78.9951 -65.8281q-38.4182 -26.2871 -86.3086 -46.8115z" />
    <glyph glyph-name="uniE90D" unicode="&#xe90d;" 
d="M200.411 661.577l443.246 279.405q12.1906 8.12707 24.8682 10.2402q11.7031 2.34063 23.4062 0q11.9678 -2.39355 20.4795 -8.77734q8.68574 -5.21029 16.0918 -17.5537l162.377 -260.389l1.46289 -1.46289l7.31445 -1.46289q28.5249 -4.38867 48.2744 -26.3311
q19.0166 -21.1311 19.0166 -52.6631v-147.749l11.7031 -2.92578q16.6324 -4.15811 27.7939 -17.5537q10.2402 -12.2883 10.2402 -29.2578v-169.691q0 -16.0908 -10.2402 -26.3311q-8.88407 -11.1069 -26.3311 -16.0918l-13.166 -2.9248v-147.749
q0 -32.1836 -23.4053 -55.5889q-21.2788 -23.4053 -57.0518 -23.4053h-798.72q-33.6451 0 -57.0518 23.4053q-23.4053 23.4068 -23.4053 55.5889v560.274q0 32.1822 23.4053 55.5889q23.4067 23.4053 57.0518 23.4053h112.64zM972.8 389.485h-217.966
q-26.0393 0 -42.4229 -20.4795q-16.0908 -20.6902 -16.0908 -35.1084v-61.4404q0 -21.9434 17.5537 -39.4971q17.5547 -17.5547 40.96 -17.5547h217.966v174.08v0.0001zM912.823 607.451q-12.2517 12.2517 -26.332 10.2402h-798.72q-14.6293 0 -24.8682 -10.2402
q-10.2402 -10.2402 -10.2402 -24.8682v-558.812q0 -14.6293 10.2402 -24.8682q10.2385 -10.2402 24.8682 -10.2402h797.257q14.6289 0 24.8691 10.2402q10.2393 10.2375 10.2393 24.8682v149.211h-168.229q-40.1713 0 -71.6797 29.2578q-29.2568 29.2568 -29.2568 70.2168
v61.4404q0 34.3769 30.7197 67.291q32.1826 32.1826 73.1426 32.1826h168.229v149.212q0 14.6275 -10.2393 24.8682zM838.217 661.577l-52.6621 87.7715l-137.509 -87.7715h190.171h0.0001zM734.354 831.269l-267.703 -169.691h99.4746l196.022 125.806zM684.617 913.188
l-399.36 -251.611h99.4746l327.68 207.726z" />
    <glyph glyph-name="uniE90E" unicode="&#xe90e;" 
d="M193.77 418.935v38.7539h655.838v-38.7539h-655.838z" />
    <glyph glyph-name="uniE90F" unicode="&#xe90f;" 
d="M541.065 457.688h308.542v-38.7539h-308.542v-308.542h-37.2637v308.542h-310.032v38.7539h310.032v308.542h37.2637v-308.542z" />
    <glyph glyph-name="uniE910" unicode="&#xe910;" 
d="M902.583 679.132l36.5713 -35.1094l-427.154 -427.154l-427.154 427.154l36.5713 35.1094l390.583 -390.583z" />
    <glyph glyph-name="uniE911" unicode="&#xe911;" 
d="M121.417 216.868l-36.5713 35.1094l427.154 427.154l427.154 -427.154l-36.5713 -35.1094l-390.583 390.583z" />
    <glyph glyph-name="uniE912" unicode="&#xe912;" 
d="M713.874 115.932l-35.1084 -36.5713l-368.64 368.64l368.64 368.64l35.1084 -36.5713l-332.068 -332.068z" />
    <glyph glyph-name="uniE913" unicode="&#xe913;" 
d="M310.126 780.068l35.1084 36.5713l368.64 -368.64l-368.64 -368.64l-35.1084 36.5713l332.068 332.068z" />
    <glyph glyph-name="uniE914" unicode="&#xe914;" 
d="M1012.3 538.697v-419.84q0 -54.824 -45.3486 -98.0117q-45.5112 -40.96 -108.251 -40.96h-696.32q-63.5525 0 -106.788 40.96q-43.8857 39.4957 -43.8857 98.0117v425.691q0 57.1286 42.4229 95.0859q43.8858 39.4971 106.788 39.4971h23.4062l2.92578 5.85059
q12.1226 24.2453 23.4053 38.0352q20.0722 22.9377 45.3486 29.2568l4.38867 2.92578l1.46289 2.92578q10.3831 29.0713 35.1084 59.9766q19.4351 28.073 54.126 51.2002q31.9369 21.9576 71.6797 33.6455q77.5538 25.8518 162.377 2.92578
q49.4481 -19.228 71.6807 -35.1084q31.0395 -19.9549 55.5879 -51.2002q27.1019 -34.4917 36.5713 -62.9023l2.92578 -4.38867l4.38867 -1.46289q31.1185 -4.78746 48.2744 -21.9434q19.6514 -17.4665 29.2568 -43.8857l1.46289 -4.3877h20.4805q32.4752 0 57.0518 -10.2402
q30.7207 -10.2408 49.7363 -29.2578q26.7486 -30.09 33.6465 -43.8848q10.5138 -18.9273 14.6279 -39.498q0 -1.28003 0.731445 -8.95972t0.731445 -10.0569zM699.246 687.908l-1.46289 -5.85059l80.457 1.46191h10.2402l-4.38867 10.2402q-2.19434 4.38867 -13.166 13.166
q-14.4851 7.52481 -30.9031 6.94873t-27.6116 -8.41162q-8.77539 -8.77539 -13.165 -17.5547zM311.589 752.274l10.2393 -4.38867q15.3902 -5.59643 35.1094 -29.2568q5.26488 -6.14305 17.5537 -30.7207l2.92578 -8.77637h266.24l2.92578 5.85059
q4.1303 16.5212 17.5537 32.1836q8.43359 12.649 27.7949 23.4053l7.31445 2.92578l-2.92578 5.85156q-20.7061 49.6933 -74.6064 84.8457q-53.8337 33.6455 -118.491 33.6455q-62.902 0 -115.565 -30.7197q-54.0614 -35.2585 -74.6055 -80.457zM326.217 680.595
l-2.92578 8.77637q-1.46338 4.39014 -14.6279 17.5547q-14.6289 7.31445 -24.8691 7.31445q-11.7021 0 -26.3311 -7.31445q-11.4941 -6.89648 -16.0918 -16.0918l-4.38867 -10.2393h89.2344zM964.022 518.217q0 32.915 -13.165 52.6631q-15.5291 20.7055 -23.4062 26.332
q-15.4215 12.8495 -38.0342 19.0166q-19.5052 5.85156 -43.8857 5.85156h-689.006q-45.4806 0 -73.1426 -23.4062q-26.3311 -20.6884 -26.3311 -74.6055v-400.822q0 -19.0748 9.29589 -38.5385q9.29589 -19.4637 24.3496 -30.2164q30.7199 -21.9424 65.8281 -21.9424
h689.006q43.154 0 80.457 21.9424q17.7064 12.4986 27.8703 34.2786q10.1639 21.78 10.1639 41.7897v387.657zM806.034 484.571q10.2402 0 17.5547 -7.31445q7.31445 -12.1908 7.31445 -19.0166q0 -9.87451 -7.31445 -19.0176q-9.7526 -7.31445 -17.5547 -7.31445h-599.771
q-7.80273 0 -17.5537 7.31445q-7.31445 12.1908 -7.31445 19.0176q0 6.82585 7.31445 19.0166q9.75098 7.31445 17.5537 7.31445h599.771zM806.034 364.617q10.2402 0 17.5547 -7.31445q7.31445 -12.1908 7.31445 -19.0166q0 -6.82682 -7.31445 -19.0176
q-9.7526 -7.31445 -17.5547 -7.31445h-599.771q-10.2409 0 -17.5537 7.31445q-7.31445 12.1908 -7.31445 19.0176q0 9.87354 7.31445 19.0166q9.75098 7.31445 17.5537 7.31445h599.771z" />
    <glyph glyph-name="uniE915" unicode="&#xe915;" 
d="M925.988 145.188q-0.00195269 -0.000650945 -39.4971 -8.77734h-289.646l-247.223 -200.411v200.411h-212.114q-19.5059 0 -36.5713 7.31445q-23.772 13.584 -33.6465 24.8691q-18.3517 21.4107 -23.4053 36.5713q-7.31445 21.9417 -7.31445 40.96v602.697
q0 19.0166 7.31445 40.96q9.36263 21.0644 21.9424 33.6455q14.0422 15.7975 35.1094 26.3311q17.5532 8.77734 35.1084 8.77734h751.908q19.0181 0 36.5713 -8.77734q16.3859 -6.14473 33.6465 -23.4053q18.3522 -21.4133 23.4053 -36.5713
q7.31445 -21.9434 7.31445 -40.96v-602.697q0 -21.4564 -7.31445 -40.96q-6.58301 -17.5547 -21.9424 -35.1084q-15.004 -16.8795 -33.6465 -24.8691zM582.217 187.611v1.46289h305.737q10.2402 0 19.0176 2.92578q9.75098 3.90039 19.0166 13.166
q6.14473 8.19297 10.2402 20.4795q2.92578 14.6289 2.92578 21.9434v602.697q0 14.6279 -2.92578 21.9424q-1.46289 7.31445 -10.2402 19.0176l-1.46289 1.46289q-5.85352 4.38916 -17.5537 10.2393q-8.77734 4.38867 -21.9434 4.38867h-750.445
q-8.77734 0 -21.9434 -4.38867q-5.85254 -2.92627 -17.5537 -11.7021l-1.46289 -1.46289q-5.64258 -7.52344 -10.2402 -19.0176q-2.92578 -14.6289 -2.92578 -21.9424v-602.697q0 -16.0918 2.92578 -23.4062q0 -0.731445 0.731445 -1.46289t0.731445 -1.46289
q5.85059 -11.7012 11.7031 -17.5537q11.7042 -8.77818 19.0166 -11.7031q14.6289 -2.92578 20.4805 -2.92578h256v-152.137z" />
    <glyph glyph-name="uniE916" unicode="&#xe916;" 
d="M863.086 98.377q-39.498 -37.3022 -74.6055 -65.8281q-23.4131 -16.0965 -81.9209 -45.3486q-39.251 -18.5932 -92.1592 -27.7949q-100.618 -18.2929 -198.949 0q-38.6594 7.73214 -92.1602 27.7949q-36.8656 14.3371 -83.3828 45.3486
q-37.2984 24.1338 -77.5312 64.3652q-37.0629 37.0644 -64.3652 76.0684q-26.6153 41.1327 -45.3486 84.8457q-18.8326 48.1278 -27.7949 90.6973q-8.77637 48.2781 -8.77637 99.4746q0 66.7046 10.2393 109.714q10.5187 46.2822 33.6465 99.4746
q23.5529 51.3899 54.125 90.6973q31.5876 42.8673 77.5322 80.457l35.1084 29.2568h-171.154v45.3486h283.794v-283.794h-45.3486v219.429l-24.8682 -16.0918q-38.9508 -23.3692 -84.8457 -71.6797q-37.3217 -39.6543 -64.3662 -89.2344q-26.4589 -46.8129 -40.96 -102.4
q-13.166 -50.4683 -13.166 -111.177q0 -45.3491 8.77734 -89.2344q10.757 -48.4048 24.8691 -81.9199q12.7346 -36.084 40.96 -76.0684q25.0473 -37.5731 57.0508 -67.292q39.7467 -39.7448 68.7549 -58.5137q33.8964 -21.7916 76.0684 -40.96
q36.2219 -16.3004 81.9199 -24.8691q92.9647 -18.1382 181.395 0q45.698 8.56873 81.9199 24.8691q42.5492 17.9146 76.0684 40.96q37.5753 25.0498 67.292 57.0508q38.0344 38.036 58.5137 68.7549q23.1275 32.7627 40.96 76.0684q16.3004 36.2219 24.8691 81.9199
q8.77637 39.4988 8.77637 89.2344v24.8682h45.3486v-23.4053q0 -53.391 -8.77637 -99.4746q-8.96231 -42.5695 -27.7949 -90.6973q-20.3278 -48.2767 -45.3486 -84.8457q-32.7632 -44.465 -64.3652 -76.0684zM789.942 797.623l-29.2568 20.4795l24.8691 38.0342
l33.6455 -27.7939zM514.926 943.908l39.4971 -1.46289l-5.85156 -46.8105h-29.2568zM925.988 717.166l-39.4971 -23.4062l-21.9424 33.6455l33.6455 26.332zM645.12 921.966l42.4229 -14.6289l-19.0176 -40.96l-33.6455 10.2402zM977.188 622.08l11.7031 -42.4229
l-43.8857 -13.166l-10.2402 35.1084z" />
    <glyph glyph-name="uniE917" unicode="&#xe917;" 
d="M1019.61 563.565q4.38867 -15.3589 4.38867 -27.7939q0 -17.5547 -2.92578 -26.3311q-5.85156 -17.5547 -11.7031 -24.8691q-5.36513 -10.7303 -17.5537 -20.4795l-179.932 -144.823l52.6631 -213.577q1.46289 -8.77734 1.46289 -27.7939
q-2.92578 -17.5547 -7.31445 -26.332q-4.38789 -10.9697 -13.166 -21.9424q-7.52272 -9.4034 -21.9424 -19.0176q-12.8017 -7.681 -24.8691 -11.7021q-13.166 -4.38867 -27.7939 -4.38867h-2.92578q-8.77832 0 -26.3311 2.92578q-8.77734 2.9248 -23.4062 8.77637
l-206.263 112.641l-207.726 -115.566q-20.8943 -8.3577 -23.4062 -8.77637q-17.5527 -2.92578 -26.3311 -2.92578h-4.38867q-17.9187 2.55981 -27.7939 5.85156q-12.0675 4.02115 -24.8691 11.7021q-14.6297 11.7053 -20.4795 19.0176q-11.7039 14.6299 -14.6289 21.9424
q-2.92578 8.77734 -5.85156 26.332q0 17.5537 1.46289 26.3311l54.126 216.503l-178.469 144.823q-7.31174 5.84842 -19.0166 20.4795q-6.50174 8.12717 -11.7031 26.332q-2.92578 14.627 -2.92578 24.8682q0 14.6292 5.85156 26.3311q3.9707 11.9121 13.166 23.4062
q4.38657 7.31258 19.0166 19.0166q8.0459 8.0459 23.4062 13.166q17.5527 5.85156 27.7939 5.85156l239.908 20.4795l95.0859 203.338q2.92578 7.31348 14.6289 21.9424q8.10306 10.1288 20.4795 17.5547q25.0788 14.6279 52.6631 14.6279h2.92578
q30.3012 0 51.2002 -14.6279q13.166 -6.58301 21.9424 -17.5547q2.34297 -2.92871 14.6289 -23.4053l93.623 -201.875l239.908 -20.4795q16.5798 0 26.3311 -5.85156q11.7031 -4.68125 23.4062 -11.7031q12.2918 -10.2432 20.4795 -20.4795
q7.31445 -7.31445 13.166 -21.9434zM209.188 93.9883q0 -9.50781 1.46289 -10.2393q0 -7.31445 1.46289 -10.2402l1.46289 -2.92578q2.92578 -5.85156 7.31445 -10.2402l8.77734 -8.77734h1.46289q2.92627 -2.92627 11.7021 -5.85156q1.56738 -0.783691 5.6478 -1.52559
q4.08042 -0.741895 6.05532 -1.4002h1.46289q8.77734 0 13.166 1.46289q8.77441 2.9248 11.7021 4.38867l231.132 125.806l229.669 -127.269q4.3877 0 10.2393 -2.92578q4.38867 -1.46289 13.166 -1.46289h2.92578q5.85156 0 14.6289 2.92578
q8.77588 2.92529 11.7021 5.85156q4.38867 2.92578 10.2402 8.77734q5.85153 5.85156 7.31445 10.2402q2.92578 8.77734 2.92578 11.7031q1.21905 3.65633 -1.46289 11.7021l-58.5146 242.835l200.412 163.84q5.84863 5.84863 8.77637 10.2402
q3.6571 3.65588 5.85156 10.2393v1.46289q1.46289 2.92578 1.46289 10.2402q0 5.85156 -2.92578 11.7031q-2.92578 8.77734 -5.85156 11.7021q-4.38721 4.38867 -8.77637 8.77734q-2.92578 2.92578 -11.7031 5.85156q-2.41377 0.80459 -6.57082 1.56042
q-4.15705 0.755827 -6.5952 1.36536l-267.702 23.4062l-106.789 228.205q-2.92578 5.85156 -7.31445 10.2402q-5.85156 5.85156 -10.2402 8.77734q-7.80078 5.85156 -24.8682 5.85156q-16.5798 0 -26.3311 -5.85156q-4.38867 -1.46289 -10.2402 -7.31445t-7.31445 -10.2402
l-108.251 -228.206l-266.24 -23.4053q-5.85156 0 -14.6289 -2.92578q-5.85156 -1.95052 -11.7031 -5.85156l-2.92578 -1.46289q-0.547362 -0.547728 -2.37588 -3.108t-3.4747 -4.20645q-4.38867 -8.77734 -4.38867 -10.2393q-2.92578 -8.77734 -2.92578 -13.166
q0 -7.31445 1.46289 -10.2402l1.46289 -2.92578l4.38867 -8.77734q1.4624 -4.38623 7.31348 -10.2393l203.338 -163.84z" />
    <glyph glyph-name="uniE91A" unicode="&#xe91a;" 
d="M997.814 548.791q8.85077 -47.793 8.63086 -99.1816q0 -51.3828 -8.63086 -98.7432q-9.64202 -47.1144 -27.6475 -91.5752q-17.6049 -43.57 -44.9102 -83.5283q-26.5134 -39.9885 -64.0732 -76.6543q-36.0352 -36.9247 -75.3369 -63.7803
q-41.0364 -27.2841 -84.2607 -45.4951q-43.3376 -18.3521 -90.5508 -26.916q-47.5805 -8.63086 -99.0352 -8.63086q-51.4546 0 -99.0352 8.63086q-47.2132 8.56396 -90.5508 26.916q-42.8614 18.0581 -83.2373 45.4951q-41.0025 27.3355 -76.6533 64.0732
q-36.3632 35.2745 -63.9268 76.5068q-26.9096 39.1616 -44.9102 83.3828q-17.8307 44.2497 -27.501 91.2822q-8.77734 47.3979 -8.77734 99.0361q0 51.1617 8.63086 98.7422q9.58419 46.8333 27.6475 90.9902q17.5738 42.7396 44.9102 83.9678
q26.4919 39.0877 64.2197 75.9229q35.6821 36.7835 76.5068 63.9268q40.3204 27.3274 83.0908 45.3486q42.9724 18.1974 90.8428 27.0625q47.1806 9.65527 98.7432 9.65527q51.6363 0 99.0352 -9.65527q47.9971 -8.97147 90.5508 -27.209q44.0215 -18.5469 84.1143 -45.3486
q39.5207 -26.9352 74.6064 -62.9033l1.31641 -1.31641q36.9872 -35.8798 63.7803 -75.1904q26.8229 -40.1259 44.9102 -84.1143q18.1476 -44.3631 27.501 -90.6973zM960.073 426.203l-38.3271 -0.145508v46.0791h38.4736l-1.60938 17.9932q-7.30383 81.2331 -40.082 149.65
q-32.4664 68.2235 -89.8193 126.684q-58.1654 57.0596 -126.392 89.5273q-68.6887 32.8026 -149.65 40.082l-17.9932 1.60938v-38.4736h-45.0557v37.0107l-23.1133 -0.146484q-81.1038 -7.31229 -149.064 -40.082q-68.2339 -32.9023 -124.197 -89.9658
q-55.9035 -57.8855 -88.0635 -126.391q-32.2269 -68.6459 -39.4971 -149.505l-1.60938 -17.9932h38.3271v-46.0791h-38.4736l1.60938 -17.9932q7.28848 -79.958 40.082 -149.065q32.6007 -68.9453 89.8193 -127.269q57.9567 -56.8548 126.391 -89.5273
q68.4188 -32.7782 149.65 -40.082l17.8477 -1.46289v38.4736h45.0557v-38.4736l17.9932 1.60938q80.964 7.27977 149.65 40.082q68.222 32.4664 126.684 89.8193q57.0039 57.8855 89.6729 126.977q32.8184 69.1597 40.082 149.064zM431.543 530.213l0.438477 0.291992
l288.622 127.854l-1.90137 -4.3877l-126.245 -285.843l-289.207 -128.146zM458.313 502.272q-10.2757 -10.2757 -16.0918 -23.8447q-5.85156 -13.4395 -5.85156 -28.9648q0 -16.0362 5.85156 -29.9883q5.91935 -13.8873 15.9453 -23.6982q11.3641 -11.3656 25.3076 -16.6768
q13.5759 -5.12012 28.3789 -5.12012q14.8025 0 28.3799 5.12012q13.8422 5.35832 25.3076 16.8223q10.354 10.5809 15.9443 23.6982q5.85156 13.4362 5.85156 29.9893q0 15.5291 -5.85156 28.9639q-5.75739 13.5108 -15.9443 23.6992q-11.6003 11.3755 -24.7227 16.9688
q-13.438 5.85156 -28.9648 5.85156q-15.5254 0 -28.9648 -5.85156q-13.4248 -5.81836 -24.5752 -16.9688z" />
    <glyph glyph-name="uniE91B" unicode="&#xe91b;" 
d="M777.655 332.142q30.4268 -35.2766 30.4268 -82.5049q0 -53.6875 -37.5947 -91.2822q-37.8171 -37.5957 -90.2588 -37.5957q-53.5415 0 -91.2822 37.7422q-37.5957 37.5957 -37.5957 91.1357q0 8.03987 1.31641 15.5059q1.46198 7.89545 2.34082 11.7031l2.34082 10.3867
l-119.223 71.9717l-8.0459 -7.16797q-16.3481 -14.5798 -37.3027 -23.8438q-22.7698 -9.94824 -48.8594 -9.94824q-52.6631 0 -90.2588 37.5957q-37.5947 37.8162 -37.5947 91.2822q0 52.8827 37.5947 90.2588q37.8162 37.5947 90.2588 37.5947q27.112 0 50.3223 -9.94727
q21.6103 -9.45413 37.5947 -24.5762l8.0459 -7.60645l118.784 71.2412l-3.21777 10.8252q-1.66012 5.34586 -2.92578 12.4346q-1.31738 7.90137 -1.31738 16.9688q0 52.5156 37.7422 90.2578q37.5942 37.5957 91.1357 37.5957q52.6646 0 90.2588 -37.5957
q37.5947 -37.8162 37.5947 -90.2578q0 -47.2283 -30.4268 -82.5049q-28.74 -33.7853 -70.8027 -42.8623l-11.5566 -2.48633v-140.142l11.8496 -2.34082q41.8489 -8.19358 70.6562 -41.8379zM406.235 385.243q25.5287 25.9694 25.3076 61.7324q0 35.9878 -25.4541 61.4404
q-25.4526 25.4541 -62.3174 25.4541q-36.2046 0 -61.4404 -25.4541q-25.4531 -25.6748 -25.4531 -61.4404q0 -35.6144 25.4531 -61.7324q25.5986 -26.0391 61.4404 -26.0391q36.8667 0 62.4639 26.0391zM617.765 705.756q-25.5996 -25.6011 -25.5996 -61.4404
t25.5996 -61.4404q25.6748 -25.4531 62.3174 -25.4531q36.2056 0 61.4404 25.4531q25.4531 25.6762 25.4531 61.4404q0 36.2056 -25.4531 61.4404q-25.6762 25.4531 -61.4404 25.4531q-36.8643 0 -62.3174 -25.4531zM583.973 333.604q12.0907 13.6586 26.916 23.1133
q15.298 9.75516 32.3301 15.2139l10.2393 3.21777v143.799l-10.6787 2.92578q-16.7413 4.62649 -31.3047 14.3359q-15.2503 10.2423 -26.4785 22.5283l-8.19141 8.77734l-114.542 -69.7783l3.51074 -10.9717q2.95229 -8.6265 4.68164 -17.7002
q2.19434 -11.4111 2.19434 -22.0898q0 -12.8003 -2.19434 -23.9902q-1.93555 -9.03447 -5.2666 -18.1396l-4.24219 -11.4102l114.98 -69.0469zM741.522 187.319q25.5267 25.5267 25.3076 62.3174q0 35.9854 -25.4541 61.4395q-25.6743 25.4541 -61.4404 25.4541
q-36.8633 0 -62.3174 -25.4541q-25.4531 -25.6748 -25.4531 -61.4395q0 -36.7178 25.5996 -62.3174q25.3796 -25.6006 62.3174 -25.6006q35.8398 0 61.4404 25.6006zM991.524 32.5488q-9.04793 -21.629 -26.4775 -39.0586q-17.0555 -17.9413 -38.4736 -26.3311
q-21.688 -8.63086 -47.1035 -8.63086h-734.793q-25.7809 0 -46.665 8.48438q-20.965 8.3854 -39.2051 26.624q-17.0313 17.0313 -26.1846 38.9121q-9.07031 21.679 -9.07031 46.0801v735.816q0 25.4786 8.92383 46.373q8.97776 21.242 25.8926 39.0586
q18.3104 17.4373 39.6436 26.7695q21.416 8.92383 46.5186 8.92383h735.232q25.2769 0 46.957 -9.06934q21.629 -9.0494 38.6201 -26.0391q17.3425 -18.2331 26.3311 -39.4971q8.92383 -21.4175 8.92383 -46.5195v-735.816q0 -24.4011 -9.07031 -46.0801zM959.488 78.6289
l-0.146484 735.816q0 16.3537 -5.41309 30.4277q-5.51134 14.5541 -17.4072 25.3076q-11.8802 12.1005 -25.7471 18.1396q-13.8237 6.14355 -31.3047 6.14355h-734.793q-17.6274 0 -31.4512 -6.14355q-13.737 -5.98258 -25.1611 -17.4082
q-12.4977 -11.3819 -17.9932 -25.8926q-5.55957 -14.4549 -5.55957 -30.5742v-735.816q0 -16.1252 5.55957 -30.1348q5.3351 -13.4489 17.5537 -25.8926q12.0688 -12.0688 25.8926 -17.5547q13.7859 -5.55859 31.0127 -5.55859h734.793q17.1521 0 31.1592 5.55859
q13.8237 5.48584 25.8926 17.5547q12.0706 12.0706 17.5537 25.8926q5.55957 14.0095 5.55957 30.1348z" />
    <glyph glyph-name="uniE91C" unicode="&#xe91c;" 
d="M571.685 -9.58203q-2.79771 -7.10276 -8.33789 -13.751q-6.42338 -5.56578 -13.6045 -8.48438q-17.3069 -6.86739 -34.2314 0q-6.72374 2.52228 -13.6045 8.48438q-5.77457 6.66263 -8.48438 13.751q-3.07227 8.12092 -3.07227 17.5547q0 10.2723 2.92578 17.7002
q2.52135 6.72267 8.48438 13.6045q7.25509 6.34858 14.6289 9.50879q16.1885 7.11336 32.3291 0q7.87867 -3.60198 14.6289 -9.50879q5.56693 -6.4247 8.48438 -13.6045q2.92578 -7.42791 2.92578 -17.7002q0 -9.43377 -3.07227 -17.5547zM853.724 129.975
q0 -7.16748 -2.19434 -12.873q-2.35667 -5.35541 -7.16797 -10.3857q-4.45821 -4.6611 -10.3867 -7.16797q-12.504 -5.04672 -24.8682 0q-5.35458 2.35487 -10.3867 7.16797q-4.65919 4.45633 -7.16797 10.3857q-2.33984 5.53015 -2.33984 12.873q0 7.34431 2.33984 12.873
q2.35746 5.35722 7.16797 10.3867q4.45793 4.65946 10.3867 7.16797q5.53246 2.34082 12.873 2.34082q6.31759 0 11.8486 -2.34082q5.35722 -2.35746 10.3867 -7.16797q4.65946 -4.45793 7.16797 -10.3867q2.34082 -5.53104 2.34082 -12.873h0.00012zM812.617 704.731
q-0.728999 0.728999 -1.46289 2.19434q-1.02441 2.66293 -1.02441 7.16797q0 3.8382 1.02441 7.16797q0.294018 0.880093 1.46289 2.04785q0.872542 0.873271 2.04785 1.46289q2.86809 1.02441 7.31445 1.02441q3.57983 0 6.14355 -0.731445q0.584961 0 2.19434 -1.60938
q1.55065 -1.54935 2.4873 -3.65723q0.87793 -2.41541 0.87793 -5.70508q0 -3.51123 -0.87793 -5.70508q-0.587058 -1.75856 -2.4873 -3.65723q-1.60938 -1.60938 -2.19434 -1.60938q-6.16064 -2.36996 -13.458 0.146484q-1.17385 0.588887 -2.04785 1.46289v2.1e-05z
M963.73 421.961q0 -5.02731 -1.60938 -8.0459q-1.55958 -3.50971 -4.97363 -7.16797q-4.24258 -4.24258 -8.19238 -5.99707q-7.09396 -3.20397 -14.1895 0q-3.94829 1.75447 -8.19238 5.99707l-1.46191 1.31738q-2.67117 2.22548 -3.51172 4.53418
q-1.46289 4.1492 -1.46289 9.3623q0 4.72106 1.46289 8.48438q1.42532 3.32627 4.97363 6.87598q4.24321 4.24172 8.19238 5.99805q3.34371 1.46191 7.16797 1.46191t7.16797 -1.46191q3.72847 -1.53559 7.46094 -5.2666q3.79476 -4.46548 5.70508 -8.92383
q1.46289 -3.34594 1.46289 -7.16797zM64.6582 446.83q4.3382 10.6283 13.751 20.4795q9.03277 9.03277 20.1875 13.751q23.9453 10.1944 48.1279 0q11.3176 -4.88109 20.1875 -13.751q9.60843 -9.39462 14.043 -20.4795q4.53516 -11.2298 4.53516 -24.7227
q0 -14.1827 -4.53516 -25.7461q-3.86162 -10.0852 -13.165 -18.7246l-1.46289 -1.46289q-8.31845 -8.95921 -18.7246 -13.166q-24.9142 -9.72714 -49.5908 0q-10.088 3.86412 -18.7246 13.166l-1.46289 1.46289q-8.96016 8.31934 -13.166 18.7246
q-4.53516 11.0121 -4.53516 25.7461q0 13.4929 4.53516 24.7227zM311.442 743.497q5.55859 -13.8973 5.55859 -29.4033q0 -16.0188 -5.41211 -29.5498q-5.16814 -12.9211 -16.8232 -24.5762q-9.45031 -10.1091 -21.5039 -14.6279q-29.7333 -11.2438 -59.2461 0
q-12.7258 4.82636 -22.5273 14.6279q-10.3022 10.9455 -15.7988 24.5762q-5.41309 12.9914 -5.41309 29.5498q0 16.0163 5.41309 29.5498q5.11502 13.0003 15.3594 24.1367q10.306 10.0911 22.8213 14.9219q29.5114 11.2423 59.2451 0q12.0229 -4.50878 22.2354 -15.3604
q10.9237 -10.9237 16.0918 -23.8447h-0.00018zM291.986 109.642q-3.78301 -9.24986 -11.5566 -17.9932q-7.76074 -7.9766 -16.9688 -11.7031q-20.0129 -8.25465 -39.6436 0q-8.6822 3.51317 -16.2383 10.8252q-8.56594 9.20782 -13.3115 19.6025
q-3.9502 8.99783 -3.9502 19.6016q0 9.5803 3.9502 18.5781q4.31076 9.69922 12.873 19.1641q7.53487 7.53487 16.5303 11.2637q19.9026 8.1425 39.6436 0q8.68431 -3.51458 16.2373 -10.8252q8.60505 -9.50893 12.4346 -18.8711q3.80371 -8.8758 3.80371 -19.3096
q0 -10.9343 -3.80371 -20.333zM618.935 871.936q6.94044 -17.2375 6.72949 -35.9854q0 -20.0089 -6.87598 -36.8643q-6.75016 -16.5519 -21.2109 -31.0127q-12.7357 -13.5989 -29.2568 -20.7725q-35.9074 -15.5275 -71.8262 0q-16.647 7.3241 -29.8428 21.3574
q-13.8758 13.8758 -20.626 30.4277q-6.87598 16.6347 -6.87598 36.8643q0 18.9079 6.87598 35.9854q6.75016 16.5519 20.626 30.4277l1.16992 1.02441q12.0437 13.7334 28.2334 20.4795q16.5445 6.87598 35.9863 6.87598q19.8159 0 36.8643 -6.72949
q15.5416 -6.47604 28.2334 -20.4795l1.16992 -1.1709q13.8758 -13.8758 20.626 -30.4277z" />
    <glyph glyph-name="uniE91D" unicode="&#xe91d;" 
d="M329.143 139.337q-5.85449 -5.85449 -17.5537 -11.7021q-10.2412 0 -14.6289 4.3877q-6.7293 6.7293 -4.38867 16.0918q0 8.77734 8.77734 20.4805l172.617 177.005q8.04578 8.04578 19.0166 10.2402q8.19219 2.04805 14.6289 -4.38867q6.454 -4.30267 4.38867 -14.6279
q-2.19434 -10.9717 -10.2402 -19.0176zM763.611 249.052q-5.48584 -5.48584 -13.1655 -5.48584t-13.1655 5.48584q-5.85156 3.90104 -5.85156 11.7021q0 5.85156 5.85156 11.7031q4.38867 4.38867 13.165 4.38867q6.58301 0 13.166 -4.38867
q5.85156 -3.90104 5.85156 -11.7031q0 -5.85059 -5.85156 -11.7021zM217.966 241.737q-8.28971 0 -16.0918 5.85156q-4.87636 4.87636 -2.92578 14.6279q2.19434 10.9717 10.2402 19.0176l61.4404 62.9023q8.04614 8.04614 19.0166 10.2402h2.92578
q7.31445 0 11.7031 -4.38867q6.7291 -6.7291 4.38867 -16.0908q-2.19434 -10.9717 -10.2402 -19.0176l-61.4404 -62.9023q-8.04446 -8.04581 -19.0166 -10.2402zM1024 641.097l-1.46289 -2.9248q0 -39.863 -7.31445 -89.2344q-8.52807 -55.431 -57.0508 -86.3086
l-7.31445 -5.85156l1.46289 -10.2402q1.46289 0 1.46289 -2.92578v-2.92578v-409.6h36.5713q10.2406 0 16.0908 -5.85156q5.85156 -5.85156 5.85156 -16.0918q0 -10.2393 -5.85156 -16.0908q-5.85026 -5.85156 -16.0908 -5.85156h-964.023q-8.77637 0 -14.6279 5.85156
t-5.85156 16.0908q0 10.2402 5.85156 16.0918q5.85156 5.8516 14.6279 5.85156h35.1094v425.691l1.46289 5.85156l-5.85156 4.38867q-39.498 30.7192 -48.2744 83.3828q-8.77734 50.4683 -8.77734 78.9941h2.92578l-2.92578 10.2402v2.9248q0 5.85156 2.92578 20.4805
q1.46313 8.77881 7.31445 20.4795l108.251 200.412q6.33822 10.5637 19.0176 19.0166q14.6289 7.31445 26.3311 7.31445h696.32q13.8965 0 24.8682 -7.31445q10.868 -5.43401 19.0176 -19.0166l109.714 -200.412q5.36366 -10.7255 7.31445 -20.4795
q2.92578 -14.6289 2.92578 -21.9434zM535.405 864.914v-215.04h201.875l-52.6631 215.04h-149.212h0.0001zM490.058 864.914h-140.435l-61.4404 -215.04h201.875v215.04h0.0004zM472.503 605.988h-165.303l1.46289 -13.165q8.72999 -76.386 36.5713 -89.2344
q26.3306 -13.166 45.3486 -13.166q19.0166 0 45.3486 13.166q27.924 15.0354 36.5713 90.6973v11.7021h0.00031zM160.914 864.914l-117.028 -215.04h197.485l61.4404 215.04h-141.897h-0.0004zM46.8115 592.823q8.64733 -75.6627 36.5713 -90.6973
q26.332 -13.166 45.3486 -13.166t45.3486 13.166q30.0255 12.8687 36.5713 89.2344l1.46289 13.165h-165.303v-11.7021h0.00031zM621.714 29.623h-1.46289v419.84l-8.77637 1.46289q-30.8924 8.82641 -51.2002 33.6455q-20.7348 25.3425 -29.2568 65.8291l-10.2402 43.8857
l-10.2402 -43.8857q-10.8126 -51.9006 -42.4229 -78.9951q-30.7198 -26.3311 -77.5312 -26.3311h-1.46289q-49.0058 0 -77.5312 26.3311q-31.4122 24.681 -42.4229 77.5322l-11.7031 43.8857l-10.2402 -43.8857q-11.3346 -52.139 -40.96 -77.5322
q-30.7198 -26.3311 -77.5312 -26.3311h-8.77734l-14.6279 1.46289v-416.914h516.388zM608.549 503.589q29.2562 -14.6289 45.3486 -14.6289q19.0166 0 45.3486 13.166q30.0255 12.8687 36.5713 89.2344l1.46289 13.165h-165.303v-11.7021q8.72845 -76.3853 36.5713 -89.2344
h0.00031zM911.36 29.623h-1.46289v415.451h-16.0918q-38.7661 0 -67.291 17.5547q-27.3229 18.9144 -42.4229 55.5879l-10.2402 21.9434l-10.2402 -21.9434q-14.1212 -32.948 -35.1084 -49.7363q-22.0898 -17.6719 -54.126 -21.9434l-8.77734 -1.46289v-415.451h245.761z
M977.188 592.823l-1.46289 11.7021h-165.303l1.46289 -11.7021q8.72991 -76.3853 36.5713 -89.2344q26.332 -13.166 45.3486 -13.166q20.4795 0 46.8115 13.166q30.0254 12.8672 36.5713 89.2344h0.0003zM784.092 651.337h196.022l-115.565 213.577h-134.583z
M481.28 136.411q-11.7031 0 -14.6289 2.92578q-6.7293 6.7293 -4.38867 16.0918q0 7.68091 10.2402 20.4795l1.46289 2.92578q8.04578 8.04578 19.0166 10.2402q10.2402 0 14.6289 -4.38867q6.72941 -6.72941 4.38867 -16.0908q-2.19434 -10.9717 -10.2402 -19.0176
l-2.92578 -2.92578q-5.93779 -7.91705 -17.5537 -10.2402z" />
    <glyph glyph-name="uniE91E" unicode="&#xe91e;" 
d="M696.32 0.511719q-42.9188 -17.4771 -88.9424 -26.7695q-95.532 -17.5572 -190.61 0q-46.0186 9.46771 -89.0879 26.916q-43.2567 17.6153 -81.4805 44.7637q-39.4937 26.3276 -74.46 61.2939q-36.5111 36.5096 -62.3174 74.459q-26.4229 39.6328 -44.3252 82.0664
q-18.0751 42.5441 -27.3545 88.5029q-8.48535 46.6627 -8.48535 96.2559q0 48.1328 8.33887 95.2324q9.47183 46.2592 27.3555 88.6484q17.9842 42.6312 44.3242 81.9199q26.3299 38.6175 62.3174 74.6064q35.8371 35.6099 74.6064 62.3174q38.4187 26.3453 81.4805 44.3242
q42.2186 17.6277 89.0879 26.332q46.816 9.3623 95.2324 9.3623t95.2324 -9.3623q46.764 -8.50377 88.9414 -26.332q43.9055 -18.5579 81.4814 -44.3242q39.495 -27.2084 74.6055 -62.3174q36.5153 -36.5153 62.3174 -74.46q26.4229 -39.6328 44.3252 -82.0664
q17.6436 -41.5271 27.3545 -88.5029q8.48535 -46.8863 8.48535 -95.3779q0 -49.6702 -8.48535 -96.1094q-9.58945 -46.8351 -27.3545 -88.6494q-18.1224 -42.652 -44.3252 -82.0664q-26.3295 -38.6176 -62.3174 -74.6055q-34.8877 -34.8877 -74.6055 -61.4404
q-38.8865 -27.331 -81.335 -44.6172zM931.401 315.465l7.75293 26.0391h-175.25l-6.14453 -10.9717q-20.5346 -43.9391 -52.6631 -76.5068q-31.8567 -32.2967 -75.3369 -52.8096l-12.4336 -4.68066v-175.543l25.8926 7.60645q50.9929 16.6286 95.3779 43.7393
q44.2585 26.6857 82.7979 66.1211q37.9135 37.9135 65.6816 82.6523q27.805 44.7944 44.3252 94.3535v1e-05zM947.932 492.324l-2.92578 16.3848h-169.106l4.68164 -23.2598q2.88022 -12.965 3.65625 -21.5039q0.87793 -9.64406 0.87793 -16.0918
q0 -7.32469 -0.87793 -16.9688q-0.934026 -10.2774 -3.65625 -21.7969l-4.68164 -23.1133h168.96l3.07227 18.2861q0.944363 11.7093 1.46289 24.1367q0.438477 10.7639 0.438477 19.4561q0 7.81419 -0.438477 18.5781q-0.524108 12.5629 -1.46289 25.8926zM617.618 875.593
v-175.688l11.8496 -5.99805q43.6728 -20.4102 75.9219 -53.1016q32.0468 -32.4864 52.9551 -76.9463l5.99805 -10.3867h174.812l-7.60645 25.8926q-16.466 50.4957 -44.3252 95.3789q-27.7689 44.7386 -65.6816 82.6514q-37.9135 37.9135 -82.6523 65.6816
q-44.828 27.8259 -95.2314 43.3008zM450.121 881.591l-0.146484 -169.545l23.6982 4.38867q14.6949 2.36128 22.3818 3.36426q15.7256 2.16963 31.4512 0q19.1983 -2.92252 22.2363 -3.36426l23.9902 -4.53516v169.691l-17.7002 1.46289q-14.2397 2.06666 -25.1611 2.4873
q-18.9437 0.92865 -37.8887 0q-13.5444 -0.782512 -24.7217 -2.4873zM95.3779 578.341l-7.75293 -24.8691h172.032l6.14355 10.9717q20.5328 43.9368 52.6631 76.5078q32.3158 32.5375 76.0684 53.1016l11.7031 5.85156v175.688l-25.7461 -9.06934
q-51.1945 -15.8729 -95.3779 -42.8613q-44.5444 -26.9897 -82.6523 -65.0977q-37.6988 -36.8224 -65.2432 -82.3584q-27.4421 -45.7378 -41.8379 -97.8652zM75.9219 404.261l2.92578 -17.9932h169.253l-4.68164 23.2598q-2.84935 12.826 -3.65625 21.5039
q-0.87793 9.64406 -0.87793 16.9688q0 8.00172 0.291992 21.2119q0.477305 10.4864 1.31738 17.4072l4.82715 22.2354h-166.327l-3.07227 -17.2617q-1.24147 -18.9371 -1.46289 -24.5752q-0.438477 -11.2039 -0.438477 -19.0176q0 -8.61863 0.438477 -20.041
q0.253864 -6.46507 1.46289 -23.6982zM406.382 20.8457v175.689l-11.8496 4.38867q-43.6728 20.4102 -75.9219 53.1016q-32.0468 32.4864 -52.9551 76.9463l-5.99805 10.3857h-174.812l7.75293 -25.8926q16.5202 -49.5591 44.3252 -94.3535
q27.4285 -44.5457 65.5352 -82.6523q37.5176 -38.6082 82.7979 -66.2666q44.2053 -27.0023 95.5244 -43.8857zM573.879 13.3848l0.292969 170.569l-24.2842 -4.53516q-13.1079 -3.04256 -21.5039 -4.24219q-16.2632 -2.3793 -32.3291 0q-8.22921 1.14859 -21.7969 4.24219
l-23.9902 4.53516v-170.569l18.2852 -1.46289q4.79403 -0.314251 23.8447 -1.90137q10.039 -1.02441 19.749 -1.02441q6.94031 0 19.748 1.02441q17.3279 1.47414 23.8447 1.90137zM512 218.624q46.8152 0 87.918 16.5303q40.7519 17.0536 74.167 50.4688
q33.6385 33.4198 50.4678 74.167q16.8232 40.9491 16.8232 88.0635q0 46.3126 -16.8232 87.04q-17.0533 40.7525 -50.4678 74.167q-33.4154 33.6355 -74.167 50.4688q-40.7302 16.8223 -87.918 16.8223q-47.1878 0 -87.918 -16.8223q-40.3765 -16.6783 -74.167 -50.4688
q-32.7746 -33.6617 -49.8828 -74.0205q-17.2617 -40.7211 -17.2617 -87.04q0 -47.8596 17.2617 -88.0645q17.2758 -40.531 49.8828 -74.0205q33.4187 -33.6374 74.167 -50.4678q40.7289 -16.8232 87.918 -16.8232v-0.0001z" />
    <glyph glyph-name="uniE91F" unicode="&#xe91f;" 
d="M1000.59 679.132q12.1493 -51.034 10.2393 -89.2344q-2.23722 -46.9816 -13.165 -90.6973q-14.1197 -47.0657 -35.1094 -84.8457q-27.5816 -45.1363 -55.5879 -73.1426q-34.9452 -34.9452 -80.457 -59.9775q-40.2717 -23.3152 -92.1602 -35.1084
q-41.6924 -8.77734 -84.8457 -8.77734q-43.5204 2.29055 -84.8457 13.166l-7.31445 1.46289l-251.611 -251.612q-21.4569 -23.4062 -55.5889 -38.0342q-30.7192 -13.1646 -65.8281 -13.165q-35.1094 0 -65.8291 13.165q-33.2809 14.2639 -55.5879 36.5723
q-22.3083 22.307 -36.5723 55.5879q-13.1646 30.7207 -13.165 65.8291q0 35.1079 13.165 65.8281q11.0033 30.8092 38.0342 55.5889l250.149 253.074l-1.46289 7.31445q-11.7031 44.4703 -11.7031 84.8457q-1.76763 33.5837 8.77734 86.3086
q9.02442 49.6328 33.6455 92.1602q23.2442 42.2608 59.9775 78.9941q25.6025 27.4313 71.6797 55.5879q39.0291 23.852 86.3086 35.1094q43.8869 13.165 89.2344 13.165h4.38867q36.2011 0 84.8457 -10.2393q15.6033 -3.90115 26.3311 -14.6289
q11.0897 -8.87172 13.166 -23.4062q4.05114 -14.1776 0 -26.3311q-1.4631 -8.77858 -13.166 -23.4053l-160.914 -162.378l20.4795 -127.269l125.806 -20.4795l163.841 160.914q8.77588 8.77734 21.9424 13.166q11.7033 3.90111 26.3311 1.46289
q11.9121 -3.9707 23.4062 -13.166q9.06977 -9.06977 13.166 -23.4053zM955.246 528.457l1.46289 2.92578q2.92401 16.082 5.85059 48.2744q2.01536 30.2291 -2.9248 67.291l-4.38867 24.8691l-185.783 -184.32h-1.46289l-185.783 30.7197v1.46289l-29.2568 184.32
l179.932 182.857l-20.4805 5.85156q-13.1616 4.3877 -27.7939 4.3877q-8.77734 1.46289 -26.3311 1.46289q-7.68018 0 -20.8462 -0.731445t-18.6519 -0.731445q-21.9398 -2.43631 -40.96 -8.77637q-38.7213 -8.60506 -73.1426 -29.2578q-36.5716 -21.9423 -62.9023 -48.2744
q-30.5101 -30.5087 -51.2002 -67.291q-20.9637 -39.5965 -29.2568 -78.9941q-10.9399 -43.7582 -8.77734 -84.8457q2.46784 -46.8874 16.0908 -81.9199l4.38867 -14.6289l-1.46289 -1.46289l-272.091 -275.017q-18.6137 -16.5455 -27.7949 -39.4971
q-8.77637 -21.9409 -8.77637 -46.8115q0 -24.8721 8.77637 -46.8115q8.77734 -21.9434 26.332 -39.4971q17.5532 -17.5547 39.4971 -26.332q21.9395 -8.77637 46.8115 -8.77637q24.8706 0 46.8115 8.77637q21.9419 8.77734 39.4971 26.332l272.091 273.554l14.6289 -5.85156
q38.4131 -12.1295 83.3828 -14.6279q38.9123 -2.04809 83.3828 7.31445q39.3976 8.29314 78.9941 29.2568q35.493 18.7904 70.2178 51.2002q29.2573 31.6955 46.8105 62.9023q19.2987 34.3089 30.7207 73.1436z" />
    <glyph glyph-name="uniE920" unicode="&#xe920;" 
d="M177.006 172.982v229.669h394.972v-229.669h-394.972zM525.166 355.84h-65.8291v-134.583h65.8291v134.583zM411.062 355.84h-68.7539v-134.583h68.7539v134.583zM294.034 355.84h-68.7539v-134.583h68.7539v134.583zM1018.15 576.731q5.85156 -15.6042 5.85156 -38.0342
v-2.92578q-6.76587 -40.5937 -27.7939 -65.8291q-21.2016 -25.4406 -52.6631 -32.1826v-326.217q0 -17.5547 -13.166 -30.7197q-10.9717 -13.166 -29.2568 -13.166h-756.297q-16.0918 0 -29.2578 13.166q-13.166 13.1646 -13.165 30.7197v320.365
q-37.6372 6.27287 -67.292 33.6465q-28.6544 28.6544 -35.1084 71.6797v2.92578q0 16.0908 7.31445 38.0342q11.707 26.3408 17.5537 40.96q0.731445 1.46289 2.19434 5.12012t2.19434 5.12012l4.38867 8.77734l67.292 147.748q6.50288 13.0058 23.4053 27.7939
q16.7188 14.6289 38.0342 14.6289h699.246q10.7269 0 27.7939 -7.31445q17.5547 -6.58301 30.7197 -26.3311l1.46289 -2.92578l68.7549 -153.6q3.90104 -5.85156 5.85156 -11.7031l4.38867 -8.77734q12.5435 -27.5993 17.5537 -40.96zM807.497 370.469h-136.046v-253.074
h136.046zM624.64 418.743h229.669v-301.349l40.96 -1.46289v320.365q-40.4093 1.92432 -81.9199 19.0176q-31.2083 13.6536 -55.5889 38.0342q-16.7761 -26.3625 -43.8857 -40.96q-32.9136 -17.5547 -70.2168 -17.5547q-39.4966 0 -74.6055 17.5547
q-30.7207 15.3604 -48.2744 39.4971q-20.2538 -24.7546 -49.7373 -39.4971q-32.915 -17.5547 -76.0684 -17.5547q-38.7656 0 -71.6807 17.5547q-28.4231 14.2122 -46.8105 39.4971q-19.2409 -23.5167 -51.2002 -39.4971q-32.915 -17.5547 -74.6064 -21.9434v-314.514
l473.966 1.46289v301.349zM256 563.565l45.3486 216.503h-138.972q-2.93725 -1.4715 -8.77734 -5.85156q-8.77637 -7.02203 -8.77637 -8.77637l-67.292 -147.749l-4.38867 -8.77734q-2.92578 -5.85156 -7.31445 -8.77734q-4.3877 -11.7021 -13.165 -32.1826
q-5.85156 -17.5547 -5.85156 -24.8682q6.58301 -30.7207 26.3311 -48.2744q21.9434 -17.5547 52.6631 -17.5547q49.7378 0 84.8457 21.9434q36.4633 20.5091 40.96 49.7373v1.46289l2.92578 4.3877v8.77734h1.46289zM497.371 557.714v222.354h-147.748l-46.8115 -228.205
q4.5795 -29.7668 29.2568 -48.2744q27.3073 -20.4805 62.9033 -20.4805q42.4233 0 73.1426 21.9434q29.2568 22.5038 29.2568 52.6621v0.0004zM705.097 503.589q24.0176 19.6493 26.332 49.7373l-48.2744 226.742h-138.972v-222.354q0 -30.1576 29.2578 -52.6621
q30.7192 -21.9434 71.6797 -21.9434q37.4494 0 59.9766 20.4805zM779.703 557.714q0 -29.6428 40.96 -51.1992q42.5554 -23.4062 100.937 -23.4062q21.9434 0 36.5723 14.6289q14.8301 17.3037 19.0166 42.4229q-2.9255 17.553 -5.85156 24.8682
q-1.09665 2.74162 -6.21668 14.0791t-8.41125 19.5664q-0.731445 1.46289 -2.19434 5.12012t-2.19434 5.12012q-0.731445 2.19434 -2.92578 5.85156t-2.92578 5.85156l-68.7549 150.674q-1.93692 2.58314 -4.12346 4.40749t-3.94221 2.88815
q-1.75567 1.06379 -2.17359 1.48171q-2.92578 1.46289 -7.31445 1.46289h-127.269l43.8857 -217.966h1.46289z" />
    <glyph glyph-name="uniE921" unicode="&#xe921;" 
d="M433.006 250.515l-198.948 197.485l38.0342 38.0342l160.914 -160.914l318.902 318.902l38.0342 -38.0342zM794.331 19.3828q-43.902 -27.7286 -86.3086 -46.8115q-54.0885 -20.6058 -93.6221 -27.7939q-103.551 -18.4093 -204.801 0q-44.2557 8.04673 -93.6221 27.7939
q-52.8633 22.6557 -86.3086 46.8115q-41.6924 28.5264 -78.9951 65.8291q-37.3022 37.3022 -65.8281 78.9941q-23.7699 36.5678 -46.8115 87.7715q-21.2487 49.5788 -29.2568 93.6221q-8.77734 48.2754 -8.77734 102.4q0 51.9307 8.77734 102.4
q13.1372 57.8018 29.2568 93.6221q23.5222 52.2715 46.8115 86.3086q26.3309 39.4963 65.8281 78.9951q37.3037 37.3022 78.9951 65.8281q34.0371 23.2893 86.3086 46.8115q49.3664 19.7472 93.6221 27.7939q45.057 10.2402 102.4 10.2402q59.4889 0 102.4 -11.7031
q49.9717 -9.08603 93.6221 -27.7939q43.0764 -17.2306 86.3086 -46.8115q35.7344 -22.5691 78.9951 -65.8281q37.3022 -37.3037 65.8281 -78.9951q23.7699 -36.5678 46.8115 -87.7715q16.1197 -35.8203 29.2568 -93.6221q8.77734 -48.2754 8.77734 -100.938
q0 -54.125 -8.77734 -102.4q-13.1372 -57.8018 -29.2568 -93.6221q-23.5222 -52.2715 -46.8115 -86.3086q-26.332 -39.498 -65.8281 -78.9941q-37.3037 -37.3037 -78.9951 -65.8291zM604.16 -8.41113q47.8266 9.56564 86.3086 27.7939q39.5285 14.5636 78.9941 42.4229
q37.455 25.7514 70.2168 58.5146q38.5183 38.5167 59.9775 71.6797q26.2278 40.5323 42.4229 78.9941q17.2738 41.0238 26.3311 86.3086q8.77734 43.8853 8.77734 92.1602q0 46.812 -8.77734 90.6973q-9.0567 45.282 -26.3311 86.3086q-14.5636 39.5285 -42.4229 78.9941
q-25.4192 39.2827 -59.9775 71.6797q-35.3947 35.3963 -70.2168 59.9775q-36.0918 23.3544 -78.9941 42.4229q-42.8971 18.0619 -86.3086 26.3311q-92.1602 15.7349 -184.32 0q-43.4115 -8.26912 -86.3086 -26.3311q-46.0812 -20.4813 -78.9941 -42.4229
q-34.8221 -24.5813 -70.2168 -59.9775q-34.5583 -32.397 -59.9775 -71.6797q-26.332 -37.3022 -43.8857 -78.9941q-16.6385 -45.1616 -24.8682 -86.3086q-8.77734 -43.8853 -8.77734 -92.1602t8.77734 -92.1602q8.26912 -43.4115 26.3311 -86.3086
q14.5636 -39.5285 42.4229 -78.9941q28.0921 -39.7956 59.9775 -71.6797q37.0536 -37.0553 70.2168 -58.5146q40.5323 -26.2278 78.9941 -42.4229q41.0266 -17.2743 86.3086 -26.3311q43.8853 -8.77734 92.1602 -8.77734t92.1602 8.77734z" />
    <glyph glyph-name="uniE922" unicode="&#xe922;" 
d="M21.9424 -42.0576v792.869h528.092l-48.2744 -46.8115h-431.543v-697.783h697.783v431.543l46.8115 48.2744v-528.092h-792.869zM953.783 854.674l-593.92 -596.846l-36.5723 38.0352l592.458 590.994l2.9248 2.92578h-291.108v48.2744h374.492v-374.492h-48.2744
v291.108z" />
    <glyph glyph-name="uniE923" unicode="&#xe923;" 
d="M512 544.549l19.0176 -14.6289l122.88 -121.417h-1.46289l-35.1084 -36.5713l-1.46289 1.46289l-78.9951 78.9941v-216.503h-49.7363v216.503l-80.458 -80.457l-36.5713 36.5713v1.46289l121.417 118.491zM1004.98 363.154q16.704 -35.7926 14.6289 -73.1426
q0 -38.0342 -13.166 -68.7549q-13.165 -30.7202 -40.96 -58.5137q-25.8432 -25.8446 -59.9766 -39.4971q-32.915 -13.166 -71.6807 -13.166h-645.119q-38.7656 0 -71.6807 13.166q-34.1334 13.6524 -59.9766 39.4971q-27.795 27.7934 -40.96 58.5137
q-13.166 32.915 -13.166 68.7549q0 26.3318 10.2402 57.0508q8.56942 25.7082 27.7939 49.7373q19.749 24.1377 43.8857 39.4971q21.1744 12.7047 51.2002 21.9434l5.85156 1.46289l2.92578 5.85156q7.16203 19.0972 17.5537 33.6455q9.00109 14.4017 26.332 29.2568
q10.2393 8.77734 33.6455 20.4805q12.8746 6.43621 36.5713 11.7021l8.77734 1.46289l1.46289 8.77734q4.1285 41.2837 24.8682 80.457q20.3178 40.6356 54.126 70.2178q34.2094 31.9287 74.6055 46.8105q43.6762 16.0918 89.2344 16.0918q42.4232 0 73.1426 -10.2402
q35.1094 -10.9702 65.8291 -30.7197q35.2186 -25.1573 54.125 -49.7373q21.0558 -25.2655 36.5723 -58.5137l2.92578 -7.31445h7.31348q46.6284 -5.18093 73.1436 -17.5547q36.4117 -15.9308 64.3652 -43.8857q28.2226 -26.2054 45.3486 -62.9023
q15.4065 -33.014 17.5547 -71.6807v-5.85059l4.38867 -2.92578q32.3701 -25.8972 48.2734 -59.9775zM835.291 158.354q29.2583 0 51.2002 8.77734q26.819 12.1888 43.8857 29.2568q21.5695 17.2556 30.7197 42.4229q10.2402 22.5285 10.2402 51.2002
q0 30.7191 -14.6279 59.9766q-13.5319 27.0638 -40.96 45.3486l-10.2402 8.77734v17.5547q0 34.3774 -13.166 62.9023q-13.793 29.8848 -36.5713 52.6631q-23.4053 23.4053 -54.126 36.5713q-30.4266 11.7031 -64.3652 11.7031h-26.332l-5.85156 17.5537
q-12.1878 34.1304 -27.7939 55.5889q-20.6521 28.3967 -43.8857 43.8857q-27.9034 20.9287 -57.0518 29.2568q-28.5249 8.77734 -64.3652 8.77734q-38.5225 0 -77.5312 -14.6289q-35.107 -13.1637 -64.3662 -42.4229q-29.094 -29.094 -43.8857 -62.9023
q-14.6279 -33.4371 -14.6279 -76.0684v-23.4062h-24.8691q-14.6279 0 -35.1084 -5.85156q-17.5547 -6.58154 -30.7197 -17.5537q-15.3604 -12.8003 -23.4062 -24.8691q-9.10163 -15.929 -13.165 -32.1826l-2.92578 -16.0908l-16.0918 -2.92578
q-26.0941 -4.74467 -43.8857 -14.6289q-21.3476 -11.8598 -36.5713 -29.2568q-14.0136 -16.0155 -23.4053 -39.4971q-8.77734 -21.9434 -8.77734 -46.8115q0 -23.0413 10.2402 -51.2002q7.52146 -20.6875 29.2568 -42.4229q20.8997 -20.8997 43.8857 -29.2568
q22.5271 -10.2402 52.6631 -10.2402h646.582z" />
    <glyph glyph-name="uniE924" unicode="&#xe924;" 
d="M155.062 115.932q-57.3079 32.3907 -84.8457 65.8281l-32.1826 39.4971v-80.457h-38.0342v175.543h45.3486q8.50533 -46.7779 43.8857 -89.2344q34.6377 -43.2975 102.4 -80.457q75.6299 -37.8149 147.748 -52.6631q88.7495 -20.4795 175.543 -20.4795
q97.3592 0 175.543 19.0166q86.0022 20.3693 146.285 52.6631q68.442 38.7846 103.863 80.457q37.4996 44.5326 43.8857 89.2344h40.96q-5.76265 -46.0999 -43.8857 -99.4746q-41.7955 -54.3345 -109.714 -95.085q-71.7953 -42.6293 -160.915 -64.3662
q-87.2403 -23.4053 -198.948 -23.4053q-68.0229 0 -131.657 8.77734q-47.2023 6.99195 -121.417 29.2568q-57.6031 19.2016 -103.863 45.3486zM206.263 354.377l-11.7031 5.85156v193.098l-21.9424 -13.166q-56.3353 -33.8021 -90.6973 -74.6055
q-32.7881 -39.3475 -39.4971 -86.3086h-42.4229q6.67298 62.2797 52.6631 117.028q52.0307 61.0798 134.583 98.0117l8.77637 4.3877v122.881l310.126 138.971l5.85156 4.38867l5.85156 -4.38867l308.663 -138.971v-122.881l8.77637 -4.3877
q21.9393 -10.2383 59.9775 -33.6465q25.1467 -17.408 52.6631 -42.4229l33.6455 -36.5713v77.5312h42.4229v-181.394h-43.8857q-6.70894 46.9611 -39.4971 86.3086q-34.359 40.8016 -90.6973 74.6055l-21.9424 13.166v-191.635l-315.978 -175.543zM791.405 380.709v299.886
l-260.388 -130.194v-311.589zM512 822.491l-254.537 -111.177l253.074 -125.806l1.46289 -1.46289l254.537 127.269zM232.595 680.595v-299.886l260.388 -141.897v311.589z" />
    <glyph glyph-name="uniE925" unicode="&#xe925;" 
d="M675.84 301.714l-1.46289 -1.46289l-258.926 -171.154v343.771l2.92578 -1.46289zM457.874 208.092l143.36 93.6221l-143.36 93.623v-187.245v-0.0001zM994.743 882.469q24.0962 -26.2884 21.9424 -62.9033v-741.668q0 -35.7728 -24.8682 -62.9033
q-24.1381 -26.3311 -58.5146 -26.3311h-844.068q-34.3765 0 -58.5146 26.3311q-24.8682 27.1306 -24.8682 62.9033v741.668q0 35.7728 24.8682 62.9033q21.9438 26.3311 58.5146 26.3311h846.994q34.3765 0 58.5146 -26.3311h-0.0002zM829.44 860.525h-147.749
l-89.2344 -235.52l-2.92578 -7.31445h149.212zM631.954 860.525h-149.211l-90.6973 -242.834h147.748l89.2344 235.521zM433.006 860.525v-1.46289h-149.212l-90.6973 -242.834h147.749l90.6973 241.371zM52.6631 819.565v-201.874h90.6973l90.6973 244.297h-143.36
q-19.0177 0 -27.7939 -13.165q-10.2402 -10.2402 -10.2402 -29.2578zM972.8 77.8975v491.52h-921.6v-491.52q0 -15.5066 10.2402 -27.7949q13.1633 -13.165 27.7939 -13.165h845.531q16.8233 0 27.7939 13.165q10.2402 12.2883 10.2402 27.7949zM972.8 617.691h1.46289
v201.874q0 15.5066 -10.2402 27.7949q-13.165 13.165 -27.7939 13.165h-55.5889l-89.2344 -235.52l-2.9248 -7.31445h184.319z" />
    <glyph glyph-name="uniE926" unicode="&#xe926;" 
d="M706.56 744.96v-593.92l-340.846 296.96zM661.212 249.052v396.434l-226.743 -197.485zM317.44 212.48v469.577h45.3477v-469.577zM984.503 249.052q-41.6901 -94.3532 -111.177 -163.84q-66.4668 -68.611 -162.378 -109.715q-92.1603 -39.4971 -198.948 -39.4971
q-106.788 0 -198.948 39.4971q-92.1606 39.4966 -162.378 109.715q-69.4866 69.4866 -111.177 163.84q-39.4971 92.1603 -39.4971 198.948q0 106.788 39.4971 198.948q42.2939 93.4937 111.177 162.378q66.4676 68.6103 162.378 109.714q90.5434 40.96 198.948 40.96
q108.405 0 198.948 -40.96q92.1606 -39.4966 162.378 -109.714q67.1493 -65.0522 111.177 -162.378q39.4971 -92.1603 39.4971 -198.948q0 -106.788 -39.4971 -198.948zM693.395 16.457q86.8409 37.855 147.748 100.938q64.8759 64.8759 99.4746 149.211
q36.5713 86.8589 36.5713 181.395q0 97.4938 -36.5713 181.395q-35.1076 83.381 -99.4746 147.748q-63.0435 63.0435 -147.748 100.938q-89.1447 36.5713 -181.395 36.5713q-97.4938 0 -181.395 -36.5713q-84.7045 -37.894 -147.748 -100.938
q-64.3671 -64.3671 -99.4746 -147.748q-36.5713 -89.1447 -36.5713 -181.395q0 -99.6452 36.5713 -181.395q34.5987 -84.3351 99.4746 -149.211q63.0408 -63.0408 147.748 -100.938q89.1447 -36.5713 181.395 -36.5713q92.2498 0 181.395 36.5713z" />
    <glyph glyph-name="uniE927" unicode="&#xe927;" 
d="M380.343 149.577v595.383l340.846 -296.96zM425.691 645.485v-396.434l226.743 198.948zM984.503 249.052q-41.6901 -94.3532 -111.177 -163.84q-66.4668 -68.611 -162.378 -109.715q-92.1603 -39.4971 -198.948 -39.4971q-106.788 0 -198.948 39.4971
q-92.1606 39.4966 -162.378 109.715q-69.4866 69.4866 -111.177 163.84q-39.4971 92.1603 -39.4971 198.948q0 106.788 39.4971 198.948q42.2939 93.4937 111.177 162.378q66.4676 68.6103 162.378 109.714q90.5434 40.96 198.948 40.96q108.405 0 198.948 -40.96
q92.1606 -39.4966 162.378 -109.714q67.1493 -65.0522 111.177 -162.378q39.4971 -92.1603 39.4971 -198.948q0 -106.788 -39.4971 -198.948zM693.395 16.457q86.8409 37.855 147.748 100.938q64.8759 64.8759 99.4746 149.211q36.5713 86.8589 36.5713 181.395
q0 97.4938 -36.5713 181.395q-35.1076 83.381 -99.4746 147.748q-63.0435 63.0435 -147.748 100.938q-89.1447 36.5713 -181.395 36.5713q-97.4938 0 -181.395 -36.5713q-84.7045 -37.894 -147.748 -100.938q-64.3671 -64.3671 -99.4746 -147.748
q-36.5713 -89.1447 -36.5713 -181.395q0 -99.6452 36.5713 -181.395q34.5987 -84.3351 99.4746 -149.211q63.0408 -63.0408 147.748 -100.938q89.1447 -36.5713 181.395 -36.5713q92.2498 0 181.395 36.5713z" />
    <glyph glyph-name="uniE928" unicode="&#xe928;" 
d="M317.44 151.04v595.383l340.846 -298.423zM362.788 646.948v-396.434l226.743 197.485zM661.212 213.942v469.577h45.3477v-469.577h-45.3477zM39.4971 646.948q41.6901 94.3532 111.177 163.84q66.4668 68.611 162.378 109.715q92.1603 39.4971 198.948 39.4971
q106.788 0 198.948 -39.4971q92.1606 -39.4966 162.378 -109.715q69.4866 -69.4866 111.177 -163.84q39.4971 -92.1603 39.4971 -198.948q0 -106.788 -39.4971 -198.948q-42.2939 -93.4937 -111.177 -162.378q-66.4676 -68.6103 -162.378 -109.714
q-90.5434 -40.96 -198.948 -40.96q-108.405 0 -198.948 40.96q-92.1606 39.4966 -162.378 109.714q-67.1493 65.0522 -111.177 162.378q-39.4971 92.1603 -39.4971 198.948q0 106.788 39.4971 198.948zM330.605 879.543q-85.5762 -37.3037 -149.211 -100.938
q-64.8734 -64.8734 -99.4746 -149.211q-36.5713 -86.8589 -36.5713 -181.395q0 -98.9855 38.0342 -181.395q35.1076 -83.381 99.4746 -147.748q63.0435 -63.0435 147.748 -100.938q89.1447 -36.5713 181.395 -36.5713q97.4938 0 181.395 36.5713
q84.7045 37.894 147.748 100.938q64.3671 64.3671 99.4746 147.748q36.5713 89.1447 36.5713 181.395q0 99.6452 -36.5713 181.395q-34.5987 84.3351 -99.4746 149.211q-63.0408 63.0408 -147.748 100.938q-89.1447 36.5713 -181.395 36.5713q-92.2498 0 -181.395 -36.5713
h0.0001z" />
    <glyph glyph-name="uniE929" unicode="&#xe929;" 
d="M906.972 570.88q-0.00860524 -30.7742 -4.38867 -58.5146q-4.15798 -27.0255 -17.5547 -71.6797q-11.7049 -39.0152 -40.96 -102.399q-25.5401 -51.0829 -77.5312 -124.344q-39.6799 -58.5744 -86.3086 -115.565q-37.8253 -46.2313 -68.7539 -81.9199
q-40.9883 -43.9141 -49.7373 -52.6631q-22.283 -19.8054 -30.7197 -24.8682q-1.46289 -0.731445 -4.38867 -1.46289t-4.38867 -1.46289q-8.43975 -3.3759 -21.9434 0q-1.11755 0.558774 -2.79387 1.5948q-2.15357 1.33098 -3.05769 1.33098
q-21.9518 17.5638 -30.7197 26.3311q-25.2623 22.736 -51.2002 52.6631q-31.6934 33.9588 -68.7539 81.9199q-29.1615 35.642 -87.7715 115.565q-48.4647 65.3225 -78.9941 128.731q-26.0013 54.0026 -40.96 103.863q-12.1531 40.5091 -14.6289 70.2168
q-1.46289 14.6289 -1.46289 19.0176l-1.46289 16.0918v17.5537q0 78.6571 29.2578 150.675q29.1027 68.5998 84.8457 124.343q56.0145 53.7738 125.806 83.3828q72.4113 30.7197 153.6 30.7197q77.8686 0 152.137 -29.2568q73.6829 -31.26 125.806 -83.3828
q52.493 -50.3933 84.8457 -124.343q32.1836 -75.8598 32.1836 -152.138zM857.234 543.086l2.92578 27.7939q0 73.2556 -27.7949 133.12q-28.5249 63.6343 -74.6055 109.714q-45.7121 45.7136 -109.714 73.1436q-59.8655 27.7939 -134.583 27.7939t-134.583 -27.7939
q-64.0017 -27.43 -109.714 -73.1436q-46.6822 -44.5589 -74.6064 -109.714q-27.7939 -59.8655 -27.7939 -133.12v-7.31445v-8.77734v-7.31348q0 -8.77734 2.92578 -24.8691q11.1563 -50.1995 16.0918 -65.8281q17.2838 -51.8571 38.0342 -95.0859
q24.8906 -51.857 73.1426 -118.491q47.0748 -65.3823 71.6797 -96.5488q31.7177 -40.1743 59.9775 -73.1426q11.0935 -11.9469 27.3066 -30.4762t19.5049 -22.1869q14.9209 -16.5788 33.6455 -32.1826l2.92578 -2.92578l2.92578 2.92578q30.7197 30.7197 64.3652 67.291
q44.2202 48.0642 146.286 187.246q48.2519 66.6342 73.1426 118.491q26.1511 59.4327 38.0342 95.0859q11.9684 37.8987 17.5547 65.8281zM655.36 733.257q30.9789 -28.5958 45.3486 -61.4395q16.0908 -39.0814 16.0908 -77.5312q0 -37.8239 -16.0908 -74.6064
q-14.7918 -33.8084 -45.3486 -64.3652q-33.038 -28.3182 -67.292 -42.4229q-35.5259 -14.6289 -78.9941 -14.6289t-78.9941 14.6289q-35.8745 14.7724 -65.8291 42.4229q-28.5249 26.3306 -43.8857 61.4395q-16.0908 39.0814 -16.0908 77.5322q0 39.2858 16.0908 76.0684
q14.8748 36.1231 43.8857 62.9023q26.04 26.04 65.8291 42.4229q36.7797 16.0918 78.9941 16.0918q41.3785 0 80.457 -16.0918q35.8706 -14.7688 65.8291 -42.4229zM626.103 484.571q49.7373 47.475 49.7373 112.641q0 31.4517 -13.166 59.9766
q-14.2736 30.9296 -36.5713 51.2002q-19.3796 19.3809 -52.6621 33.6455q-30.4281 11.7031 -62.9033 11.7031q-67.9876 0 -117.028 -46.8115q-48.2744 -46.0801 -48.2744 -111.177q0 -67.292 48.2744 -111.178q49.8836 -45.3486 117.028 -45.3486q68.0573 0 115.565 45.3486
z" />
    <glyph glyph-name="uniE92A" unicode="&#xe92a;" 
d="M804.571 292.938l-272.091 -261.852l-8.77734 -4.38867q-10.9717 -4.38867 -21.9434 0q-4.38867 1.46289 -8.77734 5.85156l-272.091 261.852q-2.92676 2.92676 -5.85156 8.77637q-1.46289 2.92578 -1.46289 10.2402t1.46289 10.2402q2.92578 5.85156 4.38867 7.31445
q9.7526 7.31445 20.4795 7.31445q10.7279 0 20.4805 -7.31445l226.743 -216.503v728.503q0 14.6279 7.31348 21.9424q9.7526 7.31445 19.0176 7.31445q9.50928 0 20.4795 -8.77734q5.85156 -5.85156 5.85156 -20.4795v-728.503l223.817 216.503
q9.7526 7.31445 20.4805 7.31445q11.7021 0 20.4795 -8.77734q4.38867 -4.38867 5.85156 -7.31445t1.46289 -10.2402q0 -8.77734 -1.46289 -11.7031q-1.46289 -2.9248 -5.85156 -7.31348z" />
    <glyph glyph-name="uniE92B" unicode="&#xe92b;" 
d="M358.034 129.727l-259.262 269.458l-4.35938 8.71875q-4.30369 10.8472 0 21.6943q1.5758 4.58914 5.83691 8.70312l259.364 269.474q2.81934 2.81934 8.71875 5.83691q2.97865 1.47754 10.0938 1.47754q7.26086 0 10.1084 -1.47754q5.91428 -3.04838 7.22656 -4.35938
q7.22656 -9.57777 7.22656 -20.3047q0 -10.6979 -7.22656 -20.3047l-214.396 -225.982h721.452q14.5775 0 21.6934 -7.22656q7.22656 -9.60481 7.22656 -18.8262q0 -10.2469 -8.71875 -18.8125q-5.85758 -5.83691 -20.3184 -5.83691h-721.335l214.411 -221.623
q7.22656 -9.57777 7.22656 -20.3193q0 -11.5936 -8.71875 -20.2891q-4.24827 -4.26998 -7.22656 -5.85156q-2.87291 -1.49219 -10.1084 -1.49219q-8.75537 0 -11.5859 1.49219q-2.8692 1.52365 -7.3291 5.85156v0z" />
    <glyph glyph-name="uniE92C" unicode="&#xe92c;" 
d="M665.907 707.774l259.364 -269.459l4.37402 -8.70312q4.2817 -10.8472 0 -21.6943q-1.58875 -4.5821 -5.85156 -8.71875l-259.364 -269.458q-2.82982 -2.85221 -8.71875 -5.85156q-3.00518 -1.49219 -10.0791 -1.49219q-7.29975 0 -10.1084 1.49219
q-5.92321 3.05149 -7.22656 4.37402q-7.22656 9.55598 -7.22656 20.2891q0 10.7198 7.22656 20.3193l214.411 224.505h-721.583q-14.6062 0 -21.6797 7.22656q-7.22656 9.57585 -7.22656 18.8125q0 9.53721 8.71875 20.3047q5.83594 5.83594 20.3037 5.83594h721.452
l-214.514 221.608q-7.22656 9.57777 -7.22656 20.3047q0 11.6063 8.71875 20.3047q4.24274 4.28631 7.22656 5.83691q2.96532 1.49219 10.0791 1.49219q8.76865 0 11.6006 -1.49219q2.97326 -1.63074 7.3291 -5.83691v0z" />
    <glyph glyph-name="uniE92D" unicode="&#xe92d;" 
d="M219.429 603.062l272.091 261.852l8.77734 4.38867q10.9717 4.38867 21.9434 0q4.38867 -1.46289 8.77734 -5.85156l272.091 -261.852q2.92676 -2.92676 5.85156 -8.77637q1.46289 -2.92578 1.46289 -10.2402t-1.46289 -10.2402q-2.92578 -5.85156 -4.38867 -7.31445
q-9.7526 -7.31445 -20.4795 -7.31445q-10.7279 0 -20.4805 7.31445l-228.206 216.503v-728.503q0 -14.6279 -7.31348 -21.9424q-9.7526 -7.31445 -19.0176 -7.31445q-10.2407 0 -19.0166 8.77734q-5.85156 5.85156 -5.85156 20.4795v728.503l-223.817 -216.503
q-9.7526 -7.31445 -20.4805 -7.31445q-11.7021 0 -20.4795 8.77734q-4.38867 4.38867 -5.85156 7.31445t-1.46289 10.2402q0 8.77734 1.46289 11.7031q1.46289 2.9248 5.85156 7.31348z" />
    <glyph glyph-name="uniE92E" unicode="&#xe92e;" 
d="M1019.61 -30.3545q2.19434 -4.38867 4.38867 -4.38867v-5.85156q-0.00286841 -1.46576 -1.46289 -2.9248l-1.47754 -2.92578q-2.94073 -5.85201 -4.38867 -7.31445q0 -2.91113 -2.92578 -2.91113l-1.46289 -1.47754l-1.44824 -1.46289
q-2.89677 -2.92578 -4.38867 -2.92578q-1.46289 -1.46289 -7.31348 -1.46289q-73.873 0 -141.897 21.9424q-71.4878 22.3474 -134.568 70.2178l-10.2402 5.83691l-13.1797 -2.91113q-42.7392 -12.4708 -93.6084 -20.4805q-118.788 -18.2741 -229.669 7.31445
q-69.3144 16.8038 -122.88 42.4229q-61.7551 31.999 -105.325 67.292q-47.1085 38.1565 -80.458 84.8457q-30.7211 40.962 -49.7363 98.0107q-17.5547 52.6626 -17.5547 106.789q0 58.5142 16.0918 106.788q15.5463 48.8629 49.7363 98.0117
q36.1152 50.5935 80.4434 84.8457q43.5695 35.2703 105.325 67.291q64.8711 30.1195 124.343 42.4229q135.314 30.5555 270.629 0q69.326 -16.8052 122.865 -42.4229q57.019 -26.3055 105.326 -65.8281q47.0395 -38.0627 80.457 -84.8457q30.7633 -41.0182 49.7363 -98.0117
q16.0918 -55.1703 16.0918 -106.788q0 -68.7752 -26.3311 -130.194q-20.5526 -55.4908 -77.5312 -117.029l-11.7031 -11.7021l5.83691 -16.1064q9.67789 -25.1612 26.3311 -58.5137q12.8296 -25.5525 38.0635 -59.9629l27.7803 -36.5713q2.89645 -2.86963 4.40234 -5.85156
l4.38867 -4.38867q0.558774 -0.558774 1.19907 -1.5948q0.822592 -1.33098 1.72671 -1.33098zM852.846 167.132l30.7344 33.6455q46.0868 50.298 68.7402 102.399q21.9424 52.6652 21.9424 112.641q0 46.0457 -16.0908 96.5479q-15.6521 44.7203 -46.8115 89.2344
q-29.3563 39.8692 -74.6064 76.0693q-37.3181 28.537 -96.5625 57.0508q-50.8041 21.1772 -111.178 35.1084q-118.86 24.2129 -235.52 0q-51.6322 -9.21902 -111.178 -35.1084q-52.6626 -21.9419 -96.5479 -57.0508q-45.1989 -36.1592 -74.6064 -76.0693
q-32.9136 -41.6909 -48.2734 -87.7715q-16.0918 -50.5727 -16.0918 -96.5479q0 -45.9531 16.0918 -96.5488q15.6614 -44.7496 46.8105 -89.249q29.4527 -39.9205 74.6211 -76.0537q37.2988 -28.5457 96.5479 -57.0518q37.6068 -17.8124 95.0859 -32.1826
q52.8717 -12.2015 100.938 -14.6289q53.217 -2.21743 103.862 4.38867q55.0951 6.91276 102.4 21.9434l36.5713 11.7168l29.2568 -20.4795q19.5773 -15.2437 62.9033 -38.0342q55.4249 -25.1939 65.8281 -27.7949l73.1436 -19.0166l-40.96 58.5137
q-20.3475 36.1733 -21.9434 40.9609q-0.537058 1.59485 -3.09885 7.82501q-2.56179 6.23017 -4.2156 11.1916q-5.84378 11.668 -8.77637 20.4658z" />
    <glyph glyph-name="uniE930" unicode="&#xe930;" 
d="M2.92578 165.669v563.199q0 25.6011 17.5547 45.3486q19.0162 19.0176 46.8105 19.0176h892.344q27.7944 0 46.8105 -19.0176q20.2716 -20.2701 16.0918 -45.3486v-564.662q0 -26.3325 -19.0176 -45.3486q-17.5532 -17.5547 -45.3477 -17.5547h-890.881
q-26.3311 0 -45.3486 19.0176q-19.0166 19.0166 -19.0166 45.3486zM49.7373 728.868v-64.3652l171.154 -76.0684q14.2492 -5.93734 47.299 -20.2089q33.0498 -14.2716 49.2498 -20.751q8.97481 -4.07971 23.8456 -10.3999q14.8708 -6.3202 20.0401 -8.61767
q61.4399 -26.3306 100.937 -39.4971l49.7373 -16.0918l16.0918 5.85156q21.9497 7.31738 36.5713 13.166q27.4389 9.14665 108.251 42.4229q11.9972 5.07586 38.4635 16.0964q26.4663 11.0206 52.2921 21.9331q25.8258 10.9126 51.1419 21.948l160.914 70.2168v67.291
q0 5.74707 -4.14486 10.188q-4.14486 4.44092 -10.484 4.44092h-893.806q-6.58236 0 -12.068 -5.48588q-5.48568 -5.48588 -5.48568 -12.0688zM49.7373 611.84v-438.857q0 -10.6052 6.24002 -17.7367q6.24002 -7.13148 14.2395 -7.13148h887.955q6.49094 0 13.4852 7.63035
q6.99428 7.63035 6.99428 14.313l-1.46289 440.319l-24.8682 -10.2402q-63.6343 -26.3306 -131.657 -57.0508q-7.31555 -2.92622 -21.9442 -9.50923q-14.6287 -6.58301 -21.9415 -9.50835q-18.8468 -8.19395 -51.7992 -22.0489q-32.9524 -13.8549 -44.7497 -18.9111
q-80.4746 -32.1888 -109.714 -42.4229l-58.5146 -19.0166q-23.4799 5.87927 -61.4404 20.4795q-64.5666 22.2648 -117.028 45.3486q-8.25473 4.12764 -24.576 10.9599q-16.3213 6.83226 -22.2355 9.52057q-43.8853 17.5532 -92.1602 39.4971
q-57.4928 26.1321 -89.2334 39.4971l-30.7207 13.165z" />
    <glyph glyph-name="uniE931" unicode="&#xe931;" 
d="M952.32 924.892q19.6263 -19.6277 21.9424 -49.7373v-854.309q0 -29.2563 -20.4795 -49.7373q-20.4809 -20.4795 -48.2744 -20.4795h-490.058q-30.0704 0 -48.2744 20.4795q-19.0166 21.1311 -19.0166 49.7373v280.868h42.4229v-283.794q0 -11.7031 5.85156 -17.5547
q7.3151 -7.31348 19.0166 -7.31348h491.521q8.77588 0 17.5537 8.77637q5.85156 7.80208 5.85156 19.0176v854.309q0 13.166 -5.85156 19.0176q-6.14438 10.2393 -17.5537 10.2393h-491.521q-11.3359 0 -19.0166 -10.2393q-5.85156 -7.80208 -5.85156 -19.0176v-280.868
h-42.4229v280.868q0 30.7193 19.0166 49.7373q20.4809 20.4795 48.2744 20.4795h488.595q27.7936 0 48.2744 -20.4795zM128.731 431.908l121.417 -119.954q5.85156 -9.7526 5.85156 -17.5537q0 -8.77734 -5.85156 -14.6289q0 -1.46289 -5.85156 -4.38867
q-7.31396 -4.87598 -14.6279 0l-8.77734 4.38867l-169.691 172.617l168.229 171.154q6.58301 6.58301 15.3599 6.58301t15.3599 -6.58301q5.85156 -5.85156 5.85156 -13.166q0 -8.77767 -5.85156 -14.6279l-119.954 -121.418h535.405v-42.4229h-536.868z" />
    <glyph glyph-name="uniE933" unicode="&#xe933;" 
d="M691.932 692.297l-1.46289 -32.1826h-275.018l1.46289 32.1826h275.018zM691.932 551.863l-1.46289 -32.1836h-275.018l1.46289 32.1836h275.018zM697.783 92.5254l89.2344 108.252l27.7939 -21.9434l-112.64 -137.508l-83.3838 73.1426l23.4062 29.2568z
M885.028 227.108q25.5542 -46.4607 23.4062 -98.0117q0 -42.6309 -14.6289 -76.0684q-12.8188 -34.1821 -40.96 -59.9766q-26.626 -26.626 -61.4404 -40.96q-33.4361 -14.6289 -76.0684 -14.6289q-59.6387 0 -102.399 27.7939q-44.394 26.6364 -68.7549 73.1436h-370.103
q-24.8691 0 -42.4229 17.5537q-17.5547 17.5547 -17.5547 42.4229v743.132q0 24.1362 17.5547 43.8857q19.7496 17.5537 42.4229 17.5537h95.0859q10.2413 20.4826 32.1826 38.0342q20.6895 16.0918 49.7373 16.0918h231.131q29.0479 0 49.7373 -16.0918
q22.8211 -15.9733 32.1826 -36.5713v-1.46289h95.0859q23.4062 0 42.4229 -19.0166q17.5547 -17.5547 17.5547 -42.4229v-545.646q42.197 -25.788 65.8281 -68.7549zM307.2 864.914v-17.5537h317.439v17.5537q0 26.332 -13.165 39.4971q-12.5391 14.6289 -43.8857 14.6289
h-204.801q-25.9661 0 -43.8848 -20.4805q-9.52962 -11.9104 -11.7031 -33.6455zM531.018 187.611q5.76846 23.079 23.4053 48.2744h-138.972v30.7197h162.377l27.7949 24.8691q13.165 7.31348 23.4053 11.7021l8.77734 5.85156q33.4375 14.6289 74.6055 14.6289
q19.0176 0 26.332 -1.46289q2.19446 0 5.85144 -0.731445t5.85071 -0.731445q2.3772 0 10.0574 -1.46289t8.96021 -1.46289v523.703q0 5.85156 -5.85156 11.7031l-7.31445 2.9248h-87.7715v-24.8682q0 -11.7025 -7.31348 -19.0176q-7.3151 -7.31348 -19.0176 -7.31348
h-354.012q-11.7015 0 -19.0166 7.31348q-7.31445 7.31445 -7.31445 19.0176v23.4053h-87.7715l-4.38867 -1.46191q-2.87534 -0.958446 -5.09489 -4.7634t-2.21956 -5.47683v-741.669q0.650174 -7.15148 4.67312 -11.5399q4.02295 -4.38843 7.72081 -5.20112
l3.69786 -0.81269h348.16q-2.92578 11.7012 -2.92578 26.3311q-1.46289 5.85156 -1.46289 17.5547q0 31.4517 8.77734 59.9766zM820.663 22.3086q43.8857 43.8857 43.8857 106.788q0 62.9033 -43.8857 106.789q-43.0826 45.3486 -105.326 45.3486
q-59.9766 0 -105.325 -45.3486q-45.3486 -43.1877 -45.3486 -106.789q0 -59.9781 45.3486 -105.325q45.3486 -45.3486 105.325 -45.3486q65.8277 0 105.326 43.8857v-0.0001zM691.932 409.966l-1.46289 -32.1826h-275.018l1.46289 32.1826h275.018zM296.96 237.349
l67.291 80.457l21.9434 -17.5547l-87.7715 -106.788l-62.9033 57.0518l20.4805 21.9424zM296.96 512.365l65.8281 78.9951l23.4062 -17.5547l-86.3086 -103.863l-64.3662 55.5889l19.0176 20.4805zM296.96 374.857l67.291 78.9941l21.9434 -16.0918l-87.7715 -106.788
l-62.9033 57.0508l20.4805 21.9434zM295.497 649.874l67.291 78.9941l23.4062 -17.5537l-86.3086 -103.863l-64.3662 54.126l19.0176 21.9424z" />
    <glyph glyph-name="uniE934" unicode="&#xe934;" 
d="M194.56 677.669q-37.9095 -46.8312 -57.0508 -93.623q-19.0176 -49.9196 -19.0176 -95.0859q0 -14.6279 2.92578 -38.0342q1.46311 -11.7049 7.31445 -32.1826q26.7727 22.3091 58.5146 33.6455q32.7672 11.7031 64.3652 11.7031q46.394 0 81.9199 -14.6289
q41.4487 -17.0671 68.7549 -42.4229q28.5607 -26.5219 45.3486 -67.291q16.0908 -41.3803 16.0908 -86.3086q0 -27.7956 -7.31445 -57.0518q-6.88442 -27.5377 -21.9424 -51.2002q-16.43 -25.8186 -35.1084 -42.4229q-13.1605 -13.1605 -42.4229 -33.6455
q-25.9941 -14.1786 -51.2002 -20.4805q-29.2539 -7.31348 -54.126 -7.31348q-64.3675 0 -112.64 26.3311q-48.2754 26.332 -83.3828 78.9941q-26.3167 40.4859 -42.4229 98.0117q-14.6289 60.9521 -14.6289 119.954q0 80.6191 20.4805 157.988q23.096 78.53 64.3652 140.435
q25.7512 38.6251 46.8115 61.4404q22.2869 26.0002 58.5146 57.0508q34.3098 27.4491 68.7539 49.7373q38.9653 25.2139 80.457 43.8857l30.7197 -59.9775q-50.4654 -21.0264 -96.5479 -55.5879q-46.835 -41.6311 -77.5322 -81.9199zM754.834 677.669
q-39.1152 -48.3206 -55.5879 -93.623q-19.0176 -49.9196 -19.0176 -95.0859q0 -26.3311 1.46289 -38.0342q1.46311 -11.7049 7.31445 -32.1826q29.6663 22.8199 59.9766 33.6455q32.7687 11.7031 62.9033 11.7031q45.767 0 83.3828 -14.6289
q42.2792 -17.4098 67.291 -42.4229q28.5624 -26.5223 45.3486 -67.291q14.6289 -37.6172 14.6289 -86.3086q0 -45.767 -14.6289 -83.3828q-16.7858 -40.7693 -45.3486 -67.292q-32.9673 -30.6124 -68.7539 -45.3486q-39.0762 -16.0908 -81.9199 -16.0908
q-64.3675 0 -112.64 26.3311q-49.3849 26.9372 -81.9199 78.9941q-26.3167 40.4859 -42.4229 98.0117q-14.6289 52.2447 -14.6289 119.954q0 80.6171 20.4795 157.988q23.098 78.5315 64.3662 140.435q21.9434 32.9136 48.2744 61.4404q27.9269 32.5816 58.5137 57.0508
q34.3194 27.4555 68.7549 49.7373q33.2972 21.5461 80.457 43.8857l30.7197 -59.9775q-49.8838 -21.6878 -95.0859 -55.5879q-44.2804 -35.4255 -81.9199 -81.9199z" />
    <glyph glyph-name="uniE935" unicode="&#xe935;" 
d="M364.251 490.423q29.9229 0 43.8857 -21.9424q16.0918 -22.9883 16.0918 -49.7373v-26.332q0 -8.77637 -2.92578 -26.3311q-1.95052 -9.7526 -11.7031 -21.9434q-10.2393 -10.2393 -19.0166 -14.6279t-23.4062 -4.38867q-27.1433 0 -45.3486 20.4795
q-17.5532 19.749 -17.5537 48.2744v26.332q0 29.0477 16.0908 49.7363q15.9293 20.4805 43.8857 20.4805zM397.897 395.337v26.332q0 18.2852 -8.77734 29.2568q-9.3625 11.7031 -24.8691 11.7031q-15.5057 0 -24.8682 -11.7031q-8.77734 -13.166 -8.77734 -29.2568v-26.332
q0 -18.2852 8.77734 -29.2568q9.3625 -11.7031 24.8682 -11.7031q7.31445 0 13.166 2.92578q2.92578 1.46289 10.2402 8.77734q5.85156 8.77734 7.31445 13.166q2.92578 11.7012 2.92578 16.0908zM440.32 228.571l43.8857 381.806l27.7939 -2.92578l-43.8857 -381.806z
M582.217 490.423q29.8434 0 48.2744 -20.4805q19.0176 -21.1292 19.0176 -49.7363v-26.332q0 -29.2568 -19.0176 -48.2744q-20.4795 -20.4795 -48.2744 -20.4795q-26.3305 0 -46.8115 20.4795q-19.0166 19.018 -19.0166 48.2744v26.332q0 30.7197 19.0166 49.7363
q20.4805 20.4805 46.8115 20.4805zM621.714 395.337v26.332q0 17.5547 -11.7021 29.2568q-11.7031 11.7031 -27.7949 11.7031q-16.0908 0 -27.7939 -11.7031q-11.7031 -14.0437 -11.7031 -29.2568v-26.332q0 -17.5537 11.7031 -29.2568t27.7939 -11.7031
q16.0918 0 27.7949 11.7031q11.7021 14.0426 11.7021 29.2568zM978.651 914.651q40.2531 -42.4895 38.0342 -102.4q-2.27564 -61.4408 -42.4229 -99.4736l-100.937 -93.623l-16.0918 -273.555l-406.675 -409.6l-443.245 456.411l405.211 411.063l258.926 11.7021
l1.46289 1.46289l109.715 103.863q17.0638 17.065 43.8857 29.2568q22.5271 10.2402 51.1992 10.2402q27.5029 0 55.5889 -11.7031q27.3958 -13.6979 45.3486 -33.6455zM811.886 366.08l29.2568 413.988l-163.84 -5.85156l-17.5537 -17.5537
q-12.7041 -17.7857 -17.5547 -30.7207q-5.85156 -15.6029 -5.85156 -35.1084q-1.71891 -17.1879 5.85156 -42.4229q6.26949 -20.8969 21.9424 -36.5713q14.627 -14.627 32.1836 -23.4053q20.4788 -10.2402 38.0342 -10.2402l-1.46289 -33.6455
q-27.2252 2.26877 -51.2002 13.165q-25.3634 11.5288 -42.4229 30.7207q-16.7169 16.7156 -29.2568 46.8115q-8.77734 26.3306 -8.77734 54.125q0 20.4805 2.92578 29.2578q2.19434 13.1646 8.77734 26.3311l19.0166 23.4053l-197.485 -11.7021l-364.252 -364.252
l383.269 -387.657zM952.32 737.646q29.9883 29.9898 32.1826 76.0684q2.15876 45.3339 -29.2568 78.9951q-16.6781 16.6765 -35.1094 24.8682q-19.7476 8.77734 -42.4229 8.77734q-17.5537 0 -39.4971 -7.31445q-18.7244 -7.02223 -33.6455 -21.9434l-81.9199 -77.5312
l162.377 7.31445l-8.77734 -159.451z" />
    <glyph glyph-name="uniE936" unicode="&#xe936;" 
d="M801.646 230.034q-39.8444 -43.6392 -133.12 -134.583l-141.896 -141.896l-19.0176 -17.5547l-26.3311 24.8682l-13.166 13.166q-15.9438 15.9438 -30.7197 32.1826q-14.7613 16.2226 -33.6455 35.1094q-1.95908 1.95896 -95.0859 97.9961
q-1.46387 1.46387 -51.2002 54.126q-9.58983 10.154 -29.6361 30.979q-20.0463 20.825 -27.4156 29.0132q-57.3136 57.3136 -109.714 114.103q-43.041 47.1403 -64.3662 92.1602q-20.7565 48.434 -24.8682 83.3828q-4.11784 35.0003 2.92578 70.2168
q8.77673 35.1069 16.0918 52.6631q28.0934 66.9939 92.1592 111.177q64.7823 45.3486 143.36 45.3486q40.9604 2.04809 87.7715 -7.31445q42.4226 -8.48338 77.5312 -24.8682q47.4909 -23.7463 81.9199 -54.126l11.7031 -11.7021l13.1514 11.7021
q34.3649 32.1983 86.3086 57.0518q71.4981 35.7483 162.377 29.2568q75.7436 -6.88383 134.583 -46.8115q64.0651 -44.1824 92.1602 -111.177q7.35072 -17.6441 16.1055 -52.6631q7.03062 -35.1515 2.92578 -70.2168q-4.19986 -41.9986 -24.8682 -83.3828
q-19.717 -43.8155 -64.3662 -90.6973q-2.9453 -2.9453 -61.4395 -64.3662q-12.1136 -12.6958 -36.682 -38.0279q-24.5684 -25.3321 -33.5358 -35.1147v0zM525.166 16.457q2.02857 2.02857 11.899 11.1647q9.87047 9.13615 17.3578 16.6146q23.3539 23.3799 30.7197 29.2578
q26.1408 26.1408 46.8115 48.2891q7.85813 7.85778 19.1532 19.4746t18.7454 19.0671q7.45028 7.45026 13.3016 12.6575q26.4858 28.0911 62.445 65.8705t45.7913 48.233q4.13253 4.7225 21.178 22.8557t30.0222 32.7322q47.0787 49.9898 52.6777 55.5889
q56.0696 60.4044 71.665 122.88q17.8349 62.3427 -8.77637 119.954q-22.0663 55.1657 -73.1436 90.6973q-52.6626 37.3037 -114.103 39.4971q-49.5609 4.50567 -98.0117 -10.2393q-52.9241 -16.1078 -81.9199 -40.96l-21.9424 -16.0918q-36.2717 -33.8536 -55.6035 -57.0518
q-26.6567 33.3209 -59.9775 59.9775q-79.6046 73.1514 -200.411 64.3652q-59.6817 -2.21049 -111.177 -38.0342q-51.888 -36.0956 -73.1436 -89.2344q-24.249 -57.3177 -8.77637 -121.417q20.1514 -67.0257 71.709 -122.88q32.8553 -37.2363 73.1426 -77.5459
q8.60502 -8.59784 78.9941 -81.9199l77.5322 -78.9941l68.7539 -68.7402l48.2744 -48.2891q3.29357 -3.29313 12.0701 -12.794q8.77656 -9.5009 14.2609 -14.9853l10.2402 -10.2402z" />
    <glyph glyph-name="uniE937" unicode="&#xe937;" 
d="M759.223 -11.3369h179.932l-179.932 178.469l33.6455 32.1826l178.469 -178.469v178.469h43.8857v-254.537h-256v43.8857zM971.337 875.154l-178.469 -179.932l-33.6455 32.1826l179.932 179.932h-179.932v43.8857h256v-256h-43.8857v179.932zM264.777 907.337h-179.932
l179.932 -179.932l-33.6455 -32.1826l-178.469 179.932v-179.932h-43.8857v256h256v-43.8857zM52.6631 20.8457l178.469 178.469l33.6455 -32.1826l-179.932 -178.469h179.932v-43.8857h-256v254.537h43.8857v-178.469z" />
    </font>
</defs>
</svg>
