<svg width="71" height="19" viewBox="0 0 71 19" fill="none" xmlns="http://www.w3.org/2000/svg">
<path d="M69.0697 6.11942C68.9097 6.11942 68.7697 6.08942 68.6397 6.02942C68.4997 5.96942 68.3897 5.88941 68.2897 5.78941C68.1897 5.68941 68.1097 5.56942 68.0597 5.43942C67.9997 5.30942 67.9697 5.15941 67.9697 5.00941C67.9697 4.84941 67.9997 4.70942 68.0597 4.57942C68.1197 4.44942 68.1897 4.32942 68.2997 4.22942C68.3997 4.12942 68.5197 4.04943 68.6497 3.98943C68.7897 3.92943 68.9297 3.89941 69.0897 3.89941C69.2497 3.89941 69.3897 3.92943 69.5197 3.98943C69.6497 4.04943 69.7697 4.12942 69.8697 4.22942C69.9697 4.32942 70.0497 4.44942 70.0997 4.57942C70.1597 4.70942 70.1897 4.85941 70.1897 5.00941C70.1897 5.16941 70.1597 5.30942 70.0997 5.43942C70.0397 5.56942 69.9597 5.68941 69.8597 5.78941C69.7597 5.88941 69.6397 5.96942 69.5097 6.02942C69.3697 6.08942 69.2297 6.11942 69.0797 6.11942H69.0697ZM69.0697 5.99942C69.2097 5.99942 69.3397 5.96942 69.4597 5.91942C69.5797 5.86942 69.6797 5.79942 69.7697 5.69942C69.8597 5.60942 69.9297 5.49943 69.9797 5.37943C70.0297 5.25943 70.0597 5.12942 70.0597 4.99942C70.0597 4.85942 70.0397 4.72942 69.9797 4.60942C69.9297 4.48942 69.8597 4.37942 69.7797 4.29942C69.6897 4.20942 69.5897 4.13942 69.4697 4.08942C69.3497 4.03942 69.2197 4.00941 69.0797 4.00941C68.9397 4.00941 68.8097 4.03942 68.6897 4.08942C68.5697 4.13942 68.4697 4.20942 68.3797 4.30942C68.2897 4.39942 68.2197 4.49942 68.1697 4.61942C68.1197 4.73942 68.0997 4.86942 68.0997 4.99942C68.0997 5.13942 68.1197 5.26942 68.1697 5.38942C68.2197 5.50942 68.2897 5.60942 68.3697 5.69942C68.4597 5.78942 68.5597 5.85942 68.6797 5.90942C68.7997 5.95942 68.9297 5.98943 69.0697 5.98943V5.99942ZM68.5797 4.38942H69.1297C69.2197 4.38942 69.2997 4.39941 69.3697 4.42941C69.4297 4.44941 69.4897 4.48942 69.5297 4.52942C69.5997 4.59942 69.6297 4.68942 69.6297 4.79942C69.6297 4.89942 69.6097 4.96942 69.5597 5.02942C69.5197 5.08942 69.4597 5.12942 69.3797 5.15942L69.6597 5.56943H69.2797L69.0397 5.20943H68.8997V5.56943H68.5697V4.38942H68.5797ZM69.1197 4.94942C69.1797 4.94942 69.2197 4.93942 69.2497 4.90942C69.2797 4.88942 69.2997 4.84942 69.2997 4.80942C69.2997 4.75942 69.2797 4.71942 69.2497 4.69942C69.2197 4.67942 69.1697 4.65942 69.1197 4.65942H68.9097V4.93942H69.1197V4.94942Z" fill="#323334"/>
<path d="M8.59969 17.6191C8.54969 17.6191 8.48969 17.6191 8.43969 17.6191C6.94969 17.6191 5.38969 16.9191 4.12969 15.6791C2.75969 14.3291 1.98969 12.5891 2.00969 10.9091C2.02969 9.36907 2.61969 7.83906 3.59969 6.64906L3.72969 6.48907C3.75969 6.45907 3.78969 6.40907 3.81969 6.37907L9.04967 0.0390625H7.61968L2.97969 5.60907C2.97969 5.60907 2.96967 5.62907 2.95967 5.63907L2.74968 5.88907C1.61968 7.25907 0.949696 8.99906 0.919696 10.7591C0.889696 12.6991 1.75968 14.6791 3.30968 16.2091C4.76968 17.6391 6.60969 18.4591 8.37969 18.4591C8.43969 18.4591 8.50969 18.4591 8.56969 18.4591C12.2697 18.3291 14.3897 15.4591 14.4697 15.3391L13.9497 14.5291C13.3597 15.3791 11.5997 17.5191 8.59969 17.6491V17.6191Z" fill="#323334"/>
<path d="M9.77927 0.0295258L5.73926 4.92952C6.70926 4.45952 7.78928 4.24953 8.88928 4.35953C12.0993 4.67953 14.0393 7.86953 15.7093 10.8895L16.3593 9.88953C14.6693 6.88953 12.5193 3.59953 8.93927 3.24953C8.75927 3.22953 8.57926 3.22953 8.39926 3.21953L11.0693 0.0195312H9.79926L9.77927 0.0295258Z" fill="#323334"/>
<path d="M8.82951 4.91911C7.31951 4.76911 5.85954 5.2591 4.69954 6.2891C4.53954 6.4291 4.38953 6.57912 4.24953 6.73912L4.07951 6.94911C3.15951 8.05911 2.60951 9.47911 2.57951 10.9091C2.55951 12.4391 3.26953 14.0391 4.52953 15.2691C5.72953 16.4491 7.20952 17.0891 8.58952 17.0391C11.4095 16.9491 13.1195 14.7391 13.6295 13.9691L12.9395 12.8891L12.3495 13.7491C12.3495 13.7491 10.8695 15.6991 8.48952 15.7791C7.37952 15.8091 6.14953 15.2591 5.15953 14.2891C4.11953 13.2691 3.53951 11.9891 3.54951 10.7691C3.56951 9.60912 4.01952 8.45911 4.76952 7.54911L4.94954 7.32911C5.05954 7.20911 5.17951 7.08911 5.29951 6.97911C5.96951 6.37911 7.09953 5.70911 8.65953 5.85911C11.2595 6.11911 13.0195 9.29911 14.5695 12.1091C14.6195 12.1991 14.6695 12.2891 14.7195 12.3891L15.3495 11.4191C13.7195 8.43911 11.8495 5.20911 8.81953 4.90911L8.82951 4.91911Z" fill="#323334"/>
<path d="M25.8197 3.71929C23.4897 2.83929 19.2697 2.96929 16.7997 6.90929L17.2997 7.75928C19.6097 4.19928 22.7897 3.83929 25.5197 4.76929C28.1097 5.65929 29.8897 8.02929 29.8297 10.5493C29.7297 15.4693 26.0297 17.4393 23.5797 17.5693C21.2697 17.6893 18.0997 16.3293 16.2297 13.0193C16.0097 12.6193 15.7797 12.2093 15.5497 11.7893C15.4797 11.6693 15.4197 11.5493 15.3497 11.4293L14.7197 12.3993C14.8997 12.7193 15.0797 13.0393 15.2497 13.3493C17.3397 16.9993 20.8997 18.4093 23.5297 18.3393C27.0897 18.2393 30.9697 15.1893 30.7797 10.4193C30.6497 7.19928 28.5797 4.76929 25.8097 3.71929H25.8197Z" fill="#323334"/>
<path d="M16.3502 9.89951L15.7002 10.8995C15.8102 11.1095 15.9302 11.3195 16.0402 11.5195C16.2702 11.9395 16.4902 12.3495 16.7102 12.7395C18.4602 15.8395 21.3902 17.1095 23.5402 17.0095C25.1002 16.9295 29.1502 15.6095 29.2602 10.5395C29.3102 8.26951 27.6902 6.11952 25.3302 5.30952C22.8302 4.44952 19.7402 4.89951 17.5602 8.22951L18.3702 9.61951V9.59952C18.9302 7.41952 20.8902 5.80952 23.2302 5.80952C25.9902 5.80952 28.2402 8.04953 28.2402 10.8195C28.2402 13.5895 26.0002 15.8295 23.2302 15.8295C22.2002 15.8295 21.2302 15.5195 20.4402 14.9795C19.3602 14.3795 18.3102 13.4295 17.5402 12.0695C17.3202 11.6895 17.1002 11.2895 16.8702 10.8795C16.7002 10.5695 16.5202 10.2395 16.3402 9.91952L16.3502 9.89951Z" fill="#323334"/>
<path d="M34.3596 15.7695H35.9596V16.2595H34.9496V16.8595H35.8896V17.3395H34.9496V18.3895H34.3496V15.7695H34.3596Z" fill="#323334"/>
<path d="M40.2599 15.7695V18.3895H39.6699V15.7695H40.2599Z" fill="#323334"/>
<path d="M44.5399 16.2695H43.8398V15.7695H45.8499V16.2695H45.1399V18.3895H44.5399V16.2695Z" fill="#323334"/>
<path d="M49.4299 18.3895V15.7695H50.1199L50.6599 16.7295C50.8199 17.0095 50.9699 17.3295 51.0899 17.6295H51.0999C51.0599 17.2895 51.0499 16.9295 51.0499 16.5395V15.7795H51.5899V18.3995H50.9699L50.4099 17.3895C50.2499 17.1095 50.0799 16.7695 49.9499 16.4595H49.9399C49.9499 16.8095 49.9599 17.1795 49.9599 17.6095V18.3995H49.4199L49.4299 18.3895Z" fill="#323334"/>
<path d="M56.9299 17.2795H55.9699V17.8995H57.0499V18.3895H55.3799V15.7695H56.9999V16.2595H55.9799V16.7995H56.9399V17.2795H56.9299Z" fill="#323334"/>
<path d="M60.7292 17.7795C60.8892 17.8595 61.1292 17.9395 61.3892 17.9395C61.6592 17.9395 61.8091 17.8295 61.8091 17.6595C61.8091 17.4895 61.6891 17.3995 61.3691 17.2895C60.9291 17.1395 60.6491 16.8995 60.6491 16.5195C60.6491 16.0695 61.0192 15.7295 61.6392 15.7295C61.9392 15.7295 62.1491 15.7895 62.3091 15.8595L62.1791 16.3395C62.0691 16.2895 61.8892 16.2095 61.6292 16.2095C61.3692 16.2095 61.2491 16.3295 61.2491 16.4595C61.2491 16.6295 61.3991 16.6995 61.7391 16.8295C62.1991 16.9995 62.4192 17.2395 62.4192 17.6095C62.4192 18.0495 62.0791 18.4195 61.3591 18.4195C61.0591 18.4195 60.7691 18.3395 60.6191 18.2595L60.7391 17.7695L60.7292 17.7795Z" fill="#323334"/>
<path d="M66.0797 17.7795C66.2397 17.8595 66.4797 17.9395 66.7397 17.9395C67.0097 17.9395 67.1597 17.8295 67.1597 17.6595C67.1597 17.4895 67.0297 17.3995 66.7197 17.2895C66.2797 17.1395 65.9997 16.8995 65.9997 16.5195C65.9997 16.0695 66.3697 15.7295 66.9897 15.7295C67.2797 15.7295 67.4997 15.7895 67.6597 15.8595L67.5297 16.3395C67.4297 16.2895 67.2397 16.2095 66.9797 16.2095C66.7197 16.2095 66.5997 16.3295 66.5997 16.4595C66.5997 16.6295 66.7497 16.6995 67.0797 16.8295C67.5397 16.9995 67.7597 17.2395 67.7597 17.6095C67.7597 18.0495 67.4197 18.4195 66.7097 18.4195C66.4097 18.4195 66.1097 18.3395 65.9697 18.2595L66.0897 17.7695L66.0797 17.7795Z" fill="#323334"/>
<path d="M63.7998 11.5093H59.7998V12.2393H63.8698C66.2798 12.2393 66.4098 9.87927 66.3898 9.04927C66.3098 6.12927 64.2998 6.12927 63.6998 6.09927H59.8098V6.78926H63.7298C65.0498 6.80926 65.6898 7.90926 65.6698 9.17926C65.6398 10.6893 64.9698 11.4893 63.8198 11.5093H63.7998Z" fill="#323334"/>
<path d="M67.5298 7.51918C67.3898 6.98918 67.1598 6.52918 66.8498 6.13918C66.5398 5.73918 66.1398 5.43917 65.6598 5.22917C65.1798 5.01917 64.5498 4.90918 63.7698 4.90918H59.7998V5.55917H63.6898C63.7498 5.55917 65.2498 5.55918 66.0598 6.38918C67.3898 7.75918 67.2898 10.5292 66.2698 11.7592C65.6598 12.4992 64.7298 12.7192 63.6998 12.7692H59.7998V13.5392H63.7698C64.2498 13.5392 64.7798 13.4592 65.3598 13.2992C65.7898 13.1892 66.1898 12.9592 66.5598 12.6092C66.9298 12.2692 67.2198 11.8392 67.4298 11.3292C67.6398 10.8192 67.7498 10.1092 67.7498 9.17917C67.7498 8.58917 67.6798 8.02917 67.5398 7.50917L67.5298 7.51918Z" fill="#323334"/>
<path d="M57.94 4.89941H57.04V13.5394H57.94V4.89941Z" fill="#323334"/>
<path d="M56.6295 12.5894V4.89941H55.7295L55.7495 9.73943L52.4495 4.89941H51.4395L56.6295 12.5894Z" fill="#323334"/>
<path d="M35.5996 4.89941L35.6296 13.5394H36.5396V6.94942L38.2196 13.5394H38.9696L38.9896 13.4894L36.6496 4.89941H35.5996Z" fill="#323334"/>
<path d="M44.0699 4.89941H43.1699V13.5394H44.0699V4.89941Z" fill="#323334"/>
<path d="M41.8792 6.94942V13.5394H42.7492L42.7292 4.89941H41.7192L39.4492 13.4894L39.4692 13.5394H40.1992L41.8792 6.94942Z" fill="#323334"/>
<path d="M35.1496 4.89941H34.3496V13.5394H35.1796L35.1496 4.89941Z" fill="#323334"/>
<path d="M39.2191 12.6094L41.2491 4.89941H40.5591L39.2191 10.1594L37.8591 4.89941H37.1191L39.2191 12.6094Z" fill="#323334"/>
<path d="M51.2998 5.62988V13.5399H52.1598V8.42987L55.6298 13.5399H56.6498L51.2998 5.62988Z" fill="#323334"/>
<path d="M48.1 4.89941H47.21V13.5394H48.1V4.89941Z" fill="#323334"/>
<path d="M46.7796 4.89941H45.8896V13.5394H46.7796V4.89941Z" fill="#323334"/>
<path d="M50.8597 4.89941H49.9697V13.5394H50.8597V4.89941Z" fill="#323334"/>
</svg>
