<svg width="292" height="290" viewBox="0 0 292 290" fill="none" xmlns="http://www.w3.org/2000/svg">
<path d="M284.66 1.77002C286.24 2.68002 287.49 3.91004 288.41 5.48004C289.33 7.05004 289.79 8.80004 289.79 10.73C289.79 12.66 289.33 14.42 288.41 16C287.49 17.58 286.24 18.82 284.66 19.71C283.08 20.6 281.35 21.04 279.48 21.04C277.61 21.04 275.88 20.6 274.3 19.71C272.72 18.82 271.47 17.58 270.55 16C269.63 14.42 269.17 12.66 269.17 10.73C269.17 8.80004 269.63 7.05004 270.55 5.48004C271.47 3.91004 272.72 2.68002 274.3 1.77002C275.88 0.86002 277.61 0.410034 279.48 0.410034C281.35 0.410034 283.08 0.86002 284.66 1.77002ZM283.65 18C284.89 17.29 285.88 16.3 286.6 15.03C287.32 13.76 287.68 12.32 287.68 10.72C287.68 9.12003 287.32 7.69003 286.6 6.41003C285.88 5.14003 284.9 4.15003 283.65 3.44003C282.41 2.73003 281.02 2.38004 279.48 2.38004C277.94 2.38004 276.55 2.73003 275.29 3.44003C274.03 4.15003 273.03 5.14003 272.3 6.41003C271.56 7.68003 271.19 9.12003 271.19 10.72C271.19 12.32 271.56 13.75 272.3 15.03C273.04 16.3 274.03 17.29 275.29 18C276.55 18.71 277.95 19.06 279.48 19.06C281.01 19.06 282.4 18.71 283.65 18ZM283.81 15.22C283.87 15.36 283.87 15.51 283.81 15.66C283.75 15.91 283.58 16.09 283.3 16.21C283.02 16.33 282.72 16.36 282.38 16.3C281.98 16.24 281.64 15.99 281.37 15.54C281.1 15.09 280.96 14.47 280.96 13.67C280.96 13.12 280.83 12.68 280.57 12.36C280.31 12.04 279.92 11.88 279.39 11.88H277.69V15.38C277.69 15.6 277.59 15.79 277.39 15.98C277.19 16.16 276.97 16.26 276.72 16.26C276.47 16.26 276.26 16.18 276.07 16C275.89 15.83 275.79 15.63 275.79 15.38V5.99002C275.79 5.81002 275.86 5.64004 276 5.48004C276.14 5.33004 276.31 5.25003 276.53 5.25003H279.89C282.37 5.25003 283.62 6.29004 283.62 8.38004C283.62 9.73004 282.88 10.62 281.41 11.05C281.81 11.3 282.15 11.63 282.42 12.06C282.7 12.49 282.83 12.97 282.83 13.49C282.86 13.95 282.91 14.29 282.99 14.5C283.07 14.72 283.21 14.85 283.43 14.91C283.61 14.97 283.74 15.07 283.8 15.21L283.81 15.22ZM281.18 9.74002C281.58 9.45002 281.78 9.04002 281.78 8.52002C281.78 7.97002 281.61 7.58003 281.27 7.37003C280.93 7.16003 280.43 7.05002 279.75 7.05002H277.68V10.18H279.61C280.25 10.18 280.78 10.03 281.17 9.74002H281.18Z" fill="white"/>
<path d="M174.6 82.13C175.01 82.32 175.45 82.45 175.93 82.52C176.41 82.59 176.89 82.69 177.37 82.8C177.85 82.91 178.17 83.3 178.31 83.97C178.53 85.01 178.76 86.32 178.98 87.91C179.2 89.5 179.4 91.23 179.59 93.08C179.77 94.93 179.92 96.8 180.03 98.69C180.14 100.58 180.2 102.34 180.2 103.97C180.2 107.97 180.12 112.3 179.98 116.97C179.83 121.64 179.65 126.19 179.42 130.64C179.35 132.12 179.12 133.27 178.75 134.08C178.38 134.9 177.99 135.52 177.58 135.97C177.17 136.41 176.8 136.8 176.47 137.14C176.14 137.47 175.97 137.94 175.97 138.53C175.97 139.12 176.25 139.55 176.8 139.81C177.36 140.07 178.26 140.27 179.52 140.42L185.74 141.2C186.33 141.27 186.98 141.37 187.68 141.48C188.38 141.59 189.1 141.65 189.85 141.65C190.3 141.65 191.11 141.52 192.29 141.26C193.47 141 194.86 140.65 196.46 140.2C198.05 139.76 199.77 139.2 201.63 138.53C203.48 137.86 205.28 137.12 207.02 136.31C208.76 135.5 210.35 134.59 211.8 133.59C213.24 132.59 214.37 131.53 215.19 130.42C216.52 128.57 217.63 126.7 218.52 124.81C219.41 122.92 220.13 120.83 220.69 118.53C221.25 116.24 221.63 113.62 221.86 110.7C222.08 107.77 222.19 104.39 222.19 100.53C222.19 96.31 221.48 92.7 220.08 89.7C218.67 86.7 216.91 84.2 214.8 82.2C212.69 80.2 210.37 78.63 207.86 77.48C205.34 76.33 202.99 75.46 200.8 74.87C198.61 74.28 196.74 73.91 195.19 73.76C193.64 73.61 192.75 73.54 192.52 73.54C192 73.54 191.24 73.63 190.24 73.82C189.24 74.01 187.92 74.32 186.3 74.76L178.52 76.98C176.59 77.57 175.35 78.07 174.8 78.48C174.24 78.89 173.97 79.61 173.97 80.65C173.97 81.46 174.17 81.97 174.58 82.15L174.6 82.13ZM187.05 121.36C187.09 118.66 187.11 115.9 187.11 113.08V81.64C188 81.05 189.18 80.51 190.67 80.03C192.15 79.55 193.52 79.31 194.78 79.31C195.82 79.31 197.41 79.72 199.56 80.53C201.71 81.35 203.87 82.7 206.06 84.59C208.24 86.48 210.15 88.98 211.78 92.09C213.41 95.2 214.22 99.09 214.22 103.76C214.22 110.13 213.65 115.35 212.5 119.43C211.35 123.5 209.74 126.73 207.67 129.1C205.6 131.47 203.13 133.1 200.28 133.99C197.43 134.88 194.26 135.32 190.78 135.32C189.45 135.32 188.48 134.95 187.89 134.21C187.3 133.47 187 131.69 187 128.88C187 126.59 187.02 124.09 187.06 121.38L187.05 121.36Z" fill="white"/>
<path d="M57.43 140.9C57.61 140.39 57.87 139.9 58.2 139.45C60.35 136.07 64.79 130.49 71.53 122.7L99.98 120.79C102.7 120.61 104.76 120.81 106.17 121.4C107.58 121.99 108.84 123.15 109.96 124.87L115.95 133.85C116.35 134.47 116.61 135.14 116.73 135.85C116.85 136.56 117.41 136.88 118.41 136.82C120.41 136.69 122.01 136.36 123.2 135.85C124.39 135.34 124.96 134.69 124.9 133.9C124.86 133.26 124.45 132.6 123.69 131.93C122.93 131.26 122.04 130.35 121.03 129.2C119.63 127.64 118.07 125.77 116.34 123.58C114.61 121.4 112.88 119.1 111.13 116.7C109.39 114.3 97.19 82.88 97.09 82.24C96.97 81.5 100.64 76.7 101.33 76.22C102.02 75.74 102.34 75.22 102.3 74.65C102.28 74.37 101.99 74.04 101.43 73.68C100.87 73.32 100.76 73.3001 100.02 72.9501C99.28 72.6101 99.07 72.5601 98.3 72.3201C97.53 72.0901 96.89 71.98 96.39 72.02C95.39 72.09 94.6 72.1801 94.03 72.2901C93.46 72.4001 92.99 72.59 92.61 72.87C92.23 73.15 91.94 73.54 91.72 74.06C91.5 74.58 90.43 77.35 89.75 78.4C89.07 79.45 71.54 112.88 62.34 123.32C59.47 126.58 56.07 129.85 52.5 133.47C51.83 134.16 51.18 134.64 50.55 134.89C49.92 135.15 49.38 135.36 48.92 135.54C48.47 135.72 48.1 135.94 47.83 136.21C47.56 136.48 47.45 136.94 47.49 137.58C47.51 137.87 47.74 138.26 48.16 138.77C48.59 139.28 49.11 139.78 49.72 140.28C50.33 140.78 50.93 141.19 51.53 141.51C52.13 141.83 52.64 141.97 53.07 141.95L56.29 141.73C56.86 141.69 57.24 141.41 57.42 140.9H57.43ZM92.21 86.56L100.12 110C100.61 111.34 101.16 112.82 101.47 113.3C101.79 113.78 101.96 114.2 101.99 114.56C102.01 114.85 101.94 115.09 101.77 115.28C101.6 115.47 101.16 115.63 100.45 115.75C99.74 115.87 99.36 115.79 97.93 115.92C96.5 116.05 94.5 116.2 91.92 116.38C89.13 116.57 86.8 116.71 84.94 116.79C83.08 116.88 81.57 116.93 80.42 116.93C79.27 116.93 78.41 116.9 77.82 116.83C77.24 116.76 75.5 116.65 75.2 116.52L92.21 86.56Z" fill="white"/>
<path d="M163.26 179.78C162.48 178.63 161.61 177.58 160.65 176.61C159.69 175.65 158.72 174.94 157.76 174.5C155.61 173.61 153.28 172.93 150.76 172.44C148.24 171.96 146.02 171.72 144.09 171.72C143.13 171.72 141.74 171.94 139.92 172.39C138.1 172.83 136.35 173.43 134.64 174.17C132.94 174.91 131.44 175.74 130.14 176.67C128.84 177.6 128.2 178.58 128.2 179.61C128.2 180.35 128.76 181.02 129.87 181.61C130.31 181.83 130.61 182.13 130.76 182.5C130.91 182.87 131.02 183.28 131.09 183.72C131.46 186.24 131.74 190.18 131.92 195.55C132.1 200.92 132.2 207.2 132.2 214.38V230.93C132.2 232.71 132.14 234.13 132.03 235.21C131.92 236.28 131.77 237.14 131.59 237.77C131.4 238.4 131.26 238.9 131.14 239.27C131.03 239.64 130.97 239.97 130.97 240.27C130.97 241.38 131.6 241.94 132.86 241.94C135.15 241.94 136.77 240.98 137.69 239.05C138.62 237.12 139.08 234.12 139.08 230.05V200.72C139.08 199.24 139.12 197.57 139.19 195.72C139.26 193.87 139.36 192 139.47 190.11C139.58 188.22 139.71 186.41 139.86 184.67C140.01 182.93 140.16 181.43 140.31 180.17C141.79 179.28 143.22 178.61 144.59 178.17C145.96 177.73 147.46 177.5 149.09 177.5C150.72 177.5 152.22 178.02 153.37 179.06C154.52 180.1 155.43 181.36 156.09 182.84C156.76 184.32 157.22 185.86 157.48 187.45C157.74 189.04 157.87 190.4 157.87 191.51C157.87 194.4 156.83 197.03 154.76 199.4C152.69 201.77 149.87 203.33 146.32 204.07C145.28 204.29 144.58 204.53 144.21 204.79C143.84 205.05 143.65 205.37 143.65 205.73C143.65 205.95 143.93 206.29 144.48 206.73C145.04 207.17 145.7 207.58 146.48 207.95C147.26 208.32 148.07 208.65 148.92 208.95C149.77 209.25 150.49 209.4 151.09 209.4C151.69 209.4 152.55 208.99 153.7 208.18C154.85 207.37 156.07 206.35 157.37 205.12C158.66 203.9 159.91 202.6 161.09 201.23C162.27 199.86 163.24 198.58 163.98 197.4C165.24 195.47 165.87 191.92 165.87 186.73C165.87 185.69 165.63 184.56 165.15 183.34C164.67 182.12 164.04 180.93 163.26 179.78Z" fill="white"/>
<path d="M235.17 189.12L234.56 188.76L148.64 142.74L148.49 130.79L149.43 88.36L151.83 43.96L143.03 43.87H141.6V44.3L143.77 142.54L57.48 188.76L56.87 189.12C56.87 189.12 57.49 190.03 57.48 190.02L61.88 197.65L96.91 175.59L145.73 146.6L146.01 146.5L148.07 147.63L193.82 174.8C212.71 186.87 230.09 197.93 230.07 198.08L234.55 190.5L234.37 190.4L234.59 190.02L235.2 189.12H235.17Z" fill="white"/>
<path d="M23.47 204.82C21.24 206.1 19.65 208.03 18.99 210.27C18.34 212.46 18.62 214.77 19.78 216.78C21.03 218.96 22.89 220.4 25.13 220.92C25.75 221.06 26.38 221.13 27.01 221.13C28.69 221.13 30.42 220.64 32.11 219.67C36.57 217.1 38.08 211.94 35.63 207.66C33.09 203.24 28.2 202.1 23.46 204.81L23.47 204.82ZM34.03 213.71C33.54 215.27 32.41 216.62 30.87 217.51C29.16 218.49 27.41 218.83 25.79 218.48C24.18 218.13 22.85 217.11 21.94 215.54C21.12 214.11 20.93 212.47 21.42 210.9C21.92 209.31 23.09 207.91 24.71 206.98C25.95 206.26 27.27 205.89 28.5 205.89C28.87 205.89 29.24 205.92 29.6 205.99C31.22 206.3 32.56 207.31 33.47 208.9C34.34 210.41 34.54 212.11 34.03 213.7V213.71Z" fill="white"/>
<path d="M27.12 191.8C27.27 191.5 27.29 191.15 27.19 190.86C27.08 190.54 26.86 190.29 26.56 190.14C26.26 189.99 25.92 189.98 25.6 190.09L20.88 191.73L19.72 188.4L23.57 181.8C23.76 181.48 23.8 181.1 23.68 180.75C23.46 180.12 22.71 179.76 22.1 179.98C21.8 180.08 21.55 180.29 21.44 180.53L18.31 185.9C16.77 184.12 14.56 183.54 12.25 184.34C9.06 185.45 7.71001 188.73 8.95001 192.32L10.46 196.68C10.57 197 10.8 197.25 11.09 197.4C11.26 197.48 11.44 197.52 11.62 197.52C11.76 197.52 11.9 197.5 12.04 197.45L26.42 192.46C26.72 192.36 26.98 192.12 27.12 191.82V191.8ZM18.52 192.54L12.4 194.67L11.29 191.49C10.9 190.38 10.87 189.33 11.2 188.46C11.52 187.61 12.16 187 13.05 186.69C13.42 186.56 13.78 186.5 14.13 186.5C14.62 186.5 15.09 186.62 15.53 186.86C16.35 187.32 17 188.18 17.41 189.37L18.52 192.55V192.54Z" fill="white"/>
<path d="M12.67 173.35C15.15 172.98 17.27 171.81 18.64 170.07C20.11 168.21 20.67 165.81 20.27 163.13C19.91 160.75 19.07 158.86 17.62 157.18C17.32 156.83 16.84 156.66 16.36 156.74L10.77 157.58C9.54002 157.77 9.72002 158.95 9.77002 159.34L10.49 164.09C10.54 164.41 10.72 164.71 10.98 164.91C11.25 165.11 11.58 165.19 11.9 165.14C12.22 165.09 12.51 164.91 12.71 164.64C12.91 164.37 12.99 164.03 12.95 163.72L12.37 159.86L16.14 159.29C17 160.47 17.54 161.85 17.79 163.5C18.08 165.44 17.68 167.18 16.63 168.51C15.64 169.77 14.1 170.61 12.29 170.88C8.34997 171.48 5.2 169.21 4.63 165.39C4.41 163.94 4.46002 162.57 4.77002 161.14C4.79002 161.03 4.80997 160.89 4.78997 160.73C4.68997 160.03 4.04 159.57 3.38 159.68C2.86 159.76 2.47997 160.11 2.34997 160.65C1.97997 162.53 1.92998 164.15 2.16998 165.76C2.87998 170.48 6.41 173.47 11 173.47C11.54 173.47 12.1 173.43 12.66 173.34L12.67 173.35Z" fill="white"/>
<path d="M17.2 148.16H17.26C17.59 148.16 17.89 148.04 18.13 147.82C18.37 147.6 18.51 147.3 18.52 147C18.54 146.45 18.22 145.95 17.73 145.75C16.69 145.33 15.44 144.79 14.07 144.19L14.38 135.96C15.93 135.36 17.21 134.88 18.2 134.54C18.69 134.37 19.0201 133.92 19.0301 133.42C19.0401 133.11 18.92 132.78 18.69 132.54C18.46 132.29 18.15 132.14 17.82 132.13C17.62 132.13 17.42 132.17 16.64 132.46C13.5 133.56 6.50001 136.37 1.54001 138.46C1.10001 138.63 0.800059 139.08 0.780059 139.61V139.74C0.760059 140.25 1.04 140.73 1.47 140.94C3.71 142.06 11.39 145.85 16.06 147.79C16.79 148.11 16.97 148.17 17.19 148.18L17.2 148.16ZM4.84006 139.8C6.96006 138.9 9.40001 137.9 11.86 136.93L11.63 143.06C9.88003 142.24 8.06003 141.36 6.31003 140.51L4.85 139.8H4.84006Z" fill="white"/>
<path d="M4.27001 119.82L19.1 123.26C19.19 123.28 19.27 123.29 19.36 123.29C19.59 123.29 19.83 123.22 20.03 123.09C20.31 122.91 20.52 122.63 20.59 122.33C20.75 121.65 20.34 120.99 19.66 120.83L8.15997 118.16C9.33997 117.61 10.66 116.99 12.05 116.34C15.64 114.66 19.71 112.75 22.59 111.48C23.11 111.27 23.28 110.76 23.36 110.4C23.51 109.75 23.09 109.09 22.42 108.93L7.59002 105.49C6.92002 105.33 6.26002 105.74 6.09002 106.42C5.94002 107.08 6.36001 107.77 7.02001 107.92L18.51 110.58C16.17 111.65 13.53 112.89 11.08 114.04C8.29001 115.35 5.66002 116.58 4.09002 117.27C3.59002 117.48 3.42 117.91 3.32 118.35C3.17 118.99 3.6 119.66 4.26 119.81L4.27001 119.82Z" fill="white"/>
<path d="M11.95 93.12L26.09 98.76C26.23 98.81 26.37 98.84 26.53 98.84C26.7 98.84 26.88 98.8 27.05 98.73C27.36 98.6 27.6 98.35 27.72 98.06C27.84 97.75 27.84 97.41 27.72 97.11C27.59 96.81 27.35 96.57 27.03 96.44L12.89 90.8C12.58 90.68 12.24 90.68 11.93 90.81C11.63 90.94 11.39 91.18 11.27 91.5C11.02 92.13 11.34 92.87 11.97 93.12H11.95Z" fill="white"/>
<path d="M38.14 74.9C37.85 74.73 37.51 74.69 37.19 74.77C36.87 74.86 36.6 75.06 36.43 75.35L31.59 83.74C30.85 81.99 29.88 79.51 28.93 77.09C27.51 73.48 26.05 69.75 25.27 68.15C25.18 67.93 25 67.74 24.78 67.62C24.18 67.27 23.4 67.47 23.07 68.04L17.4 77.86C17.07 78.44 17.28 79.22 17.86 79.56C18.13 79.72 18.48 79.76 18.8 79.67C19.12 79.58 19.4 79.38 19.56 79.1L23.98 71.44C24.75 73.28 25.72 75.76 26.66 78.17C28.11 81.87 29.48 85.37 30.19 86.76C30.24 86.88 30.46 87.3 30.85 87.52C31.03 87.63 31.24 87.68 31.45 87.68C31.89 87.68 32.33 87.46 32.56 87.07L38.6 76.6C38.94 76.01 38.72 75.23 38.14 74.9Z" fill="white"/>
<path d="M51.8 58.35C52.29 58.51 52.82 58.37 53.15 57.99C53.36 57.75 53.46 57.42 53.43 57.08C53.4 56.74 53.25 56.43 53.01 56.23C52.87 56.11 52.67 56.01 51.87 55.76C48.72 54.68 41.48 52.56 36.28 51.11C35.83 50.98 35.32 51.15 34.97 51.55L34.9 51.64C34.57 52.02 34.49 52.58 34.7 53.02C35.77 55.28 39.45 63.01 41.92 67.44C42.31 68.16 42.4 68.31 42.56 68.44C42.8 68.65 43.09 68.76 43.4 68.76C43.43 68.76 43.47 68.76 43.5 68.76C43.82 68.73 44.12 68.59 44.32 68.35C44.68 67.93 44.73 67.34 44.47 66.88C43.92 65.91 43.27 64.71 42.56 63.39L47.9 57.12C49.42 57.58 50.76 58.01 51.78 58.36L51.8 58.35ZM45.33 56.3L41.35 60.97C40.45 59.19 39.54 57.31 38.67 55.51L38.04 54.21C40.29 54.82 42.82 55.55 45.33 56.3Z" fill="white"/>
<path d="M68.69 40.6401C68.35 40.6101 68.04 40.7101 67.78 40.9201C67.6 41.0601 67.47 41.2401 67.44 41.3801C66.96 42.4401 66.14 43.4601 65.08 44.3201C61.9 46.9001 58.24 46.5601 55.74 43.4801C54.53 41.9901 53.97 40.2001 54.16 38.4401C54.35 36.7501 55.2 35.2101 56.56 34.1101C57.66 33.2201 58.9 32.5801 59.9 32.3901C60.11 32.3401 60.3 32.2601 60.45 32.1301C60.71 31.9201 60.87 31.6301 60.9 31.3001C60.94 30.9601 60.84 30.6301 60.63 30.3701C60.36 30.0301 59.94 29.8601 59.44 29.9301C58.07 30.1701 56.45 30.9801 54.99 32.1701C53.12 33.6801 51.95 35.8001 51.68 38.1401C51.4 40.5701 52.15 43.0201 53.8 45.0501C55.39 47.0201 57.5 48.2401 59.73 48.5101C60.05 48.5501 60.36 48.5701 60.68 48.5701C62.73 48.5701 64.78 47.7801 66.65 46.2601C68.03 45.1401 69.09 43.8001 69.68 42.4201C69.89 42.0001 69.84 41.4801 69.53 41.1101C69.31 40.8401 69.02 40.6801 68.7 40.6501L68.69 40.6401Z" fill="white"/>
<path d="M79.25 36.8901C79.47 36.8901 79.69 36.8401 79.87 36.7201C80.47 36.3601 80.65 35.6101 80.29 35.0101L72.42 21.9801C72.06 21.3901 71.31 21.2001 70.71 21.5601C70.14 21.9101 69.94 22.69 70.29 23.27L78.16 36.3C78.39 36.68 78.82 36.8901 79.25 36.8901Z" fill="white"/>
<path d="M97.18 28.31C101.9 26.37 103.67 21.67 101.6 16.62C100.62 14.24 98.91 12.41 96.79 11.47C94.7 10.54 92.37 10.52 90.23 11.4C87.9 12.36 86.23 14.01 85.42 16.16C84.61 18.31 84.72 20.76 85.74 23.25C87.23 26.86 90.41 28.98 93.85 28.98C94.95 28.98 96.08 28.76 97.18 28.31ZM96.24 26.01C92.99 27.35 89.47 25.76 88.05 22.31C86.51 18.57 87.77 15.11 91.18 13.71C91.91 13.41 92.66 13.26 93.4 13.26C95.86 13.26 98.19 14.87 99.3 17.57C100.81 21.24 99.58 24.63 96.24 26V26.01Z" fill="white"/>
<path d="M88.71 10.08C88.85 10.08 88.99 10.05 89.13 10C89.27 9.94 89.52 9.81001 89.68 9.54001C90.15 8.75001 91.01 7.52001 92.23 5.88001C92.48 5.55001 92.53 5.11 92.37 4.71C92.26 4.43 92.03 4.21 91.75 4.09C91.46 3.97 91.14 3.97 90.83 4.09C90.65 4.17 90.47 4.31 90.37 4.47C89.85 5.24 89.29 6.02999 88.78 6.73999C88.36 7.32999 87.98 7.86001 87.69 8.29001C87.49 8.59001 87.45 8.99001 87.6 9.35001C87.79 9.81001 88.23 10.09 88.69 10.09L88.71 10.08Z" fill="white"/>
<path d="M125.62 19.49C126.02 19.87 126.53 19.8301 126.92 19.7601C127.23 19.7001 127.5 19.5201 127.69 19.2501C127.88 18.9701 127.95 18.64 127.88 18.3L124.97 3.35006C124.84 2.66006 124.19 2.23004 123.51 2.36004C122.85 2.49004 122.4 3.16006 122.53 3.82006L124.78 15.4C122.86 13.71 120.68 11.8201 118.64 10.0701C116.29 8.04006 114.07 6.12005 112.79 4.96005C112.39 4.58005 111.91 4.61006 111.49 4.69006C110.85 4.82006 110.41 5.48005 110.54 6.15005L113.44 21.1001C113.55 21.6801 114.11 22.11 114.68 22.11C114.75 22.11 114.83 22.11 114.9 22.09C115.59 21.96 116.02 21.3101 115.88 20.6301L113.63 9.03005C114.6 9.88005 115.7 10.8201 116.85 11.8201C119.86 14.4201 123.28 17.37 125.62 19.49Z" fill="white"/>
<path d="M168.22 3.82007C168.3 3.11007 167.85 2.56007 167.14 2.48007C166.69 2.44007 166.27 2.61006 166.03 2.94006C164.76 4.64006 161.8 8.30007 159.85 10.5701C158.39 7.95007 156.14 3.59005 155.28 1.77005C155.12 1.40005 154.72 1.13006 154.29 1.09006C153.53 1.01006 153.02 1.58007 152.95 2.17007C152.93 2.39007 152.95 2.59007 153.04 2.82007C154.07 5.08007 157.06 10.8001 158.31 12.9201L157.75 18.0101C157.68 18.6601 158.2 19.3101 158.86 19.3801C158.91 19.3801 158.95 19.3801 159 19.3801C159.63 19.3801 160.16 18.9201 160.23 18.2701L160.78 13.2401C162.66 11.1201 166.51 6.41005 168 4.43005C168.11 4.26005 168.19 4.04005 168.21 3.83005L168.22 3.82007Z" fill="white"/>
<path d="M200.99 12.16L196.85 10.43C196.54 10.3 196.2 10.3 195.89 10.43C195.58 10.56 195.34 10.8 195.21 11.11L189.35 25.16C189.09 25.77 189.41 26.53 190.02 26.79C190.18 26.85 190.34 26.89 190.5 26.89C190.66 26.89 190.82 26.86 190.97 26.8C191.28 26.67 191.51 26.43 191.64 26.13L193.29 22.18L196.28 23.43C198.17 24.22 199.99 24.3 201.54 23.66C202.95 23.08 204.08 21.9 204.73 20.34C205.39 18.77 205.38 17.08 204.71 15.61C204.03 14.13 202.71 12.91 200.98 12.19L200.99 12.16ZM202.45 19.36C202.05 20.32 201.38 21 200.51 21.33C199.57 21.69 198.44 21.61 197.25 21.11L194.26 19.86L197.04 13.21L200.03 14.46C201.22 14.96 202.09 15.77 202.49 16.74C202.83 17.57 202.81 18.47 202.45 19.35V19.36Z" fill="white"/>
<path d="M218.72 41.7901C218.81 41.7901 218.91 41.7801 219 41.7601C219.33 41.6901 219.62 41.4901 219.79 41.2301C219.96 40.9601 220.03 40.6401 219.97 40.3901L219.09 34.2401C221.4 34.6801 223.5 33.7601 224.81 31.7101C225.68 30.3401 225.94 28.7701 225.53 27.2801C225.11 25.7601 224.04 24.4201 222.44 23.4001L218.55 20.9201C217.96 20.5501 217.21 20.7201 216.83 21.3001L208.66 34.1401C208.3 34.7001 208.48 35.5001 209.04 35.8601C209.63 36.2301 210.39 36.0701 210.76 35.4801L213.44 31.2601L216.42 33.1601L217.51 40.7201C217.56 41.0901 217.76 41.4101 218.07 41.6101C218.26 41.7301 218.49 41.8001 218.72 41.8001V41.7901ZM222.71 30.3601C222.21 31.1401 221.51 31.6201 220.66 31.7601C219.72 31.9101 218.68 31.6401 217.62 30.9601L214.78 29.1501L218.26 23.6801L221.1 25.4901C222.09 26.1201 222.77 26.9201 223.05 27.8101C223.33 28.6801 223.21 29.5501 222.7 30.3501L222.71 30.3601Z" fill="white"/>
<path d="M237.13 55.5C237.36 55.5 237.59 55.5 237.82 55.47C239.99 55.28 242.14 54.1501 243.89 52.2901C245.65 50.4201 246.62 48.11 246.6 45.78C246.59 43.5 245.65 41.37 243.96 39.78C242.12 38.05 239.93 37.22 237.64 37.36C235.35 37.51 233.16 38.62 231.32 40.58C229.63 42.38 228.7 44.62 228.69 46.9C228.69 49.22 229.66 51.42 231.43 53.09C233.11 54.68 235.07 55.5 237.12 55.5H237.13ZM233.13 42.2901C234.48 40.8501 236.07 40.0201 237.72 39.8901C239.38 39.7801 240.93 40.35 242.25 41.59C243.45 42.72 244.1 44.24 244.09 45.87C244.08 47.54 243.36 49.2101 242.08 50.5701C239.36 53.4601 235.77 53.74 233.14 51.27C230.58 48.86 230.58 45.0001 233.14 42.2901H233.13Z" fill="white"/>
<path d="M244.21 65.74C244.16 66.07 244.24 66.4 244.43 66.67L247.65 71.16C249.05 73.11 251.06 74.33 253.31 74.59C253.62 74.63 253.93 74.64 254.25 74.64C256.13 74.64 258.06 73.99 259.75 72.77C263.78 69.88 264.78 64.62 262.05 60.81L258.83 56.32C258.64 56.05 258.35 55.87 258.02 55.81C257.69 55.76 257.36 55.84 257.09 56.03L244.73 64.92C244.46 65.11 244.28 65.4 244.22 65.73L244.21 65.74ZM247.18 66.23L257.52 58.8L260.02 62.27C261.94 64.95 261.19 68.67 258.3 70.75C255.25 72.94 251.71 72.51 249.69 69.7L247.19 66.23H247.18Z" fill="white"/>
<path d="M259.66 92.27C261.04 95.27 263.22 96.83 265.89 96.83C267.06 96.83 268.33 96.53 269.66 95.92L278.02 92.07C278.65 91.78 278.92 91.05 278.63 90.42C278.5 90.13 278.25 89.9 277.94 89.78C277.62 89.66 277.28 89.67 276.98 89.81L268.63 93.66C267.13 94.35 265.8 94.49 264.66 94.07C263.53 93.66 262.62 92.7 261.94 91.24C261.33 89.92 261.22 88.63 261.63 87.51C262.05 86.34 263.01 85.38 264.42 84.74L272.86 80.85C273.49 80.56 273.76 79.83 273.47 79.2C273.34 78.91 273.09 78.68 272.78 78.56C272.46 78.44 272.12 78.45 271.82 78.59L263.38 82.48C259.2 84.41 257.79 88.17 259.68 92.3L259.66 92.27Z" fill="white"/>
<path d="M274.42 105.04C269.18 106.34 266.56 110.81 267.89 116.16C268.32 117.88 269.08 119.4 270.08 120.52C270.31 120.82 270.66 120.98 271.04 120.98C271.14 120.98 271.24 120.97 271.34 120.94C272.03 120.77 272.42 120.12 272.25 119.43C272.2 119.21 272.09 119.02 271.98 118.93C271.22 118.04 270.65 116.87 270.31 115.55C269.32 111.59 271.18 108.41 275.03 107.45C276.89 106.99 278.75 107.24 280.26 108.16C281.71 109.04 282.74 110.47 283.17 112.16C283.51 113.53 283.57 114.93 283.32 115.92C283.27 116.13 283.27 116.33 283.32 116.53C283.4 116.85 283.6 117.12 283.89 117.29C284.18 117.46 284.52 117.52 284.83 117.44C285.25 117.34 285.59 117.01 285.74 116.55C286.1 115.21 286.05 113.39 285.59 111.57C284.35 106.58 279.55 103.76 274.44 105.05L274.42 105.04Z" fill="white"/>
<path d="M273.22 131.7C271.62 133.47 270.87 135.87 271.05 138.65C271.16 140.43 271.65 142.06 272.43 143.34C272.64 143.74 273.06 143.99 273.51 143.99C273.54 143.99 273.56 143.99 273.58 143.99C273.93 143.97 274.24 143.82 274.45 143.57C274.66 143.33 274.76 143.01 274.74 142.67C274.73 142.45 274.65 142.24 274.56 142.13C273.97 141.12 273.62 139.87 273.53 138.5C273.27 134.48 275.72 131.62 279.63 131.37C281.54 131.25 283.33 131.83 284.65 133C285.92 134.13 286.68 135.72 286.79 137.46C286.88 138.87 286.68 140.26 286.26 141.19C286.17 141.38 286.14 141.59 286.15 141.78C286.17 142.11 286.32 142.41 286.56 142.63C286.81 142.85 287.14 142.98 287.47 142.95C287.9 142.92 288.29 142.66 288.52 142.24C289.12 140.98 289.39 139.19 289.27 137.31C289.12 134.91 288.07 132.73 286.32 131.16C284.5 129.53 282.05 128.71 279.46 128.89C276.93 129.05 274.71 130.06 273.21 131.72L273.22 131.7Z" fill="white"/>
<path d="M287.6 155L272.42 153.8C272.42 153.8 272.36 153.8 272.33 153.8C271.7 153.8 271.13 154.32 271.08 154.95C271.03 155.65 271.53 156.24 272.23 156.29L287.41 157.49C287.41 157.49 287.48 157.49 287.51 157.49C288.16 157.49 288.7 157 288.75 156.34C288.78 156.02 288.67 155.69 288.45 155.43C288.23 155.18 287.93 155.02 287.6 155Z" fill="white"/>
<path d="M291.18 182.29C290.86 181.42 290.55 180.52 290.26 179.69C290.02 179 289.81 178.37 289.63 177.89C289.5 177.55 289.2 177.29 288.82 177.2C288.19 177.05 287.55 177.43 287.41 178.05C287.37 178.23 287.35 178.5 287.47 178.77C287.94 179.84 288.54 181.65 288.97 182.97C289.08 183.36 289.43 183.67 289.84 183.77C289.92 183.79 290.01 183.8 290.09 183.8C290.3 183.8 290.52 183.74 290.7 183.63C290.97 183.46 291.15 183.2 291.23 182.89C291.28 182.7 291.26 182.48 291.19 182.3L291.18 182.29Z" fill="white"/>
<path d="M278.59 167.58C276.19 167.02 273.78 167.33 271.8 168.48C269.79 169.64 268.37 171.59 267.82 173.95C267.23 176.45 267.63 178.78 268.96 180.68C270.21 182.46 272.27 183.76 274.76 184.34C275.57 184.53 276.38 184.62 277.16 184.62C281.25 184.62 284.69 182.1 285.63 178.12C286.8 173.16 283.9 168.82 278.6 167.58H278.59ZM278.02 170C279.94 170.45 281.46 171.41 282.39 172.77C283.33 174.13 283.61 175.78 283.19 177.55C282.41 180.9 279.03 182.78 275.32 181.91C271.46 181 269.42 178.03 270.24 174.51C271.04 171.09 274.38 169.15 278.02 170Z" fill="white"/>
<path d="M278.1 197.69L264.24 191.37C263.95 191.24 263.6 191.23 263.29 191.35C262.98 191.47 262.72 191.7 262.59 191.98C262.45 192.29 262.44 192.63 262.55 192.94C262.67 193.25 262.9 193.5 263.2 193.63L273.95 198.54C272.72 198.84 271.33 199.17 269.88 199.53C265.99 200.48 261.58 201.55 258.46 202.23C257.92 202.34 257.66 202.77 257.49 203.13C257.21 203.74 257.49 204.47 258.12 204.75L271.98 211.07C272.15 211.15 272.33 211.18 272.5 211.18C272.97 211.18 273.42 210.91 273.63 210.45C273.91 209.83 273.63 209.08 273.01 208.8L262.28 203.9C264.82 203.31 267.7 202.61 270.36 201.97C273.31 201.25 276.09 200.58 277.75 200.21C278.29 200.11 278.54 199.7 278.72 199.31C278.85 199.03 278.85 198.69 278.74 198.39C278.62 198.07 278.39 197.83 278.09 197.69H278.1Z" fill="white"/>
<path d="M244.38 225.51C243.87 225.05 243.08 225.09 242.62 225.6L238.91 229.69C235.65 233.28 236.05 238.4 239.85 241.86C241.58 243.43 243.72 244.28 245.91 244.28C246.03 244.28 246.15 244.28 246.27 244.28C248.47 244.19 250.57 243.22 252.02 241.62L255.73 237.53C256.2 237.02 256.16 236.24 255.65 235.77L244.38 225.53V225.51ZM241.53 240.01C238.75 237.48 238.43 233.93 240.76 231.37L243.63 228.2L253.06 236.76L250.18 239.93C249.14 241.08 247.69 241.73 246.1 241.77C244.49 241.84 242.83 241.19 241.52 240.01H241.53Z" fill="white"/>
<path d="M227.11 242.9C226.7 242.38 225.89 242.27 225.36 242.68L218.44 248.04C218.18 248.24 218.01 248.54 217.97 248.87C217.93 249.2 218.02 249.54 218.22 249.79C218.42 250.06 218.72 250.22 219.04 250.27C219.38 250.32 219.7 250.22 219.96 250.01L225.9 245.41L229.39 249.92L224.57 253.65C224.31 253.85 224.14 254.14 224.1 254.48C224.06 254.81 224.15 255.15 224.35 255.4C224.56 255.67 224.85 255.84 225.18 255.88C225.5 255.92 225.84 255.83 226.1 255.62L230.92 251.89L233.7 255.48L227.81 260.04C227.55 260.24 227.38 260.53 227.34 260.86C227.3 261.19 227.39 261.53 227.58 261.79C227.79 262.06 228.08 262.23 228.41 262.27C228.46 262.27 228.51 262.28 228.56 262.28C228.84 262.28 229.1 262.19 229.33 262.01L236.28 256.63C236.51 256.45 236.65 256.19 236.69 255.89C236.73 255.55 236.64 255.21 236.43 254.94L227.11 242.91V242.9Z" fill="white"/>
<path d="M197.4 261.55C197.15 260.94 196.4 260.61 195.78 260.86L187.66 264.13C187.36 264.25 187.12 264.48 186.98 264.79C186.85 265.1 186.84 265.45 186.96 265.75C187.08 266.06 187.32 266.31 187.63 266.43C187.93 266.56 188.27 266.56 188.58 266.43L195.55 263.63L197.68 268.92L192.02 271.2C191.39 271.45 191.07 272.19 191.33 272.82C191.59 273.47 192.3 273.78 192.95 273.51L198.6 271.23L200.3 275.44L193.39 278.22C192.76 278.48 192.45 279.22 192.7 279.84C192.83 280.15 193.06 280.4 193.37 280.53C193.52 280.6 193.69 280.63 193.85 280.63C194.01 280.63 194.17 280.6 194.32 280.54L202.48 277.26C203.06 277.02 203.33 276.3 203.08 275.67L197.4 261.55Z" fill="white"/>
<path d="M182.13 281.95C180.27 278.93 174.32 270.91 172.67 268.92C172.29 268.45 171.81 268.23 171.32 268.34C170.86 268.44 170.5 268.78 170.38 269.21C169.58 272.13 167.57 281.18 167.02 284.94C166.88 285.93 166.88 286.23 166.92 286.41C166.99 286.75 167.2 287.05 167.49 287.24C167.69 287.37 167.91 287.44 168.14 287.44C168.22 287.44 168.3 287.44 168.37 287.41C168.91 287.3 169.31 286.88 169.39 286.32C169.82 282.57 171.23 276.1 172.16 272.28C174.56 275.36 178.8 281.14 180.41 283.99C180.65 284.46 181.2 284.71 181.76 284.59C182.55 284.42 182.85 283.7 182.72 283.11C182.69 282.95 182.59 282.71 182.13 281.95Z" fill="white"/>
<path d="M154.36 271.51C154.11 271.28 153.77 271.16 153.48 271.17L144.73 271.48C144.06 271.51 143.51 272.1 143.53 272.77C143.56 273.47 144.12 273.98 144.82 273.97L152.33 273.7L152.53 279.4L146.43 279.62C145.76 279.65 145.21 280.24 145.23 280.91C145.24 281.25 145.38 281.56 145.63 281.78C145.87 282.01 146.2 282.11 146.52 282.11L152.62 281.89L152.78 286.43L145.34 286.7C145.01 286.71 144.7 286.85 144.48 287.1C144.25 287.34 144.13 287.67 144.14 287.99C144.17 288.67 144.71 289.19 145.38 289.19H145.43L154.22 288.88C154.84 288.86 155.35 288.27 155.33 287.59L154.79 272.37C154.78 272.05 154.63 271.74 154.38 271.51H154.36Z" fill="white"/>
<path d="M133.2 270.97C132.86 270.92 132.54 271.01 132.27 271.2C132 271.4 131.83 271.69 131.79 272.02L130.12 283.71C129.48 282.6 128.75 281.34 127.99 280.03C126 276.59 123.73 272.68 122.22 269.91C121.96 269.41 121.44 269.29 121.08 269.24C120.43 269.13 119.8 269.62 119.7 270.3L117.55 285.37C117.46 286.06 117.92 286.68 118.61 286.78C119.27 286.89 119.92 286.39 120.02 285.73L121.68 274.06C122.95 276.31 124.42 278.84 125.78 281.2C127.31 283.85 128.76 286.35 129.58 287.85C129.83 288.34 130.3 288.47 130.72 288.52C130.77 288.52 130.82 288.53 130.88 288.53C131.14 288.53 131.4 288.44 131.61 288.28C131.88 288.08 132.06 287.78 132.1 287.46L134.25 272.39C134.34 271.73 133.85 271.07 133.19 270.98L133.2 270.97Z" fill="white"/>
<path d="M105.75 281.21L100.63 279.47L105.13 266.24C105.23 265.94 105.2 265.6 105.05 265.29C104.9 264.99 104.64 264.75 104.34 264.65C103.67 264.44 102.98 264.77 102.76 265.43L98.26 278.66L93.02 276.88C92.7 276.77 92.36 276.79 92.06 276.95C91.77 277.1 91.54 277.36 91.44 277.66C91.33 277.98 91.35 278.31 91.5 278.61C91.65 278.91 91.9 279.13 92.22 279.24L104.94 283.56C105.07 283.6 105.2 283.62 105.33 283.62C105.85 283.62 106.35 283.29 106.52 282.78C106.62 282.48 106.6 282.13 106.45 281.83C106.3 281.53 106.04 281.3 105.75 281.2V281.21Z" fill="white"/>
<path d="M83.51 255.09C79.05 252.61 74.27 254.14 71.61 258.9C69.07 263.46 70.35 268.68 74.6 271.05C76.01 271.83 77.46 272.23 78.91 272.23C79.72 272.23 80.53 272.1 81.33 271.85C83.52 271.15 85.36 269.53 86.67 267.19C87.87 265.04 88.23 262.63 87.67 260.42C87.11 258.16 85.63 256.27 83.51 255.09ZM84.49 265.98C82.52 269.51 79.03 270.68 75.82 268.88C72.81 267.2 71.94 263.44 73.79 260.12C74.7 258.49 76.01 257.29 77.48 256.76C78.07 256.55 78.68 256.44 79.3 256.44C80.29 256.44 81.31 256.72 82.3 257.27C85.37 258.98 86.31 262.72 84.5 265.98H84.49Z" fill="white"/>
<path d="M64.46 241.99C60.84 238.98 57.87 239.91 56.3 241.8C54.41 244.08 54.73 246.63 57.35 250.08C59.5 252.92 59.19 254.03 58.6 254.74C57.94 255.54 56.41 255.71 54.91 254.46C53.51 253.29 52.89 252.44 52.4 251.52C52.12 250.99 52.04 250.85 51.89 250.72C51.39 250.3 50.56 250.37 50.14 250.88C49.82 251.27 49.77 251.81 50.01 252.27C50.81 253.75 51.47 254.84 53.31 256.37C54.6 257.45 55.94 257.9 57.15 257.9C58.51 257.9 59.69 257.33 60.44 256.44C62.22 254.3 61.9 252.01 59.34 248.53C57.12 245.5 57.53 244.24 58.23 243.41C59.23 242.2 61.06 242.4 62.88 243.92C64.19 245.01 65.15 246.33 65.73 247.87C65.82 248.07 65.94 248.24 66.09 248.36C66.34 248.57 66.66 248.67 66.99 248.64C67.33 248.61 67.64 248.45 67.84 248.2C68.12 247.86 68.2 247.4 68.04 246.95C67.3 245.04 66.09 243.37 64.47 242.02L64.46 241.99Z" fill="white"/>
</svg>
