<svg width="67" height="19" viewBox="0 0 67 19" fill="none" xmlns="http://www.w3.org/2000/svg">
<path d="M54.0499 12.4695H51.9899C51.9099 12.0195 51.8099 11.5395 51.7599 11.0595C51.7299 10.7495 51.6199 10.6295 51.2999 10.6595C50.9199 10.6895 50.5299 10.6595 50.1199 10.6595C50.0099 11.2695 49.9099 11.8595 49.8099 12.4695H43.4199V3.25949H45.2899V10.5995H47.9399V11.7095C47.9399 11.7095 47.9899 11.7095 48.0199 11.7195C48.1899 11.0095 48.3599 10.2995 48.5299 9.58949C48.9999 7.57949 49.4599 5.56949 49.9199 3.54949C49.9799 3.29949 50.0799 3.20949 50.3299 3.21949C50.7599 3.23949 51.1799 3.23949 51.6099 3.21949C51.8299 3.21949 51.9299 3.2895 51.9799 3.4895C52.6699 6.4695 53.3599 9.4495 54.0599 12.4595L54.0499 12.4695ZM51.4199 8.97949C51.2499 7.94949 51.0999 6.9695 50.9399 5.9895C50.9099 5.9895 50.8899 5.98949 50.8599 5.99949C50.6999 6.98949 50.5499 7.96949 50.3899 8.97949H51.4199Z" fill="#323334"/>
<path d="M20.7301 6.76953H22.2701V3.26953H24.1601V12.4695H22.2901V8.63953H20.7701V12.4695H18.8701V3.26953H20.7301V6.77953V6.76953Z" fill="#323334"/>
<path d="M7.61035 3.25976C8.77035 3.25976 9.90036 3.15977 11.0204 3.27977C12.5204 3.44977 12.9304 4.76976 12.7504 5.92976C12.6004 6.89976 12.0004 7.50977 11.0604 7.93977C12.1404 8.27977 12.3204 9.13977 12.4704 10.0298C12.6104 10.8398 12.7804 11.6398 12.9404 12.4698H10.8504C10.7304 11.4998 10.6104 10.5498 10.4804 9.59977C10.3904 8.93977 10.1104 8.66977 9.51038 8.69977V12.4598H7.61035V3.25976ZM9.52036 5.03976V6.99977C9.99036 7.03977 10.4804 7.04976 10.6504 6.58976C10.7804 6.22976 10.8104 5.73977 10.6804 5.37977C10.5004 4.87977 9.97036 5.04976 9.52036 5.03976Z" fill="#323334"/>
<path d="M66.0204 7.8401C66.1004 8.9001 66.0004 9.93011 65.4904 10.8801C65.2804 11.2701 65.0104 11.6501 64.7004 11.9701C63.7804 12.9301 61.6104 12.8401 60.8304 11.3901C60.1004 10.0401 59.9104 8.62011 60.0304 7.13011C60.1104 6.07011 60.3304 5.04011 60.9904 4.16011C62.0404 2.74011 63.9304 2.69011 65.0404 4.07011C65.6804 4.86011 65.9904 5.78011 66.0204 6.80011C66.0204 7.14011 66.0204 7.49011 66.0204 7.83011V7.8401ZM64.2604 7.83011C64.2604 7.83011 64.1704 7.8201 64.1304 7.8101C64.1304 7.4801 64.1904 7.14011 64.1204 6.82011C64.0104 6.32011 63.8704 5.8101 63.6404 5.3601C63.4004 4.9101 62.8904 4.9101 62.5304 5.2901C62.4104 5.4201 62.3004 5.57011 62.2504 5.74011C61.7904 7.15011 61.8004 8.5701 62.2504 9.9701C62.3704 10.3301 62.6004 10.6501 63.0404 10.6501C63.4804 10.6501 63.7204 10.3401 63.8204 9.9701C64.0104 9.2601 64.1304 8.54011 64.2704 7.82011L64.2604 7.83011Z" fill="#323334"/>
<path d="M42.3802 12.4698H37.7402V3.25977H42.3702V5.07977H39.6302V6.76978H42.1902V8.58977H39.6403V10.5898H42.3802V12.4698Z" fill="#323334"/>
<path d="M58.91 5.62962C58.65 5.44962 58.4699 5.30961 58.2699 5.19961C57.4699 4.74961 56.66 5.00961 56.32 5.86961C56.16 6.25961 56.06 6.67962 56.01 7.09962C55.89 8.08962 55.93 9.06961 56.22 10.0396C56.26 10.1696 56.2999 10.3196 56.3999 10.4096C56.5699 10.5696 56.79 10.7996 56.97 10.7796C57.12 10.7696 57.3099 10.4596 57.3599 10.2496C57.4399 9.92962 57.4299 9.57962 57.4599 9.20962C57.2299 9.18962 57.04 9.17962 56.82 9.15962V7.54962H59.1799V12.4496C58.5599 12.6296 58.08 12.5096 57.85 11.8096C57.49 12.2796 57.14 12.5896 56.53 12.5996C55.84 12.5996 55.38 12.2896 55 11.7896C54.4 10.9996 54.1999 10.0496 54.1099 9.08961C53.9599 7.58961 53.98 6.09962 54.7 4.70962C55.49 3.17962 57.1 2.64961 58.56 3.41961C58.81 3.54961 58.92 3.69962 58.91 3.99962C58.88 4.51962 58.91 5.03961 58.91 5.63961V5.62962Z" fill="#323334"/>
<path d="M2.77008 12.4696H0.830078C1.06008 11.4696 1.27008 10.4996 1.49008 9.52964C1.94008 7.58964 2.40008 5.64963 2.83008 3.69963C2.91008 3.31963 3.07008 3.16964 3.46008 3.21964C3.73008 3.24964 4.01009 3.25964 4.28009 3.21964C4.74009 3.15964 4.90009 3.32964 5.00009 3.77964C5.65009 6.66964 6.3301 9.54964 7.0101 12.4596H4.94009C4.86009 11.9596 4.76008 11.4696 4.71008 10.9696C4.68008 10.7296 4.5901 10.6396 4.3501 10.6396C3.9401 10.6496 3.53008 10.6396 3.08008 10.6396C2.98008 11.2396 2.87008 11.8296 2.77008 12.4496V12.4696ZM4.39011 8.97963C4.23011 7.97963 4.0701 7.00963 3.9101 6.03963C3.8801 6.03963 3.8501 6.04963 3.8201 6.05963C3.6701 7.02963 3.5101 7.98964 3.3501 8.98964H4.39011V8.97963Z" fill="#323334"/>
<path d="M30.39 8.83949V12.4595H28.5V3.22949C28.75 3.22949 29 3.22949 29.26 3.22949C30.16 3.24949 31.08 3.18949 31.97 3.30949C33 3.43949 33.67 4.2395 33.74 5.2795C33.77 5.7395 33.74 6.20949 33.69 6.66949C33.56 7.93949 32.52 8.8195 30.98 8.8495C30.8 8.8495 30.62 8.8495 30.39 8.8495V8.83949ZM30.38 5.9895C30.38 6.2495 30.37 6.5095 30.38 6.7695C30.38 6.8495 30.48 6.9895 30.54 6.9895C30.93 7.0095 31.32 6.99949 31.59 6.66949C31.89 6.28949 31.92 5.8695 31.73 5.4395C31.57 5.0695 31.22 5.0295 30.87 4.9895C30.5 4.9395 30.29 5.0395 30.36 5.4695C30.39 5.6395 30.36 5.8295 30.36 5.9995L30.38 5.9895Z" fill="#323334"/>
<path d="M17.8202 10.2695C17.8202 10.8695 17.8301 11.4495 17.8101 12.0195C17.8101 12.1395 17.6901 12.3394 17.5801 12.3694C16.4501 12.7594 15.1801 12.6794 14.4101 11.5094C13.8201 10.6094 13.5501 9.61946 13.4701 8.56946C13.3801 7.36946 13.5001 6.18945 13.9601 5.05945C14.4801 3.78945 15.5201 3.02945 16.6601 3.05945C16.7601 3.05945 16.8502 3.05945 16.9502 3.08945C17.7902 3.24945 17.8301 3.28945 17.8301 4.13945V5.33945C17.4501 5.21945 17.0801 5.00946 16.7201 5.01946C16.1001 5.03946 15.8101 5.54945 15.6501 6.07945C15.3101 7.22945 15.2901 8.40945 15.6301 9.55945C15.8701 10.3595 16.3701 10.7495 16.9701 10.6395C17.2501 10.5795 17.5101 10.4095 17.8401 10.2695H17.8202Z" fill="#323334"/>
<path d="M27.2904 12.4798H25.4404V3.25977H27.2904V12.4798Z" fill="#323334"/>
<path d="M36.4704 12.4798H34.6104V3.25977H36.4704V12.4798Z" fill="#323334"/>
<path d="M55.2402 15.6203C55.8202 15.6203 56.3802 15.6003 56.9402 15.6203C57.4402 15.6403 57.7702 15.9303 57.8402 16.3703C57.9102 16.8203 57.7003 17.1504 57.2303 17.3504C57.2003 17.3704 57.1702 17.4003 57.1602 17.4003C57.4702 17.8503 57.7803 18.2904 58.1003 18.7504C57.4103 18.9104 57.3502 18.8903 56.9902 18.3603C56.8802 18.1903 56.7703 18.0204 56.6403 17.8504C56.4103 17.5304 56.3302 17.5003 55.8702 17.5203V18.8003H55.2402V15.6104V15.6203ZM55.8802 16.9404C56.2002 16.9404 56.4903 16.9804 56.7603 16.9204C56.9003 16.8904 57.0802 16.7004 57.0902 16.5704C57.0902 16.4504 56.9102 16.2303 56.7802 16.2103C56.4902 16.1503 56.1902 16.1904 55.8802 16.1904V16.9303V16.9404Z" fill="#323334"/>
<path d="M47.8496 17.7702C48.0696 17.7502 48.2596 17.7402 48.4496 17.7302C48.6996 18.2702 49.0396 18.4502 49.4696 18.2502C49.5996 18.1902 49.7296 18.0302 49.7496 17.9002C49.7596 17.8102 49.6096 17.6402 49.4896 17.5902C49.2096 17.4802 48.9096 17.4302 48.6296 17.3302C48.1596 17.1702 47.9296 16.8402 47.9496 16.4202C47.9696 15.9902 48.2096 15.7302 48.7296 15.6002C49.2296 15.4802 49.7196 15.5002 50.0996 15.9102C50.2396 16.0602 50.2996 16.2702 50.4196 16.5102C50.0396 16.5802 49.7596 16.7502 49.5596 16.3102C49.4496 16.0602 48.9096 16.0402 48.7096 16.2402C48.4996 16.4402 48.6296 16.6002 48.8296 16.6802C49.0996 16.7802 49.3796 16.8402 49.6496 16.9302C50.2596 17.1202 50.4596 17.4002 50.4296 18.0102C50.4096 18.4502 50.1196 18.7302 49.5696 18.8602C48.5996 19.0802 47.9496 18.6802 47.8496 17.7802V17.7702Z" fill="#323334"/>
<path d="M62.25 17.7803C62.44 17.7603 62.63 17.7403 62.82 17.7303C63.23 18.3103 63.45 18.4303 63.85 18.2603C63.99 18.2003 64.14 18.0403 64.17 17.9003C64.19 17.8103 63.99 17.6403 63.86 17.5803C63.56 17.4503 63.24 17.3903 62.93 17.2803C62.54 17.1403 62.34 16.8503 62.36 16.4203C62.38 15.9903 62.63 15.7503 63.02 15.6303C63.81 15.3703 64.55 15.6703 64.75 16.3303C64.76 16.3803 64.75 16.4403 64.75 16.5103C64.43 16.5703 64.14 16.7403 63.93 16.2803C63.82 16.0303 63.25 16.0403 63.09 16.2603C63.04 16.3303 63.09 16.5803 63.18 16.6203C63.38 16.7303 63.61 16.7803 63.84 16.8403C64.63 17.0603 64.96 17.4403 64.86 18.0403C64.77 18.5803 64.22 18.9303 63.49 18.9003C62.75 18.8703 62.36 18.5203 62.25 17.7703V17.7803Z" fill="#323334"/>
<path d="M51.6703 17.6602V18.8001H50.9902V15.6402C51.5802 15.6402 52.1602 15.6001 52.7402 15.6501C53.2002 15.6901 53.4803 16.1502 53.4503 16.6602C53.4203 17.1702 53.1002 17.5401 52.6302 17.5901C52.3202 17.6301 52.0002 17.6302 51.6602 17.6602H51.6703ZM51.6703 17.1402C52.0603 17.0102 52.3902 16.9202 52.6902 16.7802C52.7302 16.7602 52.7302 16.4701 52.6502 16.3701C52.3802 16.0401 52.0103 16.2002 51.6703 16.2002V17.1402Z" fill="#323334"/>
<path d="M41.2096 0.169922C41.8096 0.169922 42.0196 0.469924 41.7296 0.999924C41.3096 1.76992 40.6696 2.31993 39.8396 2.62993C39.3196 2.81993 39.0196 2.53992 39.1096 1.96992C39.2496 1.07992 40.3096 0.179916 41.2096 0.179916V0.169922Z" fill="#323334"/>
<path d="M61.9897 15.6399V16.1799H61.0797V18.8099H60.3997V16.1899H59.4697V15.6299H61.9997L61.9897 15.6399Z" fill="#323334"/>
<path d="M53.9805 15.6299H54.5804V18.8099H53.9805V15.6299Z" fill="#323334"/>
<path d="M58.4502 15.6396H59.0702V18.8197H58.4502V15.6396Z" fill="#323334"/>
</svg>
