<svg width="67" height="22" viewBox="0 0 67 22" fill="none" xmlns="http://www.w3.org/2000/svg">
<path d="M25.6802 18.0009C25.6402 17.9409 25.5803 17.8909 25.5203 17.8409C25.4503 17.8009 25.3802 17.7709 25.3002 17.7609C25.3902 17.7009 25.4602 17.6309 25.5002 17.5309C25.5502 17.4409 25.5803 17.3408 25.5803 17.2408C25.5803 17.1608 25.5802 17.0809 25.5402 17.0109C25.5102 16.9409 25.4702 16.8709 25.4102 16.8109C25.3502 16.7509 25.2903 16.7108 25.2103 16.6808C25.1403 16.6508 25.0602 16.6409 24.9802 16.6409H24.7502C24.6702 16.6409 24.5903 16.6409 24.5203 16.6409C24.4403 16.6409 24.3602 16.6409 24.2902 16.6409C24.2102 16.6409 24.1302 16.6409 24.0602 16.6309L24.0303 16.6508L24.0602 16.6909C24.1102 16.6909 24.1603 16.7209 24.2003 16.7609C24.2403 16.8009 24.2603 16.8509 24.2603 16.9109C24.2603 16.9509 24.2603 17.0209 24.2603 17.1309C24.2603 17.2409 24.2603 17.3609 24.2603 17.5009C24.2603 17.6409 24.2603 17.7909 24.2603 17.9409C24.2603 18.0909 24.2603 18.2308 24.2603 18.3708C24.2603 18.5008 24.2603 18.6108 24.2603 18.7108C24.2603 18.8108 24.2602 18.8609 24.2402 18.8809C24.2202 18.9209 24.2002 18.9509 24.1702 18.9709C24.1402 18.9909 24.1002 19.0109 24.0602 19.0109L24.0303 19.0309L24.0502 19.0609C24.2402 19.0609 24.4302 19.0409 24.6202 19.0409C24.8102 19.0409 25.0002 19.0409 25.1902 19.0409C25.2302 19.0409 25.2702 19.0409 25.3102 19.0409C25.3502 19.0409 25.3902 19.0209 25.4302 19.0109C25.5102 18.9809 25.5802 18.9308 25.6302 18.8708C25.6902 18.8108 25.7303 18.7508 25.7603 18.6808C25.7903 18.6108 25.8002 18.5308 25.8002 18.4608C25.8002 18.3808 25.8003 18.3108 25.7703 18.2408C25.7503 18.1708 25.7102 18.1009 25.6702 18.0409L25.6802 18.0009ZM24.6602 16.8109C24.6602 16.8109 24.7502 16.8109 24.7902 16.8109C24.8402 16.8109 24.8802 16.8109 24.9202 16.8209C24.9602 16.8209 25.0003 16.8309 25.0203 16.8409C25.1103 16.8809 25.1802 16.9408 25.2202 17.0208C25.2702 17.1008 25.2903 17.1909 25.2803 17.2809C25.2803 17.3709 25.2503 17.4509 25.2003 17.5309C25.1603 17.6109 25.0802 17.6708 25.0002 17.7108C24.9602 17.7308 24.9303 17.7408 24.8903 17.7408C24.8503 17.7408 24.8203 17.7408 24.7803 17.7408C24.7403 17.7408 24.7002 17.7408 24.6602 17.7408C24.6202 17.7408 24.5802 17.7408 24.5502 17.7408C24.5502 17.5808 24.5502 17.4308 24.5502 17.2708C24.5502 17.1208 24.5502 16.9608 24.5502 16.8008C24.5802 16.8008 24.6202 16.8008 24.6602 16.8008V16.8109ZM25.5103 18.5109C25.5003 18.5809 25.4702 18.6409 25.4202 18.7009C25.3802 18.7609 25.3202 18.8008 25.2402 18.8308C25.1802 18.8608 25.1202 18.8708 25.0502 18.8708C24.9802 18.8708 24.9102 18.8708 24.8502 18.8708H24.7902C24.7902 18.8708 24.7303 18.8708 24.7003 18.8708C24.6703 18.8708 24.6502 18.8708 24.6202 18.8708C24.6002 18.8708 24.5803 18.8609 24.5703 18.8509C24.5703 18.8509 24.5702 18.8309 24.5502 18.8209C24.5502 18.8109 24.5502 18.8009 24.5502 18.7909C24.5502 18.7509 24.5502 18.7008 24.5502 18.6508C24.5502 18.6008 24.5502 18.5608 24.5502 18.5208C24.5502 18.4208 24.5502 18.3309 24.5502 18.2309V17.9409H25.0502C25.1302 17.9409 25.2003 17.9609 25.2603 18.0009C25.3203 18.0409 25.3702 18.0809 25.4102 18.1409C25.4502 18.2009 25.4702 18.2608 25.4902 18.3308C25.5002 18.4008 25.5002 18.4709 25.4902 18.5309L25.5103 18.5109Z" fill="#323334"/>
<path d="M28.8903 16.9501C28.7903 16.8401 28.6703 16.7601 28.5303 16.7001C28.3903 16.6401 28.2503 16.6201 28.1003 16.6201C28.0103 16.6201 27.9203 16.6201 27.8303 16.6401C27.7403 16.6401 27.6603 16.6701 27.5703 16.7101C27.4503 16.7601 27.3503 16.8201 27.2503 16.9001C27.1603 16.9801 27.0803 17.0701 27.0103 17.1701C26.9403 17.2701 26.9003 17.3801 26.8703 17.5001C26.8403 17.6201 26.8203 17.7401 26.8203 17.8701C26.8203 18.0301 26.8503 18.1801 26.9003 18.3201C26.9503 18.4601 27.0303 18.5901 27.1503 18.7101C27.2503 18.8201 27.3803 18.9001 27.5103 18.9601C27.6503 19.0201 27.7903 19.0401 27.9403 19.0401C28.0303 19.0401 28.1203 19.0401 28.2003 19.0201C28.2803 19.0201 28.3703 18.9901 28.4603 18.9501C28.5803 18.9001 28.6803 18.8401 28.7703 18.7601C28.8603 18.6801 28.9403 18.5901 29.0003 18.4901C29.0603 18.3901 29.1103 18.2801 29.1503 18.1601C29.1803 18.0401 29.2003 17.9201 29.2003 17.8001C29.2003 17.6401 29.1803 17.4801 29.1303 17.3401C29.0803 17.2001 29.0003 17.0701 28.8803 16.9401L28.8903 16.9501ZM28.9703 18.0901C28.9703 18.1501 28.9503 18.2101 28.9403 18.2701C28.9103 18.3801 28.8603 18.4701 28.7903 18.5501C28.7203 18.6301 28.6403 18.6801 28.5503 18.7201C28.4603 18.7601 28.3603 18.7901 28.2603 18.8001C28.1503 18.8001 28.0503 18.8001 27.9403 18.7901C27.8303 18.7701 27.7303 18.7401 27.6303 18.6901C27.5303 18.6401 27.4503 18.5801 27.3703 18.5001C27.2703 18.4001 27.2003 18.2801 27.1503 18.1601C27.1003 18.0301 27.0803 17.9001 27.0803 17.7601C27.0803 17.6201 27.1003 17.5001 27.1403 17.3901C27.1803 17.2801 27.2303 17.1801 27.3103 17.1101C27.3803 17.0301 27.4703 16.9701 27.5803 16.9301C27.6903 16.8901 27.8103 16.8701 27.9603 16.8701C28.1003 16.8701 28.2403 16.8901 28.3603 16.9401C28.4803 16.9901 28.6003 17.0701 28.7003 17.1701C28.8003 17.2801 28.8803 17.3901 28.9203 17.5201C28.9703 17.6501 28.9903 17.7801 28.9903 17.9301C28.9903 17.9901 28.9903 18.0501 28.9903 18.1101L28.9703 18.0901Z" fill="#323334"/>
<path d="M31.8207 16.6406L31.7907 16.6606V16.6906H31.8207C31.8807 16.6906 31.9307 16.7006 31.9607 16.7506C32.0007 16.7906 32.0107 16.8406 32.0107 16.8906C32.0107 17.0906 32.0107 17.2906 32.0007 17.4906C32.0007 17.7006 32.0007 17.9006 32.0007 18.0906C32.0007 18.1906 31.9807 18.2906 31.9507 18.3706C31.9207 18.4606 31.8707 18.5406 31.8107 18.6006C31.7507 18.6706 31.6808 18.7206 31.5908 18.7606C31.5008 18.8006 31.4107 18.8206 31.3107 18.8206C31.2107 18.8206 31.1208 18.8006 31.0308 18.7706C30.9408 18.7406 30.8607 18.6806 30.8007 18.6106C30.7307 18.5406 30.6807 18.4606 30.6407 18.3706C30.6107 18.2806 30.5908 18.1906 30.5908 18.0906C30.5908 17.9906 30.5908 17.8906 30.5908 17.7806C30.5908 17.6706 30.5908 17.5706 30.5908 17.4706C30.5908 17.4506 30.5908 17.4306 30.5908 17.3906C30.5908 17.3506 30.5908 17.3106 30.5908 17.2606C30.5908 17.2106 30.5908 17.1706 30.5908 17.1206V16.9806C30.5908 16.9806 30.5908 16.9006 30.5908 16.8706C30.5908 16.8406 30.5908 16.8206 30.5908 16.8106C30.6008 16.7706 30.6207 16.7406 30.6607 16.7206C30.6907 16.7006 30.7307 16.6906 30.7707 16.6906L30.8007 16.6706L30.7808 16.6406H30.7707C30.6507 16.6406 30.5307 16.6306 30.4207 16.6206C30.3007 16.6206 30.1807 16.6206 30.0707 16.6106C30.0507 16.6106 30.0507 16.6106 30.0407 16.6206C30.0307 16.6406 30.0307 16.6506 30.0407 16.6506C30.0507 16.6506 30.0607 16.6506 30.0707 16.6606C30.1307 16.6606 30.1807 16.6906 30.2107 16.7306C30.2507 16.7706 30.2708 16.8206 30.2808 16.8806C30.2908 17.0806 30.3007 17.2806 30.3007 17.4906C30.3007 17.7006 30.3007 17.9006 30.3007 18.0906C30.3007 18.2106 30.3207 18.3406 30.3607 18.4606C30.3807 18.5206 30.4107 18.5706 30.4407 18.6306C30.4707 18.6806 30.5107 18.7306 30.5607 18.7806C30.6507 18.8806 30.7607 18.9506 30.8707 18.9906C30.9907 19.0306 31.1107 19.0506 31.2407 19.0506C31.3707 19.0506 31.5007 19.0306 31.6107 18.9906C31.7207 18.9406 31.8307 18.8806 31.9207 18.7806C31.9607 18.7306 32.0107 18.6806 32.0407 18.6306C32.0807 18.5806 32.1007 18.5206 32.1307 18.4606C32.1707 18.3406 32.2007 18.2206 32.1907 18.1006C32.1907 17.9006 32.1907 17.7006 32.1907 17.4906C32.1907 17.2806 32.1907 17.0806 32.2207 16.8806C32.2207 16.8206 32.2507 16.7706 32.2907 16.7306C32.3307 16.6906 32.3807 16.6606 32.4407 16.6606V16.6306C32.4407 16.6306 32.4407 16.6106 32.4407 16.6006C32.3407 16.6006 32.2407 16.6006 32.1407 16.6006C32.0407 16.6006 31.9408 16.6006 31.8408 16.6106L31.8207 16.6406Z" fill="#323334"/>
<path d="M35.3106 16.6604C35.3106 16.6604 35.2806 16.6604 35.2306 16.6604C35.1806 16.6604 35.1206 16.6604 35.0606 16.6604C35.0006 16.6604 34.9206 16.6604 34.8406 16.6604C34.7606 16.6604 34.6806 16.6604 34.6106 16.6604C34.5406 16.6604 34.4706 16.6604 34.4106 16.6604C34.3506 16.6604 34.3106 16.6604 34.2906 16.6604H33.8406C33.7006 16.6604 33.5506 16.6604 33.4006 16.6504C33.4006 16.6504 33.3906 16.6504 33.3806 16.6504C33.3806 16.6504 33.3706 16.6604 33.3606 16.6704C33.3606 16.7304 33.3606 16.7804 33.3606 16.8404C33.3606 16.9004 33.3606 16.9504 33.3506 17.0104C33.3506 17.0104 33.3506 17.0204 33.3606 17.0304C33.3606 17.0304 33.3806 17.0304 33.3806 17.0404L33.4106 17.0204C33.4106 17.0204 33.4306 16.9804 33.4306 16.9604C33.4306 16.9404 33.4406 16.9104 33.4506 16.8904C33.4506 16.8904 33.4706 16.8604 33.4806 16.8504C33.4906 16.8504 33.5006 16.8404 33.5106 16.8404C33.5106 16.8404 33.5206 16.8404 33.5306 16.8404C33.6306 16.8504 33.7406 16.8504 33.8306 16.8404C33.9306 16.8404 34.0306 16.8404 34.1406 16.8404C34.1406 17.1704 34.1406 17.4904 34.1506 17.8204C34.1506 18.1404 34.1506 18.4704 34.1406 18.8004C34.1406 18.8304 34.1406 18.8504 34.1206 18.8804C34.1106 18.9004 34.0906 18.9304 34.0806 18.9504C34.0606 18.9704 34.0406 18.9804 34.0106 18.9904C33.9906 19.0004 33.9606 19.0104 33.9306 19.0004H33.9106V19.0404H33.9406C34.0606 19.0504 34.1806 19.0504 34.2906 19.0504H34.6606L34.6706 19.0104H34.6406C34.5806 19.0004 34.5306 18.9804 34.5006 18.9304C34.4606 18.8904 34.4406 18.8404 34.4406 18.7904C34.4406 18.4604 34.4406 18.1404 34.4406 17.8104C34.4406 17.4904 34.4406 17.1604 34.4406 16.8304C34.4906 16.8304 34.5506 16.8304 34.6306 16.8304C34.7106 16.8304 34.7906 16.8304 34.8806 16.8304C34.9706 16.8304 35.0506 16.8304 35.1206 16.8304C35.2006 16.8304 35.2506 16.8304 35.2906 16.8504C35.3506 16.8704 35.3906 16.9004 35.4306 16.9504H35.4506L35.4806 16.9404V16.9104C35.4806 16.9104 35.4206 16.8304 35.3806 16.7904C35.3506 16.7504 35.3106 16.7104 35.2806 16.6604H35.3106Z" fill="#323334"/>
<path d="M37.1203 16.7706C37.1203 16.7706 37.2003 16.7006 37.2503 16.6906L37.2803 16.6706L37.2603 16.6406C37.1503 16.6506 37.0403 16.6606 36.9303 16.6606C36.8203 16.6606 36.7103 16.6606 36.6003 16.6406H36.5703L36.6003 16.7006C36.6603 16.7006 36.7003 16.7306 36.7403 16.7806C36.7703 16.8206 36.7903 16.8706 36.8003 16.9206C36.8003 17.0806 36.8003 17.2406 36.8003 17.3906C36.8003 17.5506 36.8003 17.7006 36.8003 17.8606C36.8003 18.0106 36.8003 18.1606 36.8003 18.3106C36.8003 18.4606 36.8003 18.6106 36.8003 18.7606C36.8003 18.8106 36.7803 18.8606 36.7403 18.9006C36.7103 18.9406 36.6603 18.9706 36.6103 18.9806L36.5803 19.0006L36.6003 19.0306C36.8203 19.0006 37.0403 19.0006 37.2603 19.0306H37.2903L37.2603 18.9806C37.2103 18.9806 37.1603 18.9506 37.1203 18.9006C37.0803 18.8606 37.0603 18.8106 37.0603 18.7606V16.9106C37.0603 16.8506 37.0803 16.8106 37.1203 16.7706Z" fill="#323334"/>
<path d="M42.5102 19.4004C42.4102 19.4104 42.3002 19.4304 42.2002 19.4404C42.1002 19.4604 42.0002 19.4604 41.8902 19.4604C41.8202 19.4604 41.7302 19.4504 41.6202 19.4304C41.5102 19.4104 41.4002 19.3804 41.2902 19.3504C41.1802 19.3204 41.0703 19.2904 40.9603 19.2504C40.8503 19.2204 40.7602 19.1904 40.6802 19.1704C40.5402 19.1304 40.4002 19.0904 40.2602 19.0504C40.1202 19.0104 39.9802 18.9704 39.8302 18.9304C39.9602 18.8804 40.0702 18.8004 40.1602 18.7104C40.2502 18.6204 40.3302 18.5204 40.3902 18.4004C40.4502 18.2904 40.4902 18.1704 40.5202 18.0404C40.5402 17.9104 40.5502 17.7804 40.5402 17.6604C40.5302 17.5304 40.4902 17.4104 40.4402 17.2904C40.3902 17.1704 40.3103 17.0604 40.2103 16.9604C39.9803 16.7304 39.6902 16.6104 39.3602 16.6104C39.2702 16.6104 39.1802 16.6104 39.1002 16.6304C39.0202 16.6404 38.9402 16.6604 38.8502 16.7004C38.7502 16.7404 38.6702 16.7904 38.5802 16.8504C38.5002 16.9104 38.4302 16.9804 38.3702 17.0604C38.3102 17.1404 38.2602 17.2304 38.2202 17.3204C38.1802 17.4104 38.1502 17.5104 38.1302 17.6104C38.1102 17.7204 38.1102 17.8304 38.1302 17.9504C38.1302 18.0704 38.1602 18.1804 38.2002 18.2804C38.2602 18.4704 38.3602 18.6304 38.4902 18.7504C38.6202 18.8804 38.7902 18.9604 38.9802 19.0104L40.2302 19.2904C40.4402 19.3304 40.6502 19.3804 40.8502 19.4304C41.0602 19.4804 41.2602 19.5304 41.4702 19.5804C41.5502 19.6004 41.6402 19.6104 41.7302 19.6104C41.8202 19.6104 41.9102 19.6004 42.0002 19.5904C42.0902 19.5704 42.1802 19.5504 42.2702 19.5304C42.3602 19.5104 42.4402 19.4804 42.5202 19.4604C42.5202 19.4604 42.5202 19.4504 42.5202 19.4404V19.4204H42.5102C42.5102 19.4204 42.4902 19.4004 42.4702 19.4004H42.5102ZM39.3802 18.8104C39.2502 18.8104 39.1302 18.7704 39.0102 18.7204C38.8902 18.6704 38.7902 18.5904 38.7002 18.5004C38.6102 18.4104 38.5402 18.3004 38.4902 18.1804C38.4402 18.0604 38.4103 17.9404 38.4003 17.8204C38.3903 17.7004 38.4002 17.5704 38.4302 17.4604C38.4602 17.3404 38.5102 17.2404 38.5802 17.1404C38.6502 17.0504 38.7402 16.9704 38.8502 16.9204C38.9602 16.8604 39.1002 16.8404 39.2502 16.8404C39.5502 16.8404 39.8002 16.9504 40.0202 17.1604C40.1202 17.2604 40.2002 17.3804 40.2602 17.5104C40.3102 17.6404 40.3402 17.7704 40.3302 17.9204C40.3302 18.0504 40.3102 18.1604 40.2702 18.2704C40.2402 18.3804 40.1702 18.4804 40.0802 18.5704C39.9902 18.6604 39.8802 18.7304 39.7602 18.7704C39.6402 18.8104 39.5102 18.8304 39.3802 18.8204V18.8104Z" fill="#323334"/>
<path d="M43.1705 16.6404L43.1406 16.6604V16.6904H43.1605C43.2205 16.6904 43.2605 16.7004 43.3005 16.7504C43.3405 16.7904 43.3505 16.8404 43.3505 16.8904C43.3505 17.0904 43.3506 17.2904 43.3406 17.4904C43.3406 17.7004 43.3406 17.9004 43.3406 18.0904C43.3406 18.1904 43.3205 18.2904 43.2905 18.3704C43.2605 18.4604 43.2106 18.5404 43.1506 18.6004C43.0906 18.6704 43.0205 18.7204 42.9305 18.7604C42.8405 18.8004 42.7506 18.8204 42.6506 18.8204C42.5506 18.8204 42.4605 18.8004 42.3705 18.7704C42.2805 18.7404 42.2005 18.6804 42.1305 18.6104C42.0605 18.5404 42.0105 18.4604 41.9705 18.3704C41.9405 18.2804 41.9205 18.1904 41.9305 18.0904C41.9305 17.9904 41.9305 17.8904 41.9305 17.7804C41.9305 17.6704 41.9305 17.5704 41.9305 17.4704C41.9305 17.4504 41.9305 17.4304 41.9305 17.3904C41.9305 17.3504 41.9305 17.3104 41.9305 17.2604V16.8604C41.9305 16.8604 41.9305 16.8104 41.9305 16.8004C41.9405 16.7604 41.9605 16.7304 42.0005 16.7104C42.0305 16.6904 42.0705 16.6804 42.1105 16.6804L42.1406 16.6604V16.6304H42.1105C41.9905 16.6304 41.8706 16.6304 41.7606 16.6304C41.6406 16.6304 41.5305 16.6304 41.4105 16.6204C41.4005 16.6204 41.3805 16.6204 41.3805 16.6304C41.3705 16.6504 41.3705 16.6604 41.3805 16.6604C41.3905 16.6604 41.4005 16.6604 41.4105 16.6704C41.4705 16.6704 41.5205 16.7004 41.5605 16.7404C41.6005 16.7804 41.6205 16.8304 41.6305 16.8904C41.6405 17.0904 41.6506 17.2904 41.6506 17.5004C41.6506 17.7104 41.6506 17.9104 41.6506 18.1004C41.6506 18.2204 41.6706 18.3504 41.7106 18.4704C41.7306 18.5304 41.7605 18.5804 41.8005 18.6404C41.8305 18.6904 41.8705 18.7404 41.9205 18.7904C42.0105 18.8904 42.1105 18.9604 42.2305 19.0004C42.3505 19.0404 42.4705 19.0604 42.6005 19.0604C42.7305 19.0604 42.8605 19.0404 42.9705 19.0004C43.0805 18.9504 43.1806 18.8904 43.2806 18.7904C43.3206 18.7404 43.3706 18.6904 43.4006 18.6404C43.4406 18.5904 43.4605 18.5304 43.4905 18.4704C43.5305 18.3504 43.5505 18.2304 43.5505 18.1104C43.5505 17.9104 43.5505 17.7104 43.5505 17.5004C43.5505 17.2904 43.5506 17.0904 43.5806 16.8904C43.5806 16.8304 43.6106 16.7804 43.6506 16.7404C43.6906 16.7004 43.7405 16.6704 43.8005 16.6704V16.6404C43.8005 16.6404 43.8005 16.6204 43.8005 16.6104C43.7005 16.6104 43.6005 16.6104 43.5005 16.6104C43.4005 16.6104 43.3006 16.6104 43.2006 16.6204L43.1705 16.6404Z" fill="#323334"/>
<path d="M46.4898 18.6404H46.4698C46.4498 18.7204 46.4098 18.7704 46.3598 18.8104C46.2998 18.8404 46.2398 18.8604 46.1798 18.8604C46.0498 18.8604 45.9098 18.8604 45.7798 18.8604C45.6498 18.8604 45.5198 18.8604 45.3798 18.8604C45.3798 18.7004 45.3798 18.5304 45.3798 18.3804C45.3798 18.2204 45.3798 18.0604 45.3798 17.9004H45.7998C45.7998 17.9004 45.8898 17.9104 45.9198 17.9404C45.9498 17.9704 45.9698 18.0104 45.9798 18.0504C45.9798 18.0504 45.9998 18.0704 46.0198 18.0704C46.0398 18.0704 46.0498 18.0704 46.0498 18.0504V17.5904L46.0298 17.5604H45.9998L45.9798 17.5804C45.9698 17.6204 45.9498 17.6604 45.9098 17.6804C45.8798 17.7104 45.8398 17.7304 45.7998 17.7304H45.3798C45.3798 17.5804 45.3798 17.4304 45.3798 17.2704C45.3798 17.1204 45.3798 16.9704 45.3798 16.8104C45.4398 16.8104 45.5098 16.8104 45.5698 16.8104H45.7598C45.8298 16.8104 45.8898 16.8104 45.9598 16.8104C46.0198 16.8104 46.0898 16.8104 46.1498 16.8104C46.1698 16.8104 46.1798 16.8104 46.1898 16.8304C46.1898 16.8404 46.1998 16.8604 46.2098 16.8804C46.2098 16.9004 46.2098 16.9204 46.2198 16.9404C46.2198 16.9604 46.2198 16.9704 46.2298 16.9804C46.2298 17.0004 46.2498 17.0004 46.2698 17.0004C46.2898 17.0004 46.2998 16.9904 46.2998 16.9704V16.9004C46.2998 16.9004 46.2998 16.8404 46.2998 16.8104C46.2998 16.7804 46.2998 16.7504 46.2998 16.7204C46.2998 16.6904 46.2998 16.6604 46.2998 16.6504C46.2998 16.6504 46.2998 16.6504 46.2898 16.6304C46.2898 16.6304 46.2798 16.6304 46.2698 16.6304C46.1498 16.6304 46.0398 16.6304 45.9198 16.6304C45.7998 16.6304 45.6898 16.6304 45.5698 16.6304C45.4498 16.6304 45.3398 16.6304 45.2198 16.6304C45.0998 16.6304 44.9898 16.6204 44.8698 16.6104C44.8498 16.6104 44.8398 16.6204 44.8398 16.6304V16.6504C44.8498 16.6504 44.8598 16.6504 44.8698 16.6604C44.9298 16.6604 44.9698 16.6904 45.0098 16.7304C45.0498 16.7704 45.0698 16.8204 45.0698 16.8804C45.0698 17.1904 45.0798 17.5104 45.0798 17.8204C45.0798 18.1304 45.0798 18.4504 45.0698 18.7604C45.0698 18.8204 45.0498 18.8704 45.0098 18.9104C44.9698 18.9504 44.9198 18.9804 44.8698 18.9804L44.8398 19.0004V19.0304H44.8598C45.1198 19.0204 45.3798 19.0104 45.6298 19.0104C45.8798 19.0104 46.1398 19.0104 46.3998 19.0304C46.3998 19.0304 46.4098 19.0304 46.4198 19.0304C46.4198 19.0304 46.4298 19.0304 46.4398 19.0204C46.4398 19.0204 46.4398 18.9904 46.4598 18.9604C46.4598 18.9304 46.4798 18.8904 46.4798 18.8504C46.4798 18.8104 46.4998 18.7804 46.5098 18.7404C46.5098 18.7004 46.5198 18.6804 46.5198 18.6704V18.6404H46.4798H46.4898Z" fill="#323334"/>
<path d="M51.2203 17.1309C51.1503 17.0309 51.0703 16.9509 50.9703 16.8809C50.8703 16.8109 50.7503 16.7509 50.6203 16.7209C50.5403 16.7009 50.4503 16.6809 50.3703 16.6709C50.2903 16.6609 50.2003 16.6608 50.1203 16.6508C50.0403 16.6508 49.9503 16.6508 49.8703 16.6508C49.7903 16.6508 49.7003 16.6508 49.6203 16.6508C49.4503 16.6508 49.2703 16.6509 49.1003 16.6309H49.0703C49.0703 16.6309 49.0703 16.6609 49.0803 16.6709C49.0803 16.6709 49.0803 16.6809 49.1003 16.6909C49.1603 16.6909 49.2103 16.7209 49.2503 16.7609C49.2903 16.8009 49.3103 16.8509 49.3103 16.9109C49.3303 17.2209 49.3403 17.5309 49.3403 17.8509C49.3403 18.1709 49.3403 18.4908 49.3103 18.8008C49.3103 18.8608 49.2803 18.9009 49.2503 18.9509C49.2103 18.9909 49.1603 19.0208 49.1003 19.0208H49.0703L49.0803 19.0709H49.0903C49.2603 19.0709 49.4403 19.0709 49.6103 19.0709H49.8603C49.9403 19.0709 50.0303 19.0709 50.1103 19.0709C50.2003 19.0709 50.2803 19.0708 50.3603 19.0508C50.4403 19.0408 50.5303 19.0209 50.6103 19.0009C50.7403 18.9609 50.8503 18.9109 50.9503 18.8409C51.0503 18.7709 51.1403 18.6808 51.2003 18.5808C51.2703 18.4808 51.3203 18.3709 51.3503 18.2509C51.3803 18.1309 51.4003 18.0108 51.4003 17.8708C51.4003 17.7308 51.3803 17.6108 51.3503 17.4908C51.3203 17.3708 51.2603 17.2609 51.2003 17.1609L51.2203 17.1309ZM51.1203 17.9709C51.1103 18.0809 51.0803 18.1809 51.0303 18.2909C50.9803 18.3909 50.9203 18.4909 50.8403 18.5709C50.7603 18.6509 50.6803 18.7109 50.6003 18.7609C50.5203 18.8009 50.4403 18.8309 50.3603 18.8409C50.2803 18.8609 50.1903 18.8708 50.1003 18.8708H49.8103C49.7503 18.8708 49.7003 18.8509 49.6703 18.8109C49.6303 18.7709 49.6203 18.7209 49.6203 18.6709C49.6203 18.5109 49.6203 18.3608 49.6203 18.2108C49.6203 18.0608 49.6203 17.9009 49.6203 17.7509C49.6203 17.6009 49.6203 17.4409 49.6203 17.2909C49.6203 17.1409 49.6203 16.9808 49.6103 16.8308C49.6803 16.8308 49.7603 16.8308 49.8403 16.8308C49.9203 16.8308 50.0003 16.8308 50.0803 16.8308C50.1603 16.8308 50.2403 16.8309 50.3203 16.8509C50.3903 16.8509 50.4703 16.8809 50.5403 16.9109C50.6503 16.9509 50.7503 17.0209 50.8303 17.0909C50.9103 17.1709 50.9803 17.2609 51.0303 17.3509C51.0803 17.4509 51.1203 17.5509 51.1303 17.6609C51.1503 17.7709 51.1503 17.8808 51.1303 17.9908L51.1203 17.9709Z" fill="#323334"/>
<path d="M53.9008 18.6404H53.8807C53.8607 18.7204 53.8208 18.7704 53.7708 18.8104C53.7108 18.8404 53.6508 18.8604 53.5908 18.8604C53.4608 18.8604 53.3207 18.8604 53.1907 18.8604C53.0607 18.8604 52.9307 18.8604 52.7907 18.8604C52.7907 18.7004 52.7907 18.5304 52.7907 18.3804C52.7907 18.2204 52.7907 18.0604 52.7907 17.9004H53.2108C53.2108 17.9004 53.3007 17.9104 53.3307 17.9404C53.3607 17.9704 53.3807 18.0104 53.3907 18.0504C53.3907 18.0504 53.4107 18.0704 53.4307 18.0704C53.4507 18.0704 53.4608 18.0704 53.4608 18.0504V17.5904L53.4407 17.5604H53.4107L53.3907 17.5804C53.3807 17.6204 53.3507 17.6604 53.3207 17.6804C53.2807 17.7104 53.2507 17.7304 53.2007 17.7304H52.7808C52.7808 17.5804 52.7808 17.4304 52.7808 17.2704C52.7808 17.1204 52.7808 16.9704 52.7808 16.8104C52.8508 16.8104 52.9107 16.8104 52.9707 16.8104H53.1607C53.2207 16.8104 53.2907 16.8104 53.3507 16.8104C53.4107 16.8104 53.4807 16.8104 53.5407 16.8104C53.5607 16.8104 53.5707 16.8104 53.5807 16.8304C53.5807 16.8404 53.6007 16.8604 53.6007 16.8804C53.6007 16.9004 53.6007 16.9204 53.6107 16.9404C53.6107 16.9604 53.6107 16.9704 53.6207 16.9804C53.6207 17.0004 53.6408 17.0004 53.6508 17.0004C53.6708 17.0004 53.6807 16.9904 53.6807 16.9704C53.6807 16.9504 53.6807 16.9304 53.6807 16.9004C53.6807 16.8704 53.6807 16.8404 53.6807 16.8104V16.7204C53.6807 16.7204 53.6807 16.6604 53.6807 16.6504C53.6807 16.6504 53.6807 16.6504 53.6707 16.6304C53.6707 16.6304 53.6608 16.6304 53.6508 16.6304C53.5408 16.6304 53.4207 16.6304 53.3007 16.6304C53.1907 16.6304 53.0707 16.6304 52.9507 16.6304C52.8307 16.6304 52.7207 16.6304 52.6007 16.6304C52.4807 16.6304 52.3707 16.6204 52.2507 16.6104C52.2307 16.6104 52.2207 16.6204 52.2207 16.6304V16.6504C52.2207 16.6504 52.2407 16.6504 52.2507 16.6604C52.3107 16.6604 52.3607 16.6904 52.3907 16.7304C52.4307 16.7704 52.4507 16.8204 52.4507 16.8804C52.4507 17.1904 52.4607 17.5104 52.4707 17.8204C52.4707 18.1304 52.4707 18.4504 52.4507 18.7604C52.4507 18.8204 52.4307 18.8704 52.3907 18.9104C52.3507 18.9504 52.3007 18.9804 52.2507 18.9804L52.2207 19.0004V19.0304H52.2507C52.5107 19.0204 52.7708 19.0104 53.0208 19.0104C53.2708 19.0104 53.5307 19.0104 53.7907 19.0304C53.7907 19.0304 53.7907 19.0304 53.8107 19.0304C53.8107 19.0304 53.8207 19.0304 53.8307 19.0204C53.8307 19.0204 53.8307 18.9904 53.8507 18.9604C53.8507 18.9304 53.8707 18.8904 53.8707 18.8504C53.8807 18.8104 53.8908 18.7804 53.9008 18.7404C53.9008 18.7004 53.9107 18.6804 53.9107 18.6704V18.6404H53.8607H53.9008Z" fill="#323334"/>
<path d="M56.7299 16.6404L56.7 16.6604V16.6904H56.7299C56.7699 16.6904 56.81 16.6904 56.84 16.7204C56.88 16.7404 56.8999 16.7804 56.9099 16.8204C56.9099 16.8404 56.9099 16.8704 56.9099 16.9004C56.9099 17.1704 56.91 17.4304 56.9 17.6904C56.9 17.9504 56.9 18.2104 56.9 18.4804L56.0599 17.5504C55.9699 17.4504 55.87 17.3304 55.78 17.2204C55.69 17.1004 55.5899 17.0004 55.4899 16.8904C55.4499 16.8404 55.3999 16.7904 55.3499 16.7404C55.2999 16.6904 55.26 16.6404 55.21 16.5904C55.21 16.5904 55.1899 16.5804 55.1799 16.5904C55.1699 16.5904 55.1599 16.6004 55.1599 16.6104C55.1599 16.6704 55.1599 16.7204 55.1599 16.7804C55.1599 16.8404 55.1599 16.9004 55.1699 16.9604C55.1699 17.0804 55.1699 17.2104 55.1799 17.3404C55.1799 17.4704 55.1799 17.6004 55.1799 17.7204C55.1799 17.9004 55.1799 18.0804 55.1799 18.2604C55.1799 18.4304 55.1799 18.6104 55.1599 18.7904C55.1599 18.8504 55.1399 18.9004 55.0999 18.9404C55.0599 18.9804 55.01 19.0004 54.95 19.0104H54.9199L54.9299 19.0604H54.9399C55.0399 19.0604 55.1399 19.0604 55.2299 19.0604C55.3299 19.0604 55.42 19.0604 55.52 19.0604L55.5499 19.0404V19.0104C55.5499 19.0104 55.5199 19.0104 55.4999 19.0004C55.4899 19.0004 55.47 19.0004 55.46 19.0004C55.45 19.0004 55.4399 19.0004 55.4199 18.9804C55.4099 18.9804 55.3899 18.9604 55.3799 18.9404C55.3499 18.9004 55.33 18.8604 55.33 18.8004C55.33 18.6704 55.33 18.5404 55.33 18.4004C55.33 18.2704 55.33 18.1404 55.33 18.0104C55.33 17.8804 55.33 17.7404 55.33 17.6004C55.33 17.4604 55.33 17.3204 55.33 17.1904C55.47 17.3504 55.6099 17.5104 55.7499 17.6704C55.8899 17.8404 56.0299 18.0004 56.1699 18.1604C56.2699 18.2704 56.36 18.3704 56.45 18.4804C56.54 18.5804 56.6399 18.6904 56.7399 18.7904C56.7899 18.8404 56.8299 18.8904 56.8799 18.9404C56.9299 18.9904 56.97 19.0404 57.02 19.0904C57.02 19.0904 57.0399 19.1004 57.0599 19.0904C57.0799 19.0904 57.08 19.0804 57.08 19.0604C57.08 19.0004 57.08 18.9404 57.08 18.8904C57.08 18.8304 57.08 18.7804 57.08 18.7204C57.07 18.4804 57.0599 18.2304 57.0599 17.9904C57.0599 17.8104 57.0599 17.6304 57.0599 17.4504C57.0599 17.2704 57.06 17.0904 57.08 16.9104C57.08 16.8504 57.1 16.8004 57.14 16.7604C57.16 16.7404 57.18 16.7204 57.21 16.7104C57.23 16.7004 57.2599 16.6904 57.2899 16.6904C57.2899 16.6804 57.2899 16.6704 57.2899 16.6704C57.2899 16.6704 57.2899 16.6504 57.2899 16.6404C57.1899 16.6404 57.0899 16.6404 56.9999 16.6404C56.8999 16.6404 56.8 16.6404 56.7 16.6504L56.7299 16.6404Z" fill="#323334"/>
<path d="M60.2197 16.6604C60.2197 16.6604 60.1798 16.6604 60.1398 16.6604C60.0998 16.6604 60.0397 16.6604 59.9697 16.6604C59.8997 16.6604 59.8297 16.6604 59.7397 16.6604C59.6597 16.6604 59.5798 16.6604 59.5098 16.6604C59.4398 16.6604 59.3698 16.6604 59.3198 16.6604C59.2598 16.6604 59.2198 16.6604 59.1998 16.6604H58.7498C58.6098 16.6604 58.4598 16.6604 58.3098 16.6504C58.3098 16.6504 58.2997 16.6504 58.2897 16.6504C58.2897 16.6504 58.2798 16.6604 58.2798 16.6704C58.2798 16.7304 58.2798 16.7804 58.2698 16.8404C58.2698 16.9004 58.2698 16.9504 58.2598 17.0104C58.2598 17.0104 58.2598 17.0204 58.2798 17.0304C58.2798 17.0304 58.2997 17.0304 58.2997 17.0404L58.3298 17.0204C58.3298 17.0204 58.3497 16.9804 58.3497 16.9604C58.3497 16.9404 58.3598 16.9104 58.3698 16.8904C58.3698 16.8904 58.3898 16.8604 58.3998 16.8504C58.4098 16.8504 58.4197 16.8404 58.4297 16.8404C58.4297 16.8404 58.4398 16.8404 58.4498 16.8404C58.5598 16.8504 58.6598 16.8504 58.7598 16.8404C58.8598 16.8404 58.9598 16.8404 59.0598 16.8404C59.0598 17.1704 59.0598 17.4904 59.0598 17.8204C59.0598 18.1404 59.0598 18.4704 59.0598 18.8004C59.0598 18.8304 59.0597 18.8504 59.0397 18.8804C59.0297 18.9004 59.0097 18.9304 58.9897 18.9504C58.9697 18.9704 58.9497 18.9804 58.9297 18.9904C58.9097 19.0004 58.8797 19.0104 58.8497 19.0004H58.8298V19.0404H58.8597C58.9797 19.0504 59.0998 19.0504 59.2098 19.0504H59.5698L59.5898 19.0104H59.5598C59.4998 19.0004 59.4497 18.9804 59.4197 18.9304C59.3797 18.8904 59.3697 18.8404 59.3597 18.7904C59.3597 18.4604 59.3597 18.1404 59.3597 17.8104C59.3597 17.4904 59.3597 17.1604 59.3597 16.8304C59.4097 16.8304 59.4697 16.8304 59.5497 16.8304C59.6297 16.8304 59.7197 16.8304 59.7997 16.8304C59.8897 16.8304 59.9697 16.8304 60.0397 16.8304C60.1197 16.8304 60.1698 16.8304 60.2098 16.8504C60.2698 16.8704 60.3097 16.9004 60.3597 16.9504H60.3798L60.4097 16.9404V16.9104C60.4097 16.9104 60.3498 16.8304 60.3098 16.7904C60.2798 16.7504 60.2398 16.7104 60.2098 16.6604H60.2197Z" fill="#323334"/>
<path d="M63.0706 18.9204C63.0206 18.8704 62.9706 18.8204 62.9506 18.7604C62.8006 18.4104 62.6606 18.0504 62.5306 17.7004C62.4006 17.3404 62.2606 16.9904 62.1206 16.6304C62.1206 16.6304 62.1006 16.6204 62.0906 16.6104C62.0806 16.6104 62.0706 16.6104 62.0606 16.6304C62.0306 16.6804 62.0106 16.7404 61.9906 16.8004C61.9706 16.8604 61.9506 16.9204 61.9306 16.9804L61.6506 17.7004C61.5806 17.8804 61.5106 18.0604 61.4406 18.2304C61.3706 18.4104 61.3006 18.5904 61.2206 18.7704C61.1906 18.8304 61.1506 18.8804 61.1006 18.9204C61.0506 18.9604 60.9906 18.9904 60.9206 18.9904L60.8906 19.0104L60.9106 19.0404H60.9206C61.1006 19.0404 61.2806 19.0304 61.4506 19.0304L61.4806 19.0104V18.9804C61.4806 18.9804 61.4306 18.9604 61.4106 18.9504C61.3906 18.9504 61.3806 18.9204 61.3806 18.8904C61.3806 18.8904 61.3806 18.8604 61.4006 18.8104C61.4106 18.7704 61.4306 18.7204 61.4606 18.6604C61.4806 18.6004 61.5106 18.5404 61.5306 18.4804C61.5606 18.4104 61.5806 18.3504 61.6106 18.2904C61.6406 18.2304 61.6606 18.1704 61.6806 18.1304C61.7006 18.0804 61.7106 18.0504 61.7206 18.0304H62.3606C62.3606 18.0304 62.3806 18.0804 62.4006 18.1304C62.4206 18.1704 62.4406 18.2304 62.4706 18.2904C62.4906 18.3504 62.5206 18.4204 62.5506 18.4804C62.5806 18.5504 62.6006 18.6104 62.6306 18.6704C62.6506 18.7304 62.6706 18.7804 62.6906 18.8204C62.7106 18.8604 62.7106 18.8804 62.7106 18.8904C62.7106 18.9104 62.7106 18.9304 62.6906 18.9504C62.6706 18.9704 62.6506 18.9804 62.6306 18.9804H62.6006L62.6206 19.0304H62.6306C62.7406 19.0404 62.8506 19.0504 62.9606 19.0504C63.0706 19.0504 63.1806 19.0504 63.2906 19.0604L63.3206 19.0404L63.2906 19.0004C63.2206 19.0004 63.1606 18.9704 63.1006 18.9304L63.0706 18.9204ZM62.0306 17.8704C61.9406 17.8704 61.8606 17.8704 61.7706 17.8704C61.8206 17.7604 61.8606 17.6504 61.9006 17.5404C61.9406 17.4304 61.9806 17.3204 62.0306 17.2004L62.2806 17.8704C62.2006 17.8704 62.1106 17.8704 62.0206 17.8704H62.0306Z" fill="#323334"/>
<path d="M66.0106 18.6406H65.9906C65.9706 18.7206 65.9406 18.7706 65.8806 18.8106C65.8506 18.8306 65.8206 18.8406 65.7906 18.8506C65.7606 18.8506 65.7306 18.8506 65.6906 18.8506C65.5606 18.8506 65.4206 18.8506 65.2906 18.8506C65.1606 18.8506 65.0206 18.8506 64.8906 18.8506C64.8906 18.5206 64.8906 18.2006 64.8906 17.8706C64.8906 17.5406 64.8906 17.2206 64.8906 16.8906C64.8906 16.8306 64.9106 16.7906 64.9406 16.7506C64.9706 16.7106 65.0206 16.6906 65.0806 16.6906L65.1106 16.6706L65.0906 16.6406H65.0806C64.9606 16.6306 64.8506 16.6306 64.7306 16.6206C64.6206 16.6206 64.5006 16.6206 64.3806 16.6006H64.3506C64.3506 16.6006 64.3506 16.6306 64.3606 16.6406C64.3606 16.6406 64.3606 16.6506 64.3806 16.6606C64.4406 16.6606 64.4806 16.6906 64.5206 16.7306C64.5606 16.7706 64.5806 16.8206 64.5806 16.8806C64.5906 17.1906 64.6006 17.5106 64.6006 17.8206C64.6006 18.1306 64.6006 18.4506 64.5806 18.7606C64.5806 18.8206 64.5606 18.8706 64.5206 18.9106C64.4806 18.9506 64.4406 18.9806 64.3806 18.9806L64.3506 19.0006V19.0306H64.3806C64.6406 19.0206 64.9006 19.0106 65.1506 19.0106C65.4006 19.0106 65.6606 19.0106 65.9206 19.0306C65.9206 19.0306 65.9306 19.0306 65.9406 19.0306C65.9506 19.0306 65.9606 19.0306 65.9606 19.0206C65.9606 19.0006 65.9806 18.9706 65.9806 18.9306C65.9806 18.9006 65.9806 18.8706 66.0006 18.8406C66.0006 18.8106 66.0106 18.7806 66.0206 18.7506C66.0206 18.7206 66.0406 18.6906 66.0406 18.6606V18.6306H66.0006L66.0106 18.6406Z" fill="#323334"/>
<path d="M27.1201 10.2509C27.5601 9.79085 28.0101 9.33084 28.0101 8.55084C28.0101 8.08084 27.6701 7.13086 26.1201 7.13086C25.6901 7.13086 25.3201 7.16086 25.0901 7.16086C25.0401 7.16086 24.4501 7.13086 24.0201 7.13086C23.9201 7.13086 23.8701 7.15085 23.8701 7.21085C23.8701 7.25085 23.9101 7.27084 23.9501 7.27084C24.0301 7.27084 24.1901 7.27084 24.2701 7.30084C24.5801 7.37084 24.6601 7.52085 24.6701 7.84085C24.6901 8.14085 24.6901 8.41086 24.6901 9.88086V11.5409C24.6901 12.4509 24.6901 13.1909 24.6401 13.5909C24.6001 13.8609 24.5601 14.0708 24.3701 14.1108C24.2801 14.1308 24.1701 14.1508 24.0901 14.1508C24.0301 14.1508 24.0101 14.1808 24.0101 14.2108C24.0101 14.2708 24.0601 14.2909 24.1601 14.2909C24.3001 14.2909 24.5201 14.2708 24.7101 14.2708C24.9101 14.2708 25.0701 14.2708 25.0901 14.2708C25.1301 14.2708 25.3901 14.2708 25.6601 14.3008C25.9301 14.3008 26.2401 14.3308 26.3401 14.3308C27.9501 14.3308 28.7501 13.2808 28.7501 12.2708C28.7501 11.1608 27.8201 10.5009 27.1201 10.2809V10.2509ZM25.4501 7.56085C25.4501 7.50085 25.4801 7.47085 25.5601 7.46085C25.7101 7.42085 25.9101 7.41086 26.0101 7.41086C26.9301 7.41086 27.2802 8.25085 27.2802 9.03085C27.2802 9.42085 27.1401 9.76087 26.9401 9.98087C26.7401 10.2109 26.6101 10.2309 26.0801 10.2309C25.7301 10.2309 25.5601 10.2009 25.5001 10.1909C25.4501 10.1709 25.4301 10.1509 25.4301 10.0909V7.56085H25.4501ZM26.6101 14.0009C26.4401 14.0009 26.0302 13.9808 25.7802 13.8608C25.4902 13.7208 25.4901 13.5908 25.4601 13.1208C25.4601 12.9808 25.4601 11.8108 25.4601 11.0808V10.5409C25.4601 10.5409 25.4801 10.4809 25.5201 10.4809C25.6601 10.4809 26.1301 10.4809 26.2601 10.5009C26.4901 10.5309 26.7201 10.5609 27.0401 10.7809C27.7701 11.2809 27.9601 12.1009 27.9601 12.6609C27.9601 13.7309 27.1401 14.0009 26.6301 14.0009H26.6101Z" fill="#323334"/>
<path d="M38.4405 14.4101C38.5505 14.4101 38.5905 14.3001 38.8405 13.6001C39.2105 12.5501 40.1605 9.55013 40.5805 8.35013C40.7605 7.83013 40.9105 7.43011 41.1905 7.33011C41.3005 7.29011 41.4705 7.28012 41.5105 7.28012C41.5705 7.28012 41.5905 7.25013 41.5905 7.20013C41.5905 7.16013 41.5405 7.14014 41.4605 7.14014C41.1705 7.14014 40.7605 7.17014 40.7005 7.17014C40.6105 7.17014 40.2205 7.14014 39.7405 7.14014C39.6305 7.14014 39.5805 7.16011 39.5805 7.21011C39.5805 7.25011 39.6205 7.28012 39.6705 7.28012C40.1005 7.28012 40.2105 7.39012 40.2105 7.56012C40.2105 7.68012 40.2005 7.82013 40.1005 8.16013C39.7705 9.37013 38.9005 12.1001 38.6505 12.9701H38.6105L36.7305 7.61011C36.6205 7.29011 36.5605 7.17014 36.4905 7.17014C36.4305 7.17014 36.3905 7.22013 36.2605 7.60013L34.2605 12.9901H34.2405C34.1005 12.4901 33.1205 9.03014 32.9805 8.42014C32.8805 8.01014 32.8005 7.68011 32.8005 7.55011C32.8005 7.42011 32.8605 7.35013 32.9205 7.32013C33.0305 7.26013 33.2105 7.26013 33.2905 7.26013C33.3405 7.26013 33.3805 7.26012 33.3805 7.19012C33.3805 7.15012 33.3405 7.12012 33.2105 7.12012C32.7405 7.12012 32.3205 7.15012 32.2405 7.15012C32.1405 7.15012 31.6205 7.12012 31.1305 7.12012C31.0405 7.12012 30.9805 7.14012 30.9805 7.19012C30.9805 7.25012 31.0205 7.26013 31.0605 7.26013C31.1205 7.26013 31.3605 7.26013 31.4805 7.32013C31.7305 7.41013 31.8505 7.55011 32.0005 8.05011L33.6805 13.6401C33.8705 14.2801 33.9205 14.3801 34.0105 14.3801C34.1205 14.3801 34.1705 14.2801 34.3205 13.8801C34.6605 13.0001 35.9505 9.54014 36.2905 8.64014H36.3105L38.1605 13.8901C38.2905 14.2601 38.3505 14.3801 38.4405 14.3801V14.4101Z" fill="#323334"/>
<path d="M49.5903 14.2704C49.6903 14.2704 49.7403 14.2404 49.7403 14.1904C49.7403 14.1604 49.7203 14.1304 49.6703 14.1304C49.5803 14.1304 49.3803 14.1104 49.2503 14.0904C48.9703 14.0504 48.9103 13.8404 48.8803 13.5704C48.8303 13.1704 48.8303 12.4304 48.8303 11.5204V9.86035C48.8303 8.39035 48.8303 8.12037 48.8503 7.82037C48.8703 7.49037 48.9403 7.33036 49.2003 7.28036C49.3103 7.26036 49.3703 7.25037 49.4303 7.25037C49.4703 7.25037 49.5003 7.23037 49.5003 7.19037C49.5003 7.13037 49.4503 7.11035 49.3503 7.11035C49.0703 7.11035 48.4703 7.14038 48.4303 7.14038C48.3903 7.14038 47.7903 7.11035 47.3703 7.11035C47.2703 7.11035 47.2203 7.13037 47.2203 7.19037C47.2203 7.23037 47.2603 7.25037 47.3003 7.25037C47.3903 7.25037 47.5503 7.25036 47.6203 7.28036C47.9303 7.35036 48.0103 7.50037 48.0303 7.82037C48.0503 8.12037 48.0503 8.39035 48.0503 9.86035V10.0604C48.0503 10.0604 48.0203 10.1204 47.9903 10.1204H43.9903C43.9903 10.1204 43.9303 10.1104 43.9303 10.0604V9.86035C43.9303 8.39035 43.9303 8.12037 43.9503 7.82037C43.9703 7.49037 44.0403 7.33036 44.3003 7.28036C44.4103 7.26036 44.4703 7.25037 44.5303 7.25037C44.5703 7.25037 44.6103 7.23037 44.6103 7.19037C44.6103 7.13037 44.5603 7.11035 44.4603 7.11035C44.1803 7.11035 43.5803 7.14038 43.5403 7.14038C43.5003 7.14038 42.9003 7.11035 42.4703 7.11035C42.3603 7.11035 42.3203 7.13037 42.3203 7.19037C42.3203 7.23037 42.3603 7.25037 42.4003 7.25037C42.4903 7.25037 42.6403 7.25036 42.7203 7.28036C43.0303 7.35036 43.1103 7.50037 43.1303 7.82037C43.1503 8.12037 43.1503 8.39035 43.1503 9.86035V11.5204C43.1503 12.4304 43.1503 13.1704 43.1003 13.5704C43.0603 13.8404 43.0103 14.0504 42.8303 14.0904C42.7403 14.1104 42.6303 14.1304 42.5503 14.1304C42.5003 14.1304 42.4803 14.1604 42.4803 14.1904C42.4803 14.2504 42.5303 14.2704 42.6303 14.2704C42.9103 14.2704 43.5103 14.2404 43.5503 14.2404C43.5903 14.2404 44.1903 14.2704 44.7103 14.2704C44.8203 14.2704 44.8603 14.2404 44.8603 14.1904C44.8603 14.1604 44.8403 14.1304 44.7903 14.1304C44.7003 14.1304 44.5003 14.1104 44.3603 14.0904C44.0803 14.0504 44.0203 13.8404 43.9903 13.5704C43.9403 13.1704 43.9403 12.4304 43.9403 11.5204V10.5304C43.9403 10.5304 43.9703 10.4704 44.0003 10.4704H48.0003C48.0003 10.4704 48.0603 10.4904 48.0603 10.5304V11.5204C48.0603 12.4304 48.0603 13.1704 48.0103 13.5704C47.9703 13.8404 47.9303 14.0504 47.7403 14.0904C47.6503 14.1104 47.5403 14.1304 47.4603 14.1304C47.4003 14.1304 47.3903 14.1604 47.3903 14.1904C47.3903 14.2504 47.4403 14.2704 47.5403 14.2704C47.8203 14.2704 48.4203 14.2404 48.4603 14.2404C48.5003 14.2404 49.1003 14.2704 49.6203 14.2704H49.5903Z" fill="#323334"/>
<path d="M52.5803 14.2501C52.5803 14.2501 53.2202 14.2801 53.7402 14.2801C53.8402 14.2801 53.8903 14.2501 53.8903 14.2001C53.8903 14.1701 53.8702 14.1401 53.8102 14.1401C53.7302 14.1401 53.5203 14.1201 53.3903 14.1001C53.1103 14.0601 53.0503 13.8501 53.0203 13.5801C52.9703 13.1801 52.9702 12.4401 52.9702 11.5301V9.87012C52.9702 8.40012 52.9702 8.13011 52.9902 7.83011C53.0102 7.50011 53.0903 7.34013 53.3403 7.29013C53.4503 7.27013 53.5103 7.26013 53.5803 7.26013C53.6203 7.26013 53.6602 7.24013 53.6602 7.20013C53.6602 7.14013 53.6103 7.12012 53.5103 7.12012C53.2303 7.12012 52.6303 7.15012 52.5903 7.15012C52.5503 7.15012 51.9503 7.12012 51.6403 7.12012C51.5403 7.12012 51.4902 7.14013 51.4902 7.20013C51.4902 7.24013 51.5303 7.26013 51.5703 7.26013C51.6403 7.26013 51.7602 7.26011 51.8602 7.30011C52.0702 7.35011 52.1602 7.51011 52.1802 7.83011C52.2002 8.13011 52.2003 8.40012 52.2003 9.87012V11.5301C52.2003 12.4401 52.2003 13.1801 52.1503 13.5801C52.1103 13.8501 52.0702 14.0601 51.8802 14.1001C51.7902 14.1201 51.6802 14.1401 51.6002 14.1401C51.5402 14.1401 51.5303 14.1701 51.5303 14.2001C51.5303 14.2601 51.5702 14.2801 51.6802 14.2801C51.9602 14.2801 52.5602 14.2501 52.6002 14.2501H52.5803Z" fill="#323334"/>
<path d="M60.8199 7.08051C60.8199 7.08051 60.6999 7.11052 60.5599 7.13052C60.4099 7.16052 60.1899 7.18051 59.8899 7.18051H56.3499C56.2399 7.18051 55.8799 7.16052 55.5999 7.13052C55.3399 7.11052 55.2499 7.02051 55.1899 7.02051C55.1499 7.02051 55.1099 7.14053 55.0899 7.20053C55.0699 7.28053 54.8799 8.09051 54.8799 8.18051C54.8799 8.24051 54.8999 8.27051 54.9299 8.27051C54.9699 8.27051 54.9999 8.25053 55.0199 8.17053C55.0499 8.11053 55.0799 8.04052 55.1799 7.88052C55.3299 7.65052 55.5599 7.59051 56.1399 7.58051L57.5399 7.56052V11.5505C57.5399 12.4605 57.5399 13.2005 57.4899 13.6005C57.4499 13.8705 57.3998 14.0805 57.2198 14.1205C57.1298 14.1405 57.0199 14.1605 56.9399 14.1605C56.8799 14.1605 56.8599 14.1905 56.8599 14.2205C56.8599 14.2805 56.9099 14.3005 57.0099 14.3005C57.2899 14.3005 57.8899 14.2705 57.9299 14.2705C57.9799 14.2705 58.5699 14.3005 59.0899 14.3005C59.1999 14.3005 59.2399 14.2705 59.2399 14.2205C59.2399 14.1905 59.2199 14.1605 59.1599 14.1605C59.0699 14.1605 58.8699 14.1405 58.7399 14.1205C58.4599 14.0805 58.3999 13.8705 58.3699 13.6005C58.3199 13.2005 58.3199 12.4605 58.3199 11.5505V7.56052L59.5099 7.58051C60.4099 7.60051 60.6399 7.82052 60.6699 8.10052V8.20053C60.6899 8.33053 60.7099 8.3605 60.7499 8.3605C60.7899 8.3605 60.8199 8.32051 60.8199 8.24051C60.8199 8.14051 60.8499 7.48053 60.8499 7.20053C60.8499 7.14053 60.8499 7.09052 60.7999 7.09052L60.8199 7.08051Z" fill="#323334"/>
<path d="M66.1506 13.0008C66.1506 13.0008 66.0806 13.0408 66.0706 13.1408C66.0006 13.5308 65.8906 13.7208 65.6506 13.8208C65.4006 13.9308 64.9905 13.9308 64.7405 13.9308C63.8105 13.9308 63.6706 13.8108 63.6506 13.1608C63.6506 12.9608 63.6506 11.8708 63.6506 11.5508V10.7208C63.6506 10.7208 63.6705 10.6508 63.7205 10.6508C63.8805 10.6508 64.8106 10.6708 65.0706 10.7008C65.4406 10.7408 65.5205 10.9008 65.5605 11.0308C65.6005 11.1508 65.6005 11.2508 65.6005 11.3408C65.6005 11.3908 65.6205 11.4308 65.6705 11.4308C65.7405 11.4308 65.7405 11.3308 65.7405 11.2508C65.7405 11.1908 65.7606 10.8408 65.7806 10.6508C65.8106 10.3408 65.8605 10.1808 65.8605 10.1208C65.8605 10.0608 65.8405 10.0408 65.8105 10.0408C65.7705 10.0408 65.7305 10.0908 65.6705 10.1608C65.5805 10.2508 65.4505 10.2708 65.2305 10.2908C65.0105 10.3108 63.8505 10.3108 63.7305 10.3108C63.6805 10.3108 63.6705 10.2808 63.6705 10.2208V7.62082C63.6705 7.56082 63.6905 7.53082 63.7305 7.53082C63.8305 7.53082 64.8606 7.53082 65.0206 7.56082C65.5306 7.62082 65.6206 7.73083 65.6906 7.88083C65.7406 7.99083 65.7505 8.15083 65.7505 8.22083C65.7505 8.29083 65.7706 8.34082 65.8306 8.34082C65.8706 8.34082 65.8906 8.28083 65.8906 8.23083C65.9106 8.12083 65.9306 7.70081 65.9406 7.61081C65.9706 7.35081 66.0206 7.23084 66.0206 7.17084C66.0206 7.12084 66.0105 7.09082 65.9805 7.09082C65.9305 7.09082 65.8905 7.13084 65.8505 7.14084C65.7805 7.16084 65.6206 7.18083 65.4406 7.19083C65.2206 7.19083 63.3506 7.19083 63.2806 7.19083L62.8906 7.17084C62.6806 7.17084 62.4306 7.17084 62.2106 7.17084C62.1106 7.17084 62.0605 7.19082 62.0605 7.25082C62.0605 7.29082 62.1006 7.31082 62.1306 7.31082C62.2206 7.31082 62.3706 7.31082 62.4506 7.34082C62.7606 7.41082 62.8405 7.56083 62.8605 7.88083C62.8805 8.18083 62.8806 8.45084 62.8806 9.92084V11.5808C62.8806 12.4908 62.8806 13.2308 62.8306 13.6308C62.7906 13.9008 62.7505 14.1108 62.5605 14.1508C62.4705 14.1708 62.3606 14.1908 62.2806 14.1908C62.2206 14.1908 62.2006 14.2208 62.2006 14.2508C62.2006 14.3108 62.2505 14.3308 62.3505 14.3308C62.4905 14.3308 62.7106 14.3108 62.9006 14.3108C63.1006 14.3108 63.2606 14.3108 63.2806 14.3108C63.4206 14.3108 63.6506 14.3108 64.0206 14.3408C64.3906 14.3408 64.9105 14.3708 65.6105 14.3708C65.9805 14.3708 66.0505 14.3708 66.1205 14.1208C66.1705 13.9208 66.2405 13.2808 66.2405 13.2108C66.2405 13.1408 66.2405 13.0708 66.1805 13.0708L66.1506 13.0008Z" fill="#323334"/>
<path d="M31.4305 10.7808C31.4305 10.4008 31.1205 10.0908 30.7505 10.0908C30.3805 10.0908 30.0605 10.4008 30.0605 10.7808C30.0605 11.1608 30.3705 11.4608 30.7505 11.4608C31.1305 11.4608 31.4305 11.1508 31.4305 10.7808Z" fill="#323334"/>
<path d="M22.4308 2.57031C22.7008 2.57031 22.9608 2.64029 23.2208 2.77029C23.4808 2.91029 23.6808 3.11029 23.8208 3.36029C23.9608 3.62029 24.0308 3.89031 24.0308 4.16031C24.0308 4.43031 23.9608 4.7003 23.8208 4.9603C23.6808 5.2203 23.4808 5.41029 23.2308 5.55029C22.9808 5.69029 22.7108 5.76031 22.4308 5.76031C22.1508 5.76031 21.8908 5.69029 21.6408 5.55029C21.3908 5.41029 21.1908 5.2103 21.0508 4.9603C20.9108 4.7103 20.8408 4.44031 20.8408 4.16031C20.8408 3.88031 20.9108 3.61029 21.0608 3.36029C21.2008 3.10029 21.4008 2.91029 21.6608 2.77029C21.9208 2.63029 22.1808 2.57031 22.4508 2.57031H22.4308ZM22.4308 2.8403C22.2108 2.8403 21.9908 2.90031 21.7708 3.01031C21.5608 3.13031 21.3908 3.29031 21.2708 3.50031C21.1508 3.71031 21.0908 3.94032 21.0908 4.17032C21.0908 4.40032 21.1508 4.62029 21.2708 4.83029C21.3908 5.04029 21.5508 5.21031 21.7708 5.32031C21.9808 5.44031 22.2008 5.50031 22.4308 5.50031C22.6608 5.50031 22.8808 5.44031 23.1008 5.32031C23.3108 5.20031 23.4808 5.04029 23.5908 4.83029C23.7108 4.62029 23.7708 4.40032 23.7708 4.17032C23.7708 3.94032 23.7108 3.71031 23.5908 3.50031C23.4708 3.29031 23.3008 3.12031 23.0908 3.01031C22.8808 2.90031 22.6608 2.8403 22.4308 2.8403ZM21.7308 5.0603V3.3403H22.3208C22.5208 3.3403 22.6708 3.36032 22.7608 3.39032C22.8508 3.42032 22.9208 3.4803 22.9808 3.5603C23.0308 3.6403 23.0608 3.7203 23.0608 3.8103C23.0608 3.9303 23.0208 4.04032 22.9308 4.14032C22.8408 4.23032 22.7208 4.29029 22.5708 4.30029C22.6308 4.32029 22.6808 4.36032 22.7208 4.39032C22.7908 4.46032 22.8808 4.57032 22.9708 4.73032L23.1808 5.07031H22.8408L22.6908 4.80029C22.5708 4.59029 22.4708 4.4503 22.4008 4.4003C22.3508 4.3603 22.2808 4.3403 22.1808 4.3403H22.0208V5.07031H21.7408L21.7308 5.0603ZM22.0108 4.0903H22.3508C22.5108 4.0903 22.6208 4.07029 22.6808 4.02029C22.7408 3.97029 22.7708 3.91029 22.7708 3.83029C22.7708 3.78029 22.7608 3.73031 22.7308 3.69031C22.7008 3.65031 22.6608 3.62031 22.6108 3.60031C22.5608 3.58031 22.4708 3.57031 22.3308 3.57031H22.0108V4.0903Z" fill="#323334"/>
<path d="M11.1605 0.860352C5.41046 0.860352 0.730469 5.54037 0.730469 11.2904C0.730469 17.0404 5.41046 21.7204 11.1605 21.7204C16.9105 21.7204 21.5905 17.0404 21.5905 11.2904C21.5905 5.54037 16.9105 0.860352 11.1605 0.860352ZM11.1605 21.0304C5.79046 21.0304 1.42047 16.6604 1.42047 11.2904C1.42047 5.92037 5.79046 1.55035 11.1605 1.55035C16.5305 1.55035 20.9005 5.92037 20.9005 11.2904C20.9005 16.6604 16.5305 21.0304 11.1605 21.0304Z" fill="#323334"/>
<path d="M4.21027 9.1003H6.15027C6.30027 9.1003 6.37027 9.08028 6.37027 9.02028C6.37027 8.98028 6.32027 8.95031 6.25027 8.95031C5.66027 8.95031 5.73027 6.13031 7.65027 5.92031C7.65027 5.92031 10.6403 5.35029 11.1003 8.31029H11.2003C11.6503 5.34029 14.6403 5.92031 14.6403 5.92031C16.5703 6.14031 16.6303 8.95031 16.0403 8.95031C15.9803 8.95031 15.9203 8.98028 15.9203 9.02028C15.9203 9.07028 15.9803 9.1003 16.1403 9.1003H18.0803C18.2003 9.1003 18.2603 9.08029 18.2603 9.03029C18.2603 8.98029 18.2203 8.95031 18.1503 8.95031C18.1003 8.95031 18.0103 8.94031 17.8703 8.89031C17.4803 8.77031 17.2902 8.35028 17.1602 7.74028C16.6202 5.29028 14.5803 5.2703 14.4403 5.2603C12.7403 5.1903 11.7603 5.81031 11.2803 6.42031C11.2403 6.46031 11.2103 6.51028 11.1803 6.55028C11.1703 6.56028 11.1603 6.5803 11.1503 6.6003C11.1403 6.5903 11.1203 6.57028 11.1103 6.55028C11.0803 6.50028 11.0503 6.46031 11.0103 6.42031C10.5303 5.81031 9.55028 5.1903 7.85028 5.2603C7.71028 5.2603 5.67028 5.29028 5.13028 7.74028C5.00028 8.35028 4.81029 8.77031 4.42029 8.89031C4.28029 8.93031 4.20029 8.95031 4.14029 8.95031C4.06029 8.95031 4.03027 8.98029 4.03027 9.03029C4.03027 9.07029 4.09027 9.1003 4.21027 9.1003Z" fill="#323334"/>
<path d="M18.0906 9.66992H16.2006C16.0406 9.66992 15.9705 9.68991 15.9705 9.74991C15.9705 9.79991 16.0306 9.8299 16.0906 9.8299C16.7206 9.8299 16.5106 10.4999 16.3806 10.9399C15.9006 12.4499 14.4305 16.0999 14.0605 17.1899H14.0106L11.4806 11.8399C11.3306 11.4899 11.2506 11.3299 11.1706 11.2999C11.0906 11.3299 11.0005 11.4799 10.8605 11.8399L8.33054 17.1899H8.28055C7.91055 16.0999 6.44054 12.4499 5.96054 10.9399C5.82054 10.4999 5.62055 9.8299 6.25055 9.8299C6.32055 9.8299 6.37054 9.78991 6.37054 9.74991C6.37054 9.68991 6.30056 9.66992 6.14056 9.66992H4.25055C4.13055 9.66992 4.06055 9.6899 4.06055 9.7399C4.06055 9.7999 4.10054 9.8299 4.18054 9.8299C4.24054 9.8299 4.21053 9.83992 4.36053 9.88992C4.77053 10.0199 4.99055 10.5199 5.25055 11.1699C5.85055 12.6699 7.24055 16.4199 7.78055 17.7399C8.14055 18.6099 8.21053 18.7599 8.36053 18.7599C8.50053 18.7599 8.58054 18.6099 8.77054 18.1499L11.1706 13.0599L13.5706 18.1499C13.7606 18.6099 13.8406 18.7599 13.9806 18.7599C14.1306 18.7599 14.2005 18.6199 14.5605 17.7399C15.1005 16.4199 16.4906 12.6699 17.0906 11.1699C17.3506 10.5199 17.5705 10.0299 17.9805 9.88992C18.1305 9.83992 18.1105 9.8299 18.1605 9.8299C18.2405 9.8299 18.2905 9.7899 18.2905 9.7399C18.2905 9.6899 18.2205 9.66992 18.1005 9.66992H18.0906Z" fill="#323334"/>
</svg>
