<svg xmlns="http://www.w3.org/2000/svg" width="275" height="275" viewBox="0 0 275 275" fill="none"><path d="M79.6201 162.95C77.6101 165.52 73.9001 169.86 72.1301 170.24C71.6001 170.36 71.3401 170.24 71.3001 169.94C71.2301 169.29 71.5301 168.42 71.8501 167.81C74.5501 167.15 78.4501 162.64 78.1301 161.14C77.9801 160.46 76.7401 160.14 76.3801 160.22C75.3401 160.45 73.3401 161.67 71.6901 163.78C70.9701 164.72 70.3801 165.71 69.9401 166.67C68.5801 168.6 66.6801 171.15 65.8001 171.41C66.0701 169.75 67.32 166.12 68.76 162.46C69.56 160.43 70.2501 158.78 71.0201 157.21C71.7601 155.68 72.8901 153.05 73.8001 153.25C74.3001 153.42 73.02 152.23 71.68 152.59C71.46 152.64 71.1901 152.9 70.8901 153.27C70.4101 153.88 69.9001 154.81 69.3501 155.92C68.5201 157.81 67.4501 160.15 66.4501 162.8C66.1801 162.61 65.75 162.52 65.29 162.62C63.83 162.94 62.3501 164.07 60.7501 165.71C58.5401 167.94 57.0301 171.52 57.3201 172.84C57.4401 173.4 58.4601 174.32 58.8901 174.23C60.1501 173.96 64.1401 168.21 64.8401 167.35C64.1201 169.79 63.8601 171.17 63.9701 171.65C64.0901 172.18 64.7301 172.58 65.1701 172.71C65.4401 172.78 65.7201 172.79 65.9901 172.63C66.7201 172.21 68.1101 170.26 69.3401 168.36C69.3101 168.47 69.2701 168.59 69.2501 168.69C69.1701 169.27 69.1301 169.78 69.2501 170.37C69.3901 171.02 70.5501 171.69 71.3101 171.52C74.5401 170.82 78.3601 165.13 79.8101 163.04C79.8701 162.95 79.6701 162.87 79.6101 162.93L79.6201 162.95ZM77.2501 160.79C77.3001 161.74 74.1301 166.55 72.0701 167.25C72.5901 165.79 74.7401 162.25 77.2501 160.79ZM65.2801 166.09C62.9801 169.18 59.6801 172.72 59.3501 172.61C59.1301 172.53 60.2001 169.63 61.9401 167.09C62.9901 165.49 64.3201 163.9 65.2801 163.41C65.6001 163.24 65.9601 163.16 66.3001 163.19L65.2801 166.08V166.09Z" fill="#323334"></path><path d="M59.45 150.47C59.77 150.36 60.13 150.21 60.53 150.04C60.93 149.87 61.33 149.63 61.74 149.32C62.27 148.99 62.83 148.57 63.39 148.08C63.96 147.59 64.47 147 64.93 146.31C65.39 145.62 65.76 144.84 66.05 143.98C66.34 143.11 66.49 142.11 66.5 140.98L66.57 132.95C66.57 131.38 66.32 130.17 65.8 129.3C65.29 128.44 64.67 127.78 63.97 127.32C63.77 127.19 63.6 127.1 63.45 127.04C63.88 126.64 64.3 126.2 64.69 125.73C65.08 125.25 65.43 124.7 65.73 124.07C65.89 123.82 66.01 123.56 66.08 123.31C66.15 123.05 66.24 122.76 66.35 122.44C66.44 122.07 66.52 121.68 66.58 121.25C66.64 120.83 66.66 120.38 66.64 119.9L66.74 110.23C66.73 108.58 66.41 107.34 65.79 106.49C65.17 105.65 64.45 105.04 63.63 104.65C63.06 104.43 62.49 104.27 61.93 104.18C61.37 104.09 60.85 104.05 60.37 104.07C59.85 104.05 59.31 104.1 58.77 104.22L47.7 106.65L47.27 153.22L58.4 150.78C58.73 150.71 59.08 150.61 59.44 150.49L59.45 150.47ZM55.61 115.07L55.67 112.97L57.29 112.62C57.55 112.61 57.78 112.67 57.98 112.79C58.42 113 58.66 113.51 58.71 114.33L58.67 119.81C58.64 120.25 58.55 120.61 58.41 120.88C58.27 121.15 58.11 121.35 57.92 121.48C57.75 121.69 57.52 121.83 57.23 121.89L55.55 122.26L55.61 115.08V115.07ZM57.73 142.63C57.56 142.84 57.33 142.98 57.04 143.04L55.35 143.35L55.5 131.84L57.12 131.49C57.41 131.43 57.66 131.46 57.86 131.59C58.3 131.8 58.53 132.38 58.57 133.32L58.47 140.9C58.45 141.38 58.36 141.75 58.22 142C58.08 142.25 57.92 142.46 57.74 142.63H57.73Z" fill="#323334"></path><path d="M77.37 138.53L81.97 137.52L82.29 145.53L90.31 143.77L87.19 97.98L76.8 100.25C76.22 100.38 75.69 100.95 75.22 101.96C74.75 102.98 74.32 104.22 73.95 105.69C73.8 106.2 73.66 106.74 73.52 107.32C73.39 107.89 73.25 108.48 73.12 109.07C73.03 109.44 72.95 109.8 72.9 110.16C72.85 110.52 72.77 110.88 72.68 111.25C72.59 112.01 72.47 112.69 72.34 113.28C72.15 114.41 72.02 115.35 71.95 116.1C71.88 116.85 71.81 117.3 71.76 117.45L68.4 148.56L76.42 146.8L77.34 138.52L77.37 138.53ZM80.64 108.22L81.59 129.52L78.23 130.26L80.64 108.22Z" fill="#323334"></path><path d="M96.16 142.5L104.18 140.74L104.49 102.28L111.83 100.67L111.89 92.5801L88.56 97.6901L88.51 105.78L96.47 104.04L96.16 142.5Z" fill="#323334"></path><path d="M121.22 128.93L125.82 127.92L126.14 135.93L134.16 134.17L131.04 88.3801L120.65 90.6501C120.07 90.7801 119.54 91.3501 119.07 92.3601C118.6 93.3801 118.17 94.6201 117.8 96.0901C117.65 96.6001 117.51 97.1401 117.37 97.7201C117.23 98.2901 117.1 98.8801 116.97 99.4701C116.88 99.8401 116.81 100.2 116.75 100.56C116.7 100.92 116.62 101.28 116.53 101.65C116.44 102.41 116.32 103.09 116.19 103.68C116 104.81 115.87 105.75 115.8 106.5C115.73 107.25 115.66 107.7 115.61 107.85L112.25 138.96L120.27 137.2L121.19 128.92L121.22 128.93ZM124.49 98.6201L125.44 119.92L122.08 120.66L124.49 98.6201Z" fill="#323334"></path><path d="M154.93 121.55L143.86 123.97L144.17 85.51L136.14 87.27L135.78 133.82L154.87 129.64L154.93 121.55Z" fill="#323334"></path><path d="M177.13 116.68L166.06 119.11L166.37 80.6501L158.35 82.4101L157.98 128.96L177.08 124.78L177.13 116.68Z" fill="#323334"></path><path d="M188.08 114.29L192.68 113.28L193 121.29L201.02 119.53L197.9 73.74L187.51 76.01C186.93 76.14 186.4 76.71 185.93 77.72C185.46 78.74 185.03 79.98 184.66 81.45C184.51 81.96 184.37 82.51 184.23 83.08C184.09 83.65 183.96 84.24 183.83 84.83C183.74 85.2 183.66 85.56 183.61 85.92C183.56 86.28 183.49 86.64 183.39 87.01C183.3 87.77 183.18 88.45 183.05 89.04C182.86 90.17 182.73 91.11 182.66 91.86C182.59 92.61 182.52 93.06 182.47 93.21L179.11 124.32L187.13 122.56L188.05 114.28L188.08 114.29ZM191.35 83.98L192.3 105.28L188.94 106.01L191.35 83.97V83.98Z" fill="#323334"></path><path d="M204.57 117.26C205.11 117.53 205.66 117.71 206.22 117.78C206.78 117.85 207.3 117.88 207.77 117.86C208.3 117.87 208.83 117.82 209.37 117.71L212.42 117.04C212.75 116.97 213.1 116.87 213.46 116.75C213.78 116.64 214.14 116.49 214.54 116.32C214.94 116.15 215.34 115.91 215.75 115.6C216.33 115.26 216.89 114.84 217.43 114.35C217.97 113.86 218.47 113.27 218.93 112.59C219.39 111.9 219.76 111.11 220.04 110.23C220.32 109.34 220.47 108.33 220.48 107.2V107.14C220.48 107.01 220.48 106.78 220.45 106.46C220.42 106.14 220.4 105.74 220.39 105.27C220.37 104.97 220.33 104.65 220.28 104.32C220.23 103.98 220.16 103.63 220.08 103.26C219.88 101.96 219.52 100.69 218.99 99.4601C218.81 99.0201 218.58 98.5601 218.3 98.0801C218.02 97.6001 217.71 97.0901 217.38 96.5501C216.66 95.4501 215.87 94.3301 215.02 93.1901C214.16 92.0501 213.38 90.9701 212.68 89.9501C212.56 89.8001 212.47 89.6701 212.4 89.5601C211.76 88.6101 211.25 87.7701 210.87 87.0301C210.59 86.3501 210.37 85.6801 210.2 85.0301C210.03 84.3701 209.92 83.7901 209.85 83.2801C209.78 82.7701 209.74 82.3601 209.71 82.0401C209.68 81.7201 209.68 81.4901 209.69 81.3601V81.3001C209.66 81.2201 209.67 81.0601 209.71 80.8401C209.75 80.6101 209.81 80.3701 209.91 80.1101C210 79.8501 210.16 79.6001 210.36 79.3601C210.57 79.1201 210.86 78.9601 211.23 78.8801C211.57 78.8501 211.83 78.8801 212 78.9701C212.17 79.0601 212.34 79.2301 212.5 79.4801C212.66 79.7301 212.74 80.1101 212.72 80.6401V82.6601L220.73 80.9001V76.7901C220.75 75.0501 220.44 73.7401 219.82 72.8601C219.19 71.9801 218.46 71.3201 217.63 70.8901C217.06 70.6701 216.49 70.5201 215.94 70.4501C215.38 70.3801 214.86 70.3501 214.39 70.3701C213.87 70.3501 213.35 70.4001 212.86 70.5101L209.75 71.1901C208.46 71.4701 207.34 71.9101 206.39 72.5101C205.28 73.1901 204.4 74.0001 203.76 74.9401C203.12 75.8801 202.65 76.7901 202.37 77.6601C202.08 78.5301 201.9 79.2801 201.82 79.9001C201.74 80.5301 201.71 80.8801 201.73 80.9601V81.0201C201.7 81.2001 201.73 81.8701 201.85 83.0201C201.87 83.3201 201.91 83.6301 201.95 83.9401C202 84.2601 202.06 84.5801 202.13 84.9101C202.31 86.1301 202.65 87.4001 203.16 88.7201C203.36 89.4601 203.79 90.3201 204.44 91.3101C205.18 92.5001 206.02 93.7001 206.96 94.9301C207.9 96.1601 208.76 97.2701 209.55 98.2701V98.3301C209.99 98.8901 210.37 99.4101 210.69 99.9101C211.01 100.4 211.25 100.81 211.41 101.12C211.71 101.71 211.94 102.34 212.09 103.02C212.24 103.7 212.34 104.35 212.38 104.94C212.49 106.04 212.53 106.73 212.5 107C212.52 107.08 212.5 107.23 212.46 107.43C212.42 107.63 212.35 107.87 212.25 108.13C212.15 108.39 212.01 108.63 211.82 108.85C211.63 109.07 211.35 109.22 210.97 109.3C210.6 109.38 210.31 109.36 210.11 109.23C209.91 109.1 209.76 108.93 209.67 108.71C209.58 108.49 209.52 108.29 209.5 108.1C209.48 107.91 209.46 107.77 209.44 107.69V105.6L209.48 104.29L201.52 106.03L201.45 111.39C201.45 113.13 201.75 114.45 202.38 115.36C203.01 116.27 203.74 116.91 204.56 117.29L204.57 117.26Z" fill="#323334"></path><path d="M124.79 170.34C122.88 172.58 118.51 176.11 115.32 177.05C111.72 178.1 109.95 177.15 109.1 173.9C107.07 166.13 116.29 145.25 119.34 144.46C119.64 144.38 120.12 144.26 120.48 144.38C120.14 143.64 118.08 142.25 116.93 142.56C114.66 143.15 102.04 159.31 98.1501 172.71C99.6901 164.19 105 149.55 106.35 149.2C106.59 149.14 106.98 149.11 107.17 149.28C106.65 147.97 104.61 147.38 103.53 147.66C102 148.06 94.9701 156.49 88.0601 169.99C90.9801 162.71 93.8601 155.19 93.0201 151.97C92.2901 149.19 90.1401 148.01 86.9201 148.85C86.9201 148.85 86.3701 149.9 87.1401 149.7C88.4001 149.38 90.0201 149.24 90.4401 150.83C91.7001 155.65 80.3101 178.57 81.4401 182.91C81.6101 183.55 82.3101 184.02 82.8901 183.87C83.5701 183.69 85.2201 182.68 85.7801 181.34C85.8801 181.17 84.1301 182.78 84.0101 182.34C83.7601 181.39 85.1101 177.56 88.2701 171.34C91.7301 164.75 96.8601 156.53 100.91 152.75C98.9901 155.93 94.6301 171.27 95.5201 174.7C95.8801 176.09 98.5201 176.63 98.3501 175.99C97.4701 172.63 106.93 155.31 111.23 151.8C109.09 155.37 105.04 167.22 106.75 173.76C107.77 177.66 110.84 179.29 114.43 178.35C114.77 178.26 115.1 178.14 115.46 178.01C116.61 177.56 121.74 175.14 124.8 170.36L124.79 170.34Z" fill="#323334"></path><path d="M124.82 165.76C124.75 165.49 124.78 165.05 124.86 164.52C125.31 162.08 127.4 157.59 127.65 157.89C127.68 157.45 126.04 155.88 125.45 156.4C124.73 157.1 123.08 159.81 122.61 160.51C121.24 162.46 117.39 167.13 116.36 167.79C116.27 167.85 116.2 167.87 116.13 167.85C115.78 167.76 117.21 162.82 119.71 159.24C121.43 156.8 123.53 154.73 125.47 154.11C126.47 153.78 127.25 154.11 127.51 155.13C127.64 155.64 127.55 156.1 127.46 156.45C127.44 156.49 127.51 156.51 127.57 156.45C127.8 155.92 127.95 155.26 127.8 154.69C127.38 153.09 125.55 152.99 124.26 153.33C118.02 154.96 112.23 164.55 113.2 168.25C113.38 168.93 114.6 169.99 115.29 170.13C115.37 170.15 115.55 170.17 115.62 170.15C117.04 169.78 122.17 162.35 122.92 161.07C122.5 162.09 121.99 163.89 121.91 165.25C121.91 165.8 121.88 166.24 121.97 166.58C122.13 167.19 122.96 167.73 123.5 167.88C123.77 167.95 123.96 167.98 124.13 167.93C125.39 167.6 127.42 164.75 129.29 161.67C129.09 162.59 129.04 163.42 129.21 164.06C129.41 164.84 131.02 166.12 131.66 165.96C132.88 165.64 136.78 160.2 138.48 157.69C135.58 164.21 133.88 171.82 133.3 175.42C133.03 177.02 132.74 178.68 132.83 179.74C132.9 180.41 133.94 182.17 135.14 181.67C135.3 181.59 135.54 181.53 135.58 181.41C135.49 179.69 138.15 171.43 141.95 166.27C141.95 166.27 141.9 166.07 141.73 166.15C140.89 166.66 137.09 172.56 135.37 176.95C136.06 173.65 139.68 161.46 141.62 157.53C143.26 154.24 143.81 153.3 143.95 153.41C143.97 152.93 142.26 151.39 141.71 151.9C140.95 152.6 139.29 155.39 138.82 156.1C137.33 158.3 132.57 164.18 132.13 164.04C131.75 163.96 133.2 158.58 135.74 154.98C137.45 152.51 139.59 150.43 141.52 149.81C142.52 149.48 143.27 149.86 143.54 150.88C143.67 151.39 143.6 151.81 143.56 152.18C143.53 152.22 143.62 152.27 143.64 152.23C143.88 151.62 144.04 151 143.89 150.42C143.47 148.8 141.54 148.76 140.25 149.09C136.06 150.18 132.06 154.93 130.2 159.04C128.45 161.73 126.23 164.93 124.83 165.75L124.82 165.76Z" fill="#323334"></path><path d="M166.16 137.58C165.35 138.08 164.64 140.62 164.93 141.6C165.13 142.2 166.02 142.73 166.34 141.99C166.6 141.31 167.79 139.51 168.31 139.12C168.64 138.85 168.95 138.92 169.01 138.9C169.14 138.86 168.81 138.41 168.41 138.15C167.84 137.76 166.91 137.27 166.16 137.58Z" fill="#323334"></path><path d="M205.82 135.51C206.12 134.85 206.46 134.47 206.77 134.43C207.05 134.4 207.2 134.54 207.16 134.4C206.94 133.55 205.16 132.43 204.4 132.73C203.87 132.91 203.51 133.61 203.33 134.03C203.02 134.8 202.59 136.17 202.09 137.9C200.49 140.44 196.89 146.29 194.92 147.45C194.85 147.18 194.88 146.74 194.96 146.21C195.41 143.77 197.5 139.28 197.75 139.58C197.78 139.14 196.14 137.57 195.55 138.09C194.83 138.79 193.18 141.5 192.71 142.2C191.34 144.15 187.48 148.82 186.46 149.49C186.37 149.55 186.3 149.57 186.22 149.55C185.87 149.46 187.3 144.52 189.8 140.94C191.52 138.5 193.62 136.43 195.56 135.81C196.56 135.48 197.34 135.81 197.6 136.83C197.73 137.34 197.64 137.8 197.55 138.15C197.53 138.19 197.6 138.21 197.66 138.15C197.89 137.62 198.04 136.96 197.89 136.39C197.47 134.79 195.64 134.69 194.35 135.03C191.1 135.88 187.98 138.89 185.87 142.1C185.87 142.11 185.85 142.1 185.84 142.1C184.32 144.45 180.13 151.45 178.63 151.66C178.88 149.28 180.29 144.31 182.07 139.06C183.12 136.14 183.99 133.78 184.96 131.54C185.97 129.32 187.34 125.55 188.67 125.79C189.41 126 187.54 124.38 185.67 124.98C185.36 125.06 184.99 125.44 184.59 125.98C183.92 126.88 183.25 128.21 182.58 129.8C181.42 132.57 180.02 136.08 178.77 139.92C178.16 141.8 177.66 143.43 177.26 144.85C175.52 147.6 171.84 153.59 170.45 153.79C170.7 151.41 172.11 146.44 173.89 141.19C174.94 138.27 175.81 135.91 176.78 133.66C177.79 131.44 179.16 127.67 180.49 127.91C181.23 128.11 179.36 126.5 177.49 127.1C177.18 127.18 176.81 127.57 176.41 128.1C175.74 129 175.07 130.33 174.4 131.92C173.24 134.69 171.84 138.2 170.59 142.04C169.9 144.17 169.36 145.97 168.93 147.51C167.15 150.38 164.15 154.99 162.48 155.93C162.52 154.43 165.15 145.49 166.58 145.26C166.86 145.22 167.07 145.35 167.04 145.21C166.82 144.36 165.11 143.36 164.33 143.56C164.19 143.6 164 143.68 163.88 143.9C163.13 144.91 162.14 147.15 161.3 149.51C159.53 152.34 156.62 156.83 154.93 157.87C154.68 156.92 155.31 154.19 156.41 151.47C157.14 149.68 157.77 148.22 158.14 147.54C158.46 146.95 158.82 146.53 159.06 146.47C159.38 146.42 159.52 146.57 159.48 146.43C159.26 145.58 157.62 144.6 156.81 144.81C156.67 144.85 156.51 144.92 156.38 145.1C154.84 147.1 153.1 150.7 151.79 152.89C150.57 154.87 147.91 158.83 146.46 159.93C146.2 158.95 147.13 155.55 148.26 152.83C149.02 151.04 149.99 148.9 150.51 148.84C150.82 148.79 151 148.93 150.97 148.79C150.74 147.91 149.07 146.93 148.26 147.14C148.16 147.17 147.96 147.25 147.84 147.47C147.17 148.37 146.17 150.37 145.42 152.34C144.19 155.52 143.22 159.43 143.6 160.89C143.81 161.7 145.1 162.34 145.65 162.2C145.65 162.2 145.85 162.15 145.92 162.13C147.85 161.19 151.11 155.12 153.63 150.74C152.78 152.63 152.12 155.37 151.96 157.08C151.92 157.63 151.88 158.3 151.96 158.63C152.12 159.24 153 159.84 153.61 159.97C153.82 160.06 154.04 160.08 154.21 160.03C155.75 159.63 158.46 155.44 160.59 151.69C159.92 153.93 159.49 155.98 159.71 156.82C159.87 157.43 160.94 158.05 161.53 158.08C161.71 158.07 161.81 158.04 161.94 158.01C163.56 157.44 166.34 153.04 168.49 149.25C167.78 152.07 167.58 153.68 167.74 154.29C167.84 154.66 167.92 154.71 167.98 154.77C168.31 155.23 169.25 155.74 169.55 155.81C169.9 155.9 170.27 155.95 170.67 155.66C172.12 154.66 175.06 149.7 176.82 146.48C175.97 149.7 175.73 151.5 175.9 152.16C176 152.53 176.08 152.58 176.14 152.64C176.47 153.1 177.41 153.61 177.71 153.68C178.06 153.77 178.43 153.82 178.83 153.53C179.92 152.77 181.86 149.76 183.51 146.94C183.18 148.1 183.07 149.13 183.28 149.9C183.46 150.58 184.68 151.64 185.37 151.78C185.45 151.79 185.63 151.82 185.7 151.8C187.12 151.43 192.25 144 193 142.72C192.58 143.74 192.07 145.54 191.99 146.9C191.99 147.44 191.96 147.89 192.05 148.23C192.21 148.84 193.04 149.38 193.58 149.53C193.85 149.6 194.04 149.63 194.21 149.58C196.03 149.1 199.45 143.38 201.67 139.31C201.37 140.39 201.04 141.56 200.7 142.81C200.32 144.14 200.01 145.45 199.6 146.79C192.84 152.54 187.7 159.75 187.4 164.43C187.36 164.98 187.4 165.41 187.5 165.78C187.88 167.24 189.08 167.54 190.34 167.21C190.71 167.11 191.08 166.98 191.42 166.78C197.54 163.33 200.8 153.35 203.1 144.67C204.03 143.92 204.96 143.21 206 142.46C206.43 142.17 205.86 142.21 205.36 142.52C204.64 142.96 203.97 143.43 203.29 143.89C203.47 143.33 203.58 142.8 203.76 142.24C204.42 139.64 205.26 136.6 205.79 135.44L205.82 135.51ZM191.4 164.2C190.93 164.61 190.41 164.97 189.93 165.09C189.49 165.21 189.14 165.12 189.01 164.61C188.92 164.27 188.93 163.76 189.1 163.03C190.36 157.99 193.99 152.92 199.31 148.05C197.35 154.54 194.81 161.04 191.4 164.21V164.2Z" fill="#323334"></path><path d="M205.86 126.37C205.02 126.88 204.3 129.42 204.59 130.39C204.78 130.99 205.68 131.52 205.99 130.78C206.25 130.1 207.44 128.3 207.96 127.91C208.29 127.64 208.6 127.71 208.7 127.68C208.8 127.65 208.46 127.2 208.07 126.94C207.5 126.55 206.57 126.06 205.85 126.36L205.86 126.37Z" fill="#323334"></path><path d="M220.67 133.04C217.99 136.78 213.02 143.12 210.54 143.76C209.8 143.95 209.43 143.8 209.35 143.38C209.22 142.47 209.58 141.22 210.01 140.35C213.78 139.26 219.02 132.67 218.47 130.57C218.22 129.62 216.46 129.25 215.95 129.38C214.49 129.76 211.75 131.6 209.55 134.68C207.88 137.03 206.71 139.62 206.4 141.77C206.32 142.58 206.3 143.32 206.51 144.13C206.75 145.04 208.43 145.91 209.48 145.64C213.99 144.46 219.04 136.22 220.97 133.19C221.05 133.06 220.76 132.95 220.68 133.05L220.67 133.04ZM217.2 130.15C217.33 131.49 213.14 138.45 210.28 139.56C210.93 137.47 213.76 132.35 217.2 130.15Z" fill="#323334"></path><path d="M162.59 185.53C162.59 185.53 162.67 185.53 162.7 185.53C162.7 185.51 162.71 185.5 162.72 185.48C162.58 185.41 162.44 185.34 162.29 185.29C162.13 185.24 162.04 185.16 162.03 184.98C162.01 184.77 161.72 184.62 161.53 184.74C161.4 184.82 161.32 184.8 161.2 184.72C161.01 184.61 160.87 184.48 160.85 184.24C160.84 184.29 160.83 184.35 160.81 184.44C160.71 184.25 160.62 184.09 160.54 183.93C160.53 183.95 160.52 183.97 160.5 184C160.42 183.92 160.35 183.85 160.26 183.76C160.19 183.96 160.17 183.96 160.03 183.85C159.99 183.82 159.92 183.83 159.87 183.83C159.84 183.83 159.82 183.86 159.79 183.88C159.76 183.89 159.73 183.9 159.66 183.92C159.81 184.09 159.94 184.24 160.07 184.39C160.06 184.41 160.04 184.43 160.02 184.44C159.96 184.41 159.9 184.38 159.84 184.35C159.83 184.35 159.82 184.36 159.8 184.37C159.84 184.42 159.86 184.5 159.91 184.52C160.06 184.59 160.23 184.63 160.41 184.67C160.29 184.55 160.18 184.44 160.06 184.32C160.06 184.32 160.07 184.31 160.08 184.3C160.29 184.51 160.51 184.73 160.72 184.94C160.58 184.88 160.45 184.85 160.3 184.91C160.48 185 160.78 184.92 160.75 185.27C160.51 185.2 160.63 185.52 160.43 185.55C160.43 185.5 160.41 185.45 160.4 185.38C160.25 185.45 160.24 185.3 160.18 185.23C159.97 185.01 159.76 184.79 159.56 184.56C159.54 184.54 159.53 184.53 159.51 184.51C159.41 184.38 159.31 184.31 159.15 184.33C159.06 184.33 158.97 184.41 158.84 184.47C158.96 184.59 159.04 184.66 159.11 184.74C159.14 184.78 159.12 184.84 159.13 184.89C159.09 184.89 159.05 184.89 159.01 184.89C158.94 184.89 158.88 184.87 158.8 184.89C159.13 185.13 159.47 185.38 159.81 185.63C159.78 185.65 159.75 185.67 159.68 185.71C159.82 185.77 160.04 185.73 160 185.98C159.86 185.99 159.71 186.12 159.57 185.95C159.54 185.91 159.52 185.86 159.51 185.82C159.5 185.7 159.5 185.58 159.49 185.45C159.47 185.45 159.45 185.45 159.43 185.45C159.43 185.59 159.43 185.74 159.43 185.88C159.41 185.88 159.4 185.88 159.38 185.88C159.36 185.78 159.35 185.68 159.33 185.57C159.31 185.57 159.3 185.57 159.28 185.57C159.28 185.65 159.26 185.73 159.25 185.81C159.24 185.81 159.23 185.81 159.22 185.82C159.17 185.67 159.12 185.52 159.05 185.37C158.97 185.19 158.86 185.05 158.64 185.04C158.58 185.04 158.53 184.96 158.47 184.93C158.42 184.9 158.37 184.87 158.31 184.83C158.29 184.86 158.28 184.89 158.27 184.91C158.22 184.91 158.13 184.88 158.12 184.9C158.08 184.97 157.92 184.96 158 185.11C158.04 185.19 158.03 185.3 158.05 185.41C158.06 185.45 158.06 185.51 158.09 185.53C158.26 185.66 158.43 185.78 158.59 185.94C158.47 185.88 158.34 185.81 158.24 185.76C158.28 185.96 158.32 186.14 158.36 186.33C158.33 186.33 158.31 186.35 158.28 186.35C158.2 186.13 158.11 185.91 158.04 185.71C157.85 185.63 157.68 185.56 157.51 185.5C157.5 185.51 157.49 185.53 157.48 185.54C157.55 185.67 157.62 185.8 157.7 185.93C157.7 185.93 157.68 185.94 157.68 185.95C157.61 185.87 157.53 185.8 157.47 185.71C157.33 185.51 157.29 185.5 157.06 185.62C157.11 185.69 157.16 185.76 157.21 185.82C157.21 185.83 157.2 185.84 157.19 185.85C157.15 185.84 157.11 185.83 157.07 185.81C157.06 185.81 157.05 185.82 157.04 185.83C157.17 186.01 157.29 186.18 157.41 186.35C157.39 186.35 157.34 186.34 157.28 186.33C157.26 186.42 157.23 186.52 157.21 186.63C157.1 186.46 157 186.29 156.89 186.11C156.89 186.11 156.87 186.12 156.86 186.13C156.94 186.29 157.01 186.45 157.09 186.6C157.09 186.6 157.07 186.6 157.07 186.62C156.93 186.41 156.79 186.2 156.65 185.99C156.63 186 156.62 186.01 156.6 186.02C156.63 186.08 156.67 186.15 156.72 186.25C156.6 186.16 156.52 186.1 156.42 186.03C156.25 186.27 156.5 186.39 156.58 186.6C156.51 186.53 156.47 186.49 156.43 186.45C156.39 186.41 156.36 186.36 156.31 186.34C156.25 186.31 156.19 186.29 156.13 186.26C156.15 186.32 156.17 186.38 156.2 186.44C156.21 186.47 156.24 186.49 156.29 186.55C156.2 186.49 156.15 186.45 156.1 186.42C156.09 186.43 156.08 186.44 156.07 186.45C156.19 186.57 156.31 186.69 156.43 186.81C156.43 186.82 156.41 186.83 156.4 186.84C156.35 186.82 156.3 186.81 156.26 186.78C156.08 186.61 155.85 186.68 155.64 186.67C155.59 186.67 155.51 186.76 155.48 186.83C155.47 186.86 155.52 186.93 155.56 186.98C155.65 187.09 155.75 187.2 155.82 187.34C155.7 187.23 155.58 187.12 155.46 187.03C155.42 187 155.35 186.99 155.3 186.97C155.32 187.03 155.32 187.11 155.36 187.15C155.51 187.32 155.68 187.47 155.82 187.66C155.66 187.57 155.51 187.47 155.35 187.39C155.29 187.36 155.21 187.39 155.14 187.38C155.14 187.45 155.12 187.52 155.14 187.59C155.14 187.64 155.18 187.69 155.18 187.76L154.85 187.43C154.85 187.43 154.82 187.46 154.8 187.47C154.87 187.59 154.94 187.71 155.02 187.83C154.69 187.53 154.63 187.51 154.48 187.68C154.61 187.84 154.75 188 154.85 188.13C154.77 188.08 154.64 187.99 154.51 187.91C154.5 187.92 154.49 187.93 154.48 187.94C154.51 187.99 154.55 188.03 154.58 188.08C154.47 188.13 154.38 187.94 154.25 188.08C154.18 188.16 153.98 188.08 153.99 188.3C153.94 188.28 153.9 188.26 153.87 188.24C153.86 188.25 153.84 188.26 153.83 188.27C153.89 188.35 153.94 188.43 154.01 188.51C153.92 188.46 153.85 188.42 153.77 188.38C153.93 188.75 154.24 188.98 154.49 189.24C154.21 189.08 153.92 188.91 153.6 188.71C153.61 188.79 153.62 188.84 153.63 188.9C153.56 188.83 153.51 188.74 153.45 188.73C153.41 188.73 153.34 188.81 153.25 188.89C153.04 188.84 153.09 189.13 152.92 189.23C153.12 189.43 153.31 189.62 153.51 189.81C153.51 189.81 153.49 189.83 153.48 189.84C153.38 189.77 153.27 189.7 153.13 189.61C153.19 189.82 153.24 189.97 153.28 190.12C153.26 190.12 153.24 190.13 153.22 190.14C153.18 190.03 153.14 189.91 153.1 189.8C153.07 189.8 153.04 189.8 153 189.81C153.02 189.86 153.04 189.9 153.07 189.95C153.07 189.95 153.06 189.95 153.05 189.95C152.94 189.8 152.83 189.65 152.72 189.5C152.71 189.5 152.69 189.52 152.68 189.52C152.7 189.61 152.73 189.7 152.76 189.81C152.67 189.74 152.58 189.62 152.55 189.63C152.43 189.69 152.34 189.79 152.24 189.87C152.36 190.04 152.47 190.2 152.59 190.37C152.52 190.36 152.47 190.35 152.42 190.34C152.42 190.35 152.4 190.37 152.39 190.38C152.47 190.46 152.54 190.53 152.62 190.61C152.61 190.62 152.59 190.64 152.58 190.65C152.47 190.56 152.36 190.46 152.24 190.36C152.16 190.41 152.14 190.48 152.13 190.61C152.12 190.89 152.32 191.07 152.37 191.32C152.19 190.98 151.97 190.69 151.6 190.52C151.54 190.59 151.45 190.67 151.39 190.77C151.37 190.81 151.39 190.91 151.43 190.95C151.53 191.07 151.64 191.17 151.75 191.27C151.73 191.29 151.72 191.31 151.7 191.33C151.6 191.27 151.51 191.21 151.41 191.15C151.4 191.18 151.38 191.22 151.35 191.27C151.28 191.23 151.21 191.2 151.1 191.14C151.18 191.29 151.23 191.4 151.29 191.51C151.28 191.51 151.27 191.52 151.26 191.53C151.22 191.47 151.17 191.41 151.13 191.35C151.08 191.29 151.04 191.24 150.96 191.21C151.1 191.44 151.25 191.66 151.39 191.89C151.39 191.89 151.38 191.9 151.37 191.91C151.18 191.72 150.98 191.52 150.79 191.33C150.77 191.34 150.75 191.36 150.74 191.37C150.85 191.51 150.96 191.64 151.07 191.78C151.07 191.78 151.07 191.78 151.06 191.79C150.98 191.71 150.9 191.64 150.82 191.55C150.72 191.43 150.71 191.42 150.57 191.47C150.61 191.56 150.8 191.63 150.64 191.76C150.67 191.88 150.87 191.92 150.73 192.09C150.67 192 150.62 191.92 150.57 191.84C150.46 191.85 150.44 191.9 150.49 192C150.61 192.23 150.73 192.45 150.82 192.7C150.65 192.44 150.49 192.18 150.32 191.92C150.31 191.92 150.29 191.94 150.28 191.94C150.3 191.99 150.32 192.05 150.34 192.1C150.34 192.1 150.33 192.11 150.32 192.12C150.25 192.05 150.19 191.99 150.09 191.89C150.13 191.99 150.14 192.04 150.16 192.09C149.98 192.16 149.95 192.21 150.1 192.33C150.29 192.48 150.33 192.7 150.39 192.91C150.39 192.93 150.37 192.96 150.35 192.99C150.3 193.07 150.28 193.15 150.37 193.23C150.49 193.12 150.63 193.19 150.65 193.29C150.69 193.5 150.86 193.51 150.99 193.58C151.15 193.67 151.18 193.86 151.06 193.95C151.1 194.06 151.13 194.15 151.16 194.25C151.14 194.25 151.13 194.26 151.12 194.27C151.09 194.23 151.07 194.2 151.04 194.17C150.92 194.22 150.8 194.26 150.68 194.32C150.55 194.38 150.42 194.44 150.32 194.54C149.68 195.16 149.04 195.79 148.4 196.42C147.75 197.07 147.11 197.72 146.46 198.37C145.81 199.02 145.16 199.66 144.51 200.31C143.94 200.88 143.38 201.45 142.81 202.02C142.24 202.59 141.66 203.15 141.1 203.72C140.9 203.92 140.71 204.12 140.51 204.32C140.31 204.12 140.12 203.92 139.92 203.72C139.35 203.15 138.77 202.59 138.21 202.02C137.64 201.45 137.08 200.87 136.51 200.31C135.86 199.66 135.21 199.02 134.56 198.37C133.91 197.72 133.27 197.07 132.62 196.42C131.99 195.79 131.35 195.16 130.71 194.54C130.61 194.45 130.48 194.39 130.35 194.32C130.24 194.26 130.11 194.22 129.99 194.17C129.97 194.2 129.94 194.24 129.91 194.27C129.9 194.27 129.88 194.26 129.87 194.25C129.9 194.15 129.94 194.06 129.97 193.95C129.85 193.86 129.88 193.67 130.04 193.58C130.17 193.51 130.34 193.49 130.38 193.29C130.4 193.2 130.54 193.12 130.66 193.23C130.75 193.15 130.74 193.08 130.68 192.99C130.67 192.97 130.64 192.93 130.65 192.91C130.72 192.7 130.75 192.48 130.94 192.33C131.09 192.22 131.06 192.16 130.88 192.09C130.9 192.04 130.92 191.99 130.95 191.89C130.85 191.99 130.78 192.06 130.72 192.12C130.72 192.12 130.71 192.12 130.7 192.1C130.72 192.05 130.74 191.99 130.76 191.94L130.72 191.92C130.55 192.18 130.39 192.44 130.22 192.7C130.31 192.46 130.42 192.23 130.55 192C130.61 191.9 130.58 191.85 130.47 191.84C130.42 191.92 130.37 192 130.31 192.09C130.17 191.92 130.38 191.88 130.4 191.76C130.24 191.64 130.42 191.57 130.47 191.47C130.33 191.42 130.32 191.43 130.22 191.55C130.15 191.64 130.06 191.71 129.98 191.79C129.98 191.79 129.98 191.79 129.97 191.78C130.08 191.64 130.19 191.51 130.3 191.37C130.28 191.36 130.26 191.34 130.25 191.33C130.06 191.52 129.86 191.72 129.67 191.91C129.67 191.91 129.66 191.9 129.65 191.89C129.79 191.66 129.94 191.44 130.08 191.21C130 191.24 129.95 191.29 129.91 191.35C129.86 191.41 129.82 191.47 129.78 191.53C129.77 191.53 129.76 191.52 129.75 191.51C129.81 191.4 129.87 191.29 129.94 191.14C129.83 191.19 129.76 191.23 129.69 191.27C129.67 191.22 129.65 191.18 129.63 191.15C129.53 191.21 129.43 191.27 129.34 191.33C129.32 191.31 129.31 191.29 129.29 191.27C129.4 191.16 129.51 191.06 129.61 190.95C129.65 190.91 129.67 190.81 129.65 190.77C129.59 190.67 129.5 190.59 129.44 190.52C129.07 190.69 128.85 190.98 128.67 191.32C128.72 191.07 128.92 190.89 128.91 190.61C128.91 190.48 128.88 190.41 128.8 190.36C128.68 190.46 128.57 190.56 128.46 190.65C128.45 190.63 128.43 190.62 128.42 190.61C128.5 190.53 128.57 190.46 128.65 190.38C128.65 190.36 128.63 190.35 128.62 190.34C128.57 190.34 128.52 190.35 128.45 190.37C128.57 190.2 128.68 190.04 128.8 189.87C128.7 189.79 128.6 189.69 128.49 189.63C128.46 189.61 128.36 189.73 128.28 189.81C128.31 189.7 128.33 189.61 128.36 189.52C128.35 189.52 128.33 189.5 128.32 189.5C128.21 189.65 128.1 189.8 127.99 189.95C127.99 189.95 127.98 189.95 127.97 189.95C127.99 189.9 128.01 189.86 128.04 189.81C128.01 189.81 127.98 189.81 127.94 189.8C127.9 189.91 127.86 190.03 127.82 190.14C127.8 190.14 127.78 190.13 127.76 190.12C127.81 189.97 127.85 189.81 127.91 189.61C127.77 189.71 127.66 189.78 127.56 189.84C127.56 189.84 127.54 189.82 127.53 189.81C127.72 189.62 127.91 189.43 128.12 189.23C127.95 189.12 128 188.84 127.79 188.89C127.7 188.82 127.63 188.72 127.59 188.73C127.53 188.74 127.48 188.83 127.41 188.9C127.42 188.83 127.43 188.79 127.44 188.71C127.12 188.9 126.83 189.07 126.55 189.24C126.8 188.98 127.11 188.75 127.27 188.38C127.19 188.42 127.12 188.46 127.03 188.51C127.09 188.42 127.15 188.34 127.21 188.27C127.2 188.26 127.18 188.25 127.17 188.24C127.13 188.26 127.09 188.28 127.05 188.3C127.06 188.08 126.86 188.16 126.79 188.08C126.67 187.95 126.57 188.14 126.46 188.08C126.49 188.03 126.53 187.99 126.56 187.94C126.56 187.93 126.54 187.92 126.53 187.91C126.4 187.99 126.27 188.08 126.19 188.13C126.29 188.01 126.43 187.85 126.56 187.68C126.41 187.51 126.35 187.53 126.02 187.83C126.1 187.7 126.17 187.58 126.24 187.47C126.22 187.46 126.2 187.44 126.19 187.43C126.08 187.54 125.97 187.65 125.86 187.76C125.86 187.69 125.89 187.64 125.9 187.59C125.9 187.52 125.9 187.45 125.9 187.38C125.83 187.38 125.75 187.36 125.69 187.39C125.53 187.47 125.38 187.57 125.22 187.66C125.36 187.48 125.53 187.32 125.68 187.15C125.72 187.11 125.72 187.03 125.74 186.97C125.68 186.99 125.62 187 125.58 187.03C125.45 187.13 125.34 187.24 125.22 187.34C125.29 187.2 125.39 187.1 125.48 186.98C125.52 186.94 125.57 186.86 125.56 186.83C125.53 186.76 125.45 186.66 125.4 186.67C125.19 186.68 124.97 186.61 124.78 186.78C124.74 186.81 124.69 186.82 124.64 186.84C124.64 186.83 124.62 186.82 124.61 186.81C124.73 186.69 124.85 186.57 124.97 186.45C124.96 186.44 124.95 186.43 124.94 186.42C124.89 186.45 124.84 186.49 124.75 186.55C124.8 186.49 124.82 186.46 124.84 186.44C124.87 186.38 124.88 186.32 124.91 186.26C124.85 186.28 124.78 186.3 124.72 186.34C124.67 186.37 124.64 186.42 124.6 186.45C124.56 186.48 124.52 186.53 124.45 186.6C124.52 186.38 124.78 186.27 124.61 186.03C124.52 186.1 124.43 186.16 124.31 186.25C124.36 186.15 124.4 186.08 124.43 186.02C124.41 186.01 124.4 186 124.38 185.99C124.24 186.2 124.1 186.41 123.96 186.62C123.96 186.62 123.94 186.61 123.94 186.6C124.02 186.44 124.09 186.28 124.17 186.13C124.16 186.13 124.15 186.12 124.14 186.11C124.03 186.28 123.92 186.46 123.82 186.63C123.79 186.52 123.77 186.42 123.75 186.33C123.69 186.34 123.65 186.35 123.62 186.35C123.74 186.18 123.87 186 123.99 185.83C123.98 185.83 123.97 185.82 123.96 185.81C123.92 185.82 123.88 185.83 123.84 185.85L123.82 185.82C123.87 185.75 123.92 185.69 123.97 185.62C123.73 185.5 123.7 185.51 123.56 185.71C123.5 185.79 123.42 185.87 123.35 185.95C123.35 185.95 123.33 185.94 123.33 185.93C123.4 185.8 123.47 185.67 123.55 185.54C123.54 185.52 123.53 185.51 123.52 185.5C123.35 185.57 123.18 185.64 122.99 185.71C122.92 185.91 122.83 186.13 122.75 186.35C122.72 186.35 122.7 186.33 122.67 186.33C122.71 186.15 122.74 185.97 122.78 185.76C122.68 185.81 122.56 185.88 122.43 185.94C122.59 185.78 122.76 185.66 122.93 185.53C122.96 185.51 122.96 185.45 122.97 185.41C122.99 185.3 122.97 185.19 123.02 185.11C123.1 184.96 122.94 184.96 122.9 184.9C122.89 184.88 122.8 184.9 122.75 184.91C122.74 184.89 122.72 184.87 122.71 184.83C122.65 184.87 122.6 184.9 122.55 184.93C122.49 184.97 122.44 185.04 122.38 185.04C122.16 185.05 122.05 185.2 121.97 185.37C121.9 185.52 121.86 185.67 121.8 185.82C121.79 185.82 121.78 185.82 121.77 185.81C121.77 185.73 121.75 185.65 121.74 185.57C121.72 185.57 121.71 185.57 121.69 185.57C121.67 185.67 121.66 185.77 121.64 185.88C121.62 185.88 121.61 185.88 121.59 185.88C121.59 185.74 121.59 185.59 121.59 185.45C121.57 185.45 121.55 185.45 121.53 185.45C121.53 185.57 121.53 185.69 121.51 185.82C121.51 185.87 121.48 185.91 121.45 185.95C121.31 186.12 121.16 186 121.02 185.98C120.98 185.73 121.2 185.78 121.34 185.71C121.27 185.67 121.24 185.64 121.21 185.63C121.55 185.38 121.89 185.14 122.22 184.89C122.14 184.87 122.07 184.89 122.01 184.89C121.97 184.89 121.93 184.89 121.89 184.89C121.89 184.84 121.89 184.77 121.91 184.74C121.98 184.65 122.06 184.58 122.18 184.47C122.05 184.41 121.97 184.34 121.87 184.33C121.72 184.31 121.62 184.38 121.51 184.51C121.5 184.53 121.48 184.54 121.46 184.56C121.25 184.78 121.05 185.01 120.84 185.23C120.77 185.3 120.76 185.46 120.62 185.38C120.61 185.45 120.6 185.5 120.59 185.55C120.4 185.52 120.52 185.2 120.27 185.27C120.24 184.92 120.54 185 120.72 184.91C120.58 184.85 120.45 184.88 120.31 184.94C120.52 184.73 120.74 184.51 120.95 184.3C120.95 184.3 120.96 184.32 120.97 184.32C120.85 184.44 120.74 184.55 120.62 184.67C120.8 184.63 120.96 184.59 121.12 184.52C121.17 184.5 121.19 184.42 121.23 184.37C121.22 184.37 121.21 184.36 121.19 184.35C121.13 184.38 121.07 184.41 121.01 184.44C120.99 184.42 120.98 184.4 120.96 184.39C121.09 184.24 121.22 184.09 121.37 183.92C121.3 183.9 121.27 183.89 121.24 183.88C121.21 183.87 121.18 183.84 121.15 183.83C121.1 183.83 121.03 183.82 120.99 183.85C120.85 183.96 120.83 183.96 120.76 183.76C120.67 183.85 120.6 183.92 120.52 184C120.5 183.97 120.49 183.95 120.48 183.93C120.39 184.09 120.31 184.25 120.21 184.44C120.19 184.35 120.18 184.3 120.17 184.24C120.15 184.48 120.01 184.6 119.82 184.72C119.69 184.8 119.62 184.82 119.49 184.74C119.3 184.63 119.01 184.77 118.99 184.98C118.98 185.16 118.88 185.24 118.73 185.29C118.58 185.34 118.44 185.42 118.3 185.48C118.3 185.5 118.31 185.51 118.32 185.53C118.36 185.53 118.4 185.53 118.43 185.53C118.3 185.73 118.01 185.75 117.96 186.02C118 186.06 118.04 186.1 118.08 186.14C118.05 186.19 118.02 186.22 118 186.25C118.04 186.25 118.08 186.27 118.07 186.27C118.06 186.38 118.04 186.47 118.05 186.56C118.05 186.58 118.13 186.6 118.17 186.61C118.17 186.63 118.17 186.66 118.15 186.72C118.22 186.69 118.27 186.66 118.27 186.66C118.26 186.76 118.25 186.87 118.23 186.99C118.25 186.98 118.28 186.97 118.3 186.96C118.41 187.02 118.51 187.09 118.62 187.15C118.67 187.11 118.74 187.06 118.81 187.02C118.81 187.03 118.83 187.05 118.84 187.06C118.82 187.1 118.81 187.14 118.78 187.19C119.05 187.24 118.73 187.4 118.86 187.5C118.94 187.44 119.03 187.37 119.13 187.29C119.1 187.47 118.84 187.5 118.89 187.73C118.99 187.65 119.06 187.59 119.14 187.53C119.16 187.55 119.17 187.56 119.19 187.58C119.16 187.63 119.12 187.67 119.1 187.72C119.08 187.79 119.04 187.88 119.07 187.92C119.13 187.99 119.22 188.01 119.3 187.92C119.32 187.9 119.37 187.9 119.41 187.89C119.41 187.93 119.42 187.98 119.41 188.02C119.41 188.05 119.39 188.08 119.38 188.11C119.42 188.11 119.45 188.11 119.47 188.11C119.52 188.13 119.57 188.15 119.61 188.16C119.59 188.2 119.56 188.24 119.55 188.29C119.53 188.35 119.52 188.41 119.5 188.46C119.52 188.47 119.54 188.48 119.55 188.49C119.74 188.3 119.93 188.11 120.12 187.91C120.14 187.93 120.15 187.94 120.17 187.96C120 188.14 119.82 188.31 119.65 188.48C119.56 188.57 119.57 188.69 119.69 188.74C119.83 188.8 119.99 188.82 120.13 188.88C120.17 188.89 120.19 188.96 120.2 189.01C120.2 189.04 120.17 189.07 120.15 189.1C120.15 189.1 120.17 189.1 120.17 189.11C120.29 189.02 120.4 188.94 120.52 188.85C120.53 188.87 120.54 188.88 120.56 188.9C120.44 189.02 120.32 189.14 120.2 189.26C120.4 189.38 120.45 189.13 120.6 189.12C120.53 189.27 120.34 189.35 120.4 189.56C120.46 189.54 120.51 189.53 120.56 189.52C120.56 189.58 120.56 189.63 120.57 189.69C120.63 189.66 120.67 189.64 120.71 189.61C120.73 189.67 120.75 189.72 120.77 189.78C120.91 189.71 121.05 189.65 121.18 189.58C121.13 189.7 121.03 189.78 120.98 189.88C120.94 189.97 120.89 190.12 120.94 190.18C121.01 190.28 121.08 190.16 121.15 190.1C121.24 190.02 121.33 189.93 121.42 189.85C121.43 189.86 121.44 189.87 121.46 189.88C121.34 190.02 121.23 190.15 121.11 190.28C121.12 190.3 121.13 190.32 121.15 190.33C121.27 190.26 121.39 190.2 121.49 190.15C121.44 190.31 121.4 190.47 121.35 190.62C121.37 190.62 121.38 190.63 121.4 190.64C121.45 190.61 121.5 190.58 121.55 190.55C121.72 190.67 121.54 190.73 121.51 190.82C121.62 190.88 121.71 190.86 121.79 190.76C121.87 190.67 121.98 190.59 122.07 190.51C122 190.64 121.9 190.73 121.8 190.83C121.69 190.95 121.7 191.06 121.84 191.13C121.95 191.18 122.07 191.21 122.16 191.25C122.25 191.2 122.32 191.15 122.39 191.11L122.44 191.16C122.38 191.28 122.32 191.4 122.24 191.55C122.34 191.5 122.41 191.47 122.48 191.43C122.48 191.43 122.49 191.44 122.5 191.45C122.44 191.5 122.37 191.56 122.3 191.62C122.38 191.67 122.45 191.69 122.5 191.73C122.55 191.76 122.58 191.81 122.63 191.83C122.73 191.87 122.83 191.89 122.95 191.92C123.15 191.76 123.19 191.75 123.28 191.87C123.14 191.97 123.01 192.07 122.87 192.16C122.88 192.18 122.9 192.2 122.91 192.22C123.21 192.02 123.52 191.82 123.82 191.62C123.82 191.63 123.84 191.64 123.85 191.65C123.62 191.88 123.39 192.11 123.15 192.35C123.29 192.52 123.36 192.35 123.43 192.3C123.52 192.24 123.59 192.15 123.67 192.07C123.68 192.08 123.69 192.09 123.7 192.11C123.66 192.14 123.62 192.17 123.59 192.21C123.51 192.28 123.43 192.34 123.36 192.42C123.34 192.45 123.33 192.52 123.34 192.54C123.46 192.71 123.62 192.74 123.8 192.63C123.82 192.61 123.85 192.6 123.88 192.58C123.88 192.58 123.9 192.6 123.91 192.61C123.85 192.67 123.79 192.73 123.73 192.79C123.84 192.9 123.92 192.94 124.04 192.83C124.16 192.72 124.3 192.63 124.43 192.54C124.44 192.56 124.46 192.57 124.47 192.59C124.33 192.71 124.19 192.82 124.05 192.95C124.01 192.99 123.98 193.06 123.99 193.1C124.02 193.16 124.1 193.26 124.13 193.25C124.31 193.2 124.37 193.31 124.41 193.43C124.53 193.36 124.65 193.29 124.78 193.21C124.72 193.3 124.68 193.38 124.63 193.46C124.63 193.47 124.65 193.48 124.66 193.49C124.74 193.45 124.82 193.41 124.94 193.35C124.733 193.577 124.657 193.723 124.71 193.79C124.88 193.68 125.05 193.58 125.23 193.47C125.18 193.58 125.09 193.65 125.02 193.74C124.97 193.8 124.94 193.88 124.9 193.96C124.97 193.96 125.05 193.94 125.11 193.94C125.09 193.96 125.06 194 125 194.08C125.11 194.08 125.19 194.09 125.28 194.1C125.32 194.17 125.38 194.26 125.44 194.35C125.5 194.45 125.55 194.55 125.62 194.68C125.83 194.52 126.02 194.37 126.22 194.22C126.1 194.43 125.82 194.53 125.81 194.83C125.88 194.8 125.94 194.77 125.99 194.75C125.99 194.77 125.99 194.78 125.99 194.79C126.05 194.81 126.1 194.84 126.16 194.85C126.29 194.87 126.32 194.94 126.25 195.05C126.23 195.07 126.25 195.13 126.25 195.16C126.3 195.23 126.37 195.28 126.43 195.35C126.57 195.23 126.73 195.1 126.9 194.97C126.9 194.98 126.92 194.99 126.93 195C126.8 195.11 126.68 195.22 126.55 195.32C126.41 195.43 126.41 195.47 126.57 195.6C126.74 195.46 126.93 195.32 127.09 195.16C127.19 195.06 127.29 194.97 127.46 195.05C127.44 195.1 127.44 195.17 127.4 195.19C127.25 195.3 127.3 195.41 127.35 195.51C127.61 195.51 127.75 195.23 128.06 195.23C127.99 195.32 127.96 195.37 127.91 195.42C127.8 195.54 127.68 195.66 127.57 195.78C127.4 195.98 127.4 195.98 127.57 196.13C127.77 196 127.96 195.87 128.19 195.72C128.17 195.8 128.16 195.84 128.13 195.92C128.23 195.87 128.3 195.84 128.41 195.79C128.34 195.86 128.3 195.9 128.26 195.94C128.27 195.95 128.29 195.97 128.3 195.98C128.35 195.93 128.4 195.88 128.44 195.82C128.48 195.77 128.49 195.7 128.53 195.65C128.63 195.55 128.71 195.4 128.89 195.45C128.91 195.45 128.93 195.42 128.96 195.41C129.01 195.39 129.07 195.37 129.17 195.33C129.13 195.43 129.11 195.49 129.09 195.53C129.16 195.62 129.21 195.69 129.26 195.77C129.33 195.87 129.38 195.99 129.46 196.08C129.63 196.26 129.81 196.43 129.99 196.61C130.7 197.32 131.4 198.04 132.11 198.76C132.61 199.26 133.11 199.76 133.61 200.26C134.19 200.84 134.76 201.43 135.33 202.01C136.12 202.81 136.91 203.6 137.7 204.4C138.16 204.86 138.62 205.33 139.08 205.8C138.79 206.09 138.5 206.38 138.21 206.67C137.71 207.17 137.22 207.66 136.73 208.16C136.41 208.48 136.1 208.8 135.78 209.11C135.66 209.23 135.52 209.33 135.38 209.43C135.35 209.45 135.29 209.45 135.26 209.43C135.1 209.33 134.96 209.21 134.8 209.12C134.56 208.98 134.33 208.83 134.08 208.71C133.72 208.54 133.35 208.38 132.98 208.25C132.77 208.18 132.54 208.16 132.32 208.14C131.99 208.12 131.65 208.08 131.33 208.21C131.22 208.26 131.09 208.3 131.01 208.39C130.81 208.62 130.57 208.73 130.27 208.72C129.76 208.72 129.36 208.93 129.06 209.34C128.95 209.48 128.85 209.63 128.72 209.77C128.58 209.92 128.42 210.04 128.28 210.19C127.87 210.63 127.47 211.07 127.06 211.51C126.74 211.86 126.41 212.21 126.09 212.55C125.54 213.15 124.98 213.75 124.43 214.35C124.02 214.79 123.62 215.22 123.21 215.66C122.67 216.25 122.12 216.84 121.58 217.42C121.17 217.86 120.76 218.3 120.35 218.75C119.8 219.34 119.25 219.93 118.71 220.53C118.49 220.77 118.28 221.02 118.08 221.28C118 221.38 117.97 221.53 117.95 221.66C117.86 222.57 118.13 223.39 118.54 224.19C118.86 224.81 119.21 225.4 119.64 225.95C119.82 226.18 120.03 226.38 120.25 226.58C120.6 226.91 120.96 227.23 121.33 227.53C121.99 228.05 122.75 228.36 123.58 228.49C124.03 228.56 124.48 228.58 124.93 228.62C124.99 228.62 125.06 228.6 125.11 228.56C125.59 228.12 126.06 227.68 126.53 227.24C127.04 226.76 127.56 226.28 128.07 225.8C128.58 225.32 129.08 224.84 129.59 224.37C130.1 223.89 130.61 223.41 131.13 222.93C131.63 222.47 132.12 222 132.61 221.53C133.12 221.05 133.64 220.56 134.15 220.07C134.76 219.5 135.36 218.92 135.97 218.35C136.46 217.89 136.95 217.43 137.44 216.96C137.5 216.9 137.55 216.79 137.56 216.71C137.57 216.55 137.55 216.4 137.56 216.24C137.56 216.19 137.6 216.13 137.64 216.09C137.75 215.98 137.87 215.88 137.99 215.78C138.29 215.54 138.35 215.21 138.39 214.86C138.41 214.66 138.42 214.45 138.41 214.25C138.4 214.06 138.35 213.88 138.32 213.69C138.24 213.28 138.07 212.9 137.89 212.53C137.77 212.29 137.62 212.08 137.47 211.86C137.35 211.68 137.21 211.51 137.08 211.33C137.06 211.3 137.04 211.28 137.01 211.26C136.86 211.17 136.85 211.11 136.98 210.99C137.78 210.19 138.58 209.39 139.38 208.59C139.8 208.17 140.21 207.76 140.62 207.34C141.03 207.76 141.45 208.18 141.86 208.59C142.66 209.39 143.46 210.19 144.26 210.99C144.38 211.11 144.38 211.17 144.23 211.26C144.2 211.28 144.18 211.3 144.16 211.33C144.03 211.51 143.89 211.68 143.77 211.86C143.62 212.08 143.47 212.3 143.35 212.53C143.16 212.9 142.99 213.28 142.92 213.69C142.89 213.88 142.84 214.06 142.83 214.25C142.82 214.45 142.83 214.66 142.85 214.86C142.89 215.21 142.95 215.54 143.25 215.78C143.37 215.87 143.49 215.98 143.6 216.09C143.64 216.13 143.68 216.19 143.68 216.24C143.68 216.4 143.66 216.56 143.68 216.71C143.68 216.8 143.73 216.9 143.8 216.96C144.28 217.43 144.78 217.89 145.27 218.35C145.88 218.92 146.48 219.5 147.09 220.07C147.6 220.55 148.12 221.04 148.63 221.53C149.12 222 149.62 222.46 150.11 222.93C150.62 223.41 151.13 223.89 151.65 224.37C152.16 224.85 152.66 225.33 153.17 225.8C153.68 226.28 154.19 226.76 154.71 227.24C155.18 227.68 155.65 228.12 156.13 228.56C156.17 228.6 156.25 228.62 156.31 228.62C156.76 228.58 157.21 228.56 157.66 228.49C158.49 228.36 159.25 228.05 159.91 227.53C160.29 227.23 160.64 226.9 160.99 226.58C161.21 226.38 161.42 226.18 161.6 225.95C162.02 225.4 162.38 224.81 162.7 224.19C163.11 223.4 163.37 222.57 163.29 221.66C163.28 221.53 163.24 221.38 163.16 221.28C162.97 221.02 162.75 220.77 162.53 220.53C161.99 219.93 161.44 219.34 160.89 218.75C160.48 218.31 160.07 217.87 159.66 217.42C159.12 216.83 158.57 216.24 158.03 215.66C157.62 215.22 157.22 214.78 156.81 214.35C156.26 213.75 155.7 213.15 155.15 212.55C154.83 212.2 154.5 211.85 154.18 211.51C153.77 211.07 153.37 210.62 152.96 210.19C152.82 210.04 152.66 209.92 152.52 209.77C152.4 209.64 152.29 209.49 152.18 209.34C151.88 208.93 151.49 208.71 150.97 208.72C150.67 208.72 150.43 208.61 150.23 208.39C150.15 208.3 150.02 208.25 149.91 208.21C149.59 208.08 149.25 208.12 148.92 208.14C148.7 208.16 148.47 208.18 148.26 208.25C147.88 208.38 147.52 208.54 147.16 208.71C146.91 208.83 146.68 208.98 146.44 209.12C146.28 209.22 146.14 209.33 145.98 209.43C145.95 209.45 145.88 209.46 145.86 209.43C145.72 209.33 145.58 209.23 145.46 209.11C145.14 208.8 144.83 208.48 144.51 208.16C144.02 207.66 143.52 207.16 143.03 206.67C142.74 206.38 142.45 206.09 142.16 205.8C142.62 205.34 143.08 204.87 143.54 204.4C144.33 203.6 145.12 202.81 145.91 202.01C146.49 201.43 147.06 200.84 147.63 200.26C148.13 199.76 148.63 199.26 149.13 198.76C149.84 198.04 150.54 197.33 151.25 196.61C151.42 196.43 151.61 196.27 151.78 196.08C151.86 195.99 151.91 195.87 151.98 195.77C152.03 195.69 152.09 195.62 152.15 195.53C152.13 195.49 152.11 195.43 152.07 195.33C152.17 195.37 152.23 195.38 152.28 195.41C152.31 195.42 152.33 195.46 152.35 195.45C152.53 195.4 152.62 195.54 152.71 195.65C152.75 195.7 152.76 195.77 152.8 195.82C152.84 195.88 152.89 195.93 152.94 195.98C152.95 195.97 152.97 195.95 152.98 195.94C152.94 195.9 152.9 195.86 152.83 195.79C152.94 195.84 153.01 195.88 153.11 195.92C153.09 195.84 153.07 195.8 153.05 195.72C153.28 195.87 153.47 196 153.67 196.13C153.83 195.98 153.84 195.97 153.67 195.78C153.56 195.65 153.44 195.54 153.33 195.42C153.29 195.37 153.25 195.32 153.18 195.23C153.49 195.23 153.63 195.5 153.89 195.51C153.94 195.41 153.99 195.3 153.84 195.19C153.8 195.16 153.8 195.1 153.78 195.05C153.95 194.98 154.04 195.06 154.15 195.16C154.32 195.32 154.5 195.46 154.67 195.6C154.83 195.47 154.83 195.43 154.69 195.32C154.56 195.22 154.44 195.1 154.31 195C154.32 194.99 154.33 194.98 154.34 194.97C154.5 195.1 154.66 195.23 154.8 195.35C154.87 195.28 154.93 195.23 154.98 195.16C155 195.14 155 195.08 154.98 195.05C154.91 194.94 154.93 194.87 155.07 194.85C155.13 194.85 155.18 194.81 155.24 194.79C155.24 194.78 155.24 194.76 155.24 194.75C155.29 194.78 155.35 194.8 155.42 194.83C155.42 194.53 155.13 194.43 155.01 194.22C155.21 194.37 155.4 194.52 155.61 194.68C155.68 194.56 155.73 194.45 155.79 194.35C155.84 194.26 155.9 194.17 155.95 194.1C156.05 194.1 156.12 194.08 156.23 194.08C156.17 194 156.14 193.97 156.12 193.94C156.18 193.94 156.26 193.95 156.33 193.96C156.29 193.89 156.26 193.81 156.21 193.74C156.14 193.65 156.05 193.58 156 193.47C156.17 193.58 156.34 193.68 156.52 193.79C156.573 193.723 156.497 193.577 156.29 193.35C156.41 193.41 156.49 193.45 156.57 193.49C156.57 193.48 156.59 193.47 156.6 193.46C156.55 193.38 156.51 193.31 156.45 193.21C156.58 193.29 156.69 193.35 156.82 193.43C156.87 193.31 156.92 193.19 157.1 193.25C157.13 193.25 157.21 193.16 157.24 193.1C157.26 193.07 157.22 192.99 157.18 192.95C157.05 192.83 156.9 192.71 156.76 192.59C156.77 192.57 156.79 192.55 156.8 192.54C156.93 192.63 157.07 192.72 157.19 192.83C157.31 192.94 157.39 192.89 157.5 192.79C157.44 192.73 157.38 192.67 157.32 192.61C157.32 192.61 157.34 192.59 157.35 192.58C157.38 192.6 157.4 192.61 157.43 192.63C157.61 192.74 157.77 192.72 157.89 192.54C157.91 192.51 157.89 192.44 157.87 192.42C157.8 192.34 157.72 192.28 157.64 192.21C157.6 192.18 157.56 192.14 157.53 192.11C157.54 192.1 157.55 192.09 157.56 192.07C157.64 192.15 157.71 192.24 157.8 192.3C157.87 192.35 157.94 192.52 158.08 192.35C157.84 192.11 157.61 191.88 157.38 191.65C157.38 191.64 157.4 191.63 157.41 191.62C157.71 191.82 158.02 192.02 158.32 192.22C158.33 192.2 158.35 192.18 158.36 192.16C158.22 192.06 158.09 191.97 157.95 191.87C158.03 191.75 158.08 191.76 158.28 191.92C158.4 191.89 158.51 191.87 158.6 191.83C158.65 191.81 158.68 191.76 158.73 191.73C158.79 191.69 158.85 191.66 158.93 191.62C158.86 191.56 158.8 191.51 158.73 191.45C158.73 191.45 158.74 191.43 158.75 191.43C158.82 191.46 158.89 191.5 158.99 191.55C158.91 191.4 158.85 191.28 158.79 191.16L158.84 191.11C158.91 191.15 158.98 191.2 159.07 191.25C159.16 191.22 159.28 191.19 159.39 191.13C159.53 191.06 159.54 190.95 159.43 190.83C159.33 190.73 159.24 190.64 159.16 190.51C159.25 190.6 159.36 190.67 159.44 190.76C159.52 190.85 159.61 190.88 159.72 190.82C159.69 190.73 159.51 190.67 159.68 190.55C159.73 190.58 159.78 190.61 159.83 190.64C159.85 190.64 159.86 190.63 159.88 190.62C159.83 190.46 159.79 190.31 159.74 190.15C159.84 190.2 159.96 190.27 160.08 190.33L160.12 190.28C160 190.15 159.89 190.01 159.77 189.88C159.78 189.87 159.79 189.86 159.81 189.85C159.9 189.93 159.99 190.02 160.08 190.1C160.14 190.15 160.22 190.28 160.29 190.18C160.33 190.12 160.29 189.97 160.25 189.88C160.2 189.78 160.1 189.7 160.06 189.58C160.19 189.64 160.33 189.71 160.47 189.78C160.49 189.72 160.51 189.67 160.53 189.61C160.57 189.63 160.61 189.66 160.67 189.69C160.67 189.63 160.67 189.58 160.67 189.52C160.72 189.53 160.77 189.55 160.83 189.56C160.9 189.35 160.7 189.27 160.63 189.12C160.78 189.13 160.82 189.38 161.03 189.26C160.91 189.14 160.79 189.02 160.67 188.9C160.68 188.88 160.69 188.87 160.71 188.85C160.83 188.94 160.94 189.03 161.06 189.11C161.06 189.11 161.08 189.11 161.08 189.1C161.06 189.07 161.03 189.03 161.03 189.01C161.03 188.96 161.06 188.89 161.1 188.88C161.24 188.83 161.4 188.8 161.54 188.74C161.65 188.69 161.66 188.57 161.58 188.48C161.41 188.3 161.23 188.13 161.06 187.96C161.08 187.94 161.09 187.93 161.11 187.91C161.3 188.1 161.49 188.29 161.68 188.49C161.7 188.48 161.72 188.47 161.73 188.46C161.71 188.4 161.7 188.34 161.68 188.29C161.66 188.25 161.64 188.21 161.62 188.16C161.67 188.14 161.72 188.12 161.76 188.11C161.79 188.11 161.81 188.11 161.85 188.11C161.84 188.07 161.82 188.04 161.82 188.02C161.82 187.98 161.82 187.93 161.82 187.89C161.86 187.89 161.91 187.89 161.93 187.92C162.01 188.01 162.1 187.99 162.16 187.92C162.19 187.89 162.16 187.79 162.13 187.72C162.11 187.67 162.07 187.63 162.04 187.58C162.06 187.56 162.07 187.55 162.09 187.53C162.16 187.59 162.24 187.65 162.34 187.73C162.39 187.5 162.12 187.47 162.1 187.29C162.2 187.37 162.28 187.43 162.37 187.5C162.5 187.4 162.18 187.24 162.45 187.19C162.43 187.14 162.41 187.1 162.39 187.06C162.39 187.05 162.41 187.03 162.42 187.02C162.49 187.07 162.55 187.11 162.61 187.15C162.71 187.09 162.82 187.02 162.93 186.96C162.95 186.97 162.98 186.98 163 186.99C162.99 186.87 162.97 186.75 162.96 186.66C162.96 186.66 163.01 186.69 163.09 186.72C163.09 186.67 163.08 186.63 163.07 186.61C163.11 186.59 163.19 186.58 163.19 186.56C163.19 186.47 163.18 186.38 163.17 186.27C163.17 186.27 163.21 186.27 163.24 186.25C163.22 186.22 163.2 186.19 163.16 186.14C163.2 186.1 163.24 186.06 163.28 186.02C163.23 185.75 162.94 185.72 162.81 185.53H162.59ZM118.9 185.1C119.02 185.19 119.11 185.26 119.21 185.34C118.99 185.36 118.94 185.34 118.9 185.1ZM122.01 187.08C121.99 187.02 121.96 186.98 121.95 186.93C121.9 186.77 121.88 186.59 121.63 186.61C121.63 186.59 121.63 186.57 121.63 186.55C121.77 186.49 121.91 186.43 122.06 186.36C122.12 186.61 122.1 186.99 122.01 187.07V187.08ZM122.24 186.74C122.24 186.74 122.22 186.74 122.21 186.73C122.18 186.57 122.15 186.42 122.12 186.26C122.28 186.3 122.28 186.03 122.43 185.98C122.45 185.99 122.47 186 122.49 186.01C122.41 186.25 122.33 186.5 122.24 186.74ZM122.42 191.17C122.42 191.17 122.4 191.15 122.39 191.14C122.51 191.02 122.63 190.9 122.75 190.79C122.75 190.79 122.77 190.81 122.78 190.82C122.66 190.94 122.54 191.06 122.43 191.17H122.42ZM122.86 187.81C122.69 187.67 122.84 187.36 122.53 187.33C122.53 187.31 122.53 187.3 122.54 187.29C122.68 187.26 122.81 187.23 122.95 187.2C122.95 187.19 122.95 187.17 122.95 187.16C122.89 187.16 122.83 187.15 122.77 187.14C122.77 187.13 122.77 187.11 122.77 187.1C122.86 187.08 122.94 187.06 123.08 187.02C122.95 187.3 123.07 187.59 122.86 187.82V187.81ZM123.16 187.32C123.16 187.18 123.07 187.02 123.24 186.89C123.24 186.88 123.24 186.86 123.24 186.84C123.07 186.89 122.89 186.94 122.72 186.99C122.72 186.97 122.71 186.95 122.7 186.94C122.86 186.88 123.06 186.85 123.18 186.74C123.3 186.63 123.39 186.5 123.55 186.45C123.44 186.75 123.33 187.04 123.22 187.33C123.21 187.33 123.19 187.33 123.18 187.33L123.16 187.32ZM123.68 188.41H123.61C123.6 188.34 123.59 188.26 123.57 188.16C123.59 188.16 123.57 188.16 123.55 188.16C123.53 188.16 123.5 188.14 123.48 188.1C123.54 188.1 123.6 188.1 123.69 188.09C123.69 188.21 123.69 188.31 123.69 188.42L123.68 188.41ZM124.19 192.11C124.19 192.11 124.16 192.08 124.15 192.06C124.23 191.99 124.31 191.92 124.39 191.85C124.41 191.87 124.42 191.89 124.44 191.91C124.35 191.98 124.27 192.04 124.19 192.11ZM124.5 188.97C124.47 188.89 124.43 188.81 124.38 188.69C124.33 188.79 124.31 188.84 124.26 188.92C124.18 188.88 124.09 188.83 124 188.78C124.09 188.69 124.45 188.62 124.52 188.65C124.59 188.69 124.58 188.84 124.5 188.97ZM125.29 189.43C125.15 189.43 125.02 189.42 124.87 189.41C124.98 189.23 125.14 189.3 125.3 189.28C125.3 189.35 125.3 189.4 125.29 189.43ZM125.95 190.68C125.89 190.52 125.83 190.36 125.76 190.18C125.82 190.17 125.87 190.16 125.94 190.14C125.97 190.33 125.99 190.5 126.02 190.67C126 190.67 125.97 190.67 125.95 190.68ZM125.95 188.47C126.04 188.4 126.12 188.34 126.22 188.27C126.19 188.53 126.15 188.56 125.95 188.47ZM126.12 194.72C126.12 194.72 126.09 194.68 126.08 194.66C126.16 194.61 126.24 194.55 126.32 194.5C126.33 194.52 126.35 194.54 126.36 194.56C126.28 194.61 126.2 194.67 126.12 194.72ZM126.28 190.38C126.28 190.38 126.27 190.38 126.26 190.38C126.25 190.18 126.23 189.97 126.22 189.75C126.28 189.73 126.36 189.7 126.48 189.66C126.41 189.92 126.35 190.15 126.28 190.38ZM128.16 192.53C128.21 192.52 128.27 192.51 128.33 192.5C128.33 192.6 128.34 192.69 128.35 192.77C128.19 192.8 128.16 192.78 128.1 192.55C128.12 192.55 128.14 192.53 128.16 192.53ZM126.99 191.21C126.84 190.98 126.85 190.9 127.02 190.88C127.02 190.99 127 191.1 126.99 191.21ZM126.91 190.62C126.91 190.62 126.83 190.62 126.83 190.6C126.83 190.57 126.83 190.52 126.84 190.5C126.9 190.44 126.97 190.39 127.06 190.33C127.08 190.48 127.1 190.6 126.92 190.61L126.91 190.62ZM126.96 189.32C126.96 189.32 126.94 189.31 126.92 189.3C126.98 189.17 126.92 188.97 127.15 188.9C127.08 189.05 127.02 189.18 126.95 189.31L126.96 189.32ZM127.3 190.17C127.27 190.34 127.24 190.46 127.21 190.59C127.1 190.45 127.12 190.29 127.3 190.17ZM127.29 194.95C127.29 194.95 127.27 194.92 127.26 194.9C127.37 194.83 127.49 194.76 127.6 194.69C127.61 194.71 127.63 194.73 127.64 194.75C127.53 194.82 127.41 194.89 127.3 194.95H127.29ZM127.64 192.11C127.58 191.96 127.52 191.81 127.46 191.64C127.52 191.61 127.57 191.59 127.64 191.55C127.66 191.74 127.68 191.91 127.69 192.08C127.67 192.08 127.65 192.09 127.64 192.1V192.11ZM127.79 191.81C127.72 191.55 127.74 191.5 127.93 191.46C127.97 191.69 127.93 191.78 127.79 191.81ZM127.73 195.84L127.71 195.82C127.92 195.61 128.13 195.4 128.35 195.18L128.37 195.2C128.16 195.41 127.95 195.62 127.73 195.84ZM128.54 192.59C128.5 192.47 128.45 192.34 128.5 192.22C128.53 192.22 128.56 192.22 128.58 192.22C128.57 192.34 128.55 192.46 128.54 192.58V192.59ZM129.12 193.6C129.06 193.56 128.99 193.52 128.93 193.48C128.93 193.47 128.95 193.45 128.95 193.44C129.03 193.44 129.16 193.38 129.16 193.54C129.15 193.56 129.13 193.58 129.12 193.6ZM128.87 193.25C129.15 193.18 129.16 193.18 129.13 193.35C129.05 193.32 128.97 193.29 128.87 193.25ZM129.05 192.09C128.99 192.22 128.95 192.37 128.9 192.5C128.87 192.59 128.82 192.67 128.79 192.76C128.78 192.76 128.77 192.76 128.76 192.76C128.76 192.73 128.74 192.7 128.76 192.67C128.83 192.48 128.81 192.28 128.83 192.08C128.85 191.93 128.9 191.81 129.06 191.76C129.13 191.73 129.2 191.68 129.27 191.64C129.28 191.65 129.3 191.66 129.31 191.67C129.23 191.81 129.14 191.94 129.07 192.09H129.05ZM129.79 192.72C129.76 192.81 129.74 192.88 129.71 192.96C129.71 192.98 129.65 192.99 129.62 192.99C129.6 192.99 129.58 192.94 129.58 192.92C129.59 192.81 129.63 192.72 129.79 192.73V192.72ZM129.45 192.82C129.45 192.82 129.48 192.84 129.49 192.86C129.477 192.967 129.413 193.017 129.3 193.01C129.35 192.95 129.4 192.88 129.45 192.82ZM129.58 193.07C129.58 193.07 129.63 193.1 129.66 193.11C129.6 193.22 129.54 193.34 129.48 193.45C129.46 193.45 129.45 193.43 129.43 193.43C129.48 193.31 129.53 193.19 129.58 193.07ZM129.67 194.35C129.62 194.26 129.56 194.17 129.49 194.04C129.57 194.04 129.68 194.03 129.68 194.04C129.7 194.14 129.71 194.24 129.72 194.34C129.71 194.34 129.69 194.34 129.68 194.34L129.67 194.35ZM129.47 193.92C129.47 193.92 129.45 193.89 129.45 193.87C129.53 193.81 129.61 193.76 129.71 193.68C129.71 193.79 129.71 193.85 129.72 193.94C129.64 193.94 129.55 193.93 129.47 193.92ZM151.04 192.72C151.2 192.72 151.24 192.8 151.25 192.91C151.25 192.93 151.23 192.98 151.21 192.98C151.18 192.98 151.13 192.98 151.12 192.95C151.09 192.88 151.07 192.8 151.04 192.71V192.72ZM151.16 194.35C151.16 194.35 151.13 194.35 151.12 194.35C151.13 194.25 151.13 194.15 151.16 194.05C151.16 194.04 151.27 194.05 151.35 194.05C151.27 194.18 151.22 194.27 151.17 194.36L151.16 194.35ZM151.36 193.92C151.28 193.92 151.19 193.93 151.11 193.94C151.11 193.86 151.11 193.79 151.12 193.68C151.22 193.76 151.3 193.81 151.38 193.87C151.38 193.89 151.36 193.9 151.36 193.92ZM151.36 193.46C151.3 193.35 151.24 193.23 151.18 193.12C151.21 193.11 151.23 193.09 151.26 193.08C151.31 193.2 151.36 193.32 151.41 193.44C151.39 193.44 151.38 193.45 151.36 193.46ZM151.34 192.85C151.34 192.85 151.37 192.83 151.38 192.81C151.43 192.87 151.48 192.94 151.53 193C151.423 193.007 151.36 192.957 151.34 192.85ZM151.71 193.6C151.71 193.6 151.68 193.56 151.67 193.54C151.67 193.38 151.8 193.45 151.88 193.44C151.88 193.45 151.9 193.47 151.9 193.48C151.84 193.52 151.77 193.56 151.71 193.6ZM151.69 193.35C151.66 193.18 151.68 193.17 151.96 193.25C151.85 193.29 151.77 193.32 151.69 193.35ZM152.09 192.75C152.09 192.75 152.07 192.75 152.06 192.75C152.02 192.66 151.98 192.58 151.95 192.49C151.9 192.35 151.86 192.21 151.8 192.08C151.73 191.94 151.64 191.8 151.56 191.66C151.57 191.65 151.59 191.64 151.6 191.63C151.67 191.67 151.73 191.72 151.81 191.75C151.97 191.81 152.02 191.92 152.04 192.07C152.06 192.27 152.04 192.47 152.11 192.66C152.11 192.69 152.11 192.72 152.1 192.75H152.09ZM152.29 192.59C152.28 192.47 152.26 192.35 152.25 192.23C152.28 192.23 152.31 192.23 152.33 192.23C152.37 192.35 152.33 192.47 152.29 192.6V192.59ZM152.5 192.5C152.57 192.51 152.62 192.52 152.68 192.53C152.7 192.53 152.72 192.55 152.74 192.55C152.67 192.78 152.65 192.8 152.49 192.77C152.49 192.69 152.5 192.6 152.51 192.5H152.5ZM153.12 195.82L153.1 195.84C152.89 195.63 152.68 195.42 152.46 195.2L152.48 195.18C152.69 195.39 152.9 195.6 153.12 195.82ZM153.04 191.81C152.9 191.78 152.86 191.69 152.9 191.46C153.09 191.5 153.11 191.55 153.04 191.81ZM153.14 192.09C153.16 191.92 153.18 191.75 153.19 191.56C153.26 191.59 153.31 191.62 153.37 191.65C153.31 191.81 153.25 191.96 153.19 192.12C153.17 192.12 153.15 192.11 153.14 192.1V192.09ZM153.54 194.95C153.43 194.88 153.31 194.81 153.2 194.75C153.21 194.73 153.23 194.71 153.24 194.69C153.35 194.76 153.46 194.83 153.58 194.9C153.57 194.92 153.56 194.93 153.55 194.95H153.54ZM153.62 190.59C153.59 190.46 153.57 190.34 153.53 190.17C153.71 190.29 153.73 190.45 153.62 190.59ZM153.67 188.91C153.91 188.98 153.84 189.17 153.9 189.31C153.89 189.31 153.88 189.32 153.86 189.33C153.8 189.2 153.73 189.07 153.66 188.92L153.67 188.91ZM153.84 191.21C153.84 191.1 153.82 190.99 153.81 190.88C153.98 190.9 153.99 190.98 153.84 191.21ZM153.93 190.62C153.75 190.62 153.76 190.49 153.79 190.34C153.87 190.4 153.94 190.45 154 190.51C154.02 190.53 154.02 190.58 154.01 190.61C154.01 190.62 153.96 190.63 153.93 190.63V190.62ZM154.61 189.75C154.59 189.97 154.58 190.17 154.57 190.38C154.57 190.38 154.56 190.38 154.55 190.38C154.49 190.15 154.43 189.92 154.35 189.66C154.47 189.7 154.55 189.73 154.61 189.75ZM154.71 194.72C154.63 194.67 154.55 194.61 154.47 194.56C154.48 194.54 154.5 194.52 154.51 194.5C154.59 194.55 154.67 194.61 154.75 194.66C154.74 194.68 154.72 194.7 154.71 194.72ZM154.62 188.27C154.71 188.34 154.8 188.4 154.89 188.47C154.69 188.57 154.65 188.54 154.62 188.27ZM154.88 190.68C154.88 190.68 154.83 190.68 154.81 190.67C154.84 190.5 154.86 190.33 154.89 190.14C154.96 190.15 155.01 190.16 155.07 190.18C155 190.36 154.94 190.52 154.88 190.68ZM155.54 189.43C155.54 189.43 155.54 189.35 155.53 189.28C155.69 189.3 155.85 189.23 155.96 189.41C155.81 189.41 155.69 189.42 155.54 189.43ZM156.64 192.11C156.55 192.04 156.47 191.98 156.39 191.91C156.41 191.89 156.42 191.87 156.44 191.85C156.52 191.92 156.6 191.99 156.68 192.06C156.67 192.08 156.65 192.09 156.64 192.11ZM156.56 188.92C156.52 188.83 156.49 188.78 156.44 188.69C156.39 188.81 156.36 188.89 156.32 188.97C156.23 188.85 156.22 188.69 156.3 188.65C156.37 188.62 156.72 188.69 156.82 188.78C156.73 188.83 156.64 188.88 156.56 188.92ZM157.28 188.15C157.28 188.15 157.23 188.16 157.26 188.15C157.24 188.25 157.23 188.33 157.22 188.4H157.15C157.15 188.29 157.15 188.19 157.14 188.07C157.23 188.07 157.29 188.07 157.35 188.08C157.33 188.12 157.31 188.13 157.28 188.14V188.15ZM157.67 187.32H157.63C157.52 187.04 157.41 186.75 157.3 186.45C157.46 186.5 157.55 186.64 157.67 186.74C157.8 186.85 157.99 186.87 158.15 186.94C158.15 186.96 158.14 186.97 158.13 186.99C157.95 186.94 157.78 186.89 157.6 186.84C157.6 186.86 157.6 186.87 157.6 186.89C157.76 187.02 157.67 187.17 157.67 187.32ZM157.97 187.81C157.76 187.58 157.88 187.29 157.75 187.01C157.89 187.05 157.98 187.07 158.06 187.09C158.06 187.1 158.06 187.11 158.06 187.13C158 187.13 157.94 187.14 157.88 187.15V187.19C158.02 187.22 158.15 187.25 158.29 187.28C158.29 187.29 158.29 187.31 158.3 187.32C158 187.35 158.15 187.67 157.97 187.8V187.81ZM158.41 191.17C158.29 191.05 158.17 190.93 158.06 190.82C158.06 190.82 158.08 190.8 158.09 190.79C158.21 190.91 158.33 191.03 158.44 191.14C158.44 191.14 158.42 191.16 158.41 191.17ZM158.62 186.72C158.62 186.72 158.6 186.72 158.59 186.73C158.51 186.49 158.43 186.24 158.34 186C158.36 185.99 158.38 185.98 158.4 185.97C158.55 186.02 158.55 186.29 158.71 186.25C158.68 186.41 158.65 186.57 158.62 186.72ZM158.88 186.93C158.88 186.93 158.84 187.02 158.82 187.08C158.73 187 158.71 186.62 158.77 186.37C158.92 186.43 159.06 186.49 159.2 186.56C159.2 186.58 159.2 186.6 159.2 186.62C158.95 186.59 158.93 186.78 158.88 186.94V186.93ZM161.62 185.34C161.72 185.26 161.81 185.19 161.93 185.1C161.89 185.33 161.84 185.37 161.62 185.34Z" fill="#323334"></path><path d="M137.45 0.830078C62.09 0.830078 0.780029 62.1401 0.780029 137.5C0.780029 212.86 62.09 274.17 137.45 274.17C212.81 274.17 274.12 212.86 274.12 137.5C274.12 62.1401 212.81 0.830078 137.45 0.830078ZM137.45 251.63C74.52 251.63 23.32 200.43 23.32 137.5C23.32 74.5701 74.52 23.3701 137.45 23.3701C200.38 23.3701 251.58 74.5701 251.58 137.5C251.58 200.43 200.38 251.63 137.45 251.63Z" fill="#323334"></path><path d="M269.9 5.06006C272.72 7.88006 274.13 11.2801 274.13 15.2501C274.13 19.2201 272.69 22.8 269.81 25.6C267.01 28.31 263.64 29.67 259.71 29.67C255.78 29.67 252.24 28.2801 249.46 25.5001C246.68 22.7201 245.29 19.3001 245.29 15.2501C245.29 11.2001 246.79 7.53005 249.79 4.74005C252.61 2.13005 255.91 0.830078 259.71 0.830078C263.51 0.830078 267.09 2.24006 269.9 5.06006ZM259.71 3.29004C256.4 3.29004 253.57 4.49008 251.24 6.89008C248.94 9.24008 247.8 12.0201 247.8 15.2401C247.8 18.4601 248.97 21.4201 251.3 23.7501C253.62 26.0801 256.43 27.2501 259.71 27.2501C262.99 27.2501 265.78 26.08 268.1 23.73C270.42 21.37 271.58 18.5401 271.58 15.2401C271.58 11.9401 270.43 9.25008 268.12 6.89008C265.79 4.49008 262.98 3.29004 259.71 3.29004ZM257.57 17.6201V23.2701H253.38V7.28009C254.37 7.28009 255.86 7.28009 257.83 7.28009C259.8 7.28009 260.91 7.30006 261.13 7.31006C262.4 7.40006 263.45 7.68007 264.28 8.13007C265.7 8.91007 266.41 10.1801 266.41 11.9501C266.41 13.2901 266.03 14.2701 265.28 14.8701C264.53 15.4701 263.61 15.8301 262.51 15.9501C263.51 16.1601 264.27 16.4701 264.78 16.8701C265.72 17.6301 266.19 18.8201 266.19 20.4501V21.8801C266.19 22.0401 266.19 22.19 266.22 22.35C266.25 22.51 266.28 22.6601 266.33 22.8201L266.47 23.2701H262.48C262.35 22.7601 262.26 22.0201 262.23 21.0601C262.2 20.1001 262.11 19.44 261.98 19.1C261.77 18.54 261.38 18.1501 260.81 17.9301C260.5 17.8001 260.02 17.7101 259.38 17.6801L258.46 17.6201H257.58H257.57ZM259.2 14.7401C260.18 14.7401 260.94 14.5401 261.49 14.1501C262.04 13.7601 262.31 13.1301 262.31 12.2501C262.31 11.3701 261.88 10.7701 261.02 10.4301C260.45 10.2101 259.64 10.1 258.59 10.1H257.57V14.7401H259.19H259.2Z" fill="#323334"></path></svg>