<svg width="39" height="40" viewBox="0 0 39 40" fill="none" xmlns="http://www.w3.org/2000/svg">
<path d="M38.6901 19.1703C38.6901 18.9903 38.6701 18.8204 38.6601 18.6404C38.6001 17.7004 38.4701 16.7804 38.2701 15.8604C37.8201 13.7504 37.0301 11.7703 35.9001 9.92035C34.7001 7.95035 33.2001 6.25035 31.4001 4.82035C29.5601 3.36035 27.5301 2.27035 25.2901 1.55035C23.6001 1.01035 21.8701 0.71035 20.1001 0.64035C20.1001 0.63035 20.1001 0.620352 20.1001 0.610352H18.7001C18.7001 0.610352 18.7001 0.63035 18.7001 0.64035C17.7701 0.68035 16.8501 0.78035 15.9301 0.94035C14.3101 1.23035 12.7501 1.73035 11.2601 2.43035C8.74007 3.61035 6.57008 5.26035 4.75008 7.37035C3.11008 9.27035 1.90008 11.4204 1.10008 13.8004C0.730082 14.9004 0.460074 16.0203 0.310074 17.1703C0.220074 17.8003 0.14008 18.4404 0.16008 19.0804C0.13008 19.2404 0.140078 19.4104 0.0800781 19.5704V20.5103C0.110078 20.6603 0.160081 20.8104 0.130081 20.9604C0.170081 21.1304 0.170069 21.3104 0.180069 21.4804C0.300069 23.1004 0.63007 24.6704 1.15007 26.2004C1.72007 27.8704 2.51007 29.4203 3.51007 30.8703C3.98007 31.5503 4.49008 32.2004 5.05008 32.8204C6.31008 34.2304 7.75008 35.4204 9.36008 36.4104C10.9701 37.4004 12.6901 38.1303 14.5201 38.6003C15.2301 38.7903 15.9501 38.9304 16.6701 39.0404C17.0801 39.1004 17.4901 39.1603 17.9001 39.1703C18.0401 39.1703 18.1701 39.2004 18.3101 39.2104C18.5201 39.2104 18.7401 39.2003 18.9501 39.2403H19.8201C20.0301 39.2003 20.2501 39.2104 20.4601 39.2104C20.9701 39.1604 21.4701 39.1303 21.9801 39.0603C22.8401 38.9503 23.6901 38.7704 24.5201 38.5404C25.8901 38.1704 27.2001 37.6404 28.4501 36.9804C29.6501 36.3404 30.7701 35.5803 31.8101 34.7003C32.3101 34.2803 32.7801 33.8503 33.2301 33.3803C34.3701 32.2003 35.3501 30.9004 36.1701 29.4804C36.8601 28.2704 37.4101 27.0003 37.8301 25.6703C38.1101 24.7803 38.3201 23.8703 38.4601 22.9403C38.5501 22.3103 38.6401 21.6904 38.6501 21.0504C38.6501 21.0104 38.6601 20.9603 38.6701 20.9203C38.6701 20.8803 38.6701 20.8404 38.6601 20.8004C38.6801 20.6304 38.6801 20.4503 38.6901 20.2803C38.7001 20.2803 38.7101 20.2803 38.7201 20.2803V19.1504C38.7201 19.1504 38.7001 19.1504 38.6901 19.1504V19.1703ZM16.6501 36.6703C16.6501 36.6703 16.6501 36.6703 16.6401 36.6703C16.6401 36.6703 16.6401 36.6703 16.6501 36.6703C16.6501 36.6703 16.6501 36.6704 16.6501 36.6504C16.6501 36.6504 16.6501 36.6603 16.6501 36.6703C16.7401 36.6903 16.8201 36.7004 16.9101 36.7204C16.8201 36.7104 16.7401 36.6903 16.6501 36.6703ZM36.2901 20.8904C36.2501 21.6404 36.1601 22.3904 36.0101 23.1304C35.7901 24.2604 35.4701 25.3604 35.0301 26.4304C34.4701 27.7904 33.7401 29.0504 32.8501 30.2204C32.3201 30.9204 31.7301 31.5804 31.1001 32.1904C30.0301 33.2104 28.8401 34.0804 27.5401 34.8004C26.1401 35.5704 24.6701 36.1204 23.1201 36.4704C22.5601 36.6004 21.9901 36.6904 21.4201 36.7604C20.4401 36.8804 19.4701 36.8904 18.4901 36.8604C18.1101 36.8504 17.7301 36.8204 17.3501 36.7604C17.1201 36.6904 16.8901 36.6704 16.6601 36.6504C16.6201 36.6504 16.5901 36.6504 16.5501 36.6504C16.5301 36.6104 16.5001 36.6104 16.4601 36.6204C16.4601 36.6204 16.4601 36.6404 16.4601 36.6504C16.4601 36.6504 16.4601 36.6304 16.4601 36.6204C16.2901 36.6104 16.1301 36.5603 15.9601 36.5303C14.3101 36.1903 12.7501 35.6204 11.2801 34.8004C8.38007 33.1904 6.13007 30.9403 4.54007 28.0303C3.27007 25.7203 2.62008 23.2403 2.49008 20.6203C2.43008 19.4303 2.54008 18.2504 2.74008 17.0804C3.10008 14.9804 3.83007 13.0103 4.95007 11.1903C6.81007 8.17035 9.35007 5.93035 12.5901 4.49035C14.6901 3.55035 16.8901 3.09035 19.1801 3.06035C19.8701 3.06035 20.5601 3.08035 21.2501 3.14035C21.5101 3.16035 21.7801 3.18035 22.0301 3.24035C22.1101 3.29035 22.1901 3.28035 22.2801 3.28035C22.3401 3.35035 22.4301 3.33035 22.5101 3.35035C24.2601 3.67035 25.9101 4.27035 27.4701 5.11035C28.4601 5.64035 29.3801 6.27035 30.2401 6.99035C30.8701 7.52035 31.4601 8.08035 32.0001 8.69035C32.8401 9.64035 33.5801 10.6604 34.1901 11.7704C34.7201 12.7204 35.1501 13.7204 35.4901 14.7504C35.7701 15.6204 35.9901 16.5103 36.1201 17.4203C36.1901 17.8703 36.2301 18.3303 36.2701 18.7803C36.3401 19.4903 36.3301 20.2004 36.2901 20.9104V20.8904ZM16.9501 36.7204C16.9501 36.7204 16.9801 36.7204 17.0001 36.7204C16.9801 36.7204 16.9701 36.7204 16.9501 36.7204Z" fill="#323334"/>
<path d="M17.0098 4.57049C17.0098 5.39049 17.0098 6.20049 17.0098 7.02049C17.0098 7.84049 17.0098 8.69049 17.0098 9.53049C17.0098 9.69049 17.0098 9.69049 17.1698 9.70049C17.1898 9.70049 17.2098 9.70049 17.2298 9.70049C18.3498 9.70049 19.4698 9.70049 20.5798 9.70049C20.6998 9.70049 20.8198 9.70049 20.9398 9.68049C21.8498 9.58049 22.4698 8.74049 22.3398 7.84049C22.2898 7.51049 22.1498 7.23049 21.9298 6.99049C21.8698 6.92049 21.8598 6.87049 21.9198 6.80049C22.0298 6.66049 22.0998 6.50049 22.1598 6.33049C22.2398 6.10049 22.2798 5.87049 22.2298 5.63049C22.0698 4.87049 21.3798 4.35049 20.6698 4.36049C19.5098 4.36049 18.3498 4.36049 17.1898 4.36049C17.1598 4.36049 17.1398 4.36049 17.1098 4.36049C17.0498 4.36049 17.0198 4.38049 17.0198 4.45049C17.0198 4.49049 17.0198 4.54049 17.0198 4.58049L17.0098 4.57049ZM20.9998 8.19049C20.9298 8.39049 20.7798 8.51049 20.5398 8.51049C20.1798 8.51049 19.8098 8.51049 19.4498 8.51049C19.0898 8.51049 18.7298 8.51049 18.3798 8.51049C18.2498 8.51049 18.2498 8.51049 18.2498 8.38049C18.2498 8.13049 18.2498 7.88049 18.2498 7.63049C18.2498 7.54049 18.2798 7.51049 18.3698 7.51049C19.0898 7.51049 19.8098 7.51049 20.5398 7.51049C20.9598 7.51049 21.1098 7.90049 21.0098 8.19049H20.9998ZM18.3598 5.48049C18.7098 5.48049 19.0598 5.48049 19.4198 5.48049C19.7798 5.48049 20.1398 5.48049 20.4898 5.48049C20.6998 5.48049 20.8498 5.61049 20.9098 5.80049C20.9598 5.98049 20.8998 6.17049 20.7498 6.29049C20.6598 6.36049 20.5598 6.39049 20.4498 6.39049C19.7498 6.39049 19.0598 6.39049 18.3598 6.39049C18.2698 6.39049 18.2398 6.36049 18.2398 6.27049C18.2398 6.04049 18.2398 5.82049 18.2398 5.59049C18.2398 5.50049 18.2698 5.47049 18.3598 5.48049Z" fill="#323334"/>
<path d="M8.91977 19.83C8.85977 19.77 8.84977 19.72 8.90977 19.66C8.93977 19.63 8.95977 19.59 8.97977 19.55C9.12977 19.28 9.25978 19 9.23978 18.68C9.20978 17.9 8.51977 17.21 7.66977 17.21C6.49977 17.21 5.32977 17.21 4.15977 17.21C4.00977 17.21 4.00977 17.21 4.00977 17.37C4.00977 19.04 4.00977 20.71 4.00977 22.38C4.00977 22.54 4.00976 22.54 4.17976 22.54C4.78976 22.54 5.39977 22.54 6.00977 22.54C6.63977 22.54 7.26977 22.57 7.88977 22.54C8.82977 22.49 9.47977 21.61 9.32977 20.68C9.27977 20.36 9.13977 20.08 8.91977 19.85V19.83ZM5.35977 18.33C5.70977 18.33 6.05977 18.33 6.41977 18.33C6.73977 18.33 7.05978 18.33 7.37978 18.33C7.46978 18.33 7.55977 18.33 7.63977 18.36C7.81977 18.43 7.92977 18.61 7.91977 18.81C7.91977 19 7.77977 19.17 7.58977 19.22C7.51977 19.24 7.44978 19.24 7.37978 19.24C6.71978 19.24 6.05977 19.24 5.39977 19.24C5.23977 19.24 5.22977 19.24 5.22977 19.08C5.22977 18.87 5.22977 18.67 5.22977 18.46C5.22977 18.36 5.25977 18.33 5.35977 18.33ZM7.99977 21.03C7.93977 21.24 7.77977 21.36 7.52977 21.37C7.16977 21.37 6.79977 21.37 6.43977 21.37C6.07977 21.37 5.72977 21.37 5.36977 21.37C5.23977 21.37 5.23978 21.37 5.23978 21.24C5.23978 21 5.23978 20.75 5.23978 20.51C5.23978 20.37 5.23977 20.37 5.36977 20.37C6.07977 20.37 6.78977 20.37 7.49977 20.37C7.89977 20.37 8.11977 20.67 8.00977 21.04L7.99977 21.03Z" fill="#323334"/>
<path d="M17.0098 26.3404V27.3604C17.0098 27.8604 17.0098 28.3704 17.0098 28.8704C17.0098 29.0404 17.0098 29.0404 17.1898 29.0404C17.2098 29.0404 17.2298 29.0404 17.2498 29.0404C18.7098 29.0404 20.1698 29.0404 21.6198 29.0404C21.6598 29.0404 21.6998 29.0404 21.7298 29.0404C21.8198 29.0404 21.8498 29.0104 21.8498 28.9204C21.8498 28.6204 21.8498 28.3304 21.8498 28.0304C21.8498 27.8904 21.8498 27.8904 21.7098 27.8804C21.6798 27.8804 21.6498 27.8804 21.6198 27.8804C20.5798 27.8804 19.5498 27.8804 18.5098 27.8804C18.4698 27.8804 18.4198 27.8804 18.3798 27.8804C18.3298 27.8804 18.2998 27.8604 18.2998 27.8004C18.2998 27.5204 18.2998 27.2504 18.2998 26.9704C18.2998 26.9204 18.3198 26.8904 18.3798 26.8904C18.4298 26.8904 18.4798 26.8904 18.5298 26.8904C19.5398 26.8904 20.5398 26.8904 21.5498 26.8904C21.5898 26.8904 21.6398 26.8904 21.6798 26.8904C21.7298 26.8904 21.7598 26.8704 21.7598 26.8104C21.7598 26.4804 21.7598 26.1404 21.7598 25.8104C21.7598 25.7604 21.7398 25.7304 21.6798 25.7304C21.6398 25.7304 21.5898 25.7304 21.5498 25.7304C20.6598 25.7304 19.7698 25.7304 18.8698 25.7304C18.7098 25.7304 18.5598 25.7304 18.3998 25.7304C18.3298 25.7304 18.2898 25.7204 18.2998 25.6404C18.2998 25.4104 18.2998 25.1804 18.2998 24.9404C18.2998 24.8704 18.3298 24.8404 18.3998 24.8404C18.4398 24.8404 18.4898 24.8404 18.5298 24.8404C19.5598 24.8404 20.5898 24.8404 21.6198 24.8404C21.6598 24.8404 21.7098 24.8404 21.7498 24.8404C21.8198 24.8404 21.8598 24.8204 21.8598 24.7504C21.8598 24.4304 21.8598 24.1104 21.8598 23.7904C21.8598 23.7204 21.8298 23.6904 21.7598 23.6904C21.7298 23.6904 21.6998 23.6904 21.6698 23.6904C20.1898 23.6904 18.6998 23.6904 17.2198 23.6904C17.1798 23.6904 17.1398 23.6904 17.1098 23.6904C17.0598 23.6904 17.0298 23.7104 17.0298 23.7704C17.0298 23.8104 17.0298 23.8604 17.0298 23.9004C17.0298 24.7104 17.0298 25.5204 17.0298 26.3304L17.0098 26.3404Z" fill="#323334"/>
<path d="M24.88 18.36C25.19 18.36 25.5 18.36 25.8 18.36C26.58 18.36 27.36 18.36 28.14 18.36C28.3 18.36 28.3 18.36 28.3 18.19C28.3 17.92 28.3 17.65 28.3 17.38C28.3 17.21 28.3 17.21 28.14 17.21C28.12 17.21 28.1 17.21 28.08 17.21C26.61 17.21 25.14 17.21 23.67 17.21C23.63 17.21 23.59 17.21 23.56 17.21C23.49 17.21 23.46 17.24 23.46 17.31C23.46 17.35 23.46 17.4 23.46 17.44C23.46 18.25 23.46 19.06 23.46 19.87C23.46 20.71 23.46 21.55 23.46 22.4C23.46 22.54 23.46 22.54 23.6 22.55C23.62 22.55 23.64 22.55 23.66 22.55C25.14 22.55 26.61 22.55 28.09 22.55C28.13 22.55 28.18 22.55 28.22 22.55C28.28 22.55 28.3 22.52 28.3 22.47C28.3 22.14 28.3 21.82 28.3 21.49C28.3 21.42 28.27 21.4 28.21 21.4C28.17 21.4 28.12 21.4 28.08 21.4C27.29 21.4 26.5 21.4 25.71 21.4C25.43 21.4 25.14 21.4 24.86 21.4C24.78 21.4 24.74 21.38 24.74 21.3C24.74 21.04 24.74 20.77 24.74 20.51C24.74 20.43 24.77 20.41 24.84 20.41C24.88 20.41 24.93 20.41 24.97 20.41C25.94 20.41 26.9099 20.41 27.8699 20.41C27.9699 20.41 28.09 20.45 28.16 20.39C28.24 20.32 28.19 20.19 28.19 20.08C28.19 19.84 28.19 19.6 28.19 19.36C28.19 19.28 28.17 19.24 28.08 19.25C28.04 19.25 27.99 19.25 27.95 19.25C26.95 19.25 25.95 19.25 24.95 19.25C24.91 19.25 24.86 19.25 24.82 19.25C24.74 19.25 24.7199 19.22 24.7299 19.15C24.7299 18.93 24.7299 18.71 24.7299 18.49C24.7299 18.36 24.7299 18.36 24.8699 18.35L24.88 18.36Z" fill="#323334"/>
<path d="M33.8903 20.3804C34.6003 20.0504 34.9803 19.2704 34.8103 18.5104C34.6603 17.8304 34.0503 17.2004 33.1803 17.2104C32.1803 17.2204 31.1703 17.2104 30.1603 17.2104C29.9303 17.2104 29.9603 17.1904 29.9603 17.4104C29.9603 19.0504 29.9603 20.6904 29.9603 22.3304C29.9603 22.3704 29.9603 22.4104 29.9603 22.4404C29.9603 22.5104 29.9803 22.5404 30.0603 22.5404C30.4203 22.5404 30.7903 22.5404 31.1503 22.5404C31.2303 22.5404 31.2403 22.5004 31.2403 22.4304C31.2403 22.3104 31.2403 22.1904 31.2403 22.0704C31.2403 21.5904 31.2403 21.1204 31.2403 20.6404C31.2403 20.5104 31.2403 20.5104 31.3803 20.5104C31.6003 20.5104 31.8203 20.5104 32.0403 20.5104C32.1603 20.5104 32.2303 20.5504 32.3003 20.6404C32.7403 21.2404 33.1903 21.8304 33.6303 22.4204C33.6903 22.5004 33.7503 22.5404 33.8603 22.5404C34.2703 22.5404 34.6903 22.5404 35.1003 22.5404C35.1403 22.5404 35.1903 22.5604 35.2203 22.5004C34.7103 21.8204 34.2003 21.1504 33.6903 20.4704C33.7503 20.4104 33.8203 20.4004 33.8803 20.3704L33.8903 20.3804ZM33.1203 19.3404C32.8403 19.3404 32.5603 19.3404 32.2703 19.3404C31.9903 19.3404 31.7103 19.3404 31.4203 19.3404C31.3303 19.3404 31.2803 19.3204 31.2903 19.2204C31.2903 18.9604 31.2903 18.7104 31.2903 18.4504C31.2903 18.3704 31.3203 18.3404 31.4003 18.3404C31.9803 18.3404 32.5503 18.3404 33.1303 18.3404C33.3903 18.3404 33.6203 18.5904 33.6203 18.8404C33.6203 19.0804 33.4203 19.3404 33.1103 19.3404H33.1203Z" fill="#323334"/>
<path d="M20.8202 33.5205C21.6002 33.1905 21.9902 32.3905 21.7902 31.5705C21.6002 30.8205 20.9702 30.3105 20.1802 30.3105C19.1602 30.3105 18.1402 30.3105 17.1302 30.3105C17.1002 30.3105 17.0802 30.3105 17.0502 30.3105C16.9702 30.3105 16.9502 30.3405 16.9502 30.4105C16.9502 30.4505 16.9502 30.4905 16.9502 30.5205C16.9502 32.1605 16.9502 33.8005 16.9502 35.4405C16.9502 35.4805 16.9502 35.5305 16.9502 35.5705C16.9502 35.6305 16.9802 35.6505 17.0302 35.6505C17.4002 35.6505 17.7702 35.6505 18.1402 35.6505C18.2102 35.6505 18.2302 35.6205 18.2302 35.5605C18.2302 35.5005 18.2302 35.4505 18.2302 35.3905C18.2302 34.8405 18.2302 34.3005 18.2302 33.7505C18.2302 33.6205 18.2302 33.6205 18.3602 33.6205C18.5702 33.6205 18.7902 33.6205 19.0002 33.6205C19.1402 33.6205 19.2202 33.6605 19.2902 33.7705C19.7302 34.3605 20.1702 34.9505 20.6102 35.5405C20.6802 35.6305 20.7402 35.6705 20.8602 35.6705C21.2702 35.6705 21.6802 35.6705 22.0902 35.6705C22.1302 35.6705 22.1802 35.6905 22.2202 35.6405C21.7102 34.9705 21.2002 34.2905 20.6902 33.6105C20.7302 33.5505 20.7802 33.5505 20.8202 33.5405V33.5205ZM20.5602 32.1705C20.4602 32.3605 20.3002 32.4505 20.0902 32.4505C19.8102 32.4505 19.5202 32.4505 19.2402 32.4505C18.9602 32.4505 18.6902 32.4505 18.4102 32.4505C18.3202 32.4505 18.2802 32.4305 18.2802 32.3305C18.2802 32.0705 18.2802 31.8205 18.2802 31.5605C18.2802 31.4505 18.3202 31.4405 18.4102 31.4405C18.9602 31.4405 19.5202 31.4405 20.0702 31.4405C20.4702 31.4405 20.7302 31.8405 20.5602 32.1705Z" fill="#323334"/>
<path d="M17.4397 16.0502C17.5197 16.0502 17.5497 16.0102 17.5697 15.9402C17.6697 15.7202 17.7697 15.5102 17.8597 15.2902C17.9097 15.1702 17.9597 15.1302 18.0897 15.1302C18.3997 15.1402 18.7197 15.1302 19.0297 15.1302C19.6097 15.1302 20.1897 15.1302 20.7597 15.1302C20.8797 15.1302 20.9397 15.1602 20.9897 15.2702C21.0497 15.4302 21.1197 15.5802 21.1897 15.7402C21.2397 15.8402 21.2497 15.9802 21.3497 16.0302C21.4297 16.0702 21.5597 16.0502 21.6597 16.0502C21.9997 16.0502 22.3297 16.0502 22.6697 16.0502C22.6897 15.9702 22.6397 15.9302 22.6197 15.8802C22.2897 15.2202 21.9597 14.5702 21.6297 13.9102C21.1097 12.8902 20.5897 11.8602 20.0797 10.8402C20.0297 10.7402 19.9697 10.7002 19.8497 10.7002C19.5597 10.7002 19.2597 10.7002 18.9597 10.7002C18.8297 10.7002 18.7597 10.7402 18.6997 10.8602C17.8797 12.5402 17.0397 14.2102 16.2197 15.8902C16.1997 15.9402 16.1497 15.9802 16.1697 16.0602C16.5897 16.0602 17.0097 16.0602 17.4297 16.0602L17.4397 16.0502ZM19.3997 12.0902C19.7097 12.7502 20.0097 13.3702 20.3097 14.0102H18.4997C18.7997 13.3702 19.0997 12.7502 19.4097 12.0902H19.3997Z" fill="#323334"/>
<path d="M15.9796 21.1802C15.3396 19.9102 14.6996 18.6402 14.0596 17.3702C13.9996 17.2502 13.9396 17.2002 13.8096 17.2102C13.5196 17.2202 13.2297 17.2202 12.9397 17.2102C12.7997 17.2102 12.7296 17.2502 12.6696 17.3702C11.8496 19.0402 11.0296 20.7002 10.1996 22.3602C10.1796 22.4102 10.1396 22.4602 10.1396 22.5402C10.5696 22.5402 10.9897 22.5402 11.4097 22.5402C11.4897 22.5402 11.5196 22.4902 11.5396 22.4302C11.6396 22.2002 11.7496 21.9702 11.8396 21.7402C11.8796 21.6502 11.9197 21.6202 12.0197 21.6202C12.9397 21.6202 13.8497 21.6202 14.7697 21.6202C14.8597 21.6202 14.8997 21.6502 14.9397 21.7302C15.0397 21.9602 15.1497 22.1902 15.2397 22.4202C15.2797 22.5102 15.3296 22.5402 15.4196 22.5402C15.6596 22.5402 15.9096 22.5402 16.1496 22.5402C16.3096 22.5402 16.4697 22.5402 16.6297 22.5402C16.6397 22.4802 16.6096 22.4402 16.5896 22.4002C16.3796 21.9902 16.1797 21.5802 15.9697 21.1702L15.9796 21.1802ZM12.4496 20.5002C12.7496 19.8602 13.0497 19.2402 13.3497 18.5902C13.6597 19.2402 13.9496 19.8602 14.2496 20.5002H12.4397H12.4496Z" fill="#323334"/>
<path d="M22.5496 17.2099C22.1696 17.2099 21.7796 17.2099 21.3996 17.2099C21.2696 17.2099 21.1996 17.2499 21.1196 17.3499C20.6096 18.0499 20.0996 18.7499 19.5896 19.4499C19.5496 19.5099 19.4996 19.5699 19.4596 19.6199C19.3796 19.5699 19.3496 19.5099 19.3096 19.4499C18.7996 18.7799 18.2896 18.1099 17.7996 17.4299C17.6796 17.2599 17.5496 17.1899 17.3396 17.1999C16.9396 17.2199 16.5396 17.1999 16.0996 17.1999C16.1596 17.2699 16.1896 17.3099 16.2196 17.3499C17.0396 18.4099 17.8596 19.4599 18.6896 20.5099C18.7596 20.5999 18.7996 20.6999 18.7996 20.8199C18.7996 21.3399 18.7996 21.8499 18.7996 22.3699C18.7996 22.5299 18.7996 22.5299 18.9696 22.5299C19.2896 22.5299 19.6096 22.5299 19.9296 22.5299C20.0696 22.5299 20.0796 22.5299 20.0796 22.3899C20.0796 21.8999 20.0796 21.4099 20.0796 20.9199C20.0796 20.7299 20.1296 20.5899 20.2496 20.4399C21.0596 19.4099 21.8596 18.3799 22.6596 17.3499C22.6896 17.3099 22.7396 17.2699 22.7396 17.2099C22.6796 17.1799 22.6296 17.1999 22.5696 17.1999L22.5496 17.2099Z" fill="#323334"/>
</svg>
