<svg width="56" height="25" viewBox="0 0 56 25" fill="none" xmlns="http://www.w3.org/2000/svg">
<path fill-rule="evenodd" clip-rule="evenodd" d="M22.9897 6.96021C22.5597 6.20021 22.1297 5.4502 21.6997 4.6902C21.6697 4.6402 21.6397 4.6202 21.5797 4.6402C21.0697 4.8102 20.5597 4.9702 20.0497 5.1302C19.9697 5.1602 19.9197 5.1502 19.8597 5.0802C19.5897 4.7902 19.3097 4.52019 19.0097 4.26019C18.4697 3.79019 17.8797 3.38019 17.2597 3.04019C16.3997 2.56019 15.4897 2.2102 14.5297 1.9902C14.4697 1.9802 14.4497 1.96019 14.4297 1.90019C14.3197 1.37019 14.1997 0.840206 14.0897 0.320206C14.0697 0.240206 14.0397 0.200195 13.9497 0.200195C12.7597 0.200195 11.5697 0.200195 10.3897 0.200195C10.3097 0.200195 10.2797 0.220201 10.2697 0.300201C10.1597 0.830201 10.0397 1.36019 9.9297 1.90019C9.9197 1.96019 9.89974 1.9902 9.83974 2.0002C9.41974 2.0902 9.00969 2.2202 8.60969 2.3602C7.68969 2.6902 6.8397 3.14021 6.0497 3.71021C5.4897 4.11021 4.9797 4.5602 4.5197 5.0602C4.4497 5.1302 4.3997 5.16019 4.2997 5.12019C3.7997 4.95019 3.28972 4.8002 2.78972 4.6302C2.71972 4.6102 2.68971 4.63019 2.65971 4.68019C2.56971 4.85019 2.46971 5.01019 2.37971 5.18019C1.87971 6.05019 1.3697 6.9302 0.869704 7.8002C0.829704 7.8702 0.839702 7.9002 0.899702 7.9502C1.2697 8.2902 1.6397 8.6402 2.0197 8.9702C2.1297 9.0702 2.14969 9.1402 2.10969 9.2802C1.82969 10.2002 1.6897 11.1402 1.6797 12.1002C1.6597 13.2202 1.80972 14.3202 2.13972 15.3902C2.15972 15.4502 2.14971 15.4802 2.09971 15.5302C1.68971 15.9002 1.28972 16.2702 0.889723 16.6302C0.839723 16.6802 0.839704 16.7102 0.869704 16.7702C0.979704 16.9502 1.0797 17.1302 1.1797 17.3102C1.6697 18.1702 2.1597 19.0302 2.6497 19.8802C2.6897 19.9502 2.7197 19.9702 2.7997 19.9402C3.3197 19.7702 3.82971 19.6102 4.34971 19.4402C4.39971 19.4202 4.42971 19.4302 4.46971 19.4702C4.90971 19.9302 5.36971 20.3602 5.87971 20.7502C6.60971 21.3002 7.3897 21.7502 8.2397 22.0902C8.7497 22.3002 9.27972 22.4702 9.81972 22.5902C9.88972 22.6002 9.9197 22.6302 9.9297 22.7102C10.0397 23.2402 10.1597 23.7602 10.2697 24.2902C10.2897 24.3702 10.3097 24.4002 10.3997 24.4002C11.5797 24.4002 12.7697 24.4002 13.9497 24.4002C14.0397 24.4002 14.0797 24.3702 14.0997 24.2802C14.2097 23.7502 14.3297 23.2302 14.4397 22.7102C14.4497 22.6502 14.4797 22.6202 14.5397 22.6102C14.9597 22.5202 15.3697 22.3902 15.7797 22.2402C16.6697 21.9202 17.4997 21.4802 18.2697 20.9302C18.8597 20.5102 19.3997 20.0302 19.8897 19.5102C19.9397 19.4602 19.9697 19.4502 20.0397 19.4702C20.5597 19.6402 21.0797 19.8002 21.5897 19.9702C21.6597 19.9902 21.6897 19.9702 21.7197 19.9202C22.1497 19.1602 22.5897 18.4002 23.0197 17.6502C23.0597 17.5702 23.0397 17.5602 22.9597 17.5602C22.6697 17.5602 22.3797 17.5602 22.0897 17.5602H20.0697C20.0197 17.5602 19.9697 17.5602 19.9397 17.6102C19.8697 17.7202 19.7897 17.8202 19.7197 17.9302C19.3997 18.3702 19.0397 18.7702 18.6497 19.1502C18.1697 19.6102 17.6397 20.0202 17.0697 20.3702C16.3697 20.8002 15.6197 21.1302 14.8297 21.3702C14.2797 21.5302 13.7197 21.6402 13.1497 21.7002C12.2497 21.8002 11.3597 21.7602 10.4797 21.6002C9.44969 21.4102 8.46971 21.0502 7.55971 20.5302C7.02971 20.2302 6.5397 19.8802 6.0797 19.4902C5.5797 19.0602 5.12972 18.5802 4.72972 18.0502C4.21972 17.3802 3.7997 16.6502 3.4897 15.8702C3.1397 15.0002 2.9297 14.1002 2.8397 13.1602C2.7397 12.1202 2.82972 11.1002 3.06972 10.0802C3.34972 8.9202 3.8397 7.85019 4.5197 6.87019C5.0297 6.14019 5.62972 5.5002 6.31972 4.9502C6.97972 4.4202 7.69969 3.9802 8.47969 3.6402C9.47969 3.2002 10.5397 2.9602 11.6297 2.8902C12.3597 2.8402 13.0797 2.89019 13.7997 3.01019C14.7897 3.18019 15.7297 3.51019 16.6197 3.98019C16.9497 4.16019 17.2697 4.35021 17.5697 4.57021C18.0097 4.88021 18.4197 5.2302 18.8097 5.6102C19.2397 6.0402 19.6197 6.5002 19.9597 7.0002C19.9997 7.0602 20.0297 7.0802 20.0997 7.0802C20.5797 7.0802 21.0597 7.0802 21.5397 7.0802C22.0197 7.0802 22.4997 7.0802 22.9797 7.0802C23.053 7.0802 23.073 7.04686 23.0397 6.98019C23.0397 6.98019 23.0397 6.9602 23.0197 6.9502L22.9897 6.96021Z" fill="#323334"/>
<path fill-rule="evenodd" clip-rule="evenodd" d="M45.0497 9.22055C44.6797 8.85055 44.3198 8.49054 43.9598 8.12054C43.9198 8.08054 43.8798 8.06055 43.8198 8.06055C42.6398 8.06055 41.4597 8.06055 40.2897 8.06055C40.2397 8.06055 40.1897 8.07055 40.1597 8.11055C39.7997 8.48055 39.4298 8.84056 39.0698 9.21056C39.0298 9.25056 39.0198 9.29055 39.0198 9.34055C39.0198 10.1305 39.0198 10.9306 39.0198 11.7206C39.0198 11.7806 39.0398 11.8205 39.0798 11.8605C39.4298 12.2105 39.7898 12.5705 40.1298 12.9205C40.1898 12.9805 40.2597 13.0105 40.3497 13.0105C41.4097 13.0105 42.4698 13.0105 43.5298 13.0105C43.6098 13.0105 43.6298 13.0305 43.6298 13.1105C43.6298 13.3805 43.6298 13.6406 43.6298 13.9106C43.6298 13.9506 43.6297 13.9905 43.5997 14.0305C43.2697 14.3605 42.9397 14.6905 42.6097 15.0305C42.5697 15.0705 42.5297 15.0806 42.4697 15.0806C41.8297 15.0806 41.1797 15.0806 40.5397 15.0806C40.5097 15.0806 40.4798 15.1005 40.4398 15.0405C40.7498 14.7305 41.0698 14.4205 41.3898 14.1205C41.4098 14.1005 41.4497 14.0806 41.4297 14.0506C41.4197 14.0206 41.3797 14.0405 41.3497 14.0405C40.5997 14.0405 39.8497 14.0405 39.0997 14.0405C39.0297 14.0405 39.0098 14.0606 39.0098 14.1306C39.0098 14.5206 39.0098 14.9105 39.0098 15.2905C39.0098 15.3505 39.0298 15.3905 39.0698 15.4305C39.4298 15.7905 39.7798 16.1505 40.1398 16.5105C40.1898 16.5605 40.2498 16.5806 40.3198 16.5806C41.4698 16.5806 42.6298 16.5806 43.7798 16.5806C43.8798 16.5806 43.9398 16.5505 44.0098 16.4805C44.3498 16.1305 44.6997 15.7806 45.0497 15.4406C45.0997 15.3906 45.1198 15.3406 45.1198 15.2706C45.1198 14.4906 45.1198 13.7105 45.1198 12.9305C45.1198 12.8505 45.0997 12.8005 45.0397 12.7505C44.6997 12.4205 44.3598 12.0806 44.0298 11.7406C43.9398 11.6506 43.8597 11.6205 43.7397 11.6205C42.6997 11.6205 41.6497 11.6205 40.6097 11.6205C40.5297 11.6205 40.4998 11.6005 40.4998 11.5105C40.4998 11.2405 40.4998 10.9705 40.4998 10.7005C40.4998 10.6505 40.4997 10.6206 40.5397 10.5806C40.8597 10.2606 41.1798 9.94055 41.4998 9.61055C41.5498 9.56055 41.5997 9.54054 41.6697 9.54054C42.3197 9.54054 42.9698 9.54054 43.6198 9.54054C43.6398 9.54054 43.6597 9.53056 43.6797 9.57056C43.3497 9.89056 43.0197 10.2206 42.6797 10.5506C42.7197 10.5906 42.7398 10.5806 42.7598 10.5806C43.5098 10.5806 44.2698 10.5806 45.0198 10.5806C45.0998 10.5806 45.1097 10.5505 45.1097 10.4805C45.1097 10.1005 45.1097 9.71055 45.1097 9.33055C45.1097 9.27055 45.0897 9.24055 45.0497 9.20055V9.22055Z" fill="#323334"/>
<path fill-rule="evenodd" clip-rule="evenodd" d="M15.0797 14.0105C14.3497 14.0105 13.6096 14.0105 12.8796 14.0105H12.7896C12.7896 14.0105 12.7897 14.0305 12.7797 14.0305C13.1097 14.3605 13.4397 14.7005 13.7797 15.0405C13.7497 15.0405 13.7296 15.0405 13.7196 15.0405C13.0596 15.0405 12.3896 15.0405 11.7296 15.0405C11.6796 15.0405 11.6396 15.0205 11.6096 14.9805C11.2896 14.6605 10.9796 14.3405 10.6596 14.0305C10.6096 13.9805 10.5897 13.9405 10.5897 13.8705C10.5897 12.8205 10.5897 11.7705 10.5897 10.7205C10.5897 10.6505 10.6096 10.6105 10.6596 10.5605C10.9796 10.2405 11.2996 9.93051 11.6096 9.61051C11.6496 9.57051 11.6896 9.55051 11.7396 9.55051C12.3796 9.55051 13.0296 9.55051 13.6696 9.55051C13.6996 9.55051 13.7396 9.54051 13.7996 9.59051C13.4596 9.93051 13.1196 10.2505 12.7896 10.5805C12.8096 10.6005 12.8396 10.5905 12.8596 10.5905C13.6096 10.5905 14.3596 10.5905 15.1196 10.5905C15.1896 10.5905 15.2097 10.5705 15.2097 10.5005C15.2097 10.1305 15.2097 9.76051 15.2097 9.39051C15.2097 9.30051 15.1796 9.23051 15.1196 9.17051C14.7696 8.83051 14.4297 8.48052 14.0797 8.13052C14.0297 8.08052 13.9797 8.05051 13.8997 8.06051C12.7397 8.06051 11.5796 8.06051 10.4196 8.06051C10.3296 8.06051 10.2796 8.09051 10.2196 8.15051C9.8696 8.50051 9.51962 8.86052 9.16962 9.21052C9.11962 9.26052 9.09961 9.30051 9.09961 9.37051C9.09961 9.98051 9.09961 10.5905 9.09961 11.2105C9.09961 12.5605 9.09961 13.9105 9.09961 15.2605C9.09961 15.3105 9.09965 15.3605 9.13965 15.4005C9.50965 15.7705 9.87963 16.1405 10.2496 16.5105C10.2896 16.5505 10.3296 16.5605 10.3796 16.5605C11.5596 16.5605 12.7296 16.5605 13.9096 16.5605C13.9696 16.5605 14.0096 16.5405 14.0496 16.5005C14.4096 16.1405 14.7696 15.7805 15.1296 15.4205C15.1796 15.3705 15.1996 15.3205 15.1996 15.2605C15.1996 14.8905 15.1996 14.5105 15.1996 14.1405C15.1996 14.0505 15.1697 14.0205 15.0797 14.0205V14.0105Z" fill="#323334"/>
<path fill-rule="evenodd" clip-rule="evenodd" d="M37.15 15.0405C36.85 14.3005 36.5399 13.5606 36.2399 12.8206C35.9499 12.1106 35.6599 11.4006 35.3699 10.6906C35.0299 9.84055 34.68 9.00054 34.33 8.15054C34.3 8.08054 34.27 8.06055 34.2 8.06055C33.41 8.06055 32.6099 8.06055 31.8199 8.06055H31.71C31.71 8.06055 31.7399 8.10055 31.7499 8.11055C32.0899 8.46055 32.44 8.80054 32.78 9.15054C32.81 9.18054 32.8499 9.22054 32.8699 9.26054C32.9999 9.58054 33.1299 9.89056 33.2599 10.2106C33.6299 11.1106 33.9899 12.0106 34.3599 12.9106C34.6799 13.7006 35 14.4905 35.33 15.2805C35.36 15.3605 35.3499 15.4006 35.2899 15.4606C34.9499 15.7906 34.62 16.1306 34.28 16.4706C34.26 16.4906 34.2199 16.5105 34.2299 16.5405C34.2399 16.5705 34.2799 16.5605 34.3099 16.5605C35.4199 16.5605 36.53 16.5605 37.64 16.5605C37.77 16.5605 37.7699 16.5606 37.7199 16.4406C37.5299 15.9806 37.34 15.5106 37.15 15.0506V15.0405Z" fill="#323334"/>
<path fill-rule="evenodd" clip-rule="evenodd" d="M54.1101 16.4404C53.8701 15.8404 53.6201 15.2404 53.3801 14.6504C53.0101 13.7504 52.6402 12.8504 52.2802 11.9504C52.0502 11.3804 51.8201 10.8204 51.5901 10.2504C51.3101 9.55042 51.0201 8.85042 50.7401 8.15042C50.7101 8.08042 50.6801 8.05043 50.6001 8.05043C49.8101 8.05043 49.0101 8.05043 48.2201 8.05043C48.1901 8.05043 48.1601 8.04043 48.1201 8.07043C48.1401 8.09043 48.1401 8.10042 48.1601 8.11042C48.4501 8.41042 48.7501 8.70042 49.0401 9.00042C49.1201 9.08042 49.2301 9.15042 49.2701 9.26042C49.5201 9.85042 49.7501 10.4404 49.9901 11.0304C50.2901 11.7704 50.5901 12.5104 50.8901 13.2504C51.1701 13.9304 51.4401 14.6004 51.7201 15.2804C51.7501 15.3504 51.7401 15.3904 51.6801 15.4504C51.3401 15.7904 51.0001 16.1304 50.6701 16.4704C50.6501 16.4904 50.6101 16.5004 50.6201 16.5404C50.6401 16.5704 50.6701 16.5604 50.7001 16.5604C51.8101 16.5604 52.9202 16.5604 54.0302 16.5604C54.1502 16.5604 54.1501 16.5604 54.1101 16.4404Z" fill="#323334"/>
<path fill-rule="evenodd" clip-rule="evenodd" d="M19.1792 9.17055C19.4992 8.85055 19.8192 8.53055 20.1392 8.20055C20.1792 8.16055 20.2192 8.12055 20.2692 8.06055H16.4792C16.4792 8.06055 16.4592 8.09056 16.4492 8.10056C16.8092 8.45056 17.1792 8.81055 17.5392 9.16055C17.5892 9.21055 17.6092 9.26055 17.6092 9.33055C17.6092 11.3206 17.6092 13.3106 17.6092 15.3006C17.6092 15.3706 17.5892 15.4106 17.5392 15.4606C17.2792 15.7206 17.0292 15.9705 16.7692 16.2305C16.6692 16.3305 16.5592 16.4205 16.4792 16.5405C16.5092 16.5705 16.5392 16.5605 16.5592 16.5605C17.7592 16.5605 18.9592 16.5605 20.1592 16.5605C20.1892 16.5605 20.2192 16.5706 20.2392 16.5506C20.2592 16.5206 20.2192 16.5005 20.1992 16.4805C19.8592 16.1405 19.5192 15.7905 19.1792 15.4505C19.1392 15.4105 19.1192 15.3706 19.1192 15.3206C19.1192 13.3206 19.1192 11.3206 19.1192 9.32056C19.1192 9.26056 19.1392 9.22054 19.1792 9.18054V9.17055Z" fill="#323334"/>
<path fill-rule="evenodd" clip-rule="evenodd" d="M27.2001 8.22031C27.2001 8.22031 27.2801 8.13031 27.3401 8.07031H23.54C23.54 8.07031 23.5701 8.11031 23.5901 8.13031C23.9301 8.47031 24.26 8.8103 24.6 9.1503C24.66 9.2103 24.6801 9.27031 24.6801 9.36031C24.6801 11.3403 24.6801 13.3303 24.6801 15.3103C24.6801 15.3703 24.66 15.4203 24.61 15.4603C24.36 15.7103 24.11 15.9603 23.86 16.2203C23.76 16.3303 23.64 16.4203 23.55 16.5503C23.59 16.5803 23.6201 16.5703 23.6401 16.5703C24.8301 16.5703 26.03 16.5703 27.22 16.5703C27.25 16.5703 27.29 16.5903 27.3 16.5503C27.31 16.5203 27.2701 16.5003 27.2501 16.4803C26.9101 16.1403 26.5801 15.8003 26.2401 15.4603C26.2001 15.4203 26.1801 15.3803 26.1801 15.3203C26.1801 13.3203 26.1801 11.3303 26.1801 9.33031C26.1801 9.27031 26.2001 9.23031 26.2401 9.19031C26.5601 8.87031 26.8701 8.55031 27.1901 8.24031L27.2001 8.22031Z" fill="#323334"/>
<path fill-rule="evenodd" clip-rule="evenodd" d="M32.9094 10.9707C32.7994 10.7107 32.6994 10.4507 32.5894 10.1807C32.5694 10.2007 32.5594 10.2107 32.5594 10.2307C32.3794 10.6707 32.1994 11.1107 32.0194 11.5507C31.6694 12.4007 31.3294 13.2507 30.9794 14.1107C30.6594 14.8907 30.3494 15.6607 30.0294 16.4407C29.9794 16.5607 29.9794 16.5707 30.1194 16.5707C31.2294 16.5707 32.3294 16.5707 33.4394 16.5707C33.4694 16.5707 33.5094 16.5907 33.5194 16.5507C33.5294 16.5207 33.4894 16.5007 33.4694 16.4807C33.1294 16.1407 32.7794 15.7907 32.4394 15.4507C32.3894 15.4007 32.3894 15.3707 32.4094 15.3107C32.5394 15.0007 32.6694 14.7007 32.7894 14.3907C33.0294 13.8007 33.2694 13.2007 33.5194 12.6107C33.5394 12.5507 33.5394 12.5007 33.5194 12.4507C33.3194 11.9607 33.1194 11.4807 32.9194 10.9907L32.9094 10.9707Z" fill="#323334"/>
<path fill-rule="evenodd" clip-rule="evenodd" d="M49.0698 10.4002C49.0398 10.3302 49.0298 10.2602 48.9698 10.2002C48.8798 10.4102 48.7998 10.6002 48.7198 10.8002C48.4998 11.3502 48.2698 11.9002 48.0398 12.4502C47.7198 13.2302 47.4099 14.0002 47.0899 14.7802C46.8599 15.3402 46.6299 15.9002 46.3999 16.4702C46.3599 16.5602 46.3698 16.5702 46.4698 16.5702C47.5298 16.5702 48.5899 16.5702 49.6499 16.5702C49.7299 16.5702 49.7798 16.5402 49.8098 16.4802C49.8398 16.4202 49.7698 16.4002 49.7298 16.3602C49.4198 16.0402 49.0998 15.7302 48.7898 15.4102C48.7598 15.3802 48.7699 15.3602 48.7799 15.3302C49.1499 14.4202 49.5198 13.5102 49.8898 12.6102C49.9198 12.5402 49.9198 12.4902 49.8898 12.4302C49.6098 11.7602 49.3398 11.0802 49.0598 10.4002H49.0698Z" fill="#323334"/>
<path fill-rule="evenodd" clip-rule="evenodd" d="M40.0493 17.2002C40.0493 17.2002 40.0393 17.2002 40.0293 17.2002C40.0293 17.2102 40.0393 17.2102 40.0493 17.2002Z" fill="#323334"/>
<path fill-rule="evenodd" clip-rule="evenodd" d="M55.4801 18.4806C55.4801 18.4806 55.5001 18.4206 55.4801 18.3906C55.4201 18.2806 55.3601 18.1606 55.2801 18.0706C55.1701 17.9506 55.0301 17.8606 54.8801 17.7906C54.7901 17.7506 54.7001 17.7006 54.6101 17.6906C54.2801 17.6506 53.9601 17.6706 53.6701 17.8806C53.3801 18.0906 53.1701 18.3406 53.2001 18.7306C53.2101 18.8606 53.2501 18.9706 53.3001 19.0706C53.3801 19.2306 53.5201 19.3606 53.6701 19.4606C53.7401 19.5006 53.8001 19.5806 53.9001 19.5506C53.9201 19.5506 53.9401 19.5506 53.9601 19.5506C54.0001 19.6406 54.0701 19.6306 54.1501 19.6106C54.2801 19.6306 54.4101 19.6406 54.5401 19.6106C54.6201 19.6306 54.7001 19.6506 54.7501 19.5506C54.7601 19.5506 54.7801 19.5506 54.7901 19.5506C54.8901 19.5806 54.9601 19.4906 55.0301 19.4506C55.1701 19.3606 55.3001 19.2406 55.3801 19.1006C55.4201 19.0206 55.5101 18.9506 55.4701 18.8306C55.4901 18.7106 55.4901 18.5906 55.4701 18.4706L55.4801 18.4806ZM54.9001 19.3906C54.9001 19.3906 54.8101 19.4206 54.7901 19.4706C54.7801 19.4706 54.7601 19.4706 54.7501 19.4706C54.7301 19.4506 54.7001 19.4506 54.6701 19.4706C54.3101 19.6006 53.9801 19.5006 53.6701 19.3006C53.5601 19.2306 53.5101 19.1006 53.4201 19.0006C53.4201 19.0006 53.4001 18.9906 53.4001 18.9806C53.4001 18.9706 53.4001 18.9506 53.4001 18.9406C53.4301 18.9006 53.4001 18.8606 53.4001 18.8306C53.3501 18.7106 53.3701 18.5906 53.4001 18.4706C53.4101 18.4406 53.4201 18.4106 53.4001 18.3906C53.4001 18.3806 53.4001 18.3606 53.4001 18.3506C53.5001 18.2006 53.6201 18.0706 53.7601 17.9606C53.8301 17.9106 53.9201 17.9306 53.9601 17.8406C53.9801 17.8406 54.0001 17.8406 54.0201 17.8406C54.1101 17.8606 54.2001 17.8406 54.2901 17.8106C54.3301 17.8106 54.3501 17.7906 54.3901 17.8106C54.4801 17.8506 54.5801 17.8406 54.6701 17.8406C54.7001 17.8406 54.7201 17.8406 54.7501 17.8406C54.8001 17.9506 54.9201 17.9406 55.0001 18.0006C55.2201 18.1706 55.3701 18.3906 55.3501 18.6706C55.3301 18.9806 55.2001 19.2506 54.8901 19.3906H54.9001Z" fill="#323334"/>
<path fill-rule="evenodd" clip-rule="evenodd" d="M54.2301 18.2902C54.2301 18.2902 54.1401 18.2802 54.1301 18.3102C54.1101 18.3902 54.0401 18.4502 54.0201 18.5302C54.0101 18.5702 54.0501 18.6502 53.9901 18.6502C53.9401 18.6502 53.9101 18.5802 53.8801 18.5402C53.8701 18.5202 53.8601 18.4902 53.8601 18.4602C53.8601 18.3902 53.8101 18.3402 53.7601 18.3002C53.7101 18.2502 53.6301 18.2802 53.6201 18.3502C53.6201 18.5002 53.6201 18.6502 53.6201 18.8002C53.6201 18.8502 53.6601 18.8802 53.7101 18.8702C53.7701 18.8702 53.7601 18.8202 53.7701 18.7802C53.7701 18.7402 53.7501 18.6902 53.8001 18.6502C53.8401 18.6602 53.8101 18.7202 53.8601 18.7302C53.8601 18.7502 53.8601 18.7602 53.8701 18.7702C53.8301 18.8502 53.9101 18.8502 53.9501 18.8602C54.0001 18.8802 54.0401 18.8602 54.0601 18.8002C54.0601 18.7602 54.0601 18.7102 54.1101 18.7102C54.1701 18.7102 54.1501 18.7602 54.1601 18.7902C54.1701 18.8402 54.2101 18.8502 54.2601 18.8502C54.3101 18.8502 54.3101 18.8102 54.3101 18.7702C54.3101 18.6302 54.3101 18.4902 54.2901 18.3502C54.2901 18.3102 54.2601 18.2902 54.2301 18.2802V18.2902Z" fill="#323334"/>
<path fill-rule="evenodd" clip-rule="evenodd" d="M54.9094 18.5805C54.9794 18.5405 54.9894 18.4705 54.9594 18.4105C54.9294 18.3505 54.8794 18.2905 54.7894 18.3005C54.6994 18.3005 54.6094 18.2905 54.5294 18.3005C54.4494 18.2705 54.3994 18.3005 54.3994 18.3805C54.3994 18.5205 54.3994 18.6605 54.3994 18.8005C54.3994 18.8405 54.4294 18.8605 54.4694 18.8605C54.5094 18.8605 54.5294 18.8405 54.5394 18.8005C54.5394 18.7705 54.5394 18.7505 54.5394 18.7205C54.5394 18.6505 54.5594 18.6305 54.6294 18.6305C54.6894 18.6305 54.7294 18.6505 54.7594 18.7005C54.7994 18.7505 54.8294 18.8005 54.8694 18.8505C54.8994 18.8905 54.9294 18.8905 54.9694 18.8705C55.0094 18.8405 54.9994 18.8005 54.9794 18.7705C54.9694 18.7505 54.9494 18.7405 54.9294 18.7205C54.8794 18.6705 54.8694 18.6305 54.9294 18.5905L54.9094 18.5805ZM54.8094 18.5505C54.8094 18.5505 54.7394 18.5505 54.7094 18.5505C54.6794 18.5305 54.6494 18.5405 54.6194 18.5405C54.5794 18.5405 54.5394 18.5405 54.5194 18.5005C54.4994 18.4605 54.5394 18.4305 54.5494 18.4005C54.6394 18.4005 54.7194 18.4005 54.8094 18.4005C54.8394 18.4505 54.8494 18.5005 54.8094 18.5605V18.5505Z" fill="#323334"/>
</svg>
