<svg width="68" height="16" viewBox="0 0 68 16" fill="none" xmlns="http://www.w3.org/2000/svg">
<path d="M26.2803 12.9199H28.1002V13.4699H26.8802V14.0199H28.0103V14.5699H26.8802V15.6299H26.2803V12.9199Z" fill="#323334"/>
<path d="M29.1602 14.2699C29.1602 14.0499 29.1902 13.8598 29.2702 13.6798C29.3402 13.4998 29.4402 13.3498 29.5702 13.2298C29.7002 13.1098 29.8502 13.0098 30.0302 12.9398C30.2102 12.8698 30.4002 12.8398 30.6202 12.8398C30.8402 12.8398 31.0302 12.8698 31.2102 12.9398C31.3802 13.0098 31.5402 13.0998 31.6702 13.2298C31.8002 13.3498 31.9002 13.4998 31.9702 13.6798C32.0402 13.8598 32.0802 14.0499 32.0802 14.2699C32.0802 14.4899 32.0402 14.6798 31.9702 14.8598C31.9002 15.0398 31.8002 15.1898 31.6702 15.3098C31.5402 15.4298 31.3802 15.5299 31.2102 15.5999C31.0302 15.6699 30.8302 15.6998 30.6202 15.6998C30.4102 15.6998 30.2202 15.6699 30.0302 15.5999C29.8502 15.5299 29.6902 15.4398 29.5702 15.3098C29.4402 15.1798 29.3402 15.0398 29.2702 14.8598C29.2002 14.6798 29.1602 14.4899 29.1602 14.2699ZM29.7802 14.2699C29.7802 14.3999 29.8002 14.5198 29.8402 14.6198C29.8802 14.7298 29.9402 14.8198 30.0102 14.8998C30.0802 14.9798 30.1702 15.0398 30.2802 15.0798C30.3802 15.1198 30.5002 15.1498 30.6302 15.1498C30.7602 15.1498 30.8702 15.1298 30.9802 15.0798C31.0902 15.0398 31.1702 14.9798 31.2502 14.8998C31.3202 14.8198 31.3802 14.7298 31.4202 14.6198C31.4502 14.5098 31.4802 14.3999 31.4802 14.2699C31.4802 14.1399 31.4602 14.0298 31.4202 13.9198C31.3802 13.8098 31.3202 13.7198 31.2502 13.6398C31.1802 13.5598 31.0902 13.4999 30.9802 13.4599C30.8802 13.4199 30.7602 13.3898 30.6302 13.3898C30.5002 13.3898 30.3902 13.4099 30.2802 13.4599C30.1802 13.5099 30.0902 13.5598 30.0102 13.6398C29.9302 13.7198 29.8802 13.8098 29.8402 13.9198C29.8002 14.0298 29.7802 14.1399 29.7802 14.2699Z" fill="#323334"/>
<path d="M33.25 12.9199H34.3C34.44 12.9199 34.57 12.9399 34.69 12.9599C34.82 12.9899 34.93 13.0299 35.02 13.0899C35.12 13.1499 35.19 13.2399 35.24 13.3399C35.3 13.4399 35.32 13.5799 35.32 13.7399C35.32 13.9299 35.27 14.0999 35.17 14.2299C35.07 14.3599 34.93 14.4499 34.74 14.4799L35.43 15.6299H34.71L34.15 14.5499H33.85V15.6299H33.25V12.9199ZM33.85 14.0399H34.2C34.25 14.0399 34.31 14.0399 34.37 14.0399C34.43 14.0399 34.49 14.0299 34.53 14.0099C34.58 13.9899 34.62 13.9599 34.65 13.9199C34.68 13.8799 34.7 13.8199 34.7 13.7499C34.7 13.6799 34.69 13.6299 34.66 13.5899C34.63 13.5499 34.6 13.5199 34.55 13.4999C34.51 13.4799 34.46 13.4599 34.4 13.4499C34.34 13.4499 34.29 13.4399 34.24 13.4399H33.85V14.0599V14.0399Z" fill="#323334"/>
<path d="M36.2207 12.9199H36.8707L37.3007 14.6599L37.8707 12.9199H38.4307L38.9907 14.7099L39.4507 12.9199H40.0607L39.2708 15.6299H38.7407L38.1407 13.7499L37.5407 15.6299H37.0208L36.2207 12.9199Z" fill="#323334"/>
<path d="M41.9 12.9199H42.39L43.5699 15.6299H42.89L42.6599 15.0599H41.5999L41.3699 15.6299H40.71L41.8799 12.9199H41.9ZM42.1299 13.7099L41.7999 14.5499H42.46L42.1299 13.7099Z" fill="#323334"/>
<path d="M44.6204 12.9199H45.6703C45.8103 12.9199 45.9404 12.9399 46.0604 12.9599C46.1804 12.9899 46.2904 13.0299 46.3904 13.0899C46.4804 13.1499 46.5604 13.2399 46.6104 13.3399C46.6704 13.4399 46.6904 13.5799 46.6904 13.7399C46.6904 13.9299 46.6403 14.0999 46.5403 14.2299C46.4403 14.3599 46.3003 14.4499 46.1003 14.4799L46.7903 15.6299H46.0704L45.5004 14.5499H45.2104V15.6299H44.6104V12.9199H44.6204ZM45.2203 14.0399H45.5704C45.6204 14.0399 45.6804 14.0399 45.7404 14.0399C45.8004 14.0399 45.8504 14.0299 45.9004 14.0099C45.9504 13.9899 45.9904 13.9599 46.0204 13.9199C46.0504 13.8799 46.0704 13.8199 46.0704 13.7499C46.0704 13.6799 46.0604 13.6299 46.0304 13.5899C46.0004 13.5499 45.9703 13.5199 45.9203 13.4999C45.8803 13.4799 45.8304 13.4599 45.7704 13.4499C45.7104 13.4499 45.6603 13.4399 45.6003 13.4399H45.2104V14.0599L45.2203 14.0399Z" fill="#323334"/>
<path d="M47.8701 12.9199H48.7701C48.9901 12.9199 49.1901 12.9499 49.3901 12.9899C49.5901 13.0399 49.7501 13.1199 49.9001 13.2199C50.0501 13.3299 50.1601 13.4699 50.2501 13.6499C50.3401 13.8199 50.3801 14.0299 50.3801 14.2799C50.3801 14.4999 50.3401 14.6899 50.2601 14.8599C50.1801 15.0299 50.0601 15.1699 49.9201 15.2799C49.7801 15.3899 49.6201 15.4799 49.4301 15.5399C49.2501 15.5999 49.0501 15.6299 48.8501 15.6299H47.8701V12.9199ZM48.4701 15.0799H48.7802C48.9202 15.0799 49.0501 15.0699 49.1601 15.0399C49.2801 15.0099 49.3801 14.9699 49.4701 14.8999C49.5601 14.8399 49.6301 14.7499 49.6701 14.6399C49.7201 14.5299 49.7501 14.3999 49.7501 14.2499C49.7501 14.1199 49.7201 13.9999 49.6701 13.8999C49.6201 13.7999 49.5501 13.7199 49.4701 13.6599C49.3901 13.5999 49.2801 13.5499 49.1701 13.5199C49.0601 13.4899 48.9401 13.4699 48.8101 13.4699H48.4601V15.0799H48.4701Z" fill="#323334"/>
<path d="M51.5303 12.9199H52.1302V15.6299H51.5303V12.9199Z" fill="#323334"/>
<path d="M53.4504 12.9199H54.2604L55.4104 14.8099V12.9199H56.0104V15.6299H55.2304L54.0404 13.6999V15.6299H53.4404V12.9199H53.4504Z" fill="#323334"/>
<path d="M59.8002 15.4398C59.6202 15.5298 59.4402 15.5998 59.2502 15.6398C59.0602 15.6798 58.8602 15.6998 58.6602 15.6998C58.4502 15.6998 58.2502 15.6699 58.0702 15.5999C57.8902 15.5299 57.7402 15.4398 57.6102 15.3098C57.4802 15.1798 57.3802 15.0398 57.3102 14.8598C57.2402 14.6798 57.2002 14.4899 57.2002 14.2699C57.2002 14.0499 57.2402 13.8598 57.3102 13.6798C57.3902 13.4998 57.4802 13.3498 57.6102 13.2298C57.7402 13.1098 57.9002 13.0098 58.0702 12.9398C58.2502 12.8698 58.4502 12.8398 58.6602 12.8398C58.8702 12.8398 59.0802 12.8698 59.2602 12.9198C59.4402 12.9698 59.6002 13.0598 59.7402 13.1898L59.3202 13.6498C59.2402 13.5698 59.1502 13.4999 59.0402 13.4599C58.9402 13.4199 58.8102 13.3898 58.6602 13.3898C58.5302 13.3898 58.4202 13.4099 58.3102 13.4599C58.2002 13.5099 58.1202 13.5598 58.0402 13.6398C57.9702 13.7198 57.9102 13.8098 57.8702 13.9198C57.8302 14.0298 57.8102 14.1399 57.8102 14.2699C57.8102 14.3999 57.8302 14.5198 57.8702 14.6198C57.9102 14.7298 57.9702 14.8198 58.0402 14.8998C58.1102 14.9798 58.2002 15.0398 58.3102 15.0798C58.4102 15.1198 58.5302 15.1498 58.6602 15.1498C58.7902 15.1498 58.9002 15.1398 59.0002 15.1098C59.1002 15.0798 59.1702 15.0499 59.2302 15.0199V14.5798H58.7402V14.0298H59.8102V15.4498L59.8002 15.4398Z" fill="#323334"/>
<path d="M22.9197 5.98981C22.7497 5.76981 22.5397 5.60981 22.2797 5.48981C22.0197 5.36981 21.7597 5.3098 21.4797 5.3098C21.1497 5.3098 20.8497 5.3698 20.5697 5.4998C20.2997 5.6298 20.0697 5.79981 19.8797 6.01981C19.6897 6.23981 19.5397 6.48979 19.4297 6.78979C19.3197 7.07979 19.2697 7.3998 19.2697 7.7298C19.2697 8.0398 19.3197 8.3398 19.4197 8.6198C19.5197 8.8998 19.6697 9.1498 19.8597 9.3598C20.0497 9.5698 20.2797 9.7398 20.5497 9.8598C20.8197 9.9798 21.1397 10.0398 21.4797 10.0398C21.8197 10.0398 22.1197 9.9698 22.3797 9.8298C22.6397 9.6898 22.8497 9.4998 23.0297 9.2498L23.7097 9.7598C23.6697 9.8198 23.5897 9.90981 23.4797 10.0198C23.3697 10.1298 23.2197 10.2498 23.0397 10.3598C22.8597 10.4698 22.6397 10.5798 22.3797 10.6598C22.1197 10.7498 21.8197 10.7898 21.4797 10.7898C21.0097 10.7898 20.5897 10.6998 20.2097 10.5198C19.8297 10.3398 19.5097 10.1098 19.2497 9.81981C18.9797 9.52981 18.7797 9.1998 18.6397 8.8298C18.4997 8.4598 18.4297 8.0998 18.4297 7.7198C18.4297 7.2598 18.5097 6.8398 18.6597 6.4498C18.8097 6.0598 19.0197 5.7298 19.2897 5.4498C19.5597 5.1698 19.8897 4.94979 20.2697 4.78979C20.6497 4.62979 21.0697 4.5498 21.5297 4.5498C21.9197 4.5498 22.2997 4.6298 22.6797 4.7798C23.0597 4.9298 23.3697 5.1598 23.6097 5.4798L22.9397 5.98981H22.9197Z" fill="#323334"/>
<path d="M29.0793 10.7898C28.6193 10.7898 28.2093 10.7098 27.8293 10.5498C27.4493 10.3898 27.1192 10.1698 26.8492 9.8898C26.5792 9.6098 26.3692 9.2798 26.2192 8.8998C26.0592 8.5198 25.9893 8.1098 25.9893 7.6698C25.9893 7.2298 26.0692 6.8198 26.2192 6.4398C26.3692 6.0598 26.5792 5.7298 26.8492 5.4498C27.1192 5.1698 27.4493 4.94979 27.8293 4.78979C28.2093 4.62979 28.6193 4.5498 29.0793 4.5498C29.5393 4.5498 29.9493 4.62979 30.3293 4.78979C30.7093 4.94979 31.0393 5.1698 31.3093 5.4498C31.5793 5.7298 31.7893 6.0598 31.9393 6.4398C32.0893 6.8198 32.1693 7.2298 32.1693 7.6698C32.1693 8.1098 32.0893 8.5198 31.9393 8.8998C31.7893 9.2798 31.5793 9.6098 31.3093 9.8898C31.0393 10.1698 30.7093 10.3898 30.3293 10.5498C29.9493 10.7098 29.5393 10.7898 29.0793 10.7898ZM29.0793 10.0298C29.4193 10.0298 29.7293 9.9698 29.9993 9.8398C30.2693 9.7098 30.5093 9.5398 30.6993 9.3298C30.8993 9.1198 31.0393 8.8698 31.1493 8.5798C31.2593 8.2898 31.3093 7.97981 31.3093 7.65981C31.3093 7.33981 31.2593 7.02981 31.1493 6.73981C31.0393 6.44981 30.8893 6.19981 30.6993 5.98981C30.4993 5.77981 30.2693 5.6098 29.9993 5.4798C29.7293 5.3498 29.4193 5.28979 29.0793 5.28979C28.7393 5.28979 28.4292 5.3498 28.1592 5.4798C27.8892 5.6098 27.6493 5.77981 27.4593 5.98981C27.2593 6.19981 27.1093 6.44981 27.0093 6.73981C26.8993 7.02981 26.8492 7.32981 26.8492 7.65981C26.8492 7.98981 26.9093 8.2898 27.0093 8.5798C27.1193 8.8698 27.2593 9.1198 27.4593 9.3298C27.6593 9.5398 27.8892 9.7098 28.1592 9.8398C28.4292 9.9598 28.7393 10.0298 29.0793 10.0298Z" fill="#323334"/>
<path d="M34.9395 4.70996H36.1395L38.0195 9.19995H38.0594L39.9294 4.70996H41.1295V10.64H40.3195V5.76996H40.2994L38.2994 10.64H37.7595L35.7595 5.76996H35.7394V10.64H34.9395V4.70996Z" fill="#323334"/>
<path d="M44.2598 4.70946H46.3497C46.7297 4.70946 47.0397 4.75945 47.2897 4.85945C47.5297 4.95945 47.7298 5.09945 47.8698 5.25945C48.0098 5.41945 48.1097 5.59944 48.1597 5.78944C48.2197 5.98944 48.2397 6.17945 48.2397 6.35945C48.2397 6.53945 48.2097 6.72944 48.1597 6.92944C48.1097 7.12944 48.0098 7.30945 47.8698 7.46945C47.7198 7.62945 47.5297 7.75945 47.2897 7.85945C47.0397 7.95945 46.7297 8.00945 46.3497 8.00945H45.0698V10.6194H44.2598V4.68945V4.70946ZM45.0698 7.31946H46.1198C46.2798 7.31946 46.4298 7.30945 46.5898 7.27945C46.7398 7.25945 46.8798 7.20945 46.9998 7.13945C47.1198 7.06945 47.2097 6.97946 47.2897 6.84946C47.3597 6.71946 47.3998 6.55945 47.3998 6.35945C47.3998 6.15945 47.3597 5.98945 47.2897 5.86945C47.2197 5.73945 47.1198 5.64945 46.9998 5.57945C46.8798 5.50945 46.7398 5.46945 46.5898 5.43945C46.4298 5.41945 46.2798 5.39944 46.1198 5.39944H45.0698V7.30945V7.31946Z" fill="#323334"/>
<path d="M52.1501 4.70996H52.8801L55.42 10.64H54.48L53.8901 9.16995H51.0701L50.48 10.64H49.54L52.1501 4.70996ZM53.5901 8.46996L52.48 5.74995H52.4601L51.3401 8.46996H53.5801H53.5901Z" fill="#323334"/>
<path d="M58.0302 9.3998C58.1702 9.6198 58.3601 9.77981 58.5901 9.87981C58.8201 9.97981 59.0501 10.0398 59.2901 10.0398C59.4301 10.0398 59.5601 10.0198 59.7001 9.9798C59.8401 9.9398 59.9701 9.87979 60.0801 9.78979C60.1901 9.70979 60.2901 9.5998 60.3601 9.4798C60.4301 9.3598 60.4701 9.2098 60.4701 9.0498C60.4701 8.8198 60.4001 8.64981 60.2501 8.51981C60.1101 8.39981 59.9301 8.2998 59.7101 8.2198C59.4901 8.1398 59.2601 8.0598 59.0101 7.9798C58.7501 7.8998 58.5201 7.7998 58.3001 7.6698C58.0901 7.5398 57.9101 7.35981 57.7601 7.12981C57.6201 6.89981 57.5401 6.59981 57.5401 6.20981C57.5401 6.03981 57.5801 5.84981 57.6501 5.65981C57.7301 5.45981 57.8501 5.2898 58.0101 5.1198C58.1701 4.9598 58.3801 4.81981 58.6401 4.70981C58.8901 4.59981 59.2001 4.5498 59.5601 4.5498C59.8801 4.5498 60.1901 4.59979 60.4901 4.67979C60.7901 4.76979 61.0501 4.9498 61.2701 5.2198L60.6201 5.81981C60.5201 5.65981 60.3801 5.5398 60.1901 5.4398C60.0101 5.3498 59.8001 5.2998 59.5601 5.2998C59.3201 5.2998 59.1501 5.3298 59.0001 5.3898C58.8501 5.4498 58.7301 5.5198 58.6401 5.6198C58.5501 5.7098 58.4901 5.8098 58.4501 5.9198C58.4101 6.0298 58.4001 6.11981 58.4001 6.20981C58.4001 6.45981 58.4701 6.64979 58.6201 6.78979C58.7701 6.91979 58.9501 7.0298 59.1601 7.1198C59.3801 7.1998 59.6101 7.27981 59.8601 7.34981C60.1201 7.41981 60.3501 7.50981 60.5601 7.62981C60.7701 7.74981 60.9501 7.9098 61.1001 8.1198C61.2401 8.3298 61.3201 8.60981 61.3201 8.95981C61.3201 9.24981 61.2701 9.4998 61.1601 9.7298C61.0501 9.9598 60.9001 10.1498 60.7201 10.3098C60.5401 10.4598 60.3201 10.5898 60.0601 10.6698C59.8101 10.7498 59.5401 10.7998 59.2601 10.7998C58.8801 10.7998 58.5201 10.7298 58.1801 10.5998C57.8401 10.4598 57.5701 10.2598 57.3701 9.9798L58.0302 9.40981V9.3998Z" fill="#323334"/>
<path d="M64.3599 9.3998C64.5099 9.6198 64.6899 9.77981 64.9199 9.87981C65.1499 9.97981 65.3799 10.0398 65.6199 10.0398C65.7499 10.0398 65.89 10.0198 66.03 9.9798C66.17 9.9398 66.2999 9.87979 66.4099 9.78979C66.5199 9.70979 66.6199 9.5998 66.6899 9.4798C66.7599 9.3598 66.7999 9.2098 66.7999 9.0498C66.7999 8.8198 66.73 8.64981 66.58 8.51981C66.43 8.39981 66.2499 8.2998 66.0399 8.2198C65.8199 8.1398 65.59 8.0598 65.34 7.9798C65.08 7.8998 64.85 7.7998 64.64 7.6698C64.42 7.5398 64.2399 7.35981 64.0999 7.12981C63.9499 6.89981 63.8799 6.59981 63.8799 6.20981C63.8799 6.03981 63.9199 5.84981 63.9899 5.65981C64.0699 5.45981 64.18 5.2898 64.34 5.1198C64.5 4.9598 64.7099 4.81981 64.9699 4.70981C65.2199 4.59981 65.53 4.5498 65.89 4.5498C66.21 4.5498 66.5199 4.59979 66.8199 4.67979C67.1099 4.76979 67.3699 4.9498 67.5999 5.2198L66.95 5.81981C66.85 5.65981 66.71 5.5398 66.52 5.4398C66.34 5.3498 66.13 5.2998 65.89 5.2998C65.65 5.2998 65.48 5.3298 65.33 5.3898C65.18 5.4498 65.0599 5.5198 64.9699 5.6198C64.8799 5.7098 64.82 5.8098 64.78 5.9198C64.74 6.0298 64.7299 6.11981 64.7299 6.20981C64.7299 6.45981 64.8 6.64979 64.95 6.78979C65.09 6.91979 65.2699 7.0298 65.4899 7.1198C65.6999 7.1998 65.9399 7.27981 66.1899 7.34981C66.4399 7.41981 66.68 7.50981 66.9 7.62981C67.11 7.74981 67.2899 7.9098 67.4399 8.1198C67.5899 8.3298 67.6599 8.60981 67.6599 8.95981C67.6599 9.24981 67.6099 9.4998 67.4999 9.7298C67.3899 9.9598 67.2499 10.1498 67.0599 10.3098C66.8699 10.4598 66.6599 10.5898 66.4099 10.6698C66.1599 10.7498 65.8899 10.7998 65.5999 10.7998C65.2199 10.7998 64.86 10.7298 64.52 10.5998C64.18 10.4598 63.9 10.2598 63.71 9.9798L64.3699 9.40981L64.3599 9.3998Z" fill="#323334"/>
<path d="M7.86057 14.0806C4.68057 14.0806 2.10059 11.5006 2.10059 8.32056C2.10059 5.14056 4.68057 2.56055 7.86057 2.56055C11.0406 2.56055 13.6206 5.14056 13.6206 8.32056C13.6206 11.5006 11.0406 14.0806 7.86057 14.0806ZM7.86057 3.01054C4.93057 3.01054 2.55057 5.39056 2.55057 8.32056C2.55057 11.2506 4.93057 13.6306 7.86057 13.6306C10.7906 13.6306 13.1706 11.2506 13.1706 8.32056C13.1706 5.39056 10.7906 3.01054 7.86057 3.01054Z" fill="#323334"/>
<path d="M11.7705 11.9803L7.86053 5.21031L3.95056 11.9803L3.56055 11.7603L7.86053 4.32031L12.1506 11.7603L11.7705 11.9803Z" fill="#323334"/>
<path d="M7.8902 15.7501C3.7902 15.7501 0.450195 12.4101 0.450195 8.31012C0.450195 4.21012 3.7902 0.870117 7.8902 0.870117C9.7802 0.870117 11.5902 1.58013 12.9702 2.88013L12.6702 3.20012C11.3702 1.98012 9.6702 1.31012 7.8902 1.31012C4.0302 1.31012 0.900177 4.45013 0.900177 8.30013C0.900177 12.1501 4.0402 15.2901 7.8902 15.2901C9.6102 15.2901 11.2602 14.6601 12.5402 13.5201L12.8402 13.8501C11.4802 15.0701 9.7202 15.7401 7.8902 15.7401V15.7501Z" fill="#323334"/>
<path d="M4.03009 13.3806H3.58008V4.47055L3.96008 4.06055L7.8801 8.16055L11.7701 4.09055L12.1301 4.46056V11.8206H11.6901V4.82056L7.87009 8.80055L4.03009 4.77055V13.3806Z" fill="#323334"/>
<path d="M10.4702 12.5397C10.2802 12.5397 10.0902 12.5097 9.91019 12.4497C9.29019 12.2597 8.85018 11.7697 8.77018 11.2197C8.60018 9.99967 9.40018 9.56967 10.1202 9.32967C10.9902 9.03967 11.5202 8.82968 11.5302 8.06968C11.5402 7.38968 11.1802 7.03967 10.3702 6.93967C9.77018 6.85967 9.41018 7.22967 9.40018 7.24967L9.0702 6.94967C9.0702 6.94967 9.6002 6.39966 10.4202 6.50966C11.4602 6.64966 11.9802 7.17966 11.9602 8.08966C11.9402 9.19966 11.0402 9.49966 10.2402 9.75966C9.38018 10.0497 9.09019 10.4297 9.19019 11.1597C9.24019 11.5397 9.58018 11.8897 10.0202 12.0297C10.2802 12.1097 10.9502 12.2297 11.5702 11.5797L11.9002 11.8797C11.5002 12.3097 10.9802 12.5397 10.4502 12.5397H10.4702Z" fill="#323334"/>
<path d="M5.27009 12.5401C4.74009 12.5401 4.23011 12.3101 3.82011 11.8801L4.15009 11.5801C4.76009 12.2401 5.43011 12.1201 5.70011 12.0301C6.15011 11.8901 6.4801 11.5401 6.5301 11.1601C6.6301 10.4201 6.35011 10.0401 5.48011 9.76013C4.69011 9.50013 3.78009 9.20013 3.77009 8.09013C3.75009 7.18013 4.2701 6.64013 5.3101 6.51013C6.1401 6.40013 6.6401 6.93013 6.6601 6.95013L6.34009 7.25013C6.34009 7.25013 5.96009 6.87014 5.37009 6.94014C4.56009 7.05014 4.2001 7.40014 4.2201 8.07014C4.2301 8.82014 4.7601 9.04013 5.6301 9.33013C6.3401 9.57013 7.14011 9.99013 6.98011 11.2201C6.91011 11.7701 6.46009 12.2601 5.84009 12.4501C5.65009 12.5101 5.4701 12.5401 5.2801 12.5401H5.27009Z" fill="#323334"/>
<path d="M8.32062 14.3105L7.8606 15.1105L7.39062 14.3105H8.32062Z" fill="#323334"/>
<path d="M7.39062 2.30977L7.8606 1.50977L8.32062 2.30977H7.39062Z" fill="#323334"/>
<path d="M13.8604 7.83984L14.6603 8.30984L13.8604 8.76985V7.83984Z" fill="#323334"/>
<path d="M1.86053 8.77058L1.06055 8.31058L1.86053 7.85059V8.77058Z" fill="#323334"/>
</svg>
