<svg width="39" height="40" viewBox="0 0 39 40" fill="none" xmlns="http://www.w3.org/2000/svg">
<path d="M35.49 9.12036C35.47 9.17036 35.48 9.23036 35.48 9.28036C35.48 9.32036 35.48 9.36038 35.51 9.39038C35.51 9.39038 35.52 9.39038 35.53 9.39038V9.11035C35.53 9.11035 35.51 9.11035 35.5 9.11035L35.49 9.12036Z" fill="#323334"/>
<path d="M35.4999 8.93066C35.4999 8.93066 35.4799 8.97066 35.4699 8.99066C35.4699 9.03066 35.4599 9.08067 35.4999 9.12067C35.4999 9.06067 35.4999 9.00066 35.4999 8.93066C35.4999 8.93066 35.4999 8.93066 35.4899 8.93066H35.4999Z" fill="#323334"/>
<path d="M35.4194 8C35.3994 8.06 35.4194 8.11001 35.4394 8.17001C35.4394 8.11001 35.4394 8.06 35.4194 8Z" fill="#323334"/>
<path d="M20.4092 9.68066C20.3792 9.74066 20.3792 9.79068 20.4092 9.85068C20.4092 9.83068 20.4092 9.81068 20.4092 9.79068C20.4092 9.75068 20.4092 9.72066 20.4092 9.68066Z" fill="#323334"/>
<path d="M35.3395 7.63C35.3395 7.63 35.3395 7.63 35.3495 7.63C35.3495 7.58 35.3495 7.54 35.3295 7.5C35.2895 7.54 35.3495 7.58 35.3295 7.62L35.3395 7.63Z" fill="#323334"/>
<path d="M20.6895 7.01013C20.6895 7.01013 20.7295 6.92012 20.7295 6.87012C20.7095 6.91012 20.6795 6.96013 20.6895 7.01013Z" fill="#323334"/>
<path d="M20.4092 9.85059C20.4092 9.85059 20.4092 9.95058 20.4092 10.0006C20.4392 9.95058 20.4292 9.90059 20.4092 9.85059Z" fill="#323334"/>
<path d="M20.4499 10.1805V10.2905C20.4499 10.2905 20.4699 10.3605 20.4899 10.3905C20.4699 10.3605 20.5099 10.3105 20.4599 10.2905C20.4599 10.2505 20.4599 10.2105 20.4599 10.1705C20.4599 10.1705 20.4599 10.1405 20.4399 10.1305C20.4399 10.0905 20.4399 10.0605 20.4399 10.0205C20.4199 10.0305 20.4299 10.0605 20.4199 10.0705C20.4199 10.0905 20.4199 10.1105 20.4199 10.1205C20.4199 10.1205 20.4199 10.1605 20.4299 10.1805H20.4499Z" fill="#323334"/>
<path d="M34.3395 5.13028C34.3395 5.13028 34.3095 5.05027 34.2795 5.03027C34.2595 5.06027 34.2895 5.07027 34.2795 5.09027C34.2795 5.12027 34.2995 5.14028 34.3295 5.13028H34.3395Z" fill="#323334"/>
<path d="M20.3896 9.41992C20.3896 9.41992 20.3896 9.41992 20.3796 9.41992C20.3796 9.45992 20.3596 9.5099 20.3896 9.5499C20.3896 9.5099 20.3896 9.46992 20.3896 9.41992Z" fill="#323334"/>
<path d="M35.3496 7.73987C35.3496 7.73987 35.3495 7.73987 35.3595 7.73987C35.3395 7.75987 35.3396 7.77988 35.3496 7.80988C35.3496 7.81988 35.3696 7.82987 35.3796 7.83987C35.3796 7.83987 35.3796 7.83987 35.3896 7.83987C35.3896 7.83987 35.3796 7.83987 35.3696 7.83987C35.3696 7.84987 35.3696 7.85987 35.3696 7.86987C35.3696 7.89987 35.3796 7.91988 35.3896 7.93988C35.4096 7.89988 35.3896 7.86986 35.3896 7.82986C35.3896 7.79986 35.3796 7.76987 35.3696 7.73987C35.3696 7.73987 35.3696 7.65988 35.3396 7.62988C35.3296 7.66988 35.2996 7.70988 35.3396 7.74988L35.3496 7.73987Z" fill="#323334"/>
<path d="M20.3794 8.87C20.3694 9.05 20.3794 9.23 20.3794 9.41C20.3794 9.41 20.3795 9.41 20.3895 9.41C20.3895 9.23 20.3895 9.04999 20.3895 8.85999C20.3895 8.81999 20.4094 8.78 20.3794 8.75C20.3794 8.79 20.3794 8.81999 20.3794 8.85999V8.87Z" fill="#323334"/>
<path d="M20.4297 8.12988C20.4297 8.12988 20.4297 8.20988 20.4297 8.24988C20.4597 8.20988 20.4597 8.16988 20.4297 8.12988Z" fill="#323334"/>
<path d="M20.3792 8.65002V8.74002C20.3792 8.74002 20.3891 8.68002 20.3991 8.65002C20.4191 8.63002 20.4191 8.60004 20.4091 8.57004C20.4091 8.57004 20.4091 8.50002 20.4091 8.46002C20.3891 8.40002 20.4591 8.34004 20.4091 8.29004C20.4091 8.38004 20.3792 8.47002 20.3892 8.55002C20.3692 8.58002 20.3691 8.61002 20.3691 8.65002H20.3792Z" fill="#323334"/>
<path d="M34.7098 11.2398C34.7498 11.1598 34.7699 11.0798 34.7899 10.9998C34.8099 10.9598 34.8299 10.9098 34.8199 10.8598C34.8599 10.7598 34.8799 10.6499 34.8899 10.5399C34.8899 10.4699 34.9498 10.4098 34.9098 10.3398C34.8798 10.4098 34.8598 10.4698 34.8698 10.5498C34.8398 10.6498 34.8098 10.7499 34.7798 10.8499C34.7798 10.8499 34.7798 10.8598 34.7798 10.8698C34.7498 10.8998 34.7299 10.9298 34.7599 10.9698C34.6899 11.0198 34.6999 11.0998 34.6999 11.1798C34.6999 11.1998 34.6699 11.2298 34.6999 11.2398H34.7098Z" fill="#323334"/>
<path d="M20.9199 9.42017C20.9199 9.42017 20.9198 9.42017 20.9098 9.42017C20.9098 9.46017 20.8899 9.51016 20.9199 9.54016C20.9199 9.50016 20.9199 9.46016 20.9199 9.41016V9.42017Z" fill="#323334"/>
<path d="M20.9398 9.82019C20.9398 9.82019 20.9398 9.7402 20.9398 9.7002C20.9098 9.7402 20.9198 9.78019 20.9398 9.82019Z" fill="#323334"/>
<path d="M20.9391 9.9006C20.9391 9.9006 20.9291 9.9606 20.9591 9.9906V9.98062C20.9591 9.95062 20.9591 9.92062 20.9591 9.89063C20.9591 9.89063 20.9491 9.8906 20.9391 9.9006Z" fill="#323334"/>
<path d="M21.1491 10.9299C21.1491 10.9299 21.1491 10.8899 21.1191 10.8799C21.1191 10.9099 21.1192 10.9399 21.1392 10.9699C21.1592 10.9599 21.1392 10.9399 21.1392 10.9299H21.1491Z" fill="#323334"/>
<path d="M21 10.3905C21 10.3905 21.02 10.4405 21.03 10.4705C21.03 10.4405 21.05 10.4105 21.02 10.3905C21.02 10.3805 21.02 10.3705 21.02 10.3505C21.02 10.3205 21.02 10.2905 21 10.2705C21 10.3105 21 10.3505 21 10.3805V10.3905Z" fill="#323334"/>
<path d="M21.1592 11.0107C21.1592 11.0107 21.1592 11.0707 21.1792 11.1007C21.1792 11.0707 21.1792 11.0407 21.1592 11.0107Z" fill="#323334"/>
<path d="M21.33 11.5204C21.33 11.5204 21.32 11.4604 21.3 11.4404C21.29 11.4404 21.29 11.4604 21.29 11.4704C21.31 11.4804 21.31 11.5104 21.34 11.5204H21.33Z" fill="#323334"/>
<path d="M15.5895 37.3001C15.6795 37.2801 15.7695 37.3001 15.8495 37.3501C15.9295 37.4001 15.9895 37.4801 16.0195 37.6001H16.2195L16.0995 37.1501H16.0195C16.0195 37.1501 16.0195 37.1801 16.0095 37.1901C16.0095 37.2001 15.9895 37.2001 15.9595 37.1901C15.9395 37.1901 15.9195 37.1801 15.8895 37.1701C15.8595 37.1701 15.8295 37.1501 15.7995 37.1401C15.7695 37.1401 15.7295 37.1301 15.6895 37.1201C15.6495 37.1201 15.6095 37.1201 15.5695 37.1201C15.4095 37.1201 15.2695 37.1601 15.1495 37.2401C15.0295 37.3201 14.9395 37.4101 14.8695 37.5301C14.7995 37.6501 14.7595 37.7701 14.7395 37.9101C14.7195 38.0501 14.7295 38.1901 14.7695 38.3201C14.8095 38.4501 14.8695 38.5701 14.9595 38.6801C15.0495 38.7901 15.1695 38.8701 15.3195 38.9201C15.3795 38.9401 15.4595 38.9601 15.5395 38.9701C15.6195 38.9701 15.7095 38.9701 15.7895 38.9701C15.8695 38.9701 15.9495 38.9501 16.0295 38.9201C16.1095 38.9001 16.1695 38.8601 16.2195 38.8201V38.6201C16.0995 38.7001 15.9795 38.7501 15.8495 38.7501C15.7195 38.7501 15.5995 38.7101 15.4895 38.6101C15.4395 38.5701 15.3995 38.5201 15.3595 38.4601C15.3195 38.4001 15.2995 38.3401 15.2795 38.2801C15.2595 38.2201 15.2395 38.1501 15.2295 38.0801C15.2295 38.0101 15.2195 37.9401 15.2295 37.8801C15.2295 37.7101 15.2795 37.5801 15.3495 37.4901C15.4195 37.4001 15.4995 37.3401 15.5895 37.3301V37.3001Z" fill="#323334"/>
<path d="M17.6001 37.2006C17.4701 37.1406 17.3401 37.1006 17.1901 37.1006C17.0401 37.1006 16.9001 37.1306 16.7801 37.2006C16.6501 37.2606 16.5501 37.3606 16.4601 37.4906C16.3701 37.6206 16.3301 37.7806 16.3301 37.9806V38.0806C16.3301 38.2806 16.3701 38.4406 16.4601 38.5706C16.5501 38.7006 16.6501 38.8006 16.7801 38.8606C16.9101 38.9306 17.0401 38.9606 17.1901 38.9606C17.3401 38.9606 17.4801 38.9306 17.6001 38.8606C17.7301 38.7906 17.8301 38.7006 17.9201 38.5706C18.0001 38.4406 18.0501 38.2806 18.0501 38.0806V37.9806C18.0501 37.7806 18.0101 37.6206 17.9201 37.4906C17.8401 37.3606 17.7301 37.2606 17.6001 37.2006ZM17.5101 38.4406C17.4701 38.5506 17.4301 38.6306 17.3701 38.6806C17.3101 38.7306 17.2501 38.7606 17.1901 38.7606C17.1201 38.7606 17.0601 38.7306 17.0101 38.6806C16.9501 38.6306 16.9101 38.5406 16.8701 38.4306C16.8301 38.3206 16.8101 38.1806 16.8101 38.0206C16.8101 37.8606 16.8301 37.7206 16.8701 37.6106C16.9101 37.5006 16.9601 37.4206 17.0101 37.3606C17.0701 37.3106 17.1301 37.2806 17.1901 37.2806C17.2501 37.2806 17.3201 37.3106 17.3701 37.3606C17.4301 37.4206 17.4701 37.5006 17.5101 37.6106C17.5501 37.7206 17.5701 37.8606 17.5701 38.0206C17.5701 38.1806 17.5501 38.3206 17.5101 38.4306V38.4406Z" fill="#323334"/>
<path d="M19.0897 37.3001C19.1797 37.2801 19.2697 37.3001 19.3497 37.3501C19.4297 37.4001 19.4897 37.4801 19.5197 37.6001H19.7197L19.5997 37.1501H19.5197C19.5197 37.1501 19.5197 37.1801 19.5097 37.1901C19.5097 37.2001 19.4897 37.2001 19.4597 37.1901C19.4397 37.1901 19.4197 37.1801 19.3897 37.1701C19.3597 37.1701 19.3297 37.1501 19.2897 37.1401C19.2597 37.1401 19.2197 37.1301 19.1797 37.1201C19.1397 37.1201 19.0997 37.1201 19.0597 37.1201C18.8997 37.1201 18.7597 37.1601 18.6397 37.2401C18.5197 37.3201 18.4297 37.4101 18.3597 37.5301C18.2897 37.6501 18.2497 37.7701 18.2297 37.9101C18.2097 38.0501 18.2197 38.1901 18.2597 38.3201C18.2997 38.4501 18.3597 38.5701 18.4497 38.6801C18.5397 38.7901 18.6597 38.8701 18.8097 38.9201C18.8797 38.9401 18.9497 38.9601 19.0297 38.9701C19.1097 38.9701 19.1997 38.9701 19.2797 38.9701C19.3597 38.9701 19.4397 38.9501 19.5197 38.9201C19.5997 38.9001 19.6597 38.8601 19.7097 38.8201V38.6201C19.5897 38.7001 19.4697 38.7501 19.3397 38.7501C19.2097 38.7501 19.0897 38.7101 18.9797 38.6101C18.9297 38.5701 18.8897 38.5201 18.8497 38.4601C18.8197 38.4001 18.7897 38.3401 18.7697 38.2801C18.7497 38.2201 18.7297 38.1501 18.7197 38.0801C18.7097 38.0101 18.7097 37.9401 18.7197 37.8801C18.7197 37.7101 18.7697 37.5801 18.8397 37.4901C18.9097 37.4001 18.9897 37.3401 19.0797 37.3301L19.0897 37.3001Z" fill="#323334"/>
<path d="M19.8896 37.1904C19.8896 37.1904 19.9496 37.2204 19.9796 37.2604C19.9996 37.2904 20.0096 37.3304 20.0096 37.3604V38.7304C20.0096 38.7304 19.9996 38.8004 19.9796 38.8304C19.9596 38.8604 19.9296 38.8804 19.8896 38.8904V38.9304H20.5796V38.8904C20.5796 38.8904 20.5196 38.8604 20.4996 38.8304C20.4796 38.8004 20.4696 38.7604 20.4696 38.7304V37.3604C20.4696 37.3604 20.4796 37.2904 20.4996 37.2604C20.5196 37.2304 20.5496 37.2104 20.5796 37.1904V37.1504H19.8896V37.1904Z" fill="#323334"/>
<path d="M21.8 37.1904C21.8 37.1904 21.86 37.2204 21.88 37.2504C21.9 37.2804 21.91 37.3204 21.91 37.3604V38.5004L21.42 37.1504H20.79V37.1904C20.79 37.1904 20.85 37.2204 20.87 37.2504C20.89 37.2804 20.9 37.3204 20.9 37.3604V38.7304C20.9 38.7304 20.89 38.8004 20.87 38.8304C20.85 38.8604 20.82 38.8804 20.79 38.8904V38.9304H21.26V38.8904C21.26 38.8904 21.2 38.8604 21.18 38.8304C21.16 38.8004 21.15 38.7604 21.15 38.7304V37.6204L21.52 38.6404C21.56 38.7304 21.61 38.8004 21.69 38.8604C21.77 38.9204 21.86 38.9404 21.96 38.9404H22.26V38.9004C22.26 38.9004 22.2 38.8704 22.18 38.8404C22.16 38.8104 22.15 38.7704 22.15 38.7404V37.3704C22.15 37.3704 22.16 37.2904 22.18 37.2604C22.2 37.2304 22.23 37.2104 22.26 37.2004V37.1604H21.8V37.2004V37.1904Z" fill="#323334"/>
<path d="M23.9493 38.7304L23.5293 37.1504H22.9593V37.1904C22.9593 37.1904 23.0093 37.2304 23.0193 37.2604C23.0293 37.2904 23.0293 37.3204 23.0193 37.3504L22.6493 38.7304C22.6493 38.7304 22.6193 38.8104 22.5893 38.8404C22.5593 38.8704 22.5293 38.8904 22.4893 38.9004V38.9404H22.9393V38.8904C22.9393 38.8904 22.8893 38.8504 22.8793 38.8204C22.8693 38.7904 22.8693 38.7604 22.8793 38.7204L22.9593 38.4304H23.4193L23.4993 38.7204C23.4993 38.7204 23.5093 38.7904 23.4993 38.8204C23.4893 38.8504 23.4693 38.8704 23.4393 38.8904V38.9404H24.1193V38.9004C24.1193 38.9004 24.0393 38.8704 24.0093 38.8404C23.9793 38.8104 23.9593 38.7704 23.9493 38.7304ZM23.0093 38.2604L23.1893 37.5804L23.3693 38.2604H22.9993H23.0093Z" fill="#323334"/>
<path d="M26.0197 38.4004L25.6797 37.1504H25.0098V37.1904C25.0098 37.1904 25.0698 37.2204 25.0998 37.2504C25.1198 37.2804 25.1298 37.3204 25.1298 37.3604V38.7304C25.1298 38.7304 25.1198 38.8004 25.0998 38.8304C25.0798 38.8604 25.0498 38.8804 25.0098 38.8904V38.9304H25.4798V38.8904C25.4798 38.8904 25.4198 38.8604 25.3898 38.8304C25.3698 38.8004 25.3597 38.7604 25.3597 38.7304V37.6204L25.6298 38.6304C25.6498 38.7104 25.6998 38.7804 25.7598 38.8404C25.8298 38.9004 25.8997 38.9304 25.9897 38.9404H26.1097C26.1697 38.7104 26.2298 38.5104 26.2798 38.3204C26.2998 38.2404 26.3198 38.1604 26.3398 38.0804C26.3598 38.0004 26.3797 37.9304 26.3997 37.8704C26.4197 37.8104 26.4298 37.7504 26.4398 37.7104C26.4498 37.6604 26.4598 37.6304 26.4698 37.6204V38.7304C26.4698 38.7304 26.4598 38.8004 26.4398 38.8304C26.4198 38.8604 26.3897 38.8804 26.3597 38.8904V38.9304H27.0497V38.8904C27.0497 38.8904 26.9898 38.8604 26.9698 38.8304C26.9498 38.8004 26.9398 38.7604 26.9398 38.7304V37.3604C26.9398 37.3604 26.9498 37.2804 26.9698 37.2504C26.9898 37.2204 27.0197 37.2004 27.0497 37.1904V37.1504H26.3798L26.0497 38.4004H26.0197Z" fill="#323334"/>
<path d="M28.26 38.6806C28.26 38.6806 28.19 38.7106 28.16 38.7106H27.82V38.1506H27.98C27.98 38.1506 28.04 38.1706 28.07 38.1906C28.1 38.2106 28.11 38.2406 28.12 38.2706H28.16L28.28 37.8506H28.2C28.16 37.9006 28.11 37.9306 28.05 37.9306H27.82V37.3806H28.14C28.14 37.3806 28.22 37.3906 28.25 37.4106C28.28 37.4306 28.3 37.4606 28.31 37.4906H28.39L28.35 37.3706L28.29 37.1406H27.25V37.1806C27.25 37.1806 27.31 37.2106 27.33 37.2406C27.35 37.2706 27.36 37.3106 27.36 37.3506V38.7206C27.36 38.7206 27.35 38.8006 27.33 38.8306C27.31 38.8606 27.28 38.8806 27.25 38.8906V38.9306H28.31L28.4 38.5806H28.32C28.32 38.5806 28.29 38.6406 28.26 38.6606V38.6806Z" fill="#323334"/>
<path d="M30.0593 38.7606L29.5993 37.9806L29.9793 37.3306C30.0193 37.2606 30.0793 37.2206 30.1593 37.1906V37.1406H29.6593V37.1906C29.6593 37.1906 29.7093 37.2206 29.7193 37.2506C29.7293 37.2806 29.7293 37.3006 29.7193 37.3306L29.4693 37.7506L29.2293 37.3406C29.2293 37.3406 29.2093 37.2906 29.2293 37.2606C29.2393 37.2306 29.2593 37.2106 29.2893 37.1906V37.1406H28.5893V37.1906C28.6693 37.2106 28.7293 37.2606 28.7793 37.3306L29.1693 37.9906L28.7093 38.7606C28.7093 38.7606 28.6693 38.8206 28.6293 38.8406C28.5893 38.8606 28.5593 38.8806 28.5293 38.8906V38.9306H29.0393V38.8906C29.0393 38.8906 28.9893 38.8606 28.9793 38.8306C28.9693 38.8006 28.9693 38.7806 28.9793 38.7506L29.3093 38.2106L29.6193 38.7406C29.6193 38.7406 29.6393 38.7906 29.6193 38.8206C29.6093 38.8506 29.5893 38.8706 29.5593 38.8906V38.9306H30.2493V38.8906C30.2493 38.8906 30.1793 38.8606 30.1393 38.8406C30.1093 38.8206 30.0793 38.7906 30.0593 38.7506V38.7606Z" fill="#323334"/>
<path d="M30.4199 37.1904C30.4199 37.1904 30.4799 37.2204 30.5099 37.2604C30.5299 37.2904 30.5399 37.3304 30.5399 37.3604V38.7304C30.5399 38.7304 30.5299 38.8004 30.5099 38.8304C30.4899 38.8604 30.4599 38.8804 30.4199 38.8904V38.9304H31.1099V38.8904C31.1099 38.8904 31.0499 38.8604 31.0299 38.8304C31.0099 38.8004 30.9999 38.7604 30.9999 38.7304V37.3604C30.9999 37.3604 31.0099 37.2904 31.0299 37.2604C31.0499 37.2304 31.0799 37.2104 31.1099 37.1904V37.1504H30.4199V37.1904Z" fill="#323334"/>
<path d="M32.1393 37.3001C32.2293 37.2801 32.3193 37.3001 32.3993 37.3501C32.4793 37.4001 32.5393 37.4801 32.5693 37.6001H32.7693L32.6493 37.1501H32.5693C32.5693 37.1501 32.5693 37.1801 32.5593 37.1901C32.5593 37.2001 32.5393 37.2001 32.5093 37.1901C32.4893 37.1901 32.4693 37.1801 32.4393 37.1701C32.4093 37.1701 32.3793 37.1501 32.3493 37.1401C32.3193 37.1401 32.2793 37.1301 32.2393 37.1201C32.1993 37.1201 32.1593 37.1201 32.1193 37.1201C31.9593 37.1201 31.8193 37.1601 31.6993 37.2401C31.5793 37.3201 31.4893 37.4101 31.4193 37.5301C31.3493 37.6501 31.3093 37.7701 31.2893 37.9101C31.2693 38.0501 31.2793 38.1901 31.3193 38.3201C31.3593 38.4501 31.4193 38.5701 31.5093 38.6801C31.5993 38.7901 31.7193 38.8701 31.8693 38.9201C31.9293 38.9401 32.0093 38.9601 32.0893 38.9701C32.1693 38.9701 32.2593 38.9701 32.3393 38.9701C32.4193 38.9701 32.4993 38.9501 32.5793 38.9201C32.6593 38.9001 32.7193 38.8601 32.7693 38.8201V38.6201C32.6493 38.7001 32.5293 38.7501 32.3993 38.7501C32.2693 38.7501 32.1493 38.7101 32.0393 38.6101C31.9893 38.5701 31.9493 38.5201 31.9093 38.4601C31.8693 38.4001 31.8493 38.3401 31.8293 38.2801C31.8093 38.2201 31.7893 38.1501 31.7793 38.0801C31.7793 38.0101 31.7693 37.9401 31.7793 37.8801C31.7893 37.7101 31.8293 37.5801 31.8993 37.4901C31.9693 37.4001 32.0493 37.3401 32.1393 37.3301V37.3001Z" fill="#323334"/>
<path d="M34.3994 38.7304L33.9795 37.1504H33.4095V37.1904C33.4095 37.1904 33.4595 37.2304 33.4695 37.2604C33.4795 37.2904 33.4795 37.3204 33.4695 37.3504L33.0995 38.7304C33.0995 38.7304 33.0695 38.8104 33.0395 38.8404C33.0095 38.8704 32.9795 38.8904 32.9395 38.9004V38.9404H33.3895V38.8904C33.3895 38.8904 33.3394 38.8504 33.3294 38.8204C33.3194 38.7904 33.3194 38.7604 33.3294 38.7204L33.4095 38.4304H33.8694L33.9495 38.7204C33.9495 38.7204 33.9595 38.7904 33.9495 38.8204C33.9395 38.8504 33.9195 38.8704 33.8895 38.8904V38.9404H34.5695V38.9004C34.5695 38.9004 34.4895 38.8704 34.4695 38.8404C34.4395 38.8104 34.4195 38.7704 34.4095 38.7304H34.3994ZM33.4594 38.2604L33.6395 37.5804L33.8195 38.2604H33.4495H33.4594Z" fill="#323334"/>
<path d="M35.76 37.1904C35.76 37.1904 35.82 37.2204 35.84 37.2504C35.86 37.2804 35.87 37.3204 35.87 37.3604V38.5004L35.38 37.1504H34.75V37.1904C34.75 37.1904 34.81 37.2204 34.83 37.2504C34.85 37.2804 34.86 37.3204 34.86 37.3604V38.7304C34.86 38.7304 34.85 38.8004 34.83 38.8304C34.81 38.8604 34.78 38.8804 34.75 38.8904V38.9304H35.22V38.8904C35.22 38.8904 35.16 38.8604 35.14 38.8304C35.12 38.8004 35.11 38.7604 35.11 38.7304V37.6204L35.48 38.6404C35.52 38.7304 35.57 38.8004 35.65 38.8604C35.73 38.9204 35.82 38.9404 35.92 38.9404H36.22V38.9004C36.22 38.9004 36.16 38.8704 36.14 38.8404C36.12 38.8104 36.11 38.7704 36.11 38.7404V37.3704C36.11 37.3704 36.12 37.2904 36.14 37.2604C36.16 37.2304 36.19 37.2104 36.22 37.2004V37.1604H35.76V37.2004V37.1904Z" fill="#323334"/>
<path d="M37.9692 38.8306C37.9692 38.8306 37.9192 38.7606 37.9092 38.7206L37.4892 37.1406H36.9192V37.1806C36.9192 37.1806 36.9692 37.2206 36.9792 37.2506C36.9892 37.2806 36.9892 37.3106 36.9792 37.3406L36.6092 38.7206C36.6092 38.7206 36.5792 38.8006 36.5492 38.8306C36.5192 38.8606 36.4892 38.8806 36.4492 38.8906V38.9306H36.8992V38.8806C36.8992 38.8806 36.8492 38.8406 36.8392 38.8106C36.8292 38.7806 36.8292 38.7506 36.8392 38.7106L36.9192 38.4206H37.3792L37.4592 38.7106C37.4592 38.7106 37.4692 38.7806 37.4592 38.8106C37.4492 38.8406 37.4292 38.8606 37.3992 38.8806V38.9306H38.0792V38.8906C38.0792 38.8906 37.9992 38.8606 37.9792 38.8306H37.9692ZM36.9592 38.2606L37.1392 37.5806L37.3192 38.2606H36.9492H36.9592Z" fill="#323334"/>
<path d="M20.4997 8.10033C20.4697 8.22033 20.4698 8.35033 20.4498 8.48033C20.4498 8.48033 20.4498 8.49032 20.4498 8.50032C20.4398 8.54032 20.4498 8.59033 20.4498 8.63033C20.4498 8.63033 20.4497 8.65032 20.4597 8.65032H20.4498C20.4498 8.70032 20.4498 8.75033 20.4498 8.79033C20.4498 8.86033 20.4498 8.94033 20.4498 9.01033C20.4498 9.01033 20.4497 9.10034 20.4697 9.14034C20.4697 9.14034 20.4498 9.20033 20.4498 9.23033C20.4498 9.34033 20.4498 9.44031 20.4498 9.55031C20.4498 9.59031 20.4498 9.63033 20.4498 9.67033C20.4798 9.76033 20.4598 9.86031 20.4798 9.96031C20.4898 10.1003 20.5398 10.2403 20.5398 10.3903C20.5398 10.3903 20.5297 10.3903 20.5197 10.3903C20.5197 10.4103 20.5197 10.4303 20.5197 10.4503C20.5097 10.5703 20.5498 10.6803 20.5698 10.7903C20.5698 10.8803 20.5997 10.9703 20.6297 11.0503C20.6297 11.1203 20.6597 11.1803 20.6797 11.2403C20.6797 11.2703 20.6797 11.3003 20.7097 11.3303L20.7497 11.4603C20.7497 11.4603 20.7497 11.5203 20.7797 11.5403C20.8497 11.7503 20.9297 11.9603 21.0197 12.1503C21.0697 12.2603 21.0998 12.3703 21.1698 12.4703C21.1998 12.5503 21.2397 12.6203 21.2797 12.6903C21.3297 12.8203 21.3997 12.9403 21.4697 13.0603C21.4697 13.0903 21.4898 13.1003 21.5098 13.1203C21.5498 13.1903 21.5898 13.2503 21.6398 13.3103C21.6498 13.3403 21.6697 13.3703 21.6897 13.3903C21.7697 13.5103 21.8597 13.6303 21.9597 13.7403C22.2797 14.1903 22.6697 14.5703 23.0897 14.9303C23.4397 15.2203 23.8197 15.4903 24.2197 15.7203C24.2997 15.7703 24.3797 15.8203 24.4697 15.8603C24.7797 16.0203 25.0898 16.1703 25.4198 16.2703C25.4498 16.2903 25.4797 16.3003 25.5197 16.3003C25.7997 16.4103 26.0797 16.4903 26.3797 16.5303C26.4097 16.5503 26.4398 16.5503 26.4798 16.5503C26.6298 16.5903 26.7798 16.6003 26.9198 16.6203C27.0898 16.6403 27.2697 16.6603 27.4397 16.6503C27.5697 16.6803 27.6898 16.6603 27.8198 16.6703C27.9498 16.6703 28.0797 16.6803 28.2097 16.6703C28.3397 16.6703 28.4597 16.6803 28.5897 16.6603C28.8097 16.6603 29.0398 16.6403 29.2598 16.6003C29.5198 16.5703 29.7697 16.5103 30.0197 16.4303C30.0397 16.4303 30.0597 16.4303 30.0797 16.4203C30.0997 16.4203 30.1297 16.4103 30.1497 16.4003C30.5097 16.2903 30.8598 16.1603 31.1998 15.9903C31.2498 15.9703 31.3098 15.9503 31.3498 15.9203C31.3698 15.9203 31.3897 15.9103 31.4097 15.9003C31.6297 15.7903 31.8497 15.6603 32.0597 15.5303C32.0797 15.5103 32.1197 15.5303 32.1197 15.4803C32.1197 15.4803 32.1298 15.4803 32.1398 15.4803C32.1398 15.4803 32.1397 15.4803 32.1497 15.4803C32.1897 15.4703 32.2297 15.4503 32.2497 15.4103C32.2497 15.4103 32.3297 15.3703 32.3597 15.3303C32.6697 15.0903 32.9698 14.8403 33.2598 14.5803C33.2998 14.5803 33.3198 14.5403 33.3498 14.5203C33.4598 14.4103 33.5797 14.3103 33.6597 14.1803C33.6997 14.1203 33.7498 14.0703 33.7898 14.0103C33.8098 14.0003 33.8297 13.9803 33.8397 13.9503C33.8397 13.9403 33.8497 13.9303 33.8597 13.9103C33.8997 13.8803 33.9398 13.8403 33.9498 13.7803C34.0698 13.6403 34.1697 13.4903 34.2697 13.3303C34.3797 13.1703 34.4898 13.0003 34.5698 12.8303C34.6498 12.7003 34.7197 12.5603 34.7797 12.4203C34.8897 12.2103 34.9797 11.9903 35.0597 11.7603C35.0797 11.7403 35.0797 11.7103 35.0797 11.6903C35.0797 11.6803 35.0898 11.6603 35.0998 11.6503C35.2098 11.3903 35.2897 11.1203 35.3397 10.8403C35.3597 10.7803 35.3797 10.7303 35.3697 10.6703C35.3497 10.6503 35.3398 10.6403 35.3198 10.6503C35.3098 10.6203 35.3398 10.6103 35.3498 10.5803C35.3498 10.6003 35.3698 10.6103 35.3898 10.6103C35.3998 10.5403 35.4097 10.4803 35.4297 10.4103C35.4297 10.3903 35.4297 10.3703 35.4297 10.3603C35.4497 10.3403 35.4497 10.3203 35.4397 10.3003V10.2103C35.4697 10.1103 35.4798 10.0003 35.4798 9.89034C35.5098 9.87034 35.4997 9.84032 35.4997 9.81032C35.4997 9.81032 35.4997 9.75032 35.4997 9.72032C35.4997 9.69032 35.4997 9.66033 35.4997 9.63033C35.4397 9.65033 35.4597 9.68032 35.4897 9.72032H35.4697C35.4697 9.73032 35.4597 9.75033 35.4597 9.76033C35.4597 9.78033 35.4598 9.80032 35.4798 9.81032H35.4597C35.4397 9.83032 35.4297 9.86033 35.4597 9.88033C35.4597 9.88033 35.4598 9.88033 35.4498 9.88033C35.4498 9.89033 35.4497 9.90033 35.4397 9.91033C35.4497 9.81033 35.4297 9.71031 35.4597 9.61031C35.4597 9.59031 35.4597 9.57031 35.4597 9.55031C35.4597 9.57031 35.4597 9.59031 35.4897 9.61031C35.4897 9.61031 35.4897 9.61031 35.4997 9.61031C35.5297 9.55031 35.5197 9.48033 35.5197 9.42033C35.5197 9.42033 35.4997 9.42033 35.4897 9.42033C35.4797 9.43033 35.4697 9.45032 35.4597 9.47032C35.4597 9.49032 35.4597 9.51032 35.4597 9.53032C35.4597 9.50032 35.4597 9.48033 35.4597 9.45033C35.4597 9.41033 35.4597 9.36033 35.4597 9.32033C35.4597 9.29033 35.4597 9.27031 35.4597 9.24031C35.4597 9.14031 35.4597 9.05033 35.4597 8.95033C35.4597 8.93033 35.4597 8.92032 35.4597 8.90032C35.4597 8.92032 35.4697 8.93033 35.4897 8.95033C35.4897 8.95033 35.5097 8.95033 35.5197 8.95033C35.5197 8.89033 35.5197 8.84032 35.4997 8.78032H35.4897C35.4697 8.79032 35.4697 8.81031 35.4697 8.83031C35.4697 8.83031 35.4697 8.83031 35.4597 8.83031C35.4597 8.83031 35.4597 8.82032 35.4597 8.81032C35.4597 8.81032 35.4597 8.81032 35.4697 8.81032C35.4697 8.79032 35.4697 8.77031 35.4697 8.74031C35.4697 8.75031 35.4698 8.77032 35.4798 8.78032C35.4798 8.78032 35.4998 8.79032 35.5098 8.78032C35.5098 8.71032 35.5098 8.63032 35.5098 8.56032C35.5098 8.56032 35.5097 8.54032 35.4997 8.53032C35.5097 8.50032 35.5097 8.47032 35.4997 8.44032C35.4997 8.42032 35.4997 8.40033 35.4997 8.38033C35.4997 8.37033 35.4997 8.36032 35.4997 8.34032C35.4797 8.31032 35.4997 8.28031 35.4897 8.24031C35.4897 8.23031 35.4897 8.22033 35.4897 8.20033C35.4597 8.26033 35.4697 8.31032 35.4897 8.37032C35.4897 8.42032 35.4897 8.47031 35.4897 8.52031C35.4897 8.54031 35.4897 8.55033 35.4897 8.57033C35.4997 8.59033 35.4897 8.62034 35.4897 8.64034C35.4897 8.64034 35.4897 8.66033 35.4897 8.67033C35.4897 8.65033 35.4898 8.63031 35.4798 8.61031C35.4598 8.43031 35.4398 8.25033 35.4198 8.07033C35.4198 8.07033 35.4197 8.06033 35.4097 8.07033C35.4097 8.05033 35.4097 8.03033 35.3797 8.04033C35.3797 8.02033 35.3797 8.01032 35.3997 8.00032V7.95033C35.3997 7.95033 35.3998 7.94033 35.3898 7.95033C35.3898 7.92033 35.3998 7.88033 35.3898 7.85033C35.3698 7.79033 35.3797 7.73031 35.3397 7.68031C35.3097 7.64031 35.3397 7.59031 35.2997 7.55031C35.2997 7.53031 35.2998 7.50033 35.2898 7.48033C35.2198 7.24033 35.1597 6.99032 35.0897 6.75032C35.0697 6.70032 35.0497 6.66031 35.0297 6.61031C35.0297 6.59031 35.0297 6.56033 35.0297 6.54033C35.0097 6.48033 34.9998 6.42032 34.9498 6.37032C34.9298 6.34032 34.9197 6.30033 34.9097 6.26033C34.8997 6.21033 34.8997 6.16032 34.8597 6.12032C34.8397 6.09032 34.8397 6.05031 34.7997 6.05031C34.8197 6.00031 34.7998 5.97032 34.7598 5.94032C34.7398 5.90032 34.7198 5.86033 34.6998 5.82033C34.6998 5.82033 34.6598 5.74033 34.6398 5.70033C34.6498 5.70033 34.6898 5.73031 34.6698 5.68031C34.6698 5.65031 34.6397 5.63033 34.6297 5.60033C34.6197 5.60033 34.6097 5.60033 34.5897 5.60033C34.5897 5.60033 34.5597 5.58032 34.5497 5.56032C34.5497 5.56032 34.5498 5.56032 34.5398 5.56032C34.5398 5.56032 34.5398 5.55033 34.5398 5.54033C34.5398 5.47033 34.4897 5.42033 34.4697 5.35033C34.4597 5.33033 34.4398 5.30032 34.4198 5.28032C34.4098 5.27032 34.3897 5.25031 34.3797 5.24031C34.3797 5.24031 34.3797 5.22031 34.3797 5.21031C34.3597 5.19031 34.3497 5.17032 34.3297 5.15032C34.3297 5.15032 34.3297 5.14033 34.3297 5.13033C34.2997 5.11033 34.2797 5.09031 34.2697 5.05031C34.2697 5.03031 34.2797 5.01033 34.3097 5.01033C34.3097 5.00033 34.2998 4.99032 34.2898 4.97032C34.2898 4.97032 34.2398 4.87031 34.1998 4.83031C34.1698 4.87031 34.2297 4.88033 34.2197 4.92033C34.1497 4.87033 34.1098 4.79032 34.0698 4.72032C34.0698 4.72032 34.0697 4.72031 34.0797 4.71031C34.1097 4.72031 34.1097 4.77033 34.1597 4.76033C34.1397 4.74033 34.1297 4.72033 34.1097 4.70033C34.1097 4.70033 34.1097 4.70032 34.1097 4.69032C34.0897 4.66032 34.0598 4.63033 34.0398 4.60033C33.9998 4.55033 33.9597 4.50032 33.9097 4.44032C33.8097 4.32032 33.7097 4.21032 33.6097 4.09032C33.5797 4.04032 33.5497 3.98031 33.4897 3.96031C33.4497 3.90031 33.3997 3.84032 33.3297 3.81032C33.3297 3.81032 33.3297 3.81031 33.3297 3.80031C33.1397 3.63031 32.9598 3.45031 32.7598 3.30031C32.7598 3.26031 32.7197 3.25033 32.6897 3.23033C32.5497 3.11033 32.3897 3.02033 32.2397 2.91033C32.2197 2.89033 32.1897 2.87031 32.1597 2.86031C32.1597 2.86031 32.1497 2.86032 32.1497 2.87032C32.1497 2.85032 32.1497 2.83033 32.1197 2.82033C32.0597 2.78033 32.0097 2.72031 31.9297 2.71031C31.4897 2.47031 31.0398 2.24033 30.5698 2.07033C30.5698 2.07033 30.5597 2.07033 30.5497 2.07033C30.4697 2.04033 30.3997 2.00033 30.3397 1.95033C30.2997 1.88033 30.2597 1.81031 30.2097 1.74031C30.1897 1.69031 30.1597 1.66031 30.1497 1.61031C30.0797 1.39031 29.9697 1.18032 29.8097 1.00032C29.6297 0.770321 29.4098 0.62032 29.1398 0.53032C29.1398 0.53032 29.1197 0.520331 29.1097 0.510331C28.7997 0.390331 28.4797 0.340308 28.1597 0.330308C27.9197 0.320308 27.6897 0.310326 27.4597 0.380326C27.4597 0.380326 27.4497 0.380326 27.4397 0.380326C27.3697 0.390326 27.2897 0.410324 27.2197 0.440324C27.2197 0.440324 27.2197 0.440324 27.2097 0.440324C27.2097 0.440324 27.1798 0.440334 27.1698 0.450334C27.0898 0.470334 27.0297 0.510309 26.9597 0.550309C26.8697 0.600309 26.7797 0.660332 26.7197 0.730332C26.6797 0.760332 26.6497 0.800318 26.6297 0.840318C26.6297 0.840318 26.6197 0.870326 26.6097 0.880326C26.5597 0.910326 26.5397 0.960331 26.5197 1.01033C26.4297 1.12033 26.3497 1.24031 26.2697 1.36031C26.1697 1.49031 26.0798 1.63033 25.9798 1.76033C25.9798 1.80033 25.9797 1.80033 25.9997 1.79033C26.0997 1.75033 26.1498 1.67032 26.1998 1.59032C26.3098 1.46032 26.4197 1.32033 26.5197 1.17033C26.6197 1.08033 26.6597 0.920326 26.8297 0.880326C26.7797 0.990326 26.6998 1.05033 26.6398 1.13033C26.6198 1.14033 26.6097 1.16033 26.5897 1.17033C26.5697 1.18033 26.5597 1.20033 26.5497 1.23033C26.5197 1.23033 26.5097 1.25031 26.4997 1.27031C26.4397 1.36031 26.3697 1.45031 26.3097 1.55031C26.2597 1.64031 26.2297 1.75032 26.1097 1.78032C26.0997 1.78032 26.0897 1.80032 26.0897 1.81032C26.0897 1.81032 26.0898 1.81033 26.0998 1.82033C26.0998 1.82033 26.0997 1.82032 26.0897 1.81032C26.0497 1.80032 26.0097 1.85032 25.9597 1.81032C25.9497 1.81032 25.9298 1.83033 25.9198 1.85033C25.9098 1.89033 25.8697 1.89032 25.8397 1.90032C25.7297 1.94032 25.6097 1.96031 25.4997 2.02031C25.3497 2.05031 25.2098 2.12033 25.0698 2.16033C24.9298 2.22033 24.7897 2.28031 24.6597 2.36031C24.6297 2.36031 24.6097 2.38032 24.5797 2.40032C24.2597 2.56032 23.9598 2.75033 23.6698 2.95033C23.6698 2.95033 23.6697 2.97033 23.6597 2.98033C23.6597 2.98033 23.6597 2.98033 23.6497 2.98033C23.6497 2.98033 23.6097 2.99033 23.5897 3.01033C23.4397 3.10033 23.3097 3.21033 23.1797 3.32033C23.0997 3.38033 23.0197 3.45033 22.9397 3.51033C22.8897 3.56033 22.8197 3.59033 22.7997 3.67033H22.7697C22.7097 3.72033 22.6597 3.77033 22.6197 3.82033C22.5797 3.85033 22.5397 3.89031 22.5197 3.93031C22.4397 4.00031 22.3597 4.08033 22.2997 4.17033C22.2597 4.20033 22.2198 4.23033 22.2298 4.29033C22.2298 4.29033 22.2297 4.29033 22.2397 4.29033C22.2397 4.29033 22.2398 4.29033 22.2298 4.29033L22.2097 4.31032C22.2097 4.31032 22.1598 4.34031 22.1398 4.36031C22.1398 4.37031 22.1297 4.39032 22.1197 4.40032C22.0897 4.41032 22.0798 4.43031 22.0698 4.46031L22.0497 4.52031C22.0497 4.52031 22.0497 4.54031 22.0497 4.55031C22.0297 4.57031 22.0098 4.60032 21.9798 4.62032C21.9698 4.63032 21.9598 4.65033 21.9498 4.67033C21.9298 4.70033 21.8698 4.71031 21.8898 4.77031C21.8898 4.80031 21.8598 4.78031 21.8498 4.80031C21.8298 4.82031 21.7797 4.83033 21.8097 4.88033C21.8097 4.88033 21.7397 4.90033 21.7497 4.95033C21.7297 4.98033 21.7098 5.00032 21.6998 5.03032C21.6998 5.03032 21.6398 5.08032 21.6398 5.12032C21.6398 5.12032 21.6397 5.12032 21.6497 5.12032C21.6297 5.15032 21.6097 5.19032 21.5797 5.22032C21.5497 5.27032 21.5297 5.32032 21.4997 5.37032C21.4797 5.40032 21.4698 5.44032 21.4498 5.47032L21.4297 5.49031C21.3897 5.55031 21.3598 5.61033 21.3498 5.67033C21.3498 5.67033 21.3498 5.68032 21.3498 5.69032C21.3298 5.72032 21.3098 5.75032 21.2898 5.78032C21.2798 5.81032 21.2697 5.84032 21.2497 5.87032C21.2497 5.87032 21.2197 5.89033 21.2097 5.91033C21.2097 5.93033 21.1997 5.95032 21.1897 5.97032C21.1497 5.99032 21.1498 6.03032 21.1398 6.06032C21.1098 6.13032 21.0597 6.19031 21.0797 6.27031C21.0797 6.27031 21.0798 6.27031 21.0698 6.27031C21.0698 6.29031 21.0597 6.31031 21.0497 6.33031L20.8997 6.76033C20.7797 7.09033 20.6998 7.43031 20.6398 7.77031C20.6098 7.89031 20.5897 8.00032 20.5797 8.12032L20.4997 8.10033ZM35.3898 10.2403C35.3898 10.2403 35.4098 10.1703 35.4198 10.1303C35.4198 10.1303 35.4198 10.1503 35.4198 10.1603H35.4397C35.4397 10.1603 35.4397 10.1603 35.4297 10.1603C35.3997 10.1803 35.4097 10.2103 35.4297 10.2303H35.4097L35.3898 10.2403ZM34.0797 12.8203C34.0497 12.8203 34.0398 12.8403 34.0398 12.8703H34.0197C33.9997 12.9003 33.9797 12.9203 33.9597 12.9503C33.9797 12.9203 33.9997 12.8903 34.0197 12.8603C34.0397 12.8203 34.0697 12.7903 34.0897 12.7503C34.0897 12.7703 34.0797 12.7803 34.0797 12.8003C34.0797 12.8003 34.0797 12.8003 34.0797 12.8103V12.8203ZM34.8697 11.0603C34.8797 11.0603 34.8997 11.0603 34.9097 11.0503C34.8997 11.0503 34.8897 11.0503 34.8697 11.0603ZM35.0297 10.3803C35.0297 10.3803 35.0297 10.3503 35.0297 10.3403C35.0297 10.3403 35.0297 10.3703 35.0297 10.3803ZM34.9897 6.62032C34.9897 6.62032 34.9898 6.62032 34.9798 6.62032C34.9798 6.62032 34.9797 6.62032 34.9897 6.62032ZM34.7898 7.24031C34.7798 7.26031 34.7798 7.27033 34.7898 7.29033C34.7898 7.27033 34.7898 7.26031 34.7898 7.24031ZM34.7497 7.55031C34.7497 7.55031 34.7497 7.55032 34.7497 7.56032V7.55031ZM34.6197 9.49031C34.6197 9.49031 34.6197 9.49033 34.6297 9.51033C34.6197 9.51033 34.6097 9.51033 34.6097 9.51033C34.6097 9.51033 34.6097 9.51033 34.6197 9.51033V9.49031ZM33.9697 4.63033C33.9697 4.63033 33.9697 4.63032 33.9697 4.62032C33.9697 4.62032 33.9698 4.62033 33.9798 4.63033H33.9697ZM33.9097 7.54033C33.9097 7.54033 33.9097 7.54033 33.8997 7.54033H33.9097ZM33.8898 12.8703C33.8898 12.8703 33.8897 12.8603 33.8997 12.8503C33.9197 12.8303 33.9297 12.8003 33.9397 12.7803C33.9697 12.7403 33.9897 12.7003 34.0197 12.6603C34.0497 12.6103 34.0797 12.5503 34.0797 12.4903C34.1197 12.4803 34.1297 12.4403 34.1497 12.4003C34.1597 12.3703 34.1797 12.3503 34.1897 12.3203C34.2397 12.2303 34.2798 12.1403 34.3198 12.0503C34.3598 11.9803 34.3697 11.9103 34.4097 11.8403C34.4297 11.7903 34.4597 11.7503 34.4697 11.6903C34.4697 11.6703 34.4797 11.6503 34.4897 11.6303C34.4897 11.6003 34.4897 11.5703 34.4597 11.5403C34.5097 11.5603 34.5198 11.5203 34.5398 11.4903C34.5598 11.4303 34.5798 11.3703 34.5998 11.3203C34.6198 11.2603 34.6397 11.1903 34.6597 11.1303C34.6697 11.0903 34.6897 11.0503 34.6797 11.0103V10.9903C34.6997 10.9703 34.7097 10.9403 34.7197 10.9203C34.7197 10.9003 34.7298 10.8903 34.7298 10.8703C34.7298 10.8403 34.7098 10.8103 34.7298 10.7803C34.7298 10.7103 34.7497 10.6603 34.7697 10.6003C34.8197 10.5603 34.7897 10.4903 34.7997 10.4403L34.8198 10.2403C34.8198 10.2403 34.8198 10.2303 34.8198 10.2203C34.8198 10.2203 34.8197 10.2203 34.8297 10.2203C34.8497 10.2003 34.8397 10.1903 34.8297 10.1703C34.8297 10.0603 34.8497 9.96033 34.8597 9.85033C34.8597 9.82033 34.8597 9.79031 34.8797 9.77031C34.8997 9.73031 34.9097 9.69034 34.9097 9.64034C34.9097 9.57034 34.9097 9.50031 34.9097 9.43031C34.9197 9.28031 34.9297 9.12032 34.9097 8.97032C34.8897 8.89032 34.9097 8.81033 34.8997 8.73033C34.8997 8.73033 34.8997 8.71033 34.8997 8.70033C34.8997 8.68033 34.8498 8.67034 34.8898 8.64034C34.8898 8.64034 34.8898 8.63032 34.8898 8.62032C34.8898 8.59032 34.8898 8.56032 34.8898 8.53032C34.8898 8.53032 34.8898 8.52033 34.8898 8.51033C34.8898 8.51033 34.8897 8.51033 34.8997 8.51033C34.8997 8.49033 34.8997 8.47033 34.8997 8.45033C34.8997 8.49033 34.8997 8.53031 34.9097 8.58031C34.9097 8.58031 34.8997 8.59033 34.8997 8.60033C34.8997 8.64033 34.8997 8.67031 34.8997 8.71031C34.8997 8.71031 34.9098 8.71031 34.9198 8.71031C34.9198 8.67031 34.9198 8.64033 34.9198 8.60033C34.9198 8.65033 34.9397 8.70032 34.9597 8.75032C34.9397 8.77032 34.9397 8.79033 34.9597 8.82033C34.9597 8.82033 34.9698 8.82033 34.9798 8.82033C34.9798 8.86033 34.9798 8.90032 34.9798 8.94032C34.9798 9.08032 34.9798 9.22033 34.9798 9.35033C34.9798 9.39033 34.9797 9.43031 34.9997 9.46031C34.9997 9.46031 34.9997 9.46031 34.9897 9.46031C34.9997 9.68031 34.9598 9.89031 34.9498 10.1103C34.9498 10.1103 34.9498 10.1303 34.9498 10.1403C34.9298 10.2003 34.9298 10.2603 34.9198 10.3203C34.9898 10.2803 34.9497 10.2003 34.9697 10.1503C34.9997 9.94032 35.0197 9.74032 35.0297 9.53032C35.0297 9.28032 35.0297 9.03032 35.0297 8.78032C35.0297 8.75032 35.0297 8.72032 35.0297 8.69032C35.0297 8.68032 35.0297 8.66034 35.0297 8.64034C35.0297 8.58034 35.0297 8.52031 35.0297 8.46031C35.0097 8.43031 35.0098 8.39031 35.0098 8.36031C35.0098 8.27031 34.9997 8.18033 34.9697 8.10033C34.9597 8.10033 34.9497 8.10033 34.9397 8.10033C34.9297 8.12033 34.9297 8.15033 34.9297 8.17033C34.9297 8.19033 34.9297 8.21033 34.9297 8.23033C34.9297 8.26033 34.9297 8.29032 34.9297 8.31032C34.9297 8.32032 34.9297 8.33032 34.9297 8.34032C34.9297 8.35032 34.9297 8.37033 34.9297 8.38033C34.9297 8.38033 34.9197 8.40033 34.9097 8.41033C34.9097 8.40033 34.9097 8.39033 34.9097 8.38033C34.8997 8.28033 34.8797 8.18031 34.8797 8.08031C34.8797 8.08031 34.8797 8.07032 34.8797 8.06032C34.8897 8.06032 34.8997 8.06032 34.9097 8.06032C34.9097 8.07032 34.9097 8.09033 34.9297 8.10033H34.9498C34.9598 8.07033 34.9197 8.05032 34.9397 8.03032C34.9397 8.02032 34.9398 8.01031 34.9498 7.99031C34.9498 8.01031 34.9498 8.03032 34.9498 8.06032C34.9698 8.16032 34.9897 8.26032 34.9897 8.37032C35.0197 8.54032 35.0197 8.72034 35.0297 8.89034C35.0297 8.92034 35.0697 8.93032 35.0597 8.97032C35.0297 9.08032 35.0397 9.19031 35.0497 9.30031C35.0497 9.31031 35.0497 9.33032 35.0497 9.34032C35.0397 9.38032 35.0497 9.42031 35.0197 9.46031C35.0197 9.74031 34.9697 10.0103 34.9397 10.2803C34.9297 10.3703 34.8898 10.4503 34.9198 10.5403C34.9198 10.5403 34.9197 10.5403 34.9297 10.5403C34.8797 10.5603 34.8897 10.5903 34.9097 10.6303C34.9097 10.6303 34.9098 10.6203 34.8898 10.6203C34.8698 10.6303 34.8597 10.6603 34.8597 10.6803C34.8197 10.8303 34.7897 10.9903 34.7397 11.1403C34.7397 11.1703 34.7197 11.2003 34.7397 11.2303C34.6697 11.3303 34.6497 11.4503 34.6197 11.5603C34.6197 11.5803 34.6197 11.5903 34.6297 11.6003C34.6097 11.6203 34.5798 11.6403 34.5698 11.6703C34.5098 11.8203 34.4497 11.9803 34.3797 12.1303C34.3797 12.1603 34.3797 12.1903 34.3597 12.2103C34.3597 12.2103 34.3597 12.2103 34.3597 12.2203C34.3597 12.2203 34.3397 12.2203 34.3297 12.2203C34.2697 12.3303 34.2097 12.4503 34.1497 12.5603C34.1497 12.5703 34.1497 12.5903 34.1497 12.6003C34.1297 12.6003 34.1098 12.6203 34.0998 12.6303C34.1198 12.6003 34.1297 12.5803 34.1497 12.5503C34.1497 12.5303 34.1698 12.5103 34.1698 12.4903C34.2298 12.4003 34.2797 12.3103 34.3097 12.2103C34.3097 12.2103 34.3097 12.2003 34.3097 12.1903C34.3797 12.1103 34.4098 12.0103 34.4498 11.9203C34.4898 11.8503 34.5198 11.7703 34.5398 11.6903C34.5398 11.6903 34.5797 11.6203 34.5897 11.5803C34.6397 11.4603 34.6897 11.3303 34.7097 11.2003C34.6397 11.2303 34.6697 11.3103 34.6297 11.3503C34.5897 11.3903 34.5797 11.4503 34.5597 11.5003C34.5597 11.5303 34.5397 11.5503 34.5597 11.5803C34.5197 11.6003 34.4997 11.6403 34.5197 11.6803C34.5197 11.6803 34.5198 11.6803 34.5098 11.6803C34.4498 11.7403 34.4097 11.8003 34.4297 11.8903C34.4297 11.8903 34.4197 11.8903 34.4097 11.8903C34.3697 11.9303 34.3597 11.9803 34.3397 12.0303C34.3297 12.0503 34.3097 12.0703 34.2997 12.1003C34.2997 12.1203 34.2997 12.1303 34.3097 12.1503C34.2597 12.1503 34.2497 12.1903 34.2397 12.2203C34.2097 12.3003 34.1298 12.3703 34.1398 12.4703C34.0598 12.5403 34.0297 12.6403 33.9697 12.7203C33.9397 12.7703 33.9097 12.8203 33.8797 12.8703C33.8797 12.8503 33.8797 12.8403 33.8797 12.8203L33.8898 12.8703ZM22.8397 9.57033C22.8397 9.57033 22.8397 9.58032 22.8397 9.59032C22.8397 9.59032 22.8397 9.59031 22.8397 9.58031V9.57033ZM23.0497 14.4503C23.0497 14.4503 23.0497 14.4403 23.0497 14.4303C23.0497 14.4303 23.0497 14.4403 23.0497 14.4503ZM23.5497 14.8303C23.5497 14.8303 23.5297 14.8203 23.5297 14.8103C23.5297 14.8103 23.5497 14.8203 23.5597 14.8303H23.5497ZM24.7497 15.6903C24.7497 15.6903 24.7498 15.6903 24.7598 15.6903H24.7497ZM26.8498 16.3003C26.8498 16.3003 26.8497 16.3003 26.8597 16.3003C26.8597 16.3003 26.8598 16.3003 26.8498 16.3003ZM27.0797 16.3503C27.0797 16.3503 27.0798 16.3503 27.0698 16.3503H27.0797ZM29.6197 16.3903C29.6197 16.3903 29.5997 16.3803 29.5897 16.3803C29.5897 16.3803 29.6097 16.3903 29.6197 16.3903ZM30.7997 16.0403C30.7997 16.0403 30.7997 16.0403 30.8097 16.0403C30.8097 16.0403 30.8097 16.0403 30.7997 16.0403ZM30.9798 15.6503C30.7898 15.7403 30.5898 15.8203 30.3898 15.8903C30.3498 15.9003 30.3097 15.9203 30.2697 15.9303C30.2297 15.9503 30.1898 15.9603 30.1698 16.0003C30.0998 15.9803 30.0398 16.0203 29.9798 16.0403C29.9798 16.0403 29.9697 16.0503 29.9597 16.0603C29.9497 16.0603 29.9298 16.0603 29.9198 16.0703C29.9198 16.0703 29.9197 16.0603 29.9097 16.0603C29.7497 16.0803 29.5997 16.1403 29.4397 16.1803C29.4297 16.1803 29.4197 16.2003 29.4097 16.2103C29.3997 16.2103 29.3797 16.2103 29.3697 16.2103C29.3697 16.2103 29.3497 16.2103 29.3397 16.2103C29.3097 16.2103 29.2797 16.2203 29.2497 16.2203C29.2497 16.2203 29.2297 16.2203 29.2197 16.2203C29.1997 16.2203 29.1797 16.2303 29.1597 16.2403C29.0597 16.2503 28.9597 16.2703 28.8597 16.2803C28.8397 16.2803 28.8197 16.2803 28.7997 16.2603C28.6297 16.2603 28.4697 16.3003 28.2997 16.2903C28.2197 16.2903 28.1397 16.3103 28.0597 16.3103C27.7297 16.3103 27.3998 16.2903 27.0698 16.2603C26.9998 16.2603 26.9198 16.2203 26.8498 16.2503C26.8498 16.2503 26.8397 16.2603 26.8397 16.2703C26.8397 16.2303 26.7897 16.2303 26.7697 16.2303C26.6197 16.2003 26.4698 16.1803 26.3198 16.1403C26.0898 16.0903 25.8597 16.0203 25.6297 15.9503C25.5897 15.9403 25.5497 15.9103 25.4997 15.9303C25.3697 15.8803 25.2298 15.8203 25.0998 15.7703C25.0998 15.7703 25.0897 15.7703 25.0797 15.7503C25.0597 15.7203 25.0397 15.7003 24.9997 15.7203C24.9697 15.6603 24.9097 15.6503 24.8597 15.6203C24.7797 15.5903 24.7097 15.5403 24.6297 15.5003C24.5697 15.4703 24.5097 15.4103 24.4297 15.4203C24.4297 15.4203 24.4297 15.4203 24.4297 15.4303C24.4297 15.3903 24.3897 15.3803 24.3697 15.3703C24.3497 15.3703 24.3297 15.3703 24.3097 15.3503C24.2997 15.3503 24.2897 15.3303 24.2797 15.3303C24.2697 15.3203 24.2497 15.3103 24.2397 15.2903C24.2097 15.2603 24.1698 15.2503 24.1398 15.2303C24.1298 15.2303 24.1198 15.2203 24.0998 15.2103C24.0598 15.1803 24.0198 15.1503 23.9798 15.1303C23.9798 15.0903 23.9398 15.0803 23.9198 15.0603C23.8398 15.0103 23.7697 14.9603 23.6897 14.9003C23.6697 14.8903 23.6497 14.8703 23.6197 14.8603C23.6197 14.8603 23.6197 14.8503 23.6197 14.8403C23.6297 14.8803 23.6698 14.8803 23.6998 14.8903C23.7198 14.9203 23.7497 14.9303 23.7797 14.9403C23.8197 14.9603 23.8398 15.0103 23.8898 15.0203C24.0698 15.1303 24.2397 15.2503 24.4297 15.3503C24.5897 15.4503 24.7597 15.5403 24.9397 15.6103C24.9397 15.6103 24.9597 15.6003 24.9697 15.5903C24.9697 15.6403 24.9998 15.6503 25.0398 15.6603C25.3598 15.8003 25.6897 15.9203 26.0297 16.0103L26.3697 16.1103C26.3697 16.1103 26.4197 16.1103 26.4397 16.1103C26.7697 16.1903 27.1098 16.2203 27.4498 16.2503C27.7498 16.2803 28.0497 16.2603 28.3397 16.2703C28.3797 16.2403 28.4397 16.2703 28.4897 16.2403C28.5197 16.2703 28.5597 16.2503 28.5897 16.2403C28.6897 16.2403 28.7797 16.2203 28.8697 16.2003C29.0397 16.1803 29.2097 16.1503 29.3797 16.1303C29.4597 16.1103 29.5298 16.0903 29.5998 16.0703C29.6598 16.0503 29.7198 16.0403 29.7898 16.0203C29.9498 15.9703 30.1097 15.9303 30.2697 15.8803C30.2997 15.8603 30.3297 15.8503 30.3697 15.8503C30.5297 15.7803 30.6897 15.7103 30.8597 15.6403C30.8997 15.6403 30.9398 15.6003 30.9798 15.6003C31.0298 15.5603 31.0897 15.5403 31.1497 15.5203C31.1497 15.5203 31.1497 15.5203 31.1497 15.5303C31.0897 15.5403 31.0497 15.5903 30.9897 15.6003L30.9798 15.6503ZM23.6797 14.8103C23.6797 14.8103 23.6897 14.8003 23.6897 14.7803C23.6897 14.7803 23.6897 14.8003 23.6797 14.8003V14.8103ZM24.2898 15.0703C24.2898 15.0703 24.2897 15.0703 24.2797 15.0703C24.2597 15.0703 24.2498 15.0503 24.2298 15.0603C24.1098 14.9803 23.9997 14.9003 23.8797 14.8103C23.8797 14.7903 23.8598 14.7903 23.8498 14.7703C23.9998 14.8703 24.1398 14.9703 24.2898 15.0603V15.0703ZM23.9997 12.5803C23.9997 12.5803 23.9997 12.5803 23.9997 12.5703C23.9997 12.5703 23.9997 12.5703 23.9897 12.5703L23.9997 12.5803ZM24.3997 15.2703C24.3997 15.2703 24.3997 15.2703 24.4097 15.2703C24.4097 15.2703 24.4097 15.2703 24.3997 15.2703ZM24.5698 11.6303H24.5897C24.5897 11.6303 24.5798 11.6303 24.5698 11.6303ZM25.0998 15.5003C25.1598 15.5303 25.2297 15.5603 25.2997 15.5803C25.2297 15.5503 25.1698 15.5303 25.0998 15.5103C25.0998 15.5103 25.0998 15.5003 25.0998 15.4903V15.5003ZM25.7997 15.2103C25.7997 15.2103 25.7897 15.2103 25.7797 15.2103C25.7797 15.2103 25.7797 15.2003 25.7797 15.1903H25.7997V15.2103ZM25.7898 15.7403C25.8398 15.7703 25.8998 15.7903 25.9498 15.8103C25.8698 15.7803 25.7898 15.7503 25.6998 15.7403C25.6998 15.7403 25.6998 15.7403 25.6998 15.7503C25.6598 15.7303 25.6297 15.6903 25.5897 15.7503C25.5897 15.7203 25.5797 15.6903 25.5497 15.6703C25.5097 15.6603 25.4797 15.6403 25.4397 15.6203C25.5297 15.6503 25.6297 15.6903 25.7197 15.7203C25.7497 15.7203 25.7697 15.7403 25.7997 15.7303L25.7898 15.7403ZM25.9297 15.7103C25.9297 15.7103 25.9497 15.7203 25.9597 15.7403C25.9597 15.7303 25.9397 15.7203 25.9297 15.7103ZM26.1897 15.8603C26.1897 15.8603 26.1897 15.8603 26.1897 15.8803C26.2097 15.8903 26.2197 15.8903 26.2397 15.9003C26.1597 15.8803 26.0798 15.8603 26.0098 15.8403C26.0698 15.8503 26.1197 15.8603 26.1797 15.8703L26.1897 15.8603ZM26.1897 13.6303C26.1897 13.6303 26.1897 13.6303 26.1897 13.6203C26.1897 13.6203 26.1897 13.6203 26.1897 13.6303C26.1897 13.6303 26.1798 13.6303 26.1698 13.6303H26.1897ZM26.4997 15.9503C26.4997 15.9503 26.4297 15.9503 26.3997 15.9303C26.4397 15.9303 26.4697 15.9303 26.4997 15.9503ZM26.7197 15.9803C26.8297 16.0003 26.9298 16.0103 27.0398 16.0303C27.0398 16.0303 27.0497 16.0303 27.0597 16.0303C27.0597 16.0303 27.0597 16.0503 27.0597 16.0603C27.1097 16.0603 27.1597 16.0603 27.2097 16.0703C27.1897 16.0703 27.1697 16.0703 27.1597 16.0703C27.1397 16.0703 27.1198 16.0703 27.0998 16.0803C27.0598 16.0803 27.0197 16.0703 26.9897 16.0603C26.9797 16.0603 26.9698 16.0403 26.9498 16.0403C26.9398 16.0403 26.9298 16.0403 26.9198 16.0503C26.8898 16.0203 26.8597 16.0203 26.8297 16.0103C26.7597 15.9903 26.6897 15.9803 26.6197 15.9603C26.6297 15.9603 26.6397 15.9603 26.6497 15.9603C26.6597 15.9603 26.6797 15.9503 26.6897 15.9403C26.6897 15.9603 26.7198 15.9703 26.7298 15.9803H26.7197ZM26.7197 14.2103C26.7197 14.2103 26.7198 14.2103 26.7298 14.2103C26.7298 14.2103 26.7297 14.2103 26.7197 14.2103ZM27.0998 14.4803C27.0998 14.4803 27.1097 14.4803 27.1197 14.4803C27.1197 14.4803 27.1098 14.4803 27.0998 14.4803ZM27.1797 14.8103C27.1797 14.8103 27.1898 14.8103 27.1998 14.8103C27.1998 14.8103 27.1998 14.8203 27.1998 14.8303C27.1998 14.8303 27.1897 14.8203 27.1797 14.8203V14.8103ZM27.3597 16.0903C27.3597 16.0903 27.3998 16.0903 27.4198 16.0803C27.4498 16.0803 27.4798 16.0803 27.5098 16.0903C27.5098 16.0903 27.5197 16.0903 27.5297 16.0903H27.5698C27.6298 16.1203 27.6998 16.1003 27.7598 16.1003C27.7698 16.1003 27.7798 16.1003 27.7898 16.1003C27.8898 16.0903 27.9897 16.1203 28.0897 16.0803C28.1597 16.1003 28.2397 16.0803 28.3097 16.0803C28.2997 16.0703 28.2797 16.0603 28.2697 16.0403C28.2697 16.0603 28.2897 16.0703 28.3097 16.0803C28.3497 16.0803 28.3798 16.0803 28.4198 16.0803C28.4298 16.0803 28.4497 16.0803 28.4597 16.0803C28.4597 16.0803 28.4698 16.0803 28.4798 16.0703C28.4998 16.0703 28.5097 16.0703 28.5297 16.0703C28.5297 16.0703 28.5297 16.0703 28.5497 16.0703C28.5597 16.0703 28.5797 16.0703 28.5897 16.0703C28.5897 16.0703 28.5898 16.0803 28.5998 16.0903C28.5798 16.0903 28.5598 16.0903 28.5398 16.0903C28.4998 16.1003 28.4598 16.1003 28.4198 16.1003C28.3698 16.1003 28.3197 16.1003 28.2697 16.1203C28.2697 16.1203 28.2497 16.1303 28.2497 16.1403C28.1697 16.1103 28.0897 16.1303 28.0197 16.1303C27.9697 16.1403 27.9297 16.1503 27.8797 16.1403C27.8797 16.1403 27.8598 16.1403 27.8498 16.1403C27.8298 16.1103 27.7898 16.1203 27.7598 16.1103C27.7298 16.1103 27.6998 16.1103 27.6698 16.1103C27.6498 16.1103 27.6198 16.1103 27.5998 16.1103C27.5798 16.1103 27.5598 16.1103 27.5398 16.0903C27.5398 16.0903 27.5198 16.0903 27.5098 16.0903C27.4798 16.0903 27.4597 16.0903 27.4397 16.0903C27.3997 16.0903 27.3598 16.0903 27.3198 16.1003C27.3198 16.0903 27.2998 16.0803 27.2898 16.0703C27.3198 16.0703 27.3397 16.0703 27.3697 16.0703L27.3597 16.0903ZM27.5597 14.6103C27.5597 14.6103 27.5297 14.6103 27.5197 14.6303C27.5197 14.6303 27.5197 14.6303 27.5197 14.6203C27.5297 14.6203 27.5497 14.6203 27.5597 14.6203V14.6103ZM27.5497 14.5003C27.5497 14.5003 27.5597 14.4703 27.5497 14.4503C27.5597 14.4603 27.5797 14.4603 27.5897 14.4703C27.5997 14.4703 27.6197 14.4703 27.6097 14.5003C27.6097 14.5003 27.6098 14.5003 27.5998 14.5003C27.5998 14.5003 27.5897 14.5003 27.5797 14.4903C27.5697 14.4903 27.5597 14.4903 27.5497 14.4903V14.5003ZM27.5497 14.9403H27.5297C27.5297 14.9403 27.5397 14.9403 27.5497 14.9403ZM29.0597 16.0003C29.1297 16.0003 29.1898 15.9603 29.2598 15.9603L29.2797 15.9703C29.2097 15.9703 29.1297 16.0003 29.0597 16.0103C29.0197 16.0103 28.9797 16.0203 28.9397 16.0303C28.9197 16.0303 28.8997 16.0303 28.8797 16.0503C28.8697 16.0503 28.8598 16.0503 28.8498 16.0503C28.8498 16.0503 28.8397 16.0503 28.8297 16.0503C28.8397 16.0503 28.8297 16.0303 28.8397 16.0303C28.9097 16.0503 28.9697 15.9803 29.0497 16.0003H29.0597ZM30.0998 15.7803C30.0898 15.7803 30.0798 15.7803 30.0698 15.7803C30.0698 15.7803 30.0697 15.7803 30.0497 15.7703C30.0597 15.7603 30.0697 15.7403 30.0797 15.7303C30.0797 15.7503 30.0798 15.7603 30.0998 15.7703C30.0998 15.7703 30.0997 15.7703 30.1097 15.7703L30.0998 15.7803ZM30.6398 15.5703C30.6398 15.5703 30.5597 15.6103 30.5297 15.6403C30.5297 15.6403 30.4697 15.6403 30.4397 15.6403C30.4197 15.6503 30.3897 15.6603 30.3797 15.6903C30.3597 15.6803 30.3398 15.6803 30.3198 15.6903C30.3498 15.6803 30.3797 15.6603 30.4097 15.6503C30.4897 15.6203 30.5598 15.5903 30.6398 15.5603V15.5703ZM30.7898 15.5303C30.7898 15.5303 30.7098 15.5403 30.6698 15.5503C30.7098 15.5303 30.7497 15.5203 30.7797 15.5003C30.7797 15.5003 30.7797 15.5003 30.7797 15.5103L30.7898 15.5303ZM30.9697 15.4103C30.9697 15.4103 31.0097 15.4103 31.0297 15.3903C31.0097 15.3903 30.9898 15.4103 30.9798 15.4203L30.9697 15.4103ZM32.2598 12.4703C32.2598 12.4703 32.2598 12.4903 32.2598 12.5003C32.2598 12.5003 32.2598 12.4803 32.2598 12.4703ZM32.8898 14.5703C32.8898 14.5703 32.9098 14.5503 32.9198 14.5403L32.9397 14.5303C32.9197 14.5403 32.9098 14.5603 32.8898 14.5703ZM32.9597 12.0903C32.9597 12.0903 32.9597 12.0903 32.9697 12.0903C32.9697 12.0903 32.9697 12.0903 32.9697 12.1003C32.9697 12.1003 32.9598 12.1003 32.9498 12.1003L32.9597 12.0903ZM33.0797 13.8603C33.0797 13.8503 33.0797 13.8403 33.0897 13.8303C33.0897 13.8303 33.0897 13.8403 33.0897 13.8503L33.0797 13.8603ZM33.1398 13.9103H33.1097C33.1197 13.9103 33.1298 13.9103 33.1398 13.9103ZM33.5797 13.6403C33.5797 13.6403 33.5797 13.6403 33.5797 13.6303C33.5797 13.6303 33.5797 13.6303 33.5797 13.6403ZM33.7997 8.07033C33.7997 8.07033 33.7997 8.08032 33.7997 8.09032C33.7997 8.10032 33.7897 8.11032 33.7697 8.12032C33.7697 8.12032 33.7698 8.10033 33.7598 8.10033C33.7698 8.10033 33.7797 8.08033 33.7797 8.07033H33.7997ZM33.8397 12.9803C33.8397 12.9803 33.8397 12.9803 33.8397 12.9903C33.8197 13.0203 33.7997 13.0503 33.7797 13.0803C33.7797 13.0803 33.7797 13.0803 33.7697 13.0803C33.7697 13.0803 33.7697 13.0703 33.7697 13.0603C33.7697 13.0603 33.7697 13.0403 33.7797 13.0303C33.7997 13.0003 33.8198 12.9803 33.8498 12.9603L33.8397 12.9803ZM33.7598 7.48033C33.7598 7.48033 33.7598 7.50031 33.7598 7.52031C33.7598 7.52031 33.7597 7.50032 33.7497 7.50032C33.7497 7.50032 33.7498 7.49031 33.7598 7.49031V7.48033ZM33.6897 13.2003C33.6897 13.2003 33.6898 13.2003 33.6998 13.2003C33.6998 13.2003 33.6997 13.2003 33.6897 13.2003ZM33.6297 13.4103C33.6297 13.4103 33.6497 13.4103 33.6497 13.4003C33.6197 13.4403 33.5897 13.4803 33.5597 13.5103C33.5397 13.5403 33.5097 13.5703 33.4897 13.6003C33.4697 13.6303 33.4397 13.6603 33.4397 13.7003C33.4197 13.7003 33.3997 13.7203 33.3797 13.7303C33.3797 13.7303 33.3797 13.7303 33.3697 13.7303C33.3697 13.7303 33.3697 13.7303 33.3697 13.7103C33.3697 13.7103 33.3697 13.7003 33.3697 13.6903C33.3697 13.6903 33.3798 13.6803 33.3898 13.6703C33.4398 13.6503 33.4497 13.6003 33.4897 13.5803C33.5097 13.5603 33.5297 13.5303 33.5497 13.5103L33.6197 13.4003L33.6297 13.4103ZM33.4697 13.4303C33.4697 13.4303 33.4797 13.4203 33.4897 13.4103C33.4997 13.4103 33.5097 13.3903 33.5297 13.4003C33.5297 13.4003 33.5297 13.4003 33.5197 13.4003C33.5197 13.4003 33.5197 13.3903 33.5197 13.3803C33.5397 13.3803 33.5598 13.3703 33.5698 13.3503C33.5698 13.3503 33.5698 13.3503 33.5698 13.3603C33.5598 13.3803 33.5498 13.4003 33.5398 13.4303C33.5398 13.4303 33.5398 13.4403 33.5398 13.4503C33.5398 13.4503 33.5398 13.4503 33.5398 13.4603C33.4998 13.5203 33.4498 13.5603 33.4198 13.6303C33.4098 13.6303 33.3897 13.6503 33.3797 13.6503C33.3697 13.6603 33.3697 13.6803 33.3697 13.6903C33.3597 13.6703 33.3497 13.6703 33.3297 13.6803C33.3297 13.6603 33.3498 13.6403 33.3498 13.6303C33.3498 13.6103 33.3497 13.6003 33.3597 13.5803C33.3597 13.5803 33.3597 13.5803 33.3697 13.5703C33.3697 13.5703 33.3798 13.5703 33.3898 13.5603H33.4097C33.4497 13.5403 33.4497 13.5003 33.4697 13.4703V13.4303ZM33.1597 6.25032C33.1397 6.26032 33.1397 6.28033 33.1297 6.29033C33.1297 6.28033 33.1497 6.26032 33.1597 6.25032ZM29.5897 1.00032C29.5897 1.00032 29.5897 1.00033 29.5897 1.01033C29.6097 1.04033 29.6297 1.08031 29.6497 1.11031C29.7797 1.29031 29.8597 1.51033 30.0197 1.67033C30.0197 1.69033 30.0297 1.71033 30.0497 1.73033C30.1097 1.79033 30.1597 1.84032 30.2097 1.90032C30.1697 1.89032 30.1498 1.84032 30.0998 1.84032C30.0998 1.84032 30.0897 1.85031 30.0797 1.86031C30.0797 1.86031 30.0998 1.86032 30.0998 1.84032C30.0698 1.82032 30.0198 1.84032 30.0098 1.78032C30.0398 1.68032 29.9397 1.64033 29.8997 1.57033C29.9097 1.53033 29.8897 1.51031 29.8697 1.49031C29.7897 1.38031 29.7098 1.27032 29.6398 1.15032C29.6198 1.12032 29.5997 1.08032 29.5597 1.06032C29.5597 1.02032 29.5398 1.00031 29.5098 0.990312C29.5398 0.990312 29.5697 0.990323 29.5897 0.970323V1.00032ZM29.1597 1.16033C29.1597 1.16033 29.1597 1.16032 29.1597 1.15032C29.1597 1.15032 29.1598 1.15032 29.1698 1.15032L29.1597 1.16033ZM28.7997 1.02031C28.7997 1.02031 28.8298 0.97031 28.8498 1.02031C28.8498 1.02031 28.8498 1.03033 28.8498 1.04033C28.8398 1.03033 28.8197 1.04033 28.8097 1.04033C28.8097 1.04033 28.8097 1.04032 28.7997 1.03032V1.02031ZM27.5297 0.560319C27.5297 0.560319 27.5598 0.560319 27.5698 0.560319C27.5598 0.560319 27.5397 0.550319 27.5297 0.560319ZM26.8097 1.48033C26.8297 1.36033 26.8997 1.29033 26.9997 1.23033C27.1197 1.20033 27.2297 1.14032 27.3397 1.09032C27.3697 1.12032 27.4097 1.11033 27.4397 1.10033C27.6997 1.05033 27.9597 1.06032 28.2197 1.09032C28.2697 1.09032 28.3097 1.07032 28.3597 1.09032C28.4897 1.14032 28.6298 1.15033 28.7598 1.17033C28.7698 1.17033 28.7797 1.17033 28.7797 1.16033C28.7997 1.17033 28.8097 1.18031 28.8297 1.18031C28.8297 1.18031 28.8598 1.20033 28.8898 1.20033C28.9198 1.25033 28.9797 1.26032 29.0197 1.28032C29.1897 1.36032 29.3197 1.47034 29.3997 1.64034C29.3997 1.64034 29.3997 1.64034 29.4097 1.64034C29.4097 1.67034 29.4097 1.70033 29.4097 1.73033C29.3797 1.73033 29.3498 1.75032 29.3198 1.75032C29.3098 1.73032 29.2798 1.73033 29.2598 1.73033C29.2198 1.73033 29.1697 1.73031 29.1297 1.71031C29.1097 1.69031 29.0797 1.69033 29.0497 1.70033C29.0097 1.70033 28.9797 1.70032 28.9397 1.69032C28.8097 1.67032 28.6797 1.65034 28.5497 1.64034C28.5197 1.62034 28.4798 1.62033 28.4498 1.63033C28.4098 1.63033 28.3697 1.63033 28.3297 1.63033C28.2497 1.61033 28.1597 1.61031 28.0797 1.61031C27.9897 1.61031 27.8898 1.61031 27.7898 1.61031C27.7598 1.61031 27.7297 1.61032 27.7397 1.65032C27.6997 1.67032 27.7197 1.60031 27.6897 1.61031C27.5197 1.61031 27.3398 1.62034 27.1698 1.64034C27.0498 1.64034 26.9297 1.68033 26.8097 1.67033C26.8097 1.61033 26.8097 1.56032 26.8097 1.50032V1.48033ZM26.5297 1.28032C26.5297 1.28032 26.5297 1.28033 26.5297 1.29033C26.5297 1.29033 26.5297 1.29033 26.5197 1.29033C26.5197 1.29033 26.5298 1.29032 26.5398 1.28032H26.5297ZM26.2797 1.83031C26.2797 1.83031 26.2797 1.82032 26.2797 1.81032C26.3097 1.84032 26.3498 1.83033 26.3898 1.82033C26.4298 1.81033 26.4698 1.81031 26.5098 1.80031C26.5798 1.78031 26.6597 1.79033 26.7197 1.73033C26.7397 1.73033 26.7497 1.73032 26.7697 1.72032C26.7897 1.72032 26.8097 1.72032 26.8297 1.72032C26.8397 1.72032 26.8497 1.73032 26.8697 1.72032C26.9097 1.72032 26.9398 1.72032 26.9798 1.72032C27.0098 1.72032 27.0297 1.72032 27.0597 1.72032C27.0997 1.71032 27.1397 1.71031 27.1797 1.71031C27.1997 1.71031 27.2097 1.71031 27.2197 1.71031C27.3297 1.69031 27.4497 1.70031 27.5597 1.68031C27.5897 1.68031 27.6197 1.67033 27.6497 1.66033C27.6497 1.66033 27.6598 1.66032 27.6698 1.65032C27.6998 1.65032 27.7397 1.65032 27.7697 1.65032H27.7898C27.7898 1.65032 27.8697 1.66032 27.8997 1.65032C27.9097 1.65032 27.9297 1.65032 27.9397 1.65032C27.9397 1.65032 27.9398 1.65032 27.9498 1.65032H27.9697C27.9897 1.68032 28.0197 1.68031 28.0597 1.68031C28.1297 1.68031 28.1997 1.68031 28.2697 1.68031C28.2997 1.68031 28.3297 1.68031 28.3597 1.68031C28.3997 1.69031 28.4398 1.68032 28.4798 1.69032C28.5098 1.69032 28.5497 1.69032 28.5797 1.69032C28.6097 1.69032 28.6297 1.70032 28.6497 1.69032C28.6497 1.69032 28.6597 1.70031 28.6797 1.71031C28.7397 1.71031 28.7997 1.72033 28.8597 1.73033C28.8897 1.75033 28.9297 1.73031 28.9597 1.74031C28.9797 1.74031 28.9898 1.74031 29.0098 1.74031C29.0398 1.75031 29.0597 1.74031 29.0897 1.74031C29.0897 1.74031 29.0997 1.74032 29.1097 1.75032C29.1997 1.77032 29.2797 1.78031 29.3697 1.80031C29.3697 1.80031 29.4697 1.83032 29.5197 1.84032C29.5497 1.84032 29.5897 1.84031 29.6097 1.86031C29.6197 1.86031 29.6297 1.86031 29.6497 1.86031C29.6697 1.86031 29.6797 1.89033 29.7097 1.88033C29.7097 1.88033 29.7097 1.88032 29.7097 1.87032C29.7097 1.87032 29.7097 1.87033 29.7097 1.88033C29.7297 1.88033 29.7597 1.88034 29.7797 1.89034C29.7797 1.89034 29.8197 1.91033 29.8397 1.91033C29.9297 1.94033 30.0197 1.97032 30.1197 1.97032C30.1197 1.97032 30.1197 1.97032 30.1297 1.97032C30.1297 1.97032 30.1297 1.97033 30.1197 1.98033C30.1597 2.05033 30.2397 2.05033 30.2997 2.07033C30.3197 2.07033 30.3397 2.08032 30.3597 2.09032C30.3597 2.09032 30.3597 2.09032 30.3697 2.09032H30.3898C30.4098 2.11032 30.4297 2.12033 30.4597 2.13033C30.4697 2.13033 30.4897 2.13033 30.4997 2.13033C30.6197 2.20033 30.7497 2.23033 30.8697 2.29033C31.0997 2.38033 31.3297 2.49032 31.5497 2.62032C31.6497 2.66032 31.7298 2.71031 31.8198 2.77031C31.8898 2.81031 31.9498 2.88034 32.0398 2.89034C32.0398 2.90034 32.0598 2.91033 32.0698 2.91033C32.0698 2.93033 32.0897 2.95031 32.1097 2.96031C32.2097 3.03031 32.2997 3.13033 32.3997 3.20033C32.4397 3.22033 32.4797 3.26033 32.5197 3.29033C32.4897 3.28033 32.4697 3.24031 32.4297 3.24031C32.4197 3.24031 32.4097 3.22032 32.3997 3.22032C32.3997 3.22032 32.3997 3.21033 32.3997 3.20033C32.3797 3.19033 32.3598 3.18033 32.3498 3.17033C32.3198 3.16033 32.3097 3.13033 32.2797 3.13033C32.1897 3.06033 32.0997 2.99032 31.9997 2.94032C31.9097 2.88032 31.8197 2.82032 31.7197 2.78032C31.6897 2.77032 31.6697 2.75031 31.6497 2.74031C31.6297 2.72031 31.6097 2.69032 31.5797 2.69032L31.4798 2.62032C31.2898 2.53032 31.0897 2.43032 30.8997 2.34032C30.8097 2.30032 30.7197 2.25033 30.6197 2.23033C30.5397 2.20033 30.4597 2.17032 30.3797 2.15032C30.3797 2.15032 30.3697 2.15034 30.3597 2.14034C30.3297 2.12034 30.2898 2.12033 30.2598 2.10033C30.2198 2.10033 30.1897 2.08033 30.1597 2.07033C30.0597 2.06033 29.9697 2.00031 29.8597 2.02031C29.8597 2.02031 29.7597 1.97032 29.7097 1.97032C29.6797 1.93032 29.6298 1.97032 29.5998 1.94032C29.5698 1.91032 29.5197 1.94033 29.4897 1.92033C29.4297 1.92033 29.3697 1.91033 29.3097 1.88033C29.2797 1.86033 29.2298 1.88031 29.1998 1.86031C29.1898 1.86031 29.1797 1.86031 29.1597 1.86031C29.1097 1.84031 29.0497 1.87033 28.9997 1.85033C28.9597 1.85033 28.9198 1.85032 28.8898 1.84032C28.8898 1.83032 28.8697 1.83033 28.8597 1.82033C28.6797 1.78033 28.5097 1.77032 28.3297 1.75032C28.1097 1.73032 27.8898 1.73033 27.6698 1.73033C27.6598 1.73033 27.6498 1.73033 27.6398 1.73033C27.5498 1.75033 27.4497 1.73032 27.3597 1.75032C27.3397 1.75032 27.3098 1.76032 27.2898 1.78032C27.2898 1.78032 27.2898 1.78033 27.2898 1.79033C27.2898 1.79033 27.2797 1.79033 27.2697 1.79033C27.2697 1.79033 27.2497 1.79033 27.2397 1.79033C27.1697 1.76033 27.1098 1.77033 27.0398 1.79033C27.0398 1.79033 27.0397 1.79031 27.0297 1.80031C27.0297 1.80031 27.0297 1.80032 27.0297 1.81032C26.9297 1.81032 26.8397 1.82031 26.7497 1.86031C26.7497 1.86031 26.7497 1.86031 26.7397 1.86031C26.6897 1.86031 26.6497 1.88034 26.6097 1.89034C26.5997 1.89034 26.5797 1.89034 26.5597 1.89034C26.5097 1.88034 26.4597 1.90032 26.4097 1.90032C26.3997 1.90032 26.3797 1.90032 26.3697 1.90032C26.3397 1.91032 26.3097 1.91033 26.2797 1.92033C26.2797 1.92033 26.2698 1.92033 26.2598 1.92033C26.2498 1.91033 26.2297 1.90033 26.2197 1.91033C26.2697 1.91033 26.3098 1.89031 26.3498 1.86031L26.2797 1.83031ZM32.1797 3.68031C32.1797 3.68031 32.1597 3.68031 32.1497 3.68031C32.1597 3.68031 32.1697 3.68031 32.1797 3.68031ZM32.1497 4.78032C32.1497 4.78032 32.1497 4.78032 32.1597 4.78032H32.1497ZM30.1097 3.04033C30.1097 3.04033 30.0997 3.04033 30.0897 3.04033C30.0897 3.04033 30.0997 3.04033 30.1097 3.04033ZM29.8397 4.35033C29.8397 4.35033 29.8397 4.35031 29.8397 4.36031V4.35033ZM29.3997 2.89034C29.3997 2.89034 29.3998 2.89034 29.3898 2.89034C29.3898 2.89034 29.3898 2.89033 29.3898 2.88033C29.3898 2.88033 29.3898 2.89032 29.3898 2.90032L29.3997 2.89034ZM28.6398 2.70033C28.6398 2.70033 28.6398 2.69031 28.6398 2.68031C28.6398 2.68031 28.6398 2.69033 28.6398 2.70033ZM27.1897 2.58031C27.1897 2.58031 27.1897 2.58032 27.1797 2.56032C27.1797 2.56032 27.1797 2.57031 27.1797 2.58031H27.1897ZM26.0398 2.19032C26.0398 2.19032 26.0397 2.19032 26.0497 2.19032H26.0398ZM25.7898 4.40032C25.7898 4.42032 25.7698 4.42031 25.7598 4.43031C25.7598 4.43031 25.7497 4.43031 25.7397 4.43031C25.7397 4.43031 25.7298 4.41032 25.7298 4.40032C25.7498 4.40032 25.7698 4.40032 25.7898 4.40032ZM25.7097 4.20033C25.7097 4.20033 25.7098 4.20033 25.6998 4.20033H25.7097ZM25.6497 2.90032C25.6497 2.90032 25.6498 2.90032 25.6398 2.90032C25.6398 2.90032 25.6297 2.90032 25.6197 2.90032C25.6297 2.90032 25.6397 2.90032 25.6497 2.90032ZM25.6097 4.07033C25.6097 4.07033 25.6098 4.07032 25.5998 4.06032C25.5998 4.06032 25.5998 4.05033 25.5998 4.04033C25.5998 4.04033 25.6097 4.05032 25.6197 4.06032L25.6097 4.07033ZM25.5297 3.20033C25.5297 3.20033 25.5297 3.21032 25.5297 3.22032H25.5197C25.5197 3.22032 25.5197 3.22031 25.5297 3.21031V3.20033ZM24.7997 2.34032C24.8697 2.30032 24.9597 2.28032 25.0197 2.22032C25.0297 2.23032 25.0498 2.23032 25.0698 2.22032C25.1998 2.18032 25.3198 2.13033 25.4498 2.07033C25.4498 2.07033 25.4498 2.07032 25.4498 2.06032C25.4598 2.06032 25.4797 2.06032 25.4897 2.06032C25.4897 2.06032 25.4898 2.06032 25.4798 2.06032C25.4598 2.06032 25.4497 2.08032 25.4397 2.09032C25.4197 2.09032 25.3897 2.11031 25.3697 2.11031C25.1997 2.17031 25.0298 2.25032 24.8498 2.31032C24.8198 2.31032 24.7897 2.33033 24.7697 2.35033C24.7797 2.35033 24.7997 2.33031 24.8097 2.33031L24.7997 2.34032ZM24.2298 5.35033C24.2298 5.35033 24.2297 5.35033 24.2197 5.35033C24.2197 5.35033 24.2198 5.35033 24.2298 5.35033ZM24.0297 3.62032C24.0297 3.62032 24.0297 3.63034 24.0297 3.64034C24.0297 3.64034 24.0297 3.63032 24.0297 3.62032ZM23.5698 5.97032H23.5797C23.5797 5.97032 23.5698 5.98031 23.5698 5.99031V5.97032ZM23.4097 3.32033C23.4097 3.32033 23.3897 3.32033 23.3797 3.32033C23.3797 3.32033 23.3997 3.32031 23.4097 3.33031V3.32033ZM23.3997 4.23033C23.3997 4.23033 23.3897 4.23032 23.3797 4.22032C23.3797 4.22032 23.3997 4.22032 23.4097 4.22032L23.3997 4.23033ZM23.2598 5.23033C23.2598 5.23033 23.2598 5.23031 23.2598 5.24031C23.2598 5.24031 23.2598 5.24033 23.2598 5.23033ZM22.8797 5.57033C22.8797 5.57033 22.8797 5.57033 22.8697 5.57033C22.8697 5.57033 22.8798 5.57033 22.8898 5.57033H22.8797ZM23.5698 6.18031C24.2398 5.66031 24.9997 5.23034 25.7797 4.89034C26.2497 4.19034 27.2297 3.77033 28.0497 3.70033C28.7697 3.68033 29.4297 3.99031 29.8697 4.58031L30.0297 4.63033C34.4897 5.63033 34.5297 10.0103 30.1797 11.1903C29.6197 11.3303 29.6098 11.0903 29.6398 11.7603C29.6498 11.9303 29.6098 12.1103 29.5398 12.2703C29.7598 12.7303 29.2498 13.3603 29.0998 13.7803C28.9998 14.0403 28.4397 14.3503 28.1297 14.3803C27.7697 14.4103 27.3098 14.1303 27.0698 13.7903C26.6398 13.1803 25.5597 12.4403 25.9897 11.5903L25.6197 11.3803C25.4397 11.2703 25.4097 11.0603 25.1597 11.0703C22.7797 10.7903 21.4798 7.71032 23.5698 6.19032V6.18031ZM22.4397 5.16033C22.4397 5.16033 22.4397 5.17031 22.4297 5.18031V5.16033H22.4397ZM22.3198 4.85033C22.3198 4.84033 22.3197 4.84031 22.3097 4.83031C22.3097 4.83031 22.3098 4.83033 22.3198 4.85033ZM20.9097 11.0703H20.8997C20.9097 11.0703 20.9197 11.0703 20.9297 11.0703C20.9297 11.0703 20.9298 11.0803 20.9198 11.0803L20.9097 11.0703ZM20.9397 10.8703C20.9397 10.8703 20.9397 10.8803 20.9397 10.8903C20.9397 10.8903 20.9397 10.8903 20.9397 10.8803V10.8703ZM22.1097 13.4003C22.1097 13.4003 22.0997 13.3903 22.0897 13.3803C22.0897 13.3803 22.0997 13.3803 22.1097 13.3803C22.1097 13.3803 22.1097 13.3903 22.1097 13.4003ZM22.1698 13.4103C22.1698 13.4103 22.1698 13.4103 22.1698 13.4003C22.1698 13.4003 22.1698 13.4003 22.1698 13.4103ZM21.9097 12.7303C21.9097 12.7303 21.9497 12.8203 21.9897 12.8603V12.8803C21.9997 12.8803 22.0097 12.8903 22.0297 12.8903C22.0397 12.9503 22.0797 12.9903 22.1097 13.0503C22.1297 13.0803 22.1498 13.1003 22.1698 13.1303C22.1498 13.1103 22.1297 13.0803 22.1097 13.0603C22.0497 13.0203 22.0297 12.9503 21.9997 12.8903C21.9997 12.8903 21.9997 12.8803 21.9997 12.8703C21.9997 12.8703 21.9898 12.8703 21.9798 12.8703C21.9798 12.8703 21.9798 12.8703 21.9798 12.8603C21.9398 12.8303 21.9197 12.7703 21.9097 12.7303ZM21.8997 7.14034C21.8997 7.14034 21.8997 7.15033 21.8997 7.16033C21.8997 7.16033 21.8998 7.16032 21.8898 7.15032C21.8898 7.15032 21.8897 7.15032 21.8997 7.15032V7.14034ZM21.8597 12.7003C21.8597 12.7003 21.8697 12.7203 21.8797 12.7203C21.8797 12.7203 21.8697 12.7203 21.8597 12.7303C21.8597 12.7303 21.8597 12.7103 21.8397 12.7003C21.8397 12.7003 21.8398 12.7003 21.8498 12.6903L21.8597 12.7003ZM21.5297 6.36031C21.5297 6.36031 21.5297 6.37033 21.5297 6.38033C21.5297 6.38033 21.5297 6.37031 21.5297 6.36031ZM21.4297 7.98033C21.4297 7.98033 21.4298 7.98033 21.4198 7.98033C21.4198 7.98033 21.4198 7.98032 21.4198 7.97032L21.4297 7.98033ZM21.3697 6.25032C21.3697 6.25032 21.3897 6.25032 21.4097 6.25032C21.3997 6.25032 21.3897 6.25032 21.3697 6.25032ZM21.2898 5.72032C21.2898 5.72032 21.2897 5.72032 21.2997 5.72032C21.2997 5.72032 21.2998 5.72032 21.2898 5.72032ZM21.3198 10.6003C21.3098 10.6203 21.2897 10.6203 21.2697 10.6203C21.2897 10.6203 21.3098 10.6103 21.3198 10.6003ZM21.0597 7.88033C21.0597 7.88033 21.0597 7.88033 21.0497 7.88033C21.0497 7.88033 21.0497 7.88033 21.0597 7.88033ZM21.0197 7.92033C21.0197 7.92033 21.0197 7.92031 21.0297 7.93031C21.0297 7.93031 21.0297 7.93031 21.0197 7.93031V7.92033ZM21.0098 8.18031C21.0098 8.18031 21.0097 8.19033 21.0197 8.20033C21.0097 8.20033 20.9997 8.20031 20.9997 8.21031C20.9997 8.20031 20.9997 8.19031 20.9997 8.18031C20.9997 8.18031 20.9998 8.18031 21.0098 8.18031ZM20.9997 9.92033C20.9997 9.92033 20.9797 9.97031 20.9697 9.99031C20.9697 10.0303 20.9697 10.0703 20.9697 10.1103C20.9697 10.1203 20.9697 10.1403 20.9897 10.1503C21.0097 10.1803 20.9997 10.2103 20.9997 10.2403C20.9997 10.2803 20.9997 10.3203 21.0197 10.3603C21.0397 10.4403 21.0498 10.5203 21.0698 10.6103C21.0798 10.6603 21.0697 10.7203 21.1297 10.7503C21.0997 10.8003 21.1297 10.8403 21.1297 10.8903C21.1597 10.9603 21.1297 11.0503 21.2197 11.1003C21.1897 11.1403 21.2197 11.1903 21.2197 11.2303C21.2597 11.3303 21.2897 11.4403 21.3297 11.5403C21.3297 11.5603 21.3497 11.5903 21.3697 11.6003C21.3697 11.6603 21.3998 11.7203 21.4198 11.7703C21.4598 11.8503 21.4797 11.9403 21.5297 12.0103C21.5297 12.0103 21.5397 12.0103 21.5497 12.0103C21.5297 12.0503 21.5498 12.0703 21.5698 12.1103C21.5998 12.1503 21.5997 12.2103 21.6597 12.2303C21.6597 12.2303 21.6597 12.2303 21.6597 12.2403C21.6597 12.2403 21.6597 12.2503 21.6597 12.2603C21.6597 12.2703 21.6597 12.2803 21.6797 12.2903C21.6797 12.2903 21.6797 12.2903 21.6797 12.3003C21.6797 12.3003 21.6797 12.3003 21.6897 12.3003C21.6897 12.3103 21.6997 12.3203 21.7097 12.3403C21.7097 12.3603 21.7097 12.3803 21.7097 12.4003C21.7097 12.4103 21.7097 12.4303 21.7197 12.4403C21.7197 12.4403 21.7197 12.4503 21.7197 12.4603C21.7197 12.4603 21.6997 12.4303 21.6797 12.4103C21.6297 12.3103 21.5697 12.2203 21.5497 12.1103C21.5397 12.1003 21.5298 12.0803 21.5098 12.0703C21.4898 12.0703 21.4898 12.0803 21.4798 12.1003C21.4598 12.0603 21.4398 12.0203 21.4198 11.9703C21.4198 11.9503 21.3997 11.9403 21.3797 11.9403C21.3797 11.9303 21.3797 11.9203 21.3797 11.9103C21.3797 11.9103 21.3798 11.9103 21.3898 11.9103C21.3998 11.8903 21.3998 11.8703 21.3898 11.8603C21.3898 11.8403 21.3698 11.8303 21.3498 11.8303C21.3298 11.7103 21.2597 11.6003 21.2197 11.4803C21.2097 11.4403 21.1897 11.4103 21.1797 11.3703C21.1597 11.3203 21.1497 11.2703 21.1297 11.2303C21.1297 11.2303 21.1297 11.2203 21.1097 11.2103C21.1097 11.2103 21.1197 11.1903 21.1097 11.1803C21.0797 11.0803 21.0698 10.9703 21.0098 10.8803C21.0298 10.7903 21.0098 10.7103 20.9498 10.6403C20.9498 10.6403 20.9498 10.6303 20.9498 10.6203C20.9498 10.4703 20.8897 10.3203 20.8797 10.1603C20.8797 10.1203 20.8697 10.0803 20.8597 10.0403C20.8597 10.0303 20.8597 10.0203 20.8597 10.0103C20.8597 9.98033 20.8598 9.95032 20.8198 9.94032C20.8298 9.92032 20.8298 9.90034 20.8198 9.89034C20.8198 9.89034 20.8197 9.87031 20.8297 9.86031C20.8297 9.81031 20.8597 9.75031 20.7997 9.71031C20.7997 9.69031 20.7997 9.67033 20.8097 9.66033C20.8097 9.63033 20.8098 9.59033 20.7898 9.57033C20.7898 9.57033 20.7897 9.57033 20.7997 9.57033C20.8397 9.52033 20.8097 9.47033 20.8097 9.42033C20.8097 9.41033 20.7997 9.39034 20.7797 9.39034C20.7797 9.39034 20.7797 9.38032 20.7797 9.37032C20.7797 9.36032 20.7797 9.34031 20.7797 9.33031C20.7797 9.29031 20.7797 9.26032 20.7797 9.22032C20.7797 9.22032 20.7797 9.22033 20.7797 9.23033C20.7797 9.24033 20.7997 9.24033 20.8097 9.23033C20.8197 9.19033 20.8198 9.14033 20.8198 9.10033C20.8198 9.12033 20.8198 9.14033 20.8198 9.17033C20.8198 9.19033 20.8198 9.21032 20.8498 9.22032C20.8298 9.23032 20.8197 9.25031 20.8097 9.27031C20.8097 9.26031 20.8097 9.25033 20.7997 9.23033H20.7898V9.28032C20.7898 9.28032 20.7897 9.31033 20.7997 9.32033C20.7997 9.35033 20.7997 9.37034 20.7997 9.39034C20.7997 9.39034 20.7997 9.40033 20.7997 9.41033C20.7997 9.41033 20.7997 9.41033 20.8097 9.41033C20.8097 9.39033 20.8097 9.37033 20.8097 9.35033C20.8297 9.52033 20.8298 9.69031 20.8498 9.86031C20.8498 9.88031 20.8597 9.90033 20.8797 9.91033C20.8797 9.91033 20.8897 9.91033 20.8997 9.91033L20.9997 9.92033ZM20.9697 8.40032C20.9697 8.40032 20.9697 8.38032 20.9697 8.37032C20.9597 8.37032 20.9597 8.39032 20.9697 8.40032ZM20.7697 9.51033C20.7697 9.51033 20.7897 9.45033 20.7997 9.42033C20.7997 9.17033 20.7798 8.92033 20.8198 8.67033C20.8198 8.62033 20.8197 8.58032 20.8097 8.53032C20.8097 8.53032 20.7998 8.53032 20.7898 8.53032C20.8098 8.53032 20.8098 8.53033 20.8198 8.51033C20.8098 8.54033 20.7998 8.57033 20.8198 8.60033C20.8198 8.60033 20.8297 8.60033 20.8397 8.60033C20.8397 8.64033 20.8197 8.68031 20.8597 8.71031C20.8597 8.71031 20.8597 8.70032 20.8597 8.69032C20.9297 8.66032 20.9197 8.59032 20.9097 8.53032C20.9297 8.53032 20.9397 8.52033 20.9597 8.51033C20.9597 8.51033 20.9597 8.56033 20.9697 8.57033C20.9597 8.63033 20.9297 8.68031 20.9697 8.74031C20.9697 8.74031 20.9598 8.74031 20.9498 8.74031C20.9398 8.78031 20.9298 8.82031 20.9198 8.86031V8.72032C20.8998 8.78032 20.8898 8.83034 20.9198 8.89034C20.9198 8.92034 20.9198 8.94032 20.9198 8.97032C20.9198 8.97032 20.8998 8.99032 20.8898 9.00032C20.8798 9.03032 20.8797 9.05031 20.8797 9.08031C20.8797 9.05031 20.8797 9.02031 20.8797 8.99031C20.8797 8.99031 20.8797 8.98032 20.8797 8.97032C20.8797 8.91032 20.8797 8.85032 20.8797 8.78032C20.8797 8.78032 20.8797 8.74031 20.8597 8.74031C20.8297 8.74031 20.8397 8.77033 20.8397 8.79033C20.8197 8.85033 20.8297 8.91032 20.8297 8.97032C20.8297 9.15032 20.8297 9.33033 20.8297 9.51033C20.8297 9.55033 20.8197 9.59033 20.8397 9.63033C20.8397 9.69033 20.8397 9.75031 20.8597 9.80031C20.8597 9.80031 20.8597 9.83033 20.8597 9.85033C20.8597 9.89033 20.8597 9.93032 20.8697 9.97032C20.8697 10.0003 20.8697 10.0303 20.8697 10.0603C20.8997 10.2703 20.9198 10.4803 20.9798 10.6803C20.9798 10.7603 21.0097 10.8303 21.0297 10.9103C21.0397 11.0203 21.0797 11.1203 21.1197 11.2303C21.1797 11.4603 21.2698 11.6803 21.3498 11.9003C21.3498 11.9103 21.3597 11.9303 21.3697 11.9403C21.3797 11.9703 21.3897 12.0003 21.4097 12.0303C21.4297 12.0703 21.4497 12.1203 21.4597 12.1603C21.4897 12.2303 21.5197 12.2903 21.5597 12.3603C21.5797 12.3803 21.5997 12.4003 21.6197 12.4203C21.6197 12.4203 21.6298 12.4203 21.6398 12.4203C21.6398 12.4203 21.6297 12.4203 21.6197 12.4203C21.6197 12.4203 21.6197 12.4303 21.6197 12.4403C21.6497 12.5103 21.6897 12.5803 21.7197 12.6403L21.8898 12.9203C21.8898 12.9203 21.9498 13.0203 21.9798 13.0703L22.0297 13.1303C22.0297 13.1303 22.0598 13.1803 22.0698 13.2003C22.1098 13.2603 22.1598 13.3203 22.1998 13.3903C22.1998 13.3903 22.1897 13.3903 22.1797 13.3903C22.1797 13.3903 22.1597 13.3803 22.1497 13.3703C22.1397 13.3103 22.0897 13.2703 22.0597 13.2203C22.0297 13.1803 21.9997 13.1303 21.9697 13.0903C21.9497 13.0603 21.9397 13.0303 21.8997 13.0203C21.8997 13.0203 21.8898 13.0203 21.8898 13.0303C21.9098 13.0003 21.8897 12.9703 21.8697 12.9503C21.8397 12.9103 21.8197 12.8503 21.7697 12.8203C21.7697 12.8203 21.7497 12.8203 21.7397 12.8103C21.7397 12.8003 21.7397 12.7903 21.7197 12.7803C21.7197 12.7803 21.7197 12.7703 21.7197 12.7603C21.7097 12.7403 21.6998 12.7203 21.6698 12.7103C21.6698 12.7103 21.6697 12.7003 21.6797 12.6903C21.6597 12.6103 21.5998 12.5403 21.5698 12.4703C21.5598 12.4503 21.5497 12.4203 21.5297 12.4003C21.5097 12.3803 21.4997 12.3503 21.4597 12.3603C21.4797 12.3103 21.4597 12.2703 21.4397 12.2203C21.3197 11.9603 21.2097 11.7003 21.1197 11.4303C21.1197 11.4303 21.1098 11.4203 21.0998 11.4103C21.1098 11.3503 21.0997 11.3003 21.0497 11.2703C21.0497 11.2703 21.0498 11.2703 21.0398 11.2703C21.0398 11.2703 21.0497 11.2703 21.0597 11.2703C21.0797 11.2303 21.0597 11.1903 21.0597 11.1503C20.9897 10.9303 20.9397 10.7103 20.8997 10.4803C20.8497 10.2203 20.8197 9.95032 20.7997 9.69032C20.7997 9.66032 20.7998 9.62033 20.7598 9.60033C20.7598 9.60033 20.7597 9.60033 20.7497 9.60033C20.7497 9.60033 20.7598 9.59031 20.7598 9.58031L20.7697 9.51033ZM20.6998 11.0803C20.6998 11.0803 20.7298 11.1103 20.7298 11.1303C20.7298 11.1303 20.7197 11.1303 20.7097 11.1303C20.7097 11.1103 20.6997 11.0903 20.6897 11.0803H20.6998Z" fill="#323334"/>
<path d="M25.5396 10.6506C25.6896 10.6706 25.7896 10.7206 25.8096 10.8806C25.8096 10.9106 25.8296 10.9406 25.8396 10.9706C25.8496 10.9706 25.8596 10.9706 25.8696 10.9706C25.8596 10.7806 25.8496 10.5906 25.8296 10.4006C25.8096 10.4106 25.7896 10.4306 25.7796 10.4406C25.6996 10.4106 25.5496 10.4006 25.5396 10.3506C25.4296 9.97062 25.3396 9.58061 25.2596 9.19061C25.2396 9.11061 25.2996 9.0106 25.4296 9.0506C25.4696 9.0606 25.5196 9.0506 25.5696 9.0506C25.5696 8.9906 25.5696 8.93062 25.5496 8.88062C25.5196 8.82062 25.4696 8.7706 25.4296 8.7106C25.4496 8.7006 25.4696 8.68062 25.4896 8.67062C25.5996 8.83062 25.6996 8.99061 25.7996 9.12061C25.7096 9.20061 25.5996 9.28062 25.5996 9.29062C25.6596 9.40062 25.7396 9.50062 25.8496 9.64062C25.9096 9.41062 25.9496 9.23061 25.9896 9.06061C26.0296 8.91061 26.0196 8.70061 26.1196 8.62061C26.3096 8.45061 26.2096 8.28062 26.1996 8.10062C26.1996 7.90062 26.1896 7.70061 26.1996 7.50061C26.1996 7.36061 26.2796 7.27061 26.4096 7.25061C26.8696 7.16061 27.3296 7.07061 27.7896 6.97061C27.9396 6.94061 28.1196 6.9106 28.2096 6.8006C28.4196 6.5706 28.6296 6.62062 28.8796 6.70062C29.1096 6.78062 29.3096 6.8706 29.3596 7.1506C29.3596 7.1906 29.4396 7.22061 29.4896 7.25061C29.5196 7.27061 29.5696 7.26061 29.5896 7.28061C29.7596 7.53061 29.9496 7.79061 29.9096 8.12061C29.8896 8.32061 29.8696 8.50061 29.9796 8.69061C30.0096 8.75061 30.0196 8.82062 30.0196 8.89062C30.0396 9.19063 30.0496 9.49062 30.0596 9.82062C30.1196 9.72062 30.1596 9.64061 30.1996 9.56061C30.2296 9.56061 30.2496 9.5706 30.2696 9.5806C30.2596 9.9706 30.1796 10.3506 30.0096 10.7306C30.0796 10.7206 30.1396 10.7106 30.1896 10.6906C30.9596 10.4706 31.5996 10.0206 32.2096 9.5206C33.3396 8.5906 32.9896 6.8806 32.2296 6.2106C31.6896 5.7306 31.0496 5.43062 30.3696 5.20062C30.0996 5.11062 29.8296 5.03062 29.5596 4.95062C29.3296 4.92062 29.0996 4.8806 28.8696 4.8606C27.9896 4.7506 27.1296 4.86061 26.2996 5.16061C26.2896 5.15061 26.2796 5.13061 26.2696 5.12061C26.3696 5.02061 26.4596 4.89062 26.5796 4.82062C26.8296 4.69062 27.0896 4.51061 27.3496 4.50061C27.7096 4.49061 28.0296 4.39062 28.3696 4.32062C28.4296 4.32062 28.4896 4.32062 28.5496 4.32062C28.7496 4.42062 28.9596 4.52063 29.1596 4.64062C29.2996 4.73063 29.4296 4.85062 29.5596 4.95062C29.2996 4.56062 28.9496 4.2706 28.4796 4.1806C28.3796 4.1606 28.2796 4.15062 28.1796 4.14062H28.0296C28.0296 4.14062 27.9796 4.16061 27.9596 4.16061C27.3096 4.18061 26.7996 4.5206 26.2996 4.9006C26.2396 4.9506 26.2096 5.03061 26.1496 5.09061C26.0796 5.16061 26.0096 5.26062 25.9296 5.29062C25.1796 5.62062 24.4696 6.0306 23.8196 6.5206C22.6596 7.4006 22.6496 8.99062 23.7696 9.92062C24.2796 10.3406 24.8696 10.5506 25.5096 10.6306L25.5396 10.6506Z" fill="#323334"/>
<path d="M28.4495 10.6103C28.4995 10.5103 28.5195 10.4603 28.5495 10.4003C28.4795 10.3703 28.4195 10.3303 28.3495 10.3203C28.1895 10.3003 28.0195 10.2803 27.8495 10.2803C27.7795 10.2803 27.6995 10.3303 27.6295 10.3603C27.6295 10.3703 27.6295 10.3903 27.6395 10.4103C27.7495 10.4503 27.8495 10.4803 27.9695 10.5203C27.5195 10.7603 27.0995 10.9703 26.6895 11.2003C26.6095 11.2503 26.5495 11.3303 26.4795 11.4003C26.8995 11.4703 27.2595 11.4103 27.6295 11.3203C27.9395 11.2403 28.2695 11.2303 28.5495 11.4503C28.7095 11.5803 28.8695 11.7203 29.0395 11.8503C29.0795 11.8803 29.1195 11.9003 29.1695 11.9203C29.2395 11.2803 28.8195 10.9303 28.4395 10.6103H28.4495Z" fill="#323334"/>
<path d="M28.2198 12.6306C28.1698 12.6206 28.0998 12.5906 28.0598 12.6106C27.7398 12.7706 27.4198 12.7706 27.1198 12.6106C26.8498 12.4706 26.6098 12.2806 26.3398 12.1006C26.4098 12.2206 26.4698 12.3606 26.5498 12.4606C26.8298 12.7906 27.1098 13.1106 27.3998 13.4206C27.6798 13.7206 28.1898 13.7506 28.4898 13.4806C28.5898 13.3906 28.6798 13.3006 28.7698 13.2006C28.9398 13.0006 29.0899 12.7906 29.1399 12.5506C28.9099 12.6006 28.6898 12.6706 28.4598 12.7106C28.3798 12.7206 28.2998 12.6606 28.2098 12.6406L28.2198 12.6306Z" fill="#323334"/>
<path d="M27.8601 12.1107C27.8601 12.1107 27.9101 12.0307 27.9401 11.9807C28.1801 12.0507 28.4301 12.1507 28.6801 11.9907C28.5301 11.7507 28.3501 11.6407 28.0501 11.6207C27.7401 11.6007 27.5701 11.7807 27.3301 11.9207C27.4101 11.9907 27.4801 12.0607 27.5501 12.1307C27.6401 12.0707 27.7201 12.0307 27.7801 11.9907C27.8101 12.0407 27.8301 12.0807 27.8501 12.1207L27.8601 12.1107Z" fill="#323334"/>
<path d="M26.6396 9.34009C26.8896 9.18009 27.1796 9.50008 27.4196 9.24008C27.4596 9.19008 27.5696 9.21009 27.6396 9.19009C27.7396 9.15009 27.8296 9.11008 27.9196 9.05008C27.9496 9.03008 27.9596 8.97009 27.9496 8.94009C27.9496 8.91009 27.8896 8.90011 27.8496 8.89011C27.7496 8.88011 27.6496 8.87008 27.5596 8.86008C27.4196 8.85008 27.2696 8.84008 27.1296 8.83008V8.86008C27.2396 8.92008 27.3496 8.97009 27.4596 9.03009C27.1696 9.11009 26.8396 9.00008 26.6396 9.33008V9.34009Z" fill="#323334"/>
<path d="M28.8093 9.03028C28.9493 8.99028 29.0993 8.97029 29.2693 8.94029C28.9993 8.83029 28.7493 8.75027 28.4893 8.83027C28.4293 8.85027 28.3593 8.93028 28.3393 8.99028C28.3193 9.05028 28.3593 9.15029 28.3993 9.19029C28.4393 9.22029 28.5293 9.18029 28.5993 9.16029C28.6193 9.16029 28.6493 9.14029 28.6693 9.13029C28.7193 9.09029 28.7593 9.04027 28.8093 9.02027V9.03028Z" fill="#323334"/>
<path d="M28.6701 9.14062C28.6501 9.20062 28.6201 9.26062 28.5801 9.35062C28.6801 9.32062 28.7401 9.30062 28.7801 9.29062C28.8501 9.33062 28.9301 9.4106 28.9701 9.4006C29.1601 9.3406 29.3401 9.35061 29.5201 9.44061C29.5201 9.44061 29.5401 9.43062 29.5801 9.38062C29.4501 9.31062 29.3401 9.22061 29.2201 9.19061C29.0401 9.15061 28.8501 9.15062 28.6601 9.14062H28.6701Z" fill="#323334"/>
<path d="M29.7299 9.13016C29.5899 9.04016 29.4799 8.97016 29.3799 8.91016C29.4599 9.15016 29.5299 9.19016 29.7299 9.13016Z" fill="#323334"/>
<path d="M32.5197 22.81C33.4097 22.85 34.0298 22.47 34.4598 21.87C35.0498 21.04 35.0397 20.16 34.5197 19.3C34.1497 18.69 33.5398 18.33 32.6998 18.3C32.3998 18.29 32.0997 18.27 31.7997 18.3C31.5497 18.32 31.2798 18.32 31.0898 18.5C30.9298 18.65 30.8798 18.88 30.9798 19.05C31.0798 19.23 31.2398 19.32 31.4398 19.31C31.3998 19.25 31.3597 19.19 31.3297 19.13C31.2897 19.02 31.3298 18.92 31.4698 18.88C31.6098 18.84 31.7197 18.9 31.7697 19.02C31.7897 19.06 31.7997 19.1 31.7997 19.15C31.7997 19.34 31.7997 19.54 31.7997 19.73C31.7997 19.8 31.7797 19.87 31.7697 19.94C31.6897 19.93 31.6298 19.92 31.5398 19.9C31.7098 20.07 31.7997 20.25 31.7997 20.46C31.7897 20.76 31.7997 21.06 31.7997 21.36C31.7997 21.57 31.7997 21.78 31.7997 21.99C31.7997 22.18 31.6798 22.26 31.4698 22.23C31.1998 22.18 30.9898 22.07 30.8498 21.87C30.4698 21.32 30.9997 20.72 31.6097 20.71C31.6197 20.69 31.6398 20.68 31.6498 20.66C31.5498 20.59 31.4697 20.5 31.3597 20.46C31.1397 20.37 30.8998 20.38 30.6798 20.48C30.2798 20.65 30.1397 20.96 30.0797 21.31C29.9497 22 30.5297 22.69 31.3597 22.79C31.7397 22.83 32.1398 22.81 32.5298 22.83L32.5197 22.81ZM32.4798 18.8901C33.2398 18.7701 33.9697 19.39 34.0797 19.94C34.0197 19.94 33.9598 19.94 33.8798 19.93C34.3498 20.25 34.2498 20.65 34.1498 21.05C34.0498 21.45 33.8298 21.8 33.4098 22.03C33.2098 22.14 32.9598 22.2 32.7298 22.26C32.5298 22.31 32.4698 22.24 32.4698 22.07C32.4698 21.4 32.4698 20.73 32.4698 20.05C32.4698 19.7 32.4698 19.35 32.4598 19C32.4598 18.96 32.4797 18.93 32.4897 18.9L32.4798 18.8901Z" fill="#323334"/>
<path d="M9.93921 11.8003C10.3792 11.7303 10.5992 11.5403 10.6492 11.2803C10.3792 11.1703 10.0992 11.1003 9.87921 10.9503C9.36921 10.6203 9.13921 10.1103 9.18921 9.52029C9.23921 8.93029 9.77921 8.37032 10.3492 8.23032C10.7892 8.12032 11.0392 8.31031 11.0292 8.75031C11.0292 9.16031 11.0292 9.57032 11.0092 9.98032C11.0092 10.1103 10.9092 10.2303 10.8592 10.3503C10.9192 10.6803 11.0192 11.0503 11.0292 11.4103C11.0592 12.4803 11.0792 13.5503 11.0292 14.6203C11.0092 15.2303 11.2192 15.8803 10.8092 16.4403C11.3992 16.4703 11.9892 16.4203 12.5492 16.5403C13.1592 16.6703 13.7392 16.9203 14.3192 17.1603C15.0392 17.4603 15.7592 17.6103 16.5292 17.3703C17.1392 17.1803 17.5792 16.6303 17.5592 16.1103C17.3492 16.2103 17.1392 16.3403 16.9192 16.4203C16.1492 16.7103 15.4492 16.4503 14.7592 16.1303C13.9892 15.7803 13.2292 15.4303 12.3692 15.3803C12.1692 15.3703 12.1092 15.2603 12.1092 15.0703C12.1092 13.8803 12.0892 12.7003 12.0892 11.5103C12.0892 11.3203 12.1792 11.2203 12.3792 11.2203C12.6392 11.2203 12.9092 11.2403 13.1692 11.2303C13.9692 11.2203 14.3792 10.7203 14.2692 10.0003C13.9492 10.0403 13.6392 10.0803 13.3292 10.1003C13.0592 10.1203 12.7792 10.1003 12.5092 10.1203C12.1292 10.1403 12.0792 10.0803 12.0892 9.69031C12.1092 9.29031 12.0792 8.8903 12.0892 8.4903C12.0892 8.3903 12.1892 8.22031 12.2492 8.22031C12.8092 8.20031 13.3692 8.19031 13.9292 8.22031C14.1692 8.23031 14.3192 8.5303 14.2492 8.7403C14.1692 8.9703 13.9292 9.0603 13.6792 8.9303C13.5792 8.8803 13.4992 8.81031 13.4092 8.75031C13.4092 8.94031 13.4392 9.10032 13.5292 9.23032C13.7292 9.54032 14.0392 9.67032 14.3992 9.64032C14.7992 9.60032 15.1192 9.39031 15.2292 9.01031C15.3292 8.64031 15.3492 8.25029 15.3692 7.86029C15.3792 7.56029 15.3792 7.2703 15.7392 7.1203C15.6792 7.0903 15.6492 7.07031 15.6292 7.07031C14.9592 7.07031 14.2892 7.07031 13.6092 7.07031C12.9392 7.07031 12.2592 7.07031 11.5892 7.10031C11.0392 7.12031 10.4592 7.07031 9.93921 7.22031C8.25921 7.68031 7.46922 9.81031 8.66922 11.3203C8.98922 11.7203 9.43921 11.8703 9.93921 11.7903V11.8003Z" fill="#323334"/>
<path d="M18.7396 26.8704C18.8196 26.8804 18.8896 26.8704 19.0496 26.8704C18.8996 26.6304 18.8196 26.4304 18.6696 26.2904C18.1296 25.7504 17.1396 25.6504 16.4496 25.9804C15.3196 26.5104 14.6596 27.4504 14.3396 28.5704C13.7596 30.6204 13.2996 32.7104 12.7896 34.7804C12.6996 35.1304 12.6096 35.4804 12.5096 35.8304C12.4696 35.8304 12.4296 35.8104 12.3996 35.8104C12.3696 35.6604 12.3596 35.5104 12.3196 35.3604C11.7896 33.1004 11.2596 30.8404 10.7496 28.5804C10.6796 28.2804 10.7496 27.9604 10.7496 27.6204C10.1296 27.6204 9.44956 27.6304 8.76956 27.6204C7.99956 27.6004 7.29956 27.8204 6.70956 28.2904C5.07956 29.5904 4.87957 31.6404 6.06957 33.2804C6.55957 33.9404 7.62956 34.1804 8.33956 33.7704C8.53956 33.6504 8.67955 33.4204 8.79955 33.2904C8.33955 33.0604 7.92957 32.9304 7.59957 32.6904C6.85957 32.1404 6.60958 31.2004 6.91958 30.3204C7.14958 29.6604 7.95957 29.1204 8.71957 29.1004C9.10957 29.1004 9.37957 29.2404 9.46957 29.6404C9.59957 30.1904 9.72956 30.7404 9.86956 31.2904C9.93956 31.5604 10.0296 31.8204 9.73956 31.9004C9.90956 32.2604 10.1196 32.5804 10.2196 32.9404C10.4396 33.7204 10.5996 34.5104 10.7896 35.2904C10.9496 35.9504 11.0996 36.6104 11.2496 37.2704C11.3096 37.5504 11.2596 37.8104 10.9696 37.9104C10.8096 37.9604 10.4796 37.9504 10.4396 37.8604C10.3296 37.6504 10.3196 37.3704 10.3296 37.1204C10.3296 37.0104 10.4896 36.9104 10.5796 36.8004C9.97955 36.7904 9.47957 37.1804 9.37957 37.7304C9.22957 38.5804 9.57956 39.2204 10.4296 39.4004C11.0296 39.5204 11.6696 39.4804 12.2896 39.4904C12.8196 39.5004 13.3596 39.4904 13.9996 39.4904C13.4696 39.0004 13.4396 38.5004 13.5796 37.8904C14.1396 35.5704 14.6596 33.2304 15.1896 30.9004C15.4196 29.9004 15.6396 28.9104 16.2296 28.0504C16.8296 27.1704 17.6296 26.7104 18.7296 26.8604L18.7396 26.8704Z" fill="#323334"/>
<path d="M5.5596 20.2605C5.4896 20.3605 5.3896 20.4305 5.3096 20.5105C5.3396 20.7705 5.39962 21.0604 5.38962 21.3404C5.34962 21.9504 5.39961 22.5505 5.59961 23.1305C6.02961 24.4205 6.76961 25.4504 8.15961 25.7704C8.90961 25.9404 9.7196 25.8804 10.4296 25.9304C10.3796 25.5804 10.3296 25.2805 10.2796 24.9805C10.2196 24.6305 10.2296 24.2505 10.0996 23.9205C9.92961 23.4905 9.44959 23.3404 8.95959 23.4704C8.60959 23.5604 8.39961 23.8504 8.37961 24.2804C8.41961 24.2504 8.43961 24.2205 8.47961 24.2005C8.65961 24.0505 8.8896 23.9805 9.0596 24.1405C9.1596 24.2405 9.19961 24.4805 9.15961 24.6305C9.09961 24.8605 8.86962 24.8405 8.66962 24.8205C8.17962 24.7705 7.7896 24.5504 7.4396 24.2104C6.8196 23.6104 6.5396 22.8704 6.4396 22.0304C6.3696 21.4604 6.4696 20.9204 6.6496 20.3704C6.6996 20.3904 6.7296 20.4005 6.7496 20.4205C7.4996 20.9405 8.29961 20.9504 9.06961 20.5304C9.82961 20.1204 10.2696 19.4704 10.2696 18.5604C10.2696 18.1704 10.1596 17.7505 10.5596 17.4205C10.2296 17.4205 9.97961 17.4105 9.72961 17.4205C9.11961 17.4605 8.4996 17.3504 7.8996 17.5904C7.2996 17.8304 6.7796 18.1505 6.3696 18.6605C6.2996 18.6105 6.22959 18.5805 6.17959 18.5405C5.55959 18.0505 4.83961 17.7605 4.06961 17.6005C3.34961 17.4405 2.62961 17.3804 1.90961 17.5904C1.19961 17.7904 0.819612 18.4104 1.00961 18.9404C1.28961 18.8304 1.56959 18.6604 1.85959 18.6204C3.06959 18.4304 4.23959 18.5504 5.29959 19.2404C5.77959 19.5504 5.79961 19.5304 5.62961 20.0504C5.60961 20.1304 5.59959 20.2204 5.54959 20.2804L5.5596 20.2605ZM7.29959 19.2305C7.69959 18.8005 8.17961 18.5205 8.75961 18.4805C9.07961 18.4505 9.19961 18.6204 9.12961 18.9304C9.01961 19.3804 8.54961 19.7405 8.06961 19.7905C7.82961 19.7005 7.5796 19.6304 7.3396 19.5304C7.2096 19.4704 7.17961 19.3604 7.28961 19.2404L7.29959 19.2305Z" fill="#323334"/>
<path d="M18.07 19.0001C17.64 18.2601 17.01 18.1101 16.29 18.2201C16.33 18.4501 16.4 18.6801 16.41 18.9101C16.43 19.5801 16.41 20.2501 16.41 20.9101C16.41 21.2801 16.41 21.2801 16.04 21.2601C16.37 21.5401 16.4 21.9001 16.41 22.2601C16.41 22.9601 16.42 23.6601 16.41 24.3501C16.41 24.5801 16.34 24.8101 16.29 25.0601H17.59C17.54 24.7101 17.47 24.3701 17.46 24.0301C17.44 23.0201 17.46 22.0101 17.46 21.0001V20.11C17.46 20.11 17.51 20.09 17.54 20.08C18.03 20.74 18.52 21.4 19.05 22.11C19.57 21.4 20.05 20.7401 20.58 20.0101V21.27C20.45 21.25 20.36 21.2401 20.23 21.2201C20.78 21.8101 20.62 22.5001 20.61 23.1401C20.59 23.7801 20.77 24.4601 20.43 25.0701H21.79C21.75 24.7401 21.67 24.43 21.67 24.11C21.66 22.7 21.65 21.3001 21.67 19.8901C21.67 19.3301 21.51 18.7501 21.84 18.2201C21.23 18.1101 20.68 18.14 20.27 18.65C20.06 18.92 19.86 19.1901 19.65 19.4701C19.45 19.7401 19.25 20.0201 19.03 20.3201C18.69 19.8501 18.33 19.45 18.07 18.99V19.0001Z" fill="#323334"/>
<path d="M11.5495 18.62C10.6895 19.16 10.2795 20.0001 10.0895 20.9701C10.0495 21.1901 9.98953 21.3201 9.76953 21.2301C9.85953 21.5001 9.97954 21.7301 10.0295 21.9801C10.1695 22.7801 10.4095 23.53 10.9695 24.15C12.0495 25.35 13.6195 25.4301 14.7795 24.2901C16.0995 22.9901 16.1696 20.7201 15.0396 19.2501C14.1796 18.1301 12.7595 17.87 11.5595 18.62H11.5495ZM14.4196 23.02C13.9796 23.8 13.2996 24.1601 12.5096 23.9201C12.2096 23.8301 11.9195 23.61 11.7095 23.37C10.8995 22.44 10.8996 20.8901 11.6396 19.9401C12.2596 19.1501 13.3995 18.84 14.2695 20.02C14.4495 20.27 14.5596 20.57 14.6696 20.86C14.7896 21.2 14.7395 21.2501 14.3795 21.2301C14.8895 21.8201 14.7496 22.41 14.4196 23.02Z" fill="#323334"/>
<path d="M35.1696 18.2905C35.2096 18.4605 35.2596 18.6105 35.2596 18.7605C35.2696 19.1705 35.2596 19.5905 35.2596 20.0005C35.2596 20.0705 35.2595 20.1505 35.2195 20.2005C35.1895 20.2305 35.0995 20.2005 35.0195 20.2005C35.3595 20.5605 35.2595 20.9905 35.2495 21.3905C35.2395 21.8005 35.3695 22.2205 35.1095 22.6005H38.0495C37.8095 22.3505 37.9096 22.0505 37.8896 21.7305C37.5896 21.9405 37.2796 21.9205 36.9796 21.9305C36.6596 21.9305 36.3495 21.9505 36.0295 21.9605C35.9195 21.9605 35.8995 21.9105 35.9095 21.8205C35.9095 21.5205 35.9095 21.2205 35.9095 20.9205C35.9095 20.8005 35.9495 20.7705 36.0695 20.7705C36.2495 20.7805 36.4395 20.7705 36.6295 20.7705C37.0595 20.7705 37.3095 20.4205 37.2095 20.0105C37.1195 20.0405 37.0295 20.0805 36.9395 20.0905C36.6395 20.1105 36.3396 20.1205 36.0396 20.1205C35.9996 20.1205 35.9195 20.0505 35.9095 20.0005C35.8995 19.6905 35.9095 19.3705 35.9095 19.0605C35.9095 19.0205 35.9895 18.9405 36.0295 18.9405C36.6495 18.9805 37.2895 18.8105 37.8995 19.1105C37.9195 18.8205 37.8195 18.5305 38.0295 18.2705H35.1595L35.1696 18.2905Z" fill="#323334"/>
<path d="M26.8399 25.0602C26.7399 24.8302 26.6199 24.6202 26.5599 24.4002C26.1999 22.9102 25.8399 21.4202 25.4999 19.9302C25.3699 19.3702 25.0699 18.7802 25.6099 18.2002H23.5699C23.8299 18.5302 23.9599 18.8702 23.8299 19.3002C23.6699 19.8602 23.5399 20.4302 23.4199 21.0002C23.3499 21.3402 23.3299 21.3702 23.0799 21.2702C23.1099 21.5202 23.2199 21.8302 23.1499 22.0802C22.8899 23.0702 22.8399 24.1102 22.3799 25.0402H23.7499C23.7099 24.9202 23.6499 24.8302 23.6599 24.7402C23.7099 24.3902 23.7799 24.0502 23.8699 23.7002C23.8799 23.6402 23.9999 23.5802 24.0699 23.5802C24.4099 23.5602 24.7599 23.5602 25.0999 23.5602C25.1699 23.5602 25.2899 23.6102 25.2899 23.6502C25.3399 24.1202 25.6399 24.5702 25.3899 25.0502H26.8199L26.8399 25.0602ZM24.1599 22.4902C24.2899 21.9302 24.4199 21.3902 24.5499 20.8602H24.6199C24.7599 21.3802 24.8999 21.9102 25.0499 22.4902H24.1599Z" fill="#323334"/>
<path d="M38.07 35.8604C37.92 35.5504 37.76 35.2904 37.68 35.0004C37.51 34.3904 37.38 33.7604 37.23 33.1404C36.83 31.4304 36.44 29.7204 36.03 28.0204C35.87 27.3804 35.78 26.7704 36.35 26.1904H33.46C33.83 26.6304 34 27.0904 33.87 27.6304C33.67 28.4504 33.48 29.2804 33.28 30.1004C33.24 30.2504 33.22 30.4404 33.12 30.5204C33.04 30.5804 32.84 30.5104 32.71 30.4904C32.77 30.6604 32.88 30.8304 32.88 31.0004C32.88 31.3604 32.88 31.7404 32.79 32.0804C32.46 33.3204 32.42 34.6404 31.79 35.7904H33.61C33.65 35.4404 33.65 35.1204 33.71 34.8204C33.94 33.7204 33.95 33.7204 35.05 33.7204C35.88 33.7204 35.89 33.7204 36.04 34.5304C36.12 34.9604 36.39 35.4004 35.99 35.8404H38.08L38.07 35.8604ZM34.3 32.2104C34.49 31.4104 34.67 30.6404 34.86 29.8604C34.89 29.8604 34.91 29.8604 34.94 29.8704C35.14 30.6304 35.33 31.3904 35.54 32.2104H34.3Z" fill="#323334"/>
<path d="M16.0699 11.1204C15.9099 11.0904 15.8199 11.0804 15.6699 11.0504C16.2499 11.6504 16.0799 12.3704 16.0599 13.0304C16.0399 13.7004 16.2299 14.3904 15.8699 15.0604H19.4599C19.4099 14.5904 19.3599 14.1304 19.3099 13.6404C18.8199 14.0004 18.2599 13.9604 17.6999 13.9504C17.6499 13.9504 17.5899 13.9504 17.5399 13.9504C17.2199 14.0004 17.1399 13.9504 17.1399 13.6204C17.1399 12.5504 17.1399 11.4804 17.1399 10.4104C17.1399 10.0504 17.1999 9.69039 17.1699 9.34039C17.1299 8.84039 17.0399 8.35039 17.3799 7.90039H15.8999C16.1999 8.96039 16.0099 10.0304 16.0499 11.1104L16.0699 11.1204Z" fill="#323334"/>
<path d="M26.1593 35.8499H30.9493C30.8793 35.2199 30.8093 34.5999 30.7393 33.9799C30.4093 34.0899 30.0793 34.2499 29.7393 34.3099C29.3793 34.3699 28.9993 34.3299 28.6293 34.3399C28.5393 34.3399 28.4593 34.3399 28.3693 34.3499C27.8793 34.4099 27.8193 34.3699 27.8093 33.8899C27.8093 32.4599 27.8093 31.0299 27.8093 29.5899C27.8093 28.8499 27.7793 28.1199 27.8093 27.3799C27.8293 26.9799 27.9393 26.5799 28.0193 26.1699H26.1193C26.5993 27.5799 26.2593 29.0299 26.3693 30.4999C26.1593 30.4599 26.0193 30.4399 25.9893 30.4299C26.1093 30.8699 26.3293 31.3299 26.3593 31.7899C26.4093 32.7899 26.3793 33.7999 26.3593 34.8099C26.3493 35.1399 26.2293 35.4699 26.1593 35.8299V35.8499Z" fill="#323334"/>
<path d="M20.4493 35.8507H25.2293C25.1593 35.2207 25.0893 34.6007 25.0193 33.9307C24.3393 34.4307 23.5493 34.3507 22.7693 34.3507C22.7393 34.3507 22.7093 34.3507 22.6793 34.3507C22.1493 34.4107 22.1093 34.3807 22.1093 33.8707C22.1093 32.4507 22.1093 31.0307 22.1093 29.6107C22.1093 28.8707 22.0793 28.1407 22.1093 27.4007C22.1293 27.0007 22.2393 26.6007 22.3093 26.1807C21.7193 26.1807 21.0293 26.1807 20.3493 26.1807C20.6593 26.6907 20.8193 29.6407 20.5793 30.4907C20.4493 30.4707 20.3193 30.4407 20.2793 30.4407C20.4093 30.8807 20.6193 31.3407 20.6493 31.8107C20.6993 32.7707 20.6793 33.7407 20.6493 34.7107C20.6393 35.0807 20.5293 35.4607 20.4593 35.8407L20.4493 35.8507Z" fill="#323334"/>
<path d="M30.8097 23.6807C30.3197 24.0407 29.7897 24.0107 29.2597 24.0007C29.2097 24.0007 29.1597 24.0007 29.1097 24.0007C28.7597 24.0507 28.7197 24.0107 28.7197 23.6807C28.7197 22.6507 28.7197 21.6207 28.7197 20.5807C28.7197 20.1107 28.7197 19.6307 28.7197 19.1607C28.7197 18.8207 28.6897 18.4707 28.9897 18.1807H27.5297C27.8597 19.2007 27.6297 20.2307 27.6997 21.2707C27.5397 21.2407 27.4397 21.2307 27.4297 21.2307C27.5197 21.5407 27.6697 21.8607 27.6897 22.1807C27.7297 22.9007 27.7097 23.6207 27.6897 24.3407C27.6897 24.5807 27.5997 24.8107 27.5497 25.0707H31.0797C30.7297 24.6507 30.9197 24.1707 30.8397 23.6907L30.8097 23.6807Z" fill="#323334"/>
<path d="M17.4898 28.0801C17.9598 29.5101 17.6298 29.0701 17.6798 30.5301C17.4898 30.5101 17.3598 30.4901 17.3398 30.4901C17.4598 30.8901 17.6898 31.3001 17.7098 31.7301C17.7698 32.6901 17.7499 33.6601 17.7299 34.6201C17.7299 35.0301 17.6099 35.4301 17.5399 35.8601H19.3499C19.2999 35.4101 19.1999 34.9901 19.1999 34.5701C19.1899 32.3101 19.1999 31.9401 19.1999 29.6801C19.1999 29.1401 19.0398 28.5801 19.5498 28.0901H17.4799L17.4898 28.0801Z" fill="#323334"/>
</svg>
