<svg width="390" height="137" viewBox="0 0 390 137" fill="none" xmlns="http://www.w3.org/2000/svg">
<path d="M26.51 130.18L23.15 117.55H17.56V136.06H21.03V121.49L24.69 136.06H28.29L31.96 121.49V136.06H35.44V117.55H29.83L26.51 130.18Z" fill="white"/>
<path d="M50.15 127.79C50.15 129.26 50.1 130.3 49.99 130.94C49.88 131.57 49.55 132.1 49.01 132.54C48.47 132.97 47.67 133.19 46.61 133.19C45.55 133.19 44.74 132.96 44.14 132.5C43.54 132.04 43.16 131.43 43 130.68C42.9 130.21 42.86 129.17 42.86 127.58V117.55H39.12V127.43C39.12 129.5 39.24 131.07 39.48 132.13C39.65 132.85 40 133.53 40.53 134.18C41.06 134.83 41.78 135.36 42.7 135.77C43.61 136.18 44.95 136.39 46.72 136.39C48.18 136.39 49.37 136.2 50.28 135.83C51.19 135.45 51.91 134.95 52.46 134.32C53 133.69 53.37 132.92 53.58 131.99C53.78 131.07 53.88 129.5 53.88 127.28V117.55H50.14V127.79H50.15Z" fill="white"/>
<path d="M69.15 125.84C68.28 125.38 66.94 124.94 65.12 124.51C63.3 124.08 62.16 123.67 61.68 123.27C61.31 122.96 61.12 122.59 61.12 122.15C61.12 121.67 61.32 121.29 61.71 121C62.33 120.55 63.17 120.33 64.26 120.33C65.35 120.33 66.11 120.54 66.63 120.96C67.15 121.38 67.5 122.06 67.66 123.01L71.4 122.85C71.34 121.15 70.72 119.79 69.55 118.77C68.37 117.75 66.62 117.24 64.3 117.24C62.88 117.24 61.67 117.46 60.66 117.89C59.65 118.32 58.89 118.95 58.35 119.77C57.81 120.59 57.55 121.47 57.55 122.42C57.55 123.88 58.12 125.13 59.25 126.15C60.06 126.87 61.46 127.49 63.47 127.98C65.03 128.37 66.03 128.64 66.47 128.79C67.11 129.02 67.56 129.28 67.82 129.59C68.07 129.9 68.2 130.27 68.2 130.71C68.2 131.39 67.9 131.99 67.29 132.5C66.67 133.01 65.77 133.26 64.56 133.26C63.43 133.26 62.52 132.97 61.85 132.4C61.18 131.83 60.74 130.93 60.52 129.71L56.88 130.06C57.12 132.13 57.88 133.71 59.13 134.79C60.39 135.87 62.18 136.41 64.53 136.41C66.14 136.41 67.48 136.18 68.56 135.73C69.64 135.28 70.47 134.6 71.06 133.67C71.65 132.74 71.94 131.75 71.94 130.69C71.94 129.52 71.69 128.53 71.2 127.74C70.71 126.94 70.03 126.32 69.15 125.86V125.84Z" fill="white"/>
<path d="M78.82 127.91H88.12V124.78H78.82V120.68H88.82V117.55H75.09V136.06H89.17V132.94H78.82V127.91Z" fill="white"/>
<path d="M100.54 117.23C99.03 117.23 97.7 117.47 96.55 117.96C95.68 118.33 94.88 118.88 94.16 119.63C93.43 120.38 92.86 121.23 92.44 122.17C91.87 123.45 91.59 125.03 91.59 126.92C91.59 129.87 92.4 132.18 94.03 133.86C95.66 135.54 97.85 136.38 100.6 136.38C103.35 136.38 105.49 135.53 107.12 133.85C108.74 132.16 109.55 129.82 109.55 126.83C109.55 123.84 108.73 121.46 107.1 119.77C105.46 118.08 103.28 117.23 100.55 117.23H100.54ZM104.25 131.57C103.29 132.64 102.07 133.18 100.58 133.18C99.09 133.18 97.86 132.64 96.89 131.56C95.92 130.47 95.44 128.89 95.44 126.79C95.44 124.69 95.91 123.06 96.85 122.01C97.79 120.96 99.04 120.43 100.58 120.43C102.12 120.43 103.35 120.95 104.28 122C105.21 123.04 105.67 124.62 105.67 126.74C105.67 128.86 105.19 130.5 104.24 131.57H104.25Z" fill="white"/>
<path d="M130.91 129.91L123.33 117.55H119.69V136.06H123.16V123.99L130.63 136.06H134.38V117.55H130.91V129.91Z" fill="white"/>
<path d="M143.67 117.55L136.46 136.07H140.42L141.95 131.87H149.35L150.97 136.07H155.03L147.62 117.55H143.67ZM143.09 128.74L145.59 121.87L148.14 128.74H143.08H143.09Z" fill="white"/>
<path d="M167.32 132.24C166.6 132.87 165.75 133.19 164.76 133.19C163.41 133.19 162.31 132.69 161.47 131.7C160.63 130.7 160.21 129.04 160.21 126.7C160.21 124.49 160.64 122.9 161.49 121.91C162.34 120.92 163.46 120.43 164.83 120.43C165.82 120.43 166.67 120.71 167.36 121.26C168.05 121.82 168.51 122.58 168.73 123.53L172.43 122.65C172.01 121.17 171.38 120.03 170.54 119.24C169.13 117.9 167.29 117.23 165.02 117.23C162.42 117.23 160.33 118.08 158.74 119.79C157.15 121.49 156.35 123.89 156.35 126.97C156.35 129.89 157.14 132.18 158.72 133.86C160.31 135.54 162.33 136.38 164.78 136.38C166.77 136.38 168.41 135.89 169.7 134.91C170.99 133.93 171.91 132.43 172.47 130.4L168.84 129.25C168.53 130.6 168.01 131.6 167.3 132.23L167.32 132.24Z" fill="white"/>
<path d="M179.32 117.55H175.58V136.07H179.32V117.55Z" fill="white"/>
<path d="M191.08 117.23C189.57 117.23 188.24 117.47 187.09 117.96C186.22 118.33 185.42 118.88 184.69 119.63C183.96 120.38 183.39 121.23 182.97 122.17C182.4 123.45 182.12 125.03 182.12 126.92C182.12 129.87 182.93 132.18 184.56 133.86C186.19 135.54 188.38 136.38 191.13 136.38C193.88 136.38 196.02 135.53 197.65 133.85C199.27 132.16 200.08 129.82 200.08 126.83C200.08 123.84 199.27 121.46 197.63 119.77C195.99 118.08 193.81 117.23 191.08 117.23ZM194.79 131.57C193.84 132.64 192.61 133.18 191.12 133.18C189.63 133.18 188.4 132.64 187.43 131.56C186.46 130.47 185.98 128.89 185.98 126.79C185.98 124.69 186.45 123.06 187.4 122.01C188.34 120.96 189.58 120.43 191.13 120.43C192.68 120.43 193.9 120.95 194.83 122C195.76 123.04 196.22 124.62 196.22 126.74C196.22 128.86 195.74 130.5 194.79 131.57Z" fill="white"/>
<path d="M214.26 129.91L206.68 117.55H203.04V136.06H206.51V123.99L213.98 136.06H217.73V117.55H214.26V129.91Z" fill="white"/>
<path d="M227.02 117.55L219.81 136.07H223.78L225.31 131.87H232.71L234.33 136.07H238.4L230.98 117.55H227.03H227.02ZM226.45 128.74L228.95 121.87L231.5 128.74H226.44H226.45Z" fill="white"/>
<path d="M244.21 117.7H240.47V136.06H253.51V132.94H244.21V117.7Z" fill="white"/>
<path d="M276.03 119.6C275.26 118.78 274.33 118.22 273.24 117.89C272.43 117.66 271.25 117.54 269.72 117.54H262.89V136.06H269.92C271.3 136.06 272.4 135.93 273.23 135.67C274.33 135.31 275.21 134.82 275.86 134.19C276.72 133.36 277.38 132.27 277.84 130.92C278.22 129.82 278.41 128.5 278.41 126.98C278.41 125.25 278.21 123.78 277.81 122.6C277.41 121.42 276.81 120.42 276.04 119.6H276.03ZM274.16 130.21C273.9 131.04 273.58 131.63 273.18 132C272.78 132.36 272.27 132.62 271.67 132.77C271.21 132.89 270.46 132.94 269.41 132.94H266.62V120.68H268.3C269.82 120.68 270.85 120.74 271.37 120.85C272.07 121 272.65 121.29 273.1 121.72C273.56 122.15 273.91 122.75 274.17 123.52C274.42 124.28 274.55 125.39 274.55 126.82C274.55 128.25 274.42 129.38 274.17 130.21H274.16Z" fill="white"/>
<path d="M285.31 127.91H294.61V124.78H285.31V120.68H295.3V117.55H281.57V136.06H295.66V132.94H285.31V127.91Z" fill="white"/>
<path d="M310.39 117.55L303.18 136.07H307.14L308.67 131.87H316.07L317.68 136.07H321.75L314.33 117.55H310.38H310.39ZM309.81 128.74L312.31 121.87L314.86 128.74H309.8H309.81Z" fill="white"/>
<path d="M336.01 129.44C335.49 128.88 334.82 128.36 334.01 127.89C335.64 127.66 336.86 127.08 337.67 126.18C338.49 125.28 338.89 124.13 338.89 122.74C338.89 121.65 338.63 120.67 338.08 119.82C337.54 118.97 336.83 118.38 335.93 118.04C335.03 117.71 333.59 117.54 331.61 117.54H323.74V136.06H327.48V128.33H328.24C329.1 128.33 329.73 128.4 330.12 128.54C330.51 128.68 330.89 128.94 331.24 129.31C331.6 129.69 332.25 130.59 333.21 132.03L335.91 136.06H340.38L338.12 132.45C337.23 131.01 336.52 130.01 335.99 129.44H336.01ZM330.26 125.38H327.49V120.68H330.4C331.92 120.68 332.83 120.7 333.13 120.74C333.73 120.84 334.21 121.08 334.54 121.47C334.87 121.85 335.04 122.36 335.04 122.98C335.04 123.54 334.91 124 334.66 124.37C334.41 124.74 334.06 125.01 333.61 125.15C333.17 125.3 332.05 125.38 330.26 125.38Z" fill="white"/>
<path d="M341.09 120.68H346.58V136.06H350.33V120.68H355.81V117.55H341.09V120.68Z" fill="white"/>
<path d="M361.96 127.91H371.25V124.78H361.96V120.68H371.95V117.55H358.22V136.06H372.3V132.94H361.96V127.91Z" fill="white"/>
<path d="M285.47 54.5199L282.5 69.8199H288.55L285.58 54.5199H285.47Z" fill="white"/>
<path d="M230.52 49.7299C229.77 48.6199 228.35 48.0699 226.25 48.0699H223.11V61.2299H226.55C227.61 61.2299 228.46 61.0799 229.09 60.7799C229.73 60.4799 230.22 60.0599 230.57 59.4999C230.89 58.9499 231.11 58.2699 231.22 57.4599C231.34 56.6499 231.4 55.7099 231.4 54.6499C231.4 53.5899 231.34 52.6399 231.22 51.8399C231.1 51.0299 230.86 50.3199 230.51 49.7399L230.52 49.7299Z" fill="white"/>
<path d="M309.29 48.0699H306.5V78.89H309.29C310.99 78.89 312.2 78.4699 312.91 77.6099C313.62 76.7599 313.98 75.4299 313.98 73.6099V53.2799C313.98 51.6199 313.64 50.3399 312.97 49.4299C312.3 48.5199 311.07 48.0699 309.3 48.0699H309.29Z" fill="white"/>
<path d="M206.27 50.14C205.96 49.47 205.48 48.9499 204.85 48.5999C204.22 48.2499 203.31 48.0699 202.12 48.0699H198.98V62.4099H201.89C203.11 62.4099 204.06 62.2399 204.74 61.8799C205.41 61.5199 205.9 61.0299 206.22 60.3999C206.54 59.8099 206.72 59.0799 206.78 58.2099C206.84 57.3499 206.87 56.3799 206.87 55.3099C206.87 54.3199 206.85 53.3799 206.81 52.4999C206.77 51.6099 206.59 50.8299 206.27 50.1599V50.14Z" fill="white"/>
<path d="M142.39 48.0699C141.28 48.0699 140.32 48.4099 139.51 49.0999C138.7 49.7899 138.29 50.8699 138.29 52.3299V74.6199C138.29 76.0799 138.69 77.1599 139.51 77.8499C140.32 78.5399 141.28 78.89 142.39 78.89C143.5 78.89 144.45 78.5399 145.26 77.8499C146.07 77.1599 146.47 76.0799 146.47 74.6199V52.3299C146.47 50.8699 146.07 49.7899 145.26 49.0999C144.45 48.4099 143.49 48.0699 142.39 48.0699Z" fill="white"/>
<path d="M389.76 34.4299H386.72V21.4599L389.1 18.2199H385.36V16.0799H384.23L384.18 15.7299C384.18 15.7299 385.65 15.05 385.68 13.39V13.3599V13.3499C385.68 13.2899 385.68 12.8999 385.45 12.3999C385.43 12.3499 385.4 12.3299 385.37 12.2799C385.13 11.7999 384.73 11.2799 383.92 10.9299C383.92 10.9299 384.05 10.6899 384.06 10.3499C384.06 10.3499 384.06 10.3499 384.06 10.3299C384.06 10.1999 384.01 10.0499 383.96 9.90994C383.94 9.84994 383.95 9.78995 383.92 9.72995C383.81 9.50995 383.63 9.28993 383.34 9.07993C383.34 9.07993 382.93 8.81995 382.38 8.81995C381.98 8.81995 381.5 8.95995 381.06 9.44995C381.06 9.44995 380.91 9.72995 380.82 10.0999C380.78 10.2199 380.72 10.2099 380.72 10.3699C380.72 10.5399 380.76 10.7399 380.85 10.9399C380.85 10.9399 379.2 11.6699 379.14 13.3599C379.14 13.3599 379.14 13.38 379.14 13.42C379.14 13.45 379.18 13.58 379.19 13.64C379.19 13.79 379.19 13.9099 379.33 14.2599C379.5 14.7399 379.83 15.2999 380.62 15.7699L380.59 16.0899H379.47V18.2599H352.21V16.0899H351.1L351.05 15.7599C351.05 15.7599 352.49 15.0599 352.54 13.4599V13.4399C352.54 13.3999 352.54 12.9899 352.32 12.4699C352.3 12.4299 352.28 12.4099 352.26 12.3599C352.03 11.8699 351.63 11.3199 350.81 10.9399C350.81 10.9399 350.92 10.72 350.94 10.39C350.94 10.36 350.95 10.3699 350.95 10.3399C350.95 10.0399 350.85 9.64993 350.47 9.26993C350.47 9.26993 350.01 8.81995 349.29 8.81995C348.96 8.81995 348.58 8.91995 348.17 9.19995C348.17 9.19995 348.01 9.33995 347.86 9.56995C347.8 9.64995 347.82 9.71993 347.77 9.82993C347.7 9.98993 347.6 10.1099 347.6 10.3299C347.6 10.5199 347.64 10.72 347.74 10.95C347.74 10.95 346.08 11.6799 346.01 13.2899C346.01 13.2899 346.01 13.3199 346.01 13.3699V13.39C346.01 13.51 346.03 13.8399 346.21 14.2999C346.24 14.3699 346.27 14.4099 346.31 14.4899C346.52 14.9299 346.84 15.3999 347.5 15.7799L347.47 16.1099H346.31V18.2599H280.05V16.1099H278.91L278.86 15.7799C278.86 15.7799 280.35 15.02 280.37 13.45C280.37 13.45 280.37 13.43 280.37 13.39V13.3699C280.37 13.2599 280.35 12.92 280.14 12.45C280.11 12.38 280.07 12.3499 280.03 12.2799C279.79 11.8299 279.41 11.3299 278.63 10.9599C278.63 10.9599 278.77 10.7099 278.77 10.3599C278.77 10.0099 278.63 9.54993 278.08 9.11993C278.08 9.11993 277.63 8.83994 277.06 8.83994C276.65 8.83994 276.17 8.97995 275.75 9.47995C275.75 9.47995 275.61 9.74993 275.53 10.1199C275.49 10.2399 275.44 10.2299 275.44 10.3799C275.44 10.5499 275.47 10.74 275.56 10.95C275.56 10.95 274.03 11.5399 273.83 13.2899C273.83 13.2899 273.83 13.35 273.83 13.45C273.83 13.45 273.83 13.4599 273.83 13.4699C273.83 13.6399 273.88 13.9399 274.03 14.3299C274.07 14.4199 274.11 14.4799 274.16 14.5699C274.37 14.9799 274.69 15.4099 275.32 15.7799L275.29 16.0999H274.17V18.2499H249.35V16.1799H248.22L248.17 15.8299C248.17 15.8299 248.55 15.6599 248.92 15.2799C249.01 15.1899 249.01 14.9799 249.09 14.8599C249.36 14.4999 249.66 14.1299 249.66 13.4999V13.42V13.3999C249.66 13.3699 249.66 12.9799 249.44 12.4699C249.42 12.4399 249.4 12.42 249.38 12.39C249.16 11.91 248.75 11.3799 247.93 11.0099C247.93 11.0099 248.05 10.7699 248.06 10.4299C248.06 10.4099 248.06 10.41 248.06 10.39C248.06 10.07 247.95 9.66993 247.54 9.29993C247.54 9.29993 246.31 8.23993 245.04 9.48993C245.04 9.48993 244.9 9.76993 244.81 10.1499C244.77 10.2799 244.72 10.26 244.72 10.42C244.72 10.6 244.75 10.7999 244.84 11.0099C244.84 11.0099 243.26 11.6899 243.11 13.3999V13.4599C243.11 13.4599 243.11 13.4699 243.11 13.4799C243.11 13.5799 243.13 13.9099 243.3 14.3599C243.32 14.4299 243.36 14.4599 243.39 14.5299C243.6 14.9699 243.92 15.4399 244.59 15.8299L244.57 16.1599H243.43V18.2499H241.67V11.5999L236.47 11.5799V10.0099C236.47 10.0099 237.48 9.67995 237.98 8.88995L240.27 7.46994L237.99 5.99994C237.99 5.99994 237.5 5.26994 236.71 4.93994L235.21 0.439941L233.72 4.94995C233.72 4.94995 232.9 5.26993 232.47 5.95993L230.17 7.46994L232.5 8.95993C232.5 8.95993 232.9 9.58995 233.97 10.0399V11.5899H210.29V10.0399C210.29 10.0399 211.3 9.74993 211.81 8.89993L214.06 7.47995L211.84 6.00995C211.84 6.00995 211.14 5.14995 210.52 4.94995L209.02 0.449951L207.53 4.97995C207.53 4.97995 206.77 5.24995 206.29 5.97995L203.98 7.46994L206.32 8.97995C206.32 8.97995 206.75 9.67993 207.75 10.0199V11.5999H182.74V10.0199C182.74 10.0199 183.52 9.88993 184.22 8.92993L186.51 7.46994L184.25 6.00995C184.25 6.00995 183.84 5.30993 182.95 4.95993L181.48 0.449951L179.96 4.95993C179.96 4.95993 179.07 5.41994 178.72 5.96994L176.42 7.47995L178.76 8.97995C178.76 8.97995 179.17 9.60994 180.22 10.0599V11.6099H156.45V10.0599C156.45 10.0599 157.43 9.76995 157.97 8.88995L160.27 7.47995L157.99 6.01993C157.99 6.01993 157.59 5.28993 156.69 4.95993L155.23 0.449951L153.71 4.94995C153.71 4.94995 152.74 5.43995 152.47 5.97995L150.14 7.44995L152.48 8.96994C152.48 8.96994 152.89 9.62994 153.92 10.0299V11.5999H148.96V18.2699H147.84V16.2H146.71L146.66 15.8499C146.66 15.8499 147.04 15.6799 147.41 15.2999C147.5 15.2099 147.5 14.9999 147.58 14.8799C147.85 14.5199 148.15 14.1499 148.15 13.5199C148.15 13.4899 148.15 13.4699 148.15 13.4399V13.42C148.15 13.42 148.15 12.9999 147.93 12.4899C147.92 12.4599 147.89 12.4399 147.88 12.4099C147.65 11.9299 147.25 11.3999 146.43 11.0299C146.43 11.0299 146.55 10.79 146.56 10.45C146.56 10.43 146.56 10.4299 146.56 10.4099C146.56 10.0899 146.45 9.68995 146.04 9.31995C146.04 9.31995 145.55 8.89993 144.87 8.89993C144.47 8.89993 144 9.04995 143.53 9.50995C143.53 9.50995 143.39 9.78995 143.3 10.17C143.26 10.3 143.21 10.2799 143.21 10.4399C143.21 10.6199 143.24 10.8199 143.33 11.0299C143.33 11.0299 141.75 11.71 141.6 13.42V13.4799C141.6 13.4799 141.6 13.4899 141.6 13.4999C141.6 13.5999 141.62 13.9299 141.79 14.3799C141.81 14.4499 141.85 14.4799 141.88 14.5499C142.08 14.9899 142.41 15.4599 143.08 15.8499L143.06 16.1799H141.92V18.2499H116.47V16.2199H115.33L115.3 15.8999C115.3 15.8999 115.68 15.7199 116.05 15.3299C116.14 15.2299 116.14 15.0099 116.23 14.8799C116.49 14.5099 116.79 14.1299 116.79 13.4899C116.79 13.4599 116.79 13.4399 116.79 13.4099V13.39C116.79 13.37 116.79 12.9899 116.57 12.5099C116.56 12.4799 116.53 12.4699 116.52 12.4299C116.29 11.9699 115.89 11.4399 115.05 11.0499C115.05 11.0499 115.18 10.7999 115.19 10.4699C115.19 10.4499 115.19 10.4599 115.19 10.4399C115.19 10.3099 115.14 10.1699 115.09 10.0299C115.07 9.95994 115.07 9.89993 115.04 9.82993C114.93 9.61993 114.74 9.39994 114.43 9.18994C114.43 9.18994 114.05 8.93994 113.52 8.93994C113.12 8.93994 112.64 9.07995 112.17 9.56995C112.17 9.56995 112.03 9.83993 111.95 10.2099C111.91 10.3299 111.86 10.3099 111.86 10.4699C111.86 10.6499 111.9 10.8499 111.98 11.0599C111.98 11.0599 110.32 11.7399 110.24 13.5299C110.24 13.5299 110.27 13.6599 110.27 13.6799C110.27 13.7799 110.27 13.9999 110.43 14.4099C110.61 14.8899 110.97 15.4499 111.76 15.8699L111.71 16.1899H110.57V18.2499H44.18V16.0499H43.07L43.04 15.7499C43.04 15.7499 43.36 15.5699 43.69 15.2399C43.73 15.1999 43.74 15.2099 43.78 15.1599C44.12 14.7999 44.4 14.2399 44.45 13.5199C44.45 13.4499 44.51 13.4399 44.51 13.3699C44.51 13.2999 44.51 13.24 44.51 13.17V13.1499C44.51 13.1499 44.51 12.7999 44.29 12.3499C44.28 12.3199 44.25 12.3099 44.24 12.2799C44.02 11.8499 43.61 11.3399 42.79 10.9299C42.79 10.9299 42.92 10.6999 42.93 10.3699C42.93 10.3499 42.93 10.3599 42.93 10.3399C42.93 10.0199 42.81 9.59994 42.34 9.18994C42.34 9.18994 41.86 8.79993 41.21 8.79993C40.79 8.79993 40.3 8.96993 39.84 9.51993C39.84 9.51993 39.72 9.77994 39.66 10.1299C39.63 10.2399 39.59 10.2299 39.59 10.3699C39.59 10.5499 39.63 10.75 39.73 10.95C39.73 10.95 37.99 11.6199 37.99 13.4399V13.4599C37.99 13.4599 38.02 13.5799 38.02 13.5999C38.02 13.7099 38.02 13.9099 38.18 14.3099C38.36 14.7899 38.71 15.3399 39.48 15.7499L39.45 16.0999H38.31V18.2699L11.23 18.2499V16.1099H10.1L10.07 15.7599C10.07 15.7599 11.49 15.1299 11.57 13.4999C11.57 13.4999 11.57 13.4699 11.57 13.4099V13.39C11.57 13.26 11.54 12.9199 11.34 12.4599C11.31 12.3799 11.26 12.3399 11.22 12.2699C10.98 11.8199 10.6 11.3499 9.84001 10.9699C9.84001 10.9699 9.97002 10.7199 9.97002 10.3699C9.97002 10.0099 9.84001 9.53994 9.28001 9.12994C9.28001 9.12994 8.86002 8.83994 8.29002 8.83994C7.85002 8.83994 7.32001 9.00993 6.82001 9.61993C6.82001 9.61993 6.72001 9.85993 6.67001 10.1799C6.65001 10.2799 6.61002 10.2699 6.61002 10.3999C6.61002 10.5699 6.64002 10.7599 6.73002 10.9399C6.73002 10.9399 5.11002 11.6399 5.00002 13.3799C5.00002 13.3799 5.02001 13.4799 5.03001 13.4999C5.03001 13.5799 5.03001 13.8199 5.20001 14.2299C5.38001 14.7099 5.75001 15.2799 6.53001 15.7499L6.48002 16.0899H5.33002V18.2599H0.920013L3.63001 21.42V34.5899H0.0800171L2.78001 39.7799H1.62002V42.1199L3.12002 43.0399V107.31H387.17V43.1799L388.76 42.17V39.8499H387.41L389.73 34.4899L389.76 34.4299ZM37.36 48.0699H25.39V60.45H35.82V66.14H25.39V78.5299H37.36V84.5699H19.34V42.3699H37.36V48.0599V48.0699ZM53.13 84.5799H47.8L39.2 42.3799H45.6L50.4 71.8399H50.52L55.38 42.3799H61.78L53.13 84.5799ZM83.42 48.0699H71.44V60.45H81.87V66.14H71.44V78.5299H83.42V84.5699H65.4V42.3699H83.42V48.0599V48.0699ZM108.18 84.5799H102.49L93.24 59.2199H93.12V84.5799H87.08V42.3799H92.89L102.02 67.8099H102.14V42.3799H108.18V84.5799ZM130.65 48.0699H123.65V84.5799H117.61V48.0699H110.61V42.3799H130.65V48.0699ZM152.52 74.6199C152.52 76.3999 152.23 77.9199 151.63 79.1799C151.04 80.4399 150.27 81.4899 149.32 82.3199C148.33 83.1899 147.23 83.8399 146.03 84.2799C144.83 84.7199 143.61 84.9299 142.39 84.9299C141.17 84.9299 139.95 84.7099 138.74 84.2799C137.53 83.8399 136.45 83.1899 135.51 82.3199C134.52 81.4899 133.73 80.4399 133.14 79.1799C132.55 77.9099 132.25 76.3899 132.25 74.6199V52.3299C132.25 50.6299 132.55 49.1299 133.14 47.8199C133.73 46.5199 134.52 45.4299 135.51 44.5599C136.45 43.7299 137.53 43.0999 138.74 42.6599C139.94 42.2199 141.16 42.0099 142.39 42.0099C143.62 42.0099 144.83 42.2299 146.03 42.6599C147.23 43.0899 148.33 43.7199 149.32 44.5599C150.27 45.4299 151.04 46.5199 151.63 47.8199C152.23 49.1199 152.52 50.6199 152.52 52.3299V74.6199ZM159.63 82.0299C158.72 81.1199 158 80.0599 157.47 78.8599C156.93 77.6599 156.67 76.34 156.67 74.92V72.67H162.72V74.5599C162.72 75.6699 163.04 76.6599 163.69 77.5499C164.34 78.4399 165.44 78.89 166.98 78.89C168 78.89 168.81 78.7399 169.38 78.4399C169.95 78.1399 170.4 77.7199 170.72 77.1599C171.04 76.6099 171.22 75.9499 171.28 75.1799C171.34 74.4099 171.37 73.5499 171.37 72.5999C171.37 71.4999 171.33 70.5899 171.25 69.8799C171.17 69.1699 171.01 68.5999 170.77 68.1599C170.49 67.7299 170.13 67.3699 169.67 67.0899C169.22 66.8099 168.61 66.52 167.86 66.2L163.54 64.42C160.93 63.35 159.18 61.9399 158.3 60.1799C157.41 58.4199 156.96 56.2199 156.96 53.5699C156.96 51.9899 157.18 50.4899 157.61 49.0699C158.05 47.6399 158.7 46.42 159.56 45.39C160.39 44.37 161.45 43.5499 162.73 42.9299C164.01 42.3199 165.54 42.0099 167.32 42.0099C168.82 42.0099 170.19 42.2899 171.44 42.8399C172.69 43.3899 173.76 44.1199 174.67 45.0299C176.49 46.9299 177.4 49.0999 177.4 51.5499V54.5099H171.36V53.1499C171.36 51.7699 171.03 50.5699 170.38 49.5699C169.73 48.5599 168.64 48.0599 167.09 48.0599C166.26 48.0599 165.59 48.2099 165.08 48.5299C164.57 48.8499 164.15 49.2399 163.84 49.7199C163.52 50.2299 163.3 50.8099 163.19 51.4599C163.07 52.1099 163.01 52.7999 163.01 53.5099C163.01 54.3399 163.04 55.0299 163.1 55.5899C163.16 56.1399 163.31 56.6299 163.55 57.0699C163.79 57.5099 164.13 57.8799 164.59 58.1899C165.04 58.5099 165.66 58.83 166.46 59.14L171.08 60.9799C172.42 61.4899 173.51 62.0999 174.34 62.7899C175.17 63.4799 175.82 64.2799 176.3 65.1899C176.73 66.1399 177.03 67.22 177.19 68.42C177.34 69.63 177.42 70.9999 177.42 72.5399C177.42 74.3199 177.24 75.9699 176.89 77.4899C176.53 79.0099 175.96 80.2999 175.17 81.3699C174.34 82.4799 173.25 83.3499 171.91 83.9799C170.56 84.6099 168.93 84.9299 166.99 84.9299C165.53 84.9299 164.16 84.6799 162.9 84.1599C161.63 83.6499 160.55 82.9399 159.64 82.0199L159.63 82.0299ZM212.23 60.0399C212.01 61.3399 211.55 62.5699 210.84 63.7099C210.01 65.0899 208.91 66.1699 207.52 66.9399C206.14 67.7099 204.32 68.0999 202.07 68.0999H198.98V84.5799H192.94V42.3799H202C203.66 42.3799 205.12 42.5999 206.39 43.0299C207.65 43.4699 208.8 44.2399 209.82 45.3399C210.85 46.4499 211.56 47.7399 211.96 49.2299C212.35 50.7099 212.56 52.7099 212.56 55.2399C212.56 57.1399 212.45 58.7399 212.23 60.0399ZM232.35 84.5799L226.72 66.5599H223.11V84.5799H217.07V42.3799H226.79C233.9 42.3799 237.46 46.5099 237.46 54.7699C237.46 57.2599 237.07 59.3699 236.3 61.1099C235.53 62.8499 234.17 64.2499 232.24 65.3199L238.76 84.5799H232.36H232.35ZM248.54 84.5799H242.49V42.3799H248.54V84.5799ZM260.93 84.5799L252.33 42.3799H258.73L263.53 71.8399H263.65L268.51 42.3799H274.91L266.26 84.5799H260.93ZM291.45 84.5799L289.67 75.5099H281.43L279.66 84.5799H273.61L283.04 42.3799H288.08L297.5 84.5799H291.46H291.45ZM320.02 73.0199C320.02 76.9699 319.06 79.8899 317.15 81.7599C315.23 83.6399 312.48 84.5699 308.88 84.5699H300.47V42.3699H309.42C312.9 42.3699 315.53 43.3199 317.33 45.2199C319.13 47.1199 320.02 49.8099 320.02 53.2799V73.0199ZM345.62 74.6199C345.62 76.3999 345.33 77.9199 344.73 79.1799C344.14 80.4399 343.37 81.4899 342.42 82.3199C341.43 83.1899 340.33 83.8399 339.13 84.2799C337.93 84.7199 336.71 84.9299 335.49 84.9299C334.27 84.9299 333.05 84.7099 331.84 84.2799C330.63 83.8399 329.56 83.1899 328.61 82.3199C327.62 81.4899 326.83 80.4399 326.24 79.1799C325.65 77.9099 325.35 76.3899 325.35 74.6199V52.3299C325.35 50.6299 325.65 49.1299 326.24 47.8199C326.83 46.5199 327.62 45.4299 328.61 44.5599C329.55 43.7299 330.63 43.0999 331.84 42.6599C333.04 42.2199 334.26 42.0099 335.49 42.0099C336.72 42.0099 337.93 42.2299 339.13 42.6599C340.33 43.0899 341.43 43.7199 342.42 44.5599C343.37 45.4299 344.14 46.5199 344.73 47.8199C345.33 49.1199 345.62 50.6199 345.62 52.3299V74.6199ZM370.51 54.5199H364.47V53.1599C364.47 51.7799 364.14 50.5799 363.49 49.5799C362.84 48.5699 361.74 48.0699 360.2 48.0699C359.37 48.0699 358.7 48.2199 358.19 48.5399C357.68 48.8599 357.26 49.2499 356.94 49.7299C356.62 50.2399 356.41 50.8199 356.29 51.4699C356.17 52.1199 356.11 52.8099 356.11 53.5199C356.11 54.3499 356.14 55.0399 356.2 55.5999C356.26 56.1499 356.41 56.6399 356.65 57.0799C356.89 57.5199 357.23 57.89 357.69 58.2C358.14 58.52 358.77 58.8399 359.56 59.1499L364.18 60.9899C365.52 61.4999 366.61 62.1099 367.44 62.7999C368.27 63.4899 368.93 64.29 369.4 65.2C369.84 66.15 370.13 67.2299 370.29 68.4299C370.44 69.6399 370.52 71.0099 370.52 72.5499C370.52 74.3299 370.34 75.9799 369.99 77.4999C369.64 79.0199 369.06 80.3099 368.27 81.3799C367.44 82.4899 366.35 83.3599 365.01 83.9899C363.66 84.6199 362.03 84.9399 360.09 84.9399C358.63 84.9399 357.27 84.69 356 84.17C354.73 83.66 353.65 82.9499 352.74 82.0299C351.83 81.1199 351.11 80.0599 350.58 78.8599C350.04 77.6599 349.78 76.34 349.78 74.92V72.67H355.83V74.5599C355.83 75.6699 356.15 76.6599 356.81 77.5499C357.46 78.4399 358.56 78.89 360.1 78.89C361.12 78.89 361.92 78.7399 362.49 78.4399C363.06 78.1399 363.51 77.7199 363.83 77.1599C364.15 76.6099 364.33 75.9499 364.39 75.1799C364.45 74.4099 364.48 73.5499 364.48 72.5999C364.48 71.4999 364.44 70.5899 364.36 69.8799C364.28 69.1699 364.12 68.5999 363.88 68.1599C363.6 67.7299 363.24 67.3699 362.78 67.0899C362.33 66.8099 361.73 66.52 360.97 66.2L356.65 64.42C354.04 63.35 352.29 61.9399 351.41 60.1799C350.52 58.4199 350.07 56.2199 350.07 53.5699C350.07 51.9899 350.29 50.4899 350.72 49.0699C351.15 47.6399 351.81 46.42 352.67 45.39C353.5 44.37 354.56 43.5499 355.84 42.9299C357.12 42.3199 358.66 42.0099 360.44 42.0099C361.94 42.0099 363.31 42.2899 364.56 42.8399C365.81 43.3899 366.88 44.1199 367.79 45.0299C369.61 46.9299 370.52 49.0999 370.52 51.5499V54.5099L370.51 54.5199Z" fill="white"/>
<path d="M335.49 48.0699C334.38 48.0699 333.42 48.4099 332.61 49.0999C331.8 49.7899 331.4 50.8699 331.4 52.3299V74.6199C331.4 76.0799 331.8 77.1599 332.61 77.8499C333.42 78.5399 334.38 78.89 335.49 78.89C336.6 78.89 337.55 78.5399 338.36 77.8499C339.17 77.1599 339.57 76.0799 339.57 74.6199V52.3299C339.57 50.8699 339.17 49.7899 338.36 49.0999C337.55 48.4099 336.59 48.0699 335.49 48.0699Z" fill="white"/>
</svg>
