<svg xmlns="http://www.w3.org/2000/svg" width="140" height="139" viewBox="0 0 140 139" fill="none"><path d="M124.75 91.64C123.87 92.53 123.85 94.16 124.7 95.06C125.55 95.96 127.11 95.94 128.04 95.02C129.22 94.11 129.06 92.66 128.12 91.64C127.23 90.66 125.68 90.7 124.75 91.64Z" fill="#CCBBA0"></path><path d="M128.13 47.9499C129.13 46.9699 129.16 45.39 128.1 44.67C127.12 43.68 125.65 43.62 124.73 44.53C123.88 45.36 123.91 47.15 124.78 48.02C125.74 48.96 127.12 48.9499 128.13 47.9499Z" fill="#CCBBA0"></path><path d="M52.53 91.9699C48.63 87.7199 44.85 83.5999 40.99 79.3999C40.42 80.0699 39.94 80.6299 39.47 81.1899C38.7 82.0899 37.8 83.1099 37.15 83.7499C35.1 85.7699 29.14 91.7299 26.74 94.5299L26.87 94.6499C31.2 90.7199 35.2 87.0799 39.18 83.4799C41.38 85.9399 41.31 86.3499 39.52 88.5499C38.56 89.7299 37.95 91.2099 37.19 92.5599C37.3 92.7099 37.4 92.8599 37.51 92.9999C39.64 90.5799 41.69 91.3899 43.88 92.7199C45.63 93.7799 47.5 94.6599 49.4 95.4399C50.09 95.7199 51.19 95.7799 51.77 95.4199C53.47 94.3599 54.94 94.4599 56.58 95.5199C57.78 96.2899 59.12 96.8199 60.41 97.4499C62.5 98.4799 64.59 99.4999 66.68 100.52C66.75 100.41 66.82 100.29 66.89 100.18C62.8 96.8699 58.72 93.5599 54.58 90.2199C53.86 90.8599 53.23 91.3999 52.56 91.9899L52.53 91.9699Z" fill="#CCBBA0"></path><path d="M47.89 14.7199C48.78 13.5899 48.9 12.4799 47.81 11.3699C46.9 10.4499 45.49 10.3499 44.42 11.4499C43.49 12.4099 43.75 14.0499 44.53 14.8099C45.39 15.6599 47.03 15.5999 47.89 14.7199Z" fill="#CCBBA0"></path><path d="M94.93 14.74C95.89 13.87 95.8 12.3799 94.85 11.4299C93.84 10.4099 92.63 10.36 91.65 11.3C90.57 12.33 90.49 13.72 91.47 14.71C92.43 15.68 93.94 15.64 94.92 14.74H94.93Z" fill="#CCBBA0"></path><path d="M14.58 48.0299C15.5 47.1299 15.52 45.4299 14.62 44.5399C13.72 43.6499 12.26 43.6899 11.31 44.6399C10.19 45.4199 10.29 47.0099 11.21 47.9299C12.23 48.9399 13.62 48.9699 14.57 48.0299H14.58Z" fill="#CCBBA0"></path><path d="M91.53 124.86C90.56 125.79 90.54 127.21 91.53 128.22C92.49 129.22 94.04 129.29 94.82 128.24C95.79 127.29 95.85 125.64 94.96 124.82C94.07 124 92.41 124.02 91.54 124.86H91.53Z" fill="#CCBBA0"></path><path d="M11.35 91.5701C10.32 92.5701 10.19 94.1801 11.23 94.9101C12.23 95.9201 13.62 96.0002 14.61 95.1102C15.5 94.3002 15.51 92.5301 14.62 91.6401C13.71 90.7201 12.27 90.6701 11.34 91.5701H11.35Z" fill="#CCBBA0"></path><path d="M44.41 124.84C43.54 125.73 43.58 127.28 44.5 128.19C45.41 129.35 46.96 129.12 47.79 128.26C48.79 127.22 48.84 125.86 47.9 124.9C47.03 124.01 45.25 123.98 44.41 124.83V124.84Z" fill="#CCBBA0"></path><path d="M59.72 58.16C58.12 58.16 56.93 57.23 55.11 54.86L47.9 45.49L53.7 38.49C55.49 36.33 57.16 35.3 58.57 35.3V34.71H49.54V35.33C54.04 35.33 54.04 36.84 52.51 38.66L47.38 44.84L41.99 37.84C40.91 36.47 41.95 35.3 44.56 35.33V34.71H35.27V35.3C37.24 35.3 38.5 36.7399 39.92 38.5599L45.98 46.42L39.25 54.97C37.54 57.13 36.05 58.16 34.64 58.16V58.74H43.82V58.1199C39.81 58.1199 38.91 56.6399 40.4 54.7499L46.49 47.0599L53.14 55.71C54.48 57.43 53.59 58.1199 49.8 58.1199V58.74H59.72V58.16Z" fill="#CCBBA0"></path><path d="M85.6 50.7402C85.94 51.0102 86.24 51.5001 85.7 52.3201C84.98 53.4001 84.26 54.4901 83.55 55.5701L87.76 52.7202L88.04 53.4301C88.17 53.7601 88.18 54.0602 88.07 54.3502C87.76 55.2002 87.82 56.1101 87.88 57.0701C87.91 57.5901 87.9 58.1102 87.85 58.6002C87.99 58.3102 88.12 57.9901 88.24 57.6201C88.55 56.6801 88.98 55.7802 89.35 55.0302C89.55 54.6302 90.1 54.3801 90.53 54.3801C90.59 54.3801 90.64 54.3801 90.69 54.3901C91.19 54.4701 91.53 55.0501 91.62 55.4301C91.82 56.3501 92 57.2801 92.18 58.1801C92.25 58.5401 92.32 58.9001 92.39 59.2501L93.44 53.8201L94.25 54.5302C94.25 54.5302 94.32 54.5902 94.34 54.6102C94.43 54.6802 94.56 54.7801 94.64 54.9601C95 55.7901 95.59 56.4902 96.56 57.2302C96.83 57.4402 97.2 57.7202 97.45 58.1102C97.5 58.2002 97.56 58.2801 97.61 58.3701C97.47 57.9801 97.27 57.6001 97.06 57.2001C96.98 57.0401 96.9 56.8902 96.82 56.7302C96.53 56.1502 96.34 55.5401 96.16 54.9401L96.09 54.7101C95.98 54.3601 96.01 54.0202 96.17 53.7402C96.31 53.4902 96.56 53.3102 96.86 53.2402C97.15 53.1702 97.62 53.1701 97.98 53.4001C99.08 54.1201 100.18 54.8401 101.27 55.5701L98.37 51.2601L99.14 51.0101C99.52 50.8901 99.76 50.9302 99.95 50.9902C100.65 51.2102 101.4 51.3901 102.19 51.2501C102.87 51.1301 103.5 51.0901 104.08 51.1501C103.83 51.0401 103.55 50.9401 103.26 50.8401C102.4 50.5501 101.58 50.1701 100.78 49.8101C100.21 49.5501 99.95 49.0402 100.05 48.4102C100.18 47.6102 100.83 47.5102 101.08 47.4702C101.11 47.4702 101.14 47.4701 101.16 47.4601C102.15 47.2501 103.14 47.0602 104.13 46.8602C104.41 46.8102 104.68 46.7501 104.96 46.7001L100.41 45.8101L99.83 44.7601L100.78 44.3701C101.56 44.0501 102.15 43.4802 102.79 42.7202C103.07 42.3902 103.37 42.0802 103.68 41.7902C103.53 41.8502 103.38 41.9101 103.23 41.9601C102.97 42.0601 102.7 42.1701 102.44 42.2701C102.24 42.3501 102.04 42.4201 101.83 42.5001C101.41 42.6601 100.98 42.8302 100.54 42.9702C99.92 43.1802 99.37 43.0002 99.03 42.4802C98.61 41.8402 98.96 41.3101 99.12 41.0601C99.84 39.9701 100.55 38.8901 101.26 37.8201L96.24 41.2202L96.58 39.7101C96.61 39.5901 96.63 39.5002 96.65 39.4202C96.67 39.3202 96.69 39.2501 96.7 39.1901C96.73 38.9501 96.77 38.7001 96.81 38.4601C96.9 37.9501 96.98 37.4601 96.93 37.0201C96.86 36.3801 96.83 35.6401 96.93 34.8701C96.8 35.1401 96.69 35.4401 96.58 35.7701C96.33 36.5501 95.99 37.2901 95.66 38.0101L95.53 38.3002C95.36 38.6802 95.09 38.9402 94.77 39.0402C94.49 39.1302 94.2 39.0802 93.93 38.9202C93.57 38.7002 93.28 38.3002 93.19 37.9102C92.92 36.6502 92.67 35.3901 92.43 34.1401L91.35 39.7202L90.53 38.8101C90.48 38.7601 90.44 38.7201 90.4 38.6801C90.3 38.5801 90.19 38.4801 90.12 38.3101C89.81 37.5801 89.28 36.9501 88.47 36.3201C88.11 36.0501 87.62 35.6701 87.3 35.1801C87.28 35.1501 87.27 35.1302 87.25 35.1002C87.35 35.3702 87.47 35.6401 87.6 35.9001C88.05 36.8201 88.41 37.7401 88.71 38.5201C88.94 39.1201 88.76 39.7002 88.23 40.0502C87.58 40.4802 87.07 40.1302 86.82 39.9702L86.78 39.9401C85.71 39.2301 84.64 38.5102 83.57 37.8002L86.72 42.4702H85.56C85.49 42.4702 85.43 42.4702 85.39 42.4702C85.27 42.4702 85.12 42.4802 84.96 42.4102C84.26 42.1202 83.48 42.0301 82.44 42.1201H82.39C81.81 42.1701 81.21 42.2201 80.61 42.1501C80.99 42.3301 81.42 42.4801 81.9 42.6201C82.55 42.8201 83.16 43.1202 83.75 43.4102L84.07 43.5701C84.87 43.9601 84.85 44.6202 84.78 44.9802C84.62 45.7402 84.01 45.8401 83.75 45.8901L83.67 45.9102C82.79 46.0902 81.91 46.2701 81.04 46.4401C80.65 46.5201 80.27 46.5902 79.88 46.6702L85.71 47.8101L84.57 48.6401C84.48 48.7101 84.42 48.7602 84.37 48.7902C84.27 48.8702 84.18 48.9302 84.07 48.9902C83.29 49.3402 82.65 49.8602 82.17 50.5402C81.89 50.9502 81.57 51.3101 81.22 51.6201C81.31 51.5801 81.4 51.5401 81.5 51.5001C81.78 51.3801 82.05 51.2601 82.33 51.1501L82.54 51.0701C83.15 50.8301 83.77 50.5801 84.42 50.4001C84.86 50.2701 85.35 50.4902 85.64 50.7202L85.6 50.7402Z" fill="#CCBBA0"></path><path d="M71.8 66.5201L69.98 63.3601L68.16 66.5201H64.52L66.34 69.6701L64.52 72.8201H68.16L69.98 75.9701L71.8 72.8201H75.44L73.62 69.6701L75.44 66.5201H71.8Z" fill="#CCBBA0"></path><path d="M82.3 68.6C82.27 68.28 82.23 67.97 82.18 67.65C81.32 62.44 77.21 58.32 72 57.46C71.68 57.41 71.36 57.37 71.04 57.34C71 57.34 70.97 57.34 70.93 57.34C70.29 57.29 69.66 57.29 69.02 57.34C68.98 57.34 68.95 57.34 68.91 57.34C68.59 57.37 68.27 57.41 67.95 57.46C62.74 58.32 58.62 62.44 57.77 67.65C57.72 67.97 57.68 68.28 57.65 68.6C57.65 68.64 57.65 68.68 57.65 68.72C57.63 69.04 57.61 69.35 57.61 69.66C57.61 69.97 57.63 70.29 57.65 70.6C57.65 70.64 57.65 70.68 57.65 70.72C57.68 71.04 57.72 71.35 57.77 71.67C58.63 76.88 62.75 81 67.95 81.86C68.27 81.91 68.59 81.95 68.91 81.98C68.94 81.98 68.98 81.98 69.02 81.98C69.66 82.03 70.29 82.03 70.93 81.98C70.97 81.98 71 81.98 71.04 81.98C71.36 81.95 71.68 81.91 72 81.86C77.2 81 81.32 76.88 82.18 71.67C82.23 71.35 82.27 71.04 82.3 70.72C82.3 70.68 82.3 70.64 82.3 70.6C82.32 70.28 82.34 69.97 82.34 69.66C82.34 69.35 82.33 69.03 82.3 68.72C82.3 68.68 82.3 68.64 82.3 68.6ZM69.98 79.93C64.31 79.93 59.71 75.33 59.71 69.66C59.71 63.99 64.31 59.39 69.98 59.39C75.65 59.39 80.25 63.99 80.25 69.66C80.25 75.33 75.65 79.93 69.98 79.93Z" fill="#CCBBA0"></path><path d="M88.41 88.9601C89.02 89.2401 89.53 89.5501 89.95 89.8501C90.21 88.7801 91.17 87.9901 92.32 87.9901C93.47 87.9901 94.49 88.8301 94.71 89.9601C95.15 89.6201 95.71 89.2701 96.39 88.9601C97.91 88.2601 100.56 86.2901 101.47 82.8201H83.33C84.24 86.2901 86.89 88.2601 88.41 88.9601Z" fill="#CCBBA0"></path><path d="M96.7 103.52C94.55 103.12 93.36 100.92 93.28 96.8701C93.25 95.4701 93.24 94.1901 93.25 93.1201C93.02 93.3701 92.69 93.5302 92.32 93.5302C92.03 93.5302 91.77 93.4301 91.56 93.2701C91.56 94.3101 91.56 95.5301 91.53 96.8701C91.45 100.93 90.26 103.13 88.11 103.52C85.68 103.97 84.49 105.74 84.49 105.74H91.71C91.23 105.51 90.9 105.02 90.9 104.45C90.9 103.66 91.54 103.02 92.33 103.02C93.12 103.02 93.76 103.66 93.76 104.45C93.76 105.02 93.43 105.51 92.95 105.74H100.34C100.34 105.74 99.15 103.97 96.72 103.52H96.7Z" fill="#CCBBA0"></path><path d="M90.65 80.29H83.01C83.01 80.85 83.06 81.39 83.14 81.89H101.67C101.75 81.38 101.8 80.85 101.8 80.29H90.66H90.65Z" fill="#CCBBA0"></path><path d="M94.14 90.84C94.14 89.83 93.32 89.01 92.31 89.01C91.3 89.01 90.48 89.83 90.48 90.84C90.48 91.85 91.3 92.67 92.31 92.67C93.32 92.67 94.14 91.85 94.14 90.84Z" fill="#CCBBA0"></path><path d="M70.03 0C31.86 0 0.800018 31.06 0.800018 69.23C0.800018 107.4 31.86 138.46 70.03 138.46C108.2 138.46 139.26 107.4 139.26 69.23C139.26 31.06 108.2 0 70.03 0ZM70.03 136.41C32.99 136.41 2.85001 106.27 2.85001 69.23C2.85001 32.19 32.99 2.05005 70.03 2.05005C107.07 2.05005 137.21 32.19 137.21 69.23C137.21 106.27 107.07 136.41 70.03 136.41Z" fill="#CCBBA0"></path><path d="M124.29 74.4001L130.59 69.6301L124.27 64.8401L124.24 64.5701C121.78 38.4901 101.06 17.8001 74.98 15.3601L74.71 15.3401L69.96 9.06006L65.22 15.3201L64.95 15.3401C52.24 16.4701 40.25 22.0801 31.2 31.1301C22.15 40.1901 16.54 52.1701 15.41 64.8801L15.39 65.1501L9.39001 69.6901L15.37 74.2201L15.39 74.4901C16.49 87.2801 22.11 99.3301 31.22 108.43C40.33 117.53 52.4 123.14 65.19 124.21L65.46 124.23L70.02 130.25L74.6 124.2L74.87 124.18C101.16 121.78 121.93 100.95 124.27 74.6601L124.29 74.3901V74.4001ZM70.03 11.6401C70.03 11.6401 72.14 15.5301 73.09 16.4901C72.04 17.5401 71.01 18.7601 70.03 19.7401C68.99 18.7001 67.96 17.4701 66.97 16.4901C67.93 15.5301 70.03 11.6401 70.03 11.6401ZM11.84 69.7301C11.84 69.7301 15.73 67.6201 16.69 66.6701C17.74 67.7201 18.96 68.7501 19.94 69.7301C18.9 70.7701 17.67 71.8001 16.69 72.7901C15.73 71.8301 11.84 69.7301 11.84 69.7301ZM70.04 128.07C70.04 128.07 67.93 124.18 66.98 123.22C68.03 122.17 69.06 120.95 70.04 119.97C71.08 121.01 72.11 122.24 73.1 123.22C72.14 124.18 70.04 128.07 70.04 128.07ZM121.63 74.3301C119.46 99.3401 99.75 119.2 74.75 121.55L74.41 121.58L71.51 117.75V83.1901C71.51 83.1901 71.5 83.1901 71.49 83.1901C71.26 83.2101 71.04 83.2301 70.81 83.2501C70.79 83.2501 70.76 83.2501 70.74 83.2501C70.49 83.2601 70.24 83.2701 69.99 83.2701C69.74 83.2701 69.49 83.2701 69.24 83.2501C69.22 83.2501 69.21 83.2501 69.19 83.2501C68.95 83.2401 68.71 83.2201 68.48 83.1901C68.48 83.1901 68.48 83.1901 68.47 83.1901V117.66L65.48 121.6L65.14 121.57C40.1 119.33 20.3 99.5301 18.05 74.4901L18.02 74.1501L21.91 71.2001H56.47C56.47 71.2001 56.47 71.1901 56.47 71.1801C56.45 70.9501 56.43 70.7201 56.41 70.4901C56.41 70.4701 56.41 70.4401 56.41 70.4201C56.4 70.1701 56.39 69.9201 56.39 69.6701C56.39 69.4201 56.39 69.1701 56.41 68.9201C56.41 68.9001 56.41 68.8701 56.41 68.8501C56.42 68.6201 56.44 68.3901 56.47 68.1701C56.47 68.1701 56.47 68.1601 56.47 68.1501H22L18.04 65.1501L18.07 64.8101C20.44 39.8101 40.33 20.1101 65.36 17.9801L65.7 17.9501L68.47 21.6001V56.1601C68.47 56.1601 68.47 56.1601 68.48 56.1601C68.72 56.1301 68.95 56.1101 69.19 56.1001C69.21 56.1001 69.22 56.1001 69.24 56.1001C69.49 56.0901 69.74 56.0801 69.99 56.0801C70.24 56.0801 70.49 56.0801 70.74 56.1001C70.76 56.1001 70.79 56.1001 70.81 56.1001C71.04 56.1101 71.27 56.1301 71.49 56.1601C71.49 56.1601 71.5 56.1601 71.51 56.1601V21.6901L74.32 17.9801L74.66 18.0101C99.63 20.3101 119.38 40.1101 121.62 65.0901L121.65 65.4301L118.06 68.1501H83.5C83.5 68.1501 83.5 68.1601 83.5 68.1701C83.52 68.4001 83.54 68.6201 83.56 68.8501C83.56 68.8801 83.56 68.9001 83.56 68.9201C83.57 69.1701 83.58 69.4201 83.58 69.6701C83.58 69.9201 83.58 70.1701 83.56 70.4201C83.56 70.4401 83.56 70.4701 83.56 70.4901C83.55 70.7201 83.53 70.9501 83.5 71.1801C83.5 71.1801 83.5 71.1901 83.5 71.2001H117.97L121.66 74.0001L121.63 74.3401V74.3301ZM119.79 69.7301C120.78 68.7401 121.99 67.7201 123.04 66.6701C124 67.6301 127.89 69.7301 127.89 69.7301C127.89 69.7301 124.01 71.8201 123.04 72.7901C122.06 71.8101 120.82 70.7701 119.79 69.7301Z" fill="#CCBBA0"></path><path d="M124.75 91.64C123.87 92.53 123.85 94.16 124.7 95.06C125.55 95.96 127.11 95.94 128.04 95.02C129.22 94.11 129.06 92.66 128.12 91.64C127.23 90.66 125.68 90.7 124.75 91.64Z" fill="#CCBBA0"></path><path d="M128.13 47.9499C129.13 46.9699 129.16 45.39 128.1 44.67C127.12 43.68 125.65 43.62 124.73 44.53C123.88 45.36 123.91 47.15 124.78 48.02C125.74 48.96 127.12 48.9499 128.13 47.9499Z" fill="#CCBBA0"></path><path d="M52.53 91.9699C48.63 87.7199 44.85 83.5999 40.99 79.3999C40.42 80.0699 39.94 80.6299 39.47 81.1899C38.7 82.0899 37.8 83.1099 37.15 83.7499C35.1 85.7699 29.14 91.7299 26.74 94.5299L26.87 94.6499C31.2 90.7199 35.2 87.0799 39.18 83.4799C41.38 85.9399 41.31 86.3499 39.52 88.5499C38.56 89.7299 37.95 91.2099 37.19 92.5599C37.3 92.7099 37.4 92.8599 37.51 92.9999C39.64 90.5799 41.69 91.3899 43.88 92.7199C45.63 93.7799 47.5 94.6599 49.4 95.4399C50.09 95.7199 51.19 95.7799 51.77 95.4199C53.47 94.3599 54.94 94.4599 56.58 95.5199C57.78 96.2899 59.12 96.8199 60.41 97.4499C62.5 98.4799 64.59 99.4999 66.68 100.52C66.75 100.41 66.82 100.29 66.89 100.18C62.8 96.8699 58.72 93.5599 54.58 90.2199C53.86 90.8599 53.23 91.3999 52.56 91.9899L52.53 91.9699Z" fill="#CCBBA0"></path><path d="M47.89 14.7199C48.78 13.5899 48.9 12.4799 47.81 11.3699C46.9 10.4499 45.49 10.3499 44.42 11.4499C43.49 12.4099 43.75 14.0499 44.53 14.8099C45.39 15.6599 47.03 15.5999 47.89 14.7199Z" fill="#CCBBA0"></path><path d="M94.93 14.74C95.89 13.87 95.8 12.3799 94.85 11.4299C93.84 10.4099 92.63 10.36 91.65 11.3C90.57 12.33 90.49 13.72 91.47 14.71C92.43 15.68 93.94 15.64 94.92 14.74H94.93Z" fill="#CCBBA0"></path><path d="M14.58 48.0299C15.5 47.1299 15.52 45.4299 14.62 44.5399C13.72 43.6499 12.26 43.6899 11.31 44.6399C10.19 45.4199 10.29 47.0099 11.21 47.9299C12.23 48.9399 13.62 48.9699 14.57 48.0299H14.58Z" fill="#CCBBA0"></path><path d="M91.53 124.86C90.56 125.79 90.54 127.21 91.53 128.22C92.49 129.22 94.04 129.29 94.82 128.24C95.79 127.29 95.85 125.64 94.96 124.82C94.07 124 92.41 124.02 91.54 124.86H91.53Z" fill="#CCBBA0"></path><path d="M11.35 91.5701C10.32 92.5701 10.19 94.1801 11.23 94.9101C12.23 95.9201 13.62 96.0002 14.61 95.1102C15.5 94.3002 15.51 92.5301 14.62 91.6401C13.71 90.7201 12.27 90.6701 11.34 91.5701H11.35Z" fill="#CCBBA0"></path><path d="M44.41 124.84C43.54 125.73 43.58 127.28 44.5 128.19C45.41 129.35 46.96 129.12 47.79 128.26C48.79 127.22 48.84 125.86 47.9 124.9C47.03 124.01 45.25 123.98 44.41 124.83V124.84Z" fill="#CCBBA0"></path><path d="M59.72 58.16C58.12 58.16 56.93 57.23 55.11 54.86L47.9 45.49L53.7 38.49C55.49 36.33 57.16 35.3 58.57 35.3V34.71H49.54V35.33C54.04 35.33 54.04 36.84 52.51 38.66L47.38 44.84L41.99 37.84C40.91 36.47 41.95 35.3 44.56 35.33V34.71H35.27V35.3C37.24 35.3 38.5 36.7399 39.92 38.5599L45.98 46.42L39.25 54.97C37.54 57.13 36.05 58.16 34.64 58.16V58.74H43.82V58.1199C39.81 58.1199 38.91 56.6399 40.4 54.7499L46.49 47.0599L53.14 55.71C54.48 57.43 53.59 58.1199 49.8 58.1199V58.74H59.72V58.16Z" fill="#CCBBA0"></path><path d="M85.6 50.7402C85.94 51.0102 86.24 51.5001 85.7 52.3201C84.98 53.4001 84.26 54.4901 83.55 55.5701L87.76 52.7202L88.04 53.4301C88.17 53.7601 88.18 54.0602 88.07 54.3502C87.76 55.2002 87.82 56.1101 87.88 57.0701C87.91 57.5901 87.9 58.1102 87.85 58.6002C87.99 58.3102 88.12 57.9901 88.24 57.6201C88.55 56.6801 88.98 55.7802 89.35 55.0302C89.55 54.6302 90.1 54.3801 90.53 54.3801C90.59 54.3801 90.64 54.3801 90.69 54.3901C91.19 54.4701 91.53 55.0501 91.62 55.4301C91.82 56.3501 92 57.2801 92.18 58.1801C92.25 58.5401 92.32 58.9001 92.39 59.2501L93.44 53.8201L94.25 54.5302C94.25 54.5302 94.32 54.5902 94.34 54.6102C94.43 54.6802 94.56 54.7801 94.64 54.9601C95 55.7901 95.59 56.4902 96.56 57.2302C96.83 57.4402 97.2 57.7202 97.45 58.1102C97.5 58.2002 97.56 58.2801 97.61 58.3701C97.47 57.9801 97.27 57.6001 97.06 57.2001C96.98 57.0401 96.9 56.8902 96.82 56.7302C96.53 56.1502 96.34 55.5401 96.16 54.9401L96.09 54.7101C95.98 54.3601 96.01 54.0202 96.17 53.7402C96.31 53.4902 96.56 53.3102 96.86 53.2402C97.15 53.1702 97.62 53.1701 97.98 53.4001C99.08 54.1201 100.18 54.8401 101.27 55.5701L98.37 51.2601L99.14 51.0101C99.52 50.8901 99.76 50.9302 99.95 50.9902C100.65 51.2102 101.4 51.3901 102.19 51.2501C102.87 51.1301 103.5 51.0901 104.08 51.1501C103.83 51.0401 103.55 50.9401 103.26 50.8401C102.4 50.5501 101.58 50.1701 100.78 49.8101C100.21 49.5501 99.95 49.0402 100.05 48.4102C100.18 47.6102 100.83 47.5102 101.08 47.4702C101.11 47.4702 101.14 47.4701 101.16 47.4601C102.15 47.2501 103.14 47.0602 104.13 46.8602C104.41 46.8102 104.68 46.7501 104.96 46.7001L100.41 45.8101L99.83 44.7601L100.78 44.3701C101.56 44.0501 102.15 43.4802 102.79 42.7202C103.07 42.3902 103.37 42.0802 103.68 41.7902C103.53 41.8502 103.38 41.9101 103.23 41.9601C102.97 42.0601 102.7 42.1701 102.44 42.2701C102.24 42.3501 102.04 42.4201 101.83 42.5001C101.41 42.6601 100.98 42.8302 100.54 42.9702C99.92 43.1802 99.37 43.0002 99.03 42.4802C98.61 41.8402 98.96 41.3101 99.12 41.0601C99.84 39.9701 100.55 38.8901 101.26 37.8201L96.24 41.2202L96.58 39.7101C96.61 39.5901 96.63 39.5002 96.65 39.4202C96.67 39.3202 96.69 39.2501 96.7 39.1901C96.73 38.9501 96.77 38.7001 96.81 38.4601C96.9 37.9501 96.98 37.4601 96.93 37.0201C96.86 36.3801 96.83 35.6401 96.93 34.8701C96.8 35.1401 96.69 35.4401 96.58 35.7701C96.33 36.5501 95.99 37.2901 95.66 38.0101L95.53 38.3002C95.36 38.6802 95.09 38.9402 94.77 39.0402C94.49 39.1302 94.2 39.0802 93.93 38.9202C93.57 38.7002 93.28 38.3002 93.19 37.9102C92.92 36.6502 92.67 35.3901 92.43 34.1401L91.35 39.7202L90.53 38.8101C90.48 38.7601 90.44 38.7201 90.4 38.6801C90.3 38.5801 90.19 38.4801 90.12 38.3101C89.81 37.5801 89.28 36.9501 88.47 36.3201C88.11 36.0501 87.62 35.6701 87.3 35.1801C87.28 35.1501 87.27 35.1302 87.25 35.1002C87.35 35.3702 87.47 35.6401 87.6 35.9001C88.05 36.8201 88.41 37.7401 88.71 38.5201C88.94 39.1201 88.76 39.7002 88.23 40.0502C87.58 40.4802 87.07 40.1302 86.82 39.9702L86.78 39.9401C85.71 39.2301 84.64 38.5102 83.57 37.8002L86.72 42.4702H85.56C85.49 42.4702 85.43 42.4702 85.39 42.4702C85.27 42.4702 85.12 42.4802 84.96 42.4102C84.26 42.1202 83.48 42.0301 82.44 42.1201H82.39C81.81 42.1701 81.21 42.2201 80.61 42.1501C80.99 42.3301 81.42 42.4801 81.9 42.6201C82.55 42.8201 83.16 43.1202 83.75 43.4102L84.07 43.5701C84.87 43.9601 84.85 44.6202 84.78 44.9802C84.62 45.7402 84.01 45.8401 83.75 45.8901L83.67 45.9102C82.79 46.0902 81.91 46.2701 81.04 46.4401C80.65 46.5201 80.27 46.5902 79.88 46.6702L85.71 47.8101L84.57 48.6401C84.48 48.7101 84.42 48.7602 84.37 48.7902C84.27 48.8702 84.18 48.9302 84.07 48.9902C83.29 49.3402 82.65 49.8602 82.17 50.5402C81.89 50.9502 81.57 51.3101 81.22 51.6201C81.31 51.5801 81.4 51.5401 81.5 51.5001C81.78 51.3801 82.05 51.2601 82.33 51.1501L82.54 51.0701C83.15 50.8301 83.77 50.5801 84.42 50.4001C84.86 50.2701 85.35 50.4902 85.64 50.7202L85.6 50.7402Z" fill="#CCBBA0"></path><path d="M71.8 66.5201L69.98 63.3601L68.16 66.5201H64.52L66.34 69.6701L64.52 72.8201H68.16L69.98 75.9701L71.8 72.8201H75.44L73.62 69.6701L75.44 66.5201H71.8Z" fill="#CCBBA0"></path><path d="M82.3 68.6C82.27 68.28 82.23 67.97 82.18 67.65C81.32 62.44 77.21 58.32 72 57.46C71.68 57.41 71.36 57.37 71.04 57.34C71 57.34 70.97 57.34 70.93 57.34C70.29 57.29 69.66 57.29 69.02 57.34C68.98 57.34 68.95 57.34 68.91 57.34C68.59 57.37 68.27 57.41 67.95 57.46C62.74 58.32 58.62 62.44 57.77 67.65C57.72 67.97 57.68 68.28 57.65 68.6C57.65 68.64 57.65 68.68 57.65 68.72C57.63 69.04 57.61 69.35 57.61 69.66C57.61 69.97 57.63 70.29 57.65 70.6C57.65 70.64 57.65 70.68 57.65 70.72C57.68 71.04 57.72 71.35 57.77 71.67C58.63 76.88 62.75 81 67.95 81.86C68.27 81.91 68.59 81.95 68.91 81.98C68.94 81.98 68.98 81.98 69.02 81.98C69.66 82.03 70.29 82.03 70.93 81.98C70.97 81.98 71 81.98 71.04 81.98C71.36 81.95 71.68 81.91 72 81.86C77.2 81 81.32 76.88 82.18 71.67C82.23 71.35 82.27 71.04 82.3 70.72C82.3 70.68 82.3 70.64 82.3 70.6C82.32 70.28 82.34 69.97 82.34 69.66C82.34 69.35 82.33 69.03 82.3 68.72C82.3 68.68 82.3 68.64 82.3 68.6ZM69.98 79.93C64.31 79.93 59.71 75.33 59.71 69.66C59.71 63.99 64.31 59.39 69.98 59.39C75.65 59.39 80.25 63.99 80.25 69.66C80.25 75.33 75.65 79.93 69.98 79.93Z" fill="#CCBBA0"></path><path d="M88.41 88.9601C89.02 89.2401 89.53 89.5501 89.95 89.8501C90.21 88.7801 91.17 87.9901 92.32 87.9901C93.47 87.9901 94.49 88.8301 94.71 89.9601C95.15 89.6201 95.71 89.2701 96.39 88.9601C97.91 88.2601 100.56 86.2901 101.47 82.8201H83.33C84.24 86.2901 86.89 88.2601 88.41 88.9601Z" fill="#CCBBA0"></path><path d="M96.7 103.52C94.55 103.12 93.36 100.92 93.28 96.8701C93.25 95.4701 93.24 94.1901 93.25 93.1201C93.02 93.3701 92.69 93.5302 92.32 93.5302C92.03 93.5302 91.77 93.4301 91.56 93.2701C91.56 94.3101 91.56 95.5301 91.53 96.8701C91.45 100.93 90.26 103.13 88.11 103.52C85.68 103.97 84.49 105.74 84.49 105.74H91.71C91.23 105.51 90.9 105.02 90.9 104.45C90.9 103.66 91.54 103.02 92.33 103.02C93.12 103.02 93.76 103.66 93.76 104.45C93.76 105.02 93.43 105.51 92.95 105.74H100.34C100.34 105.74 99.15 103.97 96.72 103.52H96.7Z" fill="#CCBBA0"></path><path d="M90.65 80.29H83.01C83.01 80.85 83.06 81.39 83.14 81.89H101.67C101.75 81.38 101.8 80.85 101.8 80.29H90.66H90.65Z" fill="#CCBBA0"></path><path d="M94.14 90.84C94.14 89.83 93.32 89.01 92.31 89.01C91.3 89.01 90.48 89.83 90.48 90.84C90.48 91.85 91.3 92.67 92.31 92.67C93.32 92.67 94.14 91.85 94.14 90.84Z" fill="#CCBBA0"></path><path d="M70.03 0C31.86 0 0.800018 31.06 0.800018 69.23C0.800018 107.4 31.86 138.46 70.03 138.46C108.2 138.46 139.26 107.4 139.26 69.23C139.26 31.06 108.2 0 70.03 0ZM70.03 136.41C32.99 136.41 2.85001 106.27 2.85001 69.23C2.85001 32.19 32.99 2.05005 70.03 2.05005C107.07 2.05005 137.21 32.19 137.21 69.23C137.21 106.27 107.07 136.41 70.03 136.41Z" fill="#CCBBA0"></path><path d="M124.29 74.4001L130.59 69.6301L124.27 64.8401L124.24 64.5701C121.78 38.4901 101.06 17.8001 74.98 15.3601L74.71 15.3401L69.96 9.06006L65.22 15.3201L64.95 15.3401C52.24 16.4701 40.25 22.0801 31.2 31.1301C22.15 40.1901 16.54 52.1701 15.41 64.8801L15.39 65.1501L9.39001 69.6901L15.37 74.2201L15.39 74.4901C16.49 87.2801 22.11 99.3301 31.22 108.43C40.33 117.53 52.4 123.14 65.19 124.21L65.46 124.23L70.02 130.25L74.6 124.2L74.87 124.18C101.16 121.78 121.93 100.95 124.27 74.6601L124.29 74.3901V74.4001ZM70.03 11.6401C70.03 11.6401 72.14 15.5301 73.09 16.4901C72.04 17.5401 71.01 18.7601 70.03 19.7401C68.99 18.7001 67.96 17.4701 66.97 16.4901C67.93 15.5301 70.03 11.6401 70.03 11.6401ZM11.84 69.7301C11.84 69.7301 15.73 67.6201 16.69 66.6701C17.74 67.7201 18.96 68.7501 19.94 69.7301C18.9 70.7701 17.67 71.8001 16.69 72.7901C15.73 71.8301 11.84 69.7301 11.84 69.7301ZM70.04 128.07C70.04 128.07 67.93 124.18 66.98 123.22C68.03 122.17 69.06 120.95 70.04 119.97C71.08 121.01 72.11 122.24 73.1 123.22C72.14 124.18 70.04 128.07 70.04 128.07ZM121.63 74.3301C119.46 99.3401 99.75 119.2 74.75 121.55L74.41 121.58L71.51 117.75V83.1901C71.51 83.1901 71.5 83.1901 71.49 83.1901C71.26 83.2101 71.04 83.2301 70.81 83.2501C70.79 83.2501 70.76 83.2501 70.74 83.2501C70.49 83.2601 70.24 83.2701 69.99 83.2701C69.74 83.2701 69.49 83.2701 69.24 83.2501C69.22 83.2501 69.21 83.2501 69.19 83.2501C68.95 83.2401 68.71 83.2201 68.48 83.1901C68.48 83.1901 68.48 83.1901 68.47 83.1901V117.66L65.48 121.6L65.14 121.57C40.1 119.33 20.3 99.5301 18.05 74.4901L18.02 74.1501L21.91 71.2001H56.47C56.47 71.2001 56.47 71.1901 56.47 71.1801C56.45 70.9501 56.43 70.7201 56.41 70.4901C56.41 70.4701 56.41 70.4401 56.41 70.4201C56.4 70.1701 56.39 69.9201 56.39 69.6701C56.39 69.4201 56.39 69.1701 56.41 68.9201C56.41 68.9001 56.41 68.8701 56.41 68.8501C56.42 68.6201 56.44 68.3901 56.47 68.1701C56.47 68.1701 56.47 68.1601 56.47 68.1501H22L18.04 65.1501L18.07 64.8101C20.44 39.8101 40.33 20.1101 65.36 17.9801L65.7 17.9501L68.47 21.6001V56.1601C68.47 56.1601 68.47 56.1601 68.48 56.1601C68.72 56.1301 68.95 56.1101 69.19 56.1001C69.21 56.1001 69.22 56.1001 69.24 56.1001C69.49 56.0901 69.74 56.0801 69.99 56.0801C70.24 56.0801 70.49 56.0801 70.74 56.1001C70.76 56.1001 70.79 56.1001 70.81 56.1001C71.04 56.1101 71.27 56.1301 71.49 56.1601C71.49 56.1601 71.5 56.1601 71.51 56.1601V21.6901L74.32 17.9801L74.66 18.0101C99.63 20.3101 119.38 40.1101 121.62 65.0901L121.65 65.4301L118.06 68.1501H83.5C83.5 68.1501 83.5 68.1601 83.5 68.1701C83.52 68.4001 83.54 68.6201 83.56 68.8501C83.56 68.8801 83.56 68.9001 83.56 68.9201C83.57 69.1701 83.58 69.4201 83.58 69.6701C83.58 69.9201 83.58 70.1701 83.56 70.4201C83.56 70.4401 83.56 70.4701 83.56 70.4901C83.55 70.7201 83.53 70.9501 83.5 71.1801C83.5 71.1801 83.5 71.1901 83.5 71.2001H117.97L121.66 74.0001L121.63 74.3401V74.3301ZM119.79 69.7301C120.78 68.7401 121.99 67.7201 123.04 66.6701C124 67.6301 127.89 69.7301 127.89 69.7301C127.89 69.7301 124.01 71.8201 123.04 72.7901C122.06 71.8101 120.82 70.7701 119.79 69.7301Z" fill="#CCBBA0"></path></svg>