<svg width="50" height="38" viewBox="0 0 50 38" fill="none" xmlns="http://www.w3.org/2000/svg">
<path d="M48.8605 26.1896C49.0005 26.2696 49.1005 26.3796 49.1805 26.5096C49.2605 26.6496 49.3005 26.7996 49.3005 26.9696C49.3005 27.1396 49.2605 27.2896 49.1805 27.4296C49.1005 27.5696 48.9905 27.6796 48.8605 27.7596C48.7205 27.8396 48.5705 27.8796 48.4105 27.8796C48.2505 27.8796 48.0905 27.8396 47.9605 27.7596C47.8205 27.6796 47.7205 27.5696 47.6405 27.4296C47.5605 27.2896 47.5205 27.1396 47.5205 26.9696C47.5205 26.7996 47.5605 26.6496 47.6405 26.5096C47.7205 26.3696 47.8305 26.2596 47.9605 26.1796C48.1005 26.0996 48.2505 26.0596 48.4205 26.0596C48.5905 26.0596 48.7405 26.0996 48.8705 26.1796L48.8605 26.1896ZM48.8105 27.6796C48.9305 27.6096 49.0305 27.5096 49.1005 27.3796C49.1705 27.2596 49.2105 27.1196 49.2105 26.9696C49.2105 26.8196 49.1805 26.6796 49.1105 26.5596C49.0405 26.4396 48.9505 26.3396 48.8305 26.2696C48.7105 26.1996 48.5705 26.1596 48.4205 26.1596C48.2705 26.1596 48.1305 26.1996 48.0105 26.2696C47.8905 26.3396 47.7905 26.4396 47.7205 26.5596C47.6505 26.6796 47.6105 26.8196 47.6105 26.9696C47.6105 27.1196 47.6405 27.2596 47.7205 27.3796C47.7905 27.4996 47.8905 27.5996 48.0105 27.6696C48.1305 27.7396 48.2705 27.7796 48.4105 27.7796C48.5505 27.7796 48.6905 27.7396 48.8105 27.6696V27.6796ZM48.8005 27.0096C48.7605 27.0696 48.7005 27.1096 48.6305 27.1296L48.8705 27.4996H48.7305L48.5105 27.1496C48.5105 27.1496 48.4805 27.1496 48.4505 27.1496H48.1905V27.4896H48.0605V26.4496H48.4505C48.5705 26.4496 48.6705 26.4796 48.7505 26.5396C48.8205 26.5996 48.8605 26.6896 48.8605 26.7896C48.8605 26.8696 48.8405 26.9396 48.8005 26.9896V27.0096ZM48.6505 26.9796C48.6505 26.9796 48.7205 26.8796 48.7205 26.8096C48.7205 26.7396 48.7005 26.6796 48.6505 26.6396C48.6005 26.5996 48.5305 26.5796 48.4405 26.5796H48.1805V27.0496H48.4405C48.5305 27.0496 48.6005 27.0296 48.6505 26.9896V26.9796Z" fill="#323334"/>
<path d="M5.51015 29.7191H6.58016V32.1791C6.27016 32.4291 5.90016 32.6292 5.48016 32.7592C5.06016 32.8892 4.63016 32.9591 4.19016 32.9591C3.57016 32.9591 3.01015 32.8191 2.51015 32.5491C2.01015 32.2791 1.62016 31.8992 1.34016 31.4192C1.06016 30.9392 0.910156 30.3892 0.910156 29.7892C0.910156 29.1892 1.05016 28.6391 1.34016 28.1591C1.62016 27.6791 2.02016 27.2991 2.52016 27.0291C3.02016 26.7591 3.58016 26.6191 4.21016 26.6191C4.72016 26.6191 5.18015 26.7092 5.60015 26.8792C6.02015 27.0492 6.37016 27.2992 6.65016 27.6292L5.94016 28.3391C5.48016 27.8691 4.92015 27.6292 4.26015 27.6292C3.83015 27.6292 3.45016 27.7191 3.12016 27.8991C2.79016 28.0791 2.53016 28.3392 2.34016 28.6692C2.15016 28.9992 2.06016 29.3691 2.06016 29.7991C2.06016 30.2291 2.15016 30.5791 2.34016 30.9091C2.53016 31.2391 2.79016 31.4991 3.12016 31.6891C3.45016 31.8791 3.83016 31.9691 4.25016 31.9691C4.72016 31.9691 5.14016 31.8591 5.50016 31.6491V29.7292L5.51015 29.7191Z" fill="#323334"/>
<path d="M11.2999 28.6191C11.6599 28.9491 11.8399 29.4491 11.8399 30.1191V32.8792H10.8099V32.3091C10.6799 32.5191 10.4899 32.6691 10.2399 32.7791C9.98988 32.8891 9.69988 32.9391 9.34988 32.9391C8.99988 32.9391 8.69989 32.8792 8.43989 32.7592C8.17989 32.6392 7.97988 32.4692 7.83988 32.2592C7.69988 32.0492 7.62988 31.7991 7.62988 31.5291C7.62988 31.1091 7.77988 30.7692 8.08988 30.5092C8.39988 30.2492 8.88989 30.1292 9.54989 30.1292H10.7499V30.0591C10.7499 29.7291 10.6499 29.4791 10.4599 29.2991C10.2699 29.1191 9.97988 29.0392 9.59988 29.0392C9.33988 29.0392 9.07989 29.0791 8.82989 29.1591C8.57989 29.2391 8.36989 29.3591 8.18989 29.4991L7.75989 28.6992C7.99989 28.5092 8.29988 28.3691 8.63988 28.2691C8.97988 28.1691 9.33989 28.1191 9.72989 28.1191C10.4099 28.1191 10.9399 28.2891 11.2999 28.6191ZM10.3099 31.9492C10.5199 31.8192 10.6699 31.6391 10.7599 31.4091V30.8591H9.63988C9.00988 30.8591 8.69988 31.0691 8.69988 31.4891C8.69988 31.6891 8.77989 31.8491 8.92989 31.9691C9.08989 32.0891 9.29989 32.1491 9.57989 32.1491C9.85989 32.1491 10.0899 32.0891 10.3099 31.9591V31.9492Z" fill="#323334"/>
<path d="M13.5602 32.7892C13.2002 32.6892 12.9102 32.5591 12.7002 32.4091L13.1202 31.5692C13.3302 31.7092 13.5802 31.8191 13.8702 31.9091C14.1602 31.9991 14.4502 32.0392 14.7302 32.0392C15.3802 32.0392 15.7002 31.8691 15.7002 31.5191C15.7002 31.3591 15.6202 31.2391 15.4502 31.1791C15.2802 31.1191 15.0202 31.0491 14.6502 30.9891C14.2702 30.9291 13.9602 30.8592 13.7202 30.7892C13.4802 30.7092 13.2702 30.5792 13.0902 30.3892C12.9102 30.1992 12.8202 29.9291 12.8202 29.5891C12.8202 29.1391 13.0002 28.7891 13.3702 28.5191C13.7402 28.2491 14.2302 28.1191 14.8602 28.1191C15.1802 28.1191 15.5002 28.1592 15.8202 28.2292C16.1402 28.2992 16.4002 28.3991 16.6002 28.5291L16.1802 29.3691C15.7902 29.1391 15.3402 29.0191 14.8502 29.0191C14.5302 29.0191 14.2902 29.0692 14.1202 29.1692C13.9502 29.2692 13.8702 29.3891 13.8702 29.5491C13.8702 29.7291 13.9602 29.8492 14.1402 29.9192C14.3202 29.9892 14.5902 30.0592 14.9602 30.1292C15.3302 30.1892 15.6302 30.2591 15.8702 30.3291C16.1102 30.4091 16.3102 30.5391 16.4802 30.7191C16.6502 30.8991 16.7402 31.1591 16.7402 31.4991C16.7402 31.9391 16.5502 32.2891 16.1802 32.5591C15.8002 32.8191 15.2902 32.9591 14.6402 32.9591C14.2602 32.9591 13.9002 32.9091 13.5402 32.8091L13.5602 32.7892Z" fill="#323334"/>
<path d="M20.5006 32.6189C20.3706 32.7289 20.2206 32.8089 20.0406 32.8589C19.8606 32.9089 19.6606 32.9389 19.4606 32.9389C18.9506 32.9389 18.5606 32.7989 18.2806 32.5289C18.0006 32.2589 17.8606 31.8689 17.8606 31.3489V29.0889H17.1006V28.2089H17.8606V27.1289H18.9506V28.2089H20.1906V29.0889H18.9506V31.3289C18.9506 31.5589 19.0106 31.7289 19.1206 31.8489C19.2306 31.9689 19.3906 32.0289 19.6006 32.0289C19.8406 32.0289 20.0506 31.9689 20.2106 31.8389L20.5106 32.6189H20.5006Z" fill="#323334"/>
<path d="M24.0806 28.1194V29.1694C23.9906 29.1494 23.9006 29.1394 23.8306 29.1394C23.4106 29.1394 23.0806 29.2594 22.8406 29.5094C22.6006 29.7594 22.4806 30.1194 22.4806 30.5894V32.8694H21.3906V28.1594H22.4206V28.8494C22.7306 28.3594 23.2806 28.1094 24.0706 28.1094L24.0806 28.1194Z" fill="#323334"/>
<path d="M25.7703 32.6292C25.3903 32.4192 25.1003 32.1391 24.8903 31.7691C24.6803 31.3991 24.5703 30.9891 24.5703 30.5191C24.5703 30.0491 24.6803 29.6391 24.8903 29.2791C25.1003 28.9191 25.4003 28.6291 25.7703 28.4291C26.1503 28.2191 26.5703 28.1191 27.0403 28.1191C27.5103 28.1191 27.9403 28.2191 28.3203 28.4291C28.7003 28.6391 28.9903 28.9191 29.2003 29.2791C29.4103 29.6391 29.5203 30.0591 29.5203 30.5191C29.5203 30.9791 29.4103 31.3991 29.2003 31.7691C28.9903 32.1391 28.6903 32.4192 28.3203 32.6292C27.9403 32.8392 27.5203 32.9391 27.0403 32.9391C26.5603 32.9391 26.1503 32.8392 25.7703 32.6292ZM28.0303 31.5891C28.2903 31.3191 28.4203 30.9591 28.4203 30.5191C28.4203 30.0791 28.2903 29.7192 28.0303 29.4492C27.7703 29.1792 27.4403 29.0392 27.0403 29.0392C26.6403 29.0392 26.3103 29.1792 26.0503 29.4492C25.7903 29.7192 25.6603 30.0791 25.6603 30.5191C25.6603 30.9591 25.7903 31.3191 26.0503 31.5891C26.3103 31.8591 26.6403 31.9991 27.0403 31.9991C27.4403 31.9991 27.7703 31.8591 28.0303 31.5891Z" fill="#323334"/>
<path d="M35.2299 31.919V32.879H30.6699V26.709H35.1099V27.669H31.7999V29.269H34.7399V30.209H31.7999V31.909H35.2299V31.919Z" fill="#323334"/>
<path d="M36.3906 26.3389H37.4806V32.8789H36.3906V26.3389Z" fill="#323334"/>
<path d="M38.95 27.2091C38.82 27.0791 38.75 26.9291 38.75 26.7391C38.75 26.5491 38.82 26.3891 38.95 26.2691C39.08 26.1391 39.25 26.0791 39.45 26.0791C39.65 26.0791 39.81 26.1391 39.95 26.2591C40.08 26.3791 40.15 26.5291 40.15 26.7091C40.15 26.8991 40.08 27.0691 39.95 27.1991C39.82 27.3291 39.65 27.3991 39.45 27.3991C39.25 27.3991 39.09 27.3391 38.95 27.2091ZM38.9 28.1691H39.99V32.8791H38.9V28.1691Z" fill="#323334"/>
<path d="M44.1998 32.6189C44.0698 32.7289 43.9198 32.8089 43.7398 32.8589C43.5598 32.9089 43.3598 32.9389 43.1598 32.9389C42.6498 32.9389 42.2598 32.7989 41.9798 32.5289C41.6998 32.2589 41.5598 31.8689 41.5598 31.3489V29.0889H40.7998V28.2089H41.5598V27.1289H42.6498V28.2089H43.8898V29.0889H42.6498V31.3289C42.6498 31.5589 42.7098 31.7289 42.8198 31.8489C42.9298 31.9689 43.0898 32.0289 43.2998 32.0289C43.5398 32.0289 43.7498 31.9689 43.9098 31.8389L44.2098 32.6189H44.1998Z" fill="#323334"/>
<path d="M49.28 30.8796H45.64C45.7 31.2296 45.87 31.4996 46.14 31.6996C46.41 31.8996 46.74 31.9996 47.14 31.9996C47.65 31.9996 48.07 31.8296 48.4 31.4896L48.98 32.1696C48.77 32.4196 48.51 32.6096 48.19 32.7396C47.87 32.8696 47.51 32.9296 47.11 32.9296C46.6 32.9296 46.15 32.8296 45.76 32.6196C45.37 32.4096 45.07 32.1296 44.86 31.7596C44.65 31.3896 44.54 30.9796 44.54 30.5096C44.54 30.0396 44.64 29.6396 44.85 29.2696C45.06 28.8996 45.34 28.6196 45.71 28.4096C46.07 28.1996 46.49 28.0996 46.94 28.0996C47.39 28.0996 47.8 28.1996 48.15 28.3996C48.5 28.5996 48.78 28.8896 48.98 29.2496C49.18 29.6196 49.28 30.0396 49.28 30.5196C49.28 30.5996 49.28 30.7096 49.26 30.8496L49.28 30.8796ZM46.07 29.3096C45.83 29.5196 45.68 29.7996 45.63 30.1396H48.26C48.21 29.7996 48.07 29.5196 47.83 29.3096C47.59 29.0996 47.3 28.9896 46.94 28.9896C46.58 28.9896 46.3 29.0896 46.06 29.2996L46.07 29.3096Z" fill="#323334"/>
<path d="M31.3499 9.52002C31.1199 9.75002 30.8799 9.96002 30.6999 10.24C30.7499 10.24 30.7899 10.23 30.8299 10.22C31.0299 10.18 31.2299 10.22 31.4199 10.3C31.7599 10.45 32.0099 10.69 32.1799 11.02C32.2799 11.23 32.3099 11.45 32.3099 11.68C32.3099 12.03 32.2299 12.36 32.0699 12.67C31.9199 12.95 31.7299 13.2 31.4899 13.41C31.1799 13.69 30.8199 13.9 30.4299 14.06C30.1799 14.16 29.9199 14.21 29.6499 14.23C29.2199 14.26 28.7999 14.21 28.3999 14.07C28.1099 13.98 27.8399 13.84 27.5999 13.66C27.2799 13.41 27.0399 13.09 26.8899 12.71C26.7999 12.49 26.6299 11.68 26.6099 11.53H25.5699V10.49C25.7099 10.35 26.5599 10.39 26.7599 10.45C27.0099 10.53 27.1699 10.71 27.3099 10.91C27.3999 11.05 27.4899 11.19 27.6199 11.3C27.9299 11.57 28.2799 11.66 28.6699 11.52C28.9999 11.4 29.2599 11.2 29.4699 10.92C29.5399 10.82 29.5899 10.7 29.6299 10.59C29.7099 10.39 29.7799 10.18 29.8799 9.98004C29.9699 9.81004 30.0599 9.65004 30.1899 9.51004C30.3499 9.34004 30.5099 9.17003 30.6699 9.00003C27.9299 6.84003 25.9299 3.79004 25.0999 0.290039C24.6299 2.27004 23.7799 4.11003 22.6399 5.72003C22.8699 5.95003 23.0799 6.19003 23.3599 6.37003C23.3599 6.32003 23.3499 6.28002 23.3399 6.24002C23.2999 6.04002 23.3399 5.84002 23.4199 5.65002C23.5699 5.31002 23.8099 5.06005 24.1399 4.89005C24.3499 4.79005 24.5699 4.76004 24.7999 4.76004C25.1499 4.76004 25.4799 4.84003 25.7899 5.00003C26.0699 5.15003 26.3199 5.34002 26.5299 5.58002C26.8099 5.89002 27.0199 6.25005 27.1799 6.64005C27.2799 6.89005 27.3299 7.15004 27.3499 7.42004C27.3799 7.85004 27.3299 8.27004 27.1899 8.67004C27.0999 8.96004 26.9599 9.23003 26.7799 9.47003C26.5299 9.79003 26.2099 10.03 25.8299 10.18C25.6099 10.27 24.7599 10.45 24.6099 10.47V11.51H23.5699C23.4299 11.37 23.4999 10.5 23.5699 10.3C23.6499 10.05 23.8299 9.89003 24.0299 9.75003C24.1699 9.66003 24.3099 9.57003 24.4199 9.44003C24.6899 9.13003 24.7799 8.78005 24.6399 8.39005C24.5199 8.06005 24.3199 7.80003 24.0399 7.59003C23.9399 7.52003 23.8199 7.47002 23.7099 7.43002C23.5099 7.35002 23.2999 7.28002 23.0999 7.18002C22.9299 7.09002 22.7699 7.00003 22.6299 6.87003C22.4599 6.71003 22.2899 6.55005 22.1299 6.39005C19.9699 9.13005 16.9199 11.13 13.4199 11.96C15.3999 12.43 17.2399 13.28 18.8499 14.42C19.0799 14.19 19.3199 13.98 19.4999 13.7C19.4499 13.7 19.4099 13.71 19.3699 13.72C19.1699 13.76 18.9699 13.72 18.7799 13.64C18.4399 13.49 18.1899 13.25 18.0199 12.92C17.9199 12.71 17.8899 12.49 17.8899 12.26C17.8899 11.91 17.9699 11.58 18.1299 11.27C18.2799 10.99 18.4699 10.74 18.7099 10.53C19.0199 10.25 19.3799 10.04 19.7699 9.88004C20.0199 9.78004 20.2799 9.73002 20.5499 9.71002C20.9799 9.68002 21.3999 9.73003 21.7999 9.87003C22.0899 9.96003 22.3599 10.1 22.5999 10.28C22.9199 10.53 23.1599 10.85 23.3099 11.23C23.3999 11.45 23.5499 12.31 23.5699 12.46H24.6099V13.5C24.4699 13.64 23.6399 13.55 23.4299 13.49C23.1799 13.41 23.0199 13.23 22.8799 13.03C22.7899 12.89 22.6999 12.75 22.5699 12.64C22.2599 12.37 21.9099 12.28 21.5199 12.42C21.1899 12.54 20.9299 12.74 20.7199 13.02C20.6499 13.12 20.5999 13.24 20.5599 13.35C20.4799 13.55 20.4099 13.76 20.3099 13.96C20.2199 14.13 20.1299 14.29 19.9999 14.43C19.8399 14.6 19.6799 14.77 19.5199 14.94C22.2599 17.1 24.2599 20.15 25.0899 23.65C25.5599 21.67 26.4099 19.83 27.5499 18.22C27.3199 17.99 27.1099 17.75 26.8299 17.57C26.8299 17.62 26.8399 17.66 26.8499 17.7C26.8899 17.9 26.8499 18.1 26.7699 18.29C26.6199 18.63 26.3799 18.88 26.0499 19.05C25.8399 19.15 25.6199 19.18 25.3899 19.18C25.0399 19.18 24.7099 19.1 24.3999 18.94C24.1199 18.79 23.8699 18.6 23.6599 18.36C23.3799 18.05 23.1699 17.69 23.0099 17.3C22.9099 17.05 22.8599 16.79 22.8399 16.52C22.8099 16.09 22.8599 15.67 22.9999 15.27C23.0899 14.98 23.2299 14.71 23.4099 14.47C23.6599 14.15 23.9799 13.91 24.3599 13.76C24.5799 13.67 25.4099 13.54 25.5599 13.52V12.48H26.5999C26.7399 12.62 26.6899 13.44 26.6199 13.64C26.5399 13.89 26.3599 14.05 26.1599 14.19C26.0199 14.28 25.8799 14.37 25.7699 14.5C25.4999 14.81 25.4099 15.16 25.5499 15.55C25.6699 15.88 25.8699 16.14 26.1499 16.35C26.2499 16.42 26.3699 16.47 26.4799 16.51C26.6799 16.59 26.8899 16.66 27.0899 16.76C27.2599 16.85 27.4199 16.94 27.5599 17.07C27.7299 17.23 27.8999 17.39 28.0599 17.55C30.2199 14.81 33.2699 12.81 36.7699 11.98C34.7899 11.51 32.9499 10.66 31.3399 9.52002H31.3499Z" fill="#323334"/>
<path d="M10.1297 37.8597V36.2497L9.33968 37.5797H9.13969L8.34969 36.2697V37.8597H7.92969V35.4297H8.29969L9.24969 37.0397L10.1797 35.4297H10.5497V37.8597H10.1297Z" fill="#323334"/>
<path d="M13.34 37.4797V37.8597H11.54V35.4297H13.29V35.8097H11.99V36.4397H13.15V36.8097H11.99V37.4797H13.34Z" fill="#323334"/>
<path d="M14.1797 35.4297H15.2297C15.4897 35.4297 15.7097 35.4797 15.9097 35.5797C16.1097 35.6797 16.2597 35.8197 16.3697 36.0097C16.4797 36.1897 16.5297 36.4097 16.5297 36.6497C16.5297 36.8897 16.4797 37.0997 16.3697 37.2897C16.2597 37.4697 16.1097 37.6197 15.9097 37.7197C15.7097 37.8197 15.4797 37.8697 15.2297 37.8697H14.1797V35.4397V35.4297ZM15.2097 37.4697C15.3897 37.4697 15.5397 37.4397 15.6697 37.3697C15.7997 37.2997 15.9097 37.1997 15.9797 37.0797C16.0497 36.9497 16.0897 36.8097 16.0897 36.6397C16.0897 36.4697 16.0497 36.3297 15.9797 36.1997C15.9097 36.0697 15.8097 35.9797 15.6697 35.9097C15.5397 35.8397 15.3797 35.8097 15.2097 35.8097H14.6297V37.4797H15.2097V37.4697Z" fill="#323334"/>
<path d="M17.3496 35.4297H17.7996V37.8597H17.3496V35.4297Z" fill="#323334"/>
<path d="M19.2394 37.7296C19.0394 37.6196 18.8894 37.4696 18.7794 37.2796C18.6694 37.0896 18.6094 36.8796 18.6094 36.6396C18.6094 36.3996 18.6694 36.1896 18.7794 35.9996C18.8894 35.8096 19.0494 35.6596 19.2394 35.5496C19.4394 35.4396 19.6494 35.3896 19.8994 35.3896C20.0994 35.3896 20.2794 35.4196 20.4394 35.4896C20.5994 35.5596 20.7394 35.6596 20.8494 35.7896L20.5594 36.0596C20.3894 35.8696 20.1694 35.7796 19.9194 35.7796C19.7594 35.7796 19.6094 35.8196 19.4794 35.8896C19.3494 35.9596 19.2494 36.0596 19.1794 36.1896C19.1094 36.3196 19.0694 36.4696 19.0694 36.6296C19.0694 36.7896 19.1094 36.9396 19.1794 37.0696C19.2494 37.1996 19.3494 37.2996 19.4794 37.3696C19.6094 37.4396 19.7594 37.4796 19.9194 37.4796C20.1694 37.4796 20.3894 37.3796 20.5594 37.1896L20.8494 37.4696C20.7394 37.5996 20.5994 37.6996 20.4394 37.7696C20.2794 37.8396 20.0994 37.8696 19.8994 37.8696C19.6594 37.8696 19.4394 37.8196 19.2394 37.7096V37.7296Z" fill="#323334"/>
<path d="M23.1197 37.2899H21.9197L21.6797 37.8499H21.2197L22.2997 35.4199H22.7397L23.8197 37.8499H23.3497L23.1097 37.2899H23.1197ZM22.9697 36.9399L22.5197 35.8799L22.0697 36.9399H22.9697Z" fill="#323334"/>
<path d="M24.4697 35.4297H24.9197V37.4797H26.1697V37.8597H24.4697V35.4297Z" fill="#323334"/>
<path d="M29.7895 36.6096H30.2095V37.5796C30.0895 37.6796 29.9395 37.7596 29.7795 37.8096C29.6195 37.8596 29.4495 37.8896 29.2695 37.8896C29.0295 37.8896 28.8095 37.8396 28.6095 37.7296C28.4095 37.6196 28.2595 37.4696 28.1495 37.2796C28.0395 37.0896 27.9795 36.8796 27.9795 36.6396C27.9795 36.3996 28.0395 36.1896 28.1495 35.9996C28.2595 35.8096 28.4195 35.6596 28.6095 35.5496C28.8095 35.4396 29.0295 35.3896 29.2795 35.3896C29.4795 35.3896 29.6595 35.4196 29.8295 35.4896C29.9895 35.5596 30.1295 35.6596 30.2395 35.7896L29.9595 36.0696C29.7795 35.8796 29.5595 35.7896 29.2995 35.7896C29.1295 35.7896 28.9795 35.8296 28.8495 35.8996C28.7195 35.9696 28.6195 36.0696 28.5395 36.1996C28.4695 36.3296 28.4295 36.4796 28.4295 36.6396C28.4295 36.7996 28.4695 36.9496 28.5395 37.0796C28.6095 37.2096 28.7195 37.3096 28.8495 37.3896C28.9795 37.4596 29.1295 37.4996 29.2995 37.4996C29.4895 37.4996 29.6495 37.4596 29.7895 37.3796V36.6196V36.6096Z" fill="#323334"/>
<path d="M32.7096 37.8597L32.2197 37.1497C32.2197 37.1497 32.1696 37.1497 32.1296 37.1497H31.5896V37.8597H31.1396V35.4297H32.1296C32.3396 35.4297 32.5196 35.4597 32.6696 35.5297C32.8196 35.5997 32.9396 35.6997 33.0196 35.8297C33.0996 35.9597 33.1396 36.1097 33.1396 36.2897C33.1396 36.4697 33.0997 36.6297 33.0097 36.7597C32.9197 36.8897 32.7996 36.9897 32.6296 37.0597L33.1796 37.8597H32.6996H32.7096ZM32.5497 35.9297C32.4497 35.8497 32.2996 35.8097 32.1096 35.8097H31.5896V36.7797H32.1096C32.2996 36.7797 32.4497 36.7397 32.5497 36.6497C32.6497 36.5697 32.6996 36.4497 32.6996 36.2897C32.6996 36.1297 32.6497 36.0197 32.5497 35.9297Z" fill="#323334"/>
<path d="M34.4396 37.7296C34.2396 37.6196 34.0896 37.4696 33.9796 37.2796C33.8696 37.0896 33.8096 36.8796 33.8096 36.6396C33.8096 36.3996 33.8696 36.1896 33.9796 35.9996C34.0896 35.8096 34.2496 35.6596 34.4396 35.5496C34.6396 35.4396 34.8596 35.3896 35.0996 35.3896C35.3396 35.3896 35.5596 35.4396 35.7596 35.5496C35.9596 35.6596 36.1096 35.8096 36.2196 35.9996C36.3296 36.1896 36.3896 36.3996 36.3896 36.6396C36.3896 36.8796 36.3296 37.0896 36.2196 37.2796C36.1096 37.4696 35.9496 37.6196 35.7596 37.7296C35.5596 37.8396 35.3396 37.8896 35.0996 37.8896C34.8596 37.8896 34.6396 37.8396 34.4396 37.7296ZM35.5396 37.3896C35.6696 37.3196 35.7696 37.2196 35.8396 37.0796C35.9096 36.9496 35.9496 36.7996 35.9496 36.6396C35.9496 36.4796 35.9096 36.3296 35.8396 36.1996C35.7696 36.0696 35.6696 35.9696 35.5396 35.8896C35.4096 35.8196 35.2696 35.7796 35.1096 35.7796C34.9496 35.7796 34.8096 35.8196 34.6796 35.8896C34.5496 35.9596 34.4496 36.0596 34.3796 36.1996C34.3096 36.3396 34.2696 36.4796 34.2696 36.6396C34.2696 36.7996 34.3096 36.9496 34.3796 37.0796C34.4496 37.2096 34.5496 37.3096 34.6796 37.3896C34.8096 37.4596 34.9496 37.4996 35.1096 37.4996C35.2696 37.4996 35.4096 37.4596 35.5396 37.3896Z" fill="#323334"/>
<path d="M37.4695 37.6097C37.2895 37.4197 37.1895 37.1497 37.1895 36.7997V35.4297H37.6395V36.7797C37.6395 37.2597 37.8395 37.4997 38.2495 37.4997C38.6595 37.4997 38.8595 37.2597 38.8595 36.7797V35.4297H39.2995V36.7997C39.2995 37.1497 39.2094 37.4197 39.0194 37.6097C38.8394 37.7997 38.5795 37.8897 38.2495 37.8897C37.9195 37.8897 37.6595 37.7997 37.4795 37.6097H37.4695Z" fill="#323334"/>
<path d="M41.7898 35.5299C41.9398 35.5999 42.0598 35.6999 42.1398 35.8299C42.2198 35.9599 42.2598 36.1099 42.2598 36.2899C42.2598 36.4699 42.2198 36.6199 42.1398 36.7499C42.0598 36.8799 41.9398 36.9799 41.7898 37.0499C41.6398 37.1199 41.4498 37.1499 41.2498 37.1499H40.7098V37.8499H40.2598V35.4199H41.2498C41.4598 35.4199 41.6398 35.4499 41.7898 35.5199V35.5299ZM41.6598 36.6499C41.7598 36.5699 41.8098 36.4499 41.8098 36.2899C41.8098 36.1299 41.7598 36.0199 41.6598 35.9299C41.5598 35.8499 41.4098 35.8099 41.2198 35.8099H40.6998V36.7799H41.2198C41.4098 36.7799 41.5598 36.7399 41.6598 36.6599V36.6499Z" fill="#323334"/>
</svg>
