<svg width="64" height="36" viewBox="0 0 64 36" fill="none" xmlns="http://www.w3.org/2000/svg">
<path d="M3.98975 26.51C0.819746 26.54 0.759766 29.55 0.759766 29.55H2.57974C2.57974 29.2 2.68976 28 4.03976 27.98C5.38976 27.96 5.44977 29.05 5.44977 29.05H7.26974C7.26974 29.05 7.15975 26.48 3.98975 26.51Z" fill="#323334"/>
<path d="M36.7798 26.51C33.6098 26.54 33.5498 29.55 33.5498 29.55H35.3698C35.3698 29.2 35.4798 28 36.8298 27.98C38.1798 27.96 38.2398 29.05 38.2398 29.05H40.0598C40.0598 29.05 39.9498 26.48 36.7798 26.51Z" fill="#323334"/>
<path d="M36.8298 32.03C35.4798 32.01 35.3698 30.81 35.3698 30.46H33.5498C33.5498 30.46 33.6098 33.47 36.7798 33.5C39.9498 33.53 40.0598 30.96 40.0598 30.96H38.2398C38.2398 30.96 38.1798 32.04 36.8298 32.03Z" fill="#323334"/>
<path d="M49.0796 28.4395C46.6896 28.4595 46.6396 30.4294 46.6396 30.4294H48.0096C48.0096 30.1694 48.2496 29.5694 49.1096 29.5594C50.1296 29.5394 50.1796 30.3694 50.1796 30.3694H51.5496C51.5496 30.3694 51.4696 28.4294 49.0696 28.4494L49.0796 28.4395Z" fill="#323334"/>
<path d="M49.1204 32.5999C48.1004 32.5899 48.0204 31.6799 48.0204 31.4199H46.6504C46.6504 31.4199 46.7004 33.6899 49.0904 33.7199C51.4804 33.7399 51.5704 31.7999 51.5704 31.7999H50.2004C50.2004 31.7999 50.1504 32.6199 49.1304 32.6099L49.1204 32.5999Z" fill="#323334"/>
<path d="M4.34 29.7402V30.9602H5.75L5.67999 31.0002C5.67999 31.0002 5.38 32.0802 4.03 32.0702C2.68 32.0502 2.57001 30.8502 2.57001 30.5002H0.75C0.75 30.5002 0.810011 33.5102 3.98001 33.5402C4.92001 33.5402 5.59001 33.2602 6.07001 32.8502V33.5402H7.26001V29.7402H4.32999H4.34Z" fill="#323334"/>
<path d="M15.81 31.63C15.64 31.89 15.32 32.29 14.87 32.28C14.2 32.27 14.11 31.64 14.11 31.64V28.54H12.46V31.64C12.46 32.23 12.57 33.6 14.11 33.68C15.44 33.74 15.81 32.83 15.81 32.83V33.54H17.46V28.54H15.81V31.64V31.63Z" fill="#323334"/>
<path d="M59.9596 28.5303H58.3096V33.5303H59.9596V28.5303Z" fill="#323334"/>
<path d="M59.9596 26.6895H58.3096V27.8995H59.9596V26.6895Z" fill="#323334"/>
<path d="M10.0396 29.21V28.53H8.38965V33.53H10.0396V30.95C10.2496 29.46 11.8396 30.15 11.8396 30.15V28.34C10.7596 28.33 10.2696 28.81 10.0396 29.21Z" fill="#323334"/>
<path d="M21.6202 28.3499C20.8702 28.3599 20.4003 28.7299 20.1403 29.0199V28.5399H18.4902V35.1999H20.1403V33.0599C20.4703 33.3699 21.0302 33.6999 21.7702 33.6799C22.8702 33.6599 23.7402 32.5899 23.7402 31.0399C23.7402 29.4899 22.8502 28.3299 21.6202 28.3499ZM21.0802 32.3899C20.4002 32.3999 20.1403 31.7599 20.1403 31.7599V30.2199C20.3203 29.8199 20.6502 29.5899 21.1102 29.6099C21.7502 29.6299 22.0603 30.1599 22.0703 30.9599C22.0803 31.7599 21.7503 32.3799 21.0703 32.3899H21.0802Z" fill="#323334"/>
<path d="M27.0599 28.4395C25.5999 28.4395 24.4199 29.6195 24.4199 31.0795C24.4199 32.5395 25.5999 33.7195 27.0599 33.7195C28.5199 33.7195 29.6999 32.5395 29.6999 31.0795C29.6999 29.6195 28.5199 28.4395 27.0599 28.4395ZM27.0299 32.3094C26.3299 32.3094 26.0499 31.7595 26.0499 31.0795C26.0499 30.3995 26.3799 29.8494 27.0299 29.8494C27.7299 29.8494 28.0099 30.3995 28.0099 31.0795C28.0099 31.7595 27.7499 32.3094 27.0299 32.3094Z" fill="#323334"/>
<path d="M43.1898 28.4395C41.7298 28.4395 40.5498 29.6195 40.5498 31.0795C40.5498 32.5395 41.7298 33.7195 43.1898 33.7195C44.6498 33.7195 45.8298 32.5395 45.8298 31.0795C45.8298 29.6195 44.6498 28.4395 43.1898 28.4395ZM43.1598 32.3094C42.4598 32.3094 42.1798 31.7595 42.1798 31.0795C42.1798 30.3995 42.5098 29.8494 43.1598 29.8494C43.8598 29.8494 44.1398 30.3995 44.1398 31.0795C44.1398 31.7595 43.8798 32.3094 43.1598 32.3094Z" fill="#323334"/>
<path d="M54.8997 28.4399C53.4397 28.4399 52.2598 29.6199 52.2598 31.0799C52.2598 32.5399 53.4397 33.7199 54.8997 33.7199C56.0497 33.7199 57.0298 32.9899 57.3898 31.9599H55.8798C55.6998 32.3299 55.3797 32.5599 54.8597 32.5599C54.1297 32.5599 53.7798 32.0699 53.6898 31.3999H57.5197C57.5297 31.2899 57.5398 31.1799 57.5398 31.0599C57.5398 29.5999 56.3597 28.4199 54.8997 28.4199V28.4399ZM53.7498 30.5099C53.8998 29.9699 54.2698 29.5899 54.8698 29.5899C55.5098 29.5899 55.8598 29.9699 55.9998 30.5099H53.7598H53.7498Z" fill="#323334"/>
<path d="M62.8301 27.6002C62.9701 27.5402 63.0701 27.4502 63.0701 27.3202C63.0701 27.2102 63.0201 27.1202 62.9601 27.0702C62.8801 27.0202 62.7801 26.9902 62.5601 26.9902C62.3701 26.9902 62.2201 27.0002 62.1201 27.0302V28.1802H62.3901V27.7202H62.5201C62.6701 27.7202 62.7401 27.7802 62.7601 27.9002C62.8001 28.0302 62.8201 28.1402 62.8501 28.1802H63.1401C63.1401 28.1802 63.0901 28.0702 63.0601 27.8902C63.0301 27.7402 62.9601 27.6502 62.8501 27.6102L62.8301 27.6002ZM62.5101 27.5202H62.3801V27.1902C62.3801 27.1902 62.4601 27.1802 62.5301 27.1802C62.7001 27.1802 62.7801 27.2502 62.7801 27.3602C62.7801 27.4802 62.6601 27.5302 62.5101 27.5302V27.5202Z" fill="#323334"/>
<path d="M62.5599 26.4199C61.8999 26.4199 61.3799 26.9299 61.3799 27.5699C61.3799 28.2099 61.9099 28.7299 62.5599 28.7299C63.2099 28.7299 63.7399 28.2199 63.7399 27.5699C63.7399 26.9199 63.2299 26.4199 62.5599 26.4199ZM62.5699 28.4799C62.0499 28.4799 61.6699 28.0699 61.6699 27.5599C61.6699 27.0499 62.0499 26.6399 62.5599 26.6399C63.0699 26.6399 63.4399 27.0499 63.4399 27.5699C63.4399 28.0899 63.0699 28.4799 62.5599 28.4799H62.5699Z" fill="#323334"/>
<path d="M37.3498 17.45V11.29L32.0098 14.37L37.3498 17.45Z" fill="#323334"/>
<path d="M43.6203 13.8299V7.66992L38.2803 10.7499L43.6203 13.8299Z" fill="#323334"/>
<path d="M38 4.08984V10.2598L43.34 7.17985L38 4.08984Z" fill="#323334"/>
<path d="M38 11.29V17.45L43.34 14.37L38 11.29Z" fill="#323334"/>
<path d="M31.7598 0.669922V6.83992L37.0998 3.74992L31.7598 0.669922Z" fill="#323334"/>
<path d="M31.7598 7.66992V13.8299L37.0998 10.7499L31.7598 7.66992Z" fill="#323334"/>
<path d="M31.7598 14.7402V20.9102L37.0998 17.8202L31.7598 14.7402Z" fill="#323334"/>
<path d="M18.8799 7.66992V13.8299L24.2199 10.7499L18.8799 7.66992Z" fill="#323334"/>
<path d="M25.1797 4.08984V10.2598L30.5297 7.17985L25.1797 4.08984Z" fill="#323334"/>
<path d="M25.1797 11.29V17.45L30.5297 14.37L25.1797 11.29Z" fill="#323334"/>
<path d="M24.4396 17.4395V11.2695L19.0996 14.3595L24.4396 17.4395Z" fill="#323334"/>
<path d="M30.8996 20.9102V14.7402L25.5596 17.8202L30.8996 20.9102Z" fill="#323334"/>
</svg>
