<svg width="47" height="36" viewBox="0 0 47 36" fill="none" xmlns="http://www.w3.org/2000/svg">
<path d="M7.26044 18.1094C7.26044 18.1094 7.91044 18.5994 7.92044 19.7394L7.95044 22.8594H3.89044L3.92044 19.7394C3.92044 18.6194 4.58041 18.1094 4.58041 18.1094H0.94043C0.94043 18.1094 1.60043 18.6194 1.60043 19.7394L1.68042 27.4294C1.68042 28.5794 1.02042 29.1494 1.02042 29.1494H4.51044C4.51044 29.1494 3.85043 28.5794 3.85043 27.4294L3.88043 24.3494H7.96042L7.99042 27.4294C7.99042 28.5794 7.33041 29.1494 7.33041 29.1494H10.9404C10.9404 29.1494 10.2804 28.5694 10.2804 27.4294L10.3604 19.7394C10.3604 18.6194 11.0104 18.1094 11.0104 18.1094H7.26044Z" fill="#323334"/>
<path d="M43.1806 19.7598C43.8906 19.7598 44.4706 19.2199 44.4706 18.5499C44.4706 17.8799 43.8906 17.3398 43.1806 17.3398C42.4706 17.3398 41.8906 17.8799 41.8906 18.5499C41.8906 19.2199 42.4706 19.7598 43.1806 19.7598Z" fill="#323334"/>
<path d="M44.1806 27.4196C44.1806 27.1996 44.2706 20.5996 44.2706 20.5996C43.0706 21.0096 41.6406 20.8796 41.6406 20.8796C41.6406 20.8796 42.1506 21.4596 42.1906 22.2396C42.2806 24.0096 42.2606 27.4196 42.2606 27.4196C42.2606 28.5696 41.6006 29.1196 41.6006 29.1196H44.8506C44.8506 29.1196 44.1906 28.5596 44.1906 27.4196H44.1806Z" fill="#323334"/>
<path d="M22.0201 22.2799L22.0401 20.6299C20.8401 21.0399 19.4101 20.9099 19.4101 20.9099C19.4101 20.9099 19.9001 21.3699 19.9601 22.2699C20.0501 23.7399 20.0301 27.4199 20.0301 27.4199C20.0301 28.5699 19.3701 29.1399 19.3701 29.1399H22.6201C22.6201 29.1399 21.9601 28.5699 21.9601 27.3999C21.9601 24.2999 22.3301 22.4099 23.7101 22.4099C24.5301 22.4099 25.0901 23.1899 25.0901 23.1899V20.8099C24.5701 20.9699 22.9701 20.6999 22.0201 22.2699V22.2799Z" fill="#323334"/>
<path d="M46.9103 27.8001C46.9103 28.3701 46.5403 28.7401 45.9703 28.7401C45.4003 28.7401 45.0303 28.3701 45.0303 27.8001C45.0303 27.2301 45.4003 26.8701 45.9703 26.8701C46.5403 26.8701 46.9103 27.2401 46.9103 27.8001ZM46.7503 27.8001C46.7503 27.3401 46.4403 27.0301 45.9803 27.0301C45.5203 27.0301 45.2103 27.3401 45.2103 27.8001C45.2103 28.2601 45.5203 28.5801 45.9803 28.5801C46.4403 28.5801 46.7503 28.2701 46.7503 27.8001ZM46.2003 27.8801C46.2803 28.0001 46.3603 28.1101 46.4503 28.2101V28.2401C46.3703 28.2701 46.2903 28.2801 46.2103 28.2901L46.1803 28.2701C46.1103 28.1701 46.0503 28.0601 46.0003 27.9601H45.8403V28.2801H45.6103V27.9901V27.2901H46.0403C46.2603 27.2901 46.3903 27.4001 46.3903 27.5901C46.3903 27.7101 46.3203 27.8101 46.2003 27.8801ZM46.0003 27.7701C46.0903 27.7301 46.1303 27.6901 46.1303 27.6101C46.1303 27.5101 46.0703 27.4701 45.9503 27.4601H45.8503V27.7601H46.0103L46.0003 27.7701Z" fill="#323334"/>
<path d="M18.3306 27.4203L18.4206 23.3003C18.4206 21.9103 17.7206 20.8203 15.4406 20.8203C14.7606 20.8203 12.5406 21.0203 12.0406 20.8203V23.0603C12.0406 23.0603 13.3306 22.1203 14.7906 22.1203C15.4406 22.1203 16.3406 22.2003 16.3406 23.1303L16.3606 24.0703H14.3406C13.1406 24.0703 11.6406 24.8303 11.6406 26.9503C11.6406 28.7103 12.9306 29.2703 14.0106 29.2703C15.2606 29.2703 15.9106 28.2703 16.3906 27.1103L16.3006 29.1403H18.9806C18.9806 29.1403 18.3206 28.5703 18.3206 27.4203H18.3306ZM14.5906 27.5303C14.0606 27.5303 13.6806 27.0303 13.6806 26.5303C13.6806 25.6603 14.2406 25.1903 14.8806 25.1803C15.3106 25.1803 15.9106 25.1803 16.2606 25.1803C16.0806 25.7303 15.7406 27.5403 14.5806 27.5403L14.5906 27.5303Z" fill="#323334"/>
<path d="M32.3502 27.4203L32.4402 23.3003C32.4402 21.9103 31.7401 20.8203 29.4601 20.8203C28.7801 20.8203 26.5602 21.0203 26.0602 20.8203V23.0603C26.0602 23.0603 27.3502 22.1203 28.8102 22.1203C29.4602 22.1203 30.3601 22.2003 30.3601 23.1303L30.3802 24.0703H28.3601C27.1601 24.0703 25.6602 24.8303 25.6602 26.9503C25.6602 28.7103 26.9502 29.2703 28.0302 29.2703C29.2802 29.2703 29.9302 28.2703 30.4102 27.1103L30.3202 29.1403H33.0002C33.0002 29.1403 32.3401 28.5703 32.3401 27.4203H32.3502ZM28.6002 27.5303C28.0702 27.5303 27.6902 27.0303 27.6902 26.5303C27.6902 25.6603 28.2502 25.1903 28.8902 25.1803C29.3202 25.1803 29.9201 25.1803 30.2701 25.1803C30.0901 25.7303 29.7501 27.5403 28.5901 27.5403L28.6002 27.5303Z" fill="#323334"/>
<path d="M37.1706 20.8096C34.2406 20.8096 33.6006 22.7396 33.6006 24.8496C33.6006 28.3596 35.4206 28.8996 36.2706 28.8996C37.0706 28.8996 37.7806 28.3596 38.3806 27.0596L38.4006 28.1496C38.4006 29.8396 37.8706 30.5096 36.6306 30.5096C35.5706 30.5096 33.9406 29.7896 33.6506 29.2696V31.9896H37.0606C39.6906 31.9896 40.3206 29.7196 40.3206 28.0096L40.3806 20.8096C39.1906 21.0696 38.0206 20.8096 37.1606 20.8096H37.1706ZM36.6106 27.2696C35.7906 27.2696 35.7906 25.6696 35.7906 24.7596C35.7906 22.6996 36.5306 22.3596 37.0806 22.3596H38.3006L38.3306 24.0996C38.3306 25.4596 37.6406 27.2696 36.6206 27.2696H36.6106Z" fill="#323334"/>
<path d="M6.41058 11.7699L6.78058 12.1299V12.1498C6.73058 12.1698 6.66058 12.2798 6.66058 12.2798L6.01059 13.3799L5.98059 13.3598C5.98059 13.3598 5.94057 13.2099 5.80057 13.1299L4.42059 12.3199C4.27059 12.2299 4.16058 12.2699 4.13058 12.2699L4.10059 12.2498L4.65057 11.3199C4.65057 11.3199 4.75057 11.1598 4.74057 11.1098V11.0898L5.19058 11.3499V11.3698C5.19058 11.3698 5.02057 11.3299 4.93057 11.4899L4.69058 11.8898L5.13058 12.1498L5.39059 11.7099C5.39059 11.7099 5.41059 11.6398 5.39059 11.6098L5.74057 11.7999C5.74057 11.7999 5.68058 11.8298 5.66058 11.8598L5.40057 12.2999L6.02057 12.6698L6.36057 12.0999C6.45057 11.9399 6.38057 11.7998 6.36057 11.7798L6.39059 11.7498L6.41058 11.7699Z" fill="#323334"/>
<path d="M8.341 9.94972L7.83099 10.6197L7.80099 10.5997C7.80099 10.5997 7.71101 10.4997 7.47101 10.4697L6.901 10.3897L7.151 10.9497C7.221 11.0997 7.29101 11.1997 7.35101 11.1997L7.38101 11.2197L7.01102 11.6997L6.98102 11.6797C7.02102 11.5697 7.01101 11.3897 6.91101 11.1797L6.53101 10.3397L5.76102 10.2397C5.57102 10.2097 5.42101 10.2397 5.32101 10.3097L5.29102 10.2897L5.80099 9.61972L5.83099 9.63972C5.83099 9.63972 5.92101 9.73973 6.16101 9.76973L6.50101 9.81973L6.341 9.46973C6.271 9.31973 6.20102 9.21973 6.14102 9.21973L6.11099 9.19972L6.48102 8.71973L6.51102 8.73973C6.47102 8.84973 6.48099 9.02973 6.58099 9.23973L6.871 9.86972L7.871 10.0097C8.061 10.0297 8.211 10.0097 8.311 9.92972L8.341 9.94972Z" fill="#323334"/>
<path d="M8.39056 8.53927L8.85056 8.97927C8.97056 9.09927 9.09054 9.08927 9.12054 9.08927L9.14056 9.10928L8.64056 9.62928L8.62054 9.60928C8.62054 9.60928 8.62055 9.45927 8.50055 9.33927L7.35056 8.22927C7.23056 8.10927 7.11054 8.11927 7.08054 8.11927L7.06055 8.09928L7.56055 7.57928C7.94055 7.18928 8.31055 7.09927 8.63055 7.39927C8.99055 7.74927 8.86055 8.12928 8.47055 8.52928C8.47055 8.52928 8.47056 8.52928 8.45056 8.54928H8.39056V8.53927ZM7.70056 7.87928L8.34055 8.49928C8.34055 8.49928 8.36053 8.47928 8.36053 8.46928C8.50053 8.32928 8.50055 8.06928 8.28055 7.85928C8.05055 7.63928 7.86055 7.69927 7.69055 7.86927L7.70056 7.87928Z" fill="#323334"/>
<path d="M11.0302 6.75937L11.2502 7.22937L11.2302 7.24937L11.0902 7.33937L10.1102 8.15938L10.0902 8.13937C10.0902 8.13937 10.1102 7.98937 10.0002 7.85938L8.98019 6.62938C8.87019 6.49938 8.75018 6.48938 8.72018 6.48938L8.7002 6.46938L9.53018 5.77937C9.53018 5.77937 9.68019 5.65938 9.69019 5.60938H9.71017L10.0402 5.98938H10.0202C10.0202 5.98938 9.88017 5.90937 9.74017 6.02937L9.38019 6.32938L9.71017 6.72937L10.1002 6.40938C10.1002 6.40938 10.1402 6.34938 10.1402 6.31938L10.4002 6.61937C10.4002 6.61937 10.3402 6.61937 10.3002 6.64937L9.91019 6.96938L10.3702 7.52937L10.8802 7.10938C11.0202 6.98938 10.9902 6.82937 10.9902 6.80937H11.0202L11.0302 6.75937Z" fill="#323334"/>
<path d="M13.5707 5.5892L13.5907 5.61919L13.2107 5.8592C12.9807 6.0092 12.8407 6.0392 12.4407 5.8292C11.9707 5.5892 11.8607 5.52919 11.7407 5.61919C11.7407 5.61919 11.7307 5.6192 11.7207 5.6292H11.6707L12.0707 6.2392C12.1607 6.3792 12.2807 6.3992 12.3107 6.4092L12.3307 6.4392L11.7207 6.8392L11.7007 6.8092C11.7007 6.8092 11.7307 6.6592 11.6407 6.5192L10.7707 5.17919C10.6807 5.03919 10.5607 5.01919 10.5307 5.00919L10.5107 4.97919L11.1107 4.5892C11.5607 4.2992 11.9107 4.2792 12.1307 4.6292C12.2507 4.8092 12.2207 5.0692 12.1307 5.2392C12.2407 5.2292 12.4607 5.31919 12.7007 5.42919C13.2207 5.64919 13.4407 5.6492 13.5607 5.5992L13.5707 5.5892ZM11.6507 5.56921C11.8107 5.44921 11.9007 5.2192 11.7507 4.9892C11.6107 4.7792 11.4507 4.74919 11.2107 4.89919L11.6507 5.56921Z" fill="#323334"/>
<path d="M13.6009 3.49969L14.3209 4.92969C14.4009 5.07969 14.5109 5.1197 14.5409 5.1297V5.1597L13.9009 5.4897V5.4597C13.9009 5.4597 13.9309 5.31969 13.8609 5.16969L13.1409 3.7397C13.0609 3.5897 12.9509 3.54969 12.9209 3.53969V3.50969L13.5609 3.17969V3.2097C13.5609 3.2097 13.5209 3.34969 13.6009 3.50969V3.49969Z" fill="#323334"/>
<path d="M16.361 3.8298L16.441 4.3398H16.421L16.261 4.3898L15.081 4.87981V4.84981C15.081 4.84981 15.131 4.7098 15.061 4.5498L14.451 3.06981C14.381 2.90981 14.271 2.8698 14.251 2.8598V2.8298L15.241 2.40981C15.241 2.40981 15.421 2.3398 15.441 2.2998H15.461L15.661 2.76981H15.641C15.641 2.76981 15.541 2.6498 15.371 2.7198L14.941 2.8998L15.141 3.37981L15.611 3.1898C15.611 3.1898 15.671 3.1398 15.671 3.1198H15.681L15.841 3.48981H15.831C15.831 3.48981 15.771 3.46981 15.731 3.48981L15.261 3.67979L15.541 4.34981L16.151 4.09981C16.321 4.02981 16.341 3.8698 16.351 3.8398H16.391L16.361 3.8298Z" fill="#323334"/>
<path d="M18.4107 1.39941V1.42941C18.4107 1.42941 18.3707 1.52942 18.4007 1.63942L18.9407 3.54942L18.8007 3.58942L17.0407 2.58942L17.3707 3.74942C17.4007 3.85942 17.4807 3.90942 17.5007 3.91942V3.94942L17.0507 4.07942V4.04942C17.0507 4.04942 17.0907 3.94942 17.0607 3.83942L16.6107 2.21942C16.5607 2.05942 16.4607 1.99943 16.4307 1.98943V1.95943L16.8407 1.83942L18.3807 2.71942L18.1007 1.72942C18.0707 1.61942 18.0007 1.56942 17.9707 1.55942V1.52942L18.4207 1.39941H18.4107Z" fill="#323334"/>
<path d="M21.4206 2.59921L21.3306 3.0892C21.2006 3.1592 21.0306 3.2492 20.7106 3.2892C19.9606 3.3992 19.5606 3.0792 19.4006 2.4992C19.2206 1.8692 19.5706 1.2192 20.2206 1.0492C20.2806 1.0292 20.3506 1.01921 20.4106 1.01921C20.6406 0.989206 20.8006 1.0092 20.9606 1.0292L21.0206 1.42919H20.9906C20.8306 1.35919 20.6106 1.2692 20.3306 1.3592C19.9006 1.4892 19.8506 1.9592 19.9606 2.3592C20.0906 2.8292 20.4006 3.0492 20.8506 2.9492C21.0406 2.9092 21.2306 2.8092 21.4106 2.5892H21.4406L21.4206 2.59921Z" fill="#323334"/>
<path d="M22.5208 1.19965L22.6009 2.79965C22.6009 2.96965 22.7009 3.04966 22.7209 3.06966V3.09966L21.9908 3.12965V3.09966C21.9908 3.09966 22.0908 2.98966 22.0808 2.81966L22.0009 1.21965C22.0009 1.04965 21.9009 0.969646 21.8809 0.949646V0.919647L22.6108 0.889648V0.919647C22.6108 0.919647 22.5109 1.02965 22.5109 1.19965H22.5208Z" fill="#323334"/>
<path d="M24.6002 3.12965V3.09966C24.6602 3.04966 24.6902 2.94964 24.6302 2.75964L24.5402 2.49965L23.8502 2.45966L23.7401 2.72964C23.6801 2.87964 23.6702 2.99965 23.7202 3.05965V3.08965L23.1602 3.05965V3.02965C23.2502 2.99965 23.3302 2.85966 23.4102 2.70966L24.0302 1.30965C24.1402 1.05965 24.1002 0.949647 24.0702 0.919647V0.889648L24.5302 0.909653L25.1902 2.79965C25.2402 2.93965 25.3302 3.08965 25.4202 3.12965V3.15965L24.6101 3.11964L24.6002 3.12965ZM24.4402 2.16965L24.2401 1.53964L23.9802 2.13965L24.4402 2.15965V2.16965Z" fill="#323334"/>
<path d="M28.5809 3.29953L28.3409 3.75952H28.3209L28.1609 3.69952L26.9209 3.41953V3.38953C26.9209 3.38953 27.0609 3.30952 27.0909 3.14952L27.4509 1.58952C27.4909 1.41952 27.4209 1.31953 27.4109 1.29953V1.26953L28.4709 1.50952C28.4709 1.50952 28.6609 1.55953 28.7009 1.52953H28.7209L28.6109 2.03952H28.5909C28.5909 2.03952 28.5809 1.86953 28.4009 1.82953L27.9409 1.72952L27.8309 2.22952L28.3209 2.33952C28.3209 2.33952 28.4009 2.33953 28.4209 2.31953H28.4309L28.3409 2.71953H28.3309C28.3309 2.71953 28.2909 2.65952 28.2509 2.64952L27.7609 2.53952L27.6009 3.24953L28.2409 3.39952C28.4209 3.43952 28.5309 3.31952 28.5509 3.30952L28.5809 3.32953V3.29953Z" fill="#323334"/>
<path d="M31.6602 2.51933V2.54933C31.6602 2.54933 31.5503 2.59934 31.5103 2.70934L30.8402 4.57933L30.7003 4.52933L29.8503 2.69933L29.4402 3.83932C29.4002 3.94932 29.4403 4.02933 29.4503 4.04933V4.07933L28.9902 3.91933V3.88933C28.9902 3.88933 29.1003 3.83932 29.1403 3.72932L29.7102 2.14932C29.7702 1.98932 29.7103 1.87933 29.7003 1.84933V1.81934L30.1202 1.96933L30.8702 3.57933L31.2202 2.60933C31.2602 2.49933 31.2202 2.41932 31.2202 2.39932V2.36932L31.6802 2.52933L31.6602 2.51933Z" fill="#323334"/>
<path d="M34.3808 5.83001L34.0008 6.16002C33.8608 6.14002 33.6708 6.09 33.3908 5.93C32.7408 5.55 32.6208 5.05002 32.8508 4.49002C33.1008 3.89002 33.7808 3.60001 34.3908 3.87001C34.4508 3.90001 34.5108 3.93002 34.5608 3.96002C34.7608 4.08002 34.8808 4.20001 34.9808 4.31001L34.7808 4.66002L34.7508 4.64001C34.6808 4.48001 34.5608 4.28002 34.2808 4.16002C33.8708 4.00002 33.5308 4.33002 33.3708 4.71002C33.1808 5.16002 33.2908 5.53001 33.7008 5.73001C33.8808 5.82001 34.0908 5.85001 34.3608 5.80001L34.3808 5.83001Z" fill="#323334"/>
<path d="M35.5404 7.36972L35.5604 7.33972C35.6404 7.32972 35.7204 7.26973 35.7804 7.07973L35.8604 6.80972L35.3104 6.38972L35.0604 6.53972C34.9204 6.62972 34.8504 6.71973 34.8604 6.79973L34.8404 6.82973L34.4004 6.48973L34.4204 6.45973C34.5104 6.48973 34.6604 6.41972 34.8004 6.33972L36.1004 5.53972C36.3304 5.39972 36.3704 5.27973 36.3504 5.23973L36.3704 5.21973L36.7404 5.49973L36.2104 7.42972C36.1704 7.57972 36.1504 7.74973 36.2104 7.82973L36.1904 7.84973L35.5504 7.34973L35.5404 7.36972ZM35.9604 6.48973L36.1504 5.85973L35.5904 6.20973L35.9604 6.48973Z" fill="#323334"/>
<path d="M38.0902 9.69933L38.0703 9.71933L37.7502 9.39932C37.5502 9.19932 37.5002 9.06933 37.6202 8.63933C37.7602 8.12933 37.7902 8.00933 37.6902 7.90933C37.6902 7.90933 37.6803 7.89933 37.6703 7.88933V7.83932L37.1502 8.35933C37.0302 8.47933 37.0302 8.59933 37.0302 8.62933L37.0103 8.64932L36.4902 8.12933L36.5103 8.10933C36.5103 8.10933 36.6602 8.10933 36.7802 7.98933L37.9102 6.85933C38.0302 6.73933 38.0302 6.61932 38.0302 6.58932L38.0502 6.56934L38.5602 7.07933C38.9402 7.45933 39.0203 7.79932 38.7303 8.08932C38.5803 8.23932 38.3202 8.26934 38.1302 8.20934C38.1602 8.31934 38.1202 8.53933 38.0602 8.80933C37.9502 9.36933 37.9903 9.57933 38.0703 9.68933L38.0902 9.69933ZM37.7102 7.80933C37.8602 7.93933 38.1102 7.97932 38.3002 7.78932C38.4802 7.60932 38.4702 7.43933 38.2802 7.23933L37.7102 7.80933Z" fill="#323334"/>
<path d="M41.2903 10.2899L41.2603 10.3099C41.2603 10.3099 41.1503 10.2999 41.0603 10.3699L39.4803 11.5699L39.3903 11.4499L39.6703 9.44987L38.7103 10.1799C38.6203 10.2499 38.6103 10.3399 38.6003 10.3599L38.5703 10.3799L38.2803 9.99988L38.3103 9.97987C38.3103 9.97987 38.4203 9.98988 38.5103 9.91988L39.8403 8.89987C39.9803 8.79987 39.9903 8.67987 39.9903 8.64987L40.0203 8.62988L40.2803 8.96988L40.0303 10.7299L40.8503 10.0999C40.9403 10.0299 40.9603 9.94988 40.9603 9.91988L40.9903 9.89987L41.2803 10.2799L41.2903 10.2899Z" fill="#323334"/>
<path d="M41.0406 13.2295L40.5406 13.3795V13.3595L40.4605 13.2095L39.8105 12.1095L39.8405 12.0895C39.8405 12.0895 39.9806 12.1295 40.1306 12.0395L41.5106 11.2295C41.6606 11.1395 41.6806 11.0295 41.6906 10.9995L41.7206 10.9795L42.2705 11.9095C42.2705 11.9095 42.3606 12.0795 42.4106 12.0895V12.1095L41.9806 12.3695V12.3495C41.9806 12.3495 42.0806 12.2295 41.9806 12.0695L41.7405 11.6695L41.3005 11.9295L41.5605 12.3695C41.5605 12.3695 41.6206 12.4195 41.6406 12.4195L41.2906 12.6395C41.2906 12.6395 41.3006 12.5695 41.2906 12.5295L41.0305 12.0895L40.4106 12.4595L40.7405 13.0295C40.8305 13.1895 40.9905 13.1895 41.0205 13.1895V13.2195L41.0406 13.2295Z" fill="#323334"/>
<path d="M37.8607 35.7492H37.8207C37.6007 35.7492 37.4207 35.5692 37.4207 35.3492C37.4207 35.1292 37.6007 34.9492 37.8207 34.9492C38.0407 34.9492 38.2407 35.1292 38.2407 35.3492C38.2407 35.5692 38.0807 35.7492 37.8607 35.7492ZM35.0107 35.7492H34.9707C34.7507 35.7492 34.5707 35.5692 34.5707 35.3492C34.5707 35.1292 34.7507 34.9492 34.9707 34.9492H35.0107C35.2307 34.9492 35.4107 35.1292 35.4107 35.3492C35.4107 35.5692 35.2307 35.7492 35.0107 35.7492ZM32.1707 35.7492H32.1307C31.9107 35.7492 31.7307 35.5692 31.7307 35.3492C31.7307 35.1292 31.9107 34.9492 32.1307 34.9492C32.3507 34.9492 32.5507 35.1292 32.5507 35.3492C32.5507 35.5692 32.3907 35.7492 32.1707 35.7492ZM29.3207 35.7492H29.2807C29.0607 35.7492 28.8807 35.5692 28.8807 35.3492C28.8807 35.1292 29.0607 34.9492 29.2807 34.9492H29.3207C29.5407 34.9492 29.7207 35.1292 29.7207 35.3492C29.7207 35.5692 29.5407 35.7492 29.3207 35.7492ZM26.4807 35.7492H26.4407C26.2207 35.7492 26.0407 35.5692 26.0407 35.3492C26.0407 35.1292 26.2207 34.9492 26.4407 34.9492C26.6607 34.9492 26.8607 35.1292 26.8607 35.3492C26.8607 35.5692 26.7007 35.7492 26.4807 35.7492ZM23.6407 35.7492H23.6007C23.3807 35.7492 23.2007 35.5692 23.2007 35.3492C23.2007 35.1292 23.3807 34.9492 23.6007 34.9492C23.8207 34.9492 24.0207 35.1292 24.0207 35.3492C24.0207 35.5692 23.8607 35.7492 23.6407 35.7492ZM20.7907 35.7492H20.7507C20.5307 35.7492 20.3507 35.5692 20.3507 35.3492C20.3507 35.1292 20.5307 34.9492 20.7507 34.9492H20.7907C21.0107 34.9492 21.1907 35.1292 21.1907 35.3492C21.1907 35.5692 21.0107 35.7492 20.7907 35.7492ZM17.9507 35.7492H17.9107C17.6907 35.7492 17.5107 35.5692 17.5107 35.3492C17.5107 35.1292 17.6907 34.9492 17.9107 34.9492C18.1307 34.9492 18.3307 35.1292 18.3307 35.3492C18.3307 35.5692 18.1707 35.7492 17.9507 35.7492ZM15.1007 35.7492H15.0607C14.8407 35.7492 14.6607 35.5692 14.6607 35.3492C14.6607 35.1292 14.8407 34.9492 15.0607 34.9492H15.1007C15.3207 34.9492 15.5007 35.1292 15.5007 35.3492C15.5007 35.5692 15.3207 35.7492 15.1007 35.7492ZM12.2607 35.7492H12.2207C12.0007 35.7492 11.8207 35.5692 11.8207 35.3492C11.8207 35.1292 12.0007 34.9492 12.2207 34.9492C12.4407 34.9492 12.6407 35.1292 12.6407 35.3492C12.6407 35.5692 12.4807 35.7492 12.2607 35.7492ZM9.41071 35.7492H9.3707C9.1507 35.7492 8.9707 35.5692 8.9707 35.3492C8.9707 35.1292 9.1507 34.9492 9.3707 34.9492C9.5907 34.9492 9.79071 35.1292 9.79071 35.3492C9.79071 35.5692 9.63071 35.7492 9.41071 35.7492Z" fill="#323334"/>
<path d="M13.1409 15.7193C13.0509 15.7193 12.9209 15.6193 12.9209 15.4293C12.9209 15.2393 13.4309 14.6693 15.0609 14.0093C16.6809 13.3493 18.1309 13.1493 19.2309 11.8393C19.5909 11.4193 19.7409 11.2193 19.8909 11.3293C20.0809 11.4593 19.6009 12.3693 18.3709 12.9593C19.6009 12.6893 21.0209 11.3793 21.6609 10.5493C22.2909 9.71929 22.8409 9.87928 22.5809 10.4293C22.3309 10.9793 20.7809 12.3793 19.8509 12.7693C20.1909 12.7793 22.0009 12.2793 22.9609 11.6893C23.6709 11.2493 24.3709 10.4693 24.6409 10.7093C24.9109 10.9593 24.2009 11.5593 23.0509 12.0693C21.7009 12.6693 20.7909 12.8493 20.7909 12.8493C20.7909 12.8493 22.5009 13.0193 23.3509 13.0193C25.5609 13.0193 27.1509 11.5393 27.8309 11.3793C28.3409 11.2593 28.3109 12.6893 24.1309 13.2293C24.1309 13.2293 25.4309 13.6493 26.4809 13.6493C28.4209 13.6493 29.2409 12.7293 29.6709 12.7293C30.1409 12.7293 29.5809 13.8893 26.8509 13.8893C26.8509 13.8893 28.1209 14.3093 28.8009 14.3093C30.7009 14.3093 31.9309 12.2593 32.3509 12.4693C32.8309 12.7093 31.3209 14.5093 29.1409 14.5093C29.1409 14.5093 30.4209 14.6393 30.9909 14.6393C32.0009 14.6393 32.6909 13.4593 33.0309 13.6493C33.3409 13.8193 32.3909 14.5793 31.6609 14.6893C34.7009 14.3793 35.0909 12.8993 35.5309 13.1193C35.9409 13.3293 34.5509 14.5093 33.0909 14.6993C34.3909 14.8593 35.7409 15.4593 35.7409 15.7993C35.7409 15.8693 35.7009 15.9393 35.5509 15.9393C35.1909 15.9393 34.0809 14.7193 31.8809 14.9193C32.9009 15.2393 34.3409 16.2393 34.0009 16.5993C33.7609 16.8593 32.9709 15.2593 31.1809 15.0193C30.7109 14.9593 30.1509 14.9593 30.1509 14.9593C30.1509 14.9593 31.9309 15.6493 32.0609 16.3893C32.0909 16.5593 31.8509 16.6193 31.5609 16.2493C31.2709 15.8693 30.1009 14.9993 29.2109 14.8893C28.1609 14.7593 27.3909 14.5693 27.2509 14.4793L27.1109 14.3893C27.1109 14.3893 28.7609 15.3893 29.3809 15.9593C29.8209 16.3593 30.0409 16.7793 29.7509 16.9793C29.5109 17.1493 28.7609 16.2093 27.8109 15.3293C26.7609 14.3693 25.7109 13.8593 23.8609 13.6093C23.8609 13.6093 26.1409 14.8193 26.4709 15.5693C26.5909 15.8493 26.2809 16.1293 25.9109 15.6093C25.3209 14.7693 23.6809 13.5793 22.6809 13.4693C21.6809 13.3493 21.4209 13.3393 21.4209 13.3393C22.4609 13.7193 24.3909 14.8393 24.7709 16.2493C24.8509 16.5493 24.5209 16.7293 24.1709 16.3493C23.7609 15.9093 22.5309 13.5493 20.1609 13.4093C19.8509 13.3893 18.9809 13.4193 18.9809 13.4193C18.9809 13.4193 20.9809 13.7093 21.4209 14.5193C21.5209 14.7093 21.3009 14.7793 20.9709 14.5193C20.6609 14.2793 19.2909 13.4893 18.3209 13.5293C17.5709 13.5593 17.2009 13.7893 17.2009 13.7893C17.2009 13.7893 18.4209 13.8793 19.4809 14.4693C20.3409 14.9593 20.8609 15.4093 20.6609 15.5993C20.5509 15.7093 20.2809 15.6493 20.0309 15.4893C19.6909 15.2793 18.6509 14.1193 16.8209 14.1193C15.2809 14.1193 13.6009 15.7093 13.1709 15.7093L13.1409 15.7193Z" fill="#323334"/>
</svg>
