<svg xmlns="http://www.w3.org/2000/svg" width="457" height="218" viewBox="0 0 457 218" fill="none"><path d="M5.39 200.56V180.19C5.39 174.5 4.25 173.91 0 173.91V173.07H13.65V173.91C9.60001 173.91 8.26001 174.5 8.26001 180.19V188.9H28.39V180.19C28.39 174.5 27.25 173.91 23 173.91V173.07H36.65V173.91C32.6 173.91 31.26 174.5 31.26 180.19V200.56C31.26 206.25 32.4 206.84 36.65 206.84V207.68H23V206.84C27.25 206.84 28.39 206.25 28.39 200.56V190.03H8.26001V200.56C8.26001 206.25 9.40001 206.84 13.65 206.84V207.68H0V206.84C4.25 206.84 5.39 206.25 5.39 200.56Z" fill="white"></path><path d="M47.09 199.97L56.49 175.59L55.75 173.66V173.36C56.69 172.82 57.19 172.27 57.73 171.33H58.03L69.4 201C71.18 205.6 72.17 206.83 74.94 206.83V207.67H62.63V206.83C66.78 206.83 67.97 205.49 66.24 201L64.21 195.71H49.87L48.19 200.06C46.31 204.95 48.24 206.83 52.64 206.83V207.67H40.67V206.83C43.79 206.83 45.22 204.8 47.1 199.96L47.09 199.97ZM63.8 194.68L57.03 176.98L50.25 194.68H63.8Z" fill="white"></path><path d="M100.85 207.68H78.7L78.6 207.48L101.05 174.15H92.59C84.63 174.15 82.85 176.67 81.02 182.9L80.18 182.7L82.31 171.03L83.2 171.18C82.75 172.76 83.69 173.06 85.37 173.06H104.95L105.05 173.26L82.85 206.59H94.12C102.08 206.59 103.27 204.37 105.44 197L106.28 197.2L103.81 209.76L103.02 209.56C103.46 207.98 102.52 207.68 100.84 207.68H100.85Z" fill="white"></path><path d="M130.53 172.18C139.63 172.18 147.59 178.36 147.59 189.74C147.59 201.12 141.31 207.25 132.56 208.38C135.13 213.52 139.28 216.04 143.93 216.04C147.74 216.04 151.6 214.36 154.71 209.56L155.55 210.1C152.14 215.83 147.24 217.77 142.84 217.77C137.35 217.77 132.01 214.61 128.25 208.52C119.84 207.83 112.72 201.65 112.72 190.92C112.72 178.96 120.33 172.18 130.52 172.18H130.53ZM144.28 190.08C144.28 180.59 139.14 173.22 130.19 173.22C121.73 173.22 116.05 179.6 116.05 190.58C116.05 200.07 121.24 207.54 130.14 207.54C139.04 207.54 144.28 201.06 144.28 190.08Z" fill="white"></path><path d="M158.34 194.92V180.18C158.34 174.49 157.2 173.9 152.95 173.9V173.06H166.6V173.9C162.54 173.9 161.21 174.49 161.21 180.18V194.47C161.21 203.12 165.07 206.98 171.2 206.98C179.36 206.98 182.62 202.28 182.62 192.49V179.78C182.62 175.38 180.89 173.89 176.59 173.89V173.05H188.8V173.89C185.49 173.89 183.76 175.47 183.76 179.72V192.63C183.76 203.21 179.95 208.55 171.2 208.55C162.45 208.55 158.34 204.25 158.34 194.9V194.92Z" fill="white"></path><path d="M215.66 207.68H194.5V206.84C198.75 206.84 199.89 206.25 199.89 200.56V180.19C199.89 174.5 198.75 173.91 194.5 173.91V173.07H214.67C216.35 173.07 217.29 172.77 216.85 171.19L217.64 170.99L220.41 181.18L219.52 181.43C217.35 176.14 216.36 174.11 209.33 174.11H207.85C203.2 174.11 202.76 174.5 202.76 177.72V188.99H206.37C211.31 188.99 211.76 187.31 211.76 183.5H212.75V195.46H211.76C211.76 191.41 211.22 190.02 206.42 190.02H202.76V203.02C202.76 206.23 203.21 206.63 207.85 206.63H210.82C216.85 206.63 218.78 205.1 220.71 198.67L221.65 198.92L218.64 209.75L217.85 209.55C218.3 207.97 217.36 207.67 215.67 207.67L215.66 207.68Z" fill="white"></path><path d="M228.48 196.46L229.57 196.21C231.15 203.18 234.42 207.54 240.4 207.54C246.38 207.54 249.35 203.53 249.35 199.77C249.35 195.02 246.24 193.14 240.35 191.06C234.02 188.84 228.78 186.66 228.78 181.02C228.78 176.42 233.28 172.17 239.17 172.17C243.32 172.17 245.2 173.46 246.59 173.46C247.38 173.46 247.83 172.62 247.78 171.53L248.72 171.43L251.29 182.7L250.25 182.9C248.62 177.17 244.96 173.21 239.22 173.21C234.13 173.21 231.7 176.43 231.7 179.84C231.7 183.7 234.12 185.77 240.6 187.95C248.66 190.67 252.32 193.59 252.32 198.78C252.32 203.97 247.37 208.57 240.4 208.57C235.31 208.57 233.33 206.4 231.7 206.4C230.66 206.4 230.16 207.19 230.12 208.28L229.18 208.38L228.49 196.46H228.48Z" fill="white"></path><path d="M278.1 194.92V180.18C278.1 174.49 276.96 173.9 272.71 173.9V173.06H286.36V173.9C282.3 173.9 280.97 174.49 280.97 180.18V194.47C280.97 203.12 284.82 206.98 290.96 206.98C299.12 206.98 302.39 202.28 302.39 192.49V179.78C302.39 175.38 300.66 173.89 296.36 173.89V173.05H308.57V173.89C305.26 173.89 303.53 175.47 303.53 179.72V192.63C303.53 203.21 299.72 208.55 290.97 208.55C282.22 208.55 278.12 204.25 278.12 194.9L278.1 194.92Z" fill="white"></path><path d="M314.15 190.38C314.15 179.95 322.36 172.18 331.66 172.18C335.52 172.18 337.69 173.07 339.33 173.07C340.61 173.07 341.6 172.77 341.16 171.19L341.95 170.99L344.86 182.12L343.97 182.37C341.69 175.79 337.1 173.22 331.46 173.22C323.2 173.22 317.47 180.99 317.47 190.38C317.47 200.72 324.59 207.04 332.16 207.04C337.11 207.04 342.44 204.62 345.16 199.52L345.9 200.01C342.64 205.95 337.05 208.56 331.36 208.56C322.31 208.56 314.15 201.39 314.15 190.36V190.38Z" fill="white"></path><path d="M372.86 207.68H351.7V206.84C355.95 206.84 357.09 206.25 357.09 200.56V180.19C357.09 174.5 355.95 173.91 351.7 173.91V173.07H371.87C373.55 173.07 374.49 172.77 374.04 171.19L374.83 170.99L377.6 181.18L376.71 181.43C374.53 176.14 373.55 174.11 366.52 174.11H365.04C360.39 174.11 359.95 174.5 359.95 177.72V188.99H363.56C368.51 188.99 368.95 187.31 368.95 183.5H369.94V195.46H368.95C368.95 191.41 368.41 190.02 363.61 190.02H359.95V203.02C359.95 206.23 360.39 206.63 365.04 206.63H368.01C374.04 206.63 375.97 205.1 377.9 198.67L378.84 198.92L375.82 209.75L375.03 209.55C375.47 207.97 374.53 207.67 372.85 207.67L372.86 207.68Z" fill="white"></path><path d="M389.98 200.56V180.19C389.98 174.5 388.84 173.91 384.78 173.91V173.07H398.43C412.43 173.07 419.15 179.94 419.15 189.73C419.15 200.76 412.18 207.68 399.67 207.68H384.78V206.84C388.84 206.84 389.98 206.25 389.98 200.56ZM398.68 206.64H400.71C410.2 206.64 415.94 199.81 415.94 189.93C415.94 180.63 410.01 174.11 398.63 174.11C394.77 174.11 392.84 174.5 392.84 177.72V202.15C392.84 206.2 394.72 206.65 398.67 206.65L398.68 206.64Z" fill="white"></path><path d="M428.22 199.97L437.62 175.59L436.88 173.66V173.36C437.82 172.82 438.32 172.27 438.86 171.33H439.15L450.52 201C452.3 205.6 453.29 206.83 456.06 206.83V207.67H443.75V206.83C447.9 206.83 449.09 205.49 447.36 201L445.33 195.71H430.99L429.31 200.06C427.43 204.95 429.36 206.83 433.76 206.83V207.67H421.8V206.83C424.91 206.83 426.35 204.8 428.23 199.96L428.22 199.97ZM444.93 194.68L438.16 176.98L431.39 194.68H444.94H444.93Z" fill="white"></path><path d="M282.75 91.64C281.87 92.53 281.85 94.16 282.7 95.06C283.55 95.96 285.11 95.94 286.04 95.02C287.22 94.11 287.06 92.66 286.12 91.64C285.23 90.66 283.68 90.7 282.75 91.64Z" fill="white"></path><path d="M286.13 47.9499C287.13 46.9699 287.16 45.39 286.1 44.67C285.12 43.68 283.65 43.62 282.73 44.53C281.88 45.36 281.91 47.15 282.78 48.02C283.74 48.96 285.12 48.9499 286.13 47.9499Z" fill="white"></path><path d="M210.53 91.9699C206.63 87.7199 202.85 83.5999 198.99 79.3999C198.42 80.0699 197.94 80.6299 197.47 81.1899C196.7 82.0899 195.8 83.1099 195.15 83.7499C193.1 85.7699 187.14 91.7299 184.74 94.5299L184.87 94.6499C189.2 90.7199 193.2 87.0799 197.18 83.4799C199.38 85.9399 199.31 86.3499 197.52 88.5499C196.56 89.7299 195.95 91.2099 195.19 92.5599C195.3 92.7099 195.4 92.8599 195.51 92.9999C197.64 90.5799 199.69 91.3899 201.88 92.7199C203.63 93.7799 205.5 94.6599 207.4 95.4399C208.09 95.7199 209.19 95.7799 209.77 95.4199C211.47 94.3599 212.94 94.4599 214.58 95.5199C215.78 96.2899 217.12 96.8199 218.41 97.4499C220.5 98.4799 222.59 99.4999 224.68 100.52C224.75 100.41 224.82 100.29 224.89 100.18C220.8 96.8699 216.72 93.5599 212.58 90.2199C211.86 90.8599 211.23 91.3999 210.56 91.9899L210.53 91.9699Z" fill="white"></path><path d="M205.89 14.7199C206.78 13.5899 206.9 12.4799 205.81 11.3699C204.9 10.4499 203.49 10.3499 202.42 11.4499C201.49 12.4099 201.75 14.0499 202.53 14.8099C203.39 15.6599 205.03 15.5999 205.89 14.7199Z" fill="white"></path><path d="M252.93 14.74C253.89 13.87 253.8 12.3799 252.85 11.4299C251.84 10.4099 250.63 10.36 249.65 11.3C248.57 12.33 248.49 13.72 249.47 14.71C250.43 15.68 251.94 15.64 252.92 14.74H252.93Z" fill="white"></path><path d="M172.58 48.0299C173.5 47.1299 173.52 45.4299 172.62 44.5399C171.72 43.6499 170.26 43.6899 169.31 44.6399C168.19 45.4199 168.29 47.0099 169.21 47.9299C170.23 48.9399 171.62 48.9699 172.57 48.0299H172.58Z" fill="white"></path><path d="M249.53 124.86C248.56 125.79 248.54 127.21 249.53 128.22C250.49 129.22 252.04 129.29 252.82 128.24C253.79 127.29 253.85 125.64 252.96 124.82C252.07 124 250.41 124.02 249.54 124.86H249.53Z" fill="white"></path><path d="M169.35 91.5701C168.32 92.5701 168.19 94.1801 169.23 94.9101C170.23 95.9201 171.62 96.0002 172.61 95.1102C173.5 94.3002 173.51 92.5301 172.62 91.6401C171.71 90.7201 170.27 90.6701 169.34 91.5701H169.35Z" fill="white"></path><path d="M202.41 124.84C201.54 125.73 201.58 127.28 202.5 128.19C203.41 129.35 204.96 129.12 205.79 128.26C206.79 127.22 206.84 125.86 205.9 124.9C205.03 124.01 203.25 123.98 202.41 124.83V124.84Z" fill="white"></path><path d="M217.72 58.16C216.12 58.16 214.93 57.23 213.11 54.86L205.9 45.49L211.7 38.49C213.49 36.33 215.16 35.3 216.57 35.3V34.71H207.54V35.33C212.04 35.33 212.04 36.84 210.51 38.66L205.38 44.84L199.99 37.84C198.91 36.47 199.95 35.3 202.56 35.33V34.71H193.27V35.3C195.24 35.3 196.5 36.7399 197.92 38.5599L203.98 46.42L197.25 54.97C195.54 57.13 194.05 58.16 192.64 58.16V58.74H201.82V58.1199C197.81 58.1199 196.91 56.6399 198.4 54.7499L204.49 47.0599L211.14 55.71C212.48 57.43 211.59 58.1199 207.8 58.1199V58.74H217.72V58.16Z" fill="white"></path><path d="M243.6 50.7402C243.94 51.0102 244.24 51.5001 243.7 52.3201C242.98 53.4001 242.26 54.4901 241.55 55.5701L245.76 52.7202L246.04 53.4301C246.17 53.7601 246.18 54.0602 246.07 54.3502C245.76 55.2002 245.82 56.1101 245.88 57.0701C245.91 57.5901 245.9 58.1102 245.85 58.6002C245.99 58.3102 246.12 57.9901 246.24 57.6201C246.55 56.6801 246.98 55.7802 247.35 55.0302C247.55 54.6302 248.1 54.3801 248.53 54.3801C248.59 54.3801 248.64 54.3801 248.69 54.3901C249.19 54.4701 249.53 55.0501 249.62 55.4301C249.82 56.3501 250 57.2801 250.18 58.1801C250.25 58.5401 250.32 58.9001 250.39 59.2501L251.44 53.8201L252.25 54.5302C252.25 54.5302 252.32 54.5902 252.34 54.6102C252.43 54.6802 252.56 54.7801 252.64 54.9601C253 55.7901 253.59 56.4902 254.56 57.2302C254.83 57.4402 255.2 57.7202 255.45 58.1102C255.5 58.2002 255.56 58.2801 255.61 58.3701C255.47 57.9801 255.27 57.6001 255.06 57.2001C254.98 57.0401 254.9 56.8902 254.82 56.7302C254.53 56.1502 254.34 55.5401 254.16 54.9401L254.09 54.7101C253.98 54.3601 254.01 54.0202 254.17 53.7402C254.31 53.4902 254.56 53.3102 254.86 53.2402C255.15 53.1702 255.62 53.1701 255.98 53.4001C257.08 54.1201 258.18 54.8401 259.27 55.5701L256.37 51.2601L257.14 51.0101C257.52 50.8901 257.76 50.9302 257.95 50.9902C258.65 51.2102 259.4 51.3901 260.19 51.2501C260.87 51.1301 261.5 51.0901 262.08 51.1501C261.83 51.0401 261.55 50.9401 261.26 50.8401C260.4 50.5501 259.58 50.1701 258.78 49.8101C258.21 49.5501 257.95 49.0402 258.05 48.4102C258.18 47.6102 258.83 47.5102 259.08 47.4702C259.11 47.4702 259.14 47.4701 259.16 47.4601C260.15 47.2501 261.14 47.0602 262.13 46.8602C262.41 46.8102 262.68 46.7501 262.96 46.7001L258.41 45.8101L257.83 44.7601L258.78 44.3701C259.56 44.0501 260.15 43.4802 260.79 42.7202C261.07 42.3902 261.37 42.0802 261.68 41.7902C261.53 41.8502 261.38 41.9101 261.23 41.9601C260.97 42.0601 260.7 42.1701 260.44 42.2701C260.24 42.3501 260.04 42.4201 259.83 42.5001C259.41 42.6601 258.98 42.8302 258.54 42.9702C257.92 43.1802 257.37 43.0002 257.03 42.4802C256.61 41.8402 256.96 41.3101 257.12 41.0601C257.84 39.9701 258.55 38.8901 259.26 37.8201L254.24 41.2202L254.58 39.7101C254.61 39.5901 254.63 39.5002 254.65 39.4202C254.67 39.3202 254.69 39.2501 254.7 39.1901C254.73 38.9501 254.77 38.7001 254.81 38.4601C254.9 37.9501 254.98 37.4601 254.93 37.0201C254.86 36.3801 254.83 35.6401 254.93 34.8701C254.8 35.1401 254.69 35.4401 254.58 35.7701C254.33 36.5501 253.99 37.2901 253.66 38.0101L253.53 38.3002C253.36 38.6802 253.09 38.9402 252.77 39.0402C252.49 39.1302 252.2 39.0802 251.93 38.9202C251.57 38.7002 251.28 38.3002 251.19 37.9102C250.92 36.6502 250.67 35.3901 250.43 34.1401L249.35 39.7202L248.53 38.8101C248.48 38.7601 248.44 38.7201 248.4 38.6801C248.3 38.5801 248.19 38.4801 248.12 38.3101C247.81 37.5801 247.28 36.9501 246.47 36.3201C246.11 36.0501 245.62 35.6701 245.3 35.1801C245.28 35.1501 245.27 35.1302 245.25 35.1002C245.35 35.3702 245.47 35.6401 245.6 35.9001C246.05 36.8201 246.41 37.7401 246.71 38.5201C246.94 39.1201 246.76 39.7002 246.23 40.0502C245.58 40.4802 245.07 40.1302 244.82 39.9702L244.78 39.9401C243.71 39.2301 242.64 38.5102 241.57 37.8002L244.72 42.4702H243.56C243.49 42.4702 243.43 42.4702 243.39 42.4702C243.27 42.4702 243.12 42.4802 242.96 42.4102C242.26 42.1202 241.48 42.0301 240.44 42.1201H240.39C239.81 42.1701 239.21 42.2201 238.61 42.1501C238.99 42.3301 239.42 42.4801 239.9 42.6201C240.55 42.8201 241.16 43.1202 241.75 43.4102L242.07 43.5701C242.87 43.9601 242.85 44.6202 242.78 44.9802C242.62 45.7402 242.01 45.8401 241.75 45.8901L241.67 45.9102C240.79 46.0902 239.91 46.2701 239.04 46.4401C238.65 46.5201 238.27 46.5902 237.88 46.6702L243.71 47.8101L242.57 48.6401C242.48 48.7101 242.42 48.7602 242.37 48.7902C242.27 48.8702 242.18 48.9302 242.07 48.9902C241.29 49.3402 240.65 49.8602 240.17 50.5402C239.89 50.9502 239.57 51.3101 239.22 51.6201C239.31 51.5801 239.4 51.5401 239.5 51.5001C239.78 51.3801 240.05 51.2601 240.33 51.1501L240.54 51.0701C241.15 50.8301 241.77 50.5801 242.42 50.4001C242.86 50.2701 243.35 50.4902 243.64 50.7202L243.6 50.7402Z" fill="white"></path><path d="M229.8 66.5201L227.98 63.3601L226.16 66.5201H222.52L224.34 69.6701L222.52 72.8201H226.16L227.98 75.9701L229.8 72.8201H233.44L231.62 69.6701L233.44 66.5201H229.8Z" fill="white"></path><path d="M240.3 68.6C240.27 68.28 240.23 67.97 240.18 67.65C239.32 62.44 235.21 58.32 230 57.46C229.68 57.41 229.36 57.37 229.04 57.34C229 57.34 228.97 57.34 228.93 57.34C228.29 57.29 227.66 57.29 227.02 57.34C226.98 57.34 226.95 57.34 226.91 57.34C226.59 57.37 226.27 57.41 225.95 57.46C220.74 58.32 216.62 62.44 215.77 67.65C215.72 67.97 215.68 68.28 215.65 68.6C215.65 68.64 215.65 68.68 215.65 68.72C215.63 69.04 215.61 69.35 215.61 69.66C215.61 69.97 215.63 70.29 215.65 70.6C215.65 70.64 215.65 70.68 215.65 70.72C215.68 71.04 215.72 71.35 215.77 71.67C216.63 76.88 220.75 81 225.95 81.86C226.27 81.91 226.59 81.95 226.91 81.98C226.94 81.98 226.98 81.98 227.02 81.98C227.66 82.03 228.29 82.03 228.93 81.98C228.97 81.98 229 81.98 229.04 81.98C229.36 81.95 229.68 81.91 230 81.86C235.2 81 239.32 76.88 240.18 71.67C240.23 71.35 240.27 71.04 240.3 70.72C240.3 70.68 240.3 70.64 240.3 70.6C240.32 70.28 240.34 69.97 240.34 69.66C240.34 69.35 240.33 69.03 240.3 68.72C240.3 68.68 240.3 68.64 240.3 68.6ZM227.98 79.93C222.31 79.93 217.71 75.33 217.71 69.66C217.71 63.99 222.31 59.39 227.98 59.39C233.65 59.39 238.25 63.99 238.25 69.66C238.25 75.33 233.65 79.93 227.98 79.93Z" fill="white"></path><path d="M246.41 88.9601C247.02 89.2401 247.53 89.5501 247.95 89.8501C248.21 88.7801 249.17 87.9901 250.32 87.9901C251.47 87.9901 252.49 88.8301 252.71 89.9601C253.15 89.6201 253.71 89.2701 254.39 88.9601C255.91 88.2601 258.56 86.2901 259.47 82.8201H241.33C242.24 86.2901 244.89 88.2601 246.41 88.9601Z" fill="white"></path><path d="M254.7 103.52C252.55 103.12 251.36 100.92 251.28 96.8701C251.25 95.4701 251.24 94.1901 251.25 93.1201C251.02 93.3701 250.69 93.5302 250.32 93.5302C250.03 93.5302 249.77 93.4301 249.56 93.2701C249.56 94.3101 249.56 95.5301 249.53 96.8701C249.45 100.93 248.26 103.13 246.11 103.52C243.68 103.97 242.49 105.74 242.49 105.74H249.71C249.23 105.51 248.9 105.02 248.9 104.45C248.9 103.66 249.54 103.02 250.33 103.02C251.12 103.02 251.76 103.66 251.76 104.45C251.76 105.02 251.43 105.51 250.95 105.74H258.34C258.34 105.74 257.15 103.97 254.72 103.52H254.7Z" fill="white"></path><path d="M248.65 80.29H241.01C241.01 80.85 241.06 81.39 241.14 81.89H259.67C259.75 81.38 259.8 80.85 259.8 80.29H248.66H248.65Z" fill="white"></path><path d="M252.14 90.84C252.14 89.83 251.32 89.01 250.31 89.01C249.3 89.01 248.48 89.83 248.48 90.84C248.48 91.85 249.3 92.67 250.31 92.67C251.32 92.67 252.14 91.85 252.14 90.84Z" fill="white"></path><path d="M228.03 0C189.86 0 158.8 31.06 158.8 69.23C158.8 107.4 189.86 138.46 228.03 138.46C266.2 138.46 297.26 107.4 297.26 69.23C297.26 31.06 266.2 0 228.03 0ZM228.03 136.41C190.99 136.41 160.85 106.27 160.85 69.23C160.85 32.19 190.99 2.05005 228.03 2.05005C265.07 2.05005 295.21 32.19 295.21 69.23C295.21 106.27 265.07 136.41 228.03 136.41Z" fill="white"></path><path d="M282.29 74.4001L288.59 69.6301L282.27 64.8401L282.24 64.5701C279.78 38.4901 259.06 17.8001 232.98 15.3601L232.71 15.3401L227.96 9.06006L223.22 15.3201L222.95 15.3401C210.24 16.4701 198.25 22.0801 189.2 31.1301C180.15 40.1901 174.54 52.1701 173.41 64.8801L173.39 65.1501L167.39 69.6901L173.37 74.2201L173.39 74.4901C174.49 87.2801 180.11 99.3301 189.22 108.43C198.33 117.53 210.4 123.14 223.19 124.21L223.46 124.23L228.02 130.25L232.6 124.2L232.87 124.18C259.16 121.78 279.93 100.95 282.27 74.6601L282.29 74.3901V74.4001ZM228.03 11.6401C228.03 11.6401 230.14 15.5301 231.09 16.4901C230.04 17.5401 229.01 18.7601 228.03 19.7401C226.99 18.7001 225.96 17.4701 224.97 16.4901C225.93 15.5301 228.03 11.6401 228.03 11.6401ZM169.84 69.7301C169.84 69.7301 173.73 67.6201 174.69 66.6701C175.74 67.7201 176.96 68.7501 177.94 69.7301C176.9 70.7701 175.67 71.8001 174.69 72.7901C173.73 71.8301 169.84 69.7301 169.84 69.7301ZM228.04 128.07C228.04 128.07 225.93 124.18 224.98 123.22C226.03 122.17 227.06 120.95 228.04 119.97C229.08 121.01 230.11 122.24 231.1 123.22C230.14 124.18 228.04 128.07 228.04 128.07ZM279.63 74.3301C277.46 99.3401 257.75 119.2 232.75 121.55L232.41 121.58L229.51 117.75V83.1901C229.51 83.1901 229.5 83.1901 229.49 83.1901C229.26 83.2101 229.04 83.2301 228.81 83.2501C228.79 83.2501 228.76 83.2501 228.74 83.2501C228.49 83.2601 228.24 83.2701 227.99 83.2701C227.74 83.2701 227.49 83.2701 227.24 83.2501C227.22 83.2501 227.21 83.2501 227.19 83.2501C226.95 83.2401 226.71 83.2201 226.48 83.1901C226.48 83.1901 226.48 83.1901 226.47 83.1901V117.66L223.48 121.6L223.14 121.57C198.1 119.33 178.3 99.5301 176.05 74.4901L176.02 74.1501L179.91 71.2001H214.47C214.47 71.2001 214.47 71.1901 214.47 71.1801C214.45 70.9501 214.43 70.7201 214.41 70.4901C214.41 70.4701 214.41 70.4401 214.41 70.4201C214.4 70.1701 214.39 69.9201 214.39 69.6701C214.39 69.4201 214.39 69.1701 214.41 68.9201C214.41 68.9001 214.41 68.8701 214.41 68.8501C214.42 68.6201 214.44 68.3901 214.47 68.1701C214.47 68.1701 214.47 68.1601 214.47 68.1501H180L176.04 65.1501L176.07 64.8101C178.44 39.8101 198.33 20.1101 223.36 17.9801L223.7 17.9501L226.47 21.6001V56.1601C226.47 56.1601 226.47 56.1601 226.48 56.1601C226.72 56.1301 226.95 56.1101 227.19 56.1001C227.21 56.1001 227.22 56.1001 227.24 56.1001C227.49 56.0901 227.74 56.0801 227.99 56.0801C228.24 56.0801 228.49 56.0801 228.74 56.1001C228.76 56.1001 228.79 56.1001 228.81 56.1001C229.04 56.1101 229.27 56.1301 229.49 56.1601C229.49 56.1601 229.5 56.1601 229.51 56.1601V21.6901L232.32 17.9801L232.66 18.0101C257.63 20.3101 277.38 40.1101 279.62 65.0901L279.65 65.4301L276.06 68.1501H241.5C241.5 68.1501 241.5 68.1601 241.5 68.1701C241.52 68.4001 241.54 68.6201 241.56 68.8501C241.56 68.8801 241.56 68.9001 241.56 68.9201C241.57 69.1701 241.58 69.4201 241.58 69.6701C241.58 69.9201 241.58 70.1701 241.56 70.4201C241.56 70.4401 241.56 70.4701 241.56 70.4901C241.55 70.7201 241.53 70.9501 241.5 71.1801C241.5 71.1801 241.5 71.1901 241.5 71.2001H275.97L279.66 74.0001L279.63 74.3401V74.3301ZM277.79 69.7301C278.78 68.7401 279.99 67.7201 281.04 66.6701C282 67.6301 285.89 69.7301 285.89 69.7301C285.89 69.7301 282.01 71.8201 281.04 72.7901C280.06 71.8101 278.82 70.7701 277.79 69.7301Z" fill="white"></path><path d="M5.39 200.56V180.19C5.39 174.5 4.25 173.91 0 173.91V173.07H13.65V173.91C9.60001 173.91 8.26001 174.5 8.26001 180.19V188.9H28.39V180.19C28.39 174.5 27.25 173.91 23 173.91V173.07H36.65V173.91C32.6 173.91 31.26 174.5 31.26 180.19V200.56C31.26 206.25 32.4 206.84 36.65 206.84V207.68H23V206.84C27.25 206.84 28.39 206.25 28.39 200.56V190.03H8.26001V200.56C8.26001 206.25 9.40001 206.84 13.65 206.84V207.68H0V206.84C4.25 206.84 5.39 206.25 5.39 200.56Z" fill="white"></path><path d="M47.09 199.97L56.49 175.59L55.75 173.66V173.36C56.69 172.82 57.19 172.27 57.73 171.33H58.03L69.4 201C71.18 205.6 72.17 206.83 74.94 206.83V207.67H62.63V206.83C66.78 206.83 67.97 205.49 66.24 201L64.21 195.71H49.87L48.19 200.06C46.31 204.95 48.24 206.83 52.64 206.83V207.67H40.67V206.83C43.79 206.83 45.22 204.8 47.1 199.96L47.09 199.97ZM63.8 194.68L57.03 176.98L50.25 194.68H63.8Z" fill="white"></path><path d="M100.85 207.68H78.7L78.6 207.48L101.05 174.15H92.59C84.63 174.15 82.85 176.67 81.02 182.9L80.18 182.7L82.31 171.03L83.2 171.18C82.75 172.76 83.69 173.06 85.37 173.06H104.95L105.05 173.26L82.85 206.59H94.12C102.08 206.59 103.27 204.37 105.44 197L106.28 197.2L103.81 209.76L103.02 209.56C103.46 207.98 102.52 207.68 100.84 207.68H100.85Z" fill="white"></path><path d="M130.53 172.18C139.63 172.18 147.59 178.36 147.59 189.74C147.59 201.12 141.31 207.25 132.56 208.38C135.13 213.52 139.28 216.04 143.93 216.04C147.74 216.04 151.6 214.36 154.71 209.56L155.55 210.1C152.14 215.83 147.24 217.77 142.84 217.77C137.35 217.77 132.01 214.61 128.25 208.52C119.84 207.83 112.72 201.65 112.72 190.92C112.72 178.96 120.33 172.18 130.52 172.18H130.53ZM144.28 190.08C144.28 180.59 139.14 173.22 130.19 173.22C121.73 173.22 116.05 179.6 116.05 190.58C116.05 200.07 121.24 207.54 130.14 207.54C139.04 207.54 144.28 201.06 144.28 190.08Z" fill="white"></path><path d="M158.34 194.92V180.18C158.34 174.49 157.2 173.9 152.95 173.9V173.06H166.6V173.9C162.54 173.9 161.21 174.49 161.21 180.18V194.47C161.21 203.12 165.07 206.98 171.2 206.98C179.36 206.98 182.62 202.28 182.62 192.49V179.78C182.62 175.38 180.89 173.89 176.59 173.89V173.05H188.8V173.89C185.49 173.89 183.76 175.47 183.76 179.72V192.63C183.76 203.21 179.95 208.55 171.2 208.55C162.45 208.55 158.34 204.25 158.34 194.9V194.92Z" fill="white"></path><path d="M215.66 207.68H194.5V206.84C198.75 206.84 199.89 206.25 199.89 200.56V180.19C199.89 174.5 198.75 173.91 194.5 173.91V173.07H214.67C216.35 173.07 217.29 172.77 216.85 171.19L217.64 170.99L220.41 181.18L219.52 181.43C217.35 176.14 216.36 174.11 209.33 174.11H207.85C203.2 174.11 202.76 174.5 202.76 177.72V188.99H206.37C211.31 188.99 211.76 187.31 211.76 183.5H212.75V195.46H211.76C211.76 191.41 211.22 190.02 206.42 190.02H202.76V203.02C202.76 206.23 203.21 206.63 207.85 206.63H210.82C216.85 206.63 218.78 205.1 220.71 198.67L221.65 198.92L218.64 209.75L217.85 209.55C218.3 207.97 217.36 207.67 215.67 207.67L215.66 207.68Z" fill="white"></path><path d="M228.48 196.46L229.57 196.21C231.15 203.18 234.42 207.54 240.4 207.54C246.38 207.54 249.35 203.53 249.35 199.77C249.35 195.02 246.24 193.14 240.35 191.06C234.02 188.84 228.78 186.66 228.78 181.02C228.78 176.42 233.28 172.17 239.17 172.17C243.32 172.17 245.2 173.46 246.59 173.46C247.38 173.46 247.83 172.62 247.78 171.53L248.72 171.43L251.29 182.7L250.25 182.9C248.62 177.17 244.96 173.21 239.22 173.21C234.13 173.21 231.7 176.43 231.7 179.84C231.7 183.7 234.12 185.77 240.6 187.95C248.66 190.67 252.32 193.59 252.32 198.78C252.32 203.97 247.37 208.57 240.4 208.57C235.31 208.57 233.33 206.4 231.7 206.4C230.66 206.4 230.16 207.19 230.12 208.28L229.18 208.38L228.49 196.46H228.48Z" fill="white"></path><path d="M278.1 194.92V180.18C278.1 174.49 276.96 173.9 272.71 173.9V173.06H286.36V173.9C282.3 173.9 280.97 174.49 280.97 180.18V194.47C280.97 203.12 284.82 206.98 290.96 206.98C299.12 206.98 302.39 202.28 302.39 192.49V179.78C302.39 175.38 300.66 173.89 296.36 173.89V173.05H308.57V173.89C305.26 173.89 303.53 175.47 303.53 179.72V192.63C303.53 203.21 299.72 208.55 290.97 208.55C282.22 208.55 278.12 204.25 278.12 194.9L278.1 194.92Z" fill="white"></path><path d="M314.15 190.38C314.15 179.95 322.36 172.18 331.66 172.18C335.52 172.18 337.69 173.07 339.33 173.07C340.61 173.07 341.6 172.77 341.16 171.19L341.95 170.99L344.86 182.12L343.97 182.37C341.69 175.79 337.1 173.22 331.46 173.22C323.2 173.22 317.47 180.99 317.47 190.38C317.47 200.72 324.59 207.04 332.16 207.04C337.11 207.04 342.44 204.62 345.16 199.52L345.9 200.01C342.64 205.95 337.05 208.56 331.36 208.56C322.31 208.56 314.15 201.39 314.15 190.36V190.38Z" fill="white"></path><path d="M372.86 207.68H351.7V206.84C355.95 206.84 357.09 206.25 357.09 200.56V180.19C357.09 174.5 355.95 173.91 351.7 173.91V173.07H371.87C373.55 173.07 374.49 172.77 374.04 171.19L374.83 170.99L377.6 181.18L376.71 181.43C374.53 176.14 373.55 174.11 366.52 174.11H365.04C360.39 174.11 359.95 174.5 359.95 177.72V188.99H363.56C368.51 188.99 368.95 187.31 368.95 183.5H369.94V195.46H368.95C368.95 191.41 368.41 190.02 363.61 190.02H359.95V203.02C359.95 206.23 360.39 206.63 365.04 206.63H368.01C374.04 206.63 375.97 205.1 377.9 198.67L378.84 198.92L375.82 209.75L375.03 209.55C375.47 207.97 374.53 207.67 372.85 207.67L372.86 207.68Z" fill="white"></path><path d="M389.98 200.56V180.19C389.98 174.5 388.84 173.91 384.78 173.91V173.07H398.43C412.43 173.07 419.15 179.94 419.15 189.73C419.15 200.76 412.18 207.68 399.67 207.68H384.78V206.84C388.84 206.84 389.98 206.25 389.98 200.56ZM398.68 206.64H400.71C410.2 206.64 415.94 199.81 415.94 189.93C415.94 180.63 410.01 174.11 398.63 174.11C394.77 174.11 392.84 174.5 392.84 177.72V202.15C392.84 206.2 394.72 206.65 398.67 206.65L398.68 206.64Z" fill="white"></path><path d="M428.22 199.97L437.62 175.59L436.88 173.66V173.36C437.82 172.82 438.32 172.27 438.86 171.33H439.15L450.52 201C452.3 205.6 453.29 206.83 456.06 206.83V207.67H443.75V206.83C447.9 206.83 449.09 205.49 447.36 201L445.33 195.71H430.99L429.31 200.06C427.43 204.95 429.36 206.83 433.76 206.83V207.67H421.8V206.83C424.91 206.83 426.35 204.8 428.23 199.96L428.22 199.97ZM444.93 194.68L438.16 176.98L431.39 194.68H444.94H444.93Z" fill="white"></path><path d="M282.75 91.64C281.87 92.53 281.85 94.16 282.7 95.06C283.55 95.96 285.11 95.94 286.04 95.02C287.22 94.11 287.06 92.66 286.12 91.64C285.23 90.66 283.68 90.7 282.75 91.64Z" fill="white"></path><path d="M286.13 47.9499C287.13 46.9699 287.16 45.39 286.1 44.67C285.12 43.68 283.65 43.62 282.73 44.53C281.88 45.36 281.91 47.15 282.78 48.02C283.74 48.96 285.12 48.9499 286.13 47.9499Z" fill="white"></path><path d="M210.53 91.9699C206.63 87.7199 202.85 83.5999 198.99 79.3999C198.42 80.0699 197.94 80.6299 197.47 81.1899C196.7 82.0899 195.8 83.1099 195.15 83.7499C193.1 85.7699 187.14 91.7299 184.74 94.5299L184.87 94.6499C189.2 90.7199 193.2 87.0799 197.18 83.4799C199.38 85.9399 199.31 86.3499 197.52 88.5499C196.56 89.7299 195.95 91.2099 195.19 92.5599C195.3 92.7099 195.4 92.8599 195.51 92.9999C197.64 90.5799 199.69 91.3899 201.88 92.7199C203.63 93.7799 205.5 94.6599 207.4 95.4399C208.09 95.7199 209.19 95.7799 209.77 95.4199C211.47 94.3599 212.94 94.4599 214.58 95.5199C215.78 96.2899 217.12 96.8199 218.41 97.4499C220.5 98.4799 222.59 99.4999 224.68 100.52C224.75 100.41 224.82 100.29 224.89 100.18C220.8 96.8699 216.72 93.5599 212.58 90.2199C211.86 90.8599 211.23 91.3999 210.56 91.9899L210.53 91.9699Z" fill="white"></path><path d="M205.89 14.7199C206.78 13.5899 206.9 12.4799 205.81 11.3699C204.9 10.4499 203.49 10.3499 202.42 11.4499C201.49 12.4099 201.75 14.0499 202.53 14.8099C203.39 15.6599 205.03 15.5999 205.89 14.7199Z" fill="white"></path><path d="M252.93 14.74C253.89 13.87 253.8 12.3799 252.85 11.4299C251.84 10.4099 250.63 10.36 249.65 11.3C248.57 12.33 248.49 13.72 249.47 14.71C250.43 15.68 251.94 15.64 252.92 14.74H252.93Z" fill="white"></path><path d="M172.58 48.0299C173.5 47.1299 173.52 45.4299 172.62 44.5399C171.72 43.6499 170.26 43.6899 169.31 44.6399C168.19 45.4199 168.29 47.0099 169.21 47.9299C170.23 48.9399 171.62 48.9699 172.57 48.0299H172.58Z" fill="white"></path><path d="M249.53 124.86C248.56 125.79 248.54 127.21 249.53 128.22C250.49 129.22 252.04 129.29 252.82 128.24C253.79 127.29 253.85 125.64 252.96 124.82C252.07 124 250.41 124.02 249.54 124.86H249.53Z" fill="white"></path><path d="M169.35 91.5701C168.32 92.5701 168.19 94.1801 169.23 94.9101C170.23 95.9201 171.62 96.0002 172.61 95.1102C173.5 94.3002 173.51 92.5301 172.62 91.6401C171.71 90.7201 170.27 90.6701 169.34 91.5701H169.35Z" fill="white"></path><path d="M202.41 124.84C201.54 125.73 201.58 127.28 202.5 128.19C203.41 129.35 204.96 129.12 205.79 128.26C206.79 127.22 206.84 125.86 205.9 124.9C205.03 124.01 203.25 123.98 202.41 124.83V124.84Z" fill="white"></path><path d="M217.72 58.16C216.12 58.16 214.93 57.23 213.11 54.86L205.9 45.49L211.7 38.49C213.49 36.33 215.16 35.3 216.57 35.3V34.71H207.54V35.33C212.04 35.33 212.04 36.84 210.51 38.66L205.38 44.84L199.99 37.84C198.91 36.47 199.95 35.3 202.56 35.33V34.71H193.27V35.3C195.24 35.3 196.5 36.7399 197.92 38.5599L203.98 46.42L197.25 54.97C195.54 57.13 194.05 58.16 192.64 58.16V58.74H201.82V58.1199C197.81 58.1199 196.91 56.6399 198.4 54.7499L204.49 47.0599L211.14 55.71C212.48 57.43 211.59 58.1199 207.8 58.1199V58.74H217.72V58.16Z" fill="white"></path><path d="M243.6 50.7402C243.94 51.0102 244.24 51.5001 243.7 52.3201C242.98 53.4001 242.26 54.4901 241.55 55.5701L245.76 52.7202L246.04 53.4301C246.17 53.7601 246.18 54.0602 246.07 54.3502C245.76 55.2002 245.82 56.1101 245.88 57.0701C245.91 57.5901 245.9 58.1102 245.85 58.6002C245.99 58.3102 246.12 57.9901 246.24 57.6201C246.55 56.6801 246.98 55.7802 247.35 55.0302C247.55 54.6302 248.1 54.3801 248.53 54.3801C248.59 54.3801 248.64 54.3801 248.69 54.3901C249.19 54.4701 249.53 55.0501 249.62 55.4301C249.82 56.3501 250 57.2801 250.18 58.1801C250.25 58.5401 250.32 58.9001 250.39 59.2501L251.44 53.8201L252.25 54.5302C252.25 54.5302 252.32 54.5902 252.34 54.6102C252.43 54.6802 252.56 54.7801 252.64 54.9601C253 55.7901 253.59 56.4902 254.56 57.2302C254.83 57.4402 255.2 57.7202 255.45 58.1102C255.5 58.2002 255.56 58.2801 255.61 58.3701C255.47 57.9801 255.27 57.6001 255.06 57.2001C254.98 57.0401 254.9 56.8902 254.82 56.7302C254.53 56.1502 254.34 55.5401 254.16 54.9401L254.09 54.7101C253.98 54.3601 254.01 54.0202 254.17 53.7402C254.31 53.4902 254.56 53.3102 254.86 53.2402C255.15 53.1702 255.62 53.1701 255.98 53.4001C257.08 54.1201 258.18 54.8401 259.27 55.5701L256.37 51.2601L257.14 51.0101C257.52 50.8901 257.76 50.9302 257.95 50.9902C258.65 51.2102 259.4 51.3901 260.19 51.2501C260.87 51.1301 261.5 51.0901 262.08 51.1501C261.83 51.0401 261.55 50.9401 261.26 50.8401C260.4 50.5501 259.58 50.1701 258.78 49.8101C258.21 49.5501 257.95 49.0402 258.05 48.4102C258.18 47.6102 258.83 47.5102 259.08 47.4702C259.11 47.4702 259.14 47.4701 259.16 47.4601C260.15 47.2501 261.14 47.0602 262.13 46.8602C262.41 46.8102 262.68 46.7501 262.96 46.7001L258.41 45.8101L257.83 44.7601L258.78 44.3701C259.56 44.0501 260.15 43.4802 260.79 42.7202C261.07 42.3902 261.37 42.0802 261.68 41.7902C261.53 41.8502 261.38 41.9101 261.23 41.9601C260.97 42.0601 260.7 42.1701 260.44 42.2701C260.24 42.3501 260.04 42.4201 259.83 42.5001C259.41 42.6601 258.98 42.8302 258.54 42.9702C257.92 43.1802 257.37 43.0002 257.03 42.4802C256.61 41.8402 256.96 41.3101 257.12 41.0601C257.84 39.9701 258.55 38.8901 259.26 37.8201L254.24 41.2202L254.58 39.7101C254.61 39.5901 254.63 39.5002 254.65 39.4202C254.67 39.3202 254.69 39.2501 254.7 39.1901C254.73 38.9501 254.77 38.7001 254.81 38.4601C254.9 37.9501 254.98 37.4601 254.93 37.0201C254.86 36.3801 254.83 35.6401 254.93 34.8701C254.8 35.1401 254.69 35.4401 254.58 35.7701C254.33 36.5501 253.99 37.2901 253.66 38.0101L253.53 38.3002C253.36 38.6802 253.09 38.9402 252.77 39.0402C252.49 39.1302 252.2 39.0802 251.93 38.9202C251.57 38.7002 251.28 38.3002 251.19 37.9102C250.92 36.6502 250.67 35.3901 250.43 34.1401L249.35 39.7202L248.53 38.8101C248.48 38.7601 248.44 38.7201 248.4 38.6801C248.3 38.5801 248.19 38.4801 248.12 38.3101C247.81 37.5801 247.28 36.9501 246.47 36.3201C246.11 36.0501 245.62 35.6701 245.3 35.1801C245.28 35.1501 245.27 35.1302 245.25 35.1002C245.35 35.3702 245.47 35.6401 245.6 35.9001C246.05 36.8201 246.41 37.7401 246.71 38.5201C246.94 39.1201 246.76 39.7002 246.23 40.0502C245.58 40.4802 245.07 40.1302 244.82 39.9702L244.78 39.9401C243.71 39.2301 242.64 38.5102 241.57 37.8002L244.72 42.4702H243.56C243.49 42.4702 243.43 42.4702 243.39 42.4702C243.27 42.4702 243.12 42.4802 242.96 42.4102C242.26 42.1202 241.48 42.0301 240.44 42.1201H240.39C239.81 42.1701 239.21 42.2201 238.61 42.1501C238.99 42.3301 239.42 42.4801 239.9 42.6201C240.55 42.8201 241.16 43.1202 241.75 43.4102L242.07 43.5701C242.87 43.9601 242.85 44.6202 242.78 44.9802C242.62 45.7402 242.01 45.8401 241.75 45.8901L241.67 45.9102C240.79 46.0902 239.91 46.2701 239.04 46.4401C238.65 46.5201 238.27 46.5902 237.88 46.6702L243.71 47.8101L242.57 48.6401C242.48 48.7101 242.42 48.7602 242.37 48.7902C242.27 48.8702 242.18 48.9302 242.07 48.9902C241.29 49.3402 240.65 49.8602 240.17 50.5402C239.89 50.9502 239.57 51.3101 239.22 51.6201C239.31 51.5801 239.4 51.5401 239.5 51.5001C239.78 51.3801 240.05 51.2601 240.33 51.1501L240.54 51.0701C241.15 50.8301 241.77 50.5801 242.42 50.4001C242.86 50.2701 243.35 50.4902 243.64 50.7202L243.6 50.7402Z" fill="white"></path><path d="M229.8 66.5201L227.98 63.3601L226.16 66.5201H222.52L224.34 69.6701L222.52 72.8201H226.16L227.98 75.9701L229.8 72.8201H233.44L231.62 69.6701L233.44 66.5201H229.8Z" fill="white"></path><path d="M240.3 68.6C240.27 68.28 240.23 67.97 240.18 67.65C239.32 62.44 235.21 58.32 230 57.46C229.68 57.41 229.36 57.37 229.04 57.34C229 57.34 228.97 57.34 228.93 57.34C228.29 57.29 227.66 57.29 227.02 57.34C226.98 57.34 226.95 57.34 226.91 57.34C226.59 57.37 226.27 57.41 225.95 57.46C220.74 58.32 216.62 62.44 215.77 67.65C215.72 67.97 215.68 68.28 215.65 68.6C215.65 68.64 215.65 68.68 215.65 68.72C215.63 69.04 215.61 69.35 215.61 69.66C215.61 69.97 215.63 70.29 215.65 70.6C215.65 70.64 215.65 70.68 215.65 70.72C215.68 71.04 215.72 71.35 215.77 71.67C216.63 76.88 220.75 81 225.95 81.86C226.27 81.91 226.59 81.95 226.91 81.98C226.94 81.98 226.98 81.98 227.02 81.98C227.66 82.03 228.29 82.03 228.93 81.98C228.97 81.98 229 81.98 229.04 81.98C229.36 81.95 229.68 81.91 230 81.86C235.2 81 239.32 76.88 240.18 71.67C240.23 71.35 240.27 71.04 240.3 70.72C240.3 70.68 240.3 70.64 240.3 70.6C240.32 70.28 240.34 69.97 240.34 69.66C240.34 69.35 240.33 69.03 240.3 68.72C240.3 68.68 240.3 68.64 240.3 68.6ZM227.98 79.93C222.31 79.93 217.71 75.33 217.71 69.66C217.71 63.99 222.31 59.39 227.98 59.39C233.65 59.39 238.25 63.99 238.25 69.66C238.25 75.33 233.65 79.93 227.98 79.93Z" fill="white"></path><path d="M246.41 88.9601C247.02 89.2401 247.53 89.5501 247.95 89.8501C248.21 88.7801 249.17 87.9901 250.32 87.9901C251.47 87.9901 252.49 88.8301 252.71 89.9601C253.15 89.6201 253.71 89.2701 254.39 88.9601C255.91 88.2601 258.56 86.2901 259.47 82.8201H241.33C242.24 86.2901 244.89 88.2601 246.41 88.9601Z" fill="white"></path><path d="M254.7 103.52C252.55 103.12 251.36 100.92 251.28 96.8701C251.25 95.4701 251.24 94.1901 251.25 93.1201C251.02 93.3701 250.69 93.5302 250.32 93.5302C250.03 93.5302 249.77 93.4301 249.56 93.2701C249.56 94.3101 249.56 95.5301 249.53 96.8701C249.45 100.93 248.26 103.13 246.11 103.52C243.68 103.97 242.49 105.74 242.49 105.74H249.71C249.23 105.51 248.9 105.02 248.9 104.45C248.9 103.66 249.54 103.02 250.33 103.02C251.12 103.02 251.76 103.66 251.76 104.45C251.76 105.02 251.43 105.51 250.95 105.74H258.34C258.34 105.74 257.15 103.97 254.72 103.52H254.7Z" fill="white"></path><path d="M248.65 80.29H241.01C241.01 80.85 241.06 81.39 241.14 81.89H259.67C259.75 81.38 259.8 80.85 259.8 80.29H248.66H248.65Z" fill="white"></path><path d="M252.14 90.84C252.14 89.83 251.32 89.01 250.31 89.01C249.3 89.01 248.48 89.83 248.48 90.84C248.48 91.85 249.3 92.67 250.31 92.67C251.32 92.67 252.14 91.85 252.14 90.84Z" fill="white"></path><path d="M228.03 0C189.86 0 158.8 31.06 158.8 69.23C158.8 107.4 189.86 138.46 228.03 138.46C266.2 138.46 297.26 107.4 297.26 69.23C297.26 31.06 266.2 0 228.03 0ZM228.03 136.41C190.99 136.41 160.85 106.27 160.85 69.23C160.85 32.19 190.99 2.05005 228.03 2.05005C265.07 2.05005 295.21 32.19 295.21 69.23C295.21 106.27 265.07 136.41 228.03 136.41Z" fill="white"></path><path d="M282.29 74.4001L288.59 69.6301L282.27 64.8401L282.24 64.5701C279.78 38.4901 259.06 17.8001 232.98 15.3601L232.71 15.3401L227.96 9.06006L223.22 15.3201L222.95 15.3401C210.24 16.4701 198.25 22.0801 189.2 31.1301C180.15 40.1901 174.54 52.1701 173.41 64.8801L173.39 65.1501L167.39 69.6901L173.37 74.2201L173.39 74.4901C174.49 87.2801 180.11 99.3301 189.22 108.43C198.33 117.53 210.4 123.14 223.19 124.21L223.46 124.23L228.02 130.25L232.6 124.2L232.87 124.18C259.16 121.78 279.93 100.95 282.27 74.6601L282.29 74.3901V74.4001ZM228.03 11.6401C228.03 11.6401 230.14 15.5301 231.09 16.4901C230.04 17.5401 229.01 18.7601 228.03 19.7401C226.99 18.7001 225.96 17.4701 224.97 16.4901C225.93 15.5301 228.03 11.6401 228.03 11.6401ZM169.84 69.7301C169.84 69.7301 173.73 67.6201 174.69 66.6701C175.74 67.7201 176.96 68.7501 177.94 69.7301C176.9 70.7701 175.67 71.8001 174.69 72.7901C173.73 71.8301 169.84 69.7301 169.84 69.7301ZM228.04 128.07C228.04 128.07 225.93 124.18 224.98 123.22C226.03 122.17 227.06 120.95 228.04 119.97C229.08 121.01 230.11 122.24 231.1 123.22C230.14 124.18 228.04 128.07 228.04 128.07ZM279.63 74.3301C277.46 99.3401 257.75 119.2 232.75 121.55L232.41 121.58L229.51 117.75V83.1901C229.51 83.1901 229.5 83.1901 229.49 83.1901C229.26 83.2101 229.04 83.2301 228.81 83.2501C228.79 83.2501 228.76 83.2501 228.74 83.2501C228.49 83.2601 228.24 83.2701 227.99 83.2701C227.74 83.2701 227.49 83.2701 227.24 83.2501C227.22 83.2501 227.21 83.2501 227.19 83.2501C226.95 83.2401 226.71 83.2201 226.48 83.1901C226.48 83.1901 226.48 83.1901 226.47 83.1901V117.66L223.48 121.6L223.14 121.57C198.1 119.33 178.3 99.5301 176.05 74.4901L176.02 74.1501L179.91 71.2001H214.47C214.47 71.2001 214.47 71.1901 214.47 71.1801C214.45 70.9501 214.43 70.7201 214.41 70.4901C214.41 70.4701 214.41 70.4401 214.41 70.4201C214.4 70.1701 214.39 69.9201 214.39 69.6701C214.39 69.4201 214.39 69.1701 214.41 68.9201C214.41 68.9001 214.41 68.8701 214.41 68.8501C214.42 68.6201 214.44 68.3901 214.47 68.1701C214.47 68.1701 214.47 68.1601 214.47 68.1501H180L176.04 65.1501L176.07 64.8101C178.44 39.8101 198.33 20.1101 223.36 17.9801L223.7 17.9501L226.47 21.6001V56.1601C226.47 56.1601 226.47 56.1601 226.48 56.1601C226.72 56.1301 226.95 56.1101 227.19 56.1001C227.21 56.1001 227.22 56.1001 227.24 56.1001C227.49 56.0901 227.74 56.0801 227.99 56.0801C228.24 56.0801 228.49 56.0801 228.74 56.1001C228.76 56.1001 228.79 56.1001 228.81 56.1001C229.04 56.1101 229.27 56.1301 229.49 56.1601C229.49 56.1601 229.5 56.1601 229.51 56.1601V21.6901L232.32 17.9801L232.66 18.0101C257.63 20.3101 277.38 40.1101 279.62 65.0901L279.65 65.4301L276.06 68.1501H241.5C241.5 68.1501 241.5 68.1601 241.5 68.1701C241.52 68.4001 241.54 68.6201 241.56 68.8501C241.56 68.8801 241.56 68.9001 241.56 68.9201C241.57 69.1701 241.58 69.4201 241.58 69.6701C241.58 69.9201 241.58 70.1701 241.56 70.4201C241.56 70.4401 241.56 70.4701 241.56 70.4901C241.55 70.7201 241.53 70.9501 241.5 71.1801C241.5 71.1801 241.5 71.1901 241.5 71.2001H275.97L279.66 74.0001L279.63 74.3401V74.3301ZM277.79 69.7301C278.78 68.7401 279.99 67.7201 281.04 66.6701C282 67.6301 285.89 69.7301 285.89 69.7301C285.89 69.7301 282.01 71.8201 281.04 72.7901C280.06 71.8101 278.82 70.7701 277.79 69.7301Z" fill="white"></path></svg>