<svg xmlns="http://www.w3.org/2000/svg" width="457" height="218" viewBox="0 0 457 218" fill="none"><path d="M5.53001 200.56V180.19C5.53001 174.5 4.39001 173.91 0.140015 173.91V173.07H13.79V173.91C9.74002 173.91 8.40002 174.5 8.40002 180.19V188.9H28.53V180.19C28.53 174.5 27.39 173.91 23.14 173.91V173.07H36.79V173.91C32.74 173.91 31.4 174.5 31.4 180.19V200.56C31.4 206.25 32.54 206.84 36.79 206.84V207.68H23.14V206.84C27.39 206.84 28.53 206.25 28.53 200.56V190.03H8.40002V200.56C8.40002 206.25 9.54002 206.84 13.79 206.84V207.68H0.140015V206.84C4.39001 206.84 5.53001 206.25 5.53001 200.56Z" fill="#323334"></path><path d="M47.23 199.97L56.63 175.59L55.89 173.66V173.36C56.83 172.82 57.3301 172.27 57.8701 171.33H58.17L69.54 201C71.32 205.6 72.31 206.83 75.08 206.83V207.67H62.7701V206.83C66.9201 206.83 68.11 205.49 66.38 201L64.35 195.71H50.01L48.33 200.06C46.45 204.95 48.3801 206.83 52.7801 206.83V207.67H40.8101V206.83C43.9301 206.83 45.3601 204.8 47.2401 199.96L47.23 199.97ZM63.9401 194.68L57.17 176.98L50.39 194.68H63.9401Z" fill="#323334"></path><path d="M100.99 207.68H78.84L78.74 207.48L101.19 174.15H92.73C84.77 174.15 82.99 176.67 81.16 182.9L80.32 182.7L82.45 171.03L83.34 171.18C82.89 172.76 83.83 173.06 85.51 173.06H105.09L105.19 173.26L82.99 206.59H94.26C102.22 206.59 103.41 204.37 105.58 197L106.42 197.2L103.95 209.76L103.16 209.56C103.6 207.98 102.66 207.68 100.98 207.68H100.99Z" fill="#323334"></path><path d="M130.67 172.18C139.77 172.18 147.73 178.36 147.73 189.74C147.73 201.12 141.45 207.25 132.7 208.38C135.27 213.52 139.42 216.04 144.07 216.04C147.88 216.04 151.74 214.36 154.85 209.56L155.69 210.1C152.28 215.83 147.38 217.77 142.98 217.77C137.49 217.77 132.15 214.61 128.39 208.52C119.98 207.83 112.86 201.65 112.86 190.92C112.86 178.96 120.47 172.18 130.66 172.18H130.67ZM144.42 190.08C144.42 180.59 139.28 173.22 130.33 173.22C121.87 173.22 116.19 179.6 116.19 190.58C116.19 200.07 121.38 207.54 130.28 207.54C139.18 207.54 144.42 201.06 144.42 190.08Z" fill="#323334"></path><path d="M158.48 194.92V180.18C158.48 174.49 157.34 173.9 153.09 173.9V173.06H166.74V173.9C162.68 173.9 161.35 174.49 161.35 180.18V194.47C161.35 203.12 165.21 206.98 171.34 206.98C179.5 206.98 182.76 202.28 182.76 192.49V179.78C182.76 175.38 181.03 173.89 176.73 173.89V173.05H188.94V173.89C185.63 173.89 183.9 175.47 183.9 179.72V192.63C183.9 203.21 180.09 208.55 171.34 208.55C162.59 208.55 158.48 204.25 158.48 194.9V194.92Z" fill="#323334"></path><path d="M215.8 207.68H194.64V206.84C198.89 206.84 200.03 206.25 200.03 200.56V180.19C200.03 174.5 198.89 173.91 194.64 173.91V173.07H214.81C216.49 173.07 217.43 172.77 216.99 171.19L217.78 170.99L220.55 181.18L219.66 181.43C217.49 176.14 216.5 174.11 209.47 174.11H207.99C203.34 174.11 202.9 174.5 202.9 177.72V188.99H206.51C211.45 188.99 211.9 187.31 211.9 183.5H212.89V195.46H211.9C211.9 191.41 211.36 190.02 206.56 190.02H202.9V203.02C202.9 206.23 203.35 206.63 207.99 206.63H210.96C216.99 206.63 218.92 205.1 220.85 198.67L221.79 198.92L218.78 209.75L217.99 209.55C218.44 207.97 217.5 207.67 215.81 207.67L215.8 207.68Z" fill="#323334"></path><path d="M228.62 196.46L229.71 196.21C231.29 203.18 234.56 207.54 240.54 207.54C246.52 207.54 249.49 203.53 249.49 199.77C249.49 195.02 246.38 193.14 240.49 191.06C234.16 188.84 228.92 186.66 228.92 181.02C228.92 176.42 233.42 172.17 239.31 172.17C243.46 172.17 245.34 173.46 246.73 173.46C247.52 173.46 247.97 172.62 247.92 171.53L248.86 171.43L251.43 182.7L250.39 182.9C248.76 177.17 245.1 173.21 239.36 173.21C234.27 173.21 231.84 176.43 231.84 179.84C231.84 183.7 234.26 185.77 240.74 187.95C248.8 190.67 252.46 193.59 252.46 198.78C252.46 203.97 247.51 208.57 240.54 208.57C235.45 208.57 233.47 206.4 231.84 206.4C230.8 206.4 230.3 207.19 230.26 208.28L229.32 208.38L228.63 196.46H228.62Z" fill="#323334"></path><path d="M278.24 194.92V180.18C278.24 174.49 277.1 173.9 272.85 173.9V173.06H286.5V173.9C282.44 173.9 281.11 174.49 281.11 180.18V194.47C281.11 203.12 284.96 206.98 291.1 206.98C299.26 206.98 302.53 202.28 302.53 192.49V179.78C302.53 175.38 300.8 173.89 296.5 173.89V173.05H308.71V173.89C305.4 173.89 303.67 175.47 303.67 179.72V192.63C303.67 203.21 299.86 208.55 291.11 208.55C282.36 208.55 278.26 204.25 278.26 194.9L278.24 194.92Z" fill="#323334"></path><path d="M314.29 190.38C314.29 179.95 322.5 172.18 331.8 172.18C335.66 172.18 337.83 173.07 339.47 173.07C340.75 173.07 341.74 172.77 341.3 171.19L342.09 170.99L345 182.12L344.11 182.37C341.83 175.79 337.24 173.22 331.6 173.22C323.34 173.22 317.61 180.99 317.61 190.38C317.61 200.72 324.73 207.04 332.3 207.04C337.25 207.04 342.58 204.62 345.3 199.52L346.04 200.01C342.78 205.95 337.19 208.56 331.5 208.56C322.45 208.56 314.29 201.39 314.29 190.36V190.38Z" fill="#323334"></path><path d="M373 207.68H351.84V206.84C356.09 206.84 357.23 206.25 357.23 200.56V180.19C357.23 174.5 356.09 173.91 351.84 173.91V173.07H372.01C373.69 173.07 374.63 172.77 374.18 171.19L374.97 170.99L377.74 181.18L376.85 181.43C374.67 176.14 373.69 174.11 366.66 174.11H365.18C360.53 174.11 360.09 174.5 360.09 177.72V188.99H363.7C368.65 188.99 369.09 187.31 369.09 183.5H370.08V195.46H369.09C369.09 191.41 368.55 190.02 363.75 190.02H360.09V203.02C360.09 206.23 360.53 206.63 365.18 206.63H368.15C374.18 206.63 376.11 205.1 378.04 198.67L378.98 198.92L375.96 209.75L375.17 209.55C375.61 207.97 374.67 207.67 372.99 207.67L373 207.68Z" fill="#323334"></path><path d="M390.12 200.56V180.19C390.12 174.5 388.98 173.91 384.92 173.91V173.07H398.57C412.57 173.07 419.29 179.94 419.29 189.73C419.29 200.76 412.32 207.68 399.81 207.68H384.92V206.84C388.98 206.84 390.12 206.25 390.12 200.56ZM398.82 206.64H400.85C410.34 206.64 416.08 199.81 416.08 189.93C416.08 180.63 410.15 174.11 398.77 174.11C394.91 174.11 392.98 174.5 392.98 177.72V202.15C392.98 206.2 394.86 206.65 398.81 206.65L398.82 206.64Z" fill="#323334"></path><path d="M428.36 199.97L437.76 175.59L437.02 173.66V173.36C437.96 172.82 438.46 172.27 439 171.33H439.29L450.66 201C452.44 205.6 453.43 206.83 456.2 206.83V207.67H443.89V206.83C448.04 206.83 449.23 205.49 447.5 201L445.47 195.71H431.13L429.45 200.06C427.57 204.95 429.5 206.83 433.9 206.83V207.67H421.94V206.83C425.05 206.83 426.49 204.8 428.37 199.96L428.36 199.97ZM445.07 194.68L438.3 176.98L431.53 194.68H445.08H445.07Z" fill="#323334"></path><path d="M282.89 91.64C282.01 92.53 281.99 94.16 282.84 95.06C283.69 95.96 285.25 95.94 286.18 95.02C287.36 94.11 287.2 92.66 286.26 91.64C285.37 90.66 283.82 90.7 282.89 91.64Z" fill="#323334"></path><path d="M286.27 47.9499C287.27 46.9699 287.3 45.39 286.24 44.67C285.26 43.68 283.79 43.62 282.87 44.53C282.02 45.36 282.05 47.15 282.92 48.02C283.88 48.96 285.26 48.9499 286.27 47.9499Z" fill="#323334"></path><path d="M210.67 91.9699C206.77 87.7199 202.99 83.5999 199.13 79.3999C198.56 80.0699 198.08 80.6299 197.61 81.1899C196.84 82.0899 195.94 83.1099 195.29 83.7499C193.24 85.7699 187.28 91.7299 184.88 94.5299L185.01 94.6499C189.34 90.7199 193.34 87.0799 197.32 83.4799C199.52 85.9399 199.45 86.3499 197.66 88.5499C196.7 89.7299 196.09 91.2099 195.33 92.5599C195.44 92.7099 195.54 92.8599 195.65 92.9999C197.78 90.5799 199.83 91.3899 202.02 92.7199C203.77 93.7799 205.64 94.6599 207.54 95.4399C208.23 95.7199 209.33 95.7799 209.91 95.4199C211.61 94.3599 213.08 94.4599 214.72 95.5199C215.92 96.2899 217.26 96.8199 218.55 97.4499C220.64 98.4799 222.73 99.4999 224.82 100.52C224.89 100.41 224.96 100.29 225.03 100.18C220.94 96.8699 216.86 93.5599 212.72 90.2199C212 90.8599 211.37 91.3999 210.7 91.9899L210.67 91.9699Z" fill="#323334"></path><path d="M206.03 14.7199C206.92 13.5899 207.04 12.4799 205.95 11.3699C205.04 10.4499 203.63 10.3499 202.56 11.4499C201.63 12.4099 201.89 14.0499 202.67 14.8099C203.53 15.6599 205.17 15.5999 206.03 14.7199Z" fill="#323334"></path><path d="M253.07 14.74C254.03 13.87 253.94 12.3799 252.99 11.4299C251.98 10.4099 250.77 10.36 249.79 11.3C248.71 12.33 248.63 13.72 249.61 14.71C250.57 15.68 252.08 15.64 253.06 14.74H253.07Z" fill="#323334"></path><path d="M172.72 48.0299C173.64 47.1299 173.66 45.4299 172.76 44.5399C171.86 43.6499 170.4 43.6899 169.45 44.6399C168.33 45.4199 168.43 47.0099 169.35 47.9299C170.37 48.9399 171.76 48.9699 172.71 48.0299H172.72Z" fill="#323334"></path><path d="M249.67 124.86C248.7 125.79 248.68 127.21 249.67 128.22C250.63 129.22 252.18 129.29 252.96 128.24C253.93 127.29 253.99 125.64 253.1 124.82C252.21 124 250.55 124.02 249.68 124.86H249.67Z" fill="#323334"></path><path d="M169.49 91.5701C168.46 92.5701 168.33 94.1801 169.37 94.9101C170.37 95.9201 171.76 96.0002 172.75 95.1102C173.64 94.3002 173.65 92.5301 172.76 91.6401C171.85 90.7201 170.41 90.6701 169.48 91.5701H169.49Z" fill="#323334"></path><path d="M202.55 124.84C201.68 125.73 201.72 127.28 202.64 128.19C203.55 129.35 205.1 129.12 205.93 128.26C206.93 127.22 206.98 125.86 206.04 124.9C205.17 124.01 203.39 123.98 202.55 124.83V124.84Z" fill="#323334"></path><path d="M217.86 58.16C216.26 58.16 215.07 57.23 213.25 54.86L206.04 45.49L211.84 38.49C213.63 36.33 215.3 35.3 216.71 35.3V34.71H207.68V35.33C212.18 35.33 212.18 36.84 210.65 38.66L205.52 44.84L200.13 37.84C199.05 36.47 200.09 35.3 202.7 35.33V34.71H193.41V35.3C195.38 35.3 196.64 36.7399 198.06 38.5599L204.12 46.42L197.39 54.97C195.68 57.13 194.19 58.16 192.78 58.16V58.74H201.96V58.1199C197.95 58.1199 197.05 56.6399 198.54 54.7499L204.63 47.0599L211.28 55.71C212.62 57.43 211.73 58.1199 207.94 58.1199V58.74H217.86V58.16Z" fill="#323334"></path><path d="M243.74 50.7402C244.08 51.0102 244.38 51.5001 243.84 52.3201C243.12 53.4001 242.4 54.4901 241.69 55.5701L245.9 52.7202L246.18 53.4301C246.31 53.7601 246.32 54.0602 246.21 54.3502C245.9 55.2002 245.96 56.1101 246.02 57.0701C246.05 57.5901 246.04 58.1102 245.99 58.6002C246.13 58.3102 246.26 57.9901 246.38 57.6201C246.69 56.6801 247.12 55.7802 247.49 55.0302C247.69 54.6302 248.24 54.3801 248.67 54.3801C248.73 54.3801 248.78 54.3801 248.83 54.3901C249.33 54.4701 249.67 55.0501 249.76 55.4301C249.96 56.3501 250.14 57.2801 250.32 58.1801C250.39 58.5401 250.46 58.9001 250.53 59.2501L251.58 53.8201L252.39 54.5302C252.39 54.5302 252.46 54.5902 252.48 54.6102C252.57 54.6802 252.7 54.7801 252.78 54.9601C253.14 55.7901 253.73 56.4902 254.7 57.2302C254.97 57.4402 255.34 57.7202 255.59 58.1102C255.64 58.2002 255.7 58.2801 255.75 58.3701C255.61 57.9801 255.41 57.6001 255.2 57.2001C255.12 57.0401 255.04 56.8902 254.96 56.7302C254.67 56.1502 254.48 55.5401 254.3 54.9401L254.23 54.7101C254.12 54.3601 254.15 54.0202 254.31 53.7402C254.45 53.4902 254.7 53.3102 255 53.2402C255.29 53.1702 255.76 53.1701 256.12 53.4001C257.22 54.1201 258.32 54.8401 259.41 55.5701L256.51 51.2601L257.28 51.0101C257.66 50.8901 257.9 50.9302 258.09 50.9902C258.79 51.2102 259.54 51.3901 260.33 51.2501C261.01 51.1301 261.64 51.0901 262.22 51.1501C261.97 51.0401 261.69 50.9401 261.4 50.8401C260.54 50.5501 259.72 50.1701 258.92 49.8101C258.35 49.5501 258.09 49.0402 258.19 48.4102C258.32 47.6102 258.97 47.5102 259.22 47.4702C259.25 47.4702 259.28 47.4701 259.3 47.4601C260.29 47.2501 261.28 47.0602 262.27 46.8602C262.55 46.8102 262.82 46.7501 263.1 46.7001L258.55 45.8101L257.97 44.7601L258.92 44.3701C259.7 44.0501 260.29 43.4802 260.93 42.7202C261.21 42.3902 261.51 42.0802 261.82 41.7902C261.67 41.8502 261.52 41.9101 261.37 41.9601C261.11 42.0601 260.84 42.1701 260.58 42.2701C260.38 42.3501 260.18 42.4201 259.97 42.5001C259.55 42.6601 259.12 42.8302 258.68 42.9702C258.06 43.1802 257.51 43.0002 257.17 42.4802C256.75 41.8402 257.1 41.3101 257.26 41.0601C257.98 39.9701 258.69 38.8901 259.4 37.8201L254.38 41.2202L254.72 39.7101C254.75 39.5901 254.77 39.5002 254.79 39.4202C254.81 39.3202 254.83 39.2501 254.84 39.1901C254.87 38.9501 254.91 38.7001 254.95 38.4601C255.04 37.9501 255.12 37.4601 255.07 37.0201C255 36.3801 254.97 35.6401 255.07 34.8701C254.94 35.1401 254.83 35.4401 254.72 35.7701C254.47 36.5501 254.13 37.2901 253.8 38.0101L253.67 38.3002C253.5 38.6802 253.23 38.9402 252.91 39.0402C252.63 39.1302 252.34 39.0802 252.07 38.9202C251.71 38.7002 251.42 38.3002 251.33 37.9102C251.06 36.6502 250.81 35.3901 250.57 34.1401L249.49 39.7202L248.67 38.8101C248.62 38.7601 248.58 38.7201 248.54 38.6801C248.44 38.5801 248.33 38.4801 248.26 38.3101C247.95 37.5801 247.42 36.9501 246.61 36.3201C246.25 36.0501 245.76 35.6701 245.44 35.1801C245.42 35.1501 245.41 35.1302 245.39 35.1002C245.49 35.3702 245.61 35.6401 245.74 35.9001C246.19 36.8201 246.55 37.7401 246.85 38.5201C247.08 39.1201 246.9 39.7002 246.37 40.0502C245.72 40.4802 245.21 40.1302 244.96 39.9702L244.92 39.9401C243.85 39.2301 242.78 38.5102 241.71 37.8002L244.86 42.4702H243.7C243.63 42.4702 243.57 42.4702 243.53 42.4702C243.41 42.4702 243.26 42.4802 243.1 42.4102C242.4 42.1202 241.62 42.0301 240.58 42.1201H240.53C239.95 42.1701 239.35 42.2201 238.75 42.1501C239.13 42.3301 239.56 42.4801 240.04 42.6201C240.69 42.8201 241.3 43.1202 241.89 43.4102L242.21 43.5701C243.01 43.9601 242.99 44.6202 242.92 44.9802C242.76 45.7402 242.15 45.8401 241.89 45.8901L241.81 45.9102C240.93 46.0902 240.05 46.2701 239.18 46.4401C238.79 46.5201 238.41 46.5902 238.02 46.6702L243.85 47.8101L242.71 48.6401C242.62 48.7101 242.56 48.7602 242.51 48.7902C242.41 48.8702 242.32 48.9302 242.21 48.9902C241.43 49.3402 240.79 49.8602 240.31 50.5402C240.03 50.9502 239.71 51.3101 239.36 51.6201C239.45 51.5801 239.54 51.5401 239.64 51.5001C239.92 51.3801 240.19 51.2601 240.47 51.1501L240.68 51.0701C241.29 50.8301 241.91 50.5801 242.56 50.4001C243 50.2701 243.49 50.4902 243.78 50.7202L243.74 50.7402Z" fill="#323334"></path><path d="M229.94 66.5201L228.12 63.3601L226.3 66.5201H222.66L224.48 69.6701L222.66 72.8201H226.3L228.12 75.9701L229.94 72.8201H233.58L231.76 69.6701L233.58 66.5201H229.94Z" fill="#323334"></path><path d="M240.44 68.6C240.41 68.28 240.37 67.97 240.32 67.65C239.46 62.44 235.35 58.32 230.14 57.46C229.82 57.41 229.5 57.37 229.18 57.34C229.14 57.34 229.11 57.34 229.07 57.34C228.43 57.29 227.8 57.29 227.16 57.34C227.12 57.34 227.09 57.34 227.05 57.34C226.73 57.37 226.41 57.41 226.09 57.46C220.88 58.32 216.76 62.44 215.91 67.65C215.86 67.97 215.82 68.28 215.79 68.6C215.79 68.64 215.79 68.68 215.79 68.72C215.77 69.04 215.75 69.35 215.75 69.66C215.75 69.97 215.77 70.29 215.79 70.6C215.79 70.64 215.79 70.68 215.79 70.72C215.82 71.04 215.86 71.35 215.91 71.67C216.77 76.88 220.89 81 226.09 81.86C226.41 81.91 226.73 81.95 227.05 81.98C227.08 81.98 227.12 81.98 227.16 81.98C227.8 82.03 228.43 82.03 229.07 81.98C229.11 81.98 229.14 81.98 229.18 81.98C229.5 81.95 229.82 81.91 230.14 81.86C235.34 81 239.46 76.88 240.32 71.67C240.37 71.35 240.41 71.04 240.44 70.72C240.44 70.68 240.44 70.64 240.44 70.6C240.46 70.28 240.48 69.97 240.48 69.66C240.48 69.35 240.47 69.03 240.44 68.72C240.44 68.68 240.44 68.64 240.44 68.6ZM228.12 79.93C222.45 79.93 217.85 75.33 217.85 69.66C217.85 63.99 222.45 59.39 228.12 59.39C233.79 59.39 238.39 63.99 238.39 69.66C238.39 75.33 233.79 79.93 228.12 79.93Z" fill="#323334"></path><path d="M246.55 88.9601C247.16 89.2401 247.67 89.5501 248.09 89.8501C248.35 88.7801 249.31 87.9901 250.46 87.9901C251.61 87.9901 252.63 88.8301 252.85 89.9601C253.29 89.6201 253.85 89.2701 254.53 88.9601C256.05 88.2601 258.7 86.2901 259.61 82.8201H241.47C242.38 86.2901 245.03 88.2601 246.55 88.9601Z" fill="#323334"></path><path d="M254.84 103.52C252.69 103.12 251.5 100.92 251.42 96.8701C251.39 95.4701 251.38 94.1901 251.39 93.1201C251.16 93.3701 250.83 93.5302 250.46 93.5302C250.17 93.5302 249.91 93.4301 249.7 93.2701C249.7 94.3101 249.7 95.5301 249.67 96.8701C249.59 100.93 248.4 103.13 246.25 103.52C243.82 103.97 242.63 105.74 242.63 105.74H249.85C249.37 105.51 249.04 105.02 249.04 104.45C249.04 103.66 249.68 103.02 250.47 103.02C251.26 103.02 251.9 103.66 251.9 104.45C251.9 105.02 251.57 105.51 251.09 105.74H258.48C258.48 105.74 257.29 103.97 254.86 103.52H254.84Z" fill="#323334"></path><path d="M248.79 80.29H241.15C241.15 80.85 241.2 81.39 241.28 81.89H259.81C259.89 81.38 259.94 80.85 259.94 80.29H248.8H248.79Z" fill="#323334"></path><path d="M252.28 90.84C252.28 89.83 251.46 89.01 250.45 89.01C249.44 89.01 248.62 89.83 248.62 90.84C248.62 91.85 249.44 92.67 250.45 92.67C251.46 92.67 252.28 91.85 252.28 90.84Z" fill="#323334"></path><path d="M228.17 0C190 0 158.94 31.06 158.94 69.23C158.94 107.4 190 138.46 228.17 138.46C266.34 138.46 297.4 107.4 297.4 69.23C297.4 31.06 266.34 0 228.17 0ZM228.17 136.41C191.13 136.41 160.99 106.27 160.99 69.23C160.99 32.19 191.13 2.05005 228.17 2.05005C265.21 2.05005 295.35 32.19 295.35 69.23C295.35 106.27 265.21 136.41 228.17 136.41Z" fill="#323334"></path><path d="M282.43 74.4001L288.73 69.6301L282.41 64.8401L282.38 64.5701C279.92 38.4901 259.2 17.8001 233.12 15.3601L232.85 15.3401L228.1 9.06006L223.36 15.3201L223.09 15.3401C210.38 16.4701 198.39 22.0801 189.34 31.1301C180.29 40.1901 174.68 52.1701 173.55 64.8801L173.53 65.1501L167.53 69.6901L173.51 74.2201L173.53 74.4901C174.63 87.2801 180.25 99.3301 189.36 108.43C198.47 117.53 210.54 123.14 223.33 124.21L223.6 124.23L228.16 130.25L232.74 124.2L233.01 124.18C259.3 121.78 280.07 100.95 282.41 74.6601L282.43 74.3901V74.4001ZM228.17 11.6401C228.17 11.6401 230.28 15.5301 231.23 16.4901C230.18 17.5401 229.15 18.7601 228.17 19.7401C227.13 18.7001 226.1 17.4701 225.11 16.4901C226.07 15.5301 228.17 11.6401 228.17 11.6401ZM169.98 69.7301C169.98 69.7301 173.87 67.6201 174.83 66.6701C175.88 67.7201 177.1 68.7501 178.08 69.7301C177.04 70.7701 175.81 71.8001 174.83 72.7901C173.87 71.8301 169.98 69.7301 169.98 69.7301ZM228.18 128.07C228.18 128.07 226.07 124.18 225.12 123.22C226.17 122.17 227.2 120.95 228.18 119.97C229.22 121.01 230.25 122.24 231.24 123.22C230.28 124.18 228.18 128.07 228.18 128.07ZM279.77 74.3301C277.6 99.3401 257.89 119.2 232.89 121.55L232.55 121.58L229.65 117.75V83.1901C229.65 83.1901 229.64 83.1901 229.63 83.1901C229.4 83.2101 229.18 83.2301 228.95 83.2501C228.93 83.2501 228.9 83.2501 228.88 83.2501C228.63 83.2601 228.38 83.2701 228.13 83.2701C227.88 83.2701 227.63 83.2701 227.38 83.2501C227.36 83.2501 227.35 83.2501 227.33 83.2501C227.09 83.2401 226.85 83.2201 226.62 83.1901C226.62 83.1901 226.62 83.1901 226.61 83.1901V117.66L223.62 121.6L223.28 121.57C198.24 119.33 178.44 99.5301 176.19 74.4901L176.16 74.1501L180.05 71.2001H214.61C214.61 71.2001 214.61 71.1901 214.61 71.1801C214.59 70.9501 214.57 70.7201 214.55 70.4901C214.55 70.4701 214.55 70.4401 214.55 70.4201C214.54 70.1701 214.53 69.9201 214.53 69.6701C214.53 69.4201 214.53 69.1701 214.55 68.9201C214.55 68.9001 214.55 68.8701 214.55 68.8501C214.56 68.6201 214.58 68.3901 214.61 68.1701C214.61 68.1701 214.61 68.1601 214.61 68.1501H180.14L176.18 65.1501L176.21 64.8101C178.58 39.8101 198.47 20.1101 223.5 17.9801L223.84 17.9501L226.61 21.6001V56.1601C226.61 56.1601 226.61 56.1601 226.62 56.1601C226.86 56.1301 227.09 56.1101 227.33 56.1001C227.35 56.1001 227.36 56.1001 227.38 56.1001C227.63 56.0901 227.88 56.0801 228.13 56.0801C228.38 56.0801 228.63 56.0801 228.88 56.1001C228.9 56.1001 228.93 56.1001 228.95 56.1001C229.18 56.1101 229.41 56.1301 229.63 56.1601C229.63 56.1601 229.64 56.1601 229.65 56.1601V21.6901L232.46 17.9801L232.8 18.0101C257.77 20.3101 277.52 40.1101 279.76 65.0901L279.79 65.4301L276.2 68.1501H241.64C241.64 68.1501 241.64 68.1601 241.64 68.1701C241.66 68.4001 241.68 68.6201 241.7 68.8501C241.7 68.8801 241.7 68.9001 241.7 68.9201C241.71 69.1701 241.72 69.4201 241.72 69.6701C241.72 69.9201 241.72 70.1701 241.7 70.4201C241.7 70.4401 241.7 70.4701 241.7 70.4901C241.69 70.7201 241.67 70.9501 241.64 71.1801C241.64 71.1801 241.64 71.1901 241.64 71.2001H276.11L279.8 74.0001L279.77 74.3401V74.3301ZM277.93 69.7301C278.92 68.7401 280.13 67.7201 281.18 66.6701C282.14 67.6301 286.03 69.7301 286.03 69.7301C286.03 69.7301 282.15 71.8201 281.18 72.7901C280.2 71.8101 278.96 70.7701 277.93 69.7301Z" fill="#323334"></path><path d="M5.53001 200.56V180.19C5.53001 174.5 4.39001 173.91 0.140015 173.91V173.07H13.79V173.91C9.74002 173.91 8.40002 174.5 8.40002 180.19V188.9H28.53V180.19C28.53 174.5 27.39 173.91 23.14 173.91V173.07H36.79V173.91C32.74 173.91 31.4 174.5 31.4 180.19V200.56C31.4 206.25 32.54 206.84 36.79 206.84V207.68H23.14V206.84C27.39 206.84 28.53 206.25 28.53 200.56V190.03H8.40002V200.56C8.40002 206.25 9.54002 206.84 13.79 206.84V207.68H0.140015V206.84C4.39001 206.84 5.53001 206.25 5.53001 200.56Z" fill="#323334"></path><path d="M47.23 199.97L56.63 175.59L55.89 173.66V173.36C56.83 172.82 57.3301 172.27 57.8701 171.33H58.17L69.54 201C71.32 205.6 72.31 206.83 75.08 206.83V207.67H62.7701V206.83C66.9201 206.83 68.11 205.49 66.38 201L64.35 195.71H50.01L48.33 200.06C46.45 204.95 48.3801 206.83 52.7801 206.83V207.67H40.8101V206.83C43.9301 206.83 45.3601 204.8 47.2401 199.96L47.23 199.97ZM63.9401 194.68L57.17 176.98L50.39 194.68H63.9401Z" fill="#323334"></path><path d="M100.99 207.68H78.84L78.74 207.48L101.19 174.15H92.73C84.77 174.15 82.99 176.67 81.16 182.9L80.32 182.7L82.45 171.03L83.34 171.18C82.89 172.76 83.83 173.06 85.51 173.06H105.09L105.19 173.26L82.99 206.59H94.26C102.22 206.59 103.41 204.37 105.58 197L106.42 197.2L103.95 209.76L103.16 209.56C103.6 207.98 102.66 207.68 100.98 207.68H100.99Z" fill="#323334"></path><path d="M130.67 172.18C139.77 172.18 147.73 178.36 147.73 189.74C147.73 201.12 141.45 207.25 132.7 208.38C135.27 213.52 139.42 216.04 144.07 216.04C147.88 216.04 151.74 214.36 154.85 209.56L155.69 210.1C152.28 215.83 147.38 217.77 142.98 217.77C137.49 217.77 132.15 214.61 128.39 208.52C119.98 207.83 112.86 201.65 112.86 190.92C112.86 178.96 120.47 172.18 130.66 172.18H130.67ZM144.42 190.08C144.42 180.59 139.28 173.22 130.33 173.22C121.87 173.22 116.19 179.6 116.19 190.58C116.19 200.07 121.38 207.54 130.28 207.54C139.18 207.54 144.42 201.06 144.42 190.08Z" fill="#323334"></path><path d="M158.48 194.92V180.18C158.48 174.49 157.34 173.9 153.09 173.9V173.06H166.74V173.9C162.68 173.9 161.35 174.49 161.35 180.18V194.47C161.35 203.12 165.21 206.98 171.34 206.98C179.5 206.98 182.76 202.28 182.76 192.49V179.78C182.76 175.38 181.03 173.89 176.73 173.89V173.05H188.94V173.89C185.63 173.89 183.9 175.47 183.9 179.72V192.63C183.9 203.21 180.09 208.55 171.34 208.55C162.59 208.55 158.48 204.25 158.48 194.9V194.92Z" fill="#323334"></path><path d="M215.8 207.68H194.64V206.84C198.89 206.84 200.03 206.25 200.03 200.56V180.19C200.03 174.5 198.89 173.91 194.64 173.91V173.07H214.81C216.49 173.07 217.43 172.77 216.99 171.19L217.78 170.99L220.55 181.18L219.66 181.43C217.49 176.14 216.5 174.11 209.47 174.11H207.99C203.34 174.11 202.9 174.5 202.9 177.72V188.99H206.51C211.45 188.99 211.9 187.31 211.9 183.5H212.89V195.46H211.9C211.9 191.41 211.36 190.02 206.56 190.02H202.9V203.02C202.9 206.23 203.35 206.63 207.99 206.63H210.96C216.99 206.63 218.92 205.1 220.85 198.67L221.79 198.92L218.78 209.75L217.99 209.55C218.44 207.97 217.5 207.67 215.81 207.67L215.8 207.68Z" fill="#323334"></path><path d="M228.62 196.46L229.71 196.21C231.29 203.18 234.56 207.54 240.54 207.54C246.52 207.54 249.49 203.53 249.49 199.77C249.49 195.02 246.38 193.14 240.49 191.06C234.16 188.84 228.92 186.66 228.92 181.02C228.92 176.42 233.42 172.17 239.31 172.17C243.46 172.17 245.34 173.46 246.73 173.46C247.52 173.46 247.97 172.62 247.92 171.53L248.86 171.43L251.43 182.7L250.39 182.9C248.76 177.17 245.1 173.21 239.36 173.21C234.27 173.21 231.84 176.43 231.84 179.84C231.84 183.7 234.26 185.77 240.74 187.95C248.8 190.67 252.46 193.59 252.46 198.78C252.46 203.97 247.51 208.57 240.54 208.57C235.45 208.57 233.47 206.4 231.84 206.4C230.8 206.4 230.3 207.19 230.26 208.28L229.32 208.38L228.63 196.46H228.62Z" fill="#323334"></path><path d="M278.24 194.92V180.18C278.24 174.49 277.1 173.9 272.85 173.9V173.06H286.5V173.9C282.44 173.9 281.11 174.49 281.11 180.18V194.47C281.11 203.12 284.96 206.98 291.1 206.98C299.26 206.98 302.53 202.28 302.53 192.49V179.78C302.53 175.38 300.8 173.89 296.5 173.89V173.05H308.71V173.89C305.4 173.89 303.67 175.47 303.67 179.72V192.63C303.67 203.21 299.86 208.55 291.11 208.55C282.36 208.55 278.26 204.25 278.26 194.9L278.24 194.92Z" fill="#323334"></path><path d="M314.29 190.38C314.29 179.95 322.5 172.18 331.8 172.18C335.66 172.18 337.83 173.07 339.47 173.07C340.75 173.07 341.74 172.77 341.3 171.19L342.09 170.99L345 182.12L344.11 182.37C341.83 175.79 337.24 173.22 331.6 173.22C323.34 173.22 317.61 180.99 317.61 190.38C317.61 200.72 324.73 207.04 332.3 207.04C337.25 207.04 342.58 204.62 345.3 199.52L346.04 200.01C342.78 205.95 337.19 208.56 331.5 208.56C322.45 208.56 314.29 201.39 314.29 190.36V190.38Z" fill="#323334"></path><path d="M373 207.68H351.84V206.84C356.09 206.84 357.23 206.25 357.23 200.56V180.19C357.23 174.5 356.09 173.91 351.84 173.91V173.07H372.01C373.69 173.07 374.63 172.77 374.18 171.19L374.97 170.99L377.74 181.18L376.85 181.43C374.67 176.14 373.69 174.11 366.66 174.11H365.18C360.53 174.11 360.09 174.5 360.09 177.72V188.99H363.7C368.65 188.99 369.09 187.31 369.09 183.5H370.08V195.46H369.09C369.09 191.41 368.55 190.02 363.75 190.02H360.09V203.02C360.09 206.23 360.53 206.63 365.18 206.63H368.15C374.18 206.63 376.11 205.1 378.04 198.67L378.98 198.92L375.96 209.75L375.17 209.55C375.61 207.97 374.67 207.67 372.99 207.67L373 207.68Z" fill="#323334"></path><path d="M390.12 200.56V180.19C390.12 174.5 388.98 173.91 384.92 173.91V173.07H398.57C412.57 173.07 419.29 179.94 419.29 189.73C419.29 200.76 412.32 207.68 399.81 207.68H384.92V206.84C388.98 206.84 390.12 206.25 390.12 200.56ZM398.82 206.64H400.85C410.34 206.64 416.08 199.81 416.08 189.93C416.08 180.63 410.15 174.11 398.77 174.11C394.91 174.11 392.98 174.5 392.98 177.72V202.15C392.98 206.2 394.86 206.65 398.81 206.65L398.82 206.64Z" fill="#323334"></path><path d="M428.36 199.97L437.76 175.59L437.02 173.66V173.36C437.96 172.82 438.46 172.27 439 171.33H439.29L450.66 201C452.44 205.6 453.43 206.83 456.2 206.83V207.67H443.89V206.83C448.04 206.83 449.23 205.49 447.5 201L445.47 195.71H431.13L429.45 200.06C427.57 204.95 429.5 206.83 433.9 206.83V207.67H421.94V206.83C425.05 206.83 426.49 204.8 428.37 199.96L428.36 199.97ZM445.07 194.68L438.3 176.98L431.53 194.68H445.08H445.07Z" fill="#323334"></path><path d="M282.89 91.64C282.01 92.53 281.99 94.16 282.84 95.06C283.69 95.96 285.25 95.94 286.18 95.02C287.36 94.11 287.2 92.66 286.26 91.64C285.37 90.66 283.82 90.7 282.89 91.64Z" fill="#323334"></path><path d="M286.27 47.9499C287.27 46.9699 287.3 45.39 286.24 44.67C285.26 43.68 283.79 43.62 282.87 44.53C282.02 45.36 282.05 47.15 282.92 48.02C283.88 48.96 285.26 48.9499 286.27 47.9499Z" fill="#323334"></path><path d="M210.67 91.9699C206.77 87.7199 202.99 83.5999 199.13 79.3999C198.56 80.0699 198.08 80.6299 197.61 81.1899C196.84 82.0899 195.94 83.1099 195.29 83.7499C193.24 85.7699 187.28 91.7299 184.88 94.5299L185.01 94.6499C189.34 90.7199 193.34 87.0799 197.32 83.4799C199.52 85.9399 199.45 86.3499 197.66 88.5499C196.7 89.7299 196.09 91.2099 195.33 92.5599C195.44 92.7099 195.54 92.8599 195.65 92.9999C197.78 90.5799 199.83 91.3899 202.02 92.7199C203.77 93.7799 205.64 94.6599 207.54 95.4399C208.23 95.7199 209.33 95.7799 209.91 95.4199C211.61 94.3599 213.08 94.4599 214.72 95.5199C215.92 96.2899 217.26 96.8199 218.55 97.4499C220.64 98.4799 222.73 99.4999 224.82 100.52C224.89 100.41 224.96 100.29 225.03 100.18C220.94 96.8699 216.86 93.5599 212.72 90.2199C212 90.8599 211.37 91.3999 210.7 91.9899L210.67 91.9699Z" fill="#323334"></path><path d="M206.03 14.7199C206.92 13.5899 207.04 12.4799 205.95 11.3699C205.04 10.4499 203.63 10.3499 202.56 11.4499C201.63 12.4099 201.89 14.0499 202.67 14.8099C203.53 15.6599 205.17 15.5999 206.03 14.7199Z" fill="#323334"></path><path d="M253.07 14.74C254.03 13.87 253.94 12.3799 252.99 11.4299C251.98 10.4099 250.77 10.36 249.79 11.3C248.71 12.33 248.63 13.72 249.61 14.71C250.57 15.68 252.08 15.64 253.06 14.74H253.07Z" fill="#323334"></path><path d="M172.72 48.0299C173.64 47.1299 173.66 45.4299 172.76 44.5399C171.86 43.6499 170.4 43.6899 169.45 44.6399C168.33 45.4199 168.43 47.0099 169.35 47.9299C170.37 48.9399 171.76 48.9699 172.71 48.0299H172.72Z" fill="#323334"></path><path d="M249.67 124.86C248.7 125.79 248.68 127.21 249.67 128.22C250.63 129.22 252.18 129.29 252.96 128.24C253.93 127.29 253.99 125.64 253.1 124.82C252.21 124 250.55 124.02 249.68 124.86H249.67Z" fill="#323334"></path><path d="M169.49 91.5701C168.46 92.5701 168.33 94.1801 169.37 94.9101C170.37 95.9201 171.76 96.0002 172.75 95.1102C173.64 94.3002 173.65 92.5301 172.76 91.6401C171.85 90.7201 170.41 90.6701 169.48 91.5701H169.49Z" fill="#323334"></path><path d="M202.55 124.84C201.68 125.73 201.72 127.28 202.64 128.19C203.55 129.35 205.1 129.12 205.93 128.26C206.93 127.22 206.98 125.86 206.04 124.9C205.17 124.01 203.39 123.98 202.55 124.83V124.84Z" fill="#323334"></path><path d="M217.86 58.16C216.26 58.16 215.07 57.23 213.25 54.86L206.04 45.49L211.84 38.49C213.63 36.33 215.3 35.3 216.71 35.3V34.71H207.68V35.33C212.18 35.33 212.18 36.84 210.65 38.66L205.52 44.84L200.13 37.84C199.05 36.47 200.09 35.3 202.7 35.33V34.71H193.41V35.3C195.38 35.3 196.64 36.7399 198.06 38.5599L204.12 46.42L197.39 54.97C195.68 57.13 194.19 58.16 192.78 58.16V58.74H201.96V58.1199C197.95 58.1199 197.05 56.6399 198.54 54.7499L204.63 47.0599L211.28 55.71C212.62 57.43 211.73 58.1199 207.94 58.1199V58.74H217.86V58.16Z" fill="#323334"></path><path d="M243.74 50.7402C244.08 51.0102 244.38 51.5001 243.84 52.3201C243.12 53.4001 242.4 54.4901 241.69 55.5701L245.9 52.7202L246.18 53.4301C246.31 53.7601 246.32 54.0602 246.21 54.3502C245.9 55.2002 245.96 56.1101 246.02 57.0701C246.05 57.5901 246.04 58.1102 245.99 58.6002C246.13 58.3102 246.26 57.9901 246.38 57.6201C246.69 56.6801 247.12 55.7802 247.49 55.0302C247.69 54.6302 248.24 54.3801 248.67 54.3801C248.73 54.3801 248.78 54.3801 248.83 54.3901C249.33 54.4701 249.67 55.0501 249.76 55.4301C249.96 56.3501 250.14 57.2801 250.32 58.1801C250.39 58.5401 250.46 58.9001 250.53 59.2501L251.58 53.8201L252.39 54.5302C252.39 54.5302 252.46 54.5902 252.48 54.6102C252.57 54.6802 252.7 54.7801 252.78 54.9601C253.14 55.7901 253.73 56.4902 254.7 57.2302C254.97 57.4402 255.34 57.7202 255.59 58.1102C255.64 58.2002 255.7 58.2801 255.75 58.3701C255.61 57.9801 255.41 57.6001 255.2 57.2001C255.12 57.0401 255.04 56.8902 254.96 56.7302C254.67 56.1502 254.48 55.5401 254.3 54.9401L254.23 54.7101C254.12 54.3601 254.15 54.0202 254.31 53.7402C254.45 53.4902 254.7 53.3102 255 53.2402C255.29 53.1702 255.76 53.1701 256.12 53.4001C257.22 54.1201 258.32 54.8401 259.41 55.5701L256.51 51.2601L257.28 51.0101C257.66 50.8901 257.9 50.9302 258.09 50.9902C258.79 51.2102 259.54 51.3901 260.33 51.2501C261.01 51.1301 261.64 51.0901 262.22 51.1501C261.97 51.0401 261.69 50.9401 261.4 50.8401C260.54 50.5501 259.72 50.1701 258.92 49.8101C258.35 49.5501 258.09 49.0402 258.19 48.4102C258.32 47.6102 258.97 47.5102 259.22 47.4702C259.25 47.4702 259.28 47.4701 259.3 47.4601C260.29 47.2501 261.28 47.0602 262.27 46.8602C262.55 46.8102 262.82 46.7501 263.1 46.7001L258.55 45.8101L257.97 44.7601L258.92 44.3701C259.7 44.0501 260.29 43.4802 260.93 42.7202C261.21 42.3902 261.51 42.0802 261.82 41.7902C261.67 41.8502 261.52 41.9101 261.37 41.9601C261.11 42.0601 260.84 42.1701 260.58 42.2701C260.38 42.3501 260.18 42.4201 259.97 42.5001C259.55 42.6601 259.12 42.8302 258.68 42.9702C258.06 43.1802 257.51 43.0002 257.17 42.4802C256.75 41.8402 257.1 41.3101 257.26 41.0601C257.98 39.9701 258.69 38.8901 259.4 37.8201L254.38 41.2202L254.72 39.7101C254.75 39.5901 254.77 39.5002 254.79 39.4202C254.81 39.3202 254.83 39.2501 254.84 39.1901C254.87 38.9501 254.91 38.7001 254.95 38.4601C255.04 37.9501 255.12 37.4601 255.07 37.0201C255 36.3801 254.97 35.6401 255.07 34.8701C254.94 35.1401 254.83 35.4401 254.72 35.7701C254.47 36.5501 254.13 37.2901 253.8 38.0101L253.67 38.3002C253.5 38.6802 253.23 38.9402 252.91 39.0402C252.63 39.1302 252.34 39.0802 252.07 38.9202C251.71 38.7002 251.42 38.3002 251.33 37.9102C251.06 36.6502 250.81 35.3901 250.57 34.1401L249.49 39.7202L248.67 38.8101C248.62 38.7601 248.58 38.7201 248.54 38.6801C248.44 38.5801 248.33 38.4801 248.26 38.3101C247.95 37.5801 247.42 36.9501 246.61 36.3201C246.25 36.0501 245.76 35.6701 245.44 35.1801C245.42 35.1501 245.41 35.1302 245.39 35.1002C245.49 35.3702 245.61 35.6401 245.74 35.9001C246.19 36.8201 246.55 37.7401 246.85 38.5201C247.08 39.1201 246.9 39.7002 246.37 40.0502C245.72 40.4802 245.21 40.1302 244.96 39.9702L244.92 39.9401C243.85 39.2301 242.78 38.5102 241.71 37.8002L244.86 42.4702H243.7C243.63 42.4702 243.57 42.4702 243.53 42.4702C243.41 42.4702 243.26 42.4802 243.1 42.4102C242.4 42.1202 241.62 42.0301 240.58 42.1201H240.53C239.95 42.1701 239.35 42.2201 238.75 42.1501C239.13 42.3301 239.56 42.4801 240.04 42.6201C240.69 42.8201 241.3 43.1202 241.89 43.4102L242.21 43.5701C243.01 43.9601 242.99 44.6202 242.92 44.9802C242.76 45.7402 242.15 45.8401 241.89 45.8901L241.81 45.9102C240.93 46.0902 240.05 46.2701 239.18 46.4401C238.79 46.5201 238.41 46.5902 238.02 46.6702L243.85 47.8101L242.71 48.6401C242.62 48.7101 242.56 48.7602 242.51 48.7902C242.41 48.8702 242.32 48.9302 242.21 48.9902C241.43 49.3402 240.79 49.8602 240.31 50.5402C240.03 50.9502 239.71 51.3101 239.36 51.6201C239.45 51.5801 239.54 51.5401 239.64 51.5001C239.92 51.3801 240.19 51.2601 240.47 51.1501L240.68 51.0701C241.29 50.8301 241.91 50.5801 242.56 50.4001C243 50.2701 243.49 50.4902 243.78 50.7202L243.74 50.7402Z" fill="#323334"></path><path d="M229.94 66.5201L228.12 63.3601L226.3 66.5201H222.66L224.48 69.6701L222.66 72.8201H226.3L228.12 75.9701L229.94 72.8201H233.58L231.76 69.6701L233.58 66.5201H229.94Z" fill="#323334"></path><path d="M240.44 68.6C240.41 68.28 240.37 67.97 240.32 67.65C239.46 62.44 235.35 58.32 230.14 57.46C229.82 57.41 229.5 57.37 229.18 57.34C229.14 57.34 229.11 57.34 229.07 57.34C228.43 57.29 227.8 57.29 227.16 57.34C227.12 57.34 227.09 57.34 227.05 57.34C226.73 57.37 226.41 57.41 226.09 57.46C220.88 58.32 216.76 62.44 215.91 67.65C215.86 67.97 215.82 68.28 215.79 68.6C215.79 68.64 215.79 68.68 215.79 68.72C215.77 69.04 215.75 69.35 215.75 69.66C215.75 69.97 215.77 70.29 215.79 70.6C215.79 70.64 215.79 70.68 215.79 70.72C215.82 71.04 215.86 71.35 215.91 71.67C216.77 76.88 220.89 81 226.09 81.86C226.41 81.91 226.73 81.95 227.05 81.98C227.08 81.98 227.12 81.98 227.16 81.98C227.8 82.03 228.43 82.03 229.07 81.98C229.11 81.98 229.14 81.98 229.18 81.98C229.5 81.95 229.82 81.91 230.14 81.86C235.34 81 239.46 76.88 240.32 71.67C240.37 71.35 240.41 71.04 240.44 70.72C240.44 70.68 240.44 70.64 240.44 70.6C240.46 70.28 240.48 69.97 240.48 69.66C240.48 69.35 240.47 69.03 240.44 68.72C240.44 68.68 240.44 68.64 240.44 68.6ZM228.12 79.93C222.45 79.93 217.85 75.33 217.85 69.66C217.85 63.99 222.45 59.39 228.12 59.39C233.79 59.39 238.39 63.99 238.39 69.66C238.39 75.33 233.79 79.93 228.12 79.93Z" fill="#323334"></path><path d="M246.55 88.9601C247.16 89.2401 247.67 89.5501 248.09 89.8501C248.35 88.7801 249.31 87.9901 250.46 87.9901C251.61 87.9901 252.63 88.8301 252.85 89.9601C253.29 89.6201 253.85 89.2701 254.53 88.9601C256.05 88.2601 258.7 86.2901 259.61 82.8201H241.47C242.38 86.2901 245.03 88.2601 246.55 88.9601Z" fill="#323334"></path><path d="M254.84 103.52C252.69 103.12 251.5 100.92 251.42 96.8701C251.39 95.4701 251.38 94.1901 251.39 93.1201C251.16 93.3701 250.83 93.5302 250.46 93.5302C250.17 93.5302 249.91 93.4301 249.7 93.2701C249.7 94.3101 249.7 95.5301 249.67 96.8701C249.59 100.93 248.4 103.13 246.25 103.52C243.82 103.97 242.63 105.74 242.63 105.74H249.85C249.37 105.51 249.04 105.02 249.04 104.45C249.04 103.66 249.68 103.02 250.47 103.02C251.26 103.02 251.9 103.66 251.9 104.45C251.9 105.02 251.57 105.51 251.09 105.74H258.48C258.48 105.74 257.29 103.97 254.86 103.52H254.84Z" fill="#323334"></path><path d="M248.79 80.29H241.15C241.15 80.85 241.2 81.39 241.28 81.89H259.81C259.89 81.38 259.94 80.85 259.94 80.29H248.8H248.79Z" fill="#323334"></path><path d="M252.28 90.84C252.28 89.83 251.46 89.01 250.45 89.01C249.44 89.01 248.62 89.83 248.62 90.84C248.62 91.85 249.44 92.67 250.45 92.67C251.46 92.67 252.28 91.85 252.28 90.84Z" fill="#323334"></path><path d="M228.17 0C190 0 158.94 31.06 158.94 69.23C158.94 107.4 190 138.46 228.17 138.46C266.34 138.46 297.4 107.4 297.4 69.23C297.4 31.06 266.34 0 228.17 0ZM228.17 136.41C191.13 136.41 160.99 106.27 160.99 69.23C160.99 32.19 191.13 2.05005 228.17 2.05005C265.21 2.05005 295.35 32.19 295.35 69.23C295.35 106.27 265.21 136.41 228.17 136.41Z" fill="#323334"></path><path d="M282.43 74.4001L288.73 69.6301L282.41 64.8401L282.38 64.5701C279.92 38.4901 259.2 17.8001 233.12 15.3601L232.85 15.3401L228.1 9.06006L223.36 15.3201L223.09 15.3401C210.38 16.4701 198.39 22.0801 189.34 31.1301C180.29 40.1901 174.68 52.1701 173.55 64.8801L173.53 65.1501L167.53 69.6901L173.51 74.2201L173.53 74.4901C174.63 87.2801 180.25 99.3301 189.36 108.43C198.47 117.53 210.54 123.14 223.33 124.21L223.6 124.23L228.16 130.25L232.74 124.2L233.01 124.18C259.3 121.78 280.07 100.95 282.41 74.6601L282.43 74.3901V74.4001ZM228.17 11.6401C228.17 11.6401 230.28 15.5301 231.23 16.4901C230.18 17.5401 229.15 18.7601 228.17 19.7401C227.13 18.7001 226.1 17.4701 225.11 16.4901C226.07 15.5301 228.17 11.6401 228.17 11.6401ZM169.98 69.7301C169.98 69.7301 173.87 67.6201 174.83 66.6701C175.88 67.7201 177.1 68.7501 178.08 69.7301C177.04 70.7701 175.81 71.8001 174.83 72.7901C173.87 71.8301 169.98 69.7301 169.98 69.7301ZM228.18 128.07C228.18 128.07 226.07 124.18 225.12 123.22C226.17 122.17 227.2 120.95 228.18 119.97C229.22 121.01 230.25 122.24 231.24 123.22C230.28 124.18 228.18 128.07 228.18 128.07ZM279.77 74.3301C277.6 99.3401 257.89 119.2 232.89 121.55L232.55 121.58L229.65 117.75V83.1901C229.65 83.1901 229.64 83.1901 229.63 83.1901C229.4 83.2101 229.18 83.2301 228.95 83.2501C228.93 83.2501 228.9 83.2501 228.88 83.2501C228.63 83.2601 228.38 83.2701 228.13 83.2701C227.88 83.2701 227.63 83.2701 227.38 83.2501C227.36 83.2501 227.35 83.2501 227.33 83.2501C227.09 83.2401 226.85 83.2201 226.62 83.1901C226.62 83.1901 226.62 83.1901 226.61 83.1901V117.66L223.62 121.6L223.28 121.57C198.24 119.33 178.44 99.5301 176.19 74.4901L176.16 74.1501L180.05 71.2001H214.61C214.61 71.2001 214.61 71.1901 214.61 71.1801C214.59 70.9501 214.57 70.7201 214.55 70.4901C214.55 70.4701 214.55 70.4401 214.55 70.4201C214.54 70.1701 214.53 69.9201 214.53 69.6701C214.53 69.4201 214.53 69.1701 214.55 68.9201C214.55 68.9001 214.55 68.8701 214.55 68.8501C214.56 68.6201 214.58 68.3901 214.61 68.1701C214.61 68.1701 214.61 68.1601 214.61 68.1501H180.14L176.18 65.1501L176.21 64.8101C178.58 39.8101 198.47 20.1101 223.5 17.9801L223.84 17.9501L226.61 21.6001V56.1601C226.61 56.1601 226.61 56.1601 226.62 56.1601C226.86 56.1301 227.09 56.1101 227.33 56.1001C227.35 56.1001 227.36 56.1001 227.38 56.1001C227.63 56.0901 227.88 56.0801 228.13 56.0801C228.38 56.0801 228.63 56.0801 228.88 56.1001C228.9 56.1001 228.93 56.1001 228.95 56.1001C229.18 56.1101 229.41 56.1301 229.63 56.1601C229.63 56.1601 229.64 56.1601 229.65 56.1601V21.6901L232.46 17.9801L232.8 18.0101C257.77 20.3101 277.52 40.1101 279.76 65.0901L279.79 65.4301L276.2 68.1501H241.64C241.64 68.1501 241.64 68.1601 241.64 68.1701C241.66 68.4001 241.68 68.6201 241.7 68.8501C241.7 68.8801 241.7 68.9001 241.7 68.9201C241.71 69.1701 241.72 69.4201 241.72 69.6701C241.72 69.9201 241.72 70.1701 241.7 70.4201C241.7 70.4401 241.7 70.4701 241.7 70.4901C241.69 70.7201 241.67 70.9501 241.64 71.1801C241.64 71.1801 241.64 71.1901 241.64 71.2001H276.11L279.8 74.0001L279.77 74.3401V74.3301ZM277.93 69.7301C278.92 68.7401 280.13 67.7201 281.18 66.6701C282.14 67.6301 286.03 69.7301 286.03 69.7301C286.03 69.7301 282.15 71.8201 281.18 72.7901C280.2 71.8101 278.96 70.7701 277.93 69.7301Z" fill="#323334"></path></svg>