<svg width="58" height="12" viewBox="0 0 58 12" fill="none" xmlns="http://www.w3.org/2000/svg">
<path d="M44.83 5.13987C44.91 5.02987 44.97 4.93986 45.03 4.84986C45.42 4.35986 45.93 4.08985 46.55 3.99985C47.08 3.91985 47.6 3.95985 48.09 4.18985C48.63 4.44985 48.98 4.86987 49.19 5.41987C49.22 5.41987 49.23 5.37986 49.24 5.34986C49.65 4.48986 50.34 4.03984 51.28 3.95984C51.77 3.91984 52.25 3.98985 52.69 4.21985C53.31 4.54985 53.65 5.07985 53.8 5.74985C53.85 5.98985 53.88 6.22985 53.88 6.46985C53.88 7.81985 53.88 9.15986 53.88 10.5099C53.88 10.5799 53.87 10.6098 53.78 10.6098C53.14 10.6098 52.5099 10.6098 51.8699 10.6098C51.7899 10.6098 51.77 10.5899 51.77 10.5099C51.77 9.32986 51.77 8.15986 51.77 6.97986C51.77 6.65986 51.68 6.35985 51.45 6.11985C51.06 5.70985 50.32 5.69985 49.86 6.08985C49.57 6.33985 49.44 6.66986 49.38 7.03986C49.36 7.15986 49.36 7.26987 49.36 7.38987C49.36 8.42987 49.36 9.46986 49.36 10.5099C49.36 10.5899 49.3399 10.6098 49.2599 10.6098C48.6199 10.6098 47.98 10.6098 47.34 10.6098C47.26 10.6098 47.24 10.5899 47.24 10.5099C47.24 9.31986 47.24 8.13986 47.24 6.94986C47.24 6.63986 47.1499 6.34984 46.9299 6.10984C46.5999 5.75984 46.03 5.68985 45.56 5.93985C45.14 6.15985 44.94 6.52985 44.86 6.96985C44.83 7.11985 44.82 7.26984 44.82 7.42984C44.82 8.45984 44.82 9.47986 44.82 10.5099C44.82 10.5899 44.8 10.6098 44.72 10.6098C44.08 10.6098 43.45 10.6098 42.81 10.6098C42.74 10.6098 42.71 10.5898 42.71 10.5198C42.71 8.38984 42.71 6.26987 42.71 4.13987C42.71 4.06987 42.72 4.04984 42.8 4.04984C43.44 4.04984 44.0799 4.04984 44.7299 4.04984C44.7999 4.04984 44.82 4.06986 44.81 4.12986C44.81 4.41986 44.81 4.71986 44.81 5.00986V5.11985L44.83 5.13987Z" fill="#323334"/>
<path d="M19.7994 5.78961C20.0794 5.46961 20.3394 5.17961 20.5994 4.87961C21.3994 3.97961 22.1994 3.06962 22.9894 2.16962C23.0394 2.10962 23.0894 2.09961 23.1594 2.09961C23.9194 2.09961 24.6794 2.09961 25.4394 2.09961H25.5594C25.5594 2.09961 25.4894 2.1796 25.4594 2.2196C24.4594 3.3296 23.4594 4.4496 22.4594 5.5596C22.4094 5.6196 22.4094 5.64959 22.4594 5.70959C23.5394 7.30959 24.6194 8.90961 25.6994 10.5096C25.7194 10.5396 25.7494 10.5696 25.7594 10.6096C25.7294 10.6296 25.6994 10.6096 25.6694 10.6096C24.8694 10.6096 24.0694 10.6096 23.2794 10.6096C23.2094 10.6096 23.1694 10.5896 23.1394 10.5296C22.4294 9.4696 21.7094 8.4096 20.9994 7.3396C20.9794 7.3096 20.9594 7.28961 20.9394 7.25961C20.6894 7.53961 20.4394 7.81961 20.1794 8.09961C20.0794 8.21961 19.9694 8.32962 19.8694 8.44962C19.8294 8.49962 19.8094 8.54959 19.8094 8.60959C19.8094 9.24959 19.8094 9.87959 19.8094 10.5196C19.8094 10.5896 19.7894 10.6196 19.7194 10.6196C19.0594 10.6196 18.3894 10.6196 17.7294 10.6196C17.6594 10.6196 17.6494 10.5996 17.6494 10.5396C17.6494 7.74961 17.6494 4.9696 17.6494 2.1796C17.6494 2.1196 17.6594 2.09961 17.7294 2.09961C18.3894 2.09961 19.0594 2.09961 19.7194 2.09961C19.7994 2.09961 19.8094 2.11962 19.8094 2.19962C19.8094 3.34962 19.8094 4.50961 19.8094 5.65961V5.78961H19.7994Z" fill="#323334"/>
<path d="M36.6495 5.11035C36.8195 4.88035 36.9895 4.67037 37.2095 4.50037C37.5895 4.20037 38.0295 4.04036 38.4995 3.99036C39.0095 3.93036 39.4995 3.99038 39.9695 4.20038C40.6195 4.51038 40.9895 5.04037 41.1595 5.72037C41.2295 5.99037 41.2495 6.27035 41.2495 6.55035C41.2495 7.87035 41.2495 9.20036 41.2495 10.5204C41.2495 10.6104 41.2195 10.6304 41.1395 10.6304C40.4995 10.6304 39.8695 10.6304 39.2295 10.6304C39.1495 10.6304 39.1295 10.6104 39.1295 10.5304C39.1295 9.35037 39.1295 8.18037 39.1295 7.00037C39.1295 6.68037 39.0395 6.38036 38.8095 6.15036C38.5295 5.87036 38.1795 5.79037 37.7995 5.85037C37.1895 5.93037 36.7895 6.36038 36.6695 7.01038C36.6395 7.16038 36.6295 7.31036 36.6295 7.46036C36.6295 8.49036 36.6295 9.51037 36.6295 10.5404C36.6295 10.6204 36.6095 10.6404 36.5295 10.6404C35.8895 10.6404 35.2495 10.6404 34.6095 10.6404C34.5295 10.6404 34.5195 10.6204 34.5195 10.5504C34.5195 7.60035 34.5195 4.65038 34.5195 1.70038C34.5195 1.63038 34.5195 1.61035 34.5995 1.61035C35.2495 1.61035 35.8895 1.61035 36.5395 1.61035C36.6195 1.61035 36.6295 1.64038 36.6195 1.70038C36.6195 2.81038 36.6195 3.93037 36.6195 5.04037V5.13037L36.6495 5.11035Z" fill="#323334"/>
<path d="M26.1699 7.35964C26.1699 6.51964 26.3899 5.77965 26.9299 5.14965C27.4099 4.58965 28.0199 4.25966 28.7299 4.09966C29.6799 3.89966 30.6099 3.92965 31.4999 4.33965C32.4999 4.78965 33.0999 5.57966 33.2899 6.65966C33.4199 7.38966 33.3599 8.09966 33.0599 8.78966C32.6999 9.60966 32.0799 10.1697 31.2399 10.4497C30.1699 10.8197 29.0899 10.8097 28.0499 10.3497C27.0099 9.88966 26.4199 9.07965 26.2299 7.95965C26.1899 7.74965 26.1899 7.53964 26.1799 7.35964H26.1699ZM28.2899 7.38967C28.2899 7.66967 28.3499 7.96966 28.4599 8.21966C28.7099 8.75966 29.1299 9.05964 29.7299 9.07964C30.3199 9.09964 30.7699 8.83965 31.0299 8.30965C31.3299 7.68965 31.3299 7.03965 31.0199 6.42965C30.5499 5.49965 29.2399 5.39966 28.6299 6.24966C28.3899 6.58966 28.3099 6.96965 28.2999 7.39965L28.2899 7.38967Z" fill="#323334"/>
<path d="M9.36915 3.16036C9.73915 3.16036 10.1192 3.18036 10.4892 3.16036C11.0292 3.12036 11.6292 3.64036 11.4692 4.38036C11.2492 5.40036 11.0592 6.43037 10.8592 7.45037C10.8092 7.72037 10.7591 7.99036 10.6991 8.25036C10.6091 8.69036 10.2191 9.02036 9.75915 9.03036C9.42915 9.03036 9.09915 9.06035 8.77915 9.02035C8.41915 8.97035 8.07915 8.63035 8.00915 8.27035C7.75915 7.01035 7.50915 5.75035 7.25915 4.49035C7.23915 4.37035 7.20916 4.26036 7.20916 4.13036C7.19916 3.61036 7.61915 3.16036 8.13915 3.16036C8.54915 3.16036 8.94915 3.16036 9.35915 3.16036H9.36915Z" fill="#323334"/>
<path d="M5.21915 11.1496C4.70915 11.1496 4.19915 11.1496 3.68915 11.1496C3.27915 11.1496 3.00915 10.9396 2.83915 10.5896C2.72915 10.3596 2.71916 10.1096 2.81916 9.86963C3.18916 8.89963 3.54915 7.93963 3.91915 6.96963C4.05915 6.60963 4.18915 6.25963 4.33915 5.90963C4.46915 5.60963 4.68915 5.38964 5.01915 5.31964C5.48915 5.20964 5.94915 5.45963 6.12915 5.93963C6.44915 6.76963 6.76915 7.59963 7.08915 8.43963C7.26915 8.91963 7.45915 9.38963 7.62915 9.86963C7.82915 10.4096 7.52915 10.9896 6.96915 11.1496C6.93915 11.1496 6.89914 11.1496 6.86914 11.1596C6.31914 11.1596 5.77914 11.1596 5.22914 11.1596L5.21915 11.1496Z" fill="#323334"/>
<path d="M55.3691 7.33957C55.3691 6.27957 55.3691 5.21958 55.3691 4.15958C55.3691 4.07958 55.3891 4.05957 55.4691 4.05957C56.1091 4.05957 56.7392 4.05957 57.3792 4.05957C57.4492 4.05957 57.4791 4.07957 57.4791 4.14957C57.4791 6.27957 57.4791 8.40958 57.4791 10.5396C57.4791 10.6196 57.4491 10.6296 57.3891 10.6296C56.7491 10.6296 56.1091 10.6296 55.4691 10.6296C55.3891 10.6296 55.3792 10.5996 55.3792 10.5296C55.3792 9.46957 55.3792 8.39957 55.3792 7.33957H55.3691Z" fill="#323334"/>
<path d="M1.81955 3.75C2.11955 3.75 2.41954 3.75 2.72954 3.75C3.01954 3.75 3.32955 4.05 3.34955 4.34C3.36955 4.56 3.29954 4.76 3.25954 4.97C3.10954 5.77 2.94954 6.58 2.78954 7.38C2.72954 7.67 2.46954 7.93 2.16954 7.94C1.90954 7.96 1.64954 7.98 1.38954 7.94C1.09954 7.89 0.919543 7.69001 0.859543 7.42001C0.699543 6.65001 0.549536 5.88001 0.399536 5.10001C0.369536 4.93001 0.329545 4.76 0.299545 4.59C0.229545 4.23 0.439536 3.87 0.789536 3.78C0.899536 3.75 0.999543 3.76001 1.10954 3.76001C1.34954 3.76001 1.57955 3.76001 1.81955 3.76001V3.75Z" fill="#323334"/>
<path d="M12.9894 10.2C12.6194 10.2 12.2594 10.2 11.8894 10.2C11.5594 10.2 11.3194 9.95001 11.2494 9.73001C11.1994 9.58001 11.1994 9.43 11.2494 9.28C11.6094 8.34 11.9694 7.39001 12.3294 6.45001C12.4394 6.17001 12.6794 6 12.9694 6C13.2494 6 13.4994 6.16001 13.6194 6.45001C13.8394 7.00001 14.0394 7.54 14.2494 8.09C14.3994 8.49 14.5594 8.88 14.6994 9.28C14.8694 9.8 14.4694 10.2 14.0594 10.2C13.6994 10.2 13.3494 10.2 12.9894 10.2Z" fill="#323334"/>
<path d="M56.4391 3.28958C55.7891 3.28958 55.3291 2.82959 55.3291 2.16959C55.3291 1.52959 55.7891 1.05957 56.4291 1.05957C57.0691 1.05957 57.5391 1.52959 57.5391 2.16959C57.5391 2.81959 57.0791 3.28958 56.4291 3.28958H56.4391Z" fill="#323334"/>
<path d="M9.35986 0.59994C9.85986 0.56994 10.4398 1.05993 10.4298 1.67993C10.4298 2.24993 9.90986 2.74992 9.31986 2.73992C8.77986 2.72992 8.25986 2.19995 8.27986 1.63995C8.29986 1.09995 8.79986 0.59992 9.34986 0.60992L9.35986 0.59994Z" fill="#323334"/>
<path d="M4.15942 3.79947C4.11942 3.29947 4.63942 2.72949 5.21942 2.72949C5.78942 2.72949 6.29941 3.24947 6.28941 3.79947C6.28941 4.36947 5.77942 4.86948 5.21942 4.86948C4.64942 4.86948 4.14941 4.36947 4.14941 3.79947H4.15942Z" fill="#323334"/>
<path d="M13.7497 4.92041C13.7497 5.33041 13.3897 5.6904 12.9897 5.6904C12.5897 5.6904 12.2197 5.33039 12.2197 4.93039C12.2197 4.52039 12.5697 4.15039 12.9797 4.15039C13.3797 4.15039 13.7497 4.51041 13.7497 4.92041Z" fill="#323334"/>
<path d="M1.81908 1.90995C2.17908 1.88995 2.58907 2.25995 2.57907 2.68995C2.57907 3.06995 2.18907 3.46995 1.76907 3.43995C1.38907 3.41995 1.03906 3.05995 1.03906 2.65995C1.03906 2.24995 1.40907 1.89995 1.80907 1.90995H1.81908Z" fill="#323334"/>
</svg>
