<svg width="70" height="23" viewBox="0 0 70 23" fill="none" xmlns="http://www.w3.org/2000/svg">
<path d="M36.3905 15.8202C35.2805 16.7102 34.8804 17.6102 33.8004 19.4002C33.1404 20.5002 31.2005 22.7002 29.2005 22.7002C28.2505 22.7002 27.7305 22.2902 27.7305 21.9002C27.7305 21.6002 27.8605 21.3802 28.2205 21.3802C28.4905 21.3802 28.6405 21.5402 28.6405 21.8002C28.6405 21.9402 28.4805 22.0902 28.4805 22.1602C28.4805 22.4002 28.9205 22.5702 29.2305 22.5702C32.4205 22.5702 32.7005 17.9502 36.2305 15.7502C35.6205 15.4702 34.9005 15.3702 34.2305 15.3702C30.7705 15.3702 28.4205 17.5102 28.4205 18.8602C28.4205 19.4802 28.7205 19.7902 29.4105 19.7902C30.8405 19.7902 32.9005 17.7202 33.2905 16.1902C33.3105 16.1202 33.3505 16.0302 33.3805 16.0302C33.4105 16.0302 33.4305 16.0502 33.4305 16.1302C33.4305 16.8702 32.0605 19.9602 29.6305 19.9602C28.9305 19.9602 28.2805 19.7202 28.2805 18.8802C28.2805 17.3602 30.6805 15.2402 34.2905 15.2402C35.0105 15.2402 35.7705 15.3902 36.4205 15.6402C36.6805 15.4602 37.0405 15.2802 37.1505 15.2802C37.1805 15.2802 37.2104 15.3002 37.2104 15.3302C37.2104 15.3802 37.0505 15.3702 36.5605 15.7002C37.2405 16.0202 37.8205 16.6802 37.8205 17.4002C37.8205 18.4902 36.6905 19.3802 35.5305 19.3802C34.8405 19.3802 34.4904 19.0502 34.4904 19.0102C34.4904 18.9802 34.5405 18.9402 34.5705 18.9402C34.6305 18.9402 34.7305 19.2202 35.3505 19.2202C36.5005 19.2202 37.1705 17.9702 37.1705 17.1202C37.1705 16.5202 36.9605 16.1402 36.4005 15.8102" fill="#323334"/>
<path d="M37.3797 20.1105C37.0897 20.4205 35.9097 22.0706 35.9097 22.4006C35.9097 22.4706 35.9496 22.5305 36.0796 22.5305C36.3896 22.5305 36.9397 22.0505 37.5297 21.4205C37.6497 21.2905 37.6597 21.2705 37.6797 21.2705C37.7197 21.2705 37.7396 21.3106 37.7396 21.3306C37.7396 21.3506 37.4097 21.6806 37.1797 21.9106C36.7097 22.3506 36.3196 22.6405 36.0496 22.6405C35.7796 22.6405 35.5997 22.5105 35.5997 22.0005C35.5997 21.9405 35.5997 21.8806 35.5997 21.8306C35.2897 22.1106 34.7197 22.6405 34.3397 22.6405C33.8197 22.6405 33.6997 22.2106 33.6997 21.8006C33.6997 21.6506 33.7197 21.5105 33.7497 21.3605C33.7297 21.3605 33.6897 21.3905 33.6697 21.3905C33.6497 21.3905 33.6297 21.3605 33.6297 21.3405C33.6297 21.3005 33.6797 21.2905 33.8097 21.1405C34.3597 20.5305 35.1897 20.0605 35.8897 20.0605C36.1997 20.0605 36.3296 20.2606 36.3296 20.5106C36.3296 20.6106 36.3196 20.7006 36.2996 20.7606L36.3197 20.7805C36.6897 20.2505 36.6697 20.1306 36.8797 20.1206L37.3697 20.1005L37.3797 20.1105ZM33.8697 21.2606C33.3997 21.7006 33.0596 21.9705 32.7396 21.9905C32.6296 21.9905 32.6796 21.9005 32.7696 21.8805C33.0596 21.8305 33.2097 21.7206 33.8397 21.1206M34.3497 22.5305C34.9397 22.5305 36.2096 21.2006 36.2096 20.5106C36.2096 20.3206 36.1097 20.1805 35.8897 20.1805C35.0597 20.1805 34.1096 21.5705 34.1096 22.2405C34.1096 22.4205 34.1797 22.5406 34.3497 22.5406" fill="#323334"/>
<path d="M37.8101 22.6405C38.8401 21.1305 39.3801 20.5605 39.3801 20.3105C39.3801 20.2405 39.3101 20.1805 39.2101 20.1805C39.0701 20.1805 38.8201 20.2806 38.4201 20.6606C37.8001 21.2406 37.7101 21.4006 37.6701 21.4006C37.6401 21.4006 37.6201 21.3805 37.6201 21.3505C37.6201 21.3005 37.9701 20.9705 38.2201 20.7105C38.6601 20.2805 38.9701 20.0605 39.2601 20.0605C39.5101 20.0605 39.6601 20.2705 39.6601 20.5005C39.6601 20.8705 39.2201 21.5005 39.0201 21.7505L39.0401 21.7705C39.5801 21.2005 40.0801 20.8905 40.1701 20.6405C40.2701 20.3705 40.4901 20.0705 40.8401 20.0705C41.0101 20.0705 41.0801 20.1206 41.0801 20.2206C41.0801 20.5806 39.9401 20.8605 39.9401 21.5005C39.9401 21.6905 40.0901 21.8105 40.2801 21.8105C40.4401 21.8105 40.6101 21.7506 40.7401 21.6206C40.9601 21.4206 41.0501 21.2705 41.0901 21.2705C41.1201 21.2705 41.1501 21.2905 41.1501 21.3205C41.1501 21.3505 40.9901 21.5106 40.9001 21.6206C40.7001 21.8306 40.4701 21.9106 40.2801 21.9106C40.0601 21.9106 39.8301 21.7706 39.8301 21.5506C39.8301 21.3306 39.9001 21.1805 40.0301 21.0305L40.0101 21.0106C39.4801 21.4506 38.9901 21.9905 38.4701 22.5905L37.8301 22.6506" fill="#323334"/>
<path d="M42.8398 20.06C41.6198 21.89 41.4198 22.14 41.4198 22.33C41.4198 22.49 41.5197 22.52 41.6097 22.52C41.9397 22.52 42.3997 22.15 42.7397 21.83C42.9997 21.59 43.3397 21.22 43.3597 21.22C43.3897 21.22 43.4198 21.22 43.4198 21.27C43.4198 21.3 43.2297 21.51 42.7997 21.92C42.2997 22.39 41.8798 22.63 41.5998 22.63C41.2798 22.63 41.1097 22.43 41.1097 22.15C41.1097 21.53 41.7297 20.9 42.0797 20.43L42.0598 20.41C41.9398 20.52 41.6798 20.76 41.1898 21.26C41.0898 21.37 41.0797 21.38 41.0497 21.38C41.0197 21.38 41.0098 21.35 41.0098 21.32C41.0098 21.3 41.0498 21.26 41.3198 20.99C41.5898 20.71 42.0398 20.29 42.1998 20.09L42.8398 20.05V20.06ZM43.5497 18.25C43.6897 18.25 43.7798 18.35 43.7798 18.49C43.7798 18.65 43.6498 18.84 43.4198 18.84C43.2798 18.84 43.1898 18.74 43.1898 18.6C43.1898 18.44 43.3197 18.25 43.5497 18.25Z" fill="#323334"/>
<path d="M44.5998 22.1502L44.6198 22.1702C44.9598 21.9602 45.1798 21.7102 45.3498 21.5202C45.5598 21.3102 45.5598 21.2602 45.5998 21.2602C45.6298 21.2602 45.6497 21.2802 45.6497 21.3202C45.6497 21.3502 45.4398 21.5802 45.2298 21.7802C44.6798 22.3502 44.1998 22.6402 43.6298 22.6402C43.3998 22.6402 43.2998 22.6402 43.1698 22.5402C43.0898 22.4802 43.0098 22.3302 43.0098 22.2302C43.0098 22.0702 43.0798 21.9702 43.2598 21.9702C43.3698 21.9702 43.4698 22.0302 43.4698 22.1202C43.4698 22.3102 43.3297 22.2302 43.3297 22.4002C43.3297 22.4802 43.3798 22.5402 43.4998 22.5402C43.9798 22.5402 44.5298 21.5202 44.5298 21.0202C44.5298 20.5802 44.5298 20.2002 44.5898 20.1502L44.5698 20.1302C44.4498 20.2002 43.6298 21.0702 43.3898 21.3302C43.3498 21.3802 43.3297 21.4002 43.2997 21.4002C43.2697 21.4002 43.2598 21.3802 43.2598 21.3602C43.2598 21.3002 43.4197 21.1702 43.7097 20.8502C43.9397 20.5802 44.5398 20.0102 44.5998 19.9802C44.6198 19.9802 44.7098 19.7002 44.9398 19.7002C45.0598 19.7002 45.1097 19.7602 45.1097 19.8402C45.1097 20.0202 44.8898 20.0702 44.6998 20.1302C44.6798 20.2202 44.6598 20.2502 44.6598 20.3402C44.6598 21.0302 44.8698 21.2302 44.8698 21.6102C44.8698 21.8302 44.7497 22.0202 44.5797 22.1702V22.1502" fill="#323334"/>
<path fill-rule="evenodd" clip-rule="evenodd" d="M5.03998 11.7808C5.49998 11.7808 6.96995 11.2908 8.60995 9.19078L8.81998 9.27078C8.35998 10.3008 8.04997 11.0008 7.93997 12.0608H0.709961V11.8008H0.919983C1.43998 11.8008 2.24997 11.3108 2.24997 10.6408V3.70078C2.24997 3.04078 1.72996 2.56078 1.20996 2.56078H0.999969V2.30078H5.12997V2.56078H5.01996C4.46996 2.56078 3.95996 3.06078 3.95996 3.70078V10.6408C3.95996 11.2608 4.40998 11.7708 5.03998 11.7708V11.7808Z" fill="#323334"/>
<path fill-rule="evenodd" clip-rule="evenodd" d="M14.6703 8.20051L12.9903 4.32051L11.4803 8.20051H14.6703ZM8.78027 11.8005C9.16027 11.8005 9.38028 11.5905 9.72028 11.2005C10.2103 10.6305 10.4003 10.1605 10.5703 9.78051L13.6903 2.02051L16.9203 9.70051C17.4903 11.1005 18.0303 11.8005 18.5203 11.8005H18.9503V12.0605H14.1403V11.8005H14.5303C15.1703 11.6705 15.5303 11.4705 15.6903 10.9905C15.7403 10.7805 15.5303 10.2505 15.4803 10.1405L14.8303 8.52051H11.3603L10.7803 9.90051C10.6803 10.1405 10.6303 10.3405 10.6303 10.5105C10.6303 11.3005 10.9303 11.8005 11.4903 11.8005H11.7903V12.0605H8.78027V11.8005Z" fill="#323334"/>
<path fill-rule="evenodd" clip-rule="evenodd" d="M24.4803 11.9208C26.4403 11.9208 27.5303 10.2608 27.5303 7.10078C27.5303 3.94078 26.5203 2.57078 24.4103 2.57078C23.2503 2.57078 22.6703 2.92078 22.6703 3.71078V10.6608C22.6703 11.4808 23.2803 11.9208 24.4803 11.9208ZM19.8303 12.0608V11.8008H20.0403C20.5303 11.8008 21.0403 11.3108 21.0403 10.6508V3.70078C21.0403 3.04078 20.5303 2.56078 20.0403 2.56078H19.9703V2.30078H24.0803C25.1503 2.30078 26.0603 2.39078 26.8603 2.88078C28.4203 3.83078 29.2403 5.33078 29.2403 7.18078C29.2403 8.85078 28.5603 10.2008 27.1903 11.2608C26.4903 11.8008 25.4803 12.1708 24.5603 12.1708C24.1803 12.1708 23.7303 12.0608 23.1203 12.0608H19.8203H19.8303Z" fill="#323334"/>
<path fill-rule="evenodd" clip-rule="evenodd" d="M31.4101 3.71054C31.4101 3.05054 30.9201 2.57055 30.4401 2.57055H30.3701V2.31055H34.0901V2.57055H33.9901C33.4801 2.57055 33.0001 3.07054 33.0001 3.71054V8.66055C33.0001 9.43055 33.0501 10.0305 33.4901 10.6205C34.0101 11.3105 34.7201 11.6705 35.6001 11.6705C37.4801 11.6705 38.4501 10.2605 38.4501 7.47055V4.95055C38.4501 4.27055 38.2901 3.79055 37.9001 3.32055C37.4701 2.83055 37.2101 2.58055 36.8901 2.58055H36.8201V2.32055H40.2401V2.58055H40.1301C39.5001 2.58055 38.6901 3.60055 38.6901 4.74055V7.46054C38.6901 8.67054 38.6401 9.67054 38.0901 10.6005C37.4601 11.6505 36.3701 12.2505 35.0401 12.2505C33.8601 12.2505 32.8301 11.7005 32.1101 10.7005C31.6001 10.0205 31.4001 9.11055 31.4001 7.93055V3.73055L31.4101 3.71054Z" fill="#323334"/>
<path fill-rule="evenodd" clip-rule="evenodd" d="M65.2303 2.57055C66.3503 2.58055 67.9703 3.50054 68.6903 4.89054L68.9303 4.84055C68.7603 4.12055 68.6903 3.35054 68.6903 2.53054V2.31055H61.2803V2.57055H61.5003C62.0003 2.57055 62.5203 3.06054 62.5203 3.71054V10.6505C62.5203 11.3105 62.0003 11.8105 61.5003 11.8105H61.4303V12.0705H68.6903C68.7903 11.0105 69.1003 10.3105 69.5703 9.28054L69.3603 9.19054C67.7203 11.3005 66.2303 11.8005 65.7903 11.8005H65.2703C64.6403 11.8005 64.1903 11.2805 64.1903 10.6605V3.72055C64.1903 3.08055 64.6803 2.59055 65.2303 2.58055V2.57055Z" fill="#323334"/>
<path fill-rule="evenodd" clip-rule="evenodd" d="M64.21 6.97H64.83C65.94 6.97 66.79 7.78 66.79 8.77V8.95H67.07V4.75H66.79V4.99C66.79 5.38 66.52 5.77 65.99 6.23C65.59 6.58 65.44 6.72 64.89 6.72H64.22V6.98L64.21 6.97Z" fill="#323334"/>
<path fill-rule="evenodd" clip-rule="evenodd" d="M55.8902 2.57055C57.0102 2.58055 58.6202 3.50054 59.3402 4.89054L59.5902 4.84055C59.4202 4.12055 59.3602 3.35054 59.3602 2.53054V2.31055H51.9502V2.57055H52.1702C52.6702 2.57055 53.1902 3.06054 53.1902 3.71054V10.6505C53.1902 11.3105 52.6702 11.8105 52.1702 11.8105H52.1002V12.0705H59.3502C59.4602 11.0105 59.7702 10.3105 60.2302 9.28054L60.0202 9.19054C58.3702 11.3005 56.8902 11.8005 56.4502 11.8005H55.9302C55.3002 11.8005 54.8602 11.2805 54.8602 10.6605V3.72055C54.8602 3.08055 55.3502 2.59055 55.9002 2.58055L55.8902 2.57055Z" fill="#323334"/>
<path fill-rule="evenodd" clip-rule="evenodd" d="M54.8701 6.97H55.4901C56.5901 6.97 57.4501 7.78 57.4501 8.77V8.95H57.7201V4.75H57.4501V4.99C57.4501 5.38 57.1701 5.77 56.6401 6.23C56.2301 6.58 56.0801 6.72 55.5401 6.72H54.8701V6.98V6.97Z" fill="#323334"/>
<path fill-rule="evenodd" clip-rule="evenodd" d="M44.0002 6.79055V3.65055C44.0002 3.30055 44.1502 3.03055 44.4602 2.77055C44.6502 2.57055 44.8502 2.56055 45.1902 2.56055H45.5602C46.7702 2.56055 47.5802 3.52055 47.5802 4.81055C47.5802 6.10055 47.0302 6.78054 45.9602 6.78054H43.9902L44.0002 6.79055ZM51.5502 11.8005H51.4702C50.8902 11.8005 49.9802 11.0705 49.5002 10.4505L46.9203 7.02055C48.3203 7.02055 49.4102 6.17054 49.4102 4.92054C49.4102 4.05054 48.8002 3.17054 47.7402 2.67054C47.1702 2.40054 46.5102 2.31055 45.8102 2.31055H41.2402V2.57055H41.3102C41.8102 2.57055 42.3302 3.06054 42.3302 3.71054V10.6505C42.3302 11.3105 41.8202 11.8105 41.3102 11.8105H41.2402V12.0705H45.3002V11.8105H45.0703C44.4903 11.8105 44.0002 11.2905 44.0002 10.6505V7.07055H45.1902L47.7402 10.4605C48.2302 11.1205 48.1202 11.8105 47.6202 11.8105H47.5502V12.0705H51.5502V11.8105V11.8005Z" fill="#323334"/>
<path fill-rule="evenodd" clip-rule="evenodd" d="M56.5996 0.570312L54.8096 1.56031H56.7896L58.5796 0.570312H56.5996Z" fill="#323334"/>
</svg>
