<svg width="356" height="124" viewBox="0 0 356 124" fill="none" xmlns="http://www.w3.org/2000/svg">
<path d="M137.18 54.2399C139.64 55.4899 141.39 56.1199 142.42 56.1199C145.1 56.1199 147.19 53.1899 148.7 47.3199C149.69 43.3899 150.49 37.8499 151.09 30.6899C151.61 24.2199 151.95 20.8699 152.13 20.6599C153.12 22.1699 154.03 27.0499 154.85 35.2899C155.54 42.1899 155.89 47.4399 155.89 51.0199C155.89 52.5699 155.83 53.6999 155.7 54.3899L156.35 55.2999C157.6 55.2099 159.31 54.6499 161.46 53.6199C163.92 52.4499 165.15 51.3999 165.15 50.4499C165.15 48.7699 163.61 41.7799 160.52 29.4799C157.43 17.1799 155.46 10.0599 154.6 8.11987C154.25 8.28987 153.87 8.37988 153.43 8.37988C153.17 8.37988 152.57 8.2599 151.62 8.0199C150.67 7.7799 150.15 7.65985 150.07 7.65985C148.13 9.76985 146.83 12.7099 146.19 16.4599C145.37 21.6799 144.81 25.2999 144.51 27.3299C143.86 31.5199 142.87 34.8199 141.53 37.2299C140.84 36.3199 139.78 32.5399 138.36 25.8799C137.07 19.7399 136.16 15.4799 135.64 13.1099C134.39 7.44986 133.38 4.60986 132.6 4.60986C132 4.60986 131.03 5.20986 129.69 6.41986C128.61 7.36986 127.77 8.2799 127.17 9.1499C127.43 10.3999 127.56 11.9999 127.56 13.9399C127.56 20.2899 126.89 26.6699 125.55 33.0499L121.6 51.8999C122.25 52.6899 123.07 53.5499 124.06 54.4999C125.44 55.7899 126.41 56.4399 126.97 56.4399C127.75 56.4399 128.53 54.6399 129.33 51.0399C130.13 47.4399 130.7 43.1299 131.04 38.1299C131.51 31.3999 131.99 26.6499 132.46 23.8899C135.22 36.9599 136.71 45.6598 136.93 49.9698C137.1 52.7298 137.19 54.1599 137.19 54.2399H137.18Z" fill="white"/>
<path d="M174.78 47.51C175.13 46.09 175.66 43.43 176.4 39.55C177 36.31 177.67 34.7 178.41 34.7C181.17 34.7 183.83 35.09 186.37 35.87C186.59 38.98 186.8 42.08 187.02 45.19C187.28 48.94 187.62 52.05 188.06 54.51C188.28 55.8 188.62 56.45 189.1 56.45C190.65 56.45 193.2 55.35 196.74 53.15C195.88 50.91 194.91 46.59 193.83 40.21C193.14 35.77 192.45 31.32 191.76 26.88C189.39 12.38 187.83 4.97999 187.1 4.67999C186.84 4.54999 186.41 4.48999 185.81 4.48999C181.54 4.48999 179.06 5.2 178.37 6.63C177.51 10.21 176.8 13.45 176.23 16.34C175.67 18.58 174.85 22.7 173.77 28.7C172.86 34.01 171.93 38.07 170.95 40.9C169.98 43.73 169.21 45.83 168.65 47.21C167.57 50.06 167.03 52.09 167.03 53.29C168.41 54.37 170.16 54.97 172.27 55.1C173.09 53.89 173.93 51.37 174.79 47.53L174.78 47.51ZM181.06 13.34L182.16 13.53C182.42 14 182.92 16.51 183.65 21.04C184.12 23.89 184.58 26.71 185.01 29.52C184.84 29.82 184.34 29.97 183.52 29.97C182.44 29.97 181 29.8 179.18 29.45V29.13C178.96 24.73 179.59 19.47 181.06 13.34Z" fill="white"/>
<path d="M199.18 12.1699C200.52 11.9499 201.79 10.9499 203 9.15985C204.21 7.36985 204.81 5.60989 204.81 3.88989C204.81 2.54989 204.36 1.87988 203.45 1.87988L199.57 2.97986C200.13 4.26986 200.67 5.43986 201.19 6.47986C201.23 6.51986 201 7.20987 200.48 8.54987C199.83 10.2299 199.4 11.4399 199.19 12.1699H199.18Z" fill="white"/>
<path d="M215.55 47.51C215.9 46.09 216.43 43.43 217.17 39.55C217.77 36.31 218.44 34.7 219.18 34.7C221.94 34.7 224.59 35.09 227.14 35.87C227.36 38.98 227.57 42.08 227.79 45.19C228.05 48.94 228.39 52.05 228.83 54.51C229.05 55.8 229.39 56.45 229.86 56.45C231.41 56.45 233.96 55.35 237.5 53.15C236.64 50.91 235.67 46.59 234.59 40.21C233.9 35.77 233.21 31.32 232.52 26.88C230.15 12.38 228.59 4.97999 227.86 4.67999C227.6 4.54999 227.17 4.48999 226.57 4.48999C222.3 4.48999 219.82 5.2 219.13 6.63C218.27 10.21 217.56 13.45 216.99 16.34C216.43 18.58 215.61 22.7 214.53 28.7C213.62 34.01 212.69 38.07 211.72 40.9C210.75 43.73 209.98 45.83 209.42 47.21C208.34 50.06 207.8 52.09 207.8 53.29C209.18 54.37 210.93 54.97 213.04 55.1C213.86 53.89 214.7 51.37 215.56 47.53L215.55 47.51ZM221.83 13.34L222.93 13.53C223.19 14 223.68 16.51 224.42 21.04C224.89 23.89 225.35 26.71 225.78 29.52C225.61 29.82 225.11 29.97 224.29 29.97C223.21 29.97 221.77 29.8 219.95 29.45V29.13C219.73 24.73 220.36 19.47 221.83 13.34Z" fill="white"/>
<path d="M243.12 54.2399C243.68 55.7099 246.42 56.4399 251.34 56.4399C257.12 56.4399 262.69 55.8399 268.04 54.6299L268.88 52.7499C268.45 50.1599 268.17 48.67 268.04 48.28C267.44 46.38 266.42 45.4299 265 45.4299C258.53 47.7199 254.04 48.8599 251.54 48.8599C250.33 48.8599 249.4 48.3899 248.76 47.4399C247.77 39.9199 247.27 33.2699 247.27 27.4699C247.27 22.8399 247.59 18.5699 248.24 14.6299C248.8 11.8699 249.36 9.12996 249.92 6.39996L248.82 4.58997C244.85 4.92997 241.87 5.16993 239.89 5.29993C239.59 7.40993 239.44 9.51997 239.44 11.59C239.44 13.66 240.06 20.68 241.28 32.9C242.51 45.13 243.12 52.2399 243.12 54.2199V54.2399Z" fill="white"/>
<path d="M286.29 55.7899C292.89 55.7899 297.66 54.6699 300.59 52.4199C305.59 48.5399 308.72 44.9599 309.97 41.6799C311.7 37.2799 312.56 32.5999 312.56 27.6399C312.56 21.8599 311.46 17.4099 309.26 14.3099C307.84 12.3299 305.46 9.90988 302.14 7.05988C301.88 7.01988 301.05 6.59987 299.65 5.79987C298.25 4.99987 297.4 4.59985 297.09 4.59985C296.01 4.59985 295.02 5.28987 294.11 6.67987C293.2 8.06987 292.75 9.52987 292.75 11.0499C292.75 12.6599 293.33 13.4698 294.5 13.4698C295.06 13.4698 295.71 13.2799 296.44 12.8899C298.17 12.9799 300.86 14.6199 304.53 17.7999C305.65 20.5599 306.21 23.2699 306.21 25.9399C306.21 31.5799 303.97 36.3799 299.48 40.3399C295.47 43.8699 291.17 45.6399 286.6 45.6399C281.12 45.6399 278.38 42.7799 278.38 37.0499C278.38 33.6099 279.43 30.4199 281.52 27.4599C283.61 24.5099 286.54 22.1599 290.29 20.3899L292.17 23.8199C292.26 27.3199 293.14 30.4199 294.82 33.1399L298.51 17.4799L297.54 16.6399C296.94 16.5999 295.45 15.7899 293.07 14.2099C290.7 12.6399 289.42 11.8499 289.25 11.8499C286.96 11.8499 284.24 13.6199 281.1 17.1499C278.12 20.4299 275.57 24.3299 273.43 28.8899C271.29 33.4299 270.23 37.1699 270.23 40.0999C270.23 43.3799 271.44 46.5799 273.85 49.7299C276.96 53.7799 281.1 55.7999 286.28 55.7999L286.29 55.7899Z" fill="white"/>
<path d="M352.69 34.0199C351.65 32.5099 350.34 31.3699 348.74 30.5899C347.79 30.1199 346.24 29.5999 344.08 29.0399C341.92 28.4799 340.28 27.9199 339.16 27.3599L339.35 27.0399C341.94 26.9099 344.74 25.7599 347.76 23.5599C351.34 20.9699 353.2 18.0399 353.33 14.7699C352.94 10.7999 351.71 8.13989 349.64 6.75989C348.47 6.02989 345.99 5.39988 342.2 4.87988C340.91 4.70988 339.63 4.61987 338.38 4.61987C334.54 4.61987 330.25 5.54989 325.5 7.38989C320.15 9.53989 316.89 10.6899 315.73 10.8599C315.47 11.7199 315.34 12.5299 315.34 13.3099C315.34 14.5899 315.71 15.7999 316.44 16.9099C316.96 16.9099 317.71 16.6599 318.7 16.1699C319.69 15.6699 320.43 15.4299 320.9 15.4299L321.42 15.9499C320.51 17.8499 320.06 22.9398 320.06 31.2198C320.06 45.2898 320.66 53.4199 321.87 55.6199C322.13 55.6199 322.71 55.5599 323.62 55.4299C324.35 55.3399 324.94 55.2999 325.37 55.2999C325.97 55.2999 326.47 55.4099 326.86 55.6199L328.28 54.6499C328.28 54.1799 328.07 53.4499 327.66 52.4799C327.25 51.5099 327.04 50.7899 327.04 50.3099C327.04 49.8799 327.13 49.4899 327.3 49.1399C328.59 50.4799 330.9 51.9399 334.23 53.5399C338.24 55.4799 341.74 56.4499 344.71 56.4499C347.68 56.4499 350.38 54.8999 352.54 51.7999C354.48 49.0399 355.45 46.0599 355.45 42.8799C355.45 39.6999 354.52 36.6899 352.67 34.0199H352.69ZM326.48 24.0799H326.16C326.29 22.7099 326.27 20.8799 326.09 18.5999C325.92 15.8199 325.83 13.9999 325.83 13.1999C325.83 12.3999 327.4 11.6899 330.55 11.0099C332.58 10.6699 334.63 10.3198 336.7 9.96985C338.47 9.92985 340.15 10.2099 341.75 10.8099C343.61 11.5299 344.53 12.4599 344.53 13.5699C344.53 15.1199 343.69 16.6399 342.01 18.1499C339.03 20.8499 333.86 22.8199 326.48 24.0699V24.0799ZM347.45 46.5999C346.37 48.4999 345.1 49.4499 343.63 49.4499C341.21 49.4499 338.86 48.8699 336.58 47.6999C336.28 47.5699 334.27 46.3199 330.56 43.9499C329.96 43.6499 329.32 43.3099 328.65 42.9499C327.98 42.5799 327.65 42.0499 327.65 41.3599C327.65 35.8399 328.36 31.7599 329.79 29.1299L332.31 29.7799C333.13 29.9999 334.79 30.5999 337.29 31.5899C339.53 32.4499 340.83 32.8799 341.17 32.8799C343.89 34.5599 345.33 35.4699 345.51 35.5999C347.71 37.4099 348.81 39.4399 348.81 41.6799C348.81 43.3199 348.36 44.9599 347.45 46.5999Z" fill="white"/>
<path d="M165.36 105.05C165.02 104.66 164.43 104.47 163.61 104.47C162.75 104.47 161.82 104.66 160.83 105.05C159.71 105.48 159.15 105.93 159.15 106.41C159.15 106.76 159.43 107.04 159.99 107.25C159.99 109.19 159.86 110.38 159.6 110.81C159.21 111.46 158.13 111.78 156.36 111.78C154.98 111.78 153.04 110.01 150.54 106.47C148.81 104.01 147.15 101.64 145.56 99.3499C144.22 98.0099 143.55 97.0599 143.55 96.4999C144.72 95.5499 147.93 93.8899 153.19 91.5199C157.29 89.6599 160.07 87.5899 161.54 85.3099C162.1 84.4499 162.77 82.6698 163.55 79.9698C164.33 77.2698 164.72 75.4099 164.72 74.3699C164.72 73.4599 164.17 72.6399 163.07 71.9099C161.97 71.1799 160.79 70.8099 159.54 70.8099C158.89 70.8099 158.53 71.0699 158.44 71.5899C157.53 76.2099 156.99 78.9899 156.82 79.9399C156.73 80.4099 156.63 80.8499 156.5 81.2299C156.28 81.9599 155.99 82.4899 155.63 82.8199C155.27 83.1499 154.41 83.6499 153.07 84.3399C150.87 85.4599 148.88 86.6299 147.12 87.8299C145.78 88.7399 145.09 89.1899 145.05 89.1899C144.83 89.1899 144.6 89.1699 144.34 89.1299V88.4799C144.34 87.3099 144.47 85.5199 144.73 83.1099C144.99 80.8199 145.12 79.4199 145.12 78.8999V72.6199C145.15 71.3699 145.26 70.6999 145.44 70.6099C144.71 70.6499 143.97 70.6699 143.24 70.6699C141.77 70.6699 140.28 70.5599 138.77 70.3499L137.99 70.7999C137.99 99.6099 136.48 115.79 133.46 119.34C135.14 120.16 136.5 120.74 137.54 121.09L138.25 120.9C138.47 120.9 139.7 121.33 141.94 122.19C141.98 121.76 142.01 121.33 142.01 120.9C142.01 120.21 141.88 117.85 141.62 113.81C141.36 109.78 141.23 107.41 141.23 106.72C141.23 105.81 141.51 105.38 142.07 105.43C142.37 105.82 143.58 107.74 145.69 111.19C147.8 114.64 149.12 116.65 149.64 117.21C151.24 118.98 152.98 119.86 154.88 119.86C157.04 119.86 159.5 118.9 162.26 116.98C165.02 115.06 166.79 113.09 167.57 111.06V110.87C167.57 110.35 167.29 109.35 166.73 107.86C166.17 106.37 165.72 105.43 165.37 105.05H165.36Z" fill="white"/>
<path d="M198.57 106.02C196.46 108.05 194.86 109.56 193.78 110.55C193.31 110.59 193.07 110.18 193.07 109.32C193.07 106.38 193.33 102.77 193.85 98.4899C194.45 93.9599 195.12 90.3699 195.86 87.7399C196.64 85.2699 197.39 82.8299 198.12 80.4099C198.98 77.3899 199.41 74.8899 199.41 72.8899C199.41 72.1099 197.88 71.4699 194.81 70.9499C192.48 70.5599 190.5 70.3699 188.86 70.3699L188.08 71.6599C188.34 72.3499 188.47 73.6399 188.47 75.5499C188.47 79.2199 188.19 83.6299 187.63 88.7599C187.07 93.1299 186.53 97.5199 186.01 101.92C185.1 109.78 182.77 113.72 179.02 113.72C177.85 113.72 176.95 113.27 176.3 112.35C175.65 111.44 175.33 110.39 175.33 109.17C175.33 107.22 176 103.93 177.34 99.2899C179.15 92.9099 180.1 89.4999 180.19 89.0199C181.18 84.4699 182.56 81.2499 184.33 79.3999C184.33 77.3999 181.68 74.3999 176.37 70.3599C174.43 72.6999 172.7 79.6899 171.19 91.3399C169.9 101 169.25 108.71 169.25 114.47C169.25 116.68 169.85 118.33 171.06 119.41C173.09 121.28 176.99 122.2 182.77 122.2C184.06 122.2 185.36 121.06 186.65 118.77C186.91 118.3 187.73 116.53 189.11 113.46L189.56 113.59C189.65 114.24 190.25 115.67 191.37 117.89C192.49 120.11 193.2 121.22 193.51 121.22C194.29 121.22 196.98 117.92 201.6 111.32C201.56 110.76 201.14 109.77 200.34 108.34C199.54 106.92 198.95 106.14 198.56 106.01L198.57 106.02Z" fill="white"/>
<path d="M244.52 105.21C244.13 104.8 243.53 104.59 242.71 104.59C241.89 104.59 240.94 104.76 239.86 105.11C238.52 105.54 237.85 106.06 237.85 106.66C237.85 107.09 238.15 107.42 238.76 107.63C238.76 109.7 238.61 110.97 238.31 111.45C237.88 112.14 236.71 112.49 234.82 112.49C233.35 112.49 231.26 110.58 228.54 106.77C226.08 103.34 224.27 100.74 223.1 98.96C222.5 98.05 222.19 97.0699 222.19 96.0399C224.99 93.8299 226.79 92.3299 227.56 91.5499C229.46 89.2499 230.84 87.4699 231.7 86.2199C233.73 83.4899 235.26 81.4299 236.3 80.0399C238.41 77.1799 239.47 75.0599 239.47 73.6599C239.47 72.7499 238.82 71.9599 237.53 71.2499C236.45 70.6499 235.39 70.34 234.36 70.34C232.94 70.34 231.71 71.69 230.67 74.4C229.33 78.01 228.51 79.98 228.21 80.28C222.9 86.21 219.73 89.1799 218.7 89.1799C218.53 89.1799 218.4 89.1199 218.31 88.9899C216.63 85.5699 214.92 82.1299 213.2 78.6699C210.18 73.1299 207.94 70.3499 206.47 70.3499C205.18 70.3499 203.99 70.8 202.91 71.71C201.83 72.62 201.29 73.69 201.29 74.96C201.29 75.52 202.56 77.35 205.11 80.46C206.79 82.44 208.45 84.4199 210.09 86.3599C211.38 87.9999 212.74 90.7799 214.17 94.7199C208.52 107.5 204.55 114.44 202.26 115.52C203.51 117.07 204.57 118.27 205.43 119.09C206.03 118.96 207.31 120 209.25 122.2C210.93 118.53 212.36 115.15 213.52 112.04C215.72 106.3 217.34 103.43 218.37 103.43C219.32 103.43 220.68 104.92 222.45 107.9C225 112.26 226.74 115 227.69 116.12C230.06 119.1 232.5 120.59 235 120.59C238.84 120.59 242.31 118.52 245.42 114.38C246.5 112.96 247.04 112.01 247.04 111.53C247.04 111.01 246.72 109.93 246.07 108.29C245.42 106.65 244.9 105.63 244.52 105.22V105.21Z" fill="white"/>
<path d="M283.15 70.3599C280.3 70.7099 273.18 73.1299 261.79 77.6299C250.05 82.2099 243.8 85.18 243.02 86.52L247.36 94.0499C249.56 91.6299 252.84 89.1299 257.2 86.5399C257.8 86.0199 258.45 85.6299 259.14 85.3699C259.7 85.2399 260.24 85.0899 260.76 84.9199L261.47 85.6299C262.03 87.9999 262.57 89.94 263.09 91.46C264 94.18 264.62 99.3099 264.97 106.86C265.27 114.11 266.01 119.22 267.17 122.2C271.66 120.91 274.4 120.15 275.39 119.93L276.04 117.99C275.05 115.92 273.52 111.95 271.44 106.08C269.2 99.69 268.08 95.8999 268.08 94.6899C268.08 89.3399 267.76 85.3899 267.11 82.8499C270.91 80.6099 274.6 79.4799 278.18 79.4799C278.87 79.4799 279.5 79.5499 280.06 79.6699C280.62 79.7999 281.12 79.8599 281.55 79.8599C283.28 79.8599 284.14 78.19 284.14 74.84C284.14 73.1 283.82 71.6 283.17 70.34L283.15 70.3599Z" fill="white"/>
<path d="M307.94 92.62C305.57 78.12 304.01 70.72 303.28 70.42C303.02 70.29 302.59 70.23 301.99 70.23C297.72 70.23 295.24 70.94 294.55 72.37C293.69 75.95 292.98 79.19 292.41 82.08C291.85 84.32 291.03 88.44 289.95 94.44C289.04 99.75 288.11 103.81 287.14 106.64C286.17 109.47 285.4 111.57 284.84 112.95C283.76 115.8 283.22 117.83 283.22 119.03C284.6 120.11 286.35 120.71 288.46 120.84C289.28 119.63 290.12 117.11 290.98 113.27C291.32 111.85 291.86 109.19 292.6 105.31C293.2 102.07 293.87 100.46 294.61 100.46C297.37 100.46 300.02 100.85 302.57 101.62C302.79 104.73 303 107.83 303.22 110.94C303.48 114.69 303.82 117.8 304.26 120.26C304.48 121.55 304.82 122.2 305.3 122.2C306.85 122.2 309.4 121.1 312.94 118.9C312.08 116.66 311.11 112.34 310.03 105.96C309.34 101.52 308.65 97.07 307.96 92.63L307.94 92.62ZM299.72 95.73C298.64 95.73 297.2 95.56 295.38 95.21V94.89C295.16 90.49 295.79 85.23 297.26 79.1L298.36 79.29C298.62 79.76 299.12 82.27 299.85 86.8C300.32 89.65 300.78 92.47 301.21 95.28C301.04 95.58 300.54 95.73 299.72 95.73Z" fill="white"/>
<path d="M340.43 111.19C333.96 113.48 329.47 114.62 326.97 114.62C325.76 114.62 324.83 114.15 324.19 113.2C323.2 105.68 322.7 99.0299 322.7 93.2299C322.7 88.5999 323.02 84.3299 323.67 80.3899C324.23 77.6299 324.79 74.8899 325.35 72.1599L324.25 70.3499C320.28 70.6999 317.3 70.9299 315.32 71.0599C315.02 73.1699 314.87 75.2799 314.87 77.3499C314.87 79.4199 315.49 86.4399 316.71 98.6599C317.94 110.89 318.55 118 318.55 119.99C319.11 121.46 321.85 122.19 326.77 122.19C332.55 122.19 338.12 121.59 343.47 120.38L344.31 118.5C343.88 115.91 343.6 114.42 343.47 114.03C342.87 112.13 341.85 111.18 340.43 111.18V111.19Z" fill="white"/>
<path d="M98.19 28.1299C98.52 28.4199 98.84 28.7399 99.14 29.0399C100.42 30.2999 101.82 31.6899 104.37 31.6899C105.22 31.6899 106.2 31.5299 107.35 31.1699C108.87 30.6899 110.05 29.6199 110.79 28.0799C111.72 26.1299 111.79 23.5999 110.96 21.4699C109.8 18.4999 106.21 16.6799 102.94 17.4099C101.56 17.7199 97.09 19.3299 97.64 27.0399C97.67 27.4599 97.86 27.8499 98.18 28.1299H98.19ZM103.65 20.5499C105.37 20.1599 107.38 21.1399 107.97 22.6399C108.48 23.9499 108.45 25.5399 107.9 26.6999C107.55 27.4299 107.04 27.8999 106.38 28.1099C103.65 28.9799 102.95 28.2799 101.41 26.7599C101.22 26.5699 101.03 26.3899 100.83 26.1899C100.74 23.0199 101.75 20.9799 103.65 20.5499Z" fill="white"/>
<path d="M121.17 62.2999C114.64 61.1599 112.75 66.4799 111.22 70.7599C110.79 71.9699 110.38 73.1199 109.89 74.1299C102.7 89.0499 90.96 99.85 78.49 103.02C65.48 106.33 50.92 101.84 43.08 92.1099C37.24 84.8699 36.32 76.2999 40.47 67.9899C44.52 59.8799 53.94 57.2699 63.91 54.4999C75.76 51.2099 88.01 47.81 91.72 34.65C94.53 24.67 91.95 15.0899 84.63 8.35992C74.97 -0.520083 59.13 -2.36005 43.31 3.57995C30.85 8.24995 20.82 15.1799 13.5 24.1999C6.92999 32.2899 2.65998 42.0699 1.16998 52.4699C-2.00002 74.6199 7.13997 97.3199 24.47 110.31C36.27 119.15 49.67 123.81 62.94 123.81C65.7 123.81 68.46 123.61 71.2 123.2C87.61 120.75 102.15 111.43 113.27 96.2299C117.32 90.6899 125.54 72.3099 122.41 63.3499C122.22 62.7999 121.74 62.3999 121.17 62.2999ZM110.68 94.34C100.08 108.82 86.27 117.71 70.73 120.02C55.71 122.26 39.96 117.9 26.4 107.74C10 95.4499 1.34997 73.9399 4.34997 52.9299C7.40997 31.5899 21.64 15.14 44.43 6.58996C50.23 4.41996 56.01 3.34991 61.43 3.34991C69.72 3.34991 77.15 5.85991 82.45 10.7299C88.84 16.6099 91.09 25.01 88.62 33.78C85.4 45.2 74.54 48.21 63.05 51.4C52.84 54.23 42.27 57.1599 37.59 66.5599C32.91 75.9299 34 85.9799 40.58 94.1399C49.18 104.81 65.1 109.75 79.28 106.15C92.67 102.75 105.2 91.2999 112.79 75.5399C113.36 74.3699 113.81 73.0899 114.25 71.8499C115.82 67.4399 116.91 65.2999 119.64 65.3799C121.39 73.2599 114.37 89.2999 110.67 94.3499L110.68 94.34Z" fill="white"/>
<path d="M55.54 68.8099C52.38 69.2399 49.68 71.0199 47.93 73.8199C45.82 77.2099 45.38 81.6999 46.76 85.8299C48.15 89.9899 51.58 93.4299 56.69 95.7799C61.04 97.7799 66.3 98.7999 71.45 98.7999C75.79 98.7999 80.06 98.0799 83.66 96.6099C88.8 94.5199 94.17 90.5299 98.41 85.6699C103.01 80.3799 105.84 74.5499 106.36 69.2599C106.42 68.6999 106.17 68.1499 105.72 67.8099C105.27 67.4699 104.67 67.3999 104.15 67.6099C101.84 68.5599 99.85 70.5899 97.74 72.7399C95.44 75.0799 93.07 77.4999 90.12 78.7599C82.18 82.1699 76.71 78.4199 70.93 74.4499C66.31 71.2799 61.53 67.9999 55.55 68.7999L55.54 68.8099ZM91.38 81.7199C94.91 80.1999 97.63 77.4399 100.02 74.9899C100.82 74.1699 101.6 73.3799 102.37 72.6799C99.59 81.6099 90.51 90.3399 82.44 93.6299C75.34 96.5199 65.3 96.1999 58.02 92.8499C55.03 91.4799 51.18 88.9699 49.8 84.8099C48.72 81.5799 49.04 78.1099 50.65 75.5199C51.88 73.5399 53.77 72.2899 55.96 71.9899C56.42 71.9299 56.88 71.8999 57.33 71.8999C61.5 71.8999 65.2 74.4399 69.09 77.1099C75.05 81.1999 81.8 85.8299 91.37 81.7199H91.38Z" fill="white"/>
<path d="M46.7 44.08C50.35 42.68 53.8 41.35 56.57 38.96C60.1 35.91 62.21 31.47 61.96 27.63C61.76 24.63 60.21 22.1 57.46 20.29C44.86 12.02 27.92 28.75 22.97 35.27C18.21 41.55 8.70998 65.66 17.55 75.05C17.86 75.37 18.28 75.56 18.72 75.56C18.78 75.56 18.85 75.56 18.91 75.55C19.42 75.49 19.86 75.19 20.12 74.75C20.99 73.24 21.63 71.36 22.38 69.19C24.63 62.64 27.71 53.67 39.82 47.07C42.03 45.87 44.41 44.95 46.7 44.07V44.08ZM19.34 68.15C19.03 69.06 18.73 69.92 18.44 70.7C14.06 61.71 21.42 42.66 25.55 37.22C28.56 33.25 39.91 21.26 49.81 21.26C51.87 21.26 53.86 21.78 55.7 22.99C57.6 24.24 58.63 25.87 58.76 27.85C58.95 30.67 57.23 34.16 54.48 36.53C52.14 38.56 48.94 39.78 45.56 41.08C43.17 42 40.69 42.95 38.29 44.25C25.08 51.44 21.63 61.49 19.34 68.15Z" fill="white"/>
<path d="M103.03 54.07C104.78 54.07 106.63 53.56 108.44 52.39C111.41 50.46 112.99 47.45 112.77 44.14C112.54 40.56 110.24 37.12 107.04 35.58C104.11 34.17 100.93 34.48 98.08 36.46C94 39.3 91.44 44.48 94.92 49.65C96.64 52.21 99.66 54.07 103.03 54.07ZM99.92 39.0999C101.17 38.2299 102.33 37.9299 103.33 37.9299C104.24 37.9299 105.03 38.1799 105.64 38.4799C107.79 39.5199 109.4 41.9299 109.55 44.3499C109.65 45.8699 109.23 48.04 106.67 49.7C103.12 52.01 99.34 50.4799 97.57 47.8599C95.99 45.5099 95.77 41.9799 99.9 39.1099L99.92 39.0999Z" fill="white"/>
<path d="M85.64 75.8799C87.05 75.8799 88.53 75.6199 90.06 75.0499C93.82 73.6399 96.33 70.4999 96.94 66.4399C97.62 61.8999 95.8 57.0899 92.4 54.4799C89.31 52.0999 85.36 51.7699 81.26 53.5399C73.88 56.7199 72.61 63.1999 74.63 68.1999C76.32 72.3899 80.47 75.8799 85.65 75.8799H85.64ZM82.53 56.4799C85.55 55.1799 88.29 55.3599 90.44 57.0199C92.9 58.9199 94.27 62.5899 93.76 65.9599C93.51 67.6499 92.54 70.68 88.94 72.03C83.64 74.02 79.23 70.9999 77.61 66.9899C75.49 61.7099 78.93 58.0299 82.53 56.4799Z" fill="white"/>
</svg>
