<svg xmlns="http://www.w3.org/2000/svg" xmlns:xlink="http://www.w3.org/1999/xlink" id="Layer_4" x="0px" y="0px" width="70px" height="70px" viewBox="0 0 70 70" xml:space="preserve"><g>	<path fill="#FF6629" d="M52.07,6.869C47.385,2.29,41.695,0,35,0c-6.693,0-12.384,2.29-17.07,6.869C13.244,11.448,10.9,17.01,10.9,23.552  c0,3.054,1.227,7.196,3.682,12.43c1.784,4.252,4.239,8.942,7.364,14.066c3.57,6.106,7.197,11.722,10.879,16.845L35,70l2.176-3.107  l1.506-2.125c1.004-1.417,2.428-3.543,4.268-6.38c1.842-2.834,3.541-5.614,5.105-8.34c3.121-5.124,5.576-9.814,7.363-14.066  c2.453-5.233,3.682-9.376,3.682-12.43C59.1,17.01,56.758,11.448,52.07,6.869z M50.732,34.019c-1.674,3.598-4.129,8.07-7.365,13.411  c-2.789,4.689-5.58,9.052-8.368,13.085c-2.789-4.033-5.579-8.396-8.368-13.085c-3.237-5.341-5.69-9.813-7.363-13.411  c-2.009-4.687-3.013-8.178-3.013-10.467c0-5.124,1.812-9.458,5.439-13.003C25.32,7.008,29.755,5.233,35,5.233  s9.68,1.774,13.305,5.315c3.627,3.545,5.439,7.879,5.439,13.003C53.744,25.841,52.74,29.332,50.732,34.019z"></path>	<path fill="#FF6629" d="M35,18.317c-1.451,0-2.706,0.52-3.765,1.554c-1.062,1.038-1.59,2.265-1.59,3.681c0,1.418,0.528,2.645,1.59,3.68  c1.059,1.038,2.313,1.554,3.765,1.554c1.45,0,2.706-0.516,3.766-1.554c1.059-1.035,1.59-2.262,1.59-3.68  c0-1.416-0.531-2.643-1.59-3.681C37.705,18.837,36.449,18.317,35,18.317z"></path></g></svg>