<svg width="66" height="17" viewBox="0 0 66 17" fill="none" xmlns="http://www.w3.org/2000/svg">
<path d="M0.909649 11.1497C1.09965 10.0297 1.29965 8.90969 1.47965 7.77969C1.63965 6.76969 1.78965 5.7497 1.94965 4.7397C1.99965 4.7197 2.04965 4.7097 2.09965 4.6897C3.02965 6.5297 3.95965 8.3797 4.93965 10.3197C5.92965 8.3897 6.88965 6.53969 7.83965 4.67969C7.88965 4.68969 7.94965 4.7097 7.99965 4.7197C8.32965 6.9897 8.65965 9.2597 8.98965 11.5197C8.28965 11.6997 8.25965 11.6597 8.16965 11.0197C7.97965 9.6697 7.77965 8.32969 7.55965 6.83969C6.67965 8.52969 5.85965 10.0897 5.04965 11.6597H4.85965C4.02965 10.0797 3.19965 8.4997 2.30965 6.7997C2.08965 8.2997 1.84965 9.63969 1.71965 10.9997C1.65965 11.6397 1.38965 11.6997 0.889648 11.5897V11.1397L0.909649 11.1497Z" fill="#323334"/>
<path d="M24.0998 8.88944C22.8498 10.2894 21.5598 11.6394 20.3798 13.0894C19.7898 13.8194 19.1298 13.7694 18.2598 13.6294C19.9698 11.7194 21.6398 9.86944 23.3398 7.96944C20.4998 4.48944 16.9198 2.32944 12.3398 1.59944C14.3498 1.35944 16.0898 1.86944 17.7998 2.51944C20.5798 3.57944 22.7498 5.42943 24.6498 7.64943C26.1898 9.45943 27.7298 11.2594 29.5898 12.7694C31.6298 14.4294 33.8798 15.6194 36.4898 16.1094C36.5398 16.1094 36.5898 16.1394 36.5998 16.2194C31.1598 15.9894 27.3998 12.8794 24.0898 8.88944H24.0998Z" fill="#323334"/>
<path d="M24.6597 6.2603C25.6997 5.1103 26.7097 4.0503 27.6597 2.9303C28.0397 2.4903 28.4096 2.24031 28.9996 2.33031C29.2696 2.37031 29.5596 2.33031 29.9896 2.33031C28.4796 4.05031 27.0596 5.67031 25.5996 7.34031C28.5596 11.0703 31.9397 14.2203 36.5396 15.8503C36.5196 15.9003 36.4996 15.9503 36.4896 16.0003C35.4096 15.5903 34.3096 15.2303 33.2496 14.7703C30.5096 13.5903 28.4596 11.5503 26.4896 9.39031C24.9896 7.75031 23.5396 6.0403 21.8496 4.6203C19.3596 2.5103 16.3897 1.39032 13.0797 1.32032C12.9897 1.32032 12.8996 1.3103 12.6396 1.2903C17.7096 0.670303 21.4196 2.92031 24.6696 6.27031L24.6597 6.2603Z" fill="#323334"/>
<path d="M44.15 11.59H43.41C43.18 10.07 42.96 8.53996 42.7 6.84996C41.92 8.30996 41.24 9.61995 40.53 10.9299C40.39 11.1799 40.19 11.39 40.02 11.63C39.85 11.39 39.66 11.17 39.53 10.92C38.86 9.61995 38.21 8.30995 37.43 7.00995C37.21 8.54995 36.99 10.0799 36.77 11.6199H36.04C36.39 9.29995 36.74 7.01996 37.08 4.73996C37.13 4.73996 37.19 4.71996 37.24 4.70996C38.17 6.55996 39.1 8.39995 40.08 10.34C41.08 8.39995 42.02 6.55996 42.97 4.71996C43.03 4.71996 43.08 4.71996 43.14 4.71996C43.47 6.99996 43.81 9.26996 44.15 11.6V11.59Z" fill="#323334"/>
<path d="M18.9299 11.5797C18.3399 11.7197 17.9999 11.5897 17.8199 11.0497C17.6699 10.6097 17.3899 10.2097 17.2199 9.77972C17.0799 9.43972 16.8699 9.34972 16.5299 9.36972C15.8499 9.39972 15.1699 9.39972 14.4899 9.36972C14.1199 9.34972 13.8999 9.45973 13.7599 9.81973C13.5999 10.2397 13.3399 10.6197 13.2099 11.0497C13.0399 11.6097 12.6999 11.7297 12.1299 11.5897C12.1799 11.4397 12.2199 11.2897 12.2899 11.1497C13.2499 9.13972 14.2199 7.11973 15.1899 5.10973C15.2599 4.95973 15.4199 4.84973 15.5399 4.71973C15.6399 4.81973 15.7699 4.90972 15.8299 5.02972C16.8399 7.12972 17.8499 9.21973 18.8499 11.3197C18.8899 11.3997 18.9099 11.4897 18.9399 11.5897L18.9299 11.5797ZM14.3399 8.69972H16.6799C16.2799 7.85972 15.9099 7.08972 15.5199 6.25972C15.1099 7.09972 14.7399 7.86972 14.3399 8.69972Z" fill="#323334"/>
<path d="M47.7198 4.74023H48.5198C48.5198 5.46023 48.5198 6.15023 48.5198 6.84023C48.5198 7.74023 48.4998 8.65023 48.5198 9.55023C48.5398 10.6202 49.1298 11.1802 50.1898 11.1602C51.1898 11.1502 51.7698 10.5502 51.7698 9.51022C51.7698 7.93022 51.7698 6.36023 51.7698 4.75023H52.5498C52.5498 6.48023 52.6098 8.19023 52.5298 9.89023C52.4698 11.1202 51.4398 11.8802 50.1298 11.8702C48.7198 11.8602 47.8098 11.1102 47.7398 9.70023C47.6598 8.07023 47.7198 6.44023 47.7198 4.75023V4.74023Z" fill="#323334"/>
<path d="M59.93 5.69956C59.73 5.83956 59.54 5.96956 59.33 6.10956C59.11 5.90956 58.91 5.71957 58.69 5.54957C58.22 5.17957 57.58 5.20956 57.26 5.60956C56.94 5.99956 57.01 6.66956 57.45 7.02956C57.74 7.26956 58.1 7.41956 58.38 7.66956C58.84 8.07956 59.35 8.46956 59.68 8.96956C60.21 9.74956 60.11 10.6096 59.58 11.2096C59.01 11.8496 58.03 12.0696 57.19 11.7296C56.57 11.4796 56.13 11.0396 55.79 10.3796C55.98 10.2596 56.16 10.1496 56.37 10.0196C56.53 10.2196 56.67 10.4196 56.83 10.5996C57.27 11.0896 57.8 11.2896 58.46 11.0596C59.17 10.8096 59.45 9.94957 58.95 9.29957C58.66 8.91957 58.25 8.62956 57.88 8.30956C57.51 7.99956 57.08 7.73956 56.73 7.38956C56.14 6.79956 56.07 6.02956 56.46 5.36956C56.86 4.69956 57.61 4.38957 58.41 4.57957C59.07 4.73957 59.56 5.09956 59.93 5.69956Z" fill="#323334"/>
<path d="M63.1394 4.81993C61.7994 4.81993 60.8094 3.86992 60.8194 2.58992C60.8294 1.34992 61.8394 0.419922 63.1494 0.419922C64.4694 0.419922 65.4294 1.35992 65.4294 2.61992C65.4294 3.88992 64.4594 4.80992 63.1394 4.80992V4.81993ZM64.2694 3.80992C64.8794 3.26992 64.9994 2.45992 64.5794 1.72992C64.2194 1.11992 63.4994 0.80993 62.7794 0.95993C62.0294 1.11993 61.4894 1.72992 61.4194 2.49992C61.3594 3.17992 61.7994 3.88992 62.4494 4.16992C63.1094 4.44992 63.8294 4.30992 64.2894 3.78992L64.2694 3.80992Z" fill="#323334"/>
<path d="M31.5996 4.72949H32.2996V11.6295H31.5996V4.72949Z" fill="#323334"/>
<path d="M44.84 14.5096C44.84 15.1896 44.36 15.6596 43.67 15.6696C43.01 15.6696 42.47 15.1496 42.46 14.5196C42.46 13.8896 43.01 13.3496 43.66 13.3496C44.32 13.3496 44.84 13.8496 44.84 14.5096ZM44.62 14.5396C44.62 14.0696 44.15 13.6196 43.66 13.6296C43.17 13.6296 42.77 14.0396 42.76 14.5296C42.76 15.0196 43.15 15.4196 43.64 15.4396C44.13 15.4596 44.61 15.0096 44.61 14.5396H44.62Z" fill="#323334"/>
<path d="M52.5598 14.5101C52.5598 15.1701 52.0398 15.6601 51.3598 15.6601C50.6798 15.6601 50.1698 15.1601 50.1798 14.5001C50.1798 13.8601 50.7298 13.3301 51.3798 13.3301C52.0398 13.3301 52.5698 13.8601 52.5598 14.5101ZM51.3798 13.6301C50.8798 13.6301 50.4298 14.0601 50.4398 14.5501C50.4498 15.0201 50.8798 15.4301 51.3598 15.4301C51.8398 15.4301 52.2698 15.0401 52.2898 14.5601C52.3098 14.0701 51.8798 13.6201 51.3698 13.6201L51.3798 13.6301Z" fill="#323334"/>
<path d="M58.6494 13.41C59.1194 13.5 59.7094 13.16 59.9394 13.82C60.1094 14.28 59.8094 14.55 59.3694 14.68C59.5794 14.97 59.7794 15.23 59.9694 15.5C59.9194 15.55 59.8594 15.59 59.8094 15.64C59.5394 15.32 59.2694 15.01 58.9694 14.65C58.9094 15 58.8694 15.3 58.8194 15.59C58.7694 15.59 58.7094 15.57 58.6594 15.57V13.43L58.6494 13.41ZM58.7594 13.65C58.8694 13.99 58.8894 14.29 59.0094 14.34C59.1894 14.41 59.4494 14.34 59.6494 14.25C59.7094 14.22 59.7294 13.87 59.6894 13.86C59.4494 13.77 59.1794 13.74 58.7594 13.65Z" fill="#323334"/>
<path d="M55.0497 13.4299C55.0497 13.8599 55.0597 14.2899 55.0497 14.7199C55.0397 15.0799 55.1097 15.3899 55.5397 15.3799C55.9297 15.3699 55.9997 15.0699 55.9797 14.7399C55.9597 14.3099 55.9797 13.8699 55.9797 13.4399C56.0397 13.4399 56.0997 13.4199 56.1597 13.4199C56.1997 13.5199 56.2697 13.6199 56.2797 13.7199C56.2897 14.1099 56.2997 14.5099 56.2797 14.8999C56.2497 15.3499 55.9997 15.6499 55.5297 15.6499C55.0597 15.6499 54.7797 15.3799 54.7597 14.9199C54.7397 14.4199 54.7697 13.9299 54.7797 13.4299C54.8697 13.4299 54.9597 13.4299 55.0497 13.4299Z" fill="#323334"/>
<path d="M40.2699 15.0896C39.9099 15.6496 39.3999 15.7796 38.8599 15.5196C38.3699 15.2896 38.0999 14.7596 38.2099 14.2696C38.3399 13.6896 38.7899 13.3196 39.3699 13.3096C39.8499 13.3096 40.1699 13.5096 40.2699 13.9696C39.7099 13.6296 39.1199 13.3296 38.6799 13.9696C38.5099 14.2096 38.4899 14.7396 38.6499 14.9796C39.0699 15.6596 39.6799 15.4296 40.2699 15.0796V15.0896Z" fill="#323334"/>
<path d="M47.3299 13.4301V15.2901C47.6299 15.3101 47.8899 15.3302 48.1399 15.3502C48.1399 15.4002 48.1399 15.4402 48.1399 15.4902H47.0399C47.0599 14.8202 46.9499 14.1102 47.1099 13.4102C47.1799 13.4102 47.2599 13.4102 47.3299 13.4202V13.4301Z" fill="#323334"/>
<path d="M64.2897 3.79002C63.8497 3.85002 63.5397 3.79002 63.4397 3.25002C63.4097 3.08002 63.1097 2.96002 62.8097 2.72002C62.7797 3.19002 62.7697 3.46003 62.7497 3.74003C62.3497 3.86003 62.1897 3.76002 62.2097 3.34002C62.2397 2.76002 62.2097 2.18002 62.2097 1.56002C62.8697 1.53002 63.5397 1.23002 64.0097 1.84002C64.1397 2.00002 63.9797 2.38002 63.8597 2.65002C63.9897 3.03002 64.1297 3.42002 64.2597 3.80002L64.2797 3.78002L64.2897 3.79002ZM62.7597 2.35003C62.8197 2.42003 62.8897 2.48003 62.9497 2.55003C63.1297 2.43003 63.3197 2.31002 63.4997 2.20002C63.3597 2.10002 63.2197 2.00002 63.0897 1.90002C62.9797 2.05002 62.8697 2.20002 62.7597 2.36002V2.35003Z" fill="#323334"/>
</svg>
