<svg width="70" height="27" viewBox="0 0 70 27" fill="none" xmlns="http://www.w3.org/2000/svg">
<path d="M8.93073 12.0996H7.01074V14.0296H8.93073V12.0996Z" fill="#323334"/>
<path d="M13.2608 12.1094H11.3408V14.0394H13.2608V12.1094Z" fill="#323334"/>
<path d="M17.5812 12.1094H15.6611V14.0394H17.5812V12.1094Z" fill="#323334"/>
<path d="M21.9005 12.0996H19.9805V14.0296H21.9005V12.0996Z" fill="#323334"/>
<path d="M26.2208 12.0996H24.3008V14.0296H26.2208V12.0996Z" fill="#323334"/>
<path d="M45.6407 12.0996H43.7207V14.0296H45.6407V12.0996Z" fill="#323334"/>
<path d="M49.9611 12.0996H48.041V14.0296H49.9611V12.0996Z" fill="#323334"/>
<path d="M54.2804 12.0996H52.3604V14.0296H54.2804V12.0996Z" fill="#323334"/>
<path d="M58.6006 12.0996H56.6807V14.0296H58.6006V12.0996Z" fill="#323334"/>
<path d="M62.9307 12.0996H61.0107V14.0296H62.9307V12.0996Z" fill="#323334"/>
<path d="M31.7111 12.0996H29.791V14.0396H31.7111V12.0996Z" fill="#323334"/>
<path d="M31.3904 14.46H30.1104V15.49H31.3904V14.46Z" fill="#323334"/>
<path d="M40.0508 12.0898H38.1309V14.0298H40.0508V12.0898Z" fill="#323334"/>
<path d="M39.7703 14.46H38.4902V15.49H39.7703V14.46Z" fill="#323334"/>
<path d="M35.9405 12.0996H34.0205V14.0296H35.9405V12.0996Z" fill="#323334"/>
<path d="M5.36044 22.9297L5.38046 22.9497V23.0797L5.36044 23.0997C5.17044 23.0997 5.05046 23.1197 5.00046 23.1297C4.95046 23.1397 4.92045 23.1697 4.90045 23.1997C4.88045 23.2297 4.87045 23.2997 4.87045 23.3897C4.87045 23.4897 4.87044 23.7497 4.86044 24.1997V25.4197C4.86044 25.5997 4.86044 25.7997 4.86044 26.0197C4.86044 26.2397 4.88047 26.3697 4.89047 26.4097C4.91047 26.4497 4.94047 26.4697 4.98047 26.4897C5.02047 26.5097 5.15044 26.5197 5.36044 26.5197L5.38046 26.5397V26.6697L5.36044 26.6897C5.07044 26.6697 4.82044 26.6697 4.61044 26.6697C4.47044 26.6697 4.22045 26.6697 3.87045 26.6897L3.85046 26.6697V26.5397L3.87045 26.5197C4.06045 26.5197 4.18047 26.5097 4.23047 26.4897C4.28047 26.4797 4.31044 26.4497 4.33044 26.4197C4.35044 26.3897 4.36044 26.3197 4.36044 26.2297C4.36044 26.1297 4.36045 25.8597 4.37045 25.4197V23.4797L3.46045 25.3897C3.23045 25.8697 3.03044 26.3197 2.86044 26.7397H2.76047C2.66047 26.5097 2.58045 26.3297 2.52045 26.1897L1.25046 23.5597V25.4097C1.25046 25.5797 1.25046 25.7797 1.25046 26.0097C1.25046 26.2397 1.27046 26.3697 1.28046 26.3997C1.30046 26.4397 1.33045 26.4597 1.37045 26.4797C1.41045 26.4997 1.54046 26.5097 1.75046 26.5097L1.77045 26.5297V26.6597L1.75046 26.6797H1.58044C1.41044 26.6597 1.26046 26.6597 1.13046 26.6597C1.07046 26.6597 0.860458 26.6597 0.500458 26.6797L0.480469 26.6597V26.5297L0.500458 26.5097C0.690458 26.5097 0.810443 26.4997 0.860443 26.4797C0.910443 26.4697 0.940449 26.4397 0.960449 26.4097C0.980449 26.3797 0.990448 26.3097 0.990448 26.2197C0.990448 26.1297 0.990458 25.8597 1.00046 25.4097V24.1997C1.00046 24.0397 1.00046 23.8397 1.00046 23.6097C1.00046 23.3797 0.980459 23.2497 0.970459 23.2097C0.950459 23.1697 0.920463 23.1497 0.880463 23.1297C0.840463 23.1097 0.710458 23.0997 0.500458 23.0997L0.480469 23.0797V22.9497L0.500458 22.9297C0.620458 22.9297 0.790448 22.9397 0.990448 22.9397C1.18045 22.9397 1.35046 22.9397 1.50046 22.9297C1.65046 23.2697 1.79045 23.5797 1.93045 23.8597L2.93045 25.9197L3.84045 24.0297C4.09045 23.5197 4.25045 23.1497 4.34045 22.9297C4.51045 22.9297 4.68045 22.9397 4.84045 22.9397C4.99045 22.9397 5.16044 22.9397 5.36044 22.9297Z" fill="#323334"/>
<path d="M5.58008 23.4096L5.6001 23.3896C5.9801 23.3996 6.2001 23.4096 6.2601 23.4096C6.3101 23.4096 6.53008 23.4096 6.93008 23.3896L6.9501 23.4096V23.5296L6.93008 23.5496C6.82008 23.5496 6.74008 23.5497 6.68008 23.5597C6.62008 23.5597 6.58008 23.5796 6.55008 23.5896C6.52008 23.5996 6.51009 23.6496 6.50009 23.7096C6.50009 23.7696 6.49008 23.8597 6.49008 23.9697V24.4996V25.2396C6.49008 25.4796 6.4901 25.6596 6.5101 25.7696C6.5101 25.8796 6.5401 25.9796 6.5701 26.0596C6.6001 26.1396 6.65009 26.2097 6.72009 26.2597C6.79009 26.3197 6.8901 26.3597 7.0101 26.3997C7.1401 26.4397 7.28009 26.4496 7.44009 26.4496C7.61009 26.4496 7.7701 26.4296 7.9201 26.3796C8.0701 26.3296 8.1801 26.2596 8.2601 26.1696C8.3401 26.0796 8.3901 25.9596 8.4101 25.8196C8.4301 25.6696 8.4501 25.4696 8.4501 25.2096V24.4996C8.4501 24.3796 8.4501 24.2096 8.4501 23.9996C8.4501 23.7896 8.4401 23.6696 8.4201 23.6396C8.4101 23.6096 8.38009 23.5796 8.34009 23.5696C8.30009 23.5496 8.1901 23.5396 8.0101 23.5396L7.99008 23.5196V23.4096L8.0101 23.3896C8.2401 23.3996 8.42009 23.4096 8.56009 23.4096C8.68009 23.4096 8.86008 23.4096 9.11008 23.3896L9.1301 23.4096V23.5196L9.11008 23.5396C8.96008 23.5396 8.87008 23.5397 8.83008 23.5597C8.79008 23.5597 8.76008 23.5796 8.74008 23.5996C8.72008 23.6196 8.7101 23.6396 8.7001 23.6796C8.6901 23.7196 8.69008 23.8197 8.68008 23.9897V24.5097V25.2096C8.68008 25.4896 8.67009 25.7096 8.65009 25.8796C8.63009 26.0496 8.5801 26.1796 8.5101 26.2796C8.4301 26.3796 8.35008 26.4696 8.24008 26.5396C8.14008 26.6096 8.01009 26.6596 7.84009 26.6996C7.68009 26.7396 7.51009 26.7597 7.34009 26.7597C7.12009 26.7597 6.93008 26.7397 6.77008 26.6897C6.61008 26.6397 6.4701 26.5796 6.3801 26.4996C6.2801 26.4196 6.2201 26.3396 6.1701 26.2496C6.1301 26.1596 6.10009 26.0597 6.09009 25.9397C6.08009 25.8197 6.0701 25.6397 6.0701 25.3997V24.0596C6.0701 23.8796 6.06008 23.7697 6.05008 23.7197C6.05008 23.6697 6.03008 23.6296 6.02008 23.6196C6.01008 23.5996 5.98009 23.5897 5.94009 23.5797C5.90009 23.5697 5.8001 23.5596 5.6301 23.5496L5.61008 23.5296V23.4096H5.58008Z" fill="#323334"/>
<path d="M9.38013 25.8693L9.40012 25.8493H9.51013L9.53012 25.8693C9.53012 26.0693 9.55012 26.1893 9.56012 26.2293C9.57012 26.2693 9.61012 26.3193 9.69012 26.3693C9.76012 26.4193 9.85012 26.4593 9.97012 26.4893C10.0901 26.5193 10.2001 26.5393 10.3201 26.5393C10.4801 26.5393 10.6301 26.5093 10.7601 26.4493C10.8901 26.3893 10.9901 26.2993 11.0601 26.1793C11.1301 26.0593 11.1701 25.9293 11.1701 25.7893C11.1701 25.6893 11.1501 25.5993 11.1201 25.5193C11.0901 25.4393 11.0401 25.3793 10.9701 25.3393C10.9101 25.2893 10.8401 25.2593 10.7601 25.2393C10.6801 25.2193 10.5601 25.1893 10.4001 25.1693C10.2501 25.1493 10.1201 25.1193 10.0401 25.0993C9.9501 25.0793 9.87012 25.0493 9.78012 25.0093C9.69012 24.9693 9.62012 24.9193 9.56012 24.8493C9.50012 24.7893 9.46014 24.7093 9.42014 24.6093C9.39014 24.5193 9.37012 24.4193 9.37012 24.3093C9.37012 24.0193 9.47014 23.7793 9.67014 23.5993C9.87014 23.4193 10.1401 23.3193 10.4801 23.3193C10.6101 23.3193 10.7601 23.3393 10.9201 23.3693C11.0801 23.3993 11.2201 23.4493 11.3501 23.5193L11.3701 23.5493C11.3401 23.6893 11.3201 23.8893 11.3101 24.1593L11.2901 24.1793H11.1701L11.1501 24.1593C11.1501 23.9693 11.1501 23.8593 11.1401 23.8093C11.1401 23.7593 11.0601 23.6993 10.9301 23.6293C10.8001 23.5593 10.6501 23.5193 10.4901 23.5193C10.3601 23.5193 10.2401 23.5493 10.1201 23.5993C10.0101 23.6493 9.92011 23.7393 9.86011 23.8493C9.80011 23.9593 9.77011 24.0793 9.77011 24.1993C9.77011 24.2893 9.79013 24.3693 9.82013 24.4393C9.86013 24.5093 9.90011 24.5693 9.96011 24.6093C10.0201 24.6493 10.0801 24.6793 10.1601 24.6993C10.2301 24.7193 10.3701 24.7393 10.5701 24.7693C10.8401 24.8093 11.0401 24.8593 11.1701 24.9093C11.2901 24.9593 11.3901 25.0493 11.4701 25.1693C11.5501 25.2893 11.5801 25.4293 11.5801 25.5993C11.5801 25.9293 11.4501 26.1993 11.1801 26.4193C10.9101 26.6393 10.5901 26.7493 10.2101 26.7493C9.89014 26.7493 9.61012 26.6893 9.37012 26.5793V26.5493C9.37012 26.4493 9.38014 26.2293 9.39014 25.8693" fill="#323334"/>
<path d="M11.8604 23.4096L11.8804 23.3896C12.4104 23.3896 12.7504 23.3997 12.9004 23.3997C13.4104 23.3997 13.8604 23.3996 14.2504 23.3896V23.4096C14.2204 23.5596 14.1904 23.7896 14.1804 24.1096V24.1296H14.0504L14.0304 24.1096C14.0304 24.1096 14.0304 24.0796 14.0304 24.0696C14.0304 23.9396 14.0204 23.8096 14.0004 23.6896C13.9004 23.6496 13.7703 23.6196 13.6003 23.6096C13.4303 23.5996 13.3004 23.5896 13.2104 23.5896C13.0904 23.5896 12.9304 23.5896 12.7404 23.6196V23.9897L12.7203 24.4097V24.8796C12.8803 24.8796 13.0303 24.8896 13.1703 24.8896C13.3103 24.8896 13.4304 24.8896 13.5304 24.8796C13.6304 24.8796 13.6804 24.8596 13.7004 24.8496C13.7204 24.8496 13.7304 24.8196 13.7404 24.7896C13.7404 24.7596 13.7604 24.7096 13.7604 24.6396V24.4996L13.7903 24.4797H13.9004L13.9203 24.4996C13.9203 24.6696 13.9203 24.8397 13.9103 25.0097V25.5296V25.5497H13.8004L13.7804 25.5296L13.7604 25.3896C13.7504 25.2796 13.7403 25.2196 13.7303 25.1996C13.7303 25.1796 13.7104 25.1597 13.6904 25.1497C13.6704 25.1397 13.6104 25.1196 13.5204 25.1096C13.4304 25.1096 13.3004 25.0996 13.1404 25.0996C13.0504 25.0996 12.9103 25.0996 12.7303 25.1096C12.7303 25.2396 12.7203 25.4597 12.7203 25.7597C12.7203 26.0797 12.7203 26.3197 12.7303 26.4797H13.1603C13.5403 26.4797 13.7704 26.4797 13.8604 26.4697C13.9504 26.4697 14.0404 26.4397 14.1304 26.3997C14.1404 26.3597 14.1704 26.2797 14.2004 26.1497C14.2304 26.0197 14.2504 25.9397 14.2504 25.9097L14.2704 25.8896H14.3804L14.4004 25.9097C14.3904 25.9797 14.3704 26.0897 14.3604 26.2597C14.3504 26.4297 14.3404 26.5696 14.3404 26.6796L14.3204 26.6996C14.0204 26.6996 13.6403 26.6897 13.1603 26.6897H12.5304C12.3804 26.6897 12.2304 26.6896 12.0704 26.6996L12.0504 26.6796V26.5996L12.0704 26.5797C12.1604 26.5297 12.2103 26.4996 12.2303 26.4896C12.2403 26.4796 12.2504 26.3397 12.2604 26.0797C12.2604 25.8197 12.2704 25.6196 12.2704 25.4896V24.1096C12.2704 23.9996 12.2704 23.8997 12.2704 23.8297C12.2704 23.7597 12.2704 23.7096 12.2504 23.6796C12.2504 23.6496 12.2303 23.6296 12.2203 23.6196C12.2103 23.6096 12.1903 23.5996 12.1703 23.5896C12.1503 23.5896 12.1104 23.5696 12.0604 23.5696H11.8804L11.8604 23.5396V23.4196V23.4096Z" fill="#323334"/>
<path d="M14.7002 25.0693C14.7002 24.8393 14.7302 24.6193 14.8002 24.4193C14.8702 24.2193 14.9802 24.0293 15.1402 23.8593C15.3002 23.6893 15.4902 23.5593 15.7202 23.4593C15.9502 23.3693 16.2002 23.3193 16.4802 23.3193C17.0102 23.3193 17.4302 23.4593 17.7402 23.7493C18.0502 24.0393 18.2102 24.4293 18.2102 24.9193C18.2102 25.2693 18.1302 25.5793 17.9802 25.8593C17.8302 26.1393 17.6102 26.3493 17.3202 26.5093C17.0302 26.6593 16.7102 26.7393 16.3602 26.7393C16.1102 26.7393 15.8802 26.6993 15.6602 26.6093C15.4502 26.5293 15.2702 26.3993 15.1202 26.2293C14.9702 26.0593 14.8602 25.8693 14.8002 25.6493C14.7402 25.4293 14.7002 25.2293 14.7002 25.0493M15.1802 24.9093C15.1802 25.0993 15.2102 25.2993 15.2702 25.5193C15.3302 25.7393 15.4202 25.9193 15.5402 26.0793C15.6602 26.2393 15.8002 26.3493 15.9602 26.4293C16.1202 26.5093 16.3002 26.5393 16.5002 26.5393C16.7402 26.5393 16.9502 26.4893 17.1402 26.3793C17.3302 26.2693 17.4702 26.0993 17.5702 25.8693C17.6702 25.6393 17.7202 25.3793 17.7202 25.0893C17.7202 24.7793 17.6602 24.4993 17.5502 24.2393C17.4402 23.9893 17.2802 23.8093 17.0702 23.6893C16.8602 23.5793 16.6402 23.5193 16.3902 23.5193C16.0102 23.5193 15.7202 23.6393 15.5002 23.8693C15.2802 24.0993 15.1802 24.4493 15.1802 24.9093Z" fill="#323334"/>
<path d="M19.8508 26.6792L19.8308 26.6592V26.5392L19.8508 26.5192C19.9608 26.5192 20.0408 26.5192 20.1108 26.4992C20.1708 26.4892 20.2208 26.4692 20.2308 26.4492C20.2508 26.4292 20.2608 26.3892 20.2708 26.3292C20.2708 26.2792 20.2808 26.1492 20.2908 25.9592C20.2908 25.7692 20.2908 25.6292 20.2908 25.5492V23.4092C20.2908 23.3192 20.2708 23.2492 20.2408 23.2092C20.2108 23.1692 20.1608 23.1392 20.1108 23.1292C20.0508 23.1192 19.9608 23.1092 19.8208 23.1092L19.8008 23.0892V22.9692L19.8208 22.9492C20.0608 22.9492 20.2208 22.9592 20.3008 22.9592C20.4808 22.9592 20.6208 22.9592 20.7408 22.9492L21.5808 24.0492L22.8208 25.6092C22.9708 25.7992 23.1208 25.9792 23.2808 26.1492V24.0992C23.2808 24.0392 23.2808 23.8992 23.2808 23.6892C23.2808 23.4792 23.2708 23.3492 23.2608 23.2992C23.2608 23.2392 23.2408 23.2092 23.2108 23.1892C23.1908 23.1692 23.1508 23.1592 23.0908 23.1492C23.0308 23.1492 22.9508 23.1292 22.8408 23.1292L22.8208 23.1092V22.9892L22.8408 22.9692C22.9808 22.9692 23.1908 22.9792 23.4508 22.9792C23.6908 22.9792 23.8708 22.9792 23.9808 22.9692L24.0008 22.9892V23.1092L23.9808 23.1292C23.8608 23.1292 23.7708 23.1292 23.7108 23.1492C23.6508 23.1592 23.6108 23.1792 23.5908 23.2092C23.5708 23.2392 23.5608 23.2792 23.5608 23.3292C23.5608 23.3792 23.5508 23.4992 23.5408 23.6992C23.5408 23.8892 23.5408 24.0292 23.5408 24.1192V26.1092C23.5408 26.3492 23.5408 26.5892 23.5508 26.8292C23.4608 26.7992 23.3108 26.7592 23.0908 26.7192L22.9008 26.4992L22.3408 25.8092L20.5408 23.5692V25.5992C20.5408 25.6792 20.5408 25.8292 20.5408 26.0292C20.5408 26.2392 20.5508 26.3592 20.5608 26.4092C20.5608 26.4492 20.5808 26.4792 20.5908 26.4992C20.6008 26.5192 20.6308 26.5292 20.6808 26.5492C20.7308 26.5592 20.8208 26.5692 20.9708 26.5692L20.9908 26.5892V26.7092L20.9708 26.7292C20.8808 26.7192 20.7308 26.7092 20.5308 26.7092C20.2708 26.7092 20.0408 26.7092 19.8408 26.7292" fill="#323334"/>
<path d="M24.2905 26.6798L24.2705 26.6598V26.5398L24.2905 26.5198C24.4005 26.5198 24.4805 26.5198 24.5105 26.4998C24.5405 26.4898 24.5705 26.4698 24.6005 26.4398C24.6305 26.4098 24.6805 26.3098 24.7505 26.1398L24.9905 25.6098L25.6205 24.1798C25.7405 23.8998 25.8605 23.6198 25.9705 23.3398H26.1205L27.1105 25.6698L27.2405 25.9798C27.2805 26.0698 27.3205 26.1598 27.3705 26.2698C27.4205 26.3698 27.4505 26.4298 27.4705 26.4498C27.4905 26.4698 27.5105 26.4798 27.5405 26.4898C27.5705 26.4898 27.6305 26.5098 27.7305 26.5098L27.7505 26.5298V26.6498L27.7305 26.6698C27.5705 26.6598 27.4205 26.6498 27.2905 26.6498C27.0305 26.6498 26.7805 26.6598 26.5205 26.6698L26.5005 26.6498V26.5298L26.5205 26.5098C26.6905 26.5098 26.8005 26.4998 26.8405 26.4898C26.8805 26.4798 26.9005 26.4498 26.9005 26.4098C26.9005 26.3798 26.8905 26.3298 26.8705 26.2798L26.5905 25.5698H25.2505L25.0005 26.1598C24.9605 26.2698 24.9305 26.3398 24.9305 26.3898C24.9305 26.4298 24.9505 26.4598 24.9905 26.4798C25.0305 26.4998 25.1405 26.5098 25.3105 26.5098L25.3305 26.5298V26.6498L25.3105 26.6698C25.1105 26.6598 24.9405 26.6498 24.7905 26.6498C24.6205 26.6498 24.4505 26.6498 24.2805 26.6698M25.3405 25.3798H26.5105L25.9305 23.9798L25.3405 25.3798Z" fill="#323334"/>
<path d="M31.11 26.2693L31.0201 26.4893C30.6801 26.6593 30.31 26.7493 29.92 26.7493C29.36 26.7493 28.9101 26.5893 28.5601 26.2693C28.2101 25.9493 28.04 25.5393 28.04 25.0293C28.04 24.6793 28.13 24.3693 28.3 24.1093C28.47 23.8493 28.7001 23.6493 28.9901 23.5193C29.2701 23.3893 29.6001 23.3193 29.9501 23.3193C30.1601 23.3193 30.3601 23.3393 30.5601 23.3793C30.7601 23.4193 30.9301 23.4793 31.0601 23.5393L31.0801 23.5593C31.0401 23.6493 31.01 23.8593 30.98 24.1993L30.9601 24.2193H30.85L30.8301 24.1993L30.8101 23.8093C30.7001 23.7193 30.5601 23.6493 30.4001 23.5993C30.2401 23.5493 30.0701 23.5193 29.9001 23.5193C29.6401 23.5193 29.4001 23.5793 29.2001 23.6893C28.9901 23.7993 28.83 23.9593 28.72 24.1793C28.61 24.3893 28.55 24.6493 28.55 24.9593C28.55 25.2693 28.6201 25.5393 28.7501 25.7693C28.8801 25.9993 29.07 26.1793 29.3 26.3093C29.53 26.4393 29.8 26.4993 30.11 26.4993C30.25 26.4993 30.3801 26.4893 30.5101 26.4593C30.6401 26.4293 30.7401 26.3993 30.8301 26.3593C30.9101 26.3193 30.9901 26.2693 31.0701 26.2193L31.11 26.2693Z" fill="#323334"/>
<path d="M31.3804 23.3899H31.6703C31.8603 23.4099 31.9803 23.4099 32.0403 23.4099C32.0903 23.4099 32.3104 23.4099 32.7104 23.3899L32.7303 23.4099V23.5299L32.7104 23.5499C32.6004 23.5499 32.5204 23.5499 32.4604 23.5599C32.4004 23.5599 32.3604 23.5799 32.3304 23.5899C32.3004 23.6099 32.2904 23.6499 32.2804 23.7099C32.2804 23.7699 32.2704 23.8599 32.2704 23.9699V24.4999V25.5699V26.0199C32.2704 26.1899 32.2703 26.3099 32.2903 26.3599C32.2903 26.4099 32.3104 26.4499 32.3204 26.4599C32.3304 26.4799 32.3604 26.4899 32.4004 26.4999C32.4404 26.5099 32.5404 26.5199 32.7104 26.5299H32.7303V26.6599L32.7104 26.6799C32.7104 26.6799 32.5704 26.6799 32.3004 26.6699C32.1904 26.6699 32.1003 26.6699 32.0403 26.6699C31.9903 26.6699 31.7704 26.6699 31.3804 26.6899L31.3604 26.6699V26.5499H31.3804C31.5204 26.5299 31.6203 26.5199 31.6703 26.5099C31.7203 26.5099 31.7504 26.4899 31.7704 26.4699C31.7904 26.4599 31.8004 26.4199 31.8104 26.3799C31.8204 26.3299 31.8304 26.2299 31.8304 26.0599V25.5699V24.4999V24.0499C31.8304 23.8699 31.8204 23.7599 31.8104 23.7099C31.8104 23.6599 31.7904 23.6199 31.7804 23.6099C31.7704 23.5899 31.7404 23.5799 31.7004 23.5699C31.6604 23.5599 31.5604 23.5499 31.3904 23.5399L31.3704 23.5199V23.3999L31.3904 23.3799L31.3804 23.3899Z" fill="#323334"/>
<path d="M32.9502 25.0693C32.9502 24.8393 32.9802 24.6193 33.0502 24.4193C33.1202 24.2193 33.2302 24.0293 33.3902 23.8593C33.5502 23.6893 33.7402 23.5593 33.9702 23.4593C34.2002 23.3693 34.4502 23.3193 34.7302 23.3193C35.2602 23.3193 35.6802 23.4593 35.9902 23.7493C36.3002 24.0393 36.4602 24.4293 36.4602 24.9193C36.4602 25.2693 36.3802 25.5793 36.2302 25.8593C36.0802 26.1393 35.8602 26.3493 35.5702 26.5093C35.2802 26.6593 34.9602 26.7393 34.6102 26.7393C34.3602 26.7393 34.1302 26.6993 33.9102 26.6093C33.7002 26.5293 33.5202 26.3993 33.3702 26.2293C33.2202 26.0593 33.1102 25.8693 33.0502 25.6493C32.9802 25.4293 32.9502 25.2293 32.9502 25.0493M33.4302 24.9093C33.4302 25.0993 33.4602 25.2993 33.5202 25.5193C33.5802 25.7393 33.6702 25.9193 33.7902 26.0793C33.9102 26.2393 34.0502 26.3493 34.2102 26.4293C34.3702 26.5093 34.5502 26.5393 34.7502 26.5393C34.9902 26.5393 35.2002 26.4893 35.3902 26.3793C35.5802 26.2693 35.7202 26.0993 35.8202 25.8693C35.9202 25.6393 35.9702 25.3793 35.9702 25.0893C35.9702 24.7793 35.9102 24.4993 35.8002 24.2393C35.6902 23.9893 35.5302 23.8093 35.3202 23.6893C35.1102 23.5693 34.8902 23.5193 34.6402 23.5193C34.2602 23.5193 33.9702 23.6393 33.7502 23.8693C33.5302 24.0993 33.4302 24.4493 33.4302 24.9093Z" fill="#323334"/>
<path d="M36.7206 26.6799L36.7007 26.6599V26.5499L36.7206 26.5299C36.8106 26.5299 36.8907 26.5299 36.9507 26.5099C37.0107 26.4899 37.0407 26.4899 37.0607 26.4599C37.0807 26.4399 37.0907 26.3999 37.0907 26.3599C37.0907 26.3199 37.1007 26.1999 37.1107 26.0399C37.1107 25.8699 37.1107 25.7499 37.1107 25.6799V23.8099C37.1107 23.7299 37.1007 23.6699 37.0707 23.6399C37.0407 23.5999 37.0007 23.5799 36.9507 23.5699C36.9007 23.5699 36.8207 23.5499 36.7007 23.5499L36.6807 23.5299V23.4199L36.7007 23.3999C36.9107 23.3999 37.0507 23.4099 37.1207 23.4099C37.2807 23.4099 37.4007 23.4099 37.5007 23.3999L38.2407 24.3599L39.3307 25.7199C39.4607 25.8899 39.5907 26.0399 39.7307 26.1899V24.3999C39.7307 24.3399 39.7307 24.2299 39.7307 24.0399C39.7307 23.8599 39.7207 23.7399 39.7107 23.6899C39.7107 23.6399 39.6907 23.6099 39.6707 23.5899C39.6507 23.5699 39.6107 23.5599 39.5607 23.5499C39.5107 23.5499 39.4307 23.5399 39.3407 23.5299L39.3207 23.5099V23.3999L39.3407 23.3799C39.4707 23.3799 39.6407 23.3899 39.8807 23.3899C40.0907 23.3899 40.2507 23.3899 40.3407 23.3799L40.3607 23.3999V23.5099L40.3407 23.5299C40.2407 23.5299 40.1606 23.5299 40.1006 23.5499C40.0406 23.5599 40.0107 23.5799 40.0007 23.5999C39.9907 23.6199 39.9806 23.6599 39.9706 23.6999C39.9706 23.7399 39.9607 23.8499 39.9507 24.0199C39.9507 24.1899 39.9507 24.3099 39.9507 24.3799V26.1199C39.9507 26.3299 39.9507 26.5399 39.9607 26.7499C39.8807 26.7199 39.7507 26.6899 39.5607 26.6499L39.4007 26.4599L38.9106 25.8599L37.3407 23.8999V25.6799C37.3407 25.7499 37.3407 25.8799 37.3407 26.0599C37.3407 26.2399 37.3507 26.3499 37.3607 26.3899C37.3607 26.4299 37.3807 26.4599 37.3907 26.4699C37.4007 26.4799 37.4306 26.4999 37.4706 26.5099C37.5106 26.5199 37.6006 26.5299 37.7206 26.5299L37.7407 26.5499V26.6599L37.7206 26.6799C37.6406 26.6699 37.5107 26.6599 37.3307 26.6599C37.1007 26.6599 36.9007 26.6599 36.7307 26.6799" fill="#323334"/>
<path d="M40.6206 26.6798L40.6006 26.6598V26.5398L40.6206 26.5198C40.7306 26.5198 40.8106 26.5198 40.8406 26.4998C40.8706 26.4898 40.9006 26.4698 40.9306 26.4398C40.9606 26.4098 41.0106 26.3098 41.0806 26.1398L41.3206 25.6098L41.9506 24.1798C42.0706 23.8998 42.1906 23.6198 42.3006 23.3398H42.4506L43.4406 25.6698L43.5706 25.9798C43.6106 26.0698 43.6506 26.1598 43.7006 26.2698C43.7506 26.3698 43.7806 26.4298 43.8006 26.4498C43.8206 26.4698 43.8406 26.4798 43.8706 26.4898C43.9006 26.4898 43.9606 26.5098 44.0606 26.5098L44.0806 26.5298V26.6498L44.0606 26.6698C43.9006 26.6598 43.7506 26.6498 43.6206 26.6498C43.3606 26.6498 43.1106 26.6598 42.8506 26.6698L42.8306 26.6498V26.5298L42.8506 26.5098C43.0206 26.5098 43.1306 26.4998 43.1706 26.4898C43.2106 26.4798 43.2306 26.4498 43.2306 26.4098C43.2306 26.3798 43.2206 26.3298 43.2006 26.2798L42.9106 25.5698H41.5706L41.3206 26.1598C41.2806 26.2698 41.2506 26.3398 41.2506 26.3898C41.2506 26.4298 41.2706 26.4598 41.3106 26.4798C41.3506 26.4998 41.4606 26.5098 41.6306 26.5098L41.6506 26.5298V26.6498L41.6306 26.6698C41.4306 26.6598 41.2606 26.6498 41.1106 26.6498C40.9406 26.6498 40.7706 26.6498 40.6006 26.6698M41.6706 25.3798H42.8406L42.2606 23.9798L41.6706 25.3798Z" fill="#323334"/>
<path d="M44.29 23.4096L44.3101 23.3896C44.6901 23.3996 44.91 23.4096 44.97 23.4096C45.02 23.4096 45.2401 23.4096 45.6401 23.3896L45.66 23.4096V23.5296L45.6401 23.5496C45.5301 23.5496 45.4501 23.5497 45.3901 23.5597C45.3301 23.5597 45.2901 23.5796 45.2601 23.5896C45.2301 23.5996 45.2201 23.6496 45.2101 23.7096C45.2101 23.7696 45.2001 23.8597 45.2001 23.9697V24.4996V25.5196C45.2001 25.7796 45.2001 25.9596 45.2001 26.0596V26.4596H45.6801C46.0601 26.4596 46.2901 26.4596 46.3901 26.4496C46.4801 26.4496 46.57 26.4196 46.66 26.3796C46.68 26.3396 46.7 26.2496 46.73 26.1096C46.76 25.9696 46.7801 25.8897 46.7801 25.8697L46.8 25.8496H46.91L46.9301 25.8697C46.9201 25.9297 46.9001 26.0497 46.8901 26.2297C46.8801 26.4097 46.8701 26.5497 46.8701 26.6597L46.85 26.6796C46.56 26.6796 46.1701 26.6696 45.6901 26.6696H45.0101C44.8601 26.6696 44.7 26.6696 44.54 26.6796L44.5201 26.6597V26.5797L44.54 26.5596C44.64 26.5096 44.6901 26.4797 44.7001 26.4697C44.7001 26.4597 44.72 26.3596 44.73 26.1696C44.73 25.9796 44.7501 25.7496 44.7501 25.4896V24.0396C44.7501 23.8596 44.74 23.7496 44.73 23.6996C44.73 23.6496 44.7101 23.6096 44.7001 23.5996C44.6901 23.5796 44.6601 23.5697 44.6201 23.5597C44.5801 23.5497 44.4801 23.5396 44.3101 23.5296L44.29 23.5096V23.3896V23.4096Z" fill="#323334"/>
<path d="M48.3606 23.4096L48.3806 23.3896C48.6506 23.3996 48.8306 23.4096 48.9306 23.4096L50.0106 23.3896C50.3206 23.3896 50.5706 23.4196 50.7706 23.4796C50.9706 23.5396 51.1406 23.6396 51.3006 23.7796C51.4506 23.9196 51.5706 24.0896 51.6506 24.2796C51.7306 24.4696 51.7706 24.6696 51.7706 24.8896C51.7706 25.1096 51.7306 25.2997 51.6606 25.5097C51.5906 25.7097 51.4806 25.8996 51.3506 26.0596C51.2206 26.2196 51.0606 26.3496 50.8906 26.4496C50.7206 26.5496 50.5506 26.6097 50.3806 26.6497C50.2106 26.6797 50.0306 26.6996 49.8506 26.6996C49.7306 26.6996 49.5006 26.6997 49.1706 26.6897C49.0606 26.6897 48.9906 26.6897 48.9506 26.6897C48.8406 26.6897 48.7106 26.6896 48.5606 26.7096L48.5406 26.6897V26.6096L48.5606 26.5896C48.6506 26.5396 48.7006 26.5096 48.7206 26.4996C48.7306 26.4896 48.7406 26.3496 48.7506 26.0896C48.7506 25.8296 48.7606 25.6296 48.7606 25.4996V24.1197C48.7606 24.0097 48.7606 23.9096 48.7606 23.8396C48.7606 23.7696 48.7606 23.7196 48.7406 23.6896C48.7406 23.6596 48.7206 23.6397 48.7106 23.6297C48.7006 23.6197 48.6806 23.6096 48.6606 23.5996C48.6406 23.5996 48.6006 23.5797 48.5506 23.5797H48.3706L48.3506 23.5496V23.4296L48.3606 23.4096ZM49.2206 26.4296C49.3806 26.4596 49.5606 26.4797 49.7606 26.4797C50.1206 26.4797 50.4106 26.4197 50.6206 26.2997C50.8406 26.1797 51.0006 25.9997 51.1006 25.7597C51.2106 25.5197 51.2606 25.2596 51.2606 24.9596C51.2606 24.5196 51.1406 24.1796 50.9106 23.9396C50.6806 23.6996 50.3106 23.5797 49.8106 23.5797C49.6006 23.5797 49.4006 23.5997 49.2106 23.6297C49.2006 23.8797 49.1906 24.1696 49.1906 24.4896V25.8997C49.1906 26.0297 49.1906 26.2097 49.2106 26.4397" fill="#323334"/>
<path d="M52.1309 23.4096L52.1509 23.3896C52.6809 23.3896 53.0208 23.3997 53.1708 23.3997C53.6808 23.3997 54.1309 23.3996 54.5209 23.3896V23.4096C54.4909 23.5596 54.4609 23.7896 54.4509 24.1096V24.1296H54.3209L54.3008 24.1096C54.3008 24.1096 54.3008 24.0796 54.3008 24.0696C54.3008 23.9396 54.3009 23.8096 54.2709 23.6896C54.1709 23.6496 54.0408 23.6196 53.8708 23.6096C53.7008 23.5996 53.5708 23.5896 53.4808 23.5896C53.3608 23.5896 53.2009 23.5896 53.0109 23.6196V23.9897L52.9908 24.4097V24.8796C53.1508 24.8796 53.3009 24.8896 53.4409 24.8896C53.5809 24.8896 53.7008 24.8896 53.8008 24.8796C53.9008 24.8796 53.9508 24.8596 53.9708 24.8496C53.9908 24.8496 54.0009 24.8196 54.0109 24.7896C54.0109 24.7596 54.0309 24.7096 54.0309 24.6396V24.4996L54.0609 24.4797H54.1708L54.1909 24.4996C54.1909 24.6696 54.1908 24.8397 54.1808 25.0097V25.5296V25.5497H54.0709L54.0508 25.5296L54.0309 25.3896C54.0209 25.2796 54.0109 25.2196 54.0009 25.1996C54.0009 25.1796 53.9809 25.1597 53.9609 25.1497C53.9409 25.1297 53.8808 25.1196 53.7908 25.1096C53.7008 25.0996 53.5708 25.0996 53.4108 25.0996C53.3208 25.0996 53.1809 25.0996 53.0009 25.1096C53.0009 25.2396 52.9908 25.4597 52.9908 25.7597C52.9908 26.0797 52.9909 26.3197 53.0009 26.4797H53.4308C53.8108 26.4797 54.0409 26.4797 54.1309 26.4697C54.2209 26.4697 54.3109 26.4397 54.4009 26.3997C54.4109 26.3597 54.4408 26.2797 54.4708 26.1497C54.5008 26.0197 54.5209 25.9397 54.5209 25.9097L54.5408 25.8896H54.6509L54.6708 25.9097C54.6608 25.9797 54.6409 26.0897 54.6309 26.2597C54.6209 26.4297 54.6108 26.5696 54.6108 26.6796L54.5909 26.6996C54.2909 26.6996 53.9108 26.6897 53.4308 26.6897H52.8008C52.6508 26.6897 52.5009 26.6896 52.3409 26.6996L52.3209 26.6796V26.5996L52.3409 26.5797C52.4309 26.5297 52.4809 26.4996 52.5009 26.4896C52.5109 26.4796 52.5209 26.3397 52.5309 26.0797C52.5309 25.8197 52.5408 25.6196 52.5408 25.4896V24.1096C52.5408 23.9996 52.5408 23.8997 52.5408 23.8297C52.5408 23.7597 52.5409 23.7096 52.5209 23.6796C52.5209 23.6496 52.5008 23.6296 52.4908 23.6196C52.4808 23.6096 52.4609 23.5996 52.4409 23.5896C52.4209 23.5896 52.3809 23.5696 52.3309 23.5696H52.1509L52.1309 23.5396V23.4196V23.4096Z" fill="#323334"/>
<path d="M56.1703 26.6897L56.1504 26.6696V26.5296L56.1703 26.5097C56.3003 26.5097 56.3803 26.5096 56.4203 26.4896C56.4603 26.4796 56.4904 26.4596 56.5204 26.4196C56.5504 26.3896 56.6104 26.2697 56.7004 26.0797L56.9803 25.4797L57.7004 23.8496C57.8404 23.5296 57.9704 23.2096 58.1104 22.8896H58.2804L59.4103 25.5497L59.5604 25.8997C59.6004 25.9997 59.6504 26.1097 59.7104 26.2297C59.7704 26.3497 59.8104 26.4197 59.8304 26.4397C59.8504 26.4597 59.8803 26.4796 59.9103 26.4896C59.9403 26.4996 60.0204 26.5097 60.1304 26.5097L60.1504 26.5296V26.6696L60.1304 26.6897C59.9404 26.6697 59.7704 26.6696 59.6204 26.6696C59.3304 26.6696 59.0304 26.6897 58.7404 26.6897L58.7203 26.6696V26.5296L58.7404 26.5097C58.9404 26.5097 59.0604 26.4997 59.1104 26.4797C59.1604 26.4697 59.1804 26.4396 59.1804 26.3896C59.1804 26.3496 59.1704 26.2996 59.1404 26.2396L58.8104 25.4296H57.2804L56.9904 26.1096C56.9404 26.2296 56.9103 26.3196 56.9103 26.3796C56.9103 26.4196 56.9303 26.4597 56.9803 26.4797C57.0303 26.4997 57.1504 26.5097 57.3404 26.5097L57.3604 26.5296V26.6696L57.3404 26.6897C57.1104 26.6797 56.9104 26.6696 56.7404 26.6696C56.5504 26.6696 56.3504 26.6697 56.1504 26.6897M57.3804 25.1996H58.7203L58.0604 23.5996L57.3804 25.1996Z" fill="#323334"/>
<path d="M60.3701 23.4096L60.3901 23.3896C60.6701 23.3996 60.8901 23.4096 61.0501 23.4096C61.2201 23.4096 61.4601 23.4096 61.7601 23.3896C61.8701 23.3896 61.9501 23.3896 62.0001 23.3896C62.3901 23.3896 62.6601 23.4596 62.7901 23.5996C62.9201 23.7396 63.0001 23.9096 63.0001 24.1096C63.0001 24.2396 62.9701 24.3696 62.9001 24.4896C62.8301 24.6096 62.7301 24.7196 62.6001 24.8096C62.4701 24.8996 62.2801 24.9697 62.0501 25.0097C62.0901 25.0697 62.1702 25.1696 62.2802 25.3196L62.6101 25.7597C62.7201 25.8997 62.8301 26.0597 62.9501 26.2197C63.0701 26.3797 63.1501 26.4696 63.1901 26.4896C63.2301 26.5096 63.2602 26.5196 63.2802 26.5296C63.3102 26.5296 63.3501 26.5296 63.4001 26.5296L63.4201 26.5497V26.6597L63.4001 26.6796C63.3301 26.6796 63.2401 26.6696 63.1401 26.6696C63.0301 26.6696 62.9102 26.6696 62.7802 26.6796C62.6702 26.5496 62.5102 26.3297 62.2802 26.0097C62.0102 25.6397 61.7401 25.2997 61.4601 24.9797L61.4801 24.9097C61.5601 24.9097 61.6201 24.9097 61.6701 24.9097C61.9401 24.9097 62.1501 24.8497 62.3001 24.7197C62.4501 24.5897 62.5302 24.4097 62.5302 24.1897C62.5302 23.9897 62.4601 23.8296 62.3301 23.7296C62.1901 23.6296 62.0102 23.5696 61.7802 23.5696C61.6202 23.5696 61.4601 23.5896 61.3201 23.6396C61.3001 23.6696 61.2901 23.9597 61.2901 24.5097V26.0296C61.2901 26.1996 61.2901 26.3197 61.3101 26.3697C61.3101 26.4197 61.3301 26.4597 61.3401 26.4697C61.3501 26.4897 61.3801 26.4997 61.4201 26.5097C61.4601 26.5197 61.5601 26.5296 61.7301 26.5396H61.7501V26.6696L61.7301 26.6897C61.7301 26.6897 61.5901 26.6896 61.3201 26.6796C61.2101 26.6796 61.1201 26.6796 61.0601 26.6796C61.0101 26.6796 60.7901 26.6796 60.4001 26.6996L60.3801 26.6796V26.5596H60.4001C60.5401 26.5396 60.6401 26.5296 60.6901 26.5196C60.7401 26.5196 60.7701 26.4997 60.7901 26.4797C60.8101 26.4697 60.8201 26.4296 60.8301 26.3896C60.8301 26.3396 60.8501 26.2396 60.8501 26.0696V25.5797V24.5097V24.0596C60.8501 23.8796 60.8401 23.7697 60.8301 23.7197C60.8301 23.6697 60.8101 23.6296 60.8001 23.6196C60.7901 23.5996 60.7601 23.5897 60.7201 23.5797C60.6801 23.5697 60.5801 23.5596 60.4101 23.5496L60.3901 23.5296V23.4096H60.3701Z" fill="#323334"/>
<path d="M66.24 23.3901L66.26 23.4101C66.25 23.5501 66.24 23.7901 66.24 24.1401L66.22 24.1601H66.11L66.09 24.1401L66.06 23.9301C66.05 23.8201 66.04 23.7501 66.03 23.7201C66.03 23.6901 66.01 23.6801 66 23.6601C65.98 23.6501 65.93 23.6401 65.85 23.6301C65.76 23.6301 65.67 23.6201 65.56 23.6201H65.12C65.11 23.9701 65.1 24.1701 65.1 24.2201V26.0201C65.1 26.1901 65.11 26.3101 65.12 26.3601C65.12 26.4101 65.14 26.4501 65.15 26.4601C65.16 26.4801 65.19 26.4901 65.23 26.5001C65.27 26.5101 65.38 26.5201 65.54 26.5301H65.56V26.6601L65.54 26.6801C65.14 26.6701 64.92 26.6601 64.88 26.6601C64.83 26.6601 64.61 26.6601 64.22 26.6801L64.2 26.6601V26.5401H64.22C64.37 26.5201 64.46 26.5101 64.51 26.5001C64.56 26.5001 64.59 26.4801 64.6 26.4601C64.62 26.4501 64.63 26.4101 64.64 26.3701C64.65 26.3201 64.66 26.2201 64.66 26.0501V25.5601V24.2101C64.66 24.1901 64.66 23.9801 64.64 23.6101H64.29C64.15 23.6101 64.02 23.6101 63.92 23.6101C63.82 23.6101 63.76 23.6301 63.74 23.6601C63.72 23.6901 63.71 23.7701 63.69 23.9101L63.67 24.1201L63.65 24.1401H63.54L63.52 24.1201C63.52 23.7501 63.51 23.5001 63.5 23.3901L63.52 23.3701C63.79 23.3801 64.24 23.3901 64.86 23.3901C65.48 23.3901 65.95 23.3901 66.2 23.3701" fill="#323334"/>
<path d="M66.5205 23.4096L66.5405 23.3896C67.0705 23.3896 67.4105 23.3997 67.5605 23.3997C68.0705 23.3997 68.5205 23.3996 68.9105 23.3896V23.4096C68.8805 23.5596 68.8505 23.7896 68.8405 24.1096V24.1296H68.7105L68.6905 24.1096C68.6905 24.1096 68.6905 24.0796 68.6905 24.0696C68.6905 23.9396 68.6805 23.8096 68.6605 23.6896C68.5605 23.6496 68.4305 23.6196 68.2605 23.6096C68.0905 23.5996 67.9605 23.5896 67.8705 23.5896C67.7505 23.5896 67.5905 23.5896 67.4005 23.6196V23.9897L67.3805 24.4097V24.8796C67.5405 24.8796 67.6905 24.8896 67.8305 24.8896C67.9705 24.8896 68.0905 24.8896 68.1905 24.8796C68.2905 24.8796 68.3405 24.8596 68.3605 24.8496C68.3805 24.8496 68.3905 24.8196 68.4005 24.7896C68.4005 24.7596 68.4205 24.7096 68.4205 24.6396V24.4996L68.4505 24.4797H68.5605L68.5805 24.4996C68.5805 24.6696 68.5805 24.8397 68.5705 25.0097V25.5296V25.5497H68.4605L68.4405 25.5296L68.4205 25.3896C68.4105 25.2796 68.4005 25.2196 68.3905 25.1996C68.3905 25.1796 68.3705 25.1597 68.3505 25.1497C68.3305 25.1397 68.2705 25.1196 68.1805 25.1096C68.0905 25.1096 67.9605 25.0996 67.8005 25.0996C67.7105 25.0996 67.5705 25.0996 67.3905 25.1096C67.3905 25.2396 67.3805 25.4597 67.3805 25.7597C67.3805 26.0797 67.3805 26.3197 67.3905 26.4797H67.8205C68.2005 26.4797 68.4305 26.4797 68.5205 26.4697C68.6105 26.4697 68.7005 26.4397 68.7905 26.3997C68.8005 26.3597 68.8305 26.2797 68.8605 26.1497C68.8905 26.0197 68.9105 25.9397 68.9105 25.9097L68.9305 25.8896H69.0405L69.0605 25.9097C69.0505 25.9797 69.0305 26.0897 69.0205 26.2597C69.0105 26.4297 69.0005 26.5696 69.0005 26.6796L68.9805 26.6996C68.6805 26.6996 68.3005 26.6897 67.8205 26.6897H67.1905C67.0405 26.6897 66.8905 26.6896 66.7305 26.6996L66.7105 26.6796V26.5996L66.7305 26.5797C66.8205 26.5297 66.8705 26.4996 66.8905 26.4896C66.9005 26.4796 66.9105 26.3397 66.9205 26.0797C66.9205 25.8197 66.9305 25.6196 66.9305 25.4896V24.1096C66.9305 23.9996 66.9305 23.8997 66.9305 23.8297C66.9305 23.7597 66.9305 23.7096 66.9105 23.6796C66.9105 23.6496 66.8905 23.6296 66.8805 23.6196C66.8705 23.6096 66.8505 23.5996 66.8305 23.5896C66.8105 23.5796 66.7705 23.5696 66.7205 23.5696H66.5405L66.5205 23.5396V23.4196V23.4096Z" fill="#323334"/>
<path d="M5.27051 3.93945V5.49945H6.27051V3.93945H5.27051ZM6.1105 5.35946H5.42053V4.09945H6.1105V5.35946Z" fill="#323334"/>
<path d="M6.4707 3.9502V5.51019H10.2207V3.9502H6.4707ZM10.0707 5.35019H6.63071V4.10019H10.0707V5.35019Z" fill="#323334"/>
<path d="M8.33054 4.20996C8.04054 4.20996 7.81055 4.43996 7.81055 4.72996C7.81055 5.01996 8.04054 5.24996 8.33054 5.24996C8.62054 5.24996 8.85056 5.01996 8.85056 4.72996C8.85056 4.43996 8.62054 4.20996 8.33054 4.20996ZM8.34055 5.05996C8.16055 5.05996 8.02054 4.91996 8.02054 4.73996C8.02054 4.55996 8.16055 4.41996 8.34055 4.41996C8.52055 4.41996 8.66055 4.55996 8.66055 4.73996C8.66055 4.91996 8.52055 5.05996 8.34055 5.05996Z" fill="#323334"/>
<path d="M10.4307 3.93945V5.49945H11.4307V3.93945H10.4307ZM11.2707 5.35946H10.5807V4.09945H11.2707V5.35946Z" fill="#323334"/>
<path d="M12.2201 5.0802C12.2201 5.0802 12.4401 5.00019 12.4301 4.80019C12.4301 4.80019 12.4301 4.61019 12.2301 4.53019L12.1801 4.19019H12.3801V3.9502H12.2201V4.0402H12.0101H11.8001V3.96019H11.6401V4.19019H11.8402L11.7901 4.5402C11.7901 4.5402 11.5702 4.64019 11.5902 4.82019C11.5902 4.82019 11.5901 4.9802 11.8001 5.0802L11.8201 5.18019H11.6401V5.42019H11.8001V5.3302H12.0201H12.2401V5.42019H12.4002V5.18019H12.2201L12.2401 5.0802H12.2201ZM12.0101 5.32019L11.9301 4.96019C11.7401 4.91019 11.7501 4.8102 11.7501 4.8102C11.7501 4.6902 11.9401 4.6502 11.9401 4.6502L12.0201 4.10019L12.0902 4.64019C12.2902 4.69019 12.2802 4.8102 12.2802 4.8102C12.2802 4.9102 12.0902 4.96019 12.0902 4.96019L12.0201 5.3102L12.0101 5.32019Z" fill="#323334"/>
<path d="M28.2607 3.83984V5.22984H29.1407V3.83984H28.2607ZM28.9907 5.07985H28.4207V3.99984H28.9907V5.07985Z" fill="#323334"/>
<path d="M32.3506 3.83008V5.22008H33.2306V3.83008H32.3506ZM33.0806 5.07008H32.5106V3.99008H33.0806V5.07008Z" fill="#323334"/>
<path d="M36.6602 3.83008V5.23008H37.5302V3.83008H36.6602ZM37.3802 5.08008H36.8102V3.99008H37.3802V5.08008Z" fill="#323334"/>
<path d="M40.7402 3.83984V5.22984H41.6202V3.83984H40.7402ZM41.4702 5.07985H40.9003V3.99984H41.4702V5.07985Z" fill="#323334"/>
<path d="M29.5605 3.66992V5.48993H31.9305V3.67992H29.5605V3.66992ZM31.7806 5.32993H29.7205V3.83992H31.7806V5.32993Z" fill="#323334"/>
<path d="M30.7504 4C30.4204 4 30.1504 4.27 30.1504 4.6C30.1504 4.93 30.4204 5.2 30.7504 5.2C31.0804 5.2 31.3503 4.93 31.3503 4.6C31.3503 4.27 31.0804 4 30.7504 4ZM30.7504 5.05C30.5004 5.05 30.3004 4.85 30.3004 4.6C30.3004 4.35 30.5004 4.15 30.7504 4.15C31.0004 4.15 31.2004 4.35 31.2004 4.6C31.2004 4.85 31.0004 5.05 30.7504 5.05Z" fill="#323334"/>
<path d="M33.6504 3.67969V5.49969H36.2404V3.68969H33.6504V3.67969ZM36.0804 5.32969H33.8104V3.82969H36.0804V5.32969Z" fill="#323334"/>
<path d="M34.9506 4C34.6206 4 34.3506 4.27 34.3506 4.6C34.3506 4.93 34.6206 5.2 34.9506 5.2C35.2806 5.2 35.5506 4.93 35.5506 4.6C35.5506 4.27 35.2806 4 34.9506 4ZM34.9506 5.05C34.7006 5.05 34.5006 4.85 34.5006 4.6C34.5006 4.35 34.7006 4.15 34.9506 4.15C35.2006 4.15 35.4006 4.35 35.4006 4.6C35.4006 4.85 35.2006 5.05 34.9506 5.05Z" fill="#323334"/>
<path d="M37.9502 3.67969V5.49969H40.3302V3.68969H37.9502V3.67969ZM40.1702 5.32969H38.1002V3.83969H40.1702V5.32969Z" fill="#323334"/>
<path d="M39.1508 4C38.8208 4 38.5508 4.27 38.5508 4.6C38.5508 4.93 38.8208 5.2 39.1508 5.2C39.4808 5.2 39.7508 4.93 39.7508 4.6C39.7508 4.27 39.4808 4 39.1508 4ZM39.1508 5.05C38.9008 5.05 38.7008 4.85 38.7008 4.6C38.7008 4.35 38.9008 4.15 39.1508 4.15C39.4008 4.15 39.6008 4.35 39.6008 4.6C39.6008 4.85 39.4008 5.05 39.1508 5.05Z" fill="#323334"/>
<path d="M13.2309 5.0802C13.2309 5.0802 13.4509 5.00019 13.4409 4.80019C13.4409 4.80019 13.4409 4.61019 13.2409 4.53019L13.1909 4.19019H13.3909V3.9502H13.2309V4.0402H13.0209H12.8109V3.96019H12.6509V4.19019H12.8509L12.8009 4.5402C12.8009 4.5402 12.5809 4.64019 12.6009 4.82019C12.6009 4.82019 12.6009 4.9802 12.8109 5.0802L12.8309 5.18019H12.6509V5.42019H12.8109V5.3302H13.0309H13.2509V5.42019H13.4109V5.18019H13.2309L13.2509 5.0802H13.2309ZM13.0209 5.32019L12.9409 4.96019C12.7509 4.91019 12.7609 4.8102 12.7609 4.8102C12.7609 4.6902 12.9509 4.6502 12.9509 4.6502L13.0309 4.10019L13.1009 4.64019C13.3009 4.69019 13.2909 4.8102 13.2909 4.8102C13.2909 4.9102 13.1009 4.96019 13.1009 4.96019L13.0309 5.3102L13.0209 5.32019Z" fill="#323334"/>
<path d="M14.2309 5.0802C14.2309 5.0802 14.4509 5.00019 14.4409 4.80019C14.4409 4.80019 14.4409 4.61019 14.2409 4.53019L14.1909 4.19019H14.3909V3.9502H14.2309V4.0402H14.0209H13.8109V3.96019H13.6509V4.19019H13.8509L13.8009 4.5402C13.8009 4.5402 13.5809 4.64019 13.6009 4.82019C13.6009 4.82019 13.6009 4.9802 13.8109 5.0802L13.8309 5.18019H13.6509V5.42019H13.8109V5.3302H14.0309H14.2509V5.42019H14.4109V5.18019H14.2309L14.2509 5.0802H14.2309ZM14.0309 5.32019L13.9509 4.96019C13.7609 4.91019 13.7709 4.8102 13.7709 4.8102C13.7709 4.6902 13.9609 4.6502 13.9609 4.6502L14.0409 4.10019L14.1109 4.64019C14.3109 4.69019 14.3009 4.8102 14.3009 4.8102C14.3009 4.9102 14.1109 4.96019 14.1109 4.96019L14.0409 5.3102L14.0309 5.32019Z" fill="#323334"/>
<path d="M15.2407 5.0802C15.2407 5.0802 15.4607 5.00019 15.4507 4.80019C15.4507 4.80019 15.4507 4.61019 15.2507 4.53019L15.2007 4.19019H15.4007V3.9502H15.2407V4.0402H15.0307H14.8207V3.96019H14.6606V4.19019H14.8607L14.8107 4.5402C14.8107 4.5402 14.5907 4.64019 14.6107 4.82019C14.6107 4.82019 14.6107 4.9802 14.8207 5.0802L14.8407 5.18019H14.6606V5.42019H14.8207V5.3302H15.0407H15.2607V5.42019H15.4207V5.18019H15.2407L15.2607 5.0802H15.2407ZM15.0407 5.32019L14.9607 4.96019C14.7707 4.91019 14.7807 4.8102 14.7807 4.8102C14.7807 4.6902 14.9706 4.6502 14.9706 4.6502L15.0507 4.10019L15.1207 4.64019C15.3207 4.69019 15.3107 4.8102 15.3107 4.8102C15.3107 4.9102 15.1207 4.96019 15.1207 4.96019L15.0507 5.3102L15.0407 5.32019Z" fill="#323334"/>
<path d="M16.2504 5.0802C16.2504 5.0802 16.4705 5.00019 16.4605 4.80019C16.4605 4.80019 16.4604 4.61019 16.2604 4.53019L16.2105 4.19019H16.4104V3.9502H16.2504V4.0402H16.0404H15.8304V3.96019H15.6704V4.19019H15.8704L15.8204 4.5402C15.8204 4.5402 15.6004 4.64019 15.6204 4.82019C15.6204 4.82019 15.6204 4.9802 15.8304 5.0802L15.8504 5.18019H15.6704V5.42019H15.8304V5.3302H16.0504H16.2705V5.42019H16.4304V5.18019H16.2504L16.2705 5.0802H16.2504ZM16.0504 5.32019L15.9704 4.96019C15.7804 4.91019 15.7904 4.8102 15.7904 4.8102C15.7904 4.6902 15.9804 4.6502 15.9804 4.6502L16.0604 4.10019L16.1304 4.64019C16.3304 4.69019 16.3204 4.8102 16.3204 4.8102C16.3204 4.9102 16.1304 4.96019 16.1304 4.96019L16.0604 5.3102L16.0504 5.32019Z" fill="#323334"/>
<path d="M17.2602 5.0802C17.2602 5.0802 17.4702 5.00019 17.4702 4.80019C17.4702 4.80019 17.4702 4.61019 17.2702 4.53019L17.2202 4.19019H17.4202V3.9502H17.2602V4.0402H17.0502H16.8402V3.96019H16.6802V4.19019H16.8802L16.8302 4.5402C16.8302 4.5402 16.6102 4.64019 16.6302 4.82019C16.6302 4.82019 16.6302 4.9802 16.8402 5.0802L16.8602 5.18019H16.6802V5.42019H16.8402V5.3302H17.0602H17.2802V5.42019H17.4402V5.18019H17.2602L17.2802 5.0802H17.2602ZM17.0602 5.32019L16.9802 4.96019C16.7902 4.91019 16.8002 4.8102 16.8002 4.8102C16.8002 4.6902 16.9902 4.6502 16.9902 4.6502L17.0702 4.10019L17.1402 4.64019C17.3402 4.69019 17.3302 4.8102 17.3302 4.8102C17.3302 4.9102 17.1402 4.96019 17.1402 4.96019L17.0702 5.3102L17.0602 5.32019Z" fill="#323334"/>
<path d="M18.2709 5.0802C18.2709 5.0802 18.4909 5.00019 18.4809 4.80019C18.4809 4.80019 18.4809 4.61019 18.2809 4.53019L18.2309 4.19019H18.4309V3.9502H18.2709V4.0402H18.0609H17.8509V3.96019H17.6909V4.19019H17.8909L17.8409 4.5402C17.8409 4.5402 17.6209 4.64019 17.6409 4.82019C17.6409 4.82019 17.6409 4.9802 17.8509 5.0802L17.8709 5.18019H17.6909V5.42019H17.8509V5.3302H18.0709H18.2909V5.42019H18.4509V5.18019H18.2709L18.2909 5.0802H18.2709ZM18.0609 5.32019L17.9809 4.96019C17.7909 4.91019 17.8009 4.8102 17.8009 4.8102C17.8009 4.6902 17.9909 4.6502 17.9909 4.6502L18.0709 4.10019L18.1409 4.64019C18.3409 4.69019 18.3309 4.8102 18.3309 4.8102C18.3309 4.9102 18.1409 4.96019 18.1409 4.96019L18.0709 5.3102L18.0609 5.32019Z" fill="#323334"/>
<path d="M19.2807 5.0802C19.2807 5.0802 19.5007 5.00019 19.4907 4.80019C19.4907 4.80019 19.4907 4.61019 19.2907 4.53019L19.2407 4.19019H19.4407V3.9502H19.2807V4.0402H19.0707H18.8607V3.96019H18.7007V4.19019H18.9007L18.8507 4.5402C18.8507 4.5402 18.6307 4.64019 18.6507 4.82019C18.6507 4.82019 18.6507 4.9802 18.8607 5.0802L18.8807 5.18019H18.7007V5.42019H18.8607V5.3302H19.0807H19.3007V5.42019H19.4607V5.18019H19.2807L19.3007 5.0802H19.2807ZM19.0707 5.32019L18.9907 4.96019C18.8007 4.91019 18.8107 4.8102 18.8107 4.8102C18.8107 4.6902 19.0007 4.6502 19.0007 4.6502L19.0807 4.10019L19.1507 4.64019C19.3507 4.69019 19.3407 4.8102 19.3407 4.8102C19.3407 4.9102 19.1507 4.96019 19.1507 4.96019L19.0807 5.3102L19.0707 5.32019Z" fill="#323334"/>
<path d="M20.2905 5.0802C20.2905 5.0802 20.5105 5.00019 20.5005 4.80019C20.5005 4.80019 20.5005 4.61019 20.3005 4.53019L20.2505 4.19019H20.4505V3.9502H20.2905V4.0402H20.0805H19.8705V3.96019H19.7105V4.19019H19.9105L19.8605 4.5402C19.8605 4.5402 19.6405 4.64019 19.6605 4.82019C19.6605 4.82019 19.6605 4.9802 19.8705 5.0802L19.8905 5.18019H19.7105V5.42019H19.8705V5.3302H20.0905H20.3105V5.42019H20.4705V5.18019H20.2905L20.3105 5.0802H20.2905ZM20.0805 5.32019L20.0005 4.96019C19.8105 4.91019 19.8205 4.8102 19.8205 4.8102C19.8205 4.6902 20.0105 4.6502 20.0105 4.6502L20.0905 4.10019L20.1605 4.64019C20.3605 4.69019 20.3505 4.8102 20.3505 4.8102C20.3505 4.9102 20.1605 4.96019 20.1605 4.96019L20.0905 5.3102L20.0805 5.32019Z" fill="#323334"/>
<path d="M21.3002 5.0802C21.3002 5.0802 21.5103 5.00019 21.5103 4.80019C21.5103 4.80019 21.5102 4.61019 21.3102 4.53019L21.2603 4.19019H21.4603V3.9502H21.3002V4.0402H21.0903H20.8803V3.96019H20.7202V4.19019H20.9202L20.8702 4.5402C20.8702 4.5402 20.6502 4.64019 20.6702 4.82019C20.6702 4.82019 20.6703 4.9802 20.8803 5.0802L20.9003 5.18019H20.7202V5.42019H20.8803V5.3302H21.1002H21.3203V5.42019H21.4802V5.18019H21.3002L21.3203 5.0802H21.3002ZM21.0903 5.32019L21.0103 4.96019C20.8203 4.91019 20.8303 4.8102 20.8303 4.8102C20.8303 4.6902 21.0203 4.6502 21.0203 4.6502L21.1002 4.10019L21.1702 4.64019C21.3702 4.69019 21.3602 4.8102 21.3602 4.8102C21.3602 4.9102 21.1702 4.96019 21.1702 4.96019L21.1002 5.3102L21.0903 5.32019Z" fill="#323334"/>
<path d="M21.6602 3.93945V5.49945H22.6602V3.93945H21.6602ZM22.5002 5.35946H21.8102V4.09945H22.5002V5.35946Z" fill="#323334"/>
<path d="M22.8506 3.9502V5.51019H26.6006V3.9502H22.8506ZM26.4506 5.35019H23.0106V4.10019H26.4506V5.35019Z" fill="#323334"/>
<path d="M24.7202 4.20996C24.4302 4.20996 24.2002 4.43996 24.2002 4.72996C24.2002 5.01996 24.4302 5.24996 24.7202 5.24996C25.0102 5.24996 25.2402 5.01996 25.2402 4.72996C25.2402 4.43996 25.0102 4.20996 24.7202 4.20996ZM24.7202 5.05996C24.5402 5.05996 24.4002 4.91996 24.4002 4.73996C24.4002 4.55996 24.5402 4.41996 24.7202 4.41996C24.9002 4.41996 25.0402 4.55996 25.0402 4.73996C25.0402 4.91996 24.9002 5.05996 24.7202 5.05996Z" fill="#323334"/>
<path d="M26.8008 3.93945V5.49945H27.8008V3.93945H26.8008ZM27.6508 5.35946H26.9608V4.09945H27.6508V5.35946Z" fill="#323334"/>
<path d="M42.0508 3.93945V5.49945H43.0508V3.93945H42.0508ZM42.9008 5.35946H42.2108V4.09945H42.9008V5.35946Z" fill="#323334"/>
<path d="M43.251 3.9502V5.51019H47.001V3.9502H43.251ZM46.851 5.35019H43.4109V4.10019H46.851V5.35019Z" fill="#323334"/>
<path d="M45.1108 4.20996C44.8208 4.20996 44.5908 4.43996 44.5908 4.72996C44.5908 5.01996 44.8208 5.24996 45.1108 5.24996C45.4008 5.24996 45.6308 5.01996 45.6308 4.72996C45.6308 4.43996 45.4008 4.20996 45.1108 4.20996ZM45.1208 5.05996C44.9408 5.05996 44.8008 4.91996 44.8008 4.73996C44.8008 4.55996 44.9408 4.41996 45.1208 4.41996C45.3008 4.41996 45.4408 4.55996 45.4408 4.73996C45.4408 4.91996 45.3008 5.05996 45.1208 5.05996Z" fill="#323334"/>
<path d="M47.2109 3.93945V5.49945H48.2109V3.93945H47.2109ZM48.0509 5.35946H47.3609V4.09945H48.0509V5.35946Z" fill="#323334"/>
<path d="M49.0004 5.0802C49.0004 5.0802 49.2205 5.00019 49.2105 4.80019C49.2105 4.80019 49.2104 4.61019 49.0104 4.53019L48.9605 4.19019H49.1604V3.9502H49.0004V4.0402H48.7904H48.5804V3.96019H48.4204V4.19019H48.6204L48.5704 4.5402C48.5704 4.5402 48.3504 4.64019 48.3704 4.82019C48.3704 4.82019 48.3704 4.9802 48.5804 5.0802L48.6004 5.18019H48.4204V5.42019H48.5804V5.3302H48.8004H49.0205V5.42019H49.1804V5.18019H49.0004L49.0205 5.0802H49.0004ZM48.7904 5.32019L48.7105 4.96019C48.5205 4.91019 48.5305 4.8102 48.5305 4.8102C48.5305 4.6902 48.7204 4.6502 48.7204 4.6502L48.8004 4.10019L48.8704 4.64019C49.0704 4.69019 49.0604 4.8102 49.0604 4.8102C49.0604 4.9102 48.8704 4.96019 48.8704 4.96019L48.8004 5.3102L48.7904 5.32019Z" fill="#323334"/>
<path d="M50.0102 5.0802C50.0102 5.0802 50.2302 5.00019 50.2202 4.80019C50.2202 4.80019 50.2202 4.61019 50.0202 4.53019L49.9702 4.19019H50.1702V3.9502H50.0102V4.0402H49.8002H49.5902V3.96019H49.4302V4.19019H49.6302L49.5802 4.5402C49.5802 4.5402 49.3602 4.64019 49.3802 4.82019C49.3802 4.82019 49.3802 4.9802 49.5902 5.0802L49.6102 5.18019H49.4302V5.42019H49.5902V5.3302H49.8102H50.0302V5.42019H50.1902V5.18019H50.0102L50.0302 5.0802H50.0102ZM49.8002 5.32019L49.7202 4.96019C49.5302 4.91019 49.5402 4.8102 49.5402 4.8102C49.5402 4.6902 49.7302 4.6502 49.7302 4.6502L49.8102 4.10019L49.8802 4.64019C50.0802 4.69019 50.0702 4.8102 50.0702 4.8102C50.0702 4.9102 49.8802 4.96019 49.8802 4.96019L49.8102 5.3102L49.8002 5.32019Z" fill="#323334"/>
<path d="M51.0209 5.0802C51.0209 5.0802 51.2409 5.00019 51.2309 4.80019C51.2309 4.80019 51.2309 4.61019 51.0309 4.53019L50.9809 4.19019H51.1809V3.9502H51.0209V4.0402H50.8109H50.6009V3.96019H50.4409V4.19019H50.6409L50.5909 4.5402C50.5909 4.5402 50.3709 4.64019 50.3909 4.82019C50.3909 4.82019 50.3909 4.9802 50.6009 5.0802L50.6209 5.18019H50.4409V5.42019H50.6009V5.3302H50.8209H51.0409V5.42019H51.2009V5.18019H51.0209L51.0409 5.0802H51.0209ZM50.8109 5.32019L50.7309 4.96019C50.5409 4.91019 50.5509 4.8102 50.5509 4.8102C50.5509 4.6902 50.7409 4.6502 50.7409 4.6502L50.8209 4.10019L50.8909 4.64019C51.0909 4.69019 51.0809 4.8102 51.0809 4.8102C51.0809 4.9102 50.8909 4.96019 50.8909 4.96019L50.8209 5.3102L50.8109 5.32019Z" fill="#323334"/>
<path d="M52.0307 5.0802C52.0307 5.0802 52.2507 5.00019 52.2407 4.80019C52.2407 4.80019 52.2407 4.61019 52.0407 4.53019L51.9907 4.19019H52.1907V3.9502H52.0307V4.0402H51.8207H51.6107V3.96019H51.4507V4.19019H51.6507L51.6007 4.5402C51.6007 4.5402 51.3807 4.64019 51.4007 4.82019C51.4007 4.82019 51.4007 4.9802 51.6107 5.0802L51.6307 5.18019H51.4507V5.42019H51.6107V5.3302H51.8307H52.0507V5.42019H52.2107V5.18019H52.0307L52.0507 5.0802H52.0307ZM51.8207 5.32019L51.7407 4.96019C51.5507 4.91019 51.5607 4.8102 51.5607 4.8102C51.5607 4.6902 51.7507 4.6502 51.7507 4.6502L51.8307 4.10019L51.9007 4.64019C52.1007 4.69019 52.0907 4.8102 52.0907 4.8102C52.0907 4.9102 51.9007 4.96019 51.9007 4.96019L51.8307 5.3102L51.8207 5.32019Z" fill="#323334"/>
<path d="M53.0307 5.0802C53.0307 5.0802 53.2507 5.00019 53.2407 4.80019C53.2407 4.80019 53.2407 4.61019 53.0407 4.53019L52.9907 4.19019H53.1907V3.9502H53.0307V4.0402H52.8207H52.6107V3.96019H52.4507V4.19019H52.6507L52.6007 4.5402C52.6007 4.5402 52.3807 4.64019 52.4007 4.82019C52.4007 4.82019 52.4007 4.9802 52.6107 5.0802L52.6307 5.18019H52.4507V5.42019H52.6107V5.3302H52.8307H53.0507V5.42019H53.2107V5.18019H53.0307L53.0507 5.0802H53.0307ZM52.8307 5.32019L52.7507 4.96019C52.5607 4.91019 52.5707 4.8102 52.5707 4.8102C52.5707 4.6902 52.7607 4.6502 52.7607 4.6502L52.8407 4.10019L52.9106 4.64019C53.1106 4.69019 53.1007 4.8102 53.1007 4.8102C53.1007 4.9102 52.9106 4.96019 52.9106 4.96019L52.8407 5.3102L52.8307 5.32019Z" fill="#323334"/>
<path d="M54.0405 5.0802C54.0405 5.0802 54.2505 5.00019 54.2505 4.80019C54.2505 4.80019 54.2505 4.61019 54.0505 4.53019L54.0005 4.19019H54.2005V3.9502H54.0405V4.0402H53.8305H53.6205V3.96019H53.4605V4.19019H53.6605L53.6105 4.5402C53.6105 4.5402 53.3905 4.64019 53.4105 4.82019C53.4105 4.82019 53.4105 4.9802 53.6205 5.0802L53.6405 5.18019H53.4605V5.42019H53.6205V5.3302H53.8405H54.0605V5.42019H54.2205V5.18019H54.0405L54.0605 5.0802H54.0405ZM53.8405 5.32019L53.7605 4.96019C53.5705 4.91019 53.5805 4.8102 53.5805 4.8102C53.5805 4.6902 53.7705 4.6502 53.7705 4.6502L53.8505 4.10019L53.9205 4.64019C54.1205 4.69019 54.1105 4.8102 54.1105 4.8102C54.1105 4.9102 53.9205 4.96019 53.9205 4.96019L53.8505 5.3102L53.8405 5.32019Z" fill="#323334"/>
<path d="M55.0502 5.0802C55.0502 5.0802 55.2703 5.00019 55.2603 4.80019C55.2603 4.80019 55.2602 4.61019 55.0602 4.53019L55.0103 4.19019H55.2103V3.9502H55.0502V4.0402H54.8403H54.6303V3.96019H54.4702V4.19019H54.6702L54.6202 4.5402C54.6202 4.5402 54.4002 4.64019 54.4202 4.82019C54.4202 4.82019 54.4203 4.9802 54.6303 5.0802L54.6503 5.18019H54.4702V5.42019H54.6303V5.3302H54.8502H55.0703V5.42019H55.2302V5.18019H55.0502L55.0703 5.0802H55.0502ZM54.8403 5.32019L54.7603 4.96019C54.5703 4.91019 54.5803 4.8102 54.5803 4.8102C54.5803 4.6902 54.7703 4.6502 54.7703 4.6502L54.8502 4.10019L54.9202 4.64019C55.1202 4.69019 55.1102 4.8102 55.1102 4.8102C55.1102 4.9102 54.9202 4.96019 54.9202 4.96019L54.8502 5.3102L54.8403 5.32019Z" fill="#323334"/>
<path d="M56.061 5.0802C56.061 5.0802 56.281 5.00019 56.271 4.80019C56.271 4.80019 56.271 4.61019 56.071 4.53019L56.021 4.19019H56.221V3.9502H56.061V4.0402H55.851H55.641V3.96019H55.481V4.19019H55.681L55.631 4.5402C55.631 4.5402 55.411 4.64019 55.431 4.82019C55.431 4.82019 55.431 4.9802 55.641 5.0802L55.661 5.18019H55.481V5.42019H55.641V5.3302H55.861H56.081V5.42019H56.241V5.18019H56.061L56.081 5.0802H56.061ZM55.851 5.32019L55.771 4.96019C55.581 4.91019 55.591 4.8102 55.591 4.8102C55.591 4.6902 55.781 4.6502 55.781 4.6502L55.861 4.10019L55.931 4.64019C56.131 4.69019 56.121 4.8102 56.121 4.8102C56.121 4.9102 55.931 4.96019 55.931 4.96019L55.861 5.3102L55.851 5.32019Z" fill="#323334"/>
<path d="M57.0707 5.0802C57.0707 5.0802 57.2908 5.00019 57.2808 4.80019C57.2808 4.80019 57.2808 4.61019 57.0808 4.53019L57.0308 4.19019H57.2307V3.9502H57.0707V4.0402H56.8607H56.6508V3.96019H56.4907V4.19019H56.6907L56.6408 4.5402C56.6408 4.5402 56.4207 4.64019 56.4407 4.82019C56.4407 4.82019 56.4408 4.9802 56.6508 5.0802L56.6707 5.18019H56.4907V5.42019H56.6508V5.3302H56.8707H57.0908V5.42019H57.2507V5.18019H57.0707L57.0908 5.0802H57.0707ZM56.8607 5.32019L56.7808 4.96019C56.5908 4.91019 56.6007 4.8102 56.6007 4.8102C56.6007 4.6902 56.7907 4.6502 56.7907 4.6502L56.8707 4.10019L56.9407 4.64019C57.1407 4.69019 57.1307 4.8102 57.1307 4.8102C57.1307 4.9102 56.9407 4.96019 56.9407 4.96019L56.8707 5.3102L56.8607 5.32019Z" fill="#323334"/>
<path d="M58.0805 5.0802C58.0805 5.0802 58.3005 5.00019 58.2905 4.80019C58.2905 4.80019 58.2905 4.61019 58.0905 4.53019L58.0405 4.19019H58.2405V3.9502H58.0805V4.0402H57.8705H57.6605V3.96019H57.5005V4.19019H57.7005L57.6505 4.5402C57.6505 4.5402 57.4305 4.64019 57.4505 4.82019C57.4505 4.82019 57.4505 4.9802 57.6605 5.0802L57.6805 5.18019H57.5005V5.42019H57.6605V5.3302H57.8805H58.1005V5.42019H58.2605V5.18019H58.0805L58.1005 5.0802H58.0805ZM57.8705 5.32019L57.7905 4.96019C57.6005 4.91019 57.6105 4.8102 57.6105 4.8102C57.6105 4.6902 57.8005 4.6502 57.8005 4.6502L57.8805 4.10019L57.9505 4.64019C58.1505 4.69019 58.1405 4.8102 58.1405 4.8102C58.1405 4.9102 57.9505 4.96019 57.9505 4.96019L57.8805 5.3102L57.8705 5.32019Z" fill="#323334"/>
<path d="M58.4404 3.93945V5.49945H59.4404V3.93945H58.4404ZM59.2805 5.35946H58.5905V4.09945H59.2805V5.35946Z" fill="#323334"/>
<path d="M59.6406 3.9502V5.51019H63.3906V3.9502H59.6406ZM63.2306 5.35019H59.7906V4.10019H63.2306V5.35019Z" fill="#323334"/>
<path d="M61.5005 4.20996C61.2105 4.20996 60.9805 4.43996 60.9805 4.72996C60.9805 5.01996 61.2105 5.24996 61.5005 5.24996C61.7905 5.24996 62.0205 5.01996 62.0205 4.72996C62.0205 4.43996 61.7905 4.20996 61.5005 4.20996ZM61.5005 5.05996C61.3205 5.05996 61.1805 4.91996 61.1805 4.73996C61.1805 4.55996 61.3205 4.41996 61.5005 4.41996C61.6805 4.41996 61.8205 4.55996 61.8205 4.73996C61.8205 4.91996 61.6805 5.05996 61.5005 5.05996Z" fill="#323334"/>
<path d="M63.5908 3.93945V5.49945H64.5908V3.93945H63.5908ZM64.4308 5.35946H63.7408V4.09945H64.4308V5.35946Z" fill="#323334"/>
<path d="M6.46002 7.17934C6.46002 7.17934 6.57003 7.13934 6.56003 6.98934C6.56003 6.98934 6.55003 6.82934 6.37003 6.81934H5.97003C5.97003 6.81934 5.81004 6.81934 5.79004 6.99934C5.79004 6.99934 5.79002 7.10934 5.90002 7.17934V9.96934H5.79004V10.4893H6.55002V9.96934H6.45004V7.17934H6.46002ZM6.41003 10.1293V10.3393H5.96002V10.1293H6.07004V7.03934H5.99002C5.97002 7.03934 5.97003 7.00933 5.97003 7.00933C5.97003 6.99933 6.00003 6.97934 6.00003 6.97934H6.39005L6.42004 7.00933C6.42004 7.03933 6.39005 7.03934 6.39005 7.03934H6.32004V10.1293H6.42004H6.41003Z" fill="#323334"/>
<path d="M10.4005 7.17934C10.4005 7.17934 10.5105 7.13934 10.5005 6.98934C10.5005 6.98934 10.4905 6.82934 10.3105 6.81934H9.91046C9.91046 6.81934 9.75047 6.81934 9.73047 6.99934C9.73047 6.99934 9.73045 7.10934 9.84045 7.17934V9.96934H9.73047V10.4893H10.4904V9.96934H10.3905V7.17934H10.4005ZM10.3405 10.1293V10.3393H9.89047V10.1293H10.0005V7.04934H9.92047C9.90047 7.04934 9.90045 7.01934 9.90045 7.01934C9.90045 7.00934 9.93045 6.98934 9.93045 6.98934H10.3205L10.3504 7.01934C10.3504 7.04934 10.3205 7.04934 10.3205 7.04934H10.2505V10.1393H10.3504L10.3405 10.1293Z" fill="#323334"/>
<path d="M14.7305 7.17934C14.7305 7.17934 14.8406 7.13934 14.8306 6.98934C14.8306 6.98934 14.8206 6.82934 14.6406 6.81934H14.2405C14.2405 6.81934 14.0805 6.81934 14.0605 6.99934C14.0605 6.99934 14.0605 7.10934 14.1705 7.17934V9.96934H14.0605V10.4893H14.8206V9.96934H14.7205V7.17934H14.7305ZM14.6705 10.1293V10.3393H14.2205V10.1293H14.3306V7.04934H14.2505C14.2305 7.04934 14.2305 7.01934 14.2305 7.01934C14.2305 7.00934 14.2606 6.98934 14.2606 6.98934H14.6506L14.6805 7.01934C14.6805 7.04934 14.6506 7.04934 14.6506 7.04934H14.5806V10.1393H14.6805L14.6705 10.1293Z" fill="#323334"/>
<path d="M19.0704 7.17934C19.0704 7.17934 19.1803 7.13934 19.1703 6.98934C19.1703 6.98934 19.1603 6.82934 18.9803 6.81934H18.5804C18.5804 6.81934 18.4204 6.81934 18.4004 6.99934C18.4004 6.99934 18.4004 7.10934 18.5104 7.17934V9.96934H18.4004V10.4893H19.1603V9.96934H19.0604V7.17934H19.0704ZM19.0104 10.1193V10.3293H18.5604V10.1193H18.6703V7.03934H18.5904C18.5704 7.03934 18.5704 7.00933 18.5704 7.00933C18.5704 6.99933 18.6003 6.97934 18.6003 6.97934H18.9904L19.0204 7.00933C19.0204 7.03933 18.9904 7.03934 18.9904 7.03934H18.9203V10.1293H19.0204L19.0104 10.1193Z" fill="#323334"/>
<path d="M23.4102 7.19007C23.4102 7.19007 23.5203 7.15008 23.5103 7.00008C23.5103 7.00008 23.5003 6.84008 23.3203 6.83008H22.9202C22.9202 6.83008 22.7602 6.83007 22.7402 7.01007C22.7402 7.01007 22.7402 7.12007 22.8502 7.19007V9.98008H22.7402V10.5001H23.5002V9.98008H23.4003V7.19007H23.4102ZM23.3602 10.1301V10.3401H22.9102V10.1301H23.0203V7.05008H22.9402C22.9202 7.05008 22.9202 7.02008 22.9202 7.02008C22.9202 7.01008 22.9503 6.99008 22.9503 6.99008H23.3403L23.3702 7.02008C23.3702 7.05008 23.3403 7.05008 23.3403 7.05008H23.2703V10.1401H23.3702L23.3602 10.1301Z" fill="#323334"/>
<path d="M27.3506 7.17934C27.3506 7.17934 27.4607 7.13934 27.4507 6.98934C27.4507 6.98934 27.4407 6.82934 27.2607 6.81934H26.8607C26.8607 6.81934 26.7007 6.81934 26.6807 6.99934C26.6807 6.99934 26.6806 7.10934 26.7906 7.17934V9.96934H26.6807V10.4893H27.4407V9.96934H27.3407V7.17934H27.3506ZM27.3007 10.1293V10.3393H26.8506V10.1293H26.9607V7.03934H26.8807C26.8607 7.03934 26.8607 7.00933 26.8607 7.00933C26.8607 6.99933 26.8907 6.97934 26.8907 6.97934H27.2807L27.3107 7.00933C27.3107 7.03933 27.2807 7.03934 27.2807 7.03934H27.2107V10.1293H27.3107H27.3007Z" fill="#323334"/>
<path d="M28.2804 7.17934C28.2804 7.17934 28.3904 7.13934 28.3804 6.98934C28.3804 6.98934 28.3704 6.82934 28.1904 6.81934H27.7903C27.7903 6.81934 27.6304 6.81934 27.6104 6.99934C27.6104 6.99934 27.6103 7.10934 27.7203 7.17934V9.96934H27.6104V10.4893H28.3704V9.96934H28.2704V7.17934H28.2804ZM28.2303 10.1293V10.3393H27.7804V10.1293H27.8904V7.04934H27.8104C27.7904 7.04934 27.7903 7.01934 27.7903 7.01934C27.7903 7.00934 27.8204 6.98934 27.8204 6.98934H28.2104L28.2404 7.01934C28.2404 7.04934 28.2104 7.04934 28.2104 7.04934H28.1404V10.1393H28.2404L28.2303 10.1293Z" fill="#323334"/>
<path d="M29.2208 7.17934C29.2208 7.17934 29.3308 7.13934 29.3208 6.98934C29.3208 6.98934 29.3108 6.82934 29.1308 6.81934H28.7308C28.7308 6.81934 28.5708 6.81934 28.5508 6.99934C28.5508 6.99934 28.5508 7.10934 28.6608 7.17934V9.96934H28.5508V10.4893H29.3108V9.96934H29.2108V7.17934H29.2208ZM29.1708 10.1293V10.3393H28.7208V10.1293H28.8308V7.03934H28.7508C28.7308 7.03934 28.7308 7.00933 28.7308 7.00933C28.7308 6.99933 28.7608 6.97934 28.7608 6.97934H29.1508L29.1808 7.00933C29.1808 7.03933 29.1508 7.03934 29.1508 7.03934H29.0808V10.1293H29.1808H29.1708Z" fill="#323334"/>
<path d="M32.7003 7.17934C32.7003 7.17934 32.8102 7.13934 32.8002 6.98934C32.8002 6.98934 32.7902 6.82934 32.6102 6.81934H32.2103C32.2103 6.81934 32.0503 6.81934 32.0303 6.99934C32.0303 6.99934 32.0303 7.10934 32.1403 7.17934V9.96934H32.0303V10.4893H32.7902V9.96934H32.6902V7.17934H32.7003ZM32.6503 10.1293V10.3393H32.2003V10.1293H32.3102V7.04934H32.2302C32.2102 7.04934 32.2103 7.01934 32.2103 7.01934C32.2103 7.00934 32.2402 6.98934 32.2402 6.98934H32.6302L32.6602 7.01934C32.6602 7.04934 32.6302 7.04934 32.6302 7.04934H32.5602V10.1393H32.6602L32.6503 10.1293Z" fill="#323334"/>
<path d="M33.5304 7.17934C33.5304 7.17934 33.6404 7.13934 33.6304 6.98934C33.6304 6.98934 33.6204 6.82934 33.4404 6.81934H33.0403C33.0403 6.81934 32.8804 6.81934 32.8604 6.99934C32.8604 6.99934 32.8603 7.10934 32.9703 7.17934V9.96934H32.8604V10.4893H33.6204V9.96934H33.5204V7.17934H33.5304ZM33.4703 10.1293V10.3393H33.0204V10.1293H33.1304V7.03934H33.0504C33.0304 7.03934 33.0304 7.00933 33.0304 7.00933C33.0304 6.99933 33.0604 6.97934 33.0604 6.97934H33.4504L33.4803 7.00933C33.4803 7.03933 33.4504 7.03934 33.4504 7.03934H33.3804V10.1293H33.4803H33.4703Z" fill="#323334"/>
<path d="M36.92 7.17934C36.92 7.17934 37.03 7.13934 37.02 6.98934C37.02 6.98934 37.01 6.82934 36.83 6.81934H36.43C36.43 6.81934 36.27 6.81934 36.25 6.99934C36.25 6.99934 36.25 7.10934 36.36 7.17934V9.96934H36.25V10.4893H37.01V9.96934H36.91V7.17934H36.92ZM36.87 10.1293V10.3393H36.42V10.1293H36.53V7.03934H36.45C36.43 7.03934 36.43 7.00933 36.43 7.00933C36.43 6.99933 36.46 6.97934 36.46 6.97934H36.85L36.88 7.00933C36.88 7.03933 36.85 7.03934 36.85 7.03934H36.78V10.1293H36.88H36.87Z" fill="#323334"/>
<path d="M37.7403 7.17934C37.7403 7.17934 37.8503 7.13934 37.8403 6.98934C37.8403 6.98934 37.8303 6.82934 37.6503 6.81934H37.2503C37.2503 6.81934 37.0903 6.81934 37.0703 6.99934C37.0703 6.99934 37.0703 7.10934 37.1803 7.17934V9.96934H37.0703V10.4893H37.8303V9.96934H37.7303V7.17934H37.7403ZM37.6803 10.1293V10.3393H37.2303V10.1293H37.3403V7.03934H37.2603C37.2403 7.03934 37.2403 7.00933 37.2403 7.00933C37.2403 6.99933 37.2703 6.97934 37.2703 6.97934H37.6603L37.6903 7.00933C37.6903 7.03933 37.6603 7.03934 37.6603 7.03934H37.5903V10.1293H37.6903H37.6803Z" fill="#323334"/>
<path d="M41.2706 7.17934C41.2706 7.17934 41.3806 7.13934 41.3706 6.98934C41.3706 6.98934 41.3606 6.82934 41.1806 6.81934H40.7806C40.7806 6.81934 40.6206 6.81934 40.6006 6.99934C40.6006 6.99934 40.6006 7.10934 40.7106 7.17934V9.96934H40.6006V10.4893H41.3606V9.96934H41.2606V7.17934H41.2706ZM41.2206 10.1293V10.3393H40.7706V10.1293H40.8806V7.03934H40.8006C40.7806 7.03934 40.7806 7.00933 40.7806 7.00933C40.7806 6.99933 40.8106 6.97934 40.8106 6.97934H41.2006L41.2306 7.00933C41.2306 7.03933 41.2006 7.03934 41.2006 7.03934H41.1306V10.1293H41.2306H41.2206Z" fill="#323334"/>
<path d="M42.2101 7.17934C42.2101 7.17934 42.3201 7.13934 42.3101 6.98934C42.3101 6.98934 42.3001 6.82934 42.1201 6.81934H41.72C41.72 6.81934 41.56 6.81934 41.54 6.99934C41.54 6.99934 41.5401 7.10934 41.6501 7.17934V9.96934H41.54V10.4893H42.3V9.96934H42.2001V7.17934H42.2101ZM42.16 10.1293V10.3393H41.7101V10.1293H41.8201V7.04934H41.7401C41.7201 7.04934 41.72 7.01934 41.72 7.01934C41.72 7.00934 41.7501 6.98934 41.7501 6.98934H42.1401L42.17 7.01934C42.17 7.04934 42.1401 7.04934 42.1401 7.04934H42.0701V10.1393H42.17L42.16 10.1293Z" fill="#323334"/>
<path d="M43.1407 7.17934C43.1407 7.17934 43.2507 7.13934 43.2407 6.98934C43.2407 6.98934 43.2307 6.82934 43.0507 6.81934H42.6508C42.6508 6.81934 42.4907 6.81934 42.4707 6.99934C42.4707 6.99934 42.4707 7.10934 42.5807 7.17934V9.96934H42.4707V10.4893H43.2307V9.96934H43.1307V7.17934H43.1407ZM43.0908 10.1293V10.3393H42.6407V10.1293H42.7507V7.03934H42.6707C42.6507 7.03934 42.6508 7.00933 42.6508 7.00933C42.6508 6.99933 42.6807 6.97934 42.6807 6.97934H43.0707L43.1007 7.00933C43.1007 7.03933 43.0707 7.03934 43.0707 7.03934H43.0007V10.1293H43.1007H43.0908Z" fill="#323334"/>
<path d="M47.0704 7.17934C47.0704 7.17934 47.1803 7.13934 47.1703 6.98934C47.1703 6.98934 47.1603 6.82934 46.9803 6.81934H46.5804C46.5804 6.81934 46.4204 6.81934 46.4004 6.99934C46.4004 6.99934 46.4004 7.10934 46.5104 7.17934V9.96934H46.4004V10.4893H47.1603V9.96934H47.0604V7.17934H47.0704ZM47.0104 10.1293V10.3393H46.5604V10.1293H46.6703V7.03934H46.5904C46.5704 7.03934 46.5704 7.00933 46.5704 7.00933C46.5704 6.99933 46.6003 6.97934 46.6003 6.97934H46.9904L47.0204 7.00933C47.0204 7.03933 46.9904 7.03934 46.9904 7.03934H46.9203V10.1293H47.0204H47.0104Z" fill="#323334"/>
<path d="M51.4903 7.17934C51.4903 7.17934 51.6003 7.13934 51.5903 6.98934C51.5903 6.98934 51.5803 6.82934 51.4003 6.81934H51.0003C51.0003 6.81934 50.8403 6.81934 50.8203 6.99934C50.8203 6.99934 50.8203 7.10934 50.9303 7.17934V9.96934H50.8203V10.4893H51.5803V9.96934H51.4803V7.17934H51.4903ZM51.4303 10.1293V10.3393H50.9803V10.1293H51.0903V7.03934H51.0103C50.9903 7.03934 50.9903 7.00933 50.9903 7.00933C50.9903 6.99933 51.0203 6.97934 51.0203 6.97934H51.4103L51.4403 7.00933C51.4403 7.03933 51.4103 7.03934 51.4103 7.03934H51.3403V10.1293H51.4403H51.4303Z" fill="#323334"/>
<path d="M55.8204 7.17934C55.8204 7.17934 55.9303 7.13934 55.9203 6.98934C55.9203 6.98934 55.9103 6.82934 55.7303 6.81934H55.3304C55.3304 6.81934 55.1704 6.81934 55.1504 6.99934C55.1504 6.99934 55.1504 7.10934 55.2604 7.17934V9.96934H55.1504V10.4893H55.9103V9.96934H55.8104V7.17934H55.8204ZM55.7604 10.1293V10.3393H55.3104V10.1293H55.4203V7.04934H55.3404C55.3204 7.04934 55.3204 7.01934 55.3204 7.01934C55.3204 7.00934 55.3503 6.98934 55.3503 6.98934H55.7404L55.7704 7.01934C55.7704 7.04934 55.7404 7.04934 55.7404 7.04934H55.6703V10.1393H55.7704L55.7604 10.1293Z" fill="#323334"/>
<path d="M60.0909 7.17934C60.0909 7.17934 60.2009 7.13934 60.1909 6.98934C60.1909 6.98934 60.1809 6.82934 60.0009 6.81934H59.6009C59.6009 6.81934 59.4409 6.81934 59.4209 6.99934C59.4209 6.99934 59.4209 7.10934 59.5309 7.17934V9.96934H59.4209V10.4893H60.1809V9.96934H60.0809V7.17934H60.0909ZM60.0309 10.1293V10.3393H59.5809V10.1293H59.6909V7.04934H59.6109C59.5909 7.04934 59.5909 7.01934 59.5909 7.01934C59.5909 7.00934 59.6209 6.98934 59.6209 6.98934H60.0109L60.0409 7.01934C60.0409 7.04934 60.0109 7.04934 60.0109 7.04934H59.9409V10.1393H60.0409L60.0309 10.1293Z" fill="#323334"/>
<path d="M64.0802 7.17934C64.0802 7.17934 64.1902 7.13934 64.1802 6.98934C64.1802 6.98934 64.1702 6.82934 63.9902 6.81934H63.5902C63.5902 6.81934 63.4302 6.81934 63.4102 6.99934C63.4102 6.99934 63.4102 7.10934 63.5202 7.17934V9.96934H63.4102V10.4893H64.1702V9.96934H64.0702V7.17934H64.0802ZM64.0302 10.1293V10.3393H63.5802V10.1293H63.6902V7.04934H63.6102C63.5902 7.04934 63.5902 7.01934 63.5902 7.01934C63.5902 7.00934 63.6202 6.98934 63.6202 6.98934H64.0102L64.0402 7.01934C64.0402 7.04934 64.0102 7.04934 64.0102 7.04934H63.9402V10.1393H64.0402L64.0302 10.1293Z" fill="#323334"/>
<path d="M5.77051 10.6299V11.4399H6.60052V10.6299H5.77051ZM6.44052 11.2799H5.93051V10.7799H6.44052V11.2799Z" fill="#323334"/>
<path d="M63.3906 10.6201V11.4301H64.2206V10.6201H63.3906ZM64.0606 11.2801H63.5506V10.7801H64.0606V11.2801Z" fill="#323334"/>
<path d="M7.25018 10.6194H7.69019V10.7194H7.57019L7.62018 10.9794C7.62018 10.9794 7.73017 11.0194 7.74017 11.0994C7.74017 11.0994 7.7402 11.1794 7.6402 11.2194L7.57019 11.3794H7.69019V11.4794H7.25018V11.3794H7.37018L7.30017 11.2194C7.30017 11.2194 7.2002 11.1694 7.2002 11.0994C7.2002 11.0994 7.20019 11.0194 7.32019 10.9794L7.37018 10.7094H7.25018V10.6094V10.6194Z" fill="#323334"/>
<path d="M8.26096 10.6194H8.70096V10.7194H8.58093L8.63095 10.9794C8.63095 10.9794 8.74095 11.0194 8.75095 11.0994C8.75095 11.0994 8.75094 11.1794 8.65094 11.2194L8.58093 11.3794H8.70096V11.4794H8.26096V11.3794H8.38095L8.31094 11.2194C8.31094 11.2194 8.21094 11.1694 8.21094 11.0994C8.21094 11.0994 8.21093 11.0194 8.33093 10.9794L8.38095 10.7094H8.26096V10.6094V10.6194Z" fill="#323334"/>
<path d="M11.5705 10.6194H12.0105V10.7194H11.8905L11.9405 10.9794C11.9405 10.9794 12.0505 11.0194 12.0605 11.0994C12.0605 11.0994 12.0605 11.1794 11.9605 11.2194L11.8905 11.3794H12.0105V11.4794H11.5705V11.3794H11.6905L11.6205 11.2194C11.6205 11.2194 11.5205 11.1694 11.5205 11.0994C11.5205 11.0994 11.5205 11.0194 11.6405 10.9794L11.6905 10.7094H11.5705V10.6094V10.6194Z" fill="#323334"/>
<path d="M12.5803 10.6194H13.0203V10.7194H12.9003L12.9503 10.9794C12.9503 10.9794 13.0603 11.0194 13.0703 11.0994C13.0703 11.0994 13.0702 11.1794 12.9702 11.2194L12.9003 11.3794H13.0203V11.4794H12.5803V11.3794H12.7003L12.6302 11.2194C12.6302 11.2194 12.5303 11.1694 12.5303 11.0994C12.5303 11.0994 12.5303 11.0194 12.6503 10.9794L12.7003 10.7094H12.5803V10.6094V10.6194Z" fill="#323334"/>
<path d="M15.8908 10.6194H16.3308V10.7194H16.2108L16.2608 10.9794C16.2608 10.9794 16.3708 11.0194 16.3808 11.0994C16.3808 11.0994 16.3808 11.1794 16.2808 11.2194L16.2108 11.3794H16.3308V11.4794H15.8908V11.3794H16.0108L15.9408 11.2194C15.9408 11.2194 15.8408 11.1694 15.8408 11.0994C15.8408 11.0994 15.8408 11.0194 15.9608 10.9794L16.0108 10.7094H15.8908V10.6094V10.6194Z" fill="#323334"/>
<path d="M16.9006 10.6194H17.3406V10.7194H17.2206L17.2706 10.9794C17.2706 10.9794 17.3806 11.0194 17.3906 11.0994C17.3906 11.0994 17.3906 11.1794 17.2906 11.2194L17.2206 11.3794H17.3406V11.4794H16.9006V11.3794H17.0206L16.9506 11.2194C16.9506 11.2194 16.8506 11.1694 16.8506 11.0994C16.8506 11.0994 16.8506 11.0194 16.9706 10.9794L17.0206 10.7094H16.9006V10.6094V10.6194Z" fill="#323334"/>
<path d="M20.2102 10.6194H20.6502V10.7194H20.5302L20.5802 10.9794C20.5802 10.9794 20.6902 11.0194 20.7002 11.0994C20.7002 11.0994 20.7002 11.1794 20.6002 11.2194L20.5302 11.3794H20.6502V11.4794H20.2102V11.3794H20.3302L20.2602 11.2194C20.2602 11.2194 20.1602 11.1694 20.1602 11.0994C20.1602 11.0994 20.1602 11.0194 20.2802 10.9794L20.3302 10.7094H20.2102V10.6094V10.6194Z" fill="#323334"/>
<path d="M21.2209 10.6194H21.6609V10.7194H21.5409L21.5909 10.9794C21.5909 10.9794 21.7009 11.0194 21.7109 11.0994C21.7109 11.0994 21.7109 11.1794 21.6109 11.2194L21.5409 11.3794H21.6609V11.4794H21.2209V11.3794H21.3409L21.2709 11.2194C21.2709 11.2194 21.1709 11.1694 21.1709 11.0994C21.1709 11.0994 21.1709 11.0194 21.2909 10.9794L21.3409 10.7094H21.2209V10.6094V10.6194Z" fill="#323334"/>
<path d="M24.5402 10.6194H24.9802V10.7194H24.8602L24.9102 10.9794C24.9102 10.9794 25.0203 11.0194 25.0303 11.0994C25.0303 11.0994 25.0302 11.1794 24.9302 11.2194L24.8602 11.3794H24.9802V11.4794H24.5402V11.3794H24.6602L24.5903 11.2194C24.5903 11.2194 24.4902 11.1694 24.4902 11.0994C24.4902 11.0994 24.4902 11.0194 24.6102 10.9794L24.6602 10.7094H24.5402V10.6094V10.6194Z" fill="#323334"/>
<path d="M25.55 10.6194H25.99V10.7194H25.87L25.92 10.9794C25.92 10.9794 26.03 11.0194 26.04 11.0994C26.04 11.0994 26.04 11.1794 25.94 11.2194L25.87 11.3794H25.99V11.4794H25.55V11.3794H25.67L25.6 11.2194C25.6 11.2194 25.5 11.1694 25.5 11.0994C25.5 11.0994 25.5 11.0194 25.62 10.9794L25.67 10.7094H25.55V10.6094V10.6194Z" fill="#323334"/>
<path d="M30.0208 10.6194H30.4608V10.7194H30.3408L30.3907 10.9794C30.3907 10.9794 30.5007 11.0194 30.5107 11.0994C30.5107 11.0994 30.5107 11.1794 30.4107 11.2194L30.3408 11.3794H30.4608V11.4794H30.0208V11.3794H30.1407L30.0707 11.2194C30.0707 11.2194 29.9707 11.1694 29.9707 11.0994C29.9707 11.0994 29.9708 11.0194 30.0908 10.9794L30.1407 10.7094H30.0208V10.6094V10.6194Z" fill="#323334"/>
<path d="M31.0305 10.6194H31.4705V10.7194H31.3505L31.4005 10.9794C31.4005 10.9794 31.5105 11.0194 31.5205 11.0994C31.5205 11.0994 31.5205 11.1794 31.4205 11.2194L31.3505 11.3794H31.4705V11.4794H31.0305V11.3794H31.1505L31.0805 11.2194C31.0805 11.2194 30.9805 11.1694 30.9805 11.0994C30.9805 11.0994 30.9805 11.0194 31.1005 10.9794L31.1505 10.7094H31.0305V10.6094V10.6194Z" fill="#323334"/>
<path d="M34.2404 10.6194H34.6804V10.7194H34.5604L34.6104 10.9794C34.6104 10.9794 34.7204 11.0194 34.7304 11.0994C34.7304 11.0994 34.7304 11.1794 34.6304 11.2194L34.5604 11.3794H34.6804V11.4794H34.2404V11.3794H34.3604L34.2904 11.2194C34.2904 11.2194 34.1904 11.1694 34.1904 11.0994C34.1904 11.0994 34.1904 11.0194 34.3104 10.9794L34.3604 10.7094H34.2404V10.6094V10.6194Z" fill="#323334"/>
<path d="M35.2509 10.6194H35.7009V10.7194H35.5809L35.6309 10.9794C35.6309 10.9794 35.7409 11.0194 35.7509 11.0994C35.7509 11.0994 35.7509 11.1794 35.6509 11.2194L35.5809 11.3794H35.7009V11.4794H35.2609V11.3794H35.3809L35.3109 11.2194C35.3109 11.2194 35.2109 11.1694 35.2109 11.0994C35.2109 11.0994 35.2109 11.0194 35.3309 10.9794L35.3809 10.7094H35.2609V10.6094L35.2509 10.6194Z" fill="#323334"/>
<path d="M38.4308 10.6194H38.8708V10.7194H38.7509L38.8008 10.9794C38.8008 10.9794 38.9108 11.0194 38.9208 11.0994C38.9208 11.0994 38.9209 11.1794 38.8209 11.2194L38.7509 11.3794H38.8708V11.4794H38.4308V11.3794H38.5508L38.4808 11.2194C38.4808 11.2194 38.3809 11.1694 38.3809 11.0994C38.3809 11.0994 38.3809 11.0194 38.5009 10.9794L38.5508 10.7094H38.4308V10.6094V10.6194Z" fill="#323334"/>
<path d="M39.4406 10.6194H39.8806V10.7194H39.7606L39.8106 10.9794C39.8106 10.9794 39.9206 11.0194 39.9306 11.0994C39.9306 11.0994 39.9306 11.1794 39.8306 11.2194L39.7606 11.3794H39.8806V11.4794H39.4406V11.3794H39.5606L39.4906 11.2194C39.4906 11.2194 39.3906 11.1694 39.3906 11.0994C39.3906 11.0994 39.3906 11.0194 39.5106 10.9794L39.5606 10.7094H39.4406V10.6094V10.6194Z" fill="#323334"/>
<path d="M43.9406 10.6194H44.3806V10.7194H44.2606L44.3106 10.9794C44.3106 10.9794 44.4206 11.0194 44.4306 11.0994C44.4306 11.0994 44.4306 11.1794 44.3306 11.2194L44.2606 11.3794H44.3806V11.4794H43.9406V11.3794H44.0606L43.9906 11.2194C43.9906 11.2194 43.8906 11.1694 43.8906 11.0994C43.8906 11.0994 43.8906 11.0194 44.0106 10.9794L44.0606 10.7094H43.9406V10.6094V10.6194Z" fill="#323334"/>
<path d="M44.9502 10.6194H45.4002V10.7194H45.2802L45.3302 10.9794C45.3302 10.9794 45.4402 11.0194 45.4502 11.0994C45.4502 11.0994 45.4502 11.1794 45.3502 11.2194L45.2802 11.3794H45.4002V11.4794H44.9602V11.3794H45.0802L45.0102 11.2194C45.0102 11.2194 44.9102 11.1694 44.9102 11.0994C44.9102 11.0994 44.9102 11.0194 45.0302 10.9794L45.0802 10.7094H44.9602V10.6094L44.9502 10.6194Z" fill="#323334"/>
<path d="M48.2607 10.6194H48.7108V10.7194H48.5908L48.6407 10.9794C48.6407 10.9794 48.7507 11.0194 48.7607 11.0994C48.7607 11.0994 48.7607 11.1794 48.6607 11.2194L48.5908 11.3794H48.7108V11.4794H48.2708V11.3794H48.3907L48.3207 11.2194C48.3207 11.2194 48.2207 11.1694 48.2207 11.0994C48.2207 11.0994 48.2208 11.0194 48.3408 10.9794L48.3907 10.7094H48.2708V10.6094L48.2607 10.6194Z" fill="#323334"/>
<path d="M49.2708 10.6194H49.7108V10.7194H49.5908L49.6407 10.9794C49.6407 10.9794 49.7507 11.0194 49.7607 11.0994C49.7607 11.0994 49.7607 11.1794 49.6607 11.2194L49.5908 11.3794H49.7108V11.4794H49.2708V11.3794H49.3907L49.3207 11.2194C49.3207 11.2194 49.2207 11.1694 49.2207 11.0994C49.2207 11.0994 49.2208 11.0194 49.3408 10.9794L49.3907 10.7094H49.2708V10.6094V10.6194Z" fill="#323334"/>
<path d="M52.5908 10.6194H53.0408V10.7194H52.9208L52.9708 10.9794C52.9708 10.9794 53.0808 11.0194 53.0908 11.0994C53.0908 11.0994 53.0908 11.1794 52.9908 11.2194L52.9208 11.3794H53.0408V11.4794H52.6008V11.3794H52.7208L52.6508 11.2194C52.6508 11.2194 52.5508 11.1694 52.5508 11.0994C52.5508 11.0994 52.5508 11.0194 52.6708 10.9794L52.7208 10.7094H52.6008V10.6094L52.5908 10.6194Z" fill="#323334"/>
<path d="M53.6008 10.6096H54.0408V10.7096H53.9208L53.9708 10.9696C53.9708 10.9696 54.0808 11.0096 54.0908 11.0896C54.0908 11.0896 54.0908 11.1696 53.9908 11.2096L53.9208 11.3696H54.0408V11.4696H53.6008V11.3696H53.7208L53.6508 11.2096C53.6508 11.2096 53.5508 11.1596 53.5508 11.0896C53.5508 11.0896 53.5508 11.0096 53.6708 10.9696L53.7208 10.6996H53.6008V10.5996V10.6096Z" fill="#323334"/>
<path d="M56.9101 10.6194H57.3601V10.7194H57.2401L57.2901 10.9794C57.2901 10.9794 57.4001 11.0194 57.4101 11.0994C57.4101 11.0994 57.4101 11.1794 57.3101 11.2194L57.2401 11.3794H57.3601V11.4794H56.9201V11.3794H57.0401L56.9701 11.2194C56.9701 11.2194 56.8701 11.1694 56.8701 11.0994C56.8701 11.0994 56.8701 11.0194 56.9901 10.9794L57.0401 10.7094H56.9201V10.6094L56.9101 10.6194Z" fill="#323334"/>
<path d="M57.9201 10.6194H58.3601V10.7194H58.2401L58.2901 10.9794C58.2901 10.9794 58.4001 11.0194 58.4101 11.0994C58.4101 11.0994 58.4101 11.1794 58.3101 11.2194L58.2401 11.3794H58.3601V11.4794H57.9201V11.3794H58.0401L57.9701 11.2194C57.9701 11.2194 57.8701 11.1694 57.8701 11.0994C57.8701 11.0994 57.8701 11.0194 57.9901 10.9794L58.0401 10.7094H57.9201V10.6094V10.6194Z" fill="#323334"/>
<path d="M61.2307 10.6194H61.6707V10.7194H61.5507L61.6006 10.9794C61.6006 10.9794 61.7106 11.0194 61.7206 11.0994C61.7206 11.0994 61.7207 11.1794 61.6207 11.2194L61.5507 11.3794H61.6707V11.4794H61.2307V11.3794H61.3506L61.2807 11.2194C61.2807 11.2194 61.1807 11.1694 61.1807 11.0994C61.1807 11.0994 61.1807 11.0194 61.3007 10.9794L61.3506 10.7094H61.2307V10.6094V10.6194Z" fill="#323334"/>
<path d="M62.2404 10.6194H62.6804V10.7194H62.5604L62.6104 10.9794C62.6104 10.9794 62.7204 11.0194 62.7304 11.0994C62.7304 11.0994 62.7304 11.1794 62.6304 11.2194L62.5604 11.3794H62.6804V11.4794H62.2404V11.3794H62.3604L62.2904 11.2194C62.2904 11.2194 62.1904 11.1694 62.1904 11.0994C62.1904 11.0994 62.1904 11.0194 62.3104 10.9794L62.3604 10.7094H62.2404V10.6094V10.6194Z" fill="#323334"/>
<path d="M9.4209 10.6201V11.4401H10.8209V10.6201H9.4209ZM10.6709 11.2801H9.58087V10.7801H10.6709V11.2801Z" fill="#323334"/>
<path d="M13.7402 10.6201V11.4401H15.1403V10.6201H13.7402ZM14.9902 11.2801H13.9003V10.7801H14.9902V11.2801Z" fill="#323334"/>
<path d="M18.0801 10.5996V11.4196H19.48V10.5996H18.0801ZM19.3301 11.2596H18.2401V10.7596H19.3301V11.2596Z" fill="#323334"/>
<path d="M22.4004 10.5996V11.4196H23.8004V10.5996H22.4004ZM23.6504 11.2596H22.5604V10.7596H23.6504V11.2596Z" fill="#323334"/>
<path d="M32.0605 10.5996V11.4196H33.6205V10.5996H32.0605ZM33.4606 11.2596H32.2205V10.7596H33.4606V11.2596Z" fill="#323334"/>
<path d="M36.2705 10.6299V11.4499H37.8405V10.6299H36.2705ZM37.6905 11.2799H36.4405V10.7799H37.6905V11.2799Z" fill="#323334"/>
<path d="M46.0801 10.5996V11.4196H47.48V10.5996H46.0801ZM47.3301 11.2596H46.2401V10.7596H47.3301V11.2596Z" fill="#323334"/>
<path d="M50.5 10.5996V11.4196H51.9V10.5996H50.5ZM51.75 11.2596H50.66V10.7596H51.75V11.2596Z" fill="#323334"/>
<path d="M54.8408 10.6201V11.4401H56.2408V10.6201H54.8408ZM56.0908 11.2801H55.0008V10.7801H56.0908V11.2801Z" fill="#323334"/>
<path d="M59.1104 10.5898V11.4098H60.5104V10.5898H59.1104ZM60.3503 11.2498H59.2604V10.7498H60.3503V11.2498Z" fill="#323334"/>
<path d="M40.6006 10.6201V11.4401H43.2506V10.6301H40.6006V10.6201ZM43.1006 11.2801H40.7606V10.7801H43.1006V11.2801Z" fill="#323334"/>
<path d="M26.7002 10.6094V11.4294H29.3102V10.6194H26.7002V10.6094ZM29.1502 11.2794H26.8502V10.7794H29.1502V11.2794Z" fill="#323334"/>
<path d="M7.12036 10.3998H8.83035V7.81977C8.83035 7.81977 8.83036 7.03977 7.96036 7.00977C7.96036 7.00977 7.18035 7.00977 7.11035 7.78977V10.3998H7.12036Z" fill="#323334"/>
<path d="M11.4504 10.4095H13.1604V7.82953C13.1604 7.82953 13.1604 7.04953 12.2904 7.01953C12.2904 7.01953 11.5104 7.01953 11.4404 7.79953V10.4095H11.4504Z" fill="#323334"/>
<path d="M15.76 10.4095H17.47V7.82953C17.47 7.82953 17.47 7.04953 16.6 7.01953C16.6 7.01953 15.82 7.01953 15.75 7.79953V10.4095H15.76Z" fill="#323334"/>
<path d="M20.0901 10.4095H21.8V7.82953C21.8 7.82953 21.8001 7.04953 20.9301 7.01953C20.9301 7.01953 20.1501 7.01953 20.0801 7.79953V10.4095H20.0901Z" fill="#323334"/>
<path d="M24.4103 10.4095H26.1204V7.82953C26.1204 7.82953 26.1204 7.04953 25.2504 7.01953C25.2504 7.01953 24.4704 7.01953 24.4004 7.79953V10.4095H24.4103Z" fill="#323334"/>
<path d="M29.9006 10.4095H31.6106V7.82953C31.6106 7.82953 31.6106 7.04953 30.7406 7.01953C30.7406 7.01953 29.9606 7.01953 29.8906 7.79953V10.4095H29.9006Z" fill="#323334"/>
<path d="M34.1106 10.4095H35.8206V7.82953C35.8206 7.82953 35.8206 7.04953 34.9506 7.01953C34.9506 7.01953 34.1706 7.01953 34.1006 7.79953V10.4095H34.1106Z" fill="#323334"/>
<path d="M38.2805 10.4095H39.9905V7.82953C39.9905 7.82953 39.9905 7.04953 39.1205 7.01953C39.1205 7.01953 38.3405 7.01953 38.2705 7.79953V10.4095H38.2805Z" fill="#323334"/>
<path d="M43.8108 10.4095H45.5208V7.82953C45.5208 7.82953 45.5208 7.04953 44.6508 7.01953C44.6508 7.01953 43.8708 7.01953 43.8008 7.79953V10.4095H43.8108Z" fill="#323334"/>
<path d="M48.1409 10.3998H49.8508V7.81977C49.8508 7.81977 49.8508 7.03977 48.9808 7.00977C48.9808 7.00977 48.2009 7.00977 48.1309 7.78977V10.3998H48.1409Z" fill="#323334"/>
<path d="M52.4709 10.4095H54.1809V7.82953C54.1809 7.82953 54.1809 7.04953 53.3109 7.01953C53.3109 7.01953 52.5309 7.01953 52.4609 7.79953V10.4095H52.4709Z" fill="#323334"/>
<path d="M56.7805 10.3998H58.4905V7.81977C58.4905 7.81977 58.4905 7.03977 57.6205 7.00977C57.6205 7.00977 56.8405 7.00977 56.7705 7.78977V10.3998H56.7805Z" fill="#323334"/>
<path d="M61.1106 10.4095H62.8206V7.82953C62.8206 7.82953 62.8206 7.04953 61.9506 7.01953C61.9506 7.01953 61.1706 7.01953 61.1006 7.79953V10.4095H61.1106Z" fill="#323334"/>
<path d="M65.3107 5.74969H64.8307V3.72969L65.2007 3.21969H64.6207V2.88969H64.4407V2.82969C64.4407 2.82969 64.6607 2.71969 64.6707 2.45969C64.6707 2.45969 64.6808 2.19969 64.4008 2.06969C64.4008 2.06969 64.4907 1.90969 64.3107 1.77969C64.3107 1.77969 64.1207 1.65969 63.9507 1.83969C63.9507 1.83969 63.8607 1.93969 63.9207 2.06969C63.9207 2.06969 63.6608 2.17969 63.6508 2.44969C63.6508 2.44969 63.6307 2.67969 63.8807 2.82969V2.87969H63.7007V3.21969H59.4507V2.87969H59.2808V2.82969C59.2808 2.82969 59.5007 2.71969 59.5007 2.46969C59.5007 2.46969 59.5007 2.20969 59.2307 2.07969C59.2307 2.07969 59.3007 1.94969 59.1807 1.81969C59.1807 1.81969 59.0307 1.66969 58.8207 1.80969C58.8207 1.80969 58.6807 1.90969 58.7507 2.07969C58.7507 2.07969 58.4907 2.18969 58.4807 2.44969C58.4807 2.44969 58.4608 2.68969 58.7108 2.83969V2.88969H58.5208V3.22969H48.1807V2.88969H48.0007V2.83969C48.0007 2.83969 48.2307 2.71969 48.2307 2.47969C48.2307 2.47969 48.2508 2.22969 47.9608 2.08969C47.9608 2.08969 48.0507 1.93969 47.8707 1.79969C47.8707 1.79969 47.6607 1.66969 47.5107 1.85969C47.5107 1.85969 47.4307 1.95969 47.4807 2.08969C47.4807 2.08969 47.2408 2.17969 47.2108 2.45969C47.2108 2.45969 47.1807 2.68969 47.4407 2.84969V2.89969H47.2607V3.23969H42.1907V2.19969H41.3807V1.94969C41.3807 1.94969 41.5407 1.89969 41.6107 1.76969L41.9707 1.54969L41.6107 1.31969C41.6107 1.31969 41.5307 1.20969 41.4107 1.14969L41.1807 0.449688L40.9507 1.14969C40.9507 1.14969 40.8207 1.19969 40.7507 1.30969L40.3907 1.53969L40.7507 1.76969C40.7507 1.76969 40.8107 1.86969 40.9807 1.93969V2.17969H37.2808V1.93969C37.2808 1.93969 37.4408 1.89969 37.5208 1.75969L37.8707 1.53969L37.5208 1.30969C37.5208 1.30969 37.4107 1.17969 37.3107 1.13969L37.0807 0.439686L36.8507 1.14969C36.8507 1.14969 36.7307 1.18969 36.6607 1.30969L36.3007 1.53969L36.6707 1.76969C36.6707 1.76969 36.7407 1.87969 36.8907 1.92969V2.17969H32.9907V1.92969C32.9907 1.92969 33.1107 1.90969 33.2207 1.75969L33.5807 1.52969L33.2307 1.29969C33.2307 1.29969 33.1708 1.18969 33.0308 1.13969L32.8007 0.439686L32.5607 1.13969C32.5607 1.13969 32.4207 1.20969 32.3707 1.29969L32.0107 1.52969L32.3807 1.75969C32.3807 1.75969 32.4407 1.85969 32.6107 1.92969V2.16969H28.9008V1.92969C28.9008 1.92969 29.0507 1.88969 29.1407 1.74969L29.5007 1.52969L29.1407 1.29969C29.1407 1.29969 29.0807 1.18969 28.9407 1.12969L28.7108 0.429688L28.4707 1.12969C28.4707 1.12969 28.3208 1.20969 28.2808 1.28969L27.9207 1.51969L28.2907 1.75969C28.2907 1.75969 28.3508 1.85969 28.5208 1.92969V2.16969H27.7507V3.20969H27.5707V2.88969H27.3907V2.83969C27.3907 2.83969 27.6207 2.72969 27.6207 2.45969C27.6207 2.45969 27.6207 2.20969 27.3507 2.07969C27.3507 2.07969 27.4307 1.92969 27.2907 1.80969C27.2907 1.80969 27.1008 1.63969 26.9008 1.83969C26.9008 1.83969 26.8107 1.93969 26.8707 2.07969C26.8707 2.07969 26.6207 2.18969 26.6007 2.44969C26.6007 2.44969 26.5807 2.67969 26.8307 2.82969V2.87969H26.6508V3.19969H22.6807V2.87969H22.5007V2.82969C22.5007 2.82969 22.7307 2.71969 22.7307 2.43969C22.7307 2.43969 22.7308 2.19969 22.4608 2.06969C22.4608 2.06969 22.5507 1.90969 22.3607 1.77969C22.3607 1.77969 22.1807 1.65969 22.0107 1.83969C22.0107 1.83969 21.9207 1.93969 21.9807 2.06969C21.9807 2.06969 21.7208 2.17969 21.7108 2.45969C21.7108 2.45969 21.7107 2.68969 21.9507 2.82969V2.87969H21.7607V3.19969H11.4008V2.85969H11.2307V2.80969C11.2307 2.80969 11.4707 2.68969 11.4507 2.40969C11.4507 2.40969 11.4507 2.19969 11.1807 2.05969C11.1807 2.05969 11.2607 1.91969 11.1107 1.78969C11.1107 1.78969 10.9007 1.61969 10.7207 1.83969C10.7207 1.83969 10.6407 1.94969 10.7007 2.05969C10.7007 2.05969 10.4307 2.15969 10.4307 2.44969C10.4307 2.44969 10.4307 2.67969 10.6607 2.80969V2.85969H10.4807V3.19969H6.25073V2.85969H6.07074V2.79969C6.07074 2.79969 6.29072 2.69969 6.30072 2.44969C6.30072 2.44969 6.32073 2.19969 6.03073 2.05969C6.03073 2.05969 6.11073 1.89969 5.94073 1.76969C5.94073 1.76969 5.73073 1.62969 5.56073 1.84969C5.56073 1.84969 5.50072 1.94969 5.55072 2.05969C5.55072 2.05969 5.30073 2.16969 5.28073 2.43969C5.28073 2.43969 5.28072 2.65969 5.52072 2.80969V2.85969H5.33072V3.19969H4.64075L5.06073 3.68969V5.74969H4.51074L4.93073 6.55969H4.75073V6.92969L4.98074 7.06969V18.7997H64.9207V7.09969L65.1707 6.93969V6.57969H64.9608L65.3207 5.73969L65.3107 5.74969ZM64.9507 6.73969H65.0007V6.85969L64.9507 6.88969V6.73969ZM64.0507 1.96969C64.0707 1.89969 64.1508 1.89969 64.1508 1.89969C64.2508 1.89969 64.2607 1.97969 64.2607 1.97969C64.2707 2.02969 64.1607 2.08969 64.1607 2.08969C64.0107 2.00969 64.0507 1.97969 64.0507 1.97969V1.96969ZM64.0107 3.03969L64.0308 2.73969C63.7808 2.63969 63.7907 2.46969 63.7907 2.46969C63.7907 2.24969 64.0308 2.19969 64.0308 2.19969C64.1308 2.17969 64.1508 2.16969 64.1508 2.16969C64.1708 2.18969 64.2108 2.18969 64.2108 2.18969C64.4808 2.23969 64.4907 2.44969 64.4907 2.44969C64.5007 2.65969 64.2507 2.72969 64.2507 2.72969L64.2808 3.02969H64.4407V3.20969H63.8307V3.02969H64.0007L64.0107 3.03969ZM64.5807 3.37969L64.5007 3.54969H63.7407L63.6607 3.37969H64.5807ZM58.8707 1.96969C58.8907 1.89969 58.9707 1.89969 58.9707 1.89969C59.0707 1.89969 59.0807 1.97969 59.0807 1.97969C59.0907 2.02969 58.9807 2.08969 58.9807 2.08969C58.8307 2.00969 58.8707 1.97969 58.8707 1.97969V1.96969ZM58.8408 3.03969L58.8607 2.73969C58.6107 2.63969 58.6207 2.46969 58.6207 2.46969C58.6207 2.24969 58.8607 2.19969 58.8607 2.19969C58.9607 2.17969 58.9807 2.16969 58.9807 2.16969C59.0007 2.18969 59.0407 2.18969 59.0407 2.18969C59.3107 2.23969 59.3207 2.44969 59.3207 2.44969C59.3307 2.65969 59.0807 2.72969 59.0807 2.72969L59.1107 3.02969H59.2708V3.20969H58.6607V3.02969H58.8307L58.8408 3.03969ZM59.4507 3.37969L59.3707 3.54969H58.6107L58.5308 3.37969H59.4507ZM47.6107 1.96969C47.6307 1.89969 47.7108 1.89969 47.7108 1.89969C47.8108 1.89969 47.8207 1.97969 47.8207 1.97969C47.8307 2.02969 47.7207 2.08969 47.7207 2.08969C47.5707 2.00969 47.6107 1.97969 47.6107 1.97969V1.96969ZM47.5807 3.03969L47.6007 2.73969C47.3507 2.63969 47.3607 2.46969 47.3607 2.46969C47.3607 2.24969 47.6007 2.19969 47.6007 2.19969C47.7007 2.17969 47.7207 2.16969 47.7207 2.16969C47.7407 2.18969 47.7808 2.18969 47.7808 2.18969C48.0508 2.23969 48.0607 2.44969 48.0607 2.44969C48.0707 2.65969 47.8207 2.72969 47.8207 2.72969L47.8507 3.02969H48.0107V3.20969H47.4008V3.02969H47.5707L47.5807 3.03969ZM48.1807 3.37969L48.1007 3.54969H47.3408L47.2607 3.37969H48.1807ZM43.0407 3.37969L42.9507 3.53969H41.9008V3.38969H43.0407V3.37969ZM42.0407 3.22969H41.9107V2.65969H42.0407V3.22969ZM40.8707 1.63969L40.6907 1.52969L40.8707 1.41969C40.9307 1.30969 41.0807 1.25969 41.0807 1.25969L41.1907 0.939686L41.3007 1.26969C41.4607 1.30969 41.5107 1.41969 41.5107 1.41969L41.6907 1.52969L41.5107 1.63969C41.4507 1.77969 41.2307 1.81969 41.2307 1.81969V2.17969H41.1508V1.81969C40.9208 1.76969 40.8707 1.64969 40.8707 1.64969V1.63969ZM41.9507 2.37969L41.9207 2.50969H41.7607V3.22969H40.6307V2.51969H40.4707L40.4407 2.38969H41.9608L41.9507 2.37969ZM41.7607 3.37969V5.34969H40.6107V3.37969H41.7607ZM40.2607 2.33969L40.3408 2.65969H40.4707V3.22969H39.4507C39.7807 2.93969 39.5407 2.62969 39.5407 2.62969H40.1007L40.0308 2.32969H40.2607V2.33969ZM39.3507 3.10969C39.1107 3.28969 38.8807 3.12969 38.8807 3.12969C38.6207 2.92969 38.8007 2.69969 38.8007 2.69969C38.8607 2.62969 39.1007 2.47969 39.1007 2.47969C39.3407 2.62969 39.3707 2.65969 39.3707 2.65969C39.6207 2.89969 39.3607 3.10969 39.3607 3.10969H39.3507ZM38.3307 2.33969H39.8807L39.9107 2.46969H38.3007L38.3307 2.33969ZM38.0308 2.33969H38.1807L38.1007 2.63969H38.6607C38.6607 2.63969 38.4507 2.95969 38.7607 3.22969H37.8307V2.65969H37.9608L38.0407 2.33969H38.0308ZM36.7808 1.64969L36.6007 1.53969L36.7808 1.42969C36.8408 1.31969 36.9907 1.26969 36.9907 1.26969L37.1007 0.949688L37.2108 1.27969C37.3708 1.31969 37.4207 1.42969 37.4207 1.42969L37.6007 1.53969L37.4207 1.64969C37.3607 1.78969 37.1407 1.82969 37.1407 1.82969V2.18969H37.0607V1.82969C36.8307 1.77969 36.7808 1.65969 36.7808 1.65969V1.64969ZM37.8607 2.36969L37.8307 2.49969H37.6707V3.21969H36.5407V2.50969H36.3807L36.3507 2.37969H37.8707L37.8607 2.36969ZM37.6707 3.36969V5.33969H36.5308V3.36969H37.6707ZM36.1707 2.33969L36.2507 2.65969H36.3807V3.22969H35.3207C35.6307 2.93969 35.4107 2.62969 35.4107 2.62969H35.9707L35.9008 2.32969H36.1707V2.33969ZM35.2108 3.10969C34.9708 3.28969 34.7407 3.12969 34.7407 3.12969C34.4807 2.92969 34.6607 2.69969 34.6607 2.69969C34.7207 2.62969 34.9608 2.47969 34.9608 2.47969C35.2008 2.62969 35.2307 2.65969 35.2307 2.65969C35.4807 2.89969 35.2207 3.10969 35.2207 3.10969H35.2108ZM34.1907 2.33969H35.7407L35.7708 2.46969H34.1607L34.1907 2.33969ZM33.7307 2.33969H34.0308L33.9507 2.63969H34.5107C34.3007 2.97969 34.6007 3.22969 34.6007 3.22969H33.5208V2.65969H33.6508L33.7307 2.33969ZM32.4807 1.63969L32.3007 1.52969L32.4807 1.41969C32.5407 1.30969 32.6907 1.25969 32.6907 1.25969L32.8007 0.939686L32.9107 1.26969C33.0707 1.30969 33.1207 1.41969 33.1207 1.41969L33.3007 1.52969L33.1207 1.63969C33.0607 1.77969 32.8408 1.81969 32.8408 1.81969V2.17969H32.7607V1.81969C32.5307 1.76969 32.4807 1.64969 32.4807 1.64969V1.63969ZM33.5607 2.36969L33.5308 2.49969H33.3707V3.21969H32.2407V2.50969H32.0807L32.0507 2.37969H33.5707L33.5607 2.36969ZM33.3707 3.37969V5.34969H32.2207V3.37969H33.3707ZM31.8707 2.33969L31.9507 2.65969H32.0807V3.22969H31.0607C31.3907 2.93969 31.1508 2.62969 31.1508 2.62969H31.7108L31.6407 2.32969H31.8607L31.8707 2.33969ZM30.9608 3.10969C30.7208 3.28969 30.4907 3.12969 30.4907 3.12969C30.2307 2.92969 30.4107 2.69969 30.4107 2.69969C30.4707 2.62969 30.7108 2.47969 30.7108 2.47969C30.9508 2.62969 30.9807 2.65969 30.9807 2.65969C31.2307 2.89969 30.9707 3.10969 30.9707 3.10969H30.9608ZM29.9307 2.34969H31.4807L31.5107 2.47969H29.9008L29.9307 2.34969ZM29.6307 2.33969H29.7808L29.7007 2.63969H30.2607C30.2607 2.63969 30.0507 2.95969 30.3607 3.22969H29.4307V2.65969H29.5607L29.6407 2.33969H29.6307ZM28.3807 1.64969L28.2007 1.53969L28.3807 1.42969C28.4407 1.31969 28.5908 1.26969 28.5908 1.26969L28.7007 0.949688L28.8107 1.27969C28.9707 1.31969 29.0208 1.42969 29.0208 1.42969L29.2007 1.53969L29.0208 1.64969C28.9608 1.78969 28.7407 1.82969 28.7407 1.82969V2.18969H28.6607V1.82969C28.4307 1.77969 28.3807 1.65969 28.3807 1.65969V1.64969ZM29.4608 2.36969L29.4307 2.49969H29.2708V3.21969H28.1407V2.49969H27.9807L27.9507 2.36969H29.4807H29.4608ZM29.2708 3.37969V5.34969H28.1207V3.37969H29.2708ZM27.8807 2.65969H27.9707V3.23969H27.8807V2.65969ZM27.9707 3.38969V3.54969H26.9307L26.8408 3.39969H27.9707V3.38969ZM26.9807 1.98969C27.0007 1.91969 27.0807 1.91969 27.0807 1.91969C27.1807 1.91969 27.1907 1.99969 27.1907 1.99969C27.2007 2.04969 27.0908 2.10969 27.0908 2.10969C26.9508 2.02969 26.9807 1.99969 26.9807 1.99969V1.98969ZM26.9507 3.04969L26.9707 2.74969C26.7207 2.64969 26.7307 2.47969 26.7307 2.47969C26.7307 2.25969 26.9707 2.20969 26.9707 2.20969C27.0707 2.18969 27.0908 2.17969 27.0908 2.17969C27.1108 2.19969 27.1508 2.19969 27.1508 2.19969C27.4208 2.24969 27.4307 2.45969 27.4307 2.45969C27.4407 2.66969 27.1907 2.73969 27.1907 2.73969L27.2207 3.03969H27.3807V3.21969H26.7708V3.03969H26.9407L26.9507 3.04969ZM22.0908 1.98969C22.1108 1.91969 22.1907 1.91969 22.1907 1.91969C22.2907 1.91969 22.3007 1.99969 22.3007 1.99969C22.3107 2.04969 22.2007 2.10969 22.2007 2.10969C22.0607 2.02969 22.0908 1.99969 22.0908 1.99969V1.98969ZM22.0607 3.04969L22.0807 2.74969C21.8307 2.64969 21.8408 2.47969 21.8408 2.47969C21.8408 2.25969 22.0807 2.20969 22.0807 2.20969C22.1807 2.18969 22.2007 2.17969 22.2007 2.17969C22.2207 2.19969 22.2607 2.19969 22.2607 2.19969C22.5307 2.24969 22.5407 2.45969 22.5407 2.45969C22.5507 2.66969 22.3007 2.73969 22.3007 2.73969L22.3307 3.03969H22.4907V3.21969H21.8807V3.03969H22.0507L22.0607 3.04969ZM22.6307 3.39969L22.5507 3.56969H21.7907L21.7108 3.39969H22.6307ZM10.8107 1.96969C10.8307 1.89969 10.9107 1.89969 10.9107 1.89969C11.0107 1.89969 11.0208 1.97969 11.0208 1.97969C11.0308 2.02969 10.9207 2.08969 10.9207 2.08969C10.7807 2.00969 10.8107 1.97969 10.8107 1.97969V1.96969ZM10.7708 3.03969L10.7907 2.73969C10.5407 2.63969 10.5507 2.46969 10.5507 2.46969C10.5507 2.24969 10.7907 2.19969 10.7907 2.19969C10.8907 2.17969 10.9107 2.16969 10.9107 2.16969C10.9307 2.18969 10.9707 2.18969 10.9707 2.18969C11.2407 2.23969 11.2507 2.44969 11.2507 2.44969C11.2607 2.65969 11.0107 2.72969 11.0107 2.72969L11.0407 3.02969H11.2007V3.20969H10.5908V3.02969H10.7607L10.7708 3.03969ZM11.3807 3.37969L11.3007 3.54969H10.5407L10.4608 3.37969H11.3807ZM5.66074 1.96969C5.68074 1.89969 5.76074 1.89969 5.76074 1.89969C5.86074 1.89969 5.87073 1.97969 5.87073 1.97969C5.88073 2.02969 5.77072 2.08969 5.77072 2.08969C5.63072 2.00969 5.66074 1.97969 5.66074 1.97969V1.96969ZM5.63074 3.03969L5.65073 2.73969C5.40073 2.63969 5.41074 2.46969 5.41074 2.46969C5.41074 2.24969 5.65073 2.19969 5.65073 2.19969C5.75073 2.17969 5.77072 2.16969 5.77072 2.16969C5.79072 2.18969 5.83072 2.18969 5.83072 2.18969C6.10072 2.23969 6.11072 2.44969 6.11072 2.44969C6.12072 2.65969 5.87073 2.72969 5.87073 2.72969L5.90073 3.02969H6.06073V3.20969H5.45074V3.02969H5.62073L5.63074 3.03969ZM6.24072 3.37969L6.16074 3.54969H5.40073L5.32074 3.37969H6.24072ZM4.96072 3.37969H5.14075L5.29074 3.69969H6.24072L6.41074 3.37969H10.2808L10.4608 3.70969H11.4107L11.5707 3.37969H21.5507L21.6907 3.70969H22.6407L22.8207 3.37969H26.6607L26.8507 3.69969H27.9807V5.50969H29.4407V3.39969H32.0807V5.51969H33.5208V3.39969H36.3807V5.51969H37.8207V3.39969H40.4608V5.51969H41.9107V3.70969H43.0507L43.2307 3.38969H47.1007L47.2607 3.70969H48.2108L48.3607 3.37969H58.3707L58.5007 3.70969H59.4507L59.6107 3.38969H63.5007L63.6607 3.70969H64.6107L64.7607 3.37969H64.9107L64.6907 3.67969V5.77969H5.21072V3.65969L4.97073 3.38969L4.96072 3.37969ZM4.76074 5.93969H65.0208L64.9807 6.00969H4.79074L4.76074 5.93969ZM4.93073 6.87969L4.89075 6.84969V6.72969H4.93073V6.87969ZM9.76074 18.6297H9.14075V15.4397C9.02075 14.5097 7.99072 14.4997 7.99072 14.4997C6.79072 14.5697 6.82074 15.5097 6.82074 15.5097V18.6097H6.19073V11.7997H9.76074V18.6197V18.6297ZM14.0807 18.6397H13.4608V15.4497C13.3408 14.5197 12.3107 14.5097 12.3107 14.5097C11.1107 14.5797 11.1407 15.5197 11.1407 15.5197V18.6297H10.5107V11.8097H14.0807V18.6397ZM18.4107 18.6397H17.7907V15.4497C17.6707 14.5197 16.6407 14.5097 16.6407 14.5097C15.4407 14.5797 15.4707 15.5197 15.4707 15.5197V18.6197H14.8408V11.8097H18.4107V18.6297V18.6397ZM22.7307 18.6497H22.1107V15.4597C21.9907 14.5297 20.9608 14.5197 20.9608 14.5197C19.7608 14.5897 19.7907 15.5297 19.7907 15.5297V18.6397H19.1607V11.8197H22.7307V18.6497ZM27.0507 18.6297H26.4307V15.4497C26.3107 14.5197 25.2808 14.5097 25.2808 14.5097C24.0808 14.5697 24.1107 15.5197 24.1107 15.5197V18.6197H23.4807V11.8197H27.0507V18.6197V18.6297ZM32.2007 18.6197H31.6207V15.7097H29.8707V18.6197H29.2907V11.8197H32.2007V18.6197ZM36.4207 18.6397H36.0308V15.7097C35.8408 14.8497 34.9707 14.8797 34.9707 14.8797C33.9607 14.8797 33.9207 15.6897 33.9207 15.6897V18.6297H33.5107V11.8097H36.4307V18.6297L36.4207 18.6397ZM40.5807 18.6397H40.0007V15.7197H38.2507V18.6397H37.6707V11.8097H40.5807V18.6397ZM46.4608 18.6297H45.8408V15.4497C45.7208 14.5197 44.6907 14.5097 44.6907 14.5097C43.4907 14.5697 43.5208 15.5197 43.5208 15.5197V18.6197H42.8907V11.8197H46.4608V18.6197V18.6297ZM50.7907 18.6297H50.1707V15.4497C50.0507 14.5197 49.0208 14.5097 49.0208 14.5097C47.8208 14.5697 47.8507 15.5197 47.8507 15.5197V18.6197H47.2207V11.8197H50.7907V18.6197V18.6297ZM55.1107 18.6297H54.4907V15.4497C54.3707 14.5197 53.3408 14.5097 53.3408 14.5097C52.1408 14.5697 52.1707 15.5197 52.1707 15.5197V18.6197H51.5407V11.8197H55.1107V18.6197V18.6297ZM59.4207 18.6297H58.8007V15.4497C58.6807 14.5197 57.6508 14.5097 57.6508 14.5097C56.4508 14.5697 56.4807 15.5197 56.4807 15.5197V18.6197H55.8507V11.8197H59.4207V18.6197V18.6297ZM63.7507 18.6297H63.1307V15.4497C63.0107 14.5197 61.9807 14.5097 61.9807 14.5097C60.7807 14.5697 60.8107 15.5197 60.8107 15.5197V18.6197H60.1807V11.8197H63.7507V18.6197V18.6297ZM64.7507 18.6297H63.8907V11.6697H60.0107V18.6297H59.5607V11.6697H55.6907V18.6297H55.2407V11.6697H51.3707V18.6297H50.9207V11.6597H47.0507V18.6397H46.6007V11.6597H42.7207V18.6397H40.7307V11.6597H37.5208V18.6397H36.5607V11.6597H33.3507V18.6497H32.3408V11.6697H29.1307V18.6497H27.1807V11.6697H23.3107V18.6497H22.8607V11.6697H19.0007V18.6597H18.5407V11.6697H14.6707V18.6597H14.2207V11.6697H10.3507V18.6597H9.89075V11.6797H6.03073V18.6697H5.10074V6.74969H64.7407V18.6497L64.7507 18.6297ZM64.7808 6.57969H5.09073L4.87073 6.16969H64.9608L64.7708 6.57969H64.7808Z" fill="#323334"/>
</svg>
