<svg width="672" height="66" viewBox="0 0 672 66" fill="none" xmlns="http://www.w3.org/2000/svg">
<path d="M60.02 4.22021L29.17 32.9502L0.0499878 4.22021V64.1902H60.02V4.22021Z" fill="white"/>
<path d="M88.95 34.2L120.19 3.43994L119.23 64.1899L88.95 34.2Z" fill="white"/>
<path d="M204.17 32.0602C203.19 29.9202 201.26 28.8501 198.39 28.8501C195.06 28.8501 192.82 29.9202 191.67 32.0602C191.04 33.2802 190.73 35.1001 190.73 37.5101V64.1901H178.89V19.9401H190.24V26.4102C191.69 24.1102 193.05 22.4601 194.34 21.4901C196.61 19.7501 199.54 18.8901 203.15 18.8901C206.57 18.8901 209.32 19.6401 211.43 21.1301C213.12 22.5101 214.41 24.2901 215.28 26.4601C216.81 23.8601 218.71 21.9501 220.98 20.7301C223.38 19.5101 226.06 18.9001 229.01 18.9001C230.98 18.9001 232.92 19.2802 234.83 20.0402C236.74 20.8002 238.48 22.1302 240.04 24.0302C241.3 25.5702 242.14 27.4701 242.58 29.7201C242.85 31.2101 242.99 33.3901 242.99 36.2701L242.91 64.2101H230.94V35.9901C230.94 34.3101 230.67 32.9301 230.12 31.8401C229.08 29.7801 227.17 28.7501 224.38 28.7501C221.16 28.7501 218.93 30.0801 217.7 32.7401C217.07 34.1501 216.76 35.8401 216.76 37.8201V64.2101H205V37.8201C205 35.1901 204.73 33.2801 204.18 32.0901L204.17 32.0602Z" fill="white"/>
<path d="M282.37 57.9304C282.26 58.0704 281.99 58.4704 281.55 59.1504C281.11 59.8304 280.59 60.4203 279.99 60.9403C278.16 62.5703 276.39 63.6804 274.68 64.2704C272.97 64.8704 270.97 65.1704 268.68 65.1704C262.07 65.1704 257.61 62.8103 255.32 58.0903C254.04 55.4903 253.39 51.6503 253.39 46.5803V19.8604H265.36V46.5803C265.36 49.1003 265.66 51.0004 266.26 52.2704C267.33 54.5204 269.42 55.6504 272.53 55.6504C276.52 55.6504 279.25 54.0503 280.73 50.8503C281.49 49.1203 281.88 46.8203 281.88 43.9803V19.8604H293.72V64.1903H282.37V57.9304Z" fill="white"/>
<path d="M335.77 21.8901C339.27 24.1101 341.28 27.9401 341.79 33.3601H330.11C329.95 31.8701 329.52 30.6901 328.84 29.8201C327.56 28.2501 325.37 27.4601 322.28 27.4601C319.74 27.4601 317.93 27.8501 316.85 28.6401C315.77 29.4301 315.23 30.3502 315.23 31.4102C315.23 32.7402 315.8 33.7002 316.95 34.3002C318.1 34.9202 322.16 36.0001 329.12 37.5101C333.76 38.5901 337.25 40.2302 339.57 42.4302C341.86 44.6502 343.01 47.4301 343.01 50.7701C343.01 55.1601 341.36 58.7502 338.07 61.5302C334.78 64.3102 329.69 65.7001 322.8 65.7001C315.91 65.7001 310.59 64.2302 307.25 61.2902C303.9 58.3502 302.23 54.6002 302.23 50.0402H314.07C314.32 52.1002 314.85 53.5702 315.67 54.4302C317.12 55.9702 319.8 56.7501 323.7 56.7501C326 56.7501 327.82 56.4101 329.17 55.7301C330.52 55.0501 331.2 54.0402 331.2 52.6802C331.2 51.3202 330.65 50.3901 329.56 49.7101C328.47 49.0301 324.41 47.8701 317.39 46.2101C312.34 44.9601 308.77 43.4002 306.69 41.5302C304.61 39.6902 303.57 37.0302 303.57 33.5602C303.57 29.4702 305.19 25.9501 308.43 23.0101C311.67 20.0701 316.22 18.6001 322.1 18.6001C327.98 18.6001 332.22 19.7001 335.75 21.8901H335.77Z" fill="white"/>
<path d="M389.91 51.1803C389.61 53.8103 388.23 56.4802 385.77 59.1902C381.94 63.5002 376.59 65.6603 369.7 65.6603C364.02 65.6603 359 63.8402 354.66 60.2102C350.32 56.5802 348.14 50.6702 348.14 42.4802C348.14 34.8102 350.1 28.9202 354.02 24.8302C357.94 20.7402 363.03 18.6902 369.29 18.6902C373.01 18.6902 376.35 19.3803 379.33 20.7603C382.31 22.1403 384.77 24.3303 386.71 27.3103C388.46 29.9403 389.59 32.9902 390.11 36.4602C390.41 38.4902 390.53 41.4202 390.48 45.2502H359.91C360.07 49.7002 361.48 52.8102 364.13 54.6002C365.74 55.7102 367.68 56.2703 369.95 56.2703C372.35 56.2703 374.31 55.5902 375.81 54.2402C376.63 53.5102 377.35 52.4902 377.98 51.1902H389.91V51.1803ZM378.35 37.5902C378.16 34.5302 377.22 32.2002 375.54 30.6202C373.86 29.0402 371.78 28.2402 369.29 28.2402C366.58 28.2402 364.49 29.0803 363 30.7603C361.51 32.4403 360.58 34.7202 360.19 37.5902H378.35Z" fill="white"/>
<path d="M435.61 25.4701C439.38 30.1601 441.27 35.7101 441.27 42.1001C441.27 48.4901 439.39 54.1702 435.61 58.8002C431.84 63.4202 426.11 65.7301 418.44 65.7301C410.77 65.7301 405.04 63.4202 401.27 58.8002C397.5 54.1802 395.61 48.6101 395.61 42.1001C395.61 35.5901 397.5 30.1601 401.27 25.4701C405.04 20.7801 410.76 18.4302 418.44 18.4302C426.12 18.4302 431.84 20.7801 435.61 25.4701ZM418.39 28.2401C414.97 28.2401 412.35 29.4401 410.5 31.8401C408.66 34.2401 407.73 37.6601 407.73 42.1101C407.73 46.5601 408.65 49.9901 410.5 52.4001C412.35 54.8101 414.97 56.0201 418.39 56.0201C421.81 56.0201 424.43 54.8101 426.26 52.4001C428.09 49.9901 429.01 46.5601 429.01 42.1101C429.01 37.6601 428.09 34.2401 426.26 31.8401C424.43 29.4401 421.81 28.2401 418.39 28.2401Z" fill="white"/>
<path d="M490.61 64.1902H476.51L465.81 45.2402L460.97 50.2402V64.1902H449.49V4.4502H460.97V36.7402L475.52 20.0702H489.99L474.38 37.0303L490.61 64.2002V64.1902Z" fill="white"/>
<path d="M497.98 24.6603C501.07 20.7603 506.37 18.8003 513.88 18.8003C518.77 18.8003 523.11 19.7602 526.91 21.6902C530.71 23.6202 532.61 27.2502 532.61 32.5902V52.9203C532.61 54.3303 532.64 56.0403 532.69 58.0403C532.77 59.5603 533 60.5902 533.39 61.1302C533.77 61.6702 534.35 62.1202 535.11 62.4702V64.1803H522.4C522.04 63.2903 521.8 62.4503 521.66 61.6603C521.52 60.8703 521.41 59.9802 521.33 58.9802C519.72 60.7202 517.86 62.1903 515.76 63.4103C513.25 64.8503 510.4 65.5702 507.24 65.5702C503.2 65.5702 499.86 64.4202 497.22 62.1302C494.58 59.8402 493.26 56.5903 493.26 52.3903C493.26 46.9403 495.38 42.9903 499.61 40.5603C501.93 39.2303 505.35 38.2802 509.86 37.7102L513.84 37.2202C516 36.9502 517.54 36.6102 518.47 36.2002C520.14 35.5002 520.97 34.4003 520.97 32.9103C520.97 31.0903 520.33 29.8403 519.06 29.1503C517.79 28.4603 515.93 28.1102 513.47 28.1102C510.71 28.1102 508.76 28.7903 507.61 30.1403C506.79 31.1403 506.24 32.5002 505.97 34.2102H494.7C494.95 30.3302 496.04 27.1503 497.98 24.6503V24.6603ZM506.67 55.8103C507.76 56.7003 509.1 57.1503 510.69 57.1503C513.2 57.1503 515.52 56.4202 517.64 54.9502C519.76 53.4902 520.86 50.8202 520.94 46.9402V42.6302C520.2 43.0902 519.46 43.4602 518.71 43.7502C517.96 44.0302 516.93 44.3003 515.62 44.5403L513 45.0303C510.54 45.4603 508.78 45.9902 507.71 46.6202C505.91 47.6802 505.01 49.3203 505.01 51.5403C505.01 53.5203 505.57 54.9403 506.69 55.8103H506.67Z" fill="white"/>
<path d="M543.23 4.24023H554.91V64.1902H543.23V4.24023Z" fill="white"/>
<path d="M594.95 57.9304C594.84 58.0704 594.57 58.4704 594.13 59.1504C593.69 59.8304 593.17 60.4203 592.57 60.9403C590.74 62.5703 588.97 63.6804 587.26 64.2704C585.55 64.8704 583.55 65.1704 581.26 65.1704C574.65 65.1704 570.19 62.8103 567.9 58.0903C566.62 55.4903 565.97 51.6503 565.97 46.5803V19.8604H577.94V46.5803C577.94 49.1003 578.24 51.0004 578.84 52.2704C579.91 54.5204 582 55.6504 585.11 55.6504C589.1 55.6504 591.83 54.0503 593.31 50.8503C594.07 49.1203 594.46 46.8203 594.46 43.9803V19.8604H606.3V64.1903H594.95V57.9304Z" fill="white"/>
<path d="M652.04 64.1901H613.47V55.1602L636.38 29.2902H615.03V19.8501H651.26V29.4901L628.6 54.6602H652.04V64.1802V64.1901Z" fill="white"/>
<path d="M668.52 2.89014C670.19 4.56014 671.03 6.58006 671.03 8.94006C671.03 11.3001 670.17 13.4201 668.46 15.0801C666.8 16.6901 664.8 17.4901 662.47 17.4901C660.14 17.4901 658.03 16.6701 656.39 15.0201C654.75 13.3701 653.92 11.3401 653.92 8.94006C653.92 6.54006 654.81 4.36008 656.59 2.71008C658.26 1.16008 660.22 0.390137 662.48 0.390137C664.74 0.390137 666.86 1.23015 668.53 2.90015L668.52 2.89014ZM662.48 1.8501C660.51 1.8501 658.84 2.56011 657.45 3.99011C656.09 5.38011 655.41 7.04007 655.41 8.95007C655.41 10.8601 656.1 12.6201 657.49 14.0001C658.87 15.3901 660.53 16.0801 662.48 16.0801C664.43 16.0801 666.08 15.3801 667.46 13.9901C668.84 12.5901 669.53 10.9101 669.53 8.95007C669.53 6.99007 668.84 5.39011 667.47 3.99011C666.08 2.57011 664.42 1.8501 662.48 1.8501ZM661.21 10.3501V13.7101H658.73V4.22009C659.32 4.22009 660.2 4.22009 661.37 4.22009C662.54 4.22009 663.19 4.22011 663.33 4.24011C664.08 4.29011 664.7 4.4601 665.2 4.7301C666.04 5.1901 666.47 5.95011 666.47 6.99011C666.47 7.79011 666.25 8.36009 665.8 8.72009C665.35 9.08009 664.81 9.29011 664.16 9.36011C664.76 9.48011 665.2 9.67016 665.51 9.91016C666.07 10.3602 666.35 11.0702 666.35 12.0302V12.8801C666.35 12.9701 666.35 13.0702 666.37 13.1602C666.39 13.2502 666.4 13.3501 666.43 13.4401L666.51 13.7101H664.14C664.06 13.4101 664.01 12.9701 663.99 12.4001C663.97 11.8301 663.92 11.4401 663.84 11.2401C663.72 10.9101 663.48 10.6702 663.14 10.5402C662.95 10.4602 662.67 10.4101 662.29 10.3901L661.74 10.3601H661.22L661.21 10.3501ZM662.17 8.64014C662.75 8.64014 663.2 8.52016 663.53 8.29016C663.86 8.06016 664.02 7.68016 664.02 7.16016C664.02 6.64016 663.76 6.28008 663.25 6.08008C662.91 5.95008 662.43 5.88013 661.81 5.88013H661.21V8.63013H662.17V8.64014Z" fill="white"/>
</svg>
