<svg width="66" height="12" viewBox="0 0 66 12" fill="none" xmlns="http://www.w3.org/2000/svg">
<path d="M24.2398 7.5402V6.95021C24.2398 6.52021 24.2398 6.27021 24.2098 6.19021H24.2398C24.3698 6.45021 24.5498 6.6502 24.7798 6.7902C25.0198 6.9302 25.2998 7.00021 25.6098 7.00021C26.1598 7.00021 26.5898 6.79021 26.8998 6.38021C27.1998 5.97021 27.3598 5.3802 27.3598 4.6202C27.3598 3.8602 27.2198 3.29021 26.9198 2.88021C26.6298 2.47021 26.2198 2.27021 25.6898 2.27021C24.9898 2.27021 24.4998 2.55021 24.2398 3.11021H24.2198C24.2198 2.96021 24.2198 2.82021 24.2098 2.67021C24.1998 2.52021 24.1898 2.4202 24.1698 2.3702H23.0198C23.0398 2.6402 23.0498 2.99021 23.0498 3.42021V7.56021H21.0098C21.7798 6.95021 22.2198 6.02021 22.1998 5.02021C22.1598 3.31021 20.7198 1.94021 19.0098 1.97021C17.3098 2.00021 15.9398 3.39021 15.9398 5.10021C15.9398 6.07021 16.3698 6.96021 17.1198 7.55021H0.589842C0.489842 7.42021 0.289841 7.38021 0.139841 7.50021C0.0798413 7.55021 0.0298423 7.62021 0.0198423 7.70021C-0.0201577 7.91021 0.139842 8.09021 0.339842 8.09021C0.439842 8.09021 0.529842 8.05021 0.589842 7.97021H18.5798C18.6398 7.97021 18.6498 7.8902 18.5998 7.8702L17.9498 7.57022C16.9898 7.13022 16.3598 6.16021 16.3598 5.10021C16.3598 3.60021 17.5798 2.39021 19.0698 2.39021C20.6698 2.39021 21.9398 3.78021 21.7698 5.41021C21.6598 6.37021 21.0298 7.20021 20.1398 7.60021L19.5198 7.88021C19.4698 7.90021 19.4898 7.9802 19.5398 7.9802H23.0498V8.71022H24.2298V7.9802H65.6598V7.56021H24.2298L24.2398 7.5402ZM24.4698 3.49021C24.6398 3.22021 24.8798 3.08021 25.1898 3.08021C25.8098 3.08021 26.1298 3.59021 26.1298 4.61021C26.1298 5.63021 25.8098 6.1802 25.1798 6.1802C24.8698 6.1802 24.6298 6.05021 24.4698 5.78021C24.3098 5.51021 24.2198 5.13021 24.2198 4.64021C24.2198 4.15021 24.2998 3.76021 24.4698 3.49021Z" fill="#323334"/>
<path d="M19.53 7.15996C19.53 7.15996 19.59 7.15995 19.6 7.11995C19.6 7.09995 19.62 7.08996 19.64 7.07996C19.68 7.07996 19.72 7.05995 19.76 7.03995C19.8 7.01995 19.8 6.99996 19.79 6.95996C19.8 6.95996 19.81 6.95996 19.82 6.95996C19.9 6.95996 19.95 6.90996 19.99 6.84996C20.02 6.79996 20.06 6.77995 20.11 6.74995C20.13 6.73995 20.16 6.71996 20.12 6.68996V6.65996C20.14 6.63996 20.16 6.61995 20.18 6.60995C20.24 6.57995 20.31 6.55995 20.37 6.52995C20.39 6.52995 20.41 6.51996 20.41 6.48996C20.41 6.46996 20.43 6.44996 20.45 6.43996C20.49 6.38996 20.52 6.34995 20.51 6.27995C20.51 6.22995 20.51 6.17995 20.56 6.13995C20.59 6.10995 20.62 6.07995 20.65 6.03995C20.67 6.01995 20.68 5.98996 20.68 5.95996C20.68 5.92996 20.67 5.90995 20.64 5.89995C20.62 5.89995 20.59 5.86995 20.57 5.86995C20.52 5.86995 20.46 5.86995 20.41 5.86995H20.39C20.37 5.83995 20.35 5.83995 20.32 5.83995C20.3 5.83995 20.29 5.83995 20.28 5.83995C20.24 5.82995 20.21 5.81996 20.17 5.81996C20.17 5.70996 20.11 5.63996 20 5.62996C19.97 5.62996 19.94 5.62995 19.92 5.61995C19.9 5.61995 19.88 5.59995 19.86 5.58995C19.84 5.56995 19.81 5.56995 19.78 5.55995C19.76 5.55995 19.74 5.55995 19.75 5.52995C19.75 5.50995 19.68 5.47996 19.65 5.48996C19.58 5.50996 19.51 5.50996 19.44 5.48996C19.39 5.46996 19.35 5.48996 19.35 5.54996C19.35 5.54996 19.35 5.55996 19.35 5.56996C19.35 5.56996 19.35 5.56996 19.34 5.56996C19.34 5.54996 19.34 5.52996 19.34 5.51996C19.34 5.49996 19.35 5.48996 19.36 5.45996C19.34 5.46996 19.32 5.46995 19.31 5.47995C19.27 5.51995 19.2 5.51996 19.17 5.57996C19.17 5.58996 19.15 5.60996 19.14 5.62996C19.13 5.60996 19.12 5.58996 19.11 5.56996C19.11 5.53996 19.1 5.52995 19.07 5.53995C19.06 5.53995 19.04 5.54995 19.03 5.55995C18.99 5.57995 18.95 5.56995 18.91 5.53995C18.87 5.50995 18.87 5.46995 18.88 5.41995C18.89 5.37995 18.84 5.30996 18.8 5.29996C18.77 5.29996 18.73 5.29996 18.69 5.29996C18.71 5.23996 18.73 5.19995 18.75 5.14995C18.75 5.13995 18.75 5.11995 18.75 5.10995C18.75 5.08995 18.74 5.07995 18.72 5.08995C18.68 5.10995 18.63 5.11995 18.61 5.16995C18.61 5.17995 18.59 5.18996 18.57 5.18996C18.54 5.18996 18.51 5.18996 18.48 5.18996C18.44 5.18996 18.42 5.15996 18.39 5.12996C18.34 5.07996 18.35 5.01996 18.35 4.95996C18.35 4.94996 18.36 4.92995 18.38 4.91995C18.4 4.90995 18.41 4.88995 18.39 4.86995C18.39 4.86995 18.39 4.83995 18.4 4.83995C18.44 4.81995 18.47 4.79995 18.51 4.78995C18.52 4.78995 18.54 4.78995 18.54 4.78995C18.58 4.80995 18.61 4.82995 18.65 4.80995C18.67 4.80995 18.68 4.78995 18.69 4.77995C18.73 4.77995 18.77 4.77996 18.81 4.79996C18.83 4.80996 18.86 4.80996 18.89 4.81996C18.89 4.85996 18.89 4.90995 18.93 4.94995C18.95 4.96995 18.96 4.98995 18.99 4.97995C19.01 4.97995 19.01 4.91995 19 4.89995C18.99 4.85995 18.98 4.82995 18.97 4.78995C18.96 4.72995 19.01 4.68996 19.05 4.65996C19.07 4.64996 19.09 4.63996 19.1 4.62996C19.12 4.60996 19.14 4.59995 19.13 4.55995C19.12 4.51995 19.13 4.48996 19.18 4.48996C19.2 4.44996 19.22 4.40995 19.24 4.36995C19.24 4.36995 19.26 4.35995 19.27 4.35995C19.31 4.35995 19.33 4.32995 19.34 4.28995C19.34 4.26995 19.37 4.24996 19.38 4.23996C19.4 4.22996 19.42 4.21996 19.44 4.20996C19.44 4.22996 19.44 4.24996 19.44 4.26996C19.44 4.26996 19.44 4.26996 19.45 4.26996C19.48 4.24996 19.5 4.23996 19.53 4.21996C19.54 4.21996 19.55 4.19996 19.56 4.18996C19.62 4.13996 19.61 4.12996 19.54 4.09996C19.52 4.09996 19.5 4.07996 19.48 4.06996C19.49 4.04996 19.51 4.03995 19.52 4.02995C19.54 4.00995 19.52 3.98996 19.5 3.98996C19.48 3.98996 19.45 3.98995 19.43 3.99995C19.42 3.99995 19.41 4.01996 19.4 4.01996C19.39 4.02996 19.37 4.03996 19.36 4.04996C19.38 3.98996 19.43 3.95996 19.49 3.95996H19.52C19.52 3.95996 19.56 3.95996 19.58 3.95996C19.59 3.95996 19.61 3.94996 19.62 3.93996C19.62 3.93996 19.62 3.93995 19.62 3.92995V4.06996H19.85V3.88995H19.65C19.65 3.88995 19.66 3.86995 19.67 3.85995C19.69 3.82995 19.67 3.80996 19.65 3.79996C19.63 3.79996 19.62 3.77996 19.61 3.76996C19.58 3.75996 19.54 3.74996 19.51 3.73996C19.51 3.73996 19.5 3.71996 19.49 3.70996C19.47 3.66996 19.45 3.62995 19.42 3.58995C19.42 3.58995 19.42 3.56996 19.41 3.56996C19.38 3.57996 19.4 3.63995 19.35 3.61995C19.3 3.60995 19.29 3.58995 19.29 3.52995C19.32 3.52995 19.35 3.50995 19.38 3.49995C19.37 3.47995 19.36 3.46996 19.34 3.45996C19.36 3.45996 19.37 3.43995 19.39 3.42995C19.38 3.41995 19.36 3.40995 19.35 3.39995C19.33 3.38995 19.32 3.37995 19.3 3.35995C19.3 3.35995 19.3 3.35996 19.3 3.34996C19.32 3.35996 19.34 3.37995 19.37 3.38995C19.38 3.33995 19.37 3.29995 19.32 3.27995C19.29 3.26995 19.26 3.24996 19.26 3.20996C19.26 3.16996 19.25 3.13995 19.2 3.11995C19.18 3.10995 19.16 3.07996 19.13 3.06996C19.11 3.04996 19.08 3.03996 19.06 3.01996C19.08 2.97996 19.06 2.96996 18.99 2.95996C19.01 2.95996 19.02 2.95996 19.04 2.95996C19.1 2.96996 19.12 2.94995 19.13 2.88995C19.13 2.86995 19.15 2.84996 19.16 2.82996C19.16 2.82996 19.16 2.82996 19.16 2.81996C19.18 2.78996 19.19 2.75995 19.17 2.72995C19.17 2.71995 19.15 2.70996 19.13 2.70996C19.11 2.70996 19.09 2.70995 19.08 2.72995C19.04 2.74995 19 2.77995 18.97 2.80995C18.94 2.82995 18.95 2.86995 18.99 2.91995C18.97 2.91995 18.95 2.91995 18.94 2.91995H18.91C18.91 2.91995 18.91 2.94996 18.91 2.95996C18.91 2.96996 18.92 2.97996 18.93 2.98996C18.87 3.00996 18.83 3.04995 18.83 3.10995C18.83 3.11995 18.82 3.12995 18.81 3.13995C18.79 3.15995 18.78 3.17995 18.8 3.19995C18.82 3.23995 18.8 3.24995 18.77 3.25995C18.75 3.25995 18.73 3.25995 18.71 3.24995C18.67 3.23995 18.64 3.21995 18.6 3.19995C18.58 3.22995 18.55 3.22996 18.52 3.21996C18.5 3.21996 18.48 3.21996 18.46 3.21996C18.5 3.16996 18.46 3.14996 18.44 3.12996C18.44 3.11996 18.42 3.09995 18.42 3.08995C18.42 3.05995 18.4 3.04995 18.38 3.05995C18.34 3.05995 18.29 3.06996 18.25 3.07996C18.24 3.03996 18.23 2.99996 18.21 2.95996C18.19 2.91996 18.17 2.88996 18.12 2.90996C18.05 2.91996 17.97 2.92995 17.94 3.00995C17.91 2.97995 17.88 3.00995 17.85 3.00995C17.84 3.00995 17.83 3.03995 17.83 3.05995C17.79 3.06995 17.76 3.07995 17.72 3.08995C17.65 3.10995 17.62 3.15995 17.61 3.22995C17.61 3.24995 17.6 3.26996 17.58 3.26996C17.54 3.27996 17.51 3.28995 17.47 3.30995C17.47 3.30995 17.46 3.31996 17.46 3.32996C17.46 3.32996 17.47 3.34996 17.48 3.34996C17.52 3.34996 17.56 3.34996 17.6 3.32996C17.64 3.31996 17.67 3.29995 17.71 3.27995C17.72 3.30995 17.72 3.30995 17.8 3.27995C17.81 3.32995 17.83 3.36995 17.84 3.41995C17.84 3.44995 17.84 3.47995 17.83 3.50995C17.83 3.53995 17.83 3.57995 17.83 3.60995C17.83 3.61995 17.83 3.62995 17.83 3.63995C17.82 3.67995 17.8 3.72996 17.79 3.76996C17.79 3.77996 17.79 3.79996 17.79 3.81996C17.83 3.89996 17.79 3.96995 17.76 4.03995C17.75 4.05995 17.73 4.08995 17.72 4.10995C17.66 4.17995 17.69 4.26995 17.68 4.33995C17.68 4.35995 17.68 4.37995 17.68 4.39995C17.68 4.42995 17.68 4.45995 17.72 4.47995C17.74 4.47995 17.75 4.51995 17.75 4.53995C17.75 4.56995 17.75 4.58995 17.75 4.61995V4.63995C17.78 4.66995 17.78 4.70995 17.77 4.74995C17.77 4.75995 17.77 4.77995 17.78 4.78995C17.81 4.79995 17.82 4.82995 17.82 4.85995C17.82 4.88995 17.84 4.91995 17.85 4.94995C17.85 4.95995 17.87 4.96996 17.88 4.96996C17.88 4.95996 17.88 4.94996 17.89 4.93996C17.89 4.93996 17.89 4.91996 17.89 4.90996C17.88 4.87996 17.86 4.84996 17.86 4.81996C17.84 4.74996 17.83 4.68995 17.82 4.61995C17.85 4.61995 17.86 4.61996 17.85 4.65996C17.84 4.68996 17.85 4.70995 17.85 4.72995C17.9 4.77995 17.91 4.83995 17.94 4.89995C17.96 4.92995 17.98 4.95995 17.99 4.99995C18 5.01995 18.01 5.04996 18.01 5.06996C17.99 5.14996 18.04 5.19995 18.11 5.22995C18.17 5.25995 18.24 5.28996 18.3 5.31996C18.34 5.32996 18.38 5.33995 18.42 5.33995C18.45 5.33995 18.47 5.33995 18.49 5.35995C18.5 5.36995 18.52 5.37995 18.53 5.39995C18.56 5.43995 18.6 5.45996 18.64 5.45996C18.69 5.45996 18.7 5.50996 18.72 5.54996C18.72 5.56996 18.73 5.58996 18.75 5.59996C18.75 5.59996 18.77 5.61995 18.78 5.60995C18.8 5.60995 18.81 5.60996 18.82 5.62996C18.82 5.64996 18.84 5.64996 18.87 5.65996C18.89 5.65996 18.92 5.67996 18.94 5.68996C18.95 5.67996 18.97 5.65995 18.99 5.64995C19.02 5.62995 19.04 5.63995 19.05 5.66995C19.05 5.68995 19.07 5.70995 19.07 5.72995C19.07 5.77995 19.07 5.81995 19.01 5.85995C18.94 5.90995 18.92 5.98996 18.94 6.07996V6.09996C18.94 6.11996 18.92 6.13995 18.92 6.16995C18.92 6.19995 18.93 6.21996 18.97 6.23996C19.02 6.25996 19.07 6.28996 19.1 6.34996C19.1 6.36996 19.1 6.38995 19.11 6.39995V6.40996C19.16 6.45996 19.19 6.52995 19.27 6.53995C19.38 6.55995 19.38 6.55996 19.37 6.65996C19.37 6.73996 19.35 6.82996 19.34 6.90996C19.34 6.92996 19.32 6.94995 19.31 6.97995C19.31 6.97995 19.31 6.98995 19.3 6.99995C19.26 7.11995 19.23 7.23995 19.22 7.35995C19.22 7.35995 19.22 7.36996 19.22 7.37996C19.28 7.37996 19.34 7.37995 19.4 7.35995C19.4 7.35995 19.4 7.35996 19.41 7.34996C19.42 7.33996 19.42 7.31996 19.43 7.29996C19.43 7.29996 19.44 7.27996 19.45 7.26996C19.48 7.26996 19.49 7.23996 19.49 7.21996C19.49 7.18996 19.51 7.18996 19.53 7.18996V7.15996ZM18.83 4.09996C18.83 4.09996 18.76 4.06995 18.73 4.05995C18.75 4.04995 18.78 4.02996 18.8 4.01996C18.82 4.03996 18.85 4.06995 18.87 4.08995C18.86 4.08995 18.85 4.08995 18.83 4.08995V4.09996ZM18.86 3.06996C18.86 3.06996 18.86 3.05996 18.86 3.04996C18.87 3.02996 18.89 3.01995 18.91 2.99995C18.93 2.98995 18.95 2.97996 18.97 2.96996C18.97 2.96996 18.97 2.96995 18.97 2.97995C18.97 2.97995 18.96 2.98996 18.95 2.98996C18.91 2.99996 18.9 3.03996 18.89 3.07996C18.89 3.08996 18.9 3.10995 18.91 3.11995C18.95 3.16995 18.95 3.17995 18.91 3.22995C18.91 3.21995 18.91 3.20995 18.91 3.19995C18.91 3.18995 18.91 3.15995 18.88 3.16995C18.88 3.16995 18.86 3.14995 18.86 3.13995V3.05995V3.06996ZM18.71 3.48996C18.71 3.48996 18.76 3.45996 18.78 3.43996C18.78 3.43996 18.79 3.43996 18.8 3.43996C18.82 3.39996 18.87 3.39996 18.9 3.37996C18.9 3.37996 18.9 3.36995 18.89 3.35995C18.93 3.33995 18.97 3.32995 19 3.30995C19.03 3.29995 19.04 3.26996 19.03 3.23996C19.01 3.19996 19.03 3.16996 19.06 3.15996C19.07 3.15996 19.09 3.15995 19.1 3.17995C19.12 3.19995 19.13 3.21996 19.15 3.23996C19.16 3.25996 19.18 3.26995 19.15 3.28995C19.14 3.29995 19.14 3.31996 19.13 3.34996C19.13 3.34996 19.11 3.34996 19.1 3.34996C19.07 3.34996 19.05 3.38996 19.07 3.40996C19.07 3.40996 19.09 3.41996 19.1 3.40996C19.14 3.37996 19.16 3.40995 19.18 3.42995C19.18 3.42995 19.19 3.42996 19.2 3.43996C19.19 3.43996 19.18 3.43996 19.17 3.43996C19.11 3.43996 19.1 3.43995 19.08 3.49995C19.08 3.52995 19.06 3.55996 19.06 3.57996C19.06 3.59996 19.06 3.61996 19.08 3.62996C19.11 3.66996 19.11 3.71996 19.06 3.73996C19.03 3.74996 19.02 3.77995 19.03 3.80995V3.82996C19.03 3.84996 19.01 3.85996 19 3.87996C18.99 3.86996 18.98 3.85996 18.97 3.84996C18.97 3.82996 18.97 3.81996 18.97 3.79996C18.97 3.74996 18.97 3.72996 18.91 3.71996C18.88 3.71996 18.84 3.70995 18.82 3.66995C18.82 3.64995 18.78 3.63996 18.76 3.62996C18.75 3.62996 18.74 3.60995 18.73 3.58995C18.73 3.58995 18.73 3.56995 18.72 3.55995C18.69 3.52995 18.69 3.49996 18.72 3.46996L18.71 3.48996Z" fill="#323334"/>
<path d="M19.5702 5.18945H19.4902V5.23946H19.5702V5.18945Z" fill="#323334"/>
<path d="M19.4498 5.22977V5.14977H19.2198V5.00977H18.7998V5.17976H19.1798V5.22977H19.4498Z" fill="#323334"/>
<path d="M19.1495 5.18945H19.0195V5.24945H19.1495V5.18945Z" fill="#323334"/>
<path d="M1.21938 3.4095C1.21938 3.1395 1.19937 2.78949 1.13937 2.33949L3.71938 6.89949H5.16937V0.979492H4.06937V4.41949C4.06937 4.76949 4.09938 5.1495 4.14938 5.5795L1.52937 0.979492H0.109375V6.89949H1.20937V3.4095H1.21938Z" fill="#323334"/>
<path d="M7.79977 4.16005C7.21977 4.16005 6.76977 4.29004 6.46977 4.54004C6.15977 4.79004 6.00977 5.15004 6.00977 5.62004C6.00977 6.05004 6.12977 6.39005 6.37977 6.63005C6.62977 6.87005 6.96977 6.99005 7.40977 6.99005C8.07977 6.99005 8.57977 6.69005 8.90977 6.10005H8.93977C8.96977 6.38005 9.04977 6.60005 9.18977 6.74005C9.32977 6.89005 9.54977 6.96005 9.84977 6.96005C9.92977 6.96005 10.0098 6.96005 10.0698 6.96005C10.1298 6.96005 10.1898 6.95005 10.2498 6.94005C10.3098 6.94005 10.3598 6.92005 10.4198 6.91005C10.4798 6.90005 10.5398 6.88005 10.6098 6.86005V6.22005C10.5298 6.24005 10.4398 6.25005 10.3498 6.25005C10.2098 6.25005 10.1198 6.20005 10.0598 6.11005C9.99977 6.01005 9.96977 5.84005 9.96977 5.58005V3.92004C9.96977 3.40004 9.80977 3.00005 9.49977 2.71005C9.18977 2.43005 8.74977 2.29004 8.16977 2.29004C7.58977 2.29004 7.14977 2.40005 6.81977 2.63005C6.48977 2.86005 6.28977 3.19005 6.20977 3.64005L7.43977 3.70004C7.46977 3.47004 7.52977 3.31005 7.62977 3.21005C7.72977 3.11005 7.88977 3.06004 8.10977 3.06004C8.33977 3.06004 8.50977 3.13004 8.61977 3.28004C8.71977 3.42004 8.77977 3.64005 8.77977 3.94005V4.17004L7.79977 4.19005V4.16005ZM8.77977 5.03004C8.77977 5.23004 8.73977 5.42004 8.64977 5.59004C8.55977 5.77004 8.43977 5.91004 8.28977 6.01004C8.13977 6.11004 7.96977 6.16005 7.77977 6.16005C7.60977 6.16005 7.47977 6.11005 7.37977 6.00005C7.27977 5.89005 7.22977 5.73005 7.22977 5.52005C7.22977 5.35005 7.25977 5.22004 7.31977 5.12004C7.37977 5.02004 7.46977 4.94004 7.57977 4.90004C7.69977 4.85004 7.88977 4.82004 8.15977 4.81004H8.76977V5.03004H8.77977Z" fill="#323334"/>
<path d="M11.1396 3.36977V6.89977H12.3196V4.45978C12.3196 4.07978 12.4096 3.75978 12.5796 3.51978C12.7496 3.26978 12.9896 3.14977 13.2696 3.14977C13.8096 3.14977 14.0796 3.54978 14.0796 4.34978V6.89977H15.2596V4.00977C15.2596 3.43977 15.1296 2.99978 14.8696 2.70978C14.6096 2.40978 14.2396 2.25977 13.7596 2.25977C13.4296 2.25977 13.1396 2.33977 12.8996 2.49977C12.6596 2.65977 12.4596 2.90977 12.2996 3.25977H12.2796C12.2796 3.16977 12.2796 3.00977 12.2596 2.77977C12.2496 2.54977 12.2396 2.40978 12.2296 2.34978H11.0996C11.0996 2.46978 11.1196 2.60978 11.1196 2.76978C11.1196 2.92978 11.1296 3.11977 11.1296 3.36977H11.1396Z" fill="#323334"/>
<path d="M29.4996 4.46945C29.4996 4.08945 29.5896 3.76945 29.7596 3.52945C29.9296 3.27945 30.1696 3.15945 30.4496 3.15945C30.9896 3.15945 31.2596 3.55945 31.2596 4.35945V6.90945H32.4396V4.02945C32.4396 3.45945 32.3096 3.01945 32.0496 2.72945C31.7896 2.42945 31.4196 2.28944 30.9396 2.28944C30.6096 2.28944 30.3196 2.36945 30.0796 2.52945C29.8396 2.68945 29.6396 2.93944 29.4796 3.28944H29.4596C29.4796 2.99944 29.4896 2.69945 29.4896 2.38945V0.689453H28.3096V6.92944H29.4896V4.49945L29.4996 4.46945Z" fill="#323334"/>
<path d="M35.0195 4.16005C34.4395 4.16005 33.9895 4.29004 33.6895 4.54004C33.3795 4.79004 33.2295 5.15004 33.2295 5.62004C33.2295 6.05004 33.3495 6.39005 33.5995 6.63005C33.8495 6.87005 34.1895 6.99005 34.6295 6.99005C35.2995 6.99005 35.7995 6.69005 36.1295 6.10005H36.1595C36.1895 6.38005 36.2695 6.60005 36.4095 6.74005C36.5495 6.89005 36.7695 6.96005 37.0695 6.96005C37.1495 6.96005 37.2295 6.96005 37.2895 6.96005C37.3495 6.96005 37.4095 6.95005 37.4695 6.94005C37.5295 6.94005 37.5795 6.92005 37.6395 6.91005C37.6995 6.90005 37.7595 6.88005 37.8295 6.86005V6.22005C37.7495 6.24005 37.6595 6.25005 37.5695 6.25005C37.4395 6.25005 37.3395 6.20005 37.2795 6.11005C37.2195 6.01005 37.1895 5.84005 37.1895 5.58005V3.92004C37.1895 3.40004 37.0295 3.00005 36.7195 2.71005C36.4095 2.43005 35.9695 2.29004 35.3895 2.29004C34.8095 2.29004 34.3695 2.40005 34.0395 2.63005C33.7095 2.86005 33.5095 3.19005 33.4295 3.64005L34.6595 3.70004C34.6795 3.47004 34.7495 3.31005 34.8495 3.21005C34.9495 3.11005 35.1095 3.06004 35.3295 3.06004C35.5695 3.06004 35.7395 3.13004 35.8395 3.28004C35.9395 3.42004 35.9995 3.64005 35.9995 3.94005V4.17004L35.0195 4.19005V4.16005ZM35.9995 5.03004C35.9995 5.23004 35.9595 5.42004 35.8695 5.59004C35.7795 5.77004 35.6595 5.91004 35.5095 6.01004C35.3595 6.11004 35.1895 6.16005 34.9995 6.16005C34.8395 6.16005 34.6995 6.11005 34.5995 6.00005C34.4995 5.89005 34.4495 5.73005 34.4495 5.52005C34.4495 5.35005 34.4795 5.22004 34.5395 5.12004C34.5995 5.02004 34.6895 4.94004 34.7995 4.90004C34.9195 4.85004 35.1095 4.82004 35.3795 4.81004H35.9795V5.03004H35.9995Z" fill="#323334"/>
<path d="M38.3603 3.41977V6.89977H39.5403V4.66977C39.5403 4.19977 39.6203 3.84977 39.7903 3.60977C39.9503 3.36977 40.1803 3.24977 40.4803 3.24977C40.6303 3.24977 40.7903 3.26977 40.9803 3.30977V2.31978C40.8903 2.27978 40.7703 2.25977 40.6103 2.25977C40.4203 2.25977 40.2703 2.28978 40.1503 2.34978C40.0303 2.40978 39.9203 2.50977 39.8303 2.63977C39.7403 2.76977 39.6403 2.99977 39.5203 3.30977H39.5003C39.5003 3.22977 39.5003 3.05977 39.4803 2.79977C39.4603 2.53977 39.4503 2.38977 39.4503 2.33977H38.3203C38.3203 2.46977 38.3403 2.61977 38.3403 2.77977C38.3403 2.94977 38.3503 3.14977 38.3503 3.39977L38.3603 3.41977Z" fill="#323334"/>
<path d="M41.7094 3.36977V6.89977H42.8895V4.45978C42.8895 4.06978 42.9695 3.75977 43.1195 3.50977C43.2695 3.26977 43.4594 3.13977 43.6994 3.13977C44.1594 3.13977 44.3895 3.53977 44.3895 4.33977V6.88977H45.5594V4.39977C45.5694 4.00977 45.6495 3.69977 45.7995 3.47977C45.9495 3.25977 46.1295 3.14977 46.3695 3.14977C46.8295 3.14977 47.0594 3.54978 47.0594 4.34978V6.89977H48.2295V4.00977C48.2295 3.44977 48.1094 3.00978 47.8794 2.70978C47.6494 2.40978 47.3095 2.25977 46.8695 2.25977C46.5395 2.25977 46.2595 2.33978 46.0495 2.48978C45.8295 2.63978 45.6494 2.89977 45.4894 3.24977H45.4695C45.3195 2.58977 44.8994 2.25977 44.2094 2.25977C43.9094 2.25977 43.6495 2.33977 43.4295 2.49977C43.2095 2.65977 43.0295 2.90977 42.8895 3.25977H42.8695C42.8695 3.16977 42.8694 3.00977 42.8494 2.77977C42.8394 2.54977 42.8195 2.40978 42.8195 2.34978H41.6895C41.6895 2.46978 41.7094 2.60978 41.7094 2.76978C41.7094 2.92978 41.7094 3.11977 41.7094 3.36977Z" fill="#323334"/>
<path d="M50.7998 4.16005C50.2198 4.16005 49.7698 4.29004 49.4698 4.54004C49.1598 4.79004 49.0098 5.15004 49.0098 5.62004C49.0098 6.05004 49.1298 6.39005 49.3798 6.63005C49.6298 6.87005 49.9698 6.99005 50.4098 6.99005C51.0798 6.99005 51.5798 6.69005 51.9098 6.10005H51.9398C51.9698 6.38005 52.0498 6.60005 52.1898 6.74005C52.3298 6.89005 52.5498 6.96005 52.8498 6.96005C52.9298 6.96005 53.0098 6.96005 53.0698 6.96005C53.1298 6.96005 53.1898 6.95005 53.2498 6.94005C53.3098 6.94005 53.3598 6.92005 53.4198 6.91005C53.4798 6.90005 53.5398 6.88005 53.6098 6.86005V6.22005C53.5298 6.24005 53.4398 6.25005 53.3498 6.25005C53.2198 6.25005 53.1198 6.20005 53.0598 6.11005C52.9998 6.01005 52.9698 5.84005 52.9698 5.58005V3.92004C52.9698 3.40004 52.8198 3.00005 52.4998 2.71005C52.1898 2.43005 51.7498 2.29004 51.1698 2.29004C50.5898 2.29004 50.1498 2.40005 49.8198 2.63005C49.4898 2.86005 49.2898 3.19005 49.2098 3.64005L50.4398 3.70004C50.4698 3.47004 50.5298 3.31005 50.6298 3.21005C50.7298 3.11005 50.8898 3.06004 51.1098 3.06004C51.3498 3.06004 51.5198 3.13004 51.6198 3.28004C51.7198 3.42004 51.7798 3.64005 51.7798 3.94005V4.17004L50.7998 4.19005V4.16005ZM51.7798 5.03004C51.7798 5.23004 51.7398 5.42004 51.6498 5.59004C51.5598 5.77004 51.4398 5.91004 51.2898 6.01004C51.1398 6.11004 50.9698 6.16005 50.7798 6.16005C50.6098 6.16005 50.4798 6.11005 50.3798 6.00005C50.2798 5.89005 50.2298 5.73005 50.2298 5.52005C50.2298 5.35005 50.2598 5.22004 50.3198 5.12004C50.3798 5.02004 50.4698 4.94004 50.5798 4.90004C50.6998 4.85004 50.8898 4.82004 51.1598 4.81004H51.7698V5.03004H51.7798Z" fill="#323334"/>
<path d="M56.0401 6.97952C56.4101 6.97952 56.7401 6.90953 57.0301 6.77953C57.3201 6.64953 57.5601 6.45953 57.7401 6.20953C57.9201 5.96953 58.0301 5.68953 58.0701 5.37953L56.8901 5.32953C56.8501 5.60953 56.7601 5.81953 56.6101 5.95953C56.4601 6.09953 56.2701 6.16953 56.0501 6.16953C55.4301 6.16953 55.1201 5.64953 55.1201 4.59953C55.1201 3.54953 55.4201 3.06953 56.0301 3.06953C56.2801 3.06953 56.4701 3.13953 56.6001 3.27953C56.7401 3.41953 56.8201 3.59952 56.8501 3.83952L58.0401 3.77953C57.9501 3.30953 57.7301 2.93953 57.3801 2.66953C57.0301 2.39953 56.5901 2.26953 56.0501 2.26953C55.3601 2.26953 54.8201 2.47952 54.4401 2.89952C54.0601 3.31952 53.8701 3.89952 53.8701 4.64952C53.8701 5.39952 54.0601 5.95952 54.4301 6.36952C54.8101 6.77952 55.3401 6.98953 56.0301 6.98953L56.0401 6.97952Z" fill="#323334"/>
<path d="M60.1097 2.34961H58.9297V6.8996H60.1097V2.34961Z" fill="#323334"/>
<path d="M60.1097 0.669922H58.9297V1.53992H60.1097V0.669922Z" fill="#323334"/>
<path d="M62.7695 4.16005C62.1895 4.16005 61.7395 4.29004 61.4395 4.54004C61.1295 4.79004 60.9795 5.15004 60.9795 5.62004C60.9795 6.05004 61.0995 6.39005 61.3495 6.63005C61.5995 6.87005 61.9395 6.99005 62.3795 6.99005C63.0495 6.99005 63.5495 6.69005 63.8795 6.10005H63.8995C63.9295 6.38005 64.0095 6.60005 64.1495 6.74005C64.2895 6.89005 64.5095 6.96005 64.8095 6.96005C64.8995 6.96005 64.9695 6.96005 65.0295 6.96005C65.0895 6.96005 65.1495 6.95005 65.2095 6.94005C65.2695 6.94005 65.3195 6.92005 65.3795 6.91005C65.4395 6.90005 65.4995 6.88005 65.5695 6.86005V6.22005C65.4895 6.24005 65.3995 6.25005 65.3095 6.25005C65.1695 6.25005 65.0795 6.20005 65.0195 6.11005C64.9595 6.01005 64.9295 5.84005 64.9295 5.58005V3.92004C64.9295 3.40004 64.7695 3.00005 64.4595 2.71005C64.1495 2.43005 63.7095 2.29004 63.1295 2.29004C62.5495 2.29004 62.1095 2.40005 61.7795 2.63005C61.4495 2.86005 61.2495 3.19005 61.1695 3.64005L62.3995 3.70004C62.4295 3.47004 62.4895 3.31005 62.5895 3.21005C62.6895 3.11005 62.8495 3.06004 63.0695 3.06004C63.3095 3.06004 63.4695 3.13004 63.5795 3.28004C63.6795 3.42004 63.7395 3.64005 63.7395 3.94005V4.17004L62.7595 4.19005L62.7695 4.16005ZM63.7495 5.03004C63.7495 5.23004 63.7095 5.42004 63.6195 5.59004C63.5295 5.77004 63.4095 5.91004 63.2595 6.01004C63.1095 6.11004 62.9395 6.16005 62.7495 6.16005C62.5795 6.16005 62.4495 6.11005 62.3495 6.00005C62.2495 5.89005 62.1995 5.73005 62.1995 5.52005C62.1995 5.35005 62.2295 5.22004 62.2895 5.12004C62.3495 5.02004 62.4395 4.94004 62.5495 4.90004C62.6695 4.85004 62.8595 4.82004 63.1395 4.81004H63.7395V5.03004H63.7495Z" fill="#323334"/>
<path d="M39.3103 9.17015H38.3203V11.8902H39.4203C39.6803 11.8902 39.9103 11.8302 40.1103 11.7202C40.3103 11.6102 40.4703 11.4502 40.5803 11.2402C40.6903 11.0302 40.7503 10.7802 40.7503 10.5002C40.7503 10.0702 40.6203 9.74015 40.3703 9.51015C40.1203 9.28015 39.7603 9.16016 39.3003 9.16016L39.3103 9.17015ZM39.9603 11.2001C39.8203 11.3701 39.6203 11.4501 39.3803 11.4501H38.9003V9.61015H39.3003C39.5803 9.61015 39.8003 9.69015 39.9503 9.84015C40.1003 9.99015 40.1803 10.2201 40.1803 10.5101C40.1803 10.8001 40.1103 11.0301 39.9603 11.2001Z" fill="#323334"/>
<path d="M41.7497 9.16992H41.1797V11.8899H41.7497V9.16992Z" fill="#323334"/>
<path d="M43.1101 9.16992L42.1201 11.8899H42.6901L42.9301 11.1899H43.9701L44.2101 11.8899H44.7701L43.7801 9.16992H43.1101ZM43.0601 10.7699C43.2601 10.1799 43.3701 9.84992 43.3901 9.78992C43.4101 9.72992 43.4201 9.67993 43.4401 9.62993V9.58992L43.4901 9.71992L43.5701 9.97992L43.8401 10.7599H43.0601V10.7699Z" fill="#323334"/>
<path d="M46.5198 10.8797H47.1898V11.2596C47.1098 11.3296 47.0098 11.3796 46.8698 11.4296C46.7298 11.4696 46.5898 11.4897 46.4398 11.4897C46.1798 11.4897 45.9798 11.4097 45.8298 11.2397C45.6898 11.0697 45.6098 10.8296 45.6098 10.5296C45.6098 10.2296 45.6798 9.98965 45.8198 9.82965C45.9598 9.66965 46.1598 9.58965 46.4298 9.58965C46.5898 9.58965 46.7398 9.62965 46.8598 9.69965C46.9798 9.76965 47.0698 9.86964 47.1298 10.0096L47.6598 9.84966C47.4898 9.37966 47.0798 9.13965 46.4398 9.13965C45.9898 9.13965 45.6498 9.25965 45.4098 9.49965C45.1698 9.73965 45.0498 10.0796 45.0498 10.5296C45.0498 10.9796 45.1698 11.3297 45.4098 11.5697C45.6498 11.8197 45.9898 11.9397 46.4298 11.9397C46.6798 11.9397 46.9298 11.8996 47.1598 11.8096C47.3898 11.7296 47.5798 11.6097 47.7198 11.4597V10.4597H46.5298V10.8797H46.5198Z" fill="#323334"/>
<path d="M50.0395 10.7499C50.0395 10.9099 50.0495 11.0899 50.0795 11.2799L48.8795 9.16992H48.2295V11.8899H48.7395V10.2799C48.7395 10.1599 48.7295 9.98992 48.7095 9.78992L49.8995 11.8899H50.5695V9.16992H50.0595V10.7499H50.0395Z" fill="#323334"/>
<path d="M52.3495 9.12988C51.9195 9.12988 51.5795 9.24988 51.3395 9.49988C51.0995 9.73988 50.9795 10.0899 50.9795 10.5199C50.9795 10.9499 51.0995 11.2999 51.3395 11.5599C51.5795 11.8099 51.9195 11.9399 52.3495 11.9399C52.6295 11.9399 52.8695 11.8799 53.0795 11.7699C53.2895 11.6599 53.4495 11.4899 53.5595 11.2799C53.6695 11.0699 53.7295 10.8199 53.7295 10.5299C53.7295 10.0999 53.6095 9.75987 53.3695 9.50987C53.1295 9.25987 52.7895 9.13988 52.3595 9.13988L52.3495 9.12988ZM52.9395 11.2299C52.7995 11.3999 52.6095 11.4799 52.3495 11.4799C52.0895 11.4799 51.9095 11.3899 51.7695 11.2199C51.6295 11.0499 51.5595 10.8099 51.5595 10.5099C51.5595 10.2099 51.6295 9.97989 51.7695 9.81989C51.9095 9.64989 52.1095 9.56989 52.3595 9.56989C52.6095 9.56989 52.8095 9.64989 52.9495 9.81989C53.0895 9.98989 53.1595 10.2199 53.1595 10.5099C53.1595 10.7999 53.0895 11.0599 52.9495 11.2199L52.9395 11.2299Z" fill="#323334"/>
<path d="M53.0095 8.46965V8.38965H52.5095L52.0195 8.87965V8.93965H52.3495L53.0095 8.46965Z" fill="#323334"/>
<path d="M56.18 10.5901C56.11 10.5301 56.03 10.4701 55.91 10.4301C55.8 10.3801 55.61 10.3302 55.35 10.2802C55.13 10.2302 54.98 10.1902 54.91 10.1602C54.84 10.1302 54.78 10.0902 54.75 10.0502C54.71 10.0102 54.69 9.95016 54.69 9.88016C54.69 9.66016 54.86 9.56015 55.21 9.56015C55.37 9.56015 55.5 9.59015 55.58 9.65015C55.66 9.71015 55.72 9.80015 55.75 9.92015L56.3 9.84015C56.25 9.60015 56.14 9.42016 55.97 9.32016C55.8 9.21016 55.55 9.16016 55.21 9.16016C54.87 9.16016 54.59 9.23015 54.4 9.36015C54.22 9.49015 54.12 9.68015 54.12 9.93015C54.12 10.0301 54.13 10.1102 54.16 10.1902C54.19 10.2602 54.22 10.3302 54.27 10.3902C54.31 10.4502 54.37 10.4902 54.43 10.5302C54.49 10.5702 54.57 10.6002 54.65 10.6302C54.73 10.6602 54.87 10.7002 55.08 10.7502C55.32 10.8002 55.47 10.8401 55.56 10.8701C55.64 10.9001 55.71 10.9502 55.75 11.0002C55.8 11.0502 55.82 11.1102 55.82 11.1902C55.82 11.4302 55.62 11.5502 55.22 11.5502C55.03 11.5502 54.88 11.5201 54.77 11.4501C54.66 11.3801 54.59 11.2802 54.55 11.1402L54 11.2301C54.06 11.4801 54.18 11.6701 54.38 11.7901C54.58 11.9101 54.85 11.9801 55.2 11.9801C55.58 11.9801 55.87 11.9102 56.07 11.7702C56.27 11.6302 56.37 11.4302 56.37 11.1602C56.37 11.0502 56.35 10.9502 56.32 10.8602C56.29 10.7702 56.23 10.7002 56.17 10.6402L56.18 10.5901Z" fill="#323334"/>
<path d="M56.5801 9.60992H57.4601V11.8899H58.0301V9.60992H58.9101V9.16992H56.5801V9.60992Z" fill="#323334"/>
<path d="M59.7897 9.16992H59.2197V11.8899H59.7897V9.16992Z" fill="#323334"/>
<path d="M61.5897 11.4801C61.3297 11.4801 61.1297 11.4001 60.9997 11.2301C60.8597 11.0601 60.7897 10.8301 60.7897 10.5101C60.7897 10.1901 60.8597 9.97012 60.9897 9.81012C61.1197 9.65012 61.3197 9.57013 61.5797 9.57013C61.7497 9.57013 61.8997 9.61012 62.0197 9.69012C62.1397 9.77012 62.2297 9.88013 62.2697 10.0201L62.7697 9.88013C62.6897 9.63013 62.5497 9.44012 62.3497 9.31012C62.1497 9.18012 61.8897 9.12012 61.5697 9.12012C61.1297 9.12012 60.7997 9.24012 60.5697 9.48012C60.3397 9.72012 60.2197 10.0601 60.2197 10.5101C60.2197 10.9601 60.3397 11.3001 60.5797 11.5501C60.8197 11.8001 61.1597 11.9201 61.5997 11.9201C61.8897 11.9201 62.1397 11.8601 62.3397 11.7301C62.5497 11.6001 62.6997 11.4101 62.8097 11.1401L62.3097 10.9501C62.1797 11.2901 61.9397 11.4701 61.5897 11.4701V11.4801Z" fill="#323334"/>
<path d="M63.9998 9.16992L63.0098 11.8899H63.5798L63.8198 11.1899H64.8598L65.0998 11.8899H65.6598L64.6698 9.16992H63.9998ZM63.9498 10.7699C64.1498 10.1799 64.2598 9.84992 64.2798 9.78992C64.2998 9.72992 64.3098 9.67993 64.3298 9.62993V9.58992L64.3798 9.71992L64.4598 9.97992L64.7298 10.7599H63.9498V10.7699Z" fill="#323334"/>
</svg>
