<svg width="75" height="24" viewBox="0 0 75 24" fill="none" xmlns="http://www.w3.org/2000/svg">
<path d="M37.2003 4.53027C36.8203 4.53027 36.4303 4.55028 36.0303 4.58028L37.4303 6.26027V6.21028C37.2603 5.82028 37.1803 5.39028 37.1803 4.91028C37.1803 4.78028 37.1803 4.65027 37.2003 4.53027Z" fill="#323334"/>
<path d="M44.0998 1.62047C43.2498 0.690468 42.1298 0.230469 40.7298 0.230469C40.2198 0.230469 39.7198 0.290466 39.2298 0.430466C38.7398 0.560466 37.6198 0.900467 37.6198 0.900467C37.6198 0.900467 36.5598 0.560466 36.0698 0.430466C35.5798 0.290466 35.0798 0.230469 34.5698 0.230469C33.1698 0.230469 32.0498 0.690468 31.1998 1.62047C30.4298 2.46047 30.0498 3.48047 30.0498 4.65047C30.0498 5.99047 30.5298 7.05048 31.4998 7.85048C32.3798 8.57048 37.4598 11.8505 37.6498 11.7605C37.8298 11.8505 42.9198 8.57048 43.7998 7.85048C44.7698 7.05048 45.2498 5.99047 45.2498 4.65047C45.2498 3.47047 44.8698 2.46047 44.0998 1.62047ZM38.0498 2.62047C38.6898 1.92047 39.5398 1.57048 40.5998 1.57048C40.9798 1.57048 41.3598 1.62047 41.7298 1.72047C42.0998 1.82047 42.3098 1.88048 42.3698 1.88048C42.5098 1.88048 42.6098 1.85048 42.6698 1.80048C42.7298 1.75048 42.7798 1.67048 42.8198 1.57048H43.0398L43.1198 3.58047H42.8998C42.6998 3.12047 42.4798 2.77047 42.2698 2.54047C41.8798 2.14047 41.3698 1.94048 40.7498 1.94048C40.1298 1.94048 39.5598 2.18047 39.0798 2.64047C38.8298 2.89047 38.6398 3.22048 38.5198 3.63048C38.1298 3.63048 37.7598 3.63047 37.4098 3.65047C37.5498 3.27047 37.7698 2.92047 38.0598 2.61047L38.0498 2.62047ZM43.1998 6.76047H42.2398V6.46048H43.1998V6.76047ZM43.1998 6.24048H42.2398V5.94048H43.1998V6.24048ZM43.1998 5.71048H42.2398V5.50047C42.2398 5.09047 40.5998 4.65048 38.3598 4.55048C38.3598 4.68048 38.3498 4.81047 38.3498 4.95047C38.3498 5.84047 38.5898 6.52048 39.0698 7.02048C39.5498 7.51048 40.1398 7.76047 40.8398 7.76047C40.9598 7.76047 41.0998 7.75047 41.2598 7.73047C41.4198 7.71047 41.5698 7.67048 41.7098 7.63048C41.9498 7.55048 42.0898 7.49047 42.1498 7.43047C42.2098 7.37047 42.2298 7.29048 42.2298 7.19048V6.99048H43.1898V7.42047C43.1898 7.53047 42.9098 7.68047 42.3398 7.87047C41.7698 8.06047 41.2298 8.15047 40.6998 8.15047C39.7298 8.15047 38.9198 7.88047 38.2598 7.33047C38.1098 7.20047 37.9698 7.07047 37.8498 6.93047V8.13048H37.6798L34.8198 4.70047C34.3198 4.76047 33.8098 4.85047 33.3098 4.95047V8.02048H32.8798V5.05048C32.2798 5.19048 31.6798 5.37047 31.0998 5.59047C31.1098 5.50047 31.0998 5.27048 31.0998 5.27048H31.1198C31.7098 5.03048 32.2998 4.83048 32.8798 4.66048V2.39047L32.7498 2.23047C32.6098 2.07047 32.4798 1.96047 32.3798 1.92047C32.2798 1.88047 32.1298 1.86048 31.9198 1.85048V1.67047H32.9798C32.9798 1.67047 33.2798 1.67047 33.5098 1.76047C33.7298 1.86047 33.9498 2.08047 33.9498 2.08047L35.4498 3.89047C34.9698 3.98047 34.6098 4.08047 34.3698 4.14047L33.3098 2.87047V4.53047C33.5698 4.46047 33.8298 4.40048 34.0798 4.35048C34.2098 4.32048 34.3398 4.30048 34.4698 4.27048C34.6498 4.23048 34.8298 4.20047 34.9998 4.17047C35.0298 4.17047 35.0598 4.16048 35.0898 4.16048C35.2598 4.13048 35.4198 4.11047 35.5798 4.09047C35.5798 4.09047 35.5898 4.09047 35.5998 4.09047C35.6298 4.09047 35.6598 4.09047 35.6798 4.08047C35.6998 4.08047 35.7198 4.08047 35.7398 4.08047C35.8398 4.07047 35.9398 4.06048 36.0398 4.05048C36.0998 4.05048 36.1598 4.04047 36.2098 4.03047C36.2898 4.03047 36.3698 4.01047 36.4498 4.01047C36.5298 4.01047 36.6098 4.00048 36.6898 3.99048C36.7498 3.99048 36.8198 3.99047 36.8798 3.98047C36.9998 3.98047 37.1198 3.97048 37.2298 3.96048C37.2498 3.96048 37.2798 3.96048 37.2998 3.96048C37.7898 3.95048 37.9398 3.93047 38.4198 3.95047C38.5798 3.95047 38.7298 3.95048 38.8798 3.96048C38.8798 3.96048 38.8798 3.96048 38.8898 3.96048C39.0298 3.96048 39.1698 3.97047 39.3098 3.98047C39.3198 3.98047 39.3298 3.98047 39.3498 3.98047C39.4798 3.98047 39.5998 4.00047 39.7198 4.01047C39.7398 4.01047 39.7598 4.01047 39.7798 4.01047C39.8998 4.02047 40.0298 4.03048 40.1398 4.05048C41.7398 4.23048 42.7998 4.59047 42.9798 4.81047C43.1198 4.98047 43.1698 5.23047 43.1698 5.53047C43.1698 5.53047 43.1698 5.55047 43.1698 5.56047V5.74048L43.1998 5.71048Z" fill="#323334"/>
<path d="M1.4502 23.0309V17.1409L1.3102 16.9709C1.1602 16.7909 1.0302 16.6809 0.920197 16.6409C0.810197 16.6009 0.660195 16.5809 0.450195 16.5709V16.3809H1.5602C1.5602 16.3809 1.8702 16.3809 2.1102 16.4809C2.3402 16.5809 2.57021 16.8209 2.57021 16.8209L6.1902 21.3009V16.3809H6.6402V23.3109H6.46021L1.9102 17.6709V23.1909H1.4502V23.0309Z" fill="#323334"/>
<path d="M8.39062 23.1908L11.3406 16.2607H11.5506L14.1106 22.0907C14.2806 22.4807 14.4206 22.7107 14.5206 22.8107C14.6206 22.9007 14.7906 22.9607 15.0406 23.0007V23.1908H14.2606C14.2606 23.1908 13.8606 23.2007 13.5506 22.9707C13.2406 22.7507 13.1606 22.4707 13.1606 22.4707L12.5406 20.9608H9.82063C9.55063 21.6308 8.96063 23.1908 8.96063 23.1908H8.40062H8.39062ZM12.3506 20.5508L11.1706 17.7207L9.98062 20.5508H12.3406H12.3506Z" fill="#323334"/>
<path d="M35.2598 23.1908L38.2098 16.2607H38.4198L40.9898 22.0907C41.1598 22.4807 41.2998 22.7107 41.3998 22.8107C41.4998 22.9007 41.6698 22.9607 41.9198 23.0007V23.1908H41.1398C41.1398 23.1908 40.7298 23.2007 40.4298 22.9707C40.1198 22.7507 40.0398 22.4707 40.0398 22.4707L39.4198 20.9608H36.7098C36.4398 21.6308 35.8498 23.1908 35.8498 23.1908H35.2898H35.2598ZM39.2198 20.5508L38.0398 17.7207L36.8598 20.5508H39.2198Z" fill="#323334"/>
<path d="M21.5897 16.3809C21.5897 16.3809 22.0397 16.4009 22.2497 16.5709C22.4497 16.7309 22.4597 17.1209 22.4597 17.5009V20.7908C22.4597 21.3308 22.5297 21.7509 22.6797 22.0509C22.9497 22.6009 23.4697 22.8708 24.2397 22.8708C25.0797 22.8708 25.6497 22.5909 25.9297 22.0309C26.0897 21.7109 26.1697 21.2309 26.1697 20.5709V16.3809H26.6197V20.5709C26.6197 21.2809 26.5097 21.8409 26.2897 22.2309C25.8897 22.9609 25.1197 23.3309 23.9997 23.3309C22.8797 23.3309 22.1297 22.9709 21.7297 22.2509C21.5097 21.8609 21.3997 21.3509 21.3997 20.7109V17.4909C21.3997 17.1109 21.3397 16.8709 21.2297 16.7709C21.1197 16.6709 20.8597 16.6009 20.4697 16.5709V16.3809H21.5797H21.5897Z" fill="#323334"/>
<path d="M60.1302 23.1909V17.5009C60.1302 17.1209 60.1302 16.7409 59.9202 16.5709C59.7202 16.4009 59.2702 16.3809 59.2702 16.3809H58.1602V16.5709C58.5402 16.6009 58.8002 16.6709 58.9102 16.7709C58.9102 16.7709 58.9201 16.7808 58.9301 16.7908C59.0301 16.9108 59.0802 17.1409 59.0802 17.4909V23.1808H60.1302V23.1909Z" fill="#323334"/>
<path d="M57.0603 20.5007C57.0603 20.1807 57.0403 19.8707 56.8603 19.7307C56.6603 19.5707 56.2303 19.5508 56.2303 19.5508H55.1503V19.7408C55.5103 19.7608 55.7503 19.8208 55.8703 19.9108C55.8703 19.9108 55.8903 19.9107 55.8903 19.9207C55.8903 19.9207 55.8903 19.9207 55.9003 19.9307C55.9103 19.9407 55.9203 19.9508 55.9303 19.9608C56.0103 20.0808 56.0503 20.3008 56.0603 20.6308V21.3208V22.2907C56.0603 22.4007 56.0303 22.4908 55.9703 22.5508C55.9103 22.6108 55.7603 22.6707 55.5103 22.7607C55.3603 22.8107 55.2003 22.8507 55.0403 22.8707C54.8703 22.8907 54.7303 22.9108 54.6003 22.9108C53.8703 22.9108 53.2503 22.6407 52.7503 22.1107C52.2503 21.5807 52.0003 20.8407 52.0003 19.8907C52.0003 18.7407 52.2503 17.9208 52.7503 17.4108C53.2503 16.9108 53.8303 16.6608 54.4903 16.6608C55.1503 16.6608 55.6703 16.8708 56.0703 17.3008C56.2903 17.5408 56.5103 17.9207 56.7203 18.4207H56.9603L56.8803 16.2607H56.6503C56.6103 16.3707 56.5503 16.4507 56.4903 16.5007C56.4303 16.5607 56.3203 16.5907 56.1803 16.5907C56.1203 16.5907 55.9003 16.5307 55.5203 16.4207C55.1403 16.3107 54.7403 16.2607 54.3403 16.2607C53.2403 16.2607 52.3503 16.6407 51.6903 17.3907C51.0803 18.0707 50.7803 18.8908 50.7803 19.8508C50.7803 20.9408 51.1603 21.8107 51.9203 22.4507C52.6103 23.0407 53.4503 23.3307 54.4603 23.3307C55.0103 23.3307 55.5703 23.2307 56.1703 23.0307C56.7603 22.8307 57.0603 22.6708 57.0603 22.5508V20.5208C57.0603 20.5208 57.0603 20.5008 57.0603 20.4908V20.5007Z" fill="#323334"/>
<path d="M72.29 17.6709C72.29 17.4909 72.32 17.3309 72.39 17.1709C72.46 17.0109 72.55 16.8808 72.67 16.7608C72.79 16.6408 72.92 16.5509 73.08 16.4809C73.24 16.4109 73.4 16.3809 73.59 16.3809C73.78 16.3809 73.93 16.4109 74.09 16.4809C74.25 16.5509 74.38 16.6408 74.5 16.7608C74.62 16.8808 74.71 17.0109 74.78 17.1709C74.85 17.3309 74.8801 17.4909 74.8801 17.6709C74.8801 17.8509 74.84 18.0209 74.78 18.1709C74.71 18.3309 74.62 18.4709 74.5 18.5809C74.39 18.7009 74.25 18.7909 74.09 18.8609C73.93 18.9309 73.77 18.9609 73.59 18.9609C73.41 18.9609 73.24 18.9309 73.08 18.8609C72.93 18.7909 72.79 18.7009 72.67 18.5809C72.55 18.4709 72.46 18.3309 72.39 18.1709C72.32 18.0109 72.29 17.8509 72.29 17.6709ZM72.47 17.6709C72.47 17.8309 72.5 17.9709 72.56 18.1009C72.62 18.2309 72.7 18.3509 72.8 18.4509C72.9 18.5509 73.02 18.6309 73.15 18.6909C73.29 18.7509 73.43 18.7809 73.58 18.7809C73.73 18.7809 73.88 18.7509 74.01 18.6909C74.14 18.6309 74.26 18.5509 74.36 18.4509C74.46 18.3509 74.5401 18.2309 74.6001 18.1009C74.6601 17.9609 74.69 17.8209 74.69 17.6709C74.69 17.5209 74.6601 17.3709 74.6001 17.2409C74.5401 17.1109 74.46 16.9909 74.36 16.8909C74.26 16.7909 74.14 16.7108 74.01 16.6508C73.88 16.5908 73.73 16.5609 73.58 16.5609C73.43 16.5609 73.28 16.5908 73.15 16.6508C73.02 16.7008 72.9 16.7909 72.8 16.8909C72.7 16.9909 72.62 17.1009 72.56 17.2409C72.5 17.3709 72.47 17.5209 72.47 17.6709ZM73.3 18.4109H73.12V16.9209H73.69C73.86 16.9209 73.98 16.9609 74.05 17.0209C74.12 17.0909 74.16 17.1909 74.16 17.3309C74.16 17.4009 74.1601 17.4608 74.1301 17.5108C74.1101 17.5608 74.08 17.6009 74.05 17.6409C74.01 17.6709 73.98 17.7009 73.93 17.7209C73.89 17.7409 73.84 17.7508 73.79 17.7608L74.23 18.4109H74.0201L73.5701 17.7608H73.3V18.4109ZM73.3 17.5909H73.54C73.59 17.5909 73.64 17.5909 73.69 17.5909C73.74 17.5909 73.79 17.5809 73.83 17.5609C73.87 17.5409 73.9 17.5209 73.93 17.4809C73.95 17.4509 73.97 17.4009 73.97 17.3409C73.97 17.2909 73.97 17.2509 73.94 17.2209C73.92 17.1909 73.89 17.1609 73.86 17.1409C73.83 17.1209 73.79 17.1109 73.75 17.1009C73.71 17.1009 73.6701 17.0909 73.6301 17.0909H73.3V17.5909Z" fill="#323334"/>
<path d="M67.6303 22.8606C67.5003 22.7906 67.3703 22.6706 67.2403 22.5106L65.1203 19.9006C65.6903 19.8106 66.1503 19.6306 66.4803 19.3606C66.8103 19.0906 66.9803 18.6906 66.9803 18.1806C66.9803 17.4206 66.6003 16.8906 65.8603 16.6106C65.4603 16.4606 64.9703 16.3906 64.3803 16.3906H61.5303V16.5806C61.9003 16.6106 62.1403 16.6806 62.2503 16.7906C62.3603 16.9006 62.4103 17.1406 62.4103 17.5006V23.1906H63.4503V17.1306C63.4503 16.9806 63.4803 16.8806 63.5503 16.8406C63.6103 16.8006 63.7903 16.7806 64.0903 16.7806C64.5203 16.7806 64.8703 16.8406 65.1303 16.9606C65.6203 17.1806 65.8603 17.5806 65.8603 18.1806C65.8603 18.7806 65.5903 19.2206 65.0403 19.4506C64.7503 19.5706 64.2703 19.6406 63.6203 19.6706L66.0903 22.7306C66.0903 22.7306 66.2503 22.9306 66.4603 23.0506C66.6803 23.1706 67.0003 23.2006 67.0003 23.2006H68.1303V23.0106C67.9303 22.9906 67.7603 22.9506 67.6303 22.8706V22.8606Z" fill="#323334"/>
<path d="M33.9899 22.8606C33.8599 22.7906 33.7299 22.6706 33.5999 22.5106L31.4799 19.9006C32.0499 19.8106 32.4999 19.6306 32.8399 19.3606C33.1699 19.0906 33.3399 18.6906 33.3399 18.1806C33.3399 17.4206 32.9599 16.8906 32.2099 16.6106C31.8199 16.4606 31.3199 16.3906 30.7299 16.3906H27.8799V16.5806C28.2499 16.6106 28.4899 16.6806 28.5999 16.7906C28.7099 16.9006 28.7599 17.1406 28.7599 17.5006V23.1906H29.8099V17.1306C29.8099 16.9806 29.8399 16.8806 29.9099 16.8406C29.9699 16.8006 30.1499 16.7806 30.4399 16.7806C30.8699 16.7806 31.2199 16.8406 31.4799 16.9606C31.9699 17.1806 32.2099 17.5806 32.2099 18.1806C32.2099 18.7806 31.9399 19.2206 31.3899 19.4506C31.0999 19.5706 30.6199 19.6406 29.9699 19.6706L32.4399 22.7306C32.4399 22.7306 32.5899 22.9306 32.8099 23.0506C33.0299 23.1706 33.3399 23.2006 33.3399 23.2006H34.4699V23.0106C34.2699 22.9906 34.0999 22.9506 33.9699 22.8706L33.9899 22.8606Z" fill="#323334"/>
<path d="M44.7702 22.7908C44.7702 22.7908 44.7101 22.7908 44.6801 22.7908C44.5901 22.7908 44.5102 22.7809 44.4402 22.7709C44.3102 22.7509 44.2202 22.7109 44.1902 22.6409C44.1502 22.5809 44.1302 22.4908 44.1302 22.3708V17.5009C44.1302 17.1209 44.1302 16.7409 43.9202 16.5709C43.7202 16.4009 43.2702 16.3809 43.2702 16.3809H42.1602V16.5709C42.5402 16.6009 42.8002 16.6709 42.9102 16.7709C42.9102 16.7709 42.9201 16.7908 42.9301 16.7908C43.0301 16.9108 43.0802 17.1409 43.0802 17.4909V23.1808H47.7102V22.7809H44.7702V22.7908Z" fill="#323334"/>
<path d="M70.9904 22.7908C70.9904 22.7908 70.9303 22.7908 70.9003 22.7908C70.8203 22.7908 70.7304 22.7809 70.6604 22.7709C70.5304 22.7509 70.4403 22.7109 70.4003 22.6409C70.3603 22.5809 70.3403 22.4908 70.3403 22.3708V17.5009C70.3403 17.1209 70.3404 16.7409 70.1304 16.5709C69.9304 16.4009 69.4704 16.3809 69.4704 16.3809H68.3604V16.5709C68.7404 16.6009 69.0004 16.6709 69.1104 16.7709C69.1104 16.7709 69.1204 16.7908 69.1304 16.7908C69.2304 16.9108 69.2803 17.1409 69.2803 17.4909V23.1808H73.9104V22.7809H70.9704L70.9904 22.7908Z" fill="#323334"/>
<path d="M20.0702 16.3809H14.2502L14.2402 16.8109H16.0802H16.5802H16.6502V23.1909H17.6802V16.8109H17.9002H18.2502H20.0902L20.0702 16.3809Z" fill="#323334"/>
</svg>
