<svg width="69" height="9" viewBox="0 0 69 9" fill="none" xmlns="http://www.w3.org/2000/svg">
<path d="M3.28981 1.14062C1.31981 1.14062 0.0498047 2.48063 0.0498047 4.54063C0.0498047 6.74063 1.65981 7.75063 3.14981 7.75063C5.11981 7.75063 6.3898 6.41063 6.3898 4.33063C6.3898 2.14063 4.77981 1.14062 3.28981 1.14062ZM3.21981 7.41063C1.76981 7.41063 0.799805 6.23063 0.799805 4.48063C0.799805 2.63063 1.7298 1.48063 3.2298 1.48063C4.7298 1.48063 5.64981 2.65063 5.64981 4.40063C5.64981 6.26063 4.71981 7.42062 3.21981 7.42062V7.41063Z" fill="#323334"/>
<path d="M11.9001 7.1298C10.4601 6.5898 10.0101 4.84981 9.92012 4.40981C10.9901 4.23981 11.6501 3.6298 11.6501 2.8298C11.6501 1.8798 10.8101 1.2998 9.47012 1.2998H6.87012V1.5998H6.95012C7.63012 1.5998 7.83012 1.6398 7.83012 2.6398V6.2498C7.83012 7.2398 7.63012 7.2898 6.95012 7.2898H6.87012V7.5898H9.44012V7.2898H9.36012C8.68012 7.2898 8.48012 7.2498 8.48012 6.2498V4.4598H9.30012C9.36012 5.0498 9.62012 6.3298 10.7001 7.1398C10.9601 7.3298 11.2401 7.4798 11.5501 7.5898H12.9001V7.2898H12.8201C12.4901 7.2898 12.1801 7.2398 11.8901 7.1298H11.9001ZM8.49012 2.1998C8.49012 1.6998 8.60012 1.6398 9.37012 1.6398H9.49012C10.4001 1.6398 10.9401 2.0998 10.9401 2.8798C10.9401 3.7998 10.0501 4.1298 9.28012 4.1298H8.49012V2.2098V2.1998Z" fill="#323334"/>
<path d="M18.3 6.03015C17.79 6.98015 16.81 7.32015 16.06 7.32015C14.83 7.32015 13.53 6.31016 13.53 4.44016C13.53 2.75015 14.56 1.47015 15.94 1.47015C17 1.47015 17.73 2.00015 18.09 3.04015L18.11 3.11015L18.41 3.03015L17.85 0.910156L17.56 0.980156L17.58 1.06015C17.6 1.14015 17.6 1.20016 17.58 1.23016C17.55 1.27016 17.47 1.29015 17.33 1.29015C17.22 1.29015 17.1 1.27015 16.94 1.24015C16.69 1.19015 16.39 1.13015 15.97 1.13015C14.22 1.13015 12.79 2.61015 12.79 4.44016C12.79 6.27016 14.14 7.75015 15.92 7.75015C17.06 7.75015 18.02 7.18016 18.57 6.19016L18.6 6.13015L18.34 5.96015L18.3 6.03015Z" fill="#323334"/>
<path d="M23.07 1.5998H23.15C23.83 1.5998 24.03 1.6398 24.03 2.6398V4.1098H20.61V2.6398C20.61 1.6498 20.84 1.5998 21.49 1.5998H21.57V1.2998H19V1.5998H19.08C19.76 1.5998 19.96 1.6398 19.96 2.6398V6.2498C19.96 7.2398 19.76 7.2898 19.08 7.2898H19V7.5898H21.57V7.2898H21.49C20.81 7.2898 20.61 7.2498 20.61 6.2498V4.4598H24.03V6.2498C24.03 7.2398 23.83 7.2898 23.15 7.2898H23.07V7.5898H25.64V7.2898H25.56C24.88 7.2898 24.68 7.2498 24.68 6.2498V2.6398C24.68 1.6498 24.91 1.5998 25.56 1.5998H25.64V1.2998H23.07V1.5998Z" fill="#323334"/>
<path d="M26.1094 1.5998H26.1894C26.8694 1.5998 27.0694 1.6398 27.0694 2.6398V6.2498C27.0694 7.2398 26.8694 7.2898 26.1894 7.2898H26.1094V7.5898H28.6794V7.2898H28.5994C27.9194 7.2898 27.7194 7.2498 27.7194 6.2498V2.6398C27.7194 1.6498 27.9494 1.5998 28.5994 1.5998H28.6794V1.2998H26.1094V1.5998Z" fill="#323334"/>
<path d="M31.6895 1.2998H29.1895V1.5998H29.2694C29.9294 1.5998 30.1095 1.6398 30.1095 2.6398V6.2498C30.1095 7.2398 29.9194 7.2898 29.2694 7.2898H29.1895V7.5898H31.9095C34.1195 7.5898 35.4395 6.3698 35.4395 4.3298C35.4395 2.4298 34.0395 1.2998 31.6895 1.2998ZM34.7195 4.3698C34.7195 6.1298 33.6894 7.2598 32.0894 7.2598H31.7295C31.0495 7.2598 30.7694 7.1898 30.7694 6.5398V2.2098C30.7694 1.7298 31.0095 1.6498 31.7195 1.6498C33.5895 1.6498 34.7094 2.6698 34.7094 4.3798L34.7195 4.3698Z" fill="#323334"/>
<path d="M42.1999 1.5998H42.2799C42.9599 1.5998 43.1599 1.6398 43.1599 2.6398V4.1098H39.7399V2.6398C39.7399 1.6498 39.9699 1.5998 40.6199 1.5998H40.6999V1.2998H38.1299V1.5998H38.2099C38.8899 1.5998 39.0899 1.6398 39.0899 2.6398V6.2498C39.0899 7.2398 38.8899 7.2898 38.2099 7.2898H38.1299V7.5898H40.6999V7.2898H40.6199C39.9399 7.2898 39.7399 7.2498 39.7399 6.2498V4.4598H43.1599V6.2498C43.1599 7.2398 42.9599 7.2898 42.2799 7.2898H42.1999V7.5898H44.7699V7.2898H44.6899C44.0099 7.2898 43.8099 7.2498 43.8099 6.2498V2.6398C43.8099 1.6498 44.0399 1.5998 44.6899 1.5998H44.7699V1.2998H42.1999V1.5998Z" fill="#323334"/>
<path d="M48.4802 1.14062C46.5102 1.14062 45.2402 2.48063 45.2402 4.54063C45.2402 6.74063 46.8502 7.75063 48.3402 7.75063C50.3102 7.75063 51.5802 6.41063 51.5802 4.33063C51.5802 2.14063 49.9702 1.14062 48.4802 1.14062ZM48.4102 7.41063C46.9602 7.41063 45.9902 6.23063 45.9902 4.48063C45.9902 2.63063 46.9202 1.48063 48.4202 1.48063C49.9202 1.48063 50.8402 2.65063 50.8402 4.40063C50.8402 6.26063 49.9102 7.42062 48.4102 7.42062V7.41063Z" fill="#323334"/>
<path d="M56.1197 1.60004H56.1997C56.9397 1.60004 57.1897 1.84004 57.1897 2.57004V4.82004C57.1897 6.57004 56.6097 7.31004 55.2397 7.31004C54.1297 7.31004 53.5397 6.57004 53.5397 5.17004V2.63004C53.5397 1.64004 53.7697 1.59003 54.4197 1.59003H54.4997V1.29004H51.9297V1.59003H52.0097C52.6897 1.59003 52.8897 1.63004 52.8897 2.63004V5.24004C52.8897 6.92004 53.6597 7.74004 55.2497 7.74004C56.8397 7.74004 57.5597 6.79003 57.5597 4.84003V2.55004C57.5597 1.88004 57.7997 1.59003 58.3797 1.59003H58.4597V1.29004H56.1397V1.59003L56.1197 1.60004Z" fill="#323334"/>
<path d="M61.2094 3.94C60.0694 3.56 59.6795 3.21 59.6795 2.57C59.6795 2.02 60.0695 1.47 60.9395 1.47C61.8095 1.47 62.5195 2.06 62.8195 3.13L62.8394 3.2L63.1694 3.14L62.6795 1L62.3695 1.03V1.1C62.3695 1.2 62.3594 1.29 62.3094 1.33C62.2894 1.35 62.2694 1.36 62.2394 1.36C62.1594 1.36 62.0595 1.33 61.9395 1.29C61.7095 1.22 61.3994 1.13 60.9194 1.13C59.8794 1.13 58.9995 1.88 58.9995 2.78C58.9995 3.81 59.9094 4.21 61.0994 4.63C62.1494 5 62.6495 5.31 62.6495 6.1C62.6495 6.73 62.1795 7.4 61.1395 7.4C60.1895 7.4 59.5895 6.76 59.2895 5.45L59.2694 5.38L58.9395 5.46L59.0695 7.72L59.3794 7.69V7.62C59.3794 7.5 59.4294 7.36 59.5894 7.36C59.6794 7.36 59.7894 7.41 59.9194 7.47C60.1794 7.59 60.5394 7.75 61.1294 7.75C62.3594 7.75 63.3195 6.95 63.3195 5.94C63.3195 5.02 62.7195 4.46 61.1895 3.95L61.2094 3.94Z" fill="#323334"/>
<path d="M68.5602 5.90043C68.2302 7.00043 67.9101 7.26043 66.8801 7.26043H66.3502C65.5502 7.26043 65.5201 7.20042 65.5201 6.70042V4.47043H66.0901C66.8801 4.47043 66.9602 4.65043 66.9602 5.36043V5.44043H67.2902V3.16043H66.9602V3.24043C66.9602 3.90043 66.8902 4.14043 66.0802 4.14043H65.5201V2.22043C65.5201 1.71043 65.5502 1.66043 66.3502 1.66043H66.6102C67.8302 1.66043 67.9702 2.00043 68.3502 2.91043L68.3801 2.97043L68.6802 2.89043L68.1502 0.94043L67.8602 1.01043L67.8801 1.09042C67.9001 1.17042 67.9001 1.23043 67.8801 1.26043C67.8301 1.32043 67.6802 1.33043 67.5702 1.33043H63.9102V1.63042H63.9902C64.6702 1.63042 64.8702 1.67043 64.8702 2.67043V6.28043C64.8702 7.27043 64.6702 7.32043 63.9902 7.32043H63.9102V7.62043H67.7402C67.8502 7.62043 68.0102 7.62043 68.0502 7.69043C68.0702 7.72043 68.0702 7.78043 68.0502 7.86043L68.0302 7.94043L68.3202 8.01043L68.9002 5.94043L68.5901 5.86043L68.5702 5.93043L68.5602 5.90043Z" fill="#323334"/>
</svg>
