<svg width="428" height="221" viewBox="0 0 428 221" fill="none" xmlns="http://www.w3.org/2000/svg">
<path d="M68.5 106.81C64.95 103.35 60.75 100.64 55.89 98.67C51.03 96.71 45.71 95.72 39.92 95.72C34.13 95.72 28.83 96.7 24.02 98.67C19.21 100.63 15.05 103.35 11.55 106.81C8.04998 110.27 5.30997 114.39 3.34997 119.16C1.38997 123.93 0.409973 129.12 0.409973 134.74C0.409973 140.36 1.38997 145.52 3.34997 150.25C5.30997 154.97 8.03998 159.07 11.55 162.53C15.05 165.99 19.21 168.68 24.02 170.6C28.83 172.52 34.13 173.48 39.92 173.48C45.71 173.48 51.03 172.52 55.89 170.6C60.75 168.68 64.95 165.99 68.5 162.53C72.05 159.07 74.83 154.98 76.83 150.25C78.84 145.53 79.84 140.36 79.84 134.74C79.84 129.12 78.84 123.93 76.83 119.16C74.82 114.39 72.04 110.27 68.5 106.81ZM64.06 144.84C62.8 147.93 61.02 150.59 58.73 152.84C56.44 155.09 53.7 156.82 50.52 158.03C47.34 159.25 43.83 159.85 39.99 159.85C36.15 159.85 32.81 159.24 29.68 158.03C26.54 156.82 23.83 155.08 21.54 152.84C19.25 150.59 17.47 147.93 16.21 144.84C14.95 141.75 14.32 138.38 14.32 134.74C14.32 131.1 14.95 127.58 16.21 124.5C17.47 121.41 19.25 118.75 21.54 116.5C23.83 114.26 26.54 112.5 29.68 111.24C32.81 109.98 36.25 109.35 39.99 109.35C43.73 109.35 47.33 109.98 50.52 111.24C53.7 112.5 56.44 114.26 58.73 116.5C61.02 118.75 62.8 121.41 64.06 124.5C65.32 127.59 65.95 131 65.95 134.74C65.95 138.48 65.32 141.76 64.06 144.84Z" fill="white"/>
<path d="M156.97 131.72C154.12 129.99 150.88 128.66 147.24 127.72C143.6 126.79 139.87 126.06 136.04 125.54C132.21 125.03 128.48 124.63 124.84 124.35C121.2 124.07 117.95 123.67 115.11 123.16C112.26 122.65 109.98 121.92 108.25 120.99C106.52 120.06 105.66 118.74 105.66 117.06C105.66 114.91 107.6 113.09 111.48 111.59C115.36 110.09 120.48 109.35 126.85 109.35C133.22 109.35 139.76 110.17 146.22 111.81C152.68 113.45 158.52 115.86 163.76 119.04C163.76 119.04 163 101.24 138.22 96.59C134.59 95.91 130.78 95.75 126.85 95.75C122.08 95.75 117.56 96.22 113.31 97.15C109.05 98.09 105.33 99.49 102.15 101.36C98.97 103.23 96.44 105.52 94.57 108.24C92.7 110.96 91.76 114.13 91.76 117.78C91.76 122.55 93.26 126.2 96.25 128.73C99.24 131.26 102.99 133.15 107.48 134.41C111.97 135.67 116.86 136.56 122.14 137.08C127.42 137.6 132.31 138.2 136.8 138.9C141.29 139.6 145.03 140.65 148.03 142.06C151.02 143.46 152.52 145.71 152.52 148.8C152.52 150.48 151.91 152.01 150.7 153.36C149.48 154.72 147.82 155.89 145.72 156.87C143.61 157.85 141.16 158.6 138.35 159.12C135.54 159.64 132.55 159.89 129.37 159.89C123.76 159.89 117.51 158.96 110.64 157.08C103.76 155.21 96.82 151.75 89.8 146.7C89.8 146.7 88.85 163.69 108.36 170.63C111.7 171.82 115.27 172.34 118.87 172.81C122.47 173.28 125.94 173.51 129.31 173.51C134.54 173.51 139.42 172.92 143.95 171.76C148.48 170.59 152.4 168.93 155.72 166.78C159.04 164.63 161.65 162.03 163.56 158.99C165.47 155.95 166.43 152.56 166.43 148.82C166.43 144.61 165.57 141.15 163.84 138.44C162.11 135.73 159.82 133.51 156.98 131.77L156.97 131.72Z" fill="white"/>
<path d="M242.15 103.86C239.12 101.15 235.5 99.11 231.3 97.76C227.1 96.4 222.43 95.72 217.3 95.72C209.83 95.72 203.03 96.37 197.2 98.53C181.08 104.5 181.31 120.42 181.31 120.42C193.51 108.32 207.47 108.08 217.53 108.18C224.08 108.25 228.96 110.69 232.46 113.41C235.97 116.13 237.72 119.96 237.72 124.92V126.88C233.88 125.01 229.65 123.58 225.02 122.6C220.39 121.62 215.5 121.17 210.36 121.27C205.87 121.27 201.57 121.81 197.45 122.88C193.33 123.96 189.71 125.55 186.57 127.65C183.43 129.76 180.96 132.47 179.13 135.79C177.31 139.11 176.39 143.02 176.39 147.51C176.39 152 177.35 155.72 179.26 158.95C181.17 162.18 183.81 164.87 187.17 167.02C190.53 169.17 194.45 170.78 198.94 171.86C203.42 172.94 208.23 173.47 213.37 173.47C220.93 173.47 227.94 172.04 234.38 169.19C240.82 166.34 246.57 162.57 251.61 157.89V127.86C251.61 122.62 250.79 117.99 249.16 113.97C247.52 109.95 245.19 106.58 242.16 103.87L242.15 103.86ZM237.71 153.4C234.34 155.36 230.62 156.93 226.55 158.1C222.48 159.27 218.11 159.85 213.43 159.85C210.34 159.85 207.4 159.62 204.59 159.15C201.78 158.68 199.33 157.96 197.22 156.98C195.12 156 193.43 154.73 192.17 153.19C190.91 151.65 190.28 149.75 190.28 147.51C190.28 143.11 192.29 139.75 196.31 137.41C200.33 135.07 205.43 133.95 211.61 134.04C215.54 134.04 219.7 134.53 224.1 135.51C228.5 136.49 233.03 138.06 237.71 140.21V153.4Z" fill="white"/>
<path d="M417.99 103.86C414.96 101.15 411.34 99.11 407.14 97.76C402.94 96.4 398.27 95.72 393.14 95.72C385.67 95.72 378.87 96.37 373.04 98.53C356.92 104.5 357.15 120.42 357.15 120.42C369.35 108.32 383.31 108.08 393.37 108.18C399.92 108.25 404.8 110.69 408.3 113.41C411.81 116.13 413.56 119.96 413.56 124.92V126.88C409.72 125.01 405.49 123.58 400.86 122.6C396.23 121.62 391.34 121.17 386.2 121.27C381.71 121.27 377.41 121.81 373.29 122.88C369.17 123.96 365.55 125.55 362.41 127.65C359.27 129.76 356.8 132.47 354.97 135.79C353.15 139.11 352.23 143.02 352.23 147.51C352.23 152 353.19 155.72 355.1 158.95C357.01 162.18 359.65 164.87 363.02 167.02C366.38 169.17 370.3 170.78 374.79 171.86C379.27 172.94 384.08 173.47 389.22 173.47C396.78 173.47 403.79 172.04 410.23 169.19C416.67 166.34 422.42 162.57 427.46 157.89V127.86C427.46 122.62 426.64 117.99 425.01 113.97C423.37 109.95 421.04 106.58 418.01 103.87L417.99 103.86ZM413.55 153.4C410.18 155.36 406.46 156.93 402.39 158.1C398.32 159.27 393.95 159.85 389.27 159.85C386.18 159.85 383.24 159.62 380.43 159.15C377.62 158.68 375.17 157.96 373.06 156.98C370.96 156 369.27 154.73 368.01 153.19C366.75 151.65 366.12 149.75 366.12 147.51C366.12 143.11 368.13 139.75 372.15 137.41C376.17 135.07 381.27 133.95 387.45 134.04C391.38 134.04 395.54 134.53 399.94 135.51C404.34 136.49 408.87 138.06 413.55 140.21V153.4Z" fill="white"/>
<path d="M360.27 66.31C361.67 62.9 362.28 59.2 361.98 55.49C361.69 51.8 360.33 48 357.77 45.05C355.25 42.08 351.7 40.24 348.29 39.55C346.59 39.14 344.84 39.07 343.27 39.03C342.01 39.03 340.77 38.91 339.58 38.67C337.22 38.16 335.08 37.07 333.5 35.31C331.91 33.57 330.9 31.19 330.53 28.61C329.78 23.4 331.36 17.72 334.08 12.8C336.83 7.83999 340.8 3.48001 345.47 0.0100098C340.44 2.93001 335.89 6.87 332.42 11.75C329 16.61 326.46 22.47 326.61 28.93C326.7 32.13 327.6 35.51 329.64 38.34C331.65 41.19 334.73 43.24 337.95 44.32C339.56 44.86 341.21 45.2 342.85 45.39C344.17 45.6 345.33 45.81 346.43 46.24C348.63 47.02 350.31 48.36 351.35 50.01C353.48 53.28 353.01 58.2 350.83 61.87C349.76 63.73 348.28 65.27 346.62 66.32C346.21 66.59 345.78 66.82 345.35 67.03L344.34 67.59C343.98 67.79 343.61 68 343.25 68.22C341.8 69.08 340.36 70.08 338.96 71.22C336.16 73.48 333.63 76.5 331.87 79.64C330.98 81.21 330.24 82.78 329.59 84.3C328.76 86.35 328.33 88.26 328.03 90.03C327.45 93.58 327.35 92.93 327.37 96.13C327.39 97.73 327.45 99.31 327.55 100.88C327.55 100.97 327.56 101.05 327.57 101.14C324.27 99.49 320.78 98.18 317.05 97.24C312.98 96.21 308.7 95.7 304.21 95.7C298.6 95.7 293.22 96.64 288.07 98.51C282.92 100.38 278.39 103 274.46 106.37C270.53 109.74 267.4 113.71 265.06 118.3C262.72 122.89 261.55 127.89 261.55 133.32C261.55 139.21 262.72 144.62 265.05 149.53C267.38 154.44 270.54 158.67 274.5 162.23C278.47 165.79 283.12 168.55 288.44 170.51C293.76 172.47 299.41 173.46 305.39 173.46C313.79 173.46 321.08 172.34 327.25 170.09C333.41 167.84 338.46 164.66 342.38 160.55V91.87C342.45 90.76 342.61 89.8 342.79 89.12C343.66 85.86 345.02 82.87 347.19 80.58C347.97 79.8 348.86 79.04 349.85 78.32C350.09 78.14 350.34 77.96 350.6 77.78L351.45 77.2C352.26 76.65 353.03 76.06 353.76 75.43C356.67 72.89 358.86 69.72 360.24 66.31H360.27ZM328.51 155.51C324.95 156.91 321.3 157.99 317.56 158.74C313.82 159.49 309.79 159.86 305.49 159.86C301.19 159.86 297.33 159.21 293.63 157.9C289.93 156.59 286.75 154.77 284.09 152.43C281.42 150.09 279.32 147.29 277.78 144.01C276.24 140.74 275.46 137.18 275.46 133.34C275.46 129.88 276.28 126.7 277.91 123.8C279.55 120.9 281.7 118.38 284.37 116.22C287.04 114.07 290.1 112.38 293.56 111.17C297.02 109.96 300.58 109.35 304.22 109.35C308.9 109.35 313.27 109.94 317.34 111.1C321.41 112.27 325.13 113.84 328.5 115.8V155.51H328.51Z" fill="white"/>
<path d="M426.81 79.37C426.39 78.39 425.81 77.5299 425.08 76.7999C424.35 76.0799 423.49 75.49 422.51 75.07C420.53 74.21 418.15 74.22 416.19 75.07C415.21 75.5 414.35 76.0799 413.62 76.7999C412.89 77.5199 412.3 78.3899 411.88 79.3599C411.45 80.3399 411.24 81.4 411.24 82.51C411.24 83.62 411.46 84.7 411.88 85.68C412.31 86.66 412.89 87.52 413.62 88.25C414.35 88.98 415.21 89.5699 416.19 89.9899C417.17 90.4199 418.24 90.63 419.36 90.63C420.48 90.63 421.53 90.4099 422.51 89.9899C423.49 89.5699 424.35 88.98 425.08 88.25C425.81 87.52 426.39 86.6499 426.81 85.6699C427.23 84.6899 427.44 83.62 427.44 82.5C427.44 81.38 427.23 80.3399 426.81 79.3499V79.37ZM421.63 79.9099C421.71 80.0399 421.76 80.2299 421.76 80.4899C421.76 80.8199 421.7 81.05 421.57 81.19C421.43 81.35 421.24 81.46 421.01 81.52C420.74 81.59 420.44 81.63 420.13 81.63H417.96V79.4H420.01C420.25 79.4 420.49 79.42 420.73 79.45C420.94 79.48 421.13 79.5299 421.29 79.6099C421.43 79.6799 421.54 79.7799 421.63 79.9199V79.9099ZM421.3 83.2C421.46 83.17 421.61 83.1399 421.76 83.0999C422.14 82.9999 422.48 82.84 422.76 82.63C423.06 82.41 423.29 82.11 423.46 81.75C423.62 81.4 423.7 80.98 423.7 80.51C423.7 79.69 423.43 79.0299 422.9 78.5399C422.37 78.0599 421.5 77.82 420.25 77.82H416.09V87.2299H417.96V83.27H419.26L421.72 87.2299H423.47C422.99 87.6799 422.42 88.05 421.79 88.33C420.31 88.97 418.41 88.97 416.92 88.33C416.18 88.01 415.53 87.56 414.99 87C414.45 86.44 414.03 85.77 413.72 85.01C413.42 84.25 413.26 83.41 413.26 82.52C413.26 81.63 413.41 80.8099 413.72 80.0499C414.02 79.2899 414.45 78.62 414.99 78.07C415.53 77.52 416.17 77.07 416.92 76.75C417.66 76.43 418.48 76.27 419.36 76.27C420.24 76.27 421.05 76.43 421.79 76.75C422.53 77.07 423.17 77.52 423.7 78.07C424.23 78.63 424.65 79.2899 424.96 80.0499C425.26 80.8099 425.42 81.64 425.42 82.52C425.42 83.4 425.27 84.25 424.96 85.01C424.67 85.74 424.27 86.39 423.76 86.94L421.31 83.21L421.3 83.2Z" fill="white"/>
<path d="M128.14 215.78H121.25L119.96 219.63H115.87L122.55 200.92H126.97L133.6 219.63H129.36L128.15 215.78H128.14ZM127.05 212.55L124.71 205.19L122.3 212.55H127.05Z" fill="white"/>
<path d="M162.16 218.23C160.76 219.51 158.98 220.15 156.8 220.15C154.11 220.15 151.99 219.29 150.45 217.56C148.91 215.82 148.14 213.45 148.14 210.42C148.14 207.15 149.02 204.64 150.77 202.87C152.29 201.33 154.23 200.56 156.58 200.56C159.73 200.56 162.03 201.6 163.49 203.66C164.29 204.82 164.73 205.98 164.78 207.15H160.87C160.62 206.25 160.29 205.58 159.89 205.12C159.18 204.31 158.12 203.9 156.73 203.9C155.34 203.9 154.19 204.47 153.37 205.62C152.55 206.77 152.14 208.39 152.14 210.49C152.14 212.59 152.57 214.16 153.44 215.21C154.31 216.25 155.41 216.78 156.75 216.78C158.09 216.78 159.17 216.33 159.89 215.43C160.29 214.95 160.62 214.22 160.88 213.26H164.75C164.41 215.3 163.55 216.96 162.16 218.23Z" fill="white"/>
<path d="M194.33 200.91V204.22H188.73V219.62H184.79V204.22H179.17V200.91H194.33Z" fill="white"/>
<path d="M209.31 200.91H213.19V219.62H209.31V200.91Z" fill="white"/>
<path d="M243.44 200.91V204.22H237.84V219.62H233.91V204.22H228.28V200.91H243.44Z" fill="white"/>
<path d="M269.79 212.41V200.91H273.76V212.41C273.76 214.4 273.45 215.95 272.83 217.06C271.68 219.09 269.48 220.11 266.24 220.11C263 220.11 260.8 219.09 259.64 217.06C259.02 215.95 258.71 214.4 258.71 212.41V200.91H262.68V212.41C262.68 213.7 262.83 214.64 263.14 215.23C263.61 216.28 264.65 216.8 266.24 216.8C267.83 216.8 268.85 216.28 269.32 215.23C269.63 214.64 269.78 213.7 269.78 212.41H269.79Z" fill="white"/>
<path d="M298.56 219.63H290.5V200.92H298.56C299.72 200.94 300.69 201.07 301.45 201.33C302.76 201.76 303.82 202.55 304.64 203.7C305.29 204.63 305.74 205.64 305.97 206.72C306.21 207.8 306.32 208.83 306.32 209.82C306.32 212.31 305.82 214.41 304.82 216.14C303.47 218.47 301.38 219.63 298.55 219.63H298.56ZM301.46 205.69C300.86 204.67 299.67 204.16 297.89 204.16H294.28V216.37H297.89C299.73 216.37 301.02 215.46 301.75 213.64C302.15 212.64 302.35 211.45 302.35 210.07C302.35 208.17 302.06 206.7 301.46 205.68V205.69Z" fill="white"/>
</svg>
