<svg width="72" height="23" viewBox="0 0 72 23" fill="none" xmlns="http://www.w3.org/2000/svg">
<path d="M12.2902 21.4504C11.6002 22.8504 9.88025 22.9204 9.14025 21.4504C9.01025 21.5604 8.89025 21.6703 8.76025 21.7703C8.17025 22.2203 7.49025 22.4704 6.76025 22.5404C5.74025 22.6404 4.74025 22.5204 3.78025 22.1404C2.93025 21.8104 2.27025 21.2403 1.73025 20.5303C1.12025 19.7203 0.790249 18.7903 0.640249 17.8003C0.410249 16.2503 0.64025 14.7304 1.04025 13.2304C1.63025 11.0704 2.58025 9.08035 3.76025 7.19035C4.87025 5.39035 6.16025 3.73036 7.69025 2.26036C8.51025 1.47036 9.40025 0.750352 10.3802 0.160352C10.6302 0.0103516 10.8203 0.0103516 11.0603 0.160352C11.8003 0.620352 12.5102 1.13035 13.1602 1.72035C15.2102 3.55035 16.8403 5.71033 18.2003 8.08033C19.0603 9.57033 19.7603 11.1303 20.2603 12.7803C20.6503 14.0503 20.8902 15.3603 20.8802 16.6903C20.8802 17.6603 20.7202 18.6103 20.3102 19.5003C19.5802 21.0803 18.3802 22.0803 16.6702 22.4303C15.7802 22.6103 14.8902 22.6303 14.0002 22.4003C13.4002 22.2403 12.8602 21.9603 12.4102 21.5303C12.3802 21.5003 12.3402 21.4703 12.2902 21.4303V21.4504ZM19.0903 16.9703C19.1003 17.3303 19.0703 17.7803 18.9703 18.2203C18.6903 19.4803 17.9603 20.3204 16.6803 20.6404C16.1703 20.7704 15.6602 20.8003 15.1402 20.7403C14.8002 20.7003 14.7903 20.7103 14.8103 20.3703C14.8303 19.8603 14.6602 19.4403 14.2702 19.1103C13.9002 18.8003 13.4402 18.7704 13.0402 19.0404C12.8102 19.2004 12.6502 19.4104 12.5502 19.6604C12.2302 20.4204 12.5202 21.3304 13.2002 21.6604C14.2502 22.1604 15.3502 22.3704 16.5002 22.1304C17.6302 21.8904 18.5802 21.3504 19.2802 20.4204C20.0102 19.4404 20.3003 18.3103 20.3703 17.1203C20.4403 15.9403 20.2603 14.7904 19.9503 13.6604C19.4203 11.6804 18.5502 9.85034 17.5302 8.09034C16.6702 6.60034 15.6702 5.21034 14.5102 3.93034C13.5102 2.82034 12.4202 1.80036 11.1802 0.95036C10.6702 0.60036 10.8202 0.580339 10.2702 0.960339C8.55025 2.15034 7.11025 3.62036 5.83025 5.26036C4.53025 6.92036 3.47025 8.72036 2.61025 10.6404C2.06025 11.8504 1.61025 13.0903 1.34025 14.4003C1.07025 15.7103 0.97025 17.0203 1.27025 18.3403C1.53025 19.5103 2.06025 20.5303 3.05025 21.2703C3.93025 21.9303 4.92025 22.2404 6.01025 22.2304C6.75025 22.2304 7.45025 22.0104 8.13025 21.7304C9.13025 21.3204 9.38025 19.9503 8.59025 19.1803C8.11025 18.7103 7.42025 18.7603 7.00025 19.2803C6.72025 19.6303 6.61025 20.0304 6.66025 20.4804C6.68025 20.6904 6.66025 20.7104 6.47025 20.7304C5.93025 20.8104 5.40025 20.7904 4.87025 20.6704C4.25025 20.5304 3.70025 20.2603 3.27025 19.7803C2.68025 19.1303 2.45025 18.3303 2.39025 17.4903C2.32025 16.6403 2.40025 15.7904 2.57025 14.9404C2.88025 13.3604 3.40025 11.8504 4.08025 10.3904C5.00025 8.40036 6.15025 6.55034 7.59025 4.90034C8.44025 3.93034 9.38025 3.05033 10.4703 2.33033C10.6703 2.20033 10.8102 2.19033 11.0102 2.33033C12.2302 3.13033 13.2802 4.13035 14.2002 5.25035C16.2202 7.72035 17.7003 10.4903 18.5803 13.5603C18.8903 14.6403 19.1002 15.7403 19.1002 16.9703H19.0903ZM9.50025 11.3804C9.51025 11.9404 9.51025 12.5103 9.53025 13.0803C9.57025 14.1203 9.64025 15.1503 9.78025 16.1803C9.87025 16.8503 9.98025 17.5204 10.1802 18.1604C10.2502 18.3904 10.3302 18.6203 10.4802 18.8103C10.6402 19.0203 10.8203 19.0203 10.9703 18.8103C11.1203 18.6103 11.2102 18.3704 11.2802 18.1304C11.5302 17.2704 11.6403 16.3904 11.7403 15.5104C11.8603 14.4504 11.9102 13.3904 11.9402 12.3204C11.9702 11.0604 11.9402 9.80036 11.8502 8.54036C11.7902 7.64036 11.7103 6.75033 11.5603 5.86033C11.4703 5.31033 11.3602 4.77035 11.1402 4.25035C11.0802 4.11035 11.0103 3.98035 10.9003 3.88035C10.7903 3.78035 10.7003 3.77034 10.5803 3.87034C10.4703 3.96034 10.4002 4.08034 10.3402 4.21034C10.2402 4.42034 10.1702 4.64033 10.1102 4.86033C9.75025 6.20033 9.65025 7.58036 9.57025 8.95036C9.52025 9.75036 9.48025 10.5603 9.51025 11.3703L9.50025 11.3804ZM13.9102 17.5003C13.9102 17.5003 14.0002 17.5003 14.0502 17.5003C14.8002 17.5203 15.2802 17.9203 15.4502 18.6503C15.5502 19.1103 15.5502 19.5703 15.4802 20.0303C15.4102 20.5203 15.5402 20.6203 16.0102 20.4603C16.0402 20.4603 16.0602 20.4403 16.0902 20.4303C16.5202 20.2603 16.9103 20.0103 17.2903 19.7403C17.7103 19.4403 17.9302 19.0303 18.0302 18.5503C18.1002 18.2203 18.1002 17.8903 18.0302 17.5603C17.8402 16.7103 17.4202 16.0103 16.6602 15.5503C16.1602 15.2403 15.6202 15.0804 15.0202 15.2004C13.9702 15.4204 13.2302 16.0404 12.7002 16.9504C12.6302 17.0804 12.5802 17.2203 12.5702 17.3703C12.5502 17.5903 12.6502 17.6704 12.8602 17.6404C13.2102 17.5804 13.5503 17.5003 13.9003 17.5003H13.9102ZM5.94025 19.4403C5.92025 19.1403 5.96025 18.8203 6.05025 18.5003C6.21025 17.9903 6.54025 17.6603 7.07025 17.5503C7.22025 17.5203 7.36025 17.5103 7.51025 17.5003C7.87025 17.5003 8.21025 17.5804 8.56025 17.6304C8.80025 17.6704 8.90025 17.5704 8.86025 17.3204C8.84025 17.1904 8.80025 17.0704 8.74025 16.9504C8.50025 16.4504 8.12025 16.0703 7.69025 15.7403C7.35025 15.4803 6.98025 15.3004 6.57025 15.2004C5.84025 15.0204 5.19025 15.2304 4.61025 15.6604C3.86025 16.2104 3.46025 16.9704 3.39025 17.8804C3.34025 18.5504 3.51025 19.1704 4.06025 19.6304C4.45025 19.9504 4.88025 20.2103 5.34025 20.4003C5.46025 20.4503 5.58025 20.4903 5.72025 20.5003C5.96025 20.5103 6.03025 20.4603 6.00025 20.2103C5.97025 19.9503 5.94025 19.7004 5.95025 19.4104L5.94025 19.4403ZM12.6202 12.8804C12.6202 13.0104 12.6202 13.1403 12.6202 13.2703C12.6402 13.4703 12.6502 13.6804 12.6902 13.8804C12.7502 14.1504 12.8902 14.1904 13.1102 14.0404C13.1702 14.0004 13.2302 13.9504 13.2902 13.9104C13.5902 13.7004 13.8902 13.4803 14.2002 13.2803C14.6202 13.0003 15.0602 12.7703 15.5402 12.6103C16.0402 12.4503 16.5402 12.3504 17.0702 12.4404C17.3702 12.4904 17.4202 12.4204 17.4102 12.1404C17.4002 11.9504 17.3302 11.7803 17.2602 11.6103C16.9902 10.9003 16.6002 10.2403 16.2602 9.56035C16.1202 9.29035 15.9302 9.18036 15.6302 9.20036C15.5102 9.20036 15.3902 9.21034 15.2702 9.24034C14.4602 9.44034 13.7702 9.86034 13.1902 10.4603C12.9202 10.7403 12.6902 11.0604 12.6702 11.4804C12.6502 11.9504 12.6302 12.4203 12.6102 12.9003L12.6202 12.8804ZM8.82025 13.0303C8.77025 12.5903 8.77025 12.1204 8.76025 11.6604C8.75025 11.2104 8.58025 10.8404 8.29025 10.5104C7.82025 9.98036 7.24025 9.61035 6.58025 9.35035C6.28025 9.23035 5.98025 9.17035 5.66025 9.19035C5.47025 9.21035 5.33025 9.29034 5.24025 9.46034C4.91025 10.0703 4.58025 10.6804 4.30025 11.3204C4.21025 11.5304 4.13025 11.7503 4.07025 11.9703C3.97025 12.3703 4.06025 12.4804 4.45025 12.4204C4.94025 12.3504 5.41025 12.4303 5.87025 12.5903C6.64025 12.8403 7.30025 13.2803 7.95025 13.7503C8.10025 13.8603 8.24025 13.9803 8.40025 14.0803C8.55025 14.1703 8.66025 14.1303 8.73025 13.9603C8.75025 13.9003 8.77025 13.8403 8.78025 13.7703C8.80025 13.5303 8.81025 13.2903 8.83025 13.0303H8.82025ZM11.6602 3.75035C11.5702 3.75035 11.5302 3.79033 11.5002 3.86033C11.4502 3.96033 11.4602 4.06035 11.4802 4.16035C11.5302 4.45035 11.6202 4.74034 11.7002 5.02034C12.0102 6.10034 12.2802 7.18036 12.4602 8.29036C12.5302 8.70036 12.5902 9.11034 12.6702 9.52034C12.7402 9.85034 12.8002 9.88035 13.0902 9.72035C13.8102 9.33035 14.5402 8.96034 15.2802 8.62034C15.3202 8.60034 15.3602 8.58035 15.4102 8.56035C15.5302 8.52035 15.5702 8.45033 15.5002 8.33033C15.4302 8.21033 15.3702 8.08034 15.3002 7.96034C14.5802 6.75034 13.7302 5.64033 12.7802 4.61033C12.5302 4.34033 12.2602 4.08034 11.9502 3.87034C11.8602 3.81034 11.7602 3.76035 11.6602 3.75035ZM9.96025 4.07036C9.96025 4.07036 9.96025 4.01034 9.96025 3.99034C9.95025 3.77034 9.85025 3.71036 9.66025 3.79036C9.59025 3.82036 9.53025 3.86034 9.47025 3.90034C9.28025 4.03034 9.10025 4.18035 8.94025 4.35035C8.33025 4.95035 7.80025 5.61034 7.29025 6.30034C6.82025 6.92034 6.37025 7.56036 6.02025 8.26036C5.90025 8.50036 5.91025 8.49033 6.14025 8.61033C6.76025 8.92033 7.38025 9.23036 8.01025 9.54036C8.17025 9.62036 8.32025 9.71036 8.47025 9.79036C8.63025 9.87036 8.68025 9.85035 8.74025 9.69035C8.76025 9.63035 8.78025 9.57035 8.79025 9.50035C8.85025 9.13035 8.91025 8.75035 8.97025 8.38035C9.18025 7.17035 9.47025 5.97036 9.82025 4.79036C9.89025 4.56036 9.97025 4.33034 9.96025 4.09034V4.07036ZM4.90025 13.0203C4.71025 13.0303 4.51025 13.0303 4.32025 13.0603C4.19025 13.0803 4.07025 13.1204 3.95025 13.1604C3.77025 13.2204 3.62025 13.3304 3.54025 13.5104C3.27025 14.1404 3.13025 14.8004 3.16025 15.4804C3.17025 15.7504 3.29025 15.8004 3.52025 15.6604C3.90025 15.4204 4.27025 15.1803 4.66025 14.9703C5.21025 14.6803 5.78025 14.6303 6.39025 14.7503C6.97025 14.8603 7.54025 15.0404 8.11025 15.2004C8.20025 15.2304 8.33025 15.3403 8.41025 15.2103C8.49025 15.0903 8.40025 14.9704 8.33025 14.8804C7.90025 14.3004 7.39025 13.8004 6.76025 13.4504C6.19025 13.1404 5.56025 13.0303 4.91025 13.0203H4.90025ZM16.5903 13.0303C16.2803 13.0303 16.0102 13.0404 15.7502 13.1004C15.2402 13.2104 14.7402 13.3403 14.3202 13.6803C14.0002 13.9403 13.6803 14.2203 13.4003 14.5303C13.2703 14.6703 13.1403 14.8203 13.0603 15.0003C13.0303 15.0803 12.9803 15.1604 13.0603 15.2304C13.1303 15.3004 13.2002 15.2304 13.2702 15.2304C13.7802 15.0904 14.2902 14.9404 14.8002 14.8204C15.1902 14.7204 15.5902 14.6503 16.0102 14.7203C16.3902 14.7803 16.7203 14.9303 17.0403 15.1103C17.3703 15.3003 17.6902 15.5104 18.0102 15.7004C18.1702 15.7904 18.2403 15.7603 18.2903 15.5903C18.3003 15.5503 18.3103 15.5004 18.3103 15.4504C18.3103 14.7904 18.1903 14.1603 17.9303 13.5603C17.8403 13.3603 17.6903 13.2404 17.4903 13.1604C17.1903 13.0504 16.8702 13.0404 16.6002 13.0404L16.5903 13.0303ZM10.7403 22.0704C11.4203 22.0704 11.9103 21.5704 11.9003 20.8804C11.9003 20.2004 11.4103 19.7103 10.7203 19.7103C10.0403 19.7103 9.48025 20.2404 9.51025 20.8904C9.54025 21.6804 10.1903 22.1003 10.7403 22.0603V22.0704Z" fill="#323334"/>
<path d="M27.7707 9.77036C27.6007 10.1404 27.4407 10.4804 27.2907 10.8304C26.8607 11.7804 26.4407 12.7304 26.0207 13.6704C26.0107 13.7004 26.0007 13.7204 25.9907 13.7504C25.9107 13.8904 25.8307 13.9004 25.7607 13.7504C25.5807 13.3704 25.4007 13.0004 25.2307 12.6204C24.8407 11.7704 24.4407 10.9204 24.0507 10.0704C24.0307 10.0304 24.0207 9.98037 23.9707 9.97037C23.9207 9.99037 23.9407 10.0304 23.9407 10.0604C23.9407 10.9904 23.9407 11.9204 23.9407 12.8404C23.9407 12.9404 23.9507 13.0404 23.9707 13.1404C24.0207 13.4304 24.1507 13.6504 24.4807 13.6704C24.5307 13.6704 24.5707 13.6904 24.6107 13.7104C24.6307 13.7104 24.6507 13.7604 24.6407 13.7804C24.6407 13.8004 24.6107 13.8304 24.5907 13.8404C24.5507 13.8504 24.5007 13.8504 24.4507 13.8504C23.9907 13.8504 23.5207 13.8504 23.0607 13.8504C23.0107 13.8504 22.9707 13.8504 22.9207 13.8404C22.9007 13.8404 22.8707 13.8104 22.8707 13.7804C22.8607 13.7404 22.8807 13.7104 22.9207 13.7004C23.0107 13.6804 23.1007 13.6604 23.1907 13.6404C23.3807 13.5904 23.5107 13.4704 23.5507 13.2604C23.5807 13.1104 23.6107 12.9704 23.6107 12.8204C23.6107 11.7704 23.6107 10.7204 23.6107 9.67038C23.6107 9.62038 23.6107 9.58036 23.6107 9.53036C23.5807 9.22036 23.4907 9.12037 23.1907 9.07037C23.1307 9.06037 23.0607 9.06037 23.0007 9.04037C22.9407 9.03037 22.8907 9.01036 22.9007 8.93036C22.9007 8.88036 22.9607 8.87035 23.0107 8.86035C23.0507 8.86035 23.0807 8.86035 23.1207 8.86035C23.4707 8.86035 23.8307 8.86035 24.1807 8.86035C24.3307 8.86035 24.4107 8.91035 24.4807 9.05035C24.9807 10.1604 25.4907 11.2604 26.0007 12.3604C26.0207 12.4104 26.0307 12.4704 26.1007 12.5104C26.1707 12.4604 26.1907 12.3604 26.2307 12.2904C26.7107 11.2304 27.2007 10.1604 27.6707 9.10037C27.7507 8.93037 27.8407 8.86036 28.0207 8.87036C28.3507 8.88036 28.6907 8.87036 29.0207 8.87036C29.0807 8.87036 29.1307 8.87036 29.1907 8.87036C29.2307 8.87036 29.2507 8.90038 29.2607 8.95038C29.2607 8.99038 29.2407 9.02036 29.2007 9.03036C29.1407 9.05036 29.0707 9.05036 29.0107 9.06036C28.7607 9.11036 28.6607 9.22037 28.6307 9.47037C28.6207 9.57037 28.6307 9.67036 28.6307 9.78036C28.6307 10.8304 28.6307 11.8804 28.6307 12.9304C28.6307 12.9904 28.6307 13.0604 28.6307 13.1204C28.6507 13.4704 28.7307 13.5604 29.0707 13.6604C29.1407 13.6804 29.2707 13.6504 29.2607 13.7704C29.2507 13.8804 29.1307 13.8404 29.0507 13.8404C28.5007 13.8404 27.9507 13.8404 27.4107 13.8404C27.3707 13.8404 27.3407 13.8404 27.3007 13.8404C27.2507 13.8404 27.2107 13.8204 27.2107 13.7604C27.2107 13.7204 27.2507 13.7004 27.2807 13.6904C27.3707 13.6704 27.4607 13.6504 27.5507 13.6204C27.7107 13.5704 27.8007 13.4704 27.8207 13.3104C27.8307 13.1704 27.8607 13.0304 27.8607 12.9004C27.8607 11.9104 27.8607 10.9104 27.8607 9.92038C27.8607 9.88038 27.8807 9.83038 27.8107 9.76038L27.7707 9.77036Z" fill="#323334"/>
<path d="M46.0898 9.9404V10.4604C46.0898 11.2004 46.0898 11.9404 46.0898 12.6904C46.0898 12.8704 46.1098 13.0404 46.1298 13.2204C46.1598 13.4704 46.2898 13.6204 46.5398 13.6804C46.6198 13.7004 46.7698 13.6804 46.7598 13.7904C46.7498 13.9304 46.5898 13.8704 46.4998 13.8704C46.0798 13.8704 45.6598 13.8704 45.2498 13.8704C45.1898 13.8704 45.1198 13.8704 45.0598 13.8504C45.0398 13.8504 45.0198 13.8104 45.0198 13.7904C45.0098 13.7604 45.0298 13.7404 45.0598 13.7304C45.1298 13.7104 45.1998 13.6904 45.2798 13.6704C45.5798 13.5904 45.6798 13.4804 45.7098 13.1704C45.7398 12.9204 45.7598 12.6704 45.7498 12.4204C45.7498 11.5304 45.7498 10.6404 45.7498 9.7504C45.7498 9.3804 45.5598 9.15038 45.1898 9.08038C45.1498 9.08038 45.1198 9.08039 45.0798 9.06039C45.0398 9.06039 45.0198 9.03041 45.0098 8.98041C45.0098 8.94041 45.0398 8.91039 45.0698 8.90039C45.1098 8.90039 45.1398 8.90039 45.1798 8.90039C45.4998 8.90039 45.8098 8.90039 46.1298 8.90039C46.2498 8.90039 46.3098 8.95041 46.3798 9.04041C46.9998 9.81041 47.6198 10.5704 48.2398 11.3304C48.4998 11.6504 48.7598 11.9804 49.0298 12.3004C49.0498 12.3304 49.0698 12.3604 49.1198 12.3604C49.1798 12.3204 49.1498 12.2404 49.1498 12.1904C49.1498 11.4304 49.1498 10.6704 49.1498 9.9104C49.1498 9.7704 49.1298 9.6304 49.1098 9.5004C49.0798 9.2604 48.9498 9.14038 48.7198 9.11038C48.6298 9.10038 48.4698 9.12041 48.4898 8.98041C48.5098 8.87041 48.6498 8.92041 48.7298 8.92041C49.1598 8.92041 49.5798 8.92041 50.0098 8.92041C50.0698 8.92041 50.1198 8.92041 50.1798 8.92041C50.1998 8.92041 50.2298 8.9504 50.2398 8.9704C50.2498 9.0104 50.2398 9.0404 50.1998 9.0704C50.1398 9.1104 50.0598 9.1104 49.9898 9.1304C49.6498 9.2204 49.5698 9.32041 49.5398 9.67041C49.5298 9.79041 49.5398 9.9104 49.5398 10.0304C49.5398 11.2404 49.5398 12.4404 49.5398 13.6504C49.5398 13.7504 49.5998 13.8804 49.4898 13.9304C49.3598 13.9904 49.2998 13.8504 49.2398 13.7704C48.5798 12.9604 47.9198 12.1404 47.2598 11.3304C46.9298 10.9204 46.5998 10.5104 46.2598 10.1004C46.2298 10.0604 46.1998 10.0104 46.0898 9.98041V9.9404Z" fill="#323334"/>
<path d="M24.2099 0.630421C24.5599 0.630421 24.9199 0.620421 25.2699 0.630421C25.7299 0.650421 26.1499 0.790411 26.5099 1.12041C27.0399 1.61041 26.9599 2.76041 26.1999 3.12041C25.8599 3.28041 25.5099 3.39041 25.1299 3.40041C24.9099 3.40041 24.6799 3.40041 24.4599 3.40041C24.3599 3.40041 24.2999 3.42042 24.2999 3.54042C24.2999 4.02042 24.2999 4.51041 24.3099 4.99041C24.3099 5.24041 24.3899 5.30041 24.6399 5.37041C24.7399 5.39041 24.8399 5.41041 24.9399 5.43041C24.9799 5.43041 25.0099 5.47043 24.9999 5.51043C24.9999 5.55043 24.9699 5.5704 24.9199 5.5804C24.8699 5.5804 24.8299 5.5804 24.7799 5.5804C24.2299 5.5804 23.6799 5.5804 23.1399 5.5804C23.0899 5.5804 23.0499 5.5804 22.9999 5.5804C22.9599 5.5804 22.9199 5.56041 22.9199 5.52041C22.9199 5.48041 22.9299 5.45042 22.9799 5.44042C23.0499 5.42042 23.1199 5.40042 23.1999 5.38042C23.3899 5.35042 23.4899 5.22042 23.5099 5.04042C23.5299 4.93042 23.5299 4.82041 23.5299 4.71041C23.5299 3.63041 23.5299 2.56043 23.5299 1.48043C23.5299 1.42043 23.5299 1.37041 23.5299 1.31041C23.4999 0.970414 23.4199 0.870404 23.0899 0.800404C23.0199 0.780404 22.9099 0.800428 22.9299 0.700428C22.9399 0.600428 23.0499 0.640431 23.1199 0.640431C23.4799 0.640431 23.8399 0.640431 24.2099 0.640431V0.630421ZM24.2999 2.0504C24.2999 2.3304 24.2999 2.60042 24.2999 2.88042C24.2999 3.07042 24.2999 3.08041 24.5099 3.09041C24.6999 3.09041 24.8999 3.0904 25.0899 3.0804C25.6399 3.0204 25.9699 2.6704 25.9999 2.1104C25.9999 2.0304 25.9999 1.9404 25.9999 1.8604C25.9899 1.5304 25.8299 1.28041 25.5399 1.12041C25.2499 0.960411 24.9299 0.91042 24.6099 0.91042C24.3599 0.91042 24.3199 0.940419 24.3099 1.19042C24.3099 1.48042 24.3099 1.7604 24.3099 2.0504H24.2999Z" fill="#323334"/>
<path d="M60.1803 18.2101C60.1803 18.3701 60.1803 18.5301 60.1803 18.6801C60.1803 18.7301 60.1603 18.7701 60.1003 18.7801C60.0503 18.7801 60.0003 18.7801 59.9803 18.7301C59.9303 18.6101 59.8803 18.4901 59.8303 18.3701C59.5903 17.7701 59.1203 17.4501 58.4903 17.4001C57.9003 17.3601 57.4303 17.6101 57.0803 18.0901C56.6603 18.6601 56.5903 19.3201 56.6303 20.0001C56.6403 20.2501 56.7003 20.5001 56.7903 20.7301C57.1603 21.6801 58.0703 22.1101 59.0603 21.8101C59.3403 21.7301 59.5903 21.6001 59.8203 21.4101C59.9103 21.3401 59.9903 21.2701 60.0803 21.2001C60.1103 21.1801 60.1503 21.1601 60.1803 21.2001C60.2203 21.2301 60.2403 21.2701 60.2303 21.3201C60.2203 21.3901 60.1603 21.4301 60.1203 21.4801C59.1003 22.5901 57.3403 22.4501 56.4403 21.5501C56.1203 21.2301 55.9103 20.8401 55.8203 20.3901C55.6603 19.5901 55.7403 18.8401 56.2103 18.1601C56.6803 17.4801 57.3403 17.1301 58.1703 17.1201C58.5703 17.1201 58.9603 17.1401 59.3503 17.2701C59.5403 17.3301 59.7503 17.3801 59.9103 17.1701C59.9503 17.1201 60.0003 17.1101 60.0603 17.1301C60.1303 17.1501 60.1203 17.2201 60.1203 17.2701C60.1403 17.5801 60.1503 17.9001 60.1703 18.2101H60.1803Z" fill="#323334"/>
<path d="M33.7506 20.5401C33.4906 20.5401 33.2306 20.5401 32.9706 20.5401C32.8306 20.5401 32.7506 20.5901 32.7006 20.7201C32.6306 20.9301 32.5306 21.1301 32.4406 21.3401C32.4006 21.4401 32.3606 21.5501 32.3906 21.6601C32.4406 21.8401 32.5506 21.9701 32.7706 21.9601C32.8306 21.9601 32.8806 21.9801 32.8706 22.0601C32.8706 22.1201 32.8106 22.1301 32.7706 22.1301C32.3406 22.1301 31.9206 22.1301 31.4906 22.1301C31.4406 22.1301 31.4006 22.1201 31.3906 22.0601C31.3906 22.0101 31.4206 21.9701 31.4706 21.9701C31.7406 21.9401 31.8506 21.7301 31.9506 21.5201C32.3006 20.8301 32.5706 20.1101 32.8706 19.4101C33.1706 18.7201 33.4506 18.0301 33.7506 17.3401C33.7606 17.3101 33.7706 17.2901 33.7806 17.2601C33.8106 17.1901 33.8406 17.1301 33.9306 17.1201C34.0206 17.1201 34.0606 17.1801 34.0906 17.2501C34.2106 17.5301 34.3306 17.8101 34.4606 18.0901C34.9106 19.1301 35.3606 20.1601 35.8106 21.2001C35.8706 21.3401 35.9506 21.4801 36.0206 21.6201C36.1106 21.7901 36.2306 21.9301 36.4306 21.9601C36.4906 21.9601 36.5406 21.9901 36.5306 22.0601C36.5206 22.1301 36.4506 22.1301 36.4006 22.1301C35.8506 22.1301 35.3106 22.1301 34.7606 22.1301C34.7406 22.1301 34.7206 22.1301 34.7006 22.1301C34.6506 22.1301 34.6106 22.1001 34.6206 22.0401C34.6206 22.0001 34.6506 21.9701 34.6906 21.9701C34.7506 21.9701 34.8006 21.9701 34.8606 21.9601C35.0706 21.9301 35.1506 21.8201 35.1106 21.6101C35.0806 21.4601 35.0206 21.3101 34.9606 21.1601C34.9306 21.0801 34.8906 21.0101 34.8606 20.9301C34.6606 20.4601 34.7506 20.5501 34.2906 20.5401C34.1006 20.5401 33.9206 20.5401 33.7306 20.5401H33.7506ZM33.7706 18.2401C33.7706 18.2401 33.7306 18.2401 33.7106 18.2401C33.4606 18.8501 33.2106 19.4501 32.9606 20.0601C32.9206 20.1701 32.9706 20.2101 33.0806 20.2101C33.5306 20.2101 33.9906 20.2101 34.4406 20.2101C34.5606 20.2101 34.5806 20.1501 34.5406 20.0501C34.4906 19.9301 34.4406 19.8101 34.3906 19.6901C34.1806 19.2101 33.9806 18.7201 33.7706 18.2401Z" fill="#323334"/>
<path d="M50.7707 20.5401C50.5107 20.5401 50.2507 20.5401 49.9907 20.5401C49.8607 20.5401 49.7807 20.5701 49.7407 20.7001C49.6607 20.9401 49.5407 21.1801 49.4607 21.4301C49.3607 21.7401 49.4607 21.8901 49.7807 21.9601C49.8407 21.9701 49.8907 21.9901 49.8907 22.0601C49.8907 22.1401 49.8207 22.1301 49.7707 22.1401C49.3707 22.1401 48.9707 22.1401 48.5707 22.1401C48.5207 22.1401 48.4507 22.1401 48.4407 22.0701C48.4307 22.0001 48.4807 21.9801 48.5407 21.9701C48.7707 21.9301 48.8707 21.7601 48.9707 21.5701C49.2307 21.0801 49.4207 20.5501 49.6407 20.0401C50.0307 19.1401 50.4107 18.2301 50.7907 17.3301C50.8007 17.3001 50.8107 17.2801 50.8207 17.2501C50.8507 17.1801 50.8807 17.1201 50.9807 17.1201C51.0607 17.1201 51.0907 17.1901 51.1107 17.2401C51.2007 17.4401 51.2807 17.6301 51.3707 17.8301C51.9007 19.0301 52.4207 20.2201 52.9507 21.4201C53.0607 21.6801 53.1807 21.9401 53.5107 21.9701C53.5507 21.9701 53.5707 22.0001 53.5707 22.0501C53.5707 22.1101 53.5307 22.1301 53.4807 22.1301C53.4207 22.1301 53.3707 22.1301 53.3107 22.1301C52.8507 22.1301 52.3807 22.1301 51.9207 22.1301C51.8607 22.1301 51.7907 22.1301 51.7307 22.1301C51.6907 22.1301 51.6607 22.1001 51.6707 22.0601C51.6707 22.0201 51.6907 21.9901 51.7307 21.9801C51.7807 21.9801 51.8207 21.9801 51.8707 21.9701C52.1107 21.9401 52.2107 21.8001 52.1507 21.5701C52.1007 21.3801 52.0207 21.2001 51.9507 21.0201C51.8241 20.7068 51.5974 20.5501 51.2707 20.5501H50.7707V20.5401ZM50.8107 18.2501C50.8107 18.2501 50.7707 18.2501 50.7407 18.2501C50.4807 18.9001 50.2107 19.5401 49.9407 20.2101H51.6207C51.3407 19.5401 51.0707 18.8901 50.8107 18.2501Z" fill="#323334"/>
<path d="M55.7205 5.27045C55.6205 5.27045 55.5705 5.35045 55.5105 5.40045C54.9705 5.78045 54.3005 5.71046 53.8505 5.22046C53.3805 4.71046 53.3005 4.10047 53.4705 3.45047C53.5905 3.01047 53.8105 2.63044 54.1905 2.36044C54.5705 2.08044 55.2205 1.97044 55.6405 2.33044C55.6505 2.34044 55.6705 2.33045 55.6905 2.34045C55.7705 2.31045 55.7505 2.23047 55.7505 2.17047C55.7505 1.87047 55.7505 1.58046 55.7505 1.28046C55.7505 0.980457 55.6805 0.920461 55.3705 0.910461C55.3305 0.910461 55.2705 0.940453 55.2605 0.870453C55.2605 0.820453 55.2905 0.790447 55.3305 0.770447C55.3505 0.770447 55.3605 0.760458 55.3805 0.750458C55.7205 0.700458 56.0305 0.530469 56.3705 0.480469C56.4105 0.650469 56.3905 0.820448 56.3905 0.990448C56.3605 2.21045 56.3905 3.44046 56.3805 4.66046C56.3805 4.71046 56.3805 4.75045 56.3805 4.80045C56.4005 5.03045 56.4405 5.07045 56.6705 5.09045C56.7405 5.09045 56.8605 5.04046 56.8805 5.16046C56.9005 5.27046 56.7705 5.27045 56.7005 5.30045C56.4405 5.40045 56.1805 5.49045 55.9205 5.59045C55.8105 5.64045 55.7405 5.63045 55.7405 5.49045C55.7405 5.42045 55.7505 5.34046 55.7205 5.28046V5.27045ZM55.7705 3.88046C55.7705 3.67046 55.7705 3.45045 55.7705 3.24045C55.7705 3.03045 55.7505 2.81046 55.6105 2.63046C55.3005 2.23046 54.6605 2.25047 54.3605 2.67047C53.9005 3.30047 53.9705 4.28046 54.4405 4.91046C54.6405 5.17046 55.0705 5.28046 55.3805 5.16046C55.6405 5.07046 55.7705 4.81045 55.7705 4.43045C55.7705 4.24045 55.7705 4.06045 55.7705 3.87045V3.88046Z" fill="#323334"/>
<path d="M25.3704 22.1702C25.2804 22.0502 25.3604 21.9202 25.3104 21.8202C25.2504 21.8002 25.2304 21.8402 25.2004 21.8602C24.5104 22.4302 23.5804 22.2402 23.1604 21.4402C22.7204 20.6202 23.0104 19.4302 23.7804 18.9002C24.2404 18.5902 24.7404 18.5802 25.2104 18.8902C25.2304 18.9002 25.2604 18.9102 25.2804 18.9202C25.3504 18.8702 25.3204 18.8002 25.3204 18.7402C25.3204 18.4402 25.3204 18.1502 25.3204 17.8502C25.3204 17.5902 25.2504 17.5302 25.0004 17.4802C24.9304 17.4702 24.8304 17.5202 24.8204 17.4102C24.8204 17.3102 24.9204 17.3102 24.9804 17.2902C25.2604 17.2202 25.5404 17.1702 25.8104 17.0502C25.9304 17.0002 25.9604 17.0602 25.9604 17.1602C25.9604 17.2402 25.9604 17.3302 25.9604 17.4102C25.8904 18.5002 25.9404 19.6002 25.9304 20.6902C25.9304 20.8802 25.9304 21.0602 25.9304 21.2502C25.9304 21.5602 26.0004 21.6302 26.3004 21.6602C26.3204 21.6602 26.3404 21.6602 26.3604 21.6602C26.4104 21.6602 26.4604 21.6602 26.4604 21.7202C26.4604 21.7602 26.4304 21.7902 26.4004 21.8002C26.0604 21.9202 25.7204 22.0302 25.3804 22.1502L25.3704 22.1702ZM25.3304 20.4202C25.3304 20.1702 25.3304 19.9202 25.3304 19.6702C25.3304 19.6502 25.3304 19.6302 25.3304 19.6102C25.3004 19.2602 25.1204 19.0402 24.7804 18.9302C24.4804 18.8302 24.1604 18.9302 23.9604 19.1902C23.8704 19.3002 23.8004 19.4202 23.7604 19.5502C23.5804 20.0802 23.5904 20.6102 23.8004 21.1202C23.9804 21.5802 24.2504 21.7502 24.7404 21.7402C25.1304 21.7402 25.3304 21.5402 25.3404 21.1402C25.3404 20.9002 25.3404 20.6602 25.3404 20.4202H25.3304Z" fill="#323334"/>
<path d="M39.8199 2.62045C39.9299 2.58045 40.0199 2.49047 40.1099 2.42047C40.3399 2.24047 40.5999 2.12046 40.8999 2.13046C41.2099 2.14046 41.4299 2.28046 41.5599 2.56046C41.6599 2.75046 41.6899 2.96045 41.6899 3.18045C41.6899 3.74045 41.6899 4.29047 41.6899 4.85047C41.6899 5.13047 41.7299 5.37045 42.0599 5.43045C42.0999 5.43045 42.1299 5.47047 42.1199 5.51047C42.1199 5.57047 42.0599 5.57047 42.0099 5.57047C41.5699 5.57047 41.1399 5.57047 40.6999 5.57047C40.6999 5.57047 40.6799 5.57047 40.6699 5.57047C40.6199 5.57047 40.5799 5.57046 40.5799 5.50046C40.5799 5.45046 40.6199 5.44045 40.6499 5.43045C40.9499 5.37045 41.0199 5.17045 41.0199 4.90045C41.0199 4.34045 41.0199 3.79047 41.0199 3.23047C41.0199 3.15047 41.0199 3.06047 40.9999 2.98047C40.9299 2.63047 40.6799 2.49046 40.3399 2.59046C40.2099 2.63046 40.0799 2.69047 39.9799 2.79047C39.8499 2.90047 39.7799 3.03046 39.7799 3.22046C39.7999 3.79046 39.7799 4.37046 39.7799 4.94046C39.7799 5.29046 39.8099 5.33047 40.1499 5.42047C40.1999 5.43047 40.2799 5.43047 40.2599 5.51047C40.2499 5.58047 40.1799 5.57047 40.1199 5.57047C39.6799 5.57047 39.2499 5.57047 38.8099 5.57047C38.7599 5.57047 38.6899 5.57046 38.6899 5.50046C38.6899 5.44046 38.7399 5.43047 38.7899 5.42047C39.0599 5.37047 39.1199 5.19047 39.1199 4.95047C39.1199 4.30047 39.1199 3.65046 39.1199 3.00046C39.1199 2.68046 39.0599 2.62047 38.7399 2.57047C38.6999 2.57047 38.6399 2.57047 38.6299 2.51047C38.6299 2.43047 38.6899 2.43047 38.7399 2.42047C39.0099 2.36047 39.2799 2.28046 39.5399 2.19046C39.7199 2.13046 39.7299 2.14046 39.7499 2.35046C39.7499 2.44046 39.7199 2.53046 39.7999 2.63046L39.8199 2.62045Z" fill="#323334"/>
<path d="M63.9799 10.9707C64.1699 10.8207 64.3099 10.7207 64.4499 10.6207C64.6299 10.5007 64.8299 10.4307 65.0499 10.4307C65.4599 10.4307 65.7399 10.6407 65.8499 11.0307C65.8999 11.2007 65.9199 11.3707 65.9199 11.5507C65.9199 12.1107 65.9199 12.6607 65.9199 13.2207C65.9199 13.5407 65.9699 13.6107 66.2799 13.7207C66.3299 13.7407 66.3699 13.7607 66.3599 13.8107C66.3499 13.8607 66.2899 13.8707 66.2499 13.8707C65.9399 13.8707 65.6399 13.8707 65.3299 13.8707C65.1999 13.8707 65.0699 13.8707 64.9399 13.8707C64.8899 13.8707 64.8399 13.8707 64.8299 13.8107C64.8199 13.7507 64.8599 13.7307 64.9099 13.7207C65.2199 13.6607 65.2999 13.4407 65.3099 13.1707C65.3099 12.6307 65.3099 12.0907 65.3099 11.5607C65.3099 11.3907 65.2599 11.2307 65.1799 11.0807C65.0799 10.8907 64.9099 10.8107 64.6999 10.8507C64.4399 10.9007 64.2599 11.0807 64.0799 11.2507C64.0299 11.3007 64.0299 11.3707 64.0299 11.4307C64.0299 12.0607 64.0299 12.6907 64.0299 13.3207C64.0299 13.5907 64.0899 13.6507 64.3599 13.7207C64.4199 13.7307 64.5099 13.7007 64.4999 13.8007C64.4999 13.8607 64.4199 13.8707 64.3699 13.8707C63.9299 13.8707 63.4799 13.8707 63.0299 13.8707C63.0099 13.8707 62.9899 13.8707 62.9699 13.8707C62.9299 13.8707 62.8999 13.8407 62.8999 13.8007C62.8999 13.7507 62.9299 13.7407 62.9699 13.7307C63.3099 13.6107 63.3599 13.5607 63.3599 13.2007C63.3599 12.5907 63.3599 11.9807 63.3599 11.3607C63.3599 11.3107 63.3599 11.2707 63.3599 11.2207C63.3299 10.9707 63.2699 10.9107 63.0099 10.8807C62.9599 10.8807 62.8899 10.9007 62.8799 10.8207C62.8799 10.7507 62.9299 10.7307 62.9899 10.7207C63.2599 10.6407 63.5399 10.5507 63.8099 10.4607C63.9299 10.4207 63.9899 10.4607 63.9799 10.5907C63.9799 10.7007 63.9799 10.8107 63.9799 10.9807V10.9707Z" fill="#323334"/>
<path d="M31.9405 13.9204V13.3304C31.8205 13.3904 31.7605 13.4804 31.6905 13.5404C31.5205 13.7004 31.3305 13.8204 31.0905 13.8804C30.4705 14.0304 29.9505 13.6504 29.9405 13.0004C29.9405 12.4504 29.9405 11.9104 29.9405 11.3604C29.9405 11.2704 29.9405 11.1704 29.9405 11.0804C29.9405 10.7304 29.9105 10.7004 29.5905 10.5804C29.5705 10.5804 29.5405 10.5504 29.5205 10.5404C29.5405 10.4504 29.6005 10.4804 29.6505 10.4804C29.8905 10.4804 30.1305 10.4804 30.3705 10.4804C30.5805 10.4804 30.5805 10.4804 30.5805 10.7004C30.5805 11.3404 30.5805 11.9804 30.5805 12.6204C30.5805 12.7104 30.5805 12.8104 30.5805 12.9004C30.6205 13.3604 30.9405 13.5704 31.3805 13.4204C31.5605 13.3604 31.6905 13.2304 31.8205 13.0904C31.8905 13.0204 31.8705 12.9304 31.8705 12.8504C31.8705 12.2704 31.8705 11.6804 31.8705 11.1004C31.8705 10.7604 31.8305 10.7204 31.4905 10.6404C31.4305 10.6304 31.3605 10.6304 31.3405 10.5504C31.3605 10.4704 31.4305 10.4904 31.4805 10.4904C31.7705 10.4904 32.0605 10.4904 32.3405 10.4904C32.5305 10.4904 32.5405 10.4904 32.5405 10.7004C32.5405 11.4404 32.5405 12.1804 32.5405 12.9304C32.5405 13.0004 32.5405 13.0804 32.5405 13.1504C32.5505 13.3904 32.5805 13.4204 32.8305 13.4604C32.8805 13.4604 32.9505 13.4604 32.9605 13.5304C32.9605 13.6004 32.9005 13.6104 32.8505 13.6304C32.5605 13.7304 32.2705 13.8204 31.9305 13.9304L31.9405 13.9204Z" fill="#323334"/>
<path d="M69.8003 13.35C69.7703 13.64 69.5403 13.84 69.2303 13.89C68.9103 13.94 68.7903 13.85 68.5903 13.45C68.5003 13.45 68.4503 13.53 68.3903 13.58C68.2203 13.7 68.0503 13.81 67.8603 13.87C67.5003 13.98 67.1203 13.89 66.9203 13.64C66.7103 13.38 66.7003 12.94 66.8903 12.62C67.0303 12.39 67.2503 12.24 67.4703 12.12C67.7703 11.95 68.0903 11.82 68.4103 11.71C68.5503 11.66 68.6203 11.59 68.6103 11.43C68.5903 11.29 68.6103 11.15 68.6003 11.01C68.5803 10.78 68.4703 10.66 68.2503 10.6C67.8203 10.49 67.5303 10.72 67.5603 11.16C67.5703 11.31 67.5403 11.44 67.4003 11.51C67.2903 11.57 67.1303 11.55 67.0203 11.44C66.9103 11.33 66.8603 11.19 66.9103 11.03C66.9703 10.85 67.1103 10.71 67.2703 10.61C67.7303 10.32 68.2303 10.3 68.7403 10.48C69.0003 10.57 69.1603 10.77 69.2103 11.05C69.2403 11.23 69.2703 11.42 69.2703 11.6C69.2703 12.07 69.2703 12.55 69.2703 13.02C69.2703 13.44 69.4103 13.53 69.8203 13.34L69.8003 13.35ZM68.6003 12.53C68.6003 12.35 68.6003 12.18 68.6003 12C68.6003 11.89 68.5503 11.84 68.4503 11.89C68.2103 11.99 67.9703 12.08 67.7603 12.24C67.6703 12.31 67.5803 12.4 67.5203 12.51C67.3703 12.77 67.3903 13.11 67.5603 13.28C67.7503 13.46 68.0703 13.5 68.3403 13.36C68.5203 13.27 68.6203 13.13 68.6003 12.92C68.5903 12.79 68.6003 12.66 68.6003 12.53Z" fill="#323334"/>
<path d="M53.6306 13.3702C53.6306 13.6102 53.4306 13.8202 53.1206 13.8802C52.7906 13.9502 52.6206 13.8402 52.4706 13.4502C52.3706 13.4502 52.3306 13.5202 52.2606 13.5702C52.0706 13.7202 51.8606 13.8402 51.6206 13.9002C51.3006 13.9802 51.0306 13.9001 50.8006 13.6801C50.5606 13.4401 50.5506 13.1302 50.6506 12.8202C50.7206 12.6102 50.8506 12.4502 51.0206 12.3202C51.3506 12.0702 51.7306 11.9201 52.1106 11.7701C52.3439 11.6835 52.4572 11.5135 52.4506 11.2602C52.4506 11.1802 52.4506 11.0902 52.4406 11.0102C52.4006 10.7502 52.2606 10.6102 52.0006 10.6002C51.7706 10.6002 51.5606 10.6301 51.4306 10.8601C51.3706 10.9701 51.3906 11.0701 51.3906 11.1801C51.3906 11.3101 51.3906 11.4401 51.2506 11.5201C51.1406 11.5801 50.9606 11.5601 50.8606 11.4601C50.7606 11.3601 50.7206 11.2201 50.7606 11.0801C50.8206 10.8701 50.9606 10.7202 51.1406 10.6202C51.6106 10.3502 52.1106 10.3302 52.6106 10.5302C52.8706 10.6302 53.0106 10.8502 53.0506 11.1302C53.0906 11.3702 53.1006 11.6102 53.0906 11.8502C53.0906 12.2702 53.0906 12.6802 53.0906 13.1002C53.0906 13.4702 53.2406 13.5602 53.5706 13.3902C53.5806 13.3902 53.6006 13.3902 53.6206 13.3902L53.6306 13.3702ZM52.4606 12.5201C52.4606 12.3401 52.4606 12.1701 52.4606 11.9901C52.4606 11.8901 52.4006 11.8602 52.3206 11.8902C52.0706 12.0002 51.8206 12.0901 51.6106 12.2701C51.4706 12.3801 51.3606 12.5202 51.3106 12.7002C51.2006 13.0702 51.3806 13.3702 51.7506 13.4502C52.1206 13.5302 52.4606 13.2602 52.4606 12.8902C52.4606 12.7702 52.4606 12.6502 52.4606 12.5302V12.5201Z" fill="#323334"/>
<path d="M30.2407 5.07034C30.2707 5.16034 30.2607 5.22032 30.2107 5.27032C30.0907 5.39032 29.9607 5.52033 29.7907 5.59033C29.5007 5.70033 29.2607 5.60032 29.1207 5.33032C29.0307 5.15032 29.0307 5.15032 28.8707 5.27032C28.7007 5.40032 28.5207 5.52033 28.3207 5.59033C27.8607 5.75033 27.5107 5.57033 27.3307 5.31033C27.1207 5.01033 27.1607 4.55033 27.4107 4.25033C27.5707 4.06033 27.7707 3.93034 27.9807 3.82034C28.2707 3.67034 28.5707 3.55034 28.8807 3.45034C29.0107 3.41034 29.0607 3.34032 29.0507 3.21032C29.0507 3.04032 29.0607 2.88032 29.0207 2.71032C28.9707 2.48032 28.8207 2.33034 28.6107 2.32034C28.3807 2.30034 28.1607 2.33033 28.0307 2.56033C27.9907 2.63033 27.9607 2.69032 27.9807 2.77032C27.9807 2.82032 28.0007 2.86033 28.0007 2.91033C28.0007 3.09033 27.9507 3.20033 27.8207 3.25033C27.6907 3.31033 27.5607 3.28034 27.4507 3.20034C27.3407 3.13034 27.2907 2.93032 27.3307 2.80032C27.4207 2.56032 27.5707 2.38033 27.8107 2.28033C28.2207 2.10033 28.6507 2.06032 29.0807 2.21032C29.3607 2.31032 29.5507 2.50034 29.6307 2.79034C29.6807 2.96034 29.6907 3.14033 29.6907 3.31033C29.6907 3.80033 29.6907 4.29033 29.6907 4.78033C29.6907 4.84033 29.6907 4.91033 29.6907 4.97033C29.7207 5.12033 29.8807 5.21033 30.0307 5.16033C30.0907 5.14033 30.1307 5.08032 30.2207 5.08032L30.2407 5.07034ZM29.0607 3.56033C28.6407 3.71033 28.2807 3.87033 28.0107 4.19033C27.8507 4.39033 27.8307 4.61033 27.9007 4.84033C27.9807 5.08033 28.2007 5.13034 28.4107 5.17034C28.6707 5.22034 29.0407 4.96033 29.0507 4.72033C29.0607 4.35033 29.0507 3.98033 29.0507 3.56033H29.0607Z" fill="#323334"/>
<path d="M36.6501 5.69006C35.8801 5.69006 35.1901 5.10006 35.0201 4.31006C34.8801 3.64006 35.0501 3.06005 35.5301 2.58005C35.9101 2.20005 36.4001 2.09007 36.9201 2.17007C37.7201 2.29007 38.2201 2.83007 38.3101 3.64007C38.3701 4.14007 38.2501 4.60007 37.9701 5.01007C37.6601 5.48007 37.2201 5.71007 36.6501 5.70007V5.69006ZM37.5701 4.11004C37.5701 3.98004 37.5801 3.85006 37.5701 3.72006C37.5301 3.28006 37.3701 2.89005 37.0601 2.58005C36.8501 2.37005 36.5801 2.30007 36.2901 2.42007C35.9501 2.56007 35.8101 2.86007 35.7301 3.20007C35.6601 3.54007 35.6801 3.88006 35.7301 4.22006C35.7901 4.54006 35.9001 4.84004 36.1001 5.11004C36.3101 5.40004 36.6001 5.48005 36.9401 5.43005C37.2401 5.38005 37.3801 5.15007 37.4801 4.89007C37.5701 4.64007 37.5801 4.38005 37.5701 4.12005V4.11004Z" fill="#323334"/>
<path d="M47.8203 3.8702C47.8403 3.1902 48.1003 2.63021 48.7203 2.32021C49.2903 2.03021 49.9003 2.06022 50.4403 2.42022C51.0503 2.83022 51.2203 3.4602 51.1403 4.1502C51.0803 4.6102 50.8903 5.02019 50.5203 5.33019C49.7403 5.96019 48.6203 5.7502 48.1003 4.8702C47.9103 4.5602 47.8203 4.23019 47.8303 3.86019L47.8203 3.8702ZM48.5303 3.67022C48.5203 4.20022 48.6503 4.68021 48.9503 5.10021C49.1403 5.38021 49.4303 5.47022 49.7603 5.42022C50.0603 5.37022 50.2303 5.17021 50.3303 4.91021C50.3603 4.84021 50.3803 4.77021 50.3903 4.70021C50.5003 4.22021 50.4703 3.74019 50.3303 3.27019C50.2603 3.04019 50.1603 2.82022 49.9903 2.64022C49.5803 2.20022 48.9703 2.29021 48.7003 2.82021C48.5603 3.09021 48.5403 3.39022 48.5403 3.67022H48.5303Z" fill="#323334"/>
<path d="M45.5598 5.07052C45.5598 5.07052 45.5798 5.12051 45.5798 5.13051C45.5298 5.34051 45.1998 5.59051 44.9598 5.62051C44.7298 5.64051 44.5598 5.54051 44.4498 5.28051C44.3998 5.15051 44.3398 5.14051 44.2498 5.22051C44.0498 5.39051 43.8298 5.53051 43.5798 5.59051C43.3698 5.64051 43.1598 5.64051 42.9598 5.53051C42.4998 5.27051 42.3998 4.67052 42.7498 4.23052C42.9098 4.03052 43.1198 3.89051 43.3398 3.78051C43.6098 3.64051 43.8998 3.5405 44.1898 3.4305C44.3998 3.3505 44.4098 3.3505 44.4098 3.1105C44.4098 2.8905 44.4298 2.67051 44.2798 2.47051C44.0598 2.19051 43.5598 2.2205 43.3698 2.5205C43.3098 2.6205 43.3398 2.71051 43.3498 2.81051C43.3698 3.03051 43.2998 3.16051 43.1398 3.22051C42.9998 3.27051 42.8698 3.24052 42.7798 3.14052C42.6798 3.03052 42.6198 2.89052 42.6898 2.73052C42.8098 2.46052 43.0198 2.2805 43.2898 2.1805C43.6298 2.0605 43.9798 2.03051 44.3298 2.13051C44.6598 2.22051 44.8798 2.43052 44.9698 2.76052C45.0198 2.93052 45.0398 3.10051 45.0398 3.28051C45.0398 3.75051 45.0398 4.23052 45.0398 4.70052C45.0398 4.77052 45.0398 4.85052 45.0398 4.92052C45.0698 5.13052 45.2398 5.2105 45.4298 5.1105C45.4698 5.0905 45.4998 5.0405 45.5698 5.0505L45.5598 5.07052ZM44.4098 4.1805C44.4098 4.0105 44.4098 3.8505 44.4098 3.6805C44.4098 3.5905 44.3598 3.56051 44.2798 3.59051C43.9298 3.72051 43.5898 3.86051 43.3498 4.16051C43.0098 4.57051 43.1898 5.06051 43.7098 5.16051C44.0298 5.22051 44.3898 4.94051 44.4098 4.62051C44.4098 4.47051 44.4098 4.3205 44.4098 4.1805Z" fill="#323334"/>
<path d="M42.86 12.1201C42.88 12.7201 42.67 13.2101 42.25 13.5801C41.56 14.1901 40.5 14.0701 39.93 13.3401C39.32 12.5601 39.42 11.4301 40.16 10.7801C40.91 10.1201 42.37 10.3601 42.75 11.4401C42.83 11.6701 42.87 11.9001 42.86 12.1201ZM42.14 12.4301C42.14 12.3201 42.14 12.2101 42.14 12.1001C42.1 11.7001 41.97 11.3301 41.75 10.9901C41.51 10.6101 40.76 10.4501 40.43 11.0501C40.37 11.1601 40.32 11.2901 40.29 11.4101C40.15 12.0601 40.25 12.6801 40.56 13.2601C40.61 13.3501 40.67 13.4301 40.75 13.5001C41.16 13.9101 41.7 13.8301 41.97 13.3201C42.12 13.0401 42.14 12.7401 42.13 12.4301H42.14Z" fill="#323334"/>
<path d="M59.2306 12.2101C59.2106 11.5201 59.4706 11.0101 60.0006 10.6601C60.8506 10.1001 62.4006 10.4901 62.5206 11.9301C62.5606 12.4101 62.4806 12.8701 62.2006 13.2801C61.6006 14.1501 60.3506 14.2101 59.6606 13.4001C59.3606 13.0401 59.2406 12.7001 59.2406 12.2101H59.2306ZM59.9106 11.9501C59.9006 12.3801 60.0206 12.7701 60.1906 13.1601C60.2606 13.3201 60.3706 13.4601 60.5106 13.5801C60.8806 13.8801 61.3706 13.8001 61.6106 13.3901C61.7006 13.2401 61.7606 13.0701 61.8006 12.9001C61.9306 12.3001 61.8006 11.7401 61.5806 11.1901C61.5306 11.0601 61.4306 10.9501 61.3306 10.8601C60.9406 10.5101 60.3806 10.5901 60.1206 11.0401C59.9606 11.3201 59.9206 11.6301 59.9206 11.9501H59.9106Z" fill="#323334"/>
<path d="M58.8201 3.52013C58.5001 3.52013 58.1901 3.52013 57.8701 3.52013C57.6701 3.52013 57.6501 3.54014 57.6701 3.72014C57.7001 4.04014 57.7801 4.34013 57.9601 4.61013C58.3701 5.24013 59.2701 5.26016 59.7601 4.64016C59.8201 4.57016 59.8701 4.49015 59.9201 4.41015C59.9401 4.38015 59.9701 4.35014 60.0101 4.37014C60.0701 4.39014 60.0701 4.44015 60.0601 4.48015C60.0401 4.54015 60.0301 4.61015 60.0001 4.66015C59.7101 5.20015 59.2301 5.69016 58.4201 5.64016C58.0301 5.61016 57.7201 5.46015 57.4901 5.16015C56.9501 4.48015 56.9601 3.37016 57.4901 2.70016C58.0301 2.02016 59.0401 1.95013 59.6201 2.55013C59.8201 2.75013 59.9101 3.00013 59.9401 3.27013C59.9601 3.49013 59.9401 3.51015 59.7201 3.51015C59.4101 3.51015 59.1101 3.51015 58.8001 3.51015L58.8201 3.52013ZM58.4301 3.26015H59.0401C59.1201 3.26015 59.1901 3.25016 59.1801 3.14016C59.1101 2.53016 58.6701 2.32014 58.2401 2.47014C57.9401 2.57014 57.8001 2.81015 57.7201 3.10015C57.6901 3.21015 57.7201 3.26014 57.8301 3.25014C58.0301 3.25014 58.2401 3.25014 58.4401 3.25014L58.4301 3.26015Z" fill="#323334"/>
<path d="M37.9306 11.8107C37.6106 11.8107 37.2806 11.8107 36.9606 11.8107C36.8606 11.8107 36.7706 11.8207 36.7906 11.9607C36.8306 12.3907 36.9206 12.8007 37.2606 13.1207C37.6506 13.4907 38.2306 13.5007 38.6506 13.1507C38.7906 13.0307 38.9206 12.9007 39.0206 12.7407C39.0506 12.6907 39.0806 12.6407 39.1506 12.6707C39.2206 12.7007 39.1906 12.7607 39.1706 12.8107C38.9606 13.5407 38.1106 14.0507 37.3606 13.9207C36.8406 13.8307 36.5406 13.4907 36.3606 13.0507C36.0606 12.3107 36.1306 11.5907 36.6406 10.9507C37.1106 10.3507 38.1606 10.1307 38.8406 10.9507C39.0106 11.1507 39.0606 11.4007 39.0806 11.6507C39.0906 11.7707 39.0406 11.8207 38.9206 11.8107C38.6006 11.8107 38.2706 11.8107 37.9506 11.8107H37.9306ZM37.5206 11.5807C37.7206 11.5807 37.9306 11.5807 38.1306 11.5807C38.1906 11.5807 38.2606 11.5807 38.2706 11.4907C38.3006 11.0307 37.9606 10.6807 37.5006 10.7107C37.1506 10.7307 36.8106 11.0807 36.7906 11.4507C36.7906 11.5507 36.8206 11.5907 36.9206 11.5907C37.1206 11.5907 37.3306 11.5907 37.5306 11.5907L37.5206 11.5807Z" fill="#323334"/>
<path d="M28.39 20.0707C28.07 20.0707 27.74 20.0707 27.42 20.0707C27.31 20.0707 27.24 20.0907 27.25 20.2207C27.27 20.6207 27.36 20.9906 27.63 21.3006C28.08 21.8006 28.79 21.8106 29.24 21.3006C29.33 21.2006 29.41 21.0807 29.49 20.9707C29.52 20.9207 29.56 20.9207 29.61 20.9507C29.64 20.9707 29.66 21.0007 29.65 21.0407C29.65 21.0607 29.64 21.0807 29.63 21.0907C29.39 21.6707 28.87 22.2207 28.12 22.2207C27.55 22.2207 27.11 21.9707 26.88 21.4407C26.53 20.6407 26.58 19.8707 27.16 19.1707C27.73 18.4907 28.8 18.5207 29.31 19.2207C29.45 19.4207 29.5 19.6407 29.54 19.8707C29.56 20.0007 29.51 20.0506 29.38 20.0506C29.06 20.0506 28.73 20.0506 28.41 20.0506L28.39 20.0707ZM27.99 19.8407C28.18 19.8407 28.38 19.8407 28.57 19.8407C28.63 19.8407 28.7 19.8407 28.72 19.7507C28.76 19.5407 28.57 19.1707 28.37 19.0707C27.89 18.8307 27.3 19.1707 27.26 19.7007C27.26 19.7907 27.28 19.8407 27.38 19.8407C27.58 19.8407 27.79 19.8407 27.99 19.8407Z" fill="#323334"/>
<path d="M43.0805 20.0701C42.7605 20.0701 42.4305 20.0701 42.1105 20.0701C41.9305 20.0701 41.9205 20.0901 41.9405 20.2701C41.9705 20.4801 42.0005 20.6901 42.0805 20.8901C42.2505 21.3201 42.5505 21.6101 43.0105 21.6701C43.4405 21.7201 43.7905 21.5401 44.0405 21.1901C44.0905 21.1201 44.1505 21.0401 44.2005 20.9601C44.2205 20.9301 44.2605 20.9201 44.3005 20.9401C44.3505 20.9601 44.3705 21.0001 44.3605 21.0501C44.3605 21.0701 44.3505 21.0901 44.3405 21.1001C44.0505 21.7001 43.5205 22.2701 42.7305 22.2301C42.2505 22.2101 41.8805 21.9901 41.6405 21.5701C41.1905 20.7801 41.2705 19.8701 41.8505 19.1801C42.5105 18.4001 43.7705 18.5801 44.1405 19.5201C44.1605 19.5601 44.1705 19.6101 44.1805 19.6501C44.2805 20.0501 44.2705 20.0701 43.8505 20.0701C43.5905 20.0701 43.3305 20.0701 43.0705 20.0701H43.0805ZM42.6805 19.8401C42.8805 19.8401 43.0905 19.8401 43.2905 19.8401C43.3605 19.8401 43.4205 19.8401 43.4305 19.7401C43.4705 19.4501 43.2605 19.0901 42.9705 19.0301C42.3605 18.9001 42.0905 19.1901 41.9705 19.7101C41.9505 19.8101 42.0005 19.8401 42.0905 19.8401C42.2805 19.8401 42.4805 19.8401 42.6705 19.8401H42.6805Z" fill="#323334"/>
<path d="M53.79 12.1101C53.81 11.6001 54.05 11.0501 54.59 10.6701C55.1 10.3101 55.94 10.3201 56.39 10.6901C56.56 10.8301 56.66 10.9901 56.62 11.2201C56.59 11.3701 56.51 11.4501 56.36 11.4701C56.22 11.4901 56.1 11.4701 56.02 11.3501C55.95 11.2401 55.9 11.1201 55.87 10.9901C55.79 10.6901 55.72 10.6401 55.4 10.6401C55.12 10.6401 54.91 10.7501 54.73 10.9701C54.31 11.4701 54.31 12.4701 54.82 13.0301C55.19 13.4401 55.9 13.4501 56.29 13.0501C56.39 12.9401 56.48 12.8201 56.58 12.7101C56.6 12.6801 56.64 12.6601 56.68 12.6801C56.73 12.7101 56.74 12.7501 56.71 12.8001C56.48 13.2501 56.2 13.6701 55.69 13.8501C55.1 14.0601 54.41 13.7901 54.06 13.2201C53.88 12.9201 53.8 12.5901 53.8 12.1101H53.79Z" fill="#323334"/>
<path d="M71.1307 8.73071C71.1707 8.87071 71.1607 8.97071 71.1607 9.07071C71.1607 10.3807 71.1607 11.6807 71.1607 12.9907C71.1607 13.0807 71.1607 13.1807 71.1607 13.2707C71.1807 13.5807 71.2507 13.6507 71.5507 13.7107C71.5907 13.7107 71.6207 13.7107 71.6607 13.7307C71.6907 13.7307 71.7007 13.7607 71.7007 13.7907C71.7007 13.8207 71.6807 13.8407 71.6507 13.8507C71.6007 13.8507 71.5607 13.8607 71.5107 13.8607C71.0507 13.8607 70.5807 13.8607 70.1207 13.8607C70.0907 13.8607 70.0607 13.8607 70.0407 13.8607C69.9907 13.8607 69.9507 13.8407 69.9507 13.7807C69.9507 13.7307 69.9907 13.7307 70.0307 13.7107C70.3507 13.604 70.5107 13.3874 70.5107 13.0607C70.5107 11.9507 70.5107 10.8407 70.5107 9.7207C70.5107 9.6507 70.5107 9.5707 70.5107 9.5007C70.5007 9.2307 70.4407 9.18072 70.1707 9.17072C70.1107 9.17072 70.0607 9.17072 70.0007 9.17072C69.9707 9.17072 69.9407 9.17072 69.9307 9.14072C69.9107 9.10072 69.9307 9.07069 69.9707 9.05069C69.9807 9.04069 70.0007 9.0307 70.0207 9.0307C70.3807 8.9307 70.7507 8.8207 71.1307 8.7207V8.73071Z" fill="#323334"/>
<path d="M61.6303 2.82993C61.6303 3.48993 61.6303 4.14993 61.6303 4.79993C61.6303 4.87993 61.6303 4.96993 61.6303 5.04993C61.6503 5.27993 61.7204 5.35994 61.9404 5.40994C61.9904 5.41994 62.0503 5.41994 62.1003 5.43994C62.1403 5.43994 62.1604 5.47993 62.1504 5.51993C62.1504 5.54993 62.1203 5.56995 62.0903 5.56995C62.0403 5.56995 62.0003 5.56995 61.9503 5.56995C61.5003 5.56995 61.0604 5.56995 60.6104 5.56995C60.5604 5.56995 60.5204 5.56995 60.4704 5.56995C60.4304 5.56995 60.4004 5.54994 60.4004 5.49994C60.4004 5.45994 60.4304 5.43993 60.4704 5.42993C60.5204 5.41993 60.5803 5.41993 60.6303 5.39993C60.8603 5.32993 60.9304 5.23994 60.9304 4.99994C60.9304 4.50994 60.9304 4.01994 60.9304 3.52994C60.9304 2.77994 60.9304 2.02994 60.9304 1.27994C60.9304 0.929937 60.8904 0.889932 60.5504 0.899932C60.5304 0.899932 60.5103 0.899932 60.4903 0.899932C60.4403 0.899932 60.3604 0.919935 60.3604 0.839935C60.3604 0.769935 60.4204 0.759938 60.4804 0.749938C60.7804 0.669938 61.0904 0.579938 61.3904 0.499938C61.5704 0.449938 61.6003 0.459942 61.6003 0.659942C61.6003 1.37994 61.6003 2.10993 61.6003 2.82993H61.6303Z" fill="#323334"/>
<path d="M33.5305 13.2702C33.5305 13.1002 33.5305 12.9402 33.5305 12.7702C33.5305 12.7202 33.5405 12.6802 33.6005 12.6802C33.6405 12.6802 33.6605 12.7202 33.6705 12.7502C33.7205 12.9402 33.8005 13.1202 33.8805 13.2902C34.0605 13.6602 34.5805 13.7902 34.8905 13.6702C35.0905 13.5902 35.2105 13.4302 35.1905 13.2202C35.1605 12.9902 35.0805 12.7802 34.8405 12.6502C34.5305 12.4902 34.2305 12.3102 33.9305 12.1102C33.5505 11.8502 33.4105 11.3102 33.6105 10.9002C33.7905 10.5202 34.3005 10.3002 34.7505 10.4102C34.9605 10.4602 35.1605 10.5502 35.3805 10.4802C35.4505 10.4602 35.4805 10.5102 35.4805 10.5702C35.4805 10.8402 35.4905 11.1102 35.5005 11.3802C35.5005 11.4302 35.5005 11.4802 35.4305 11.4802C35.3705 11.4802 35.3605 11.4302 35.3505 11.3802C35.3205 11.1802 35.2305 11.0102 35.1105 10.8502C34.9305 10.6102 34.5905 10.5102 34.3105 10.6202C34.0105 10.7402 33.9005 11.1002 34.1005 11.3602C34.2005 11.4902 34.3205 11.5802 34.4605 11.6602C34.7705 11.8302 35.0905 11.9802 35.3705 12.2002C35.7405 12.5002 35.8605 12.9102 35.6905 13.3102C35.5005 13.7402 35.1305 13.8702 34.7105 13.9302C34.5505 13.9502 34.4005 13.9302 34.2405 13.8902C34.0405 13.8402 33.8405 13.7402 33.6305 13.8702C33.5705 13.9102 33.5305 13.8402 33.5305 13.7802C33.5305 13.6102 33.5305 13.4502 33.5305 13.2802V13.2702Z" fill="#323334"/>
<path d="M31.3702 1.26074C31.4402 1.41074 31.4002 1.56074 31.4102 1.70074C31.4102 1.76074 31.4102 1.83075 31.4102 1.89075C31.4102 2.09075 31.5102 2.19408 31.7102 2.20074C31.7802 2.20074 31.8602 2.20074 31.9302 2.20074C32.0302 2.20074 32.1202 2.20072 32.1302 2.33072C32.1302 2.47072 32.0302 2.46072 31.9402 2.46072C31.8202 2.46072 31.7002 2.46072 31.5802 2.46072C31.4502 2.46072 31.4002 2.52075 31.4002 2.64075C31.4002 3.00075 31.4002 3.36073 31.4002 3.72073C31.4002 4.01073 31.4002 4.29072 31.4002 4.58072C31.4002 4.64072 31.4002 4.71072 31.4002 4.77072C31.4102 4.93072 31.4502 5.09074 31.6102 5.16074C31.7702 5.22074 31.9202 5.16072 32.0502 5.08072C32.1102 5.04072 32.1602 4.91074 32.2502 5.01074C32.3402 5.11074 32.2202 5.18072 32.1602 5.24072C31.9502 5.47072 31.6902 5.63074 31.3602 5.63074C31.1002 5.63074 30.9202 5.50072 30.8202 5.27072C30.7202 5.03072 30.7002 4.79074 30.7002 4.54074C30.7002 3.95074 30.7002 3.35074 30.7002 2.76074C30.7002 2.49074 30.7002 2.49072 30.4202 2.46072C30.3802 2.46072 30.3202 2.46074 30.3102 2.41074C30.3002 2.37074 30.3202 2.34074 30.3502 2.32074C30.6902 2.08074 30.9102 1.73075 31.1702 1.42075C31.2202 1.36075 31.2602 1.30072 31.3402 1.27072L31.3702 1.26074Z" fill="#323334"/>
<path d="M37.8707 18.6904C37.9307 18.8804 37.8707 19.0604 37.9107 19.2504C38.0107 19.2504 38.0307 19.1504 38.0807 19.1004C38.2207 18.9604 38.3407 18.8104 38.5307 18.7404C38.8107 18.6304 39.0807 18.7504 39.1507 19.0204C39.1807 19.1604 39.1507 19.2804 39.0407 19.3704C38.9407 19.4504 38.8307 19.4704 38.7107 19.4004C38.6807 19.3804 38.6407 19.3704 38.6107 19.3504C38.5007 19.3004 38.4107 19.1604 38.2607 19.2504C38.0907 19.3604 37.9507 19.4904 37.9107 19.7004C37.9007 19.7604 37.9107 19.8304 37.9107 19.8904C37.9107 20.4004 37.9107 20.9104 37.9107 21.4204C37.9107 21.8304 37.9807 21.9104 38.3907 21.9804C38.4507 21.9904 38.5307 21.9804 38.5207 22.0804C38.5107 22.1504 38.4407 22.1504 38.3907 22.1504C37.8907 22.1504 37.3907 22.1504 36.8907 22.1504C36.8507 22.1504 36.8207 22.1504 36.7807 22.1404C36.7407 22.1304 36.7107 22.1004 36.7207 22.0604C36.7207 22.0404 36.7407 22.0104 36.7607 22.0004C36.8007 21.9804 36.8507 21.9804 36.8907 21.9704C37.2107 21.9004 37.2507 21.8504 37.2607 21.5204C37.2607 20.9504 37.2607 20.3704 37.2607 19.8004C37.2607 19.7404 37.2607 19.6904 37.2607 19.6304C37.2207 19.3204 37.1607 19.2704 36.8407 19.2304C36.8007 19.2304 36.7607 19.2304 36.7507 19.1904C36.7407 19.1404 36.7607 19.1004 36.8107 19.0804C37.1707 18.9504 37.5207 18.8304 37.8907 18.7004L37.8707 18.6904Z" fill="#323334"/>
<path d="M33.5406 2.68078C33.6806 2.63078 33.7206 2.5508 33.7806 2.4808C33.9006 2.3508 34.0306 2.2308 34.2006 2.1708C34.4306 2.0808 34.6706 2.17077 34.7706 2.36077C34.8506 2.51077 34.8206 2.6408 34.7106 2.7608C34.5906 2.8808 34.5106 2.89078 34.3406 2.80078C34.3006 2.78078 34.2606 2.7608 34.2206 2.7308C33.9906 2.5908 33.9006 2.60079 33.7306 2.81079C33.6106 2.95079 33.5506 3.1108 33.5606 3.2908C33.5606 3.8108 33.5606 4.3308 33.5606 4.8508C33.5606 5.2408 33.6606 5.35079 34.0506 5.41079C34.0806 5.41079 34.1106 5.41079 34.1306 5.41079C34.1706 5.41079 34.2006 5.45078 34.1906 5.49078C34.1906 5.53078 34.1506 5.55078 34.1106 5.55078C34.0706 5.55078 34.0406 5.55078 34.0006 5.55078C33.5206 5.55078 33.0406 5.55078 32.5506 5.55078C32.5106 5.55078 32.4806 5.55078 32.4406 5.55078C32.3906 5.55078 32.3506 5.54079 32.3506 5.47079C32.3506 5.43079 32.3806 5.4108 32.4206 5.3908C32.4406 5.3908 32.4606 5.39079 32.4706 5.38079C32.8806 5.25079 32.9006 5.23078 32.9006 4.80078C32.9006 4.31078 32.9006 3.82078 32.9006 3.33078C32.9006 3.25078 32.9006 3.16078 32.9006 3.08078C32.8806 2.77078 32.8006 2.6908 32.4806 2.6408C32.4306 2.6408 32.3806 2.64079 32.3706 2.59079C32.3606 2.54079 32.4006 2.51078 32.4506 2.49078C32.7706 2.37078 33.0906 2.25079 33.4106 2.13079C33.5106 2.09079 33.5506 2.15078 33.5506 2.24078C33.5506 2.37078 33.5506 2.50079 33.5506 2.66079L33.5406 2.68078Z" fill="#323334"/>
<path d="M40.3006 17.8398C40.3006 18.0898 40.3006 18.3198 40.3006 18.5498C40.3006 18.7798 40.3006 18.7798 40.5306 18.7798C40.6506 18.7798 40.7706 18.7798 40.8906 18.7798C40.9806 18.7798 41.0306 18.8199 41.0306 18.9099C41.0306 19.0099 40.9706 19.0399 40.8906 19.0399C40.7706 19.0399 40.6506 19.0399 40.5306 19.0399C40.3106 19.0399 40.3106 19.0398 40.3006 19.2498C40.3006 19.9298 40.3006 20.5998 40.3006 21.2798C40.3006 21.4498 40.3206 21.6398 40.5006 21.7098C40.6806 21.7798 40.8806 21.7898 41.0406 21.6098C41.0606 21.5898 41.0806 21.5698 41.1006 21.5598C41.1306 21.5398 41.1706 21.5398 41.2006 21.5598C41.2406 21.5898 41.2306 21.6199 41.2206 21.6599C41.0506 22.0499 40.4506 22.2999 40.0606 22.1299C39.8306 22.0299 39.7306 21.8398 39.7006 21.6098C39.6806 21.4498 39.6706 21.2798 39.6706 21.1098C39.6706 20.5098 39.6706 19.8998 39.6706 19.2998C39.6706 19.0598 39.6706 19.0599 39.4306 19.0399C39.3706 19.0399 39.2906 19.0598 39.2706 18.9698C39.2606 18.8998 39.3206 18.8798 39.3606 18.8398C39.6606 18.5798 39.9006 18.2798 40.1406 17.9698C40.1706 17.9298 40.2006 17.8698 40.3106 17.8398H40.3006Z" fill="#323334"/>
<path d="M45.6504 2.39072C46.0404 2.05072 46.3504 1.6507 46.6804 1.2207C46.7804 1.4107 46.7304 1.58069 46.7404 1.74069C46.7504 2.27069 46.6804 2.19071 47.2004 2.20071C47.2504 2.20071 47.2904 2.20071 47.3404 2.20071C47.4404 2.20071 47.4704 2.2507 47.4704 2.3407C47.4704 2.4207 47.4304 2.46069 47.3504 2.46069C47.2104 2.46069 47.0704 2.46069 46.9304 2.46069C46.7804 2.46069 46.7404 2.52071 46.7404 2.66071C46.7404 3.33071 46.7204 3.99071 46.7204 4.66071C46.7204 4.71071 46.7204 4.77071 46.7404 4.82071C46.8204 5.21071 47.0804 5.3107 47.4104 5.0907C47.4704 5.0507 47.5404 4.93071 47.6104 5.01071C47.7104 5.11071 47.5704 5.17071 47.5204 5.23071C47.3304 5.46071 47.1004 5.62072 46.7904 5.64072C46.4104 5.67072 46.1404 5.4207 46.1104 5.0307C46.0904 4.8707 46.1004 4.7207 46.1004 4.5607C46.1004 3.9607 46.1004 3.3607 46.1004 2.7507C46.1004 2.4707 46.1304 2.46069 45.8104 2.46069C45.7704 2.46069 45.7404 2.46071 45.7004 2.45071C45.6904 2.43071 45.6704 2.41072 45.6604 2.39072H45.6504Z" fill="#323334"/>
<path d="M57.1406 10.9004C57.1406 10.9004 57.1506 10.8304 57.1706 10.8204C57.5306 10.6704 57.9006 10.5604 58.2706 10.4404C58.3606 10.5204 58.3206 10.6204 58.3206 10.7104C58.3206 11.4704 58.3206 12.2304 58.3206 12.9904C58.3206 13.0704 58.3206 13.1604 58.3206 13.2404C58.3406 13.5804 58.4106 13.6604 58.7406 13.7104C58.7806 13.7104 58.8106 13.7104 58.8506 13.7304C58.8606 13.7304 58.8706 13.7604 58.8806 13.7704C58.8806 13.8004 58.8806 13.8304 58.8506 13.8404C58.8006 13.8504 58.7406 13.8604 58.6906 13.8604C58.2306 13.8604 57.7606 13.8604 57.3006 13.8604C57.2606 13.8604 57.2306 13.8604 57.1906 13.8604C57.1406 13.8604 57.1006 13.8404 57.1006 13.7804C57.1006 13.7304 57.1406 13.7204 57.1806 13.7204C57.1806 13.7204 57.2006 13.7204 57.2106 13.7204C57.6506 13.6304 57.6906 13.5904 57.7006 13.1304C57.7006 12.5204 57.7006 11.9104 57.7006 11.2904C57.7006 10.9404 57.5906 10.8604 57.2406 10.9204C57.2206 10.9204 57.1906 10.9104 57.1606 10.9004H57.1406Z" fill="#323334"/>
<path d="M45.5899 22.0501C45.5899 22.4201 45.3299 22.7701 44.9699 22.8901C44.9199 22.9101 44.8799 22.9201 44.8499 22.8701C44.8199 22.8101 44.8599 22.7901 44.8999 22.7601C45.0599 22.6601 45.1999 22.5401 45.2599 22.3501C45.3099 22.1801 45.2799 22.1501 45.0899 22.1601C44.9599 22.1601 44.8599 22.1301 44.7999 22.0001C44.7299 21.8501 44.7599 21.7001 44.8599 21.5801C44.9399 21.4801 45.0599 21.4201 45.2099 21.4701C45.4899 21.5701 45.5999 21.7301 45.5999 22.0401L45.5899 22.0501Z" fill="#323334"/>
<path d="M54.5907 21.3604C54.7607 21.3604 54.9907 21.6004 55.0007 21.7804C55.0107 21.9704 54.8007 22.1904 54.6007 22.2104C54.4307 22.2104 54.1807 21.9804 54.1807 21.8004C54.1807 21.6304 54.4307 21.3604 54.5807 21.3604H54.5907Z" fill="#323334"/>
<path d="M61.8505 21.8001C61.8505 21.9901 61.6205 22.2201 61.4405 22.2201C61.2605 22.2201 61.0205 21.9801 61.0205 21.8001C61.0205 21.6401 61.2805 21.3701 61.4405 21.3701C61.6005 21.3701 61.8505 21.6301 61.8505 21.8001Z" fill="#323334"/>
<path d="M57.5703 9.15024C57.5703 8.97024 57.7903 8.74023 57.9603 8.74023C58.1303 8.74023 58.3003 8.95026 58.3103 9.14026C58.3103 9.34026 58.1403 9.52023 57.9503 9.52023C57.7503 9.52023 57.5803 9.34024 57.5803 9.15024H57.5703Z" fill="#323334"/>
</svg>
