<svg xmlns="http://www.w3.org/2000/svg" xmlns:xlink="http://www.w3.org/1999/xlink" id="Layer_6" x="0px" y="0px" width="70px" height="70px" viewBox="0 0 70 70" xml:space="preserve"><path fill="#FF6629" d="M49.887,0H20.114c-1.194,0-2.256,0.546-3.042,1.433h-0.048v0.047c-0.819,0.948-1.323,2.276-1.323,3.774v59.493 c0,2.945,1.938,5.253,4.414,5.253h29.772c2.475,0,4.412-2.308,4.412-5.253V5.254C54.299,2.308,52.361,0,49.887,0z M35.002,67.449 c-1.426,0-2.584-1.167-2.584-2.607s1.158-2.607,2.584-2.607c1.425,0,2.582,1.167,2.582,2.607S36.428,67.449,35.002,67.449z  M50.699,60.644H19.302V6.212h31.397V60.644z"></path></svg>