<svg xmlns="http://www.w3.org/2000/svg" width="274" height="169" viewBox="0 0 274 169" fill="none"><path d="M4.33008 153.1L0.810059 168.85H3.06006L3.72003 165.47H6.79004L7.45007 168.85H9.71008L6.19006 153.1H4.31006H4.33008ZM4.13007 163.34L5.24005 157.63H5.28009L6.39008 163.34H4.13007Z" fill="#323334"></path><path d="M22.43 160.09C22.72 159.44 22.86 158.65 22.86 157.72C22.86 154.64 21.53 153.1 18.88 153.1H15.25V168.85H17.51V162.13H18.86L20.96 168.85H23.35L20.92 161.66C21.64 161.26 22.15 160.74 22.44 160.09H22.43ZM20.54 158.73C20.5 159.03 20.41 159.29 20.3 159.49C20.17 159.7 19.98 159.85 19.75 159.97C19.51 160.08 19.2 160.14 18.8 160.14H17.52V155.23H18.69C19.47 155.23 20 155.44 20.28 155.85C20.41 156.07 20.5 156.33 20.55 156.64C20.59 156.94 20.62 157.29 20.62 157.69C20.62 158.09 20.6 158.44 20.55 158.74L20.54 158.73Z" fill="#323334"></path><path d="M27.5701 155.23H30.1801V168.85H32.4401V155.23H35.05V153.1H27.5701V155.23Z" fill="#323334"></path><path d="M40.47 168.85H47.19V166.6H42.73V161.97H46.62V159.85H42.73V155.23H47.19V153.1H40.47V168.85Z" fill="#323334"></path><path d="M64.95 153.1H61.61V168.85H64.75C66.09 168.85 67.12 168.5 67.84 167.8C68.55 167.1 68.91 166.01 68.91 164.54V157.17C68.91 155.87 68.57 154.87 67.9 154.16C67.23 153.45 66.24 153.1 64.95 153.1ZM66.66 164.76C66.66 165.44 66.53 165.94 66.26 166.25C65.99 166.57 65.54 166.73 64.91 166.73H63.87V155.23H64.91C65.57 155.23 66.03 155.4 66.28 155.74C66.53 156.08 66.66 156.56 66.66 157.18V164.77V164.76Z" fill="#323334"></path><path d="M77.78 153.1H75.53V168.85H77.78V153.1Z" fill="#323334"></path><path d="M89.4699 153.28C89.0099 153.07 88.4899 152.97 87.9299 152.97C87.2699 152.97 86.6999 153.08 86.2199 153.31C85.7399 153.54 85.3499 153.84 85.0399 154.23C84.7199 154.61 84.4699 155.07 84.3099 155.6C84.1499 156.13 84.0699 156.69 84.0699 157.28C84.0699 158.27 84.2399 159.09 84.5699 159.75C84.8999 160.41 85.55 160.93 86.53 161.33L88.14 161.99C88.42 162.11 88.6399 162.22 88.8099 162.32C88.9799 162.42 89.1199 162.56 89.2199 162.72C89.3099 162.88 89.37 163.1 89.4 163.36C89.43 163.63 89.4399 163.97 89.4399 164.38C89.4399 164.73 89.4299 165.05 89.4099 165.34C89.3899 165.63 89.32 165.87 89.2 166.08C89.08 166.29 88.92 166.45 88.7 166.56C88.48 166.67 88.1899 166.73 87.7999 166.73C87.2199 166.73 86.8099 166.56 86.5699 166.23C86.3299 165.9 86.2 165.53 86.2 165.11V164.4H83.9399V165.24C83.9399 165.77 84.0399 166.26 84.2399 166.71C84.4399 167.16 84.7099 167.55 85.0499 167.89C85.3899 168.23 85.7899 168.49 86.2599 168.69C86.7299 168.88 87.2399 168.98 87.7899 168.98C88.5099 168.98 89.1199 168.86 89.6199 168.63C90.1199 168.39 90.53 168.07 90.84 167.66C91.13 167.26 91.3499 166.78 91.4799 166.21C91.6099 165.64 91.6799 165.03 91.6799 164.36C91.6799 163.78 91.65 163.27 91.59 162.82C91.53 162.37 91.4199 161.97 91.2599 161.61C91.0799 161.27 90.84 160.97 90.53 160.71C90.22 160.45 89.8099 160.23 89.3099 160.04L87.59 159.35C87.29 159.23 87.06 159.11 86.89 159C86.72 158.88 86.5899 158.74 86.4999 158.58C86.4099 158.42 86.36 158.23 86.33 158.03C86.3 157.83 86.2999 157.57 86.2999 157.26C86.2999 156.99 86.3199 156.74 86.3699 156.5C86.4099 156.26 86.4899 156.04 86.6099 155.85C86.7299 155.67 86.8799 155.53 87.0699 155.41C87.2599 155.29 87.5099 155.23 87.8199 155.23C88.3899 155.23 88.7999 155.42 89.0499 155.79C89.2899 156.17 89.4099 156.61 89.4099 157.13V157.64H91.6699V156.53C91.6699 155.62 91.33 154.81 90.65 154.1C90.31 153.76 89.9099 153.49 89.4399 153.28H89.4699Z" fill="#323334"></path><path d="M97.8 168.85H104.52V166.6H100.06V161.97H103.95V159.85H100.06V155.23H104.52V153.1H97.8V168.85Z" fill="#323334"></path><path d="M115.94 162.59H115.89L112.49 153.1H110.32V168.85H112.58V159.39H112.62L116.07 168.85H118.19V153.1H115.94V162.59Z" fill="#323334"></path><path d="M115.91 150.63C115.79 150.63 115.59 150.59 115.3 150.5C115.01 150.41 114.71 150.31 114.38 150.19C114.06 150.07 113.74 149.97 113.44 149.88C113.14 149.79 112.9 149.75 112.72 149.75C112.37 149.75 112.06 149.82 111.81 149.95C111.56 150.08 111.35 150.26 111.17 150.48C110.83 150.91 110.6 151.48 110.49 152.2H111.62C111.64 151.91 111.72 151.67 111.89 151.48C112.05 151.3 112.29 151.2 112.6 151.2C112.72 151.2 112.92 151.24 113.22 151.33C113.37 151.39 113.51 151.44 113.66 151.49C113.81 151.53 113.96 151.59 114.12 151.64C114.44 151.76 114.76 151.86 115.06 151.95C115.36 152.04 115.6 152.08 115.78 152.08C116.13 152.08 116.44 152.01 116.69 151.88C116.94 151.75 117.15 151.57 117.33 151.35C117.51 151.13 117.65 150.87 117.75 150.58C117.85 150.29 117.94 149.97 118.01 149.63H116.88C116.86 149.93 116.78 150.16 116.62 150.35C116.46 150.53 116.22 150.63 115.91 150.63Z" fill="#323334"></path><path d="M130.89 153.92C130.52 153.61 130.11 153.37 129.66 153.21C129.21 153.05 128.76 152.97 128.3 152.97C127.84 152.97 127.39 153.05 126.94 153.21C126.49 153.37 126.09 153.61 125.73 153.92C125.36 154.24 125.07 154.65 124.85 155.14C124.63 155.63 124.52 156.19 124.52 156.82V165.14C124.52 165.8 124.63 166.37 124.85 166.84C125.07 167.31 125.37 167.7 125.73 168.01C126.09 168.33 126.49 168.58 126.94 168.74C127.39 168.9 127.84 168.98 128.3 168.98C128.76 168.98 129.21 168.9 129.66 168.74C130.11 168.58 130.52 168.33 130.89 168.01C131.25 167.7 131.53 167.31 131.75 166.84C131.97 166.37 132.08 165.8 132.08 165.14V156.82C132.08 156.19 131.97 155.63 131.75 155.14C131.53 154.65 131.24 154.25 130.89 153.92ZM129.83 165.14C129.83 165.69 129.68 166.09 129.38 166.35C129.08 166.61 128.72 166.74 128.31 166.74C127.9 166.74 127.54 166.61 127.23 166.35C126.93 166.09 126.78 165.69 126.78 165.14V156.82C126.78 156.28 126.93 155.87 127.23 155.62C127.53 155.36 127.89 155.23 128.31 155.23C128.73 155.23 129.08 155.36 129.38 155.62C129.68 155.88 129.83 156.28 129.83 156.82V165.14Z" fill="#323334"></path><path d="M153.34 154.21C152.96 153.8 152.53 153.51 152.06 153.35C151.59 153.19 151.04 153.11 150.42 153.11H147.04V168.86H149.3V162.71H150.45C151.29 162.71 151.97 162.57 152.48 162.28C153 161.99 153.41 161.59 153.72 161.07C153.99 160.64 154.16 160.19 154.24 159.7C154.32 159.21 154.36 158.62 154.36 157.91C154.36 156.97 154.29 156.22 154.14 155.67C153.99 155.12 153.73 154.63 153.34 154.22V154.21ZM152.2 159.01C152.18 159.33 152.11 159.61 151.99 159.83C151.87 160.07 151.69 160.25 151.44 160.38C151.19 160.51 150.83 160.58 150.38 160.58H149.3V155.23H150.47C150.91 155.23 151.25 155.3 151.49 155.43C151.73 155.56 151.9 155.75 152.02 156.01C152.14 156.26 152.2 156.55 152.22 156.88C152.24 157.21 152.24 157.56 152.24 157.93C152.24 158.33 152.23 158.69 152.21 159.01H152.2Z" fill="#323334"></path><path d="M167.64 160.09C167.93 159.44 168.07 158.65 168.07 157.72C168.07 154.64 166.74 153.1 164.09 153.1H160.46V168.85H162.71V162.13H164.06L166.16 168.85H168.55L166.12 161.66C166.84 161.26 167.35 160.74 167.64 160.09ZM165.75 158.73C165.71 159.03 165.63 159.29 165.51 159.49C165.38 159.7 165.19 159.85 164.96 159.97C164.72 160.08 164.41 160.14 164.01 160.14H162.73V155.23H163.9C164.68 155.23 165.21 155.44 165.49 155.85C165.62 156.07 165.71 156.33 165.75 156.64C165.79 156.94 165.82 157.29 165.82 157.69C165.82 158.09 165.8 158.44 165.75 158.74V158.73Z" fill="#323334"></path><path d="M180.54 153.92C180.17 153.61 179.76 153.37 179.31 153.21C178.86 153.05 178.41 152.97 177.95 152.97C177.49 152.97 177.04 153.05 176.59 153.21C176.14 153.37 175.74 153.61 175.38 153.92C175.01 154.24 174.72 154.65 174.5 155.14C174.28 155.63 174.17 156.19 174.17 156.82V165.14C174.17 165.8 174.28 166.37 174.5 166.84C174.72 167.31 175.02 167.7 175.38 168.01C175.74 168.33 176.14 168.58 176.59 168.74C177.04 168.9 177.49 168.98 177.95 168.98C178.41 168.98 178.86 168.9 179.31 168.74C179.76 168.58 180.17 168.33 180.54 168.01C180.89 167.7 181.18 167.31 181.4 166.84C181.62 166.37 181.73 165.8 181.73 165.14V156.82C181.73 156.19 181.62 155.63 181.4 155.14C181.18 154.65 180.89 154.25 180.54 153.92ZM179.48 165.14C179.48 165.69 179.33 166.09 179.03 166.35C178.73 166.61 178.37 166.74 177.96 166.74C177.55 166.74 177.19 166.61 176.89 166.35C176.59 166.09 176.43 165.69 176.43 165.14V156.82C176.43 156.28 176.58 155.87 176.89 155.62C177.19 155.36 177.55 155.23 177.96 155.23C178.37 155.23 178.73 155.36 179.03 155.62C179.33 155.88 179.48 156.28 179.48 156.82V165.14Z" fill="#323334"></path><path d="M191.49 153.1H188.15V168.85H191.29C192.63 168.85 193.66 168.5 194.38 167.8C195.09 167.1 195.45 166.01 195.45 164.54V157.17C195.45 155.87 195.11 154.87 194.44 154.16C193.77 153.45 192.79 153.1 191.49 153.1ZM193.19 164.76C193.19 165.44 193.06 165.94 192.79 166.25C192.53 166.57 192.07 166.73 191.44 166.73H190.4V155.23H191.44C192.1 155.23 192.56 155.4 192.81 155.74C193.06 156.08 193.19 156.56 193.19 157.18V164.77V164.76Z" fill="#323334"></path><path d="M207.04 165.09C207.04 165.65 206.91 166.06 206.64 166.33C206.37 166.6 206.04 166.73 205.65 166.73C205.26 166.73 204.92 166.6 204.65 166.33C204.39 166.06 204.25 165.65 204.25 165.09V153.1H202V165.31C202 165.83 202.1 166.3 202.29 166.74C202.48 167.18 202.75 167.56 203.09 167.9C203.43 168.24 203.81 168.5 204.25 168.7C204.69 168.89 205.15 168.99 205.66 168.99C206.17 168.99 206.63 168.9 207.07 168.7C207.51 168.51 207.9 168.24 208.24 167.9C208.58 167.56 208.84 167.17 209.02 166.74C209.2 166.31 209.3 165.83 209.3 165.31V153.1H207.04V165.09Z" fill="#323334"></path><path d="M221.97 154.01C221.31 153.32 220.44 152.97 219.38 152.97C218.83 152.97 218.34 153.06 217.89 153.25C217.44 153.44 217.05 153.69 216.73 154.01C216.41 154.33 216.15 154.72 215.98 155.16C215.8 155.6 215.72 156.08 215.72 156.6V165.27C215.72 165.99 215.83 166.59 216.06 167.05C216.29 167.51 216.58 167.89 216.93 168.19C217.28 168.48 217.68 168.69 218.12 168.81C218.56 168.93 219 168.99 219.43 168.99C219.93 168.99 220.4 168.89 220.83 168.69C221.27 168.49 221.65 168.22 221.97 167.88C222.29 167.54 222.55 167.15 222.73 166.72C222.91 166.29 223.01 165.82 223.01 165.34V164.37H220.75V165.14C220.75 165.45 220.71 165.71 220.62 165.91C220.53 166.12 220.42 166.28 220.29 166.4C220.14 166.52 219.98 166.6 219.81 166.65C219.64 166.7 219.48 166.73 219.33 166.73C218.81 166.73 218.46 166.58 218.26 166.27C218.06 165.96 217.96 165.58 217.96 165.12V157.07C217.96 156.54 218.05 156.1 218.24 155.75C218.42 155.4 218.8 155.23 219.36 155.23C219.79 155.23 220.13 155.39 220.38 155.72C220.63 156.04 220.76 156.43 220.76 156.87V157.62H223.02V156.74C223.02 156.2 222.93 155.69 222.74 155.23C222.56 154.77 222.3 154.36 221.98 154.02L221.97 154.01Z" fill="#323334"></path><path d="M235.39 154.01C234.73 153.32 233.86 152.97 232.8 152.97C232.25 152.97 231.76 153.06 231.31 153.25C230.86 153.44 230.47 153.69 230.15 154.01C229.83 154.33 229.57 154.72 229.4 155.16C229.22 155.6 229.13 156.08 229.13 156.6V165.27C229.13 165.99 229.25 166.59 229.47 167.05C229.7 167.51 229.99 167.89 230.34 168.19C230.69 168.48 231.09 168.69 231.53 168.81C231.97 168.93 232.41 168.99 232.83 168.99C233.33 168.99 233.8 168.89 234.23 168.69C234.67 168.49 235.04 168.22 235.37 167.88C235.7 167.54 235.95 167.15 236.13 166.72C236.31 166.29 236.41 165.82 236.41 165.34V164.37H234.16V165.14C234.16 165.45 234.12 165.71 234.03 165.91C233.94 166.12 233.83 166.28 233.7 166.4C233.55 166.52 233.39 166.6 233.22 166.65C233.05 166.7 232.89 166.73 232.75 166.73C232.23 166.73 231.88 166.58 231.68 166.27C231.48 165.96 231.38 165.58 231.38 165.12V157.07C231.38 156.54 231.47 156.1 231.66 155.75C231.84 155.4 232.22 155.23 232.78 155.23C233.21 155.23 233.55 155.39 233.8 155.72C234.05 156.04 234.18 156.43 234.18 156.87V157.62H236.43V156.74C236.43 156.2 236.34 155.69 236.15 155.23C235.97 154.77 235.71 154.36 235.39 154.02V154.01Z" fill="#323334"></path><path d="M245.02 153.1H242.76V168.85H245.02V153.1Z" fill="#323334"></path><path d="M257.87 153.92C257.5 153.61 257.09 153.37 256.64 153.21C256.19 153.05 255.74 152.97 255.28 152.97C254.82 152.97 254.37 153.05 253.92 153.21C253.47 153.37 253.07 153.61 252.71 153.92C252.34 154.24 252.05 154.65 251.83 155.14C251.61 155.63 251.5 156.19 251.5 156.82V165.14C251.5 165.8 251.61 166.37 251.83 166.84C252.05 167.31 252.35 167.7 252.71 168.01C253.06 168.33 253.47 168.58 253.92 168.74C254.37 168.9 254.82 168.98 255.28 168.98C255.74 168.98 256.19 168.9 256.64 168.74C257.09 168.58 257.5 168.33 257.87 168.01C258.23 167.7 258.51 167.31 258.73 166.84C258.95 166.37 259.06 165.8 259.06 165.14V156.82C259.06 156.19 258.95 155.63 258.73 155.14C258.51 154.65 258.22 154.25 257.87 153.92ZM256.81 165.14C256.81 165.69 256.66 166.09 256.36 166.35C256.06 166.61 255.7 166.74 255.29 166.74C254.88 166.74 254.52 166.61 254.22 166.35C253.92 166.09 253.77 165.69 253.77 165.14V156.82C253.77 156.28 253.92 155.87 254.22 155.62C254.52 155.36 254.88 155.23 255.29 155.23C255.7 155.23 256.06 155.36 256.36 155.62C256.66 155.88 256.81 156.28 256.81 156.82V165.14Z" fill="#323334"></path><path d="M258.22 149.28H255.83L253.84 152.4H255.3L258.22 149.28Z" fill="#323334"></path><path d="M271.01 153.1V162.59H270.96L267.55 153.1H265.39V168.85H267.64V159.39H267.69L271.14 168.85H273.26V153.1H271.01Z" fill="#323334"></path><path d="M164.27 126.69V72.1C164.27 68.98 162.61 66.82 159.57 65.98C159.44 65.94 159.34 65.81 159.18 65.69C162.56 64.69 164.33 62.03 164.31 58.66C164.21 41.26 164.27 36.05 164.26 18.65C164.26 18.11 164.26 17.55 164.15 17.03C162.83 10.71 157.98 6.68997 151.51 6.63997C145.76 6.58997 140.02 6.62997 134.27 6.63997C133.9 6.63997 133.54 6.68997 133.1 6.71997V136.72C133.1 136.72 135.22 136.75 136.23 136.72C145.89 136.51 145.43 129.53 145.47 126.32C145.47 104.6 145.47 92.67 145.47 70.95C145.47 69.49 146.2 68.7566 147.66 68.75C150.82 68.74 151.95 69.86 151.95 73.04C151.95 93.76 151.95 114.47 151.95 135.19V136.74H155.58C164.8 137.05 164.26 127.17 164.26 126.72L164.27 126.69ZM151.96 58.44C151.96 61.4 150.84 62.52 147.87 62.53C147.13 62.53 146.38 62.53 145.48 62.53V61.18C145.48 42.28 145.48 35.57 145.47 16.66C145.47 14.64 146.3 13.22 147.68 12.83C149.87 12.21 151.77 13.59 151.95 15.94C151.99 16.52 151.95 17.11 151.95 17.7V58.44H151.96Z" fill="#323334"></path><path d="M67.49 129.36C67.46 90.7 67.47 67.05 67.47 28.38C67.47 28 67.47 27.62 67.47 27.25C67.35 21.56 63.31 16.48 57.69 15.49C54.91 15 52.02 15.08 49.18 15.08C41.39 15.08 36.11 20.43 36.11 28.2C36.11 47.61 36.11 52.02 36.11 71.43C36.11 89.5 36.11 107.58 36.11 125.65C36.11 127.41 36.0601 129.18 36.1501 130.93C36.4501 137.05 41.68 141.98 47.18 142.43C49.86 142.65 52.58 142.72 55.26 142.54C57.06 142.42 59.01 142.09 60.56 141.24C65.16 138.71 67.51 134.73 67.5 129.35L67.49 129.36ZM54.94 132.45C54.94 133.18 54.85 133.98 54.56 134.64C53.95 136.06 52.64 136.65 51.17 136.38C49.84 136.13 48.75 134.88 48.68 133.44C48.64 132.56 48.67 131.68 48.67 130.8C48.67 110.97 48.67 91.14 48.67 71.31C48.67 50.85 48.67 45.41 48.67 24.95C48.67 22.8 49.4501 21.62 51.0901 21.25C53.0201 20.82 54.71 22 54.94 23.96C54.98 24.33 54.97 24.71 54.97 25.09C54.97 65.88 54.97 91.66 54.95 132.45H54.94Z" fill="#323334"></path><path d="M199.98 25.57C199.98 25.19 199.98 24.81 199.98 24.44C199.86 18.74 195.82 13.67 190.2 12.68C187.42 12.19 184.53 12.27 181.69 12.27C173.9 12.27 168.62 17.62 168.62 25.39C168.62 44.81 168.62 52.02 168.62 71.44C168.62 89.51 168.62 99.14 168.62 117.22C168.62 118.98 168.57 120.75 168.66 122.5C168.96 128.62 174.19 133.55 179.69 134C182.37 134.22 185.09 134.29 187.77 134.11C189.57 133.99 191.52 133.66 193.07 132.81C197.67 130.28 200.02 126.3 200.01 120.92C199.98 82.26 199.99 64.24 199.99 25.57H199.98ZM187.44 124.01C187.44 124.74 187.35 125.54 187.06 126.2C186.44 127.61 185.14 128.21 183.66 127.94C182.33 127.69 181.24 126.44 181.17 125C181.13 124.12 181.16 123.24 181.16 122.36C181.16 102.53 181.16 91.15 181.16 71.32C181.16 50.86 181.16 42.6 181.16 22.14C181.16 19.99 181.94 18.81 183.58 18.44C185.51 18.01 187.2 19.19 187.43 21.15C187.47 21.52 187.45 21.9 187.45 22.28C187.45 63.07 187.45 83.22 187.43 124.01H187.44Z" fill="#323334"></path><path d="M271.51 129.36C271.48 90.7 271.49 52.03 271.49 13.37C271.49 12.99 271.49 12.62 271.49 12.24C271.37 6.55003 267.33 1.47004 261.71 0.480036C258.93 -0.00996402 256.04 0.0700323 253.2 0.0700323C245.41 0.0700323 240.13 5.42003 240.13 13.19C240.13 32.61 240.13 52.02 240.13 71.44V125.66C240.13 127.42 240.08 129.19 240.17 130.94C240.47 137.06 245.7 141.99 251.19 142.44C253.87 142.66 256.59 142.73 259.27 142.55C261.07 142.43 263.02 142.1 264.57 141.25C269.17 138.72 271.52 134.74 271.51 129.36ZM258.96 132.45C258.96 133.18 258.87 133.98 258.58 134.64C257.97 136.06 256.66 136.65 255.18 136.38C253.85 136.13 252.77 134.88 252.69 133.44C252.65 132.56 252.68 131.68 252.68 130.8V71.31V9.93003C252.68 7.78003 253.46 6.60004 255.1 6.23004C257.03 5.80004 258.72 6.98003 258.95 8.94003C258.99 9.31003 258.97 9.69003 258.97 10.07C258.97 50.86 258.97 91.65 258.96 132.44V132.45Z" fill="#323334"></path><path d="M235.76 125.88C235.88 117.75 235.81 114.3 235.8 106.17C235.8 96.69 235.91 87.21 235.72 77.74C235.63 73.36 233.31 70.01 229.54 67.7C226.68 65.94 223.52 65.87 220.32 65.91C218.17 65.94 216.94 64.73 216.94 62.6C216.93 44.94 216.93 32.92 216.94 15.26C216.94 13.16 218.37 11.63 220.18 11.7C222.05 11.77 223.21 13.12 223.21 15.27C223.19 21.43 223.13 21.97 223.13 28.13C223.13 38.82 223.18 49.52 223.21 60.21V61.59C228.68 61.86 235.82 62.13 235.7 51.99C235.74 51.67 235.79 61.07 235.79 60.87C235.79 44.52 235.82 33.79 235.75 17.44C235.73 12.27 231.54 7.03997 226.44 6.20997C222.97 5.63997 219.34 5.60997 215.81 5.86997C209.34 6.32997 204.71 11.27 204.47 17.76C204.27 23.16 204.3 22.94 204.28 28.34C204.28 31.67 204.41 35 204.42 38.34C204.44 46.73 204.4 55.11 204.44 63.5C204.46 69.94 208.12 74.73 214.27 76.2C216.03 76.62 217.93 76.52 219.76 76.58C222.12 76.66 223.23 77.73 223.23 80.06V128.08C223.23 128.25 223.23 128.42 223.23 128.58C223.2 129.95 222.24 131.31 221.05 131.65C219.68 132.05 218.34 131.62 217.61 130.29C217.19 129.53 216.98 128.56 216.98 127.68C216.94 110.99 216.95 109.8 216.95 93.11V91.82C216.95 82.71 208.65 80.84 204.53 80.84C204.5 81.28 204.45 81.65 204.44 82.01C204.38 91.18 204.31 100.35 204.29 109.52C204.29 114.04 204.38 113.87 204.43 118.39C204.46 121.16 204.35 123.93 204.56 126.69C205.04 132.91 210.46 137.62 216.37 137.7C218.84 137.73 221.32 137.73 223.79 137.7C230.17 137.64 235.67 132.35 235.76 125.87V125.88Z" fill="#323334"></path><path d="M32.14 92.42C32.14 66.01 32.14 39.59 32.14 13.18C32.14 12.72 32.14 12.26 32.12 11.8C31.84 6.02996 27.04 0.549961 21.47 0.289961C14.69 -0.0300389 7.89999 0.139957 1.10999 0.0899565C1.02999 0.0899565 0.96002 0.149961 0.77002 0.219961V142.32H2.21002C13.01 142.32 13.28 136.44 13.28 131.56C13.28 122.11 13.28 116.28 13.28 106.83C13.28 106.11 13.5 105.65 14.37 105.66C15.92 105.68 17.47 105.59 19.02 105.58C26.68 105.53 32.15 100.05 32.15 92.42H32.14ZM15.61 99.3C14.0567 99.3 13.28 98.5266 13.28 96.98V37.74C13.28 28.51 13.28 19.28 13.28 10.05C13.28 7.91996 14.09 6.62996 15.63 6.24996C17.56 5.76996 19.26 6.89996 19.54 8.87996C19.6 9.28996 19.58 9.71996 19.58 10.13V52.89C19.58 67.02 19.58 81.15 19.58 95.28C19.58 98.28 18.56 99.31 15.6 99.31L15.61 99.3Z" fill="#323334"></path><path d="M85.28 142.32C86.83 142.34 88.4 142.23 89.95 142.22C97.61 142.17 103.08 136.69 103.08 129.06C103.08 102.65 103.08 67.75 103.08 41.33C103.08 40.87 103.08 40.41 103.06 39.95C102.78 34.18 97.9799 28.7 92.4099 28.44C85.6299 28.12 78.8299 28.29 72.0499 28.24C71.9699 28.24 71.9 28.3 71.71 28.37V142.32H84.2199C84.6199 142.32 84.41 142.3 85.28 142.32ZM84.2299 65.88C84.2299 56.65 84.2299 47.42 84.2299 38.19C84.2299 36.06 85.04 34.77 86.58 34.39C88.51 33.91 90.2099 35.04 90.4899 37.02C90.5499 37.43 90.53 37.86 90.53 38.27C90.53 52.52 90.53 38.63 90.53 52.89C90.53 67.02 90.53 117.78 90.53 131.91C90.53 134.91 89.5199 135.94 86.5499 135.94C84.9966 135.94 84.2199 135.167 84.2199 133.62V65.89L84.2299 65.88Z" fill="#323334"></path><path d="M128.56 136.42H119.23V76.34C119.23 76.09 119.23 75.84 119.23 75.59C119.25 74.69 119.78 74.35 120.6 74.37C122.97 74.41 125.34 74.43 127.71 74.51C128.55 74.54 128.83 74.23 128.82 73.43C128.78 71.96 128.77 70.49 128.82 69.03C128.85 68.17 128.48 67.96 127.68 68.01C126.23 68.11 124.78 68.17 123.33 68.16C122.06 68.16 120.78 68.03 119.23 67.94V7.67001C119.23 6.59001 119.777 6.05002 120.87 6.05002C123.41 6.05002 125.96 6.05002 128.63 6.05002C128.63 4.39002 128.57 2.89001 128.65 1.39001C128.71 0.360013 128.39 0.0300144 127.33 0.0400144C121 0.0900144 114.67 0.0600132 108.34 0.0700132C107.89 0.0700132 107.44 0.120015 107.01 0.150015V142.37H128.57V136.45L128.56 136.42Z" fill="#323334"></path><path d="M54.9401 158.92C53.9101 158.92 53.0701 159.75 53.0701 160.78C53.0701 161.81 53.9101 162.64 54.9401 162.64C55.9701 162.64 56.8 161.81 56.8 160.78C56.8 159.75 55.9701 158.92 54.9401 158.92Z" fill="#323334"></path><path d="M139.81 158.92C138.78 158.92 137.95 159.75 137.95 160.78C137.95 161.81 138.79 162.64 139.81 162.64C140.83 162.64 141.67 161.81 141.67 160.78C141.67 159.75 140.84 158.92 139.81 158.92Z" fill="#323334"></path></svg>