<svg width="50" height="30" viewBox="0 0 50 30" fill="none" xmlns="http://www.w3.org/2000/svg">
<path d="M35.4797 26.0598C35.3797 25.9898 35.2597 25.9398 35.1397 25.9298C35.0297 25.9298 34.9097 25.8798 34.7897 25.9198C34.7097 25.9398 34.6197 25.9498 34.5397 25.9698C34.3197 26.0298 34.1897 26.1798 34.0897 26.3698C34.0097 26.5298 33.9697 26.6998 33.9697 26.8898C33.9697 27.2398 33.9697 27.5898 33.9697 27.9398C33.9697 28.2898 33.9697 28.6398 33.9697 28.9898C33.9697 29.1498 33.9997 29.3098 34.0497 29.4598C34.1597 29.7598 34.4597 29.9298 34.7297 29.9398C34.8097 29.9398 34.8997 29.9398 34.9797 29.9398C35.0997 29.9398 35.2197 29.9198 35.3397 29.8698C35.5197 29.7898 35.6597 29.6698 35.7297 29.4898C35.8097 29.3098 35.8497 29.1098 35.8497 28.9098C35.8497 28.2898 35.8497 27.6698 35.8497 27.0498C35.8497 26.8998 35.8297 26.7498 35.7997 26.5998C35.7497 26.3898 35.6597 26.1998 35.4697 26.0698L35.4797 26.0598ZM35.2797 28.8698C35.2797 28.9798 35.2597 29.0998 35.2297 29.1998C35.1597 29.4298 34.8897 29.4998 34.7097 29.3498C34.5997 29.2598 34.5597 29.1398 34.5597 28.9998C34.5597 28.6398 34.5597 28.2798 34.5597 27.9198C34.5597 27.5598 34.5597 27.1998 34.5597 26.8398C34.5597 26.7298 34.5797 26.6098 34.6697 26.5298C34.7697 26.4398 34.8797 26.3898 35.0297 26.4398C35.1797 26.4898 35.2297 26.5998 35.2597 26.7298C35.2997 26.8798 35.2897 27.0298 35.2897 27.1798C35.2897 27.7398 35.2897 28.2998 35.2897 28.8698H35.2797Z" fill="#323334"/>
<path d="M23.9999 26.2596C23.8699 26.0796 23.6699 25.9896 23.4599 25.9796C23.1299 25.9596 22.8099 25.9796 22.4799 25.9796C22.4599 26.0096 22.4399 26.0296 22.4199 26.0496V29.8196C22.4199 29.8196 22.4699 29.8596 22.4899 29.8796H22.9099C22.9099 29.8796 22.9499 29.8296 22.9699 29.8096C22.9699 29.3696 22.9699 28.9396 22.9699 28.4996C22.9699 28.3896 22.9699 28.2796 23.0099 28.1696C23.1299 28.0896 23.2599 28.1196 23.3799 28.1496C23.4399 28.1996 23.4799 28.2396 23.5299 28.2896C23.5299 28.3596 23.5299 28.4296 23.5599 28.4896C23.5899 28.5596 23.5799 28.6396 23.5799 28.7096C23.5799 29.0096 23.5799 29.3096 23.5799 29.6096C23.5799 29.6996 23.5799 29.7996 23.6799 29.8696C23.8299 29.8496 23.9799 29.8996 24.1199 29.8396C24.1299 29.7996 24.1499 29.7596 24.1499 29.7496C24.1499 29.6696 24.1299 29.6196 24.1299 29.5696C24.1299 29.2596 24.1299 28.9496 24.1299 28.6396C24.1299 28.5396 24.1299 28.4296 24.0999 28.3296C24.0799 28.2296 24.0499 28.1396 23.9799 28.0596C23.9399 28.0196 23.9099 27.9696 23.8699 27.9196C23.8699 27.8496 23.8899 27.7996 23.9299 27.7496C23.9599 27.7096 23.9999 27.6796 24.0199 27.6396C24.1099 27.5096 24.1499 27.3596 24.1499 27.2096C24.1499 27.0696 24.1499 26.9296 24.1499 26.7896C24.1499 26.7096 24.1499 26.6196 24.1199 26.5396C24.0799 26.4396 24.0499 26.3396 23.9899 26.2596H23.9999ZM23.5599 27.3796C23.5199 27.5796 23.3399 27.6496 23.1699 27.6596C23.0999 27.6596 23.0499 27.6196 22.9899 27.5496C22.9499 27.2196 22.9599 26.8696 22.9899 26.5296C23.0499 26.4496 23.1099 26.4196 23.1999 26.4196C23.3499 26.4196 23.4699 26.4996 23.5599 26.6296C23.5999 26.7696 23.6299 26.9196 23.6199 27.0796C23.6199 27.1796 23.5899 27.2796 23.5699 27.3696L23.5599 27.3796Z" fill="#323334"/>
<path d="M16.0494 29.0697C16.0294 28.9397 16.0094 28.8097 15.9894 28.6797C15.9694 28.5497 15.9394 28.4197 15.9094 28.2797C15.8894 28.1497 15.8694 28.0097 15.8494 27.8797C15.8294 27.7497 15.7994 27.6197 15.7694 27.4797C15.7494 27.3497 15.7394 27.2097 15.7094 27.0797C15.6794 26.8997 15.6394 26.7097 15.6094 26.5297C15.5894 26.3997 15.5794 26.2597 15.5494 26.1297C15.5394 26.0697 15.5194 25.9997 15.4494 25.9697H14.7494C14.6894 25.9997 14.6694 26.0497 14.6494 26.1097C14.6394 26.1597 14.6294 26.2197 14.6194 26.2797C14.5894 26.4297 14.5694 26.5897 14.5394 26.7397C14.5294 26.8097 14.5194 26.8797 14.5094 26.9497C14.4994 27.0397 14.4794 27.1397 14.4594 27.2297C14.4394 27.3497 14.4194 27.4797 14.3994 27.5997C14.3894 27.6897 14.3794 27.7697 14.3694 27.8597C14.3494 27.9897 14.3194 28.1197 14.2894 28.2597C14.2694 28.3997 14.2494 28.5397 14.2294 28.6697C14.2194 28.7397 14.1894 28.8097 14.1794 28.8797C14.1594 28.9997 14.1394 29.1197 14.1194 29.2397C14.0994 29.3797 14.0994 29.5297 14.0594 29.6697C14.0394 29.7597 14.0594 29.8097 14.1094 29.8697C14.2294 29.8697 14.3494 29.8697 14.4694 29.8697C14.5694 29.8697 14.6094 29.8297 14.6194 29.7297C14.6294 29.6397 14.6294 29.5597 14.6494 29.4697C14.6694 29.3497 14.6894 29.2397 14.6994 29.1197C14.6994 29.0497 14.7194 28.9797 14.7294 28.9197C14.7594 28.8897 14.7794 28.8597 14.7994 28.8397C14.9894 28.7897 15.1794 28.7697 15.3494 28.8597C15.4294 28.9697 15.4194 29.0897 15.4394 29.1997C15.4694 29.3397 15.4794 29.4897 15.4994 29.6397C15.4994 29.6797 15.5194 29.7297 15.5294 29.7697C15.5494 29.8197 15.5794 29.8597 15.6294 29.8597C15.7594 29.8597 15.8994 29.8597 16.0294 29.8597C16.0494 29.8597 16.0794 29.8397 16.0994 29.8297C16.1294 29.6997 16.0894 29.5797 16.0694 29.4497C16.0494 29.3197 16.0194 29.1897 15.9994 29.0497L16.0494 29.0697ZM15.1494 28.3097C15.0794 28.3097 14.9994 28.2897 14.9394 28.2797C14.8894 28.2097 14.8594 28.1397 14.8994 28.0497C14.9294 27.9797 14.9294 27.8997 14.9394 27.8197C14.9594 27.6497 14.9694 27.4797 14.9994 27.3097C15.0194 27.1697 15.0494 27.0397 15.0794 26.8997C15.0794 26.8797 15.0994 26.8597 15.1194 26.8097C15.1594 26.8997 15.1894 26.9497 15.2094 27.0097C15.2294 27.0897 15.2294 27.1797 15.2394 27.2697C15.2394 27.3597 15.2494 27.4497 15.2694 27.5297C15.3094 27.6897 15.3094 27.8597 15.3394 28.0197C15.3494 28.0697 15.3394 28.1297 15.3394 28.1897C15.3094 28.2797 15.2294 28.2897 15.1594 28.2997L15.1494 28.3097Z" fill="#323334"/>
<path d="M32.5095 25.9795C32.5095 25.9795 32.4495 26.0595 32.4395 26.0895C32.4295 26.2195 32.4395 26.3295 32.3995 26.4295C32.3795 26.5095 32.3995 26.5895 32.3695 26.6595C32.3295 26.7695 32.3595 26.8795 32.3295 26.9995C32.2995 27.0995 32.3095 27.2095 32.2995 27.3095C32.2795 27.4795 32.2495 27.6495 32.2195 27.8195C32.1995 27.9795 32.1795 28.1395 32.1695 28.2995C32.1695 28.3695 32.1595 28.4395 32.1395 28.5095C32.1295 28.5795 32.0995 28.6395 32.0795 28.7095C32.0495 28.7095 32.0295 28.7095 32.0095 28.7095C31.9795 28.5795 31.9495 28.4495 31.9295 28.3195C31.9095 28.1495 31.8895 27.9795 31.8695 27.8095C31.8695 27.7395 31.8495 27.6595 31.8395 27.5895C31.8195 27.4695 31.8095 27.3595 31.7895 27.2395C31.7795 27.1495 31.7695 27.0695 31.7595 26.9795C31.7495 26.8795 31.7295 26.7795 31.7095 26.6895C31.6995 26.6195 31.6895 26.5395 31.6795 26.4695C31.6695 26.3695 31.6795 26.2695 31.6495 26.1695C31.6395 26.1095 31.6295 26.0295 31.5595 25.9795H31.0795C31.0795 25.9795 31.0395 26.0295 31.0195 26.0495C31.0195 26.0795 31.0195 26.1195 31.0195 26.1495C31.0395 26.2895 31.0695 26.4195 31.0895 26.5595C31.1095 26.6895 31.1395 26.8195 31.1595 26.9395C31.1795 27.0595 31.1995 27.1695 31.2195 27.2895C31.2395 27.4195 31.2495 27.5595 31.2795 27.6895C31.3095 27.8695 31.3495 28.0495 31.3795 28.2295C31.3995 28.3495 31.4195 28.4795 31.4395 28.5995C31.4595 28.7395 31.4895 28.8695 31.5095 29.0095C31.5195 29.0895 31.5395 29.1595 31.5595 29.2395C31.5795 29.3595 31.5995 29.4895 31.6195 29.6095C31.6395 29.7095 31.6395 29.8195 31.7395 29.8895H32.3095C32.3695 29.8495 32.3995 29.7895 32.4095 29.7095C32.4295 29.5495 32.4595 29.3795 32.4895 29.2195C32.5195 29.0695 32.5395 28.9195 32.5695 28.7695C32.5795 28.6895 32.5995 28.6195 32.6195 28.5395C32.6395 28.4295 32.6595 28.3195 32.6795 28.2095C32.6995 28.0795 32.7095 27.9395 32.7395 27.8095C32.7695 27.6295 32.8095 27.4395 32.8395 27.2595C32.8695 27.1195 32.8895 26.9795 32.9195 26.8395C32.9395 26.7095 32.9595 26.5695 32.9795 26.4395C32.9895 26.3595 33.0095 26.2895 33.0195 26.2095C33.0295 26.1395 33.0495 26.0595 32.9995 25.9895H32.4995L32.5095 25.9795Z" fill="#323334"/>
<path d="M18.3001 25.9995C18.2301 25.9795 18.1501 25.9795 18.0801 25.9795C17.7801 25.9795 17.4801 25.9795 17.1801 25.9795C17.1601 26.0095 17.1301 26.0295 17.1201 26.0495V29.8295C17.1201 29.8295 17.1601 29.8695 17.1701 29.8895H17.6001C17.6001 29.8895 17.6401 29.8395 17.6701 29.8195C17.6701 29.4595 17.6701 29.0995 17.6701 28.7495C17.6701 28.6195 17.6601 28.4895 17.7101 28.3495C17.7301 28.3295 17.7501 28.2995 17.7801 28.2695C17.8401 28.2695 17.8901 28.2695 17.9401 28.2695C18.0901 28.2695 18.2301 28.2395 18.3701 28.1895C18.5401 28.1295 18.6601 28.0195 18.7501 27.8695C18.8401 27.6995 18.8801 27.5095 18.8801 27.3195C18.8801 27.1895 18.8801 27.0595 18.8801 26.9295C18.8801 26.7995 18.8701 26.6695 18.8301 26.5395C18.7501 26.2495 18.5601 26.0895 18.2901 26.0095L18.3001 25.9995ZM18.3001 27.4895C18.2701 27.6195 18.1901 27.7095 18.0701 27.7595C18.0501 27.7595 18.0401 27.7795 18.0201 27.7895H17.7701C17.6701 27.7395 17.6701 27.6395 17.6701 27.5595C17.6701 27.2695 17.6701 26.9795 17.6701 26.6795C17.6701 26.6195 17.6901 26.5695 17.7101 26.4995C17.7501 26.4795 17.7901 26.4495 17.8401 26.4095C17.9201 26.4195 18.0101 26.4195 18.0801 26.4495C18.2001 26.4895 18.2801 26.5895 18.3101 26.6995C18.3701 26.9595 18.3701 27.2195 18.3101 27.4795L18.3001 27.4895Z" fill="#323334"/>
<path d="M21.3899 29.3897C21.1099 29.3897 20.8299 29.3697 20.5799 29.3597C20.4899 29.2897 20.4699 29.2097 20.4699 29.1297C20.4699 28.8297 20.4699 28.5397 20.4699 28.2397C20.5099 28.1197 20.5899 28.0597 20.7199 28.0697C20.8699 28.0697 21.0299 28.0697 21.1899 28.0697C21.3099 28.0697 21.3499 28.0297 21.3499 27.9097C21.3499 27.8197 21.3499 27.7197 21.3499 27.6397C21.2899 27.5597 21.2099 27.5397 21.1199 27.5397C20.9299 27.5397 20.7499 27.5397 20.5699 27.5397C20.4899 27.4897 20.4699 27.4097 20.4699 27.3397C20.4699 27.1297 20.4699 26.9097 20.4699 26.6997C20.4699 26.6197 20.4899 26.5397 20.5699 26.4897C20.6999 26.4897 20.8199 26.4897 20.9499 26.4897C21.0799 26.4897 21.2099 26.4997 21.3499 26.4497C21.4299 26.3597 21.3899 26.2397 21.3999 26.1297C21.3999 26.0697 21.3799 26.0197 21.3399 25.9697H19.9799C19.9799 25.9697 19.9399 26.0097 19.9199 26.0297V29.7997C19.9199 29.7997 19.9699 29.8397 19.9899 29.8597H21.3499C21.3499 29.8597 21.4099 29.7897 21.4199 29.7497C21.4399 29.6397 21.4799 29.5397 21.4499 29.4197C21.4299 29.3997 21.4099 29.3797 21.3999 29.3697L21.3899 29.3897Z" fill="#323334"/>
<path d="M26.81 25.9795C26.81 25.9795 26.77 26.0295 26.75 26.0495V26.4195C26.8 26.4895 26.88 26.5095 26.96 26.5095C27.07 26.5095 27.18 26.5095 27.29 26.5095C27.38 26.5795 27.39 26.6695 27.39 26.7595C27.39 27.7295 27.39 28.6995 27.39 29.6695V29.8195C27.39 29.8195 27.43 29.8595 27.45 29.8795H27.88C27.88 29.8795 27.92 29.8395 27.95 29.8195V26.7995C27.95 26.7995 27.95 26.7395 27.95 26.7095C27.96 26.6295 27.97 26.5495 28.05 26.5095C28.15 26.5095 28.26 26.5095 28.37 26.5095C28.45 26.5095 28.54 26.4895 28.58 26.4095V26.0395C28.58 26.0395 28.54 25.9995 28.53 25.9795H26.82H26.81Z" fill="#323334"/>
<path d="M29.5695 25.9795C29.5695 25.9795 29.5295 26.0195 29.5195 26.0395V29.8195C29.5195 29.8195 29.5595 29.8595 29.5795 29.8795H30.0095C30.0095 29.8795 30.0495 29.8395 30.0595 29.8195V26.0395C30.0595 26.0395 30.0195 25.9995 29.9995 25.9795H29.5695Z" fill="#323334"/>
<path d="M25.3198 25.9795C25.3198 25.9795 25.2798 26.0295 25.2598 26.0495V29.8195C25.2598 29.8195 25.2998 29.8595 25.3198 29.8795H25.7498C25.7498 29.8795 25.7898 29.8395 25.7998 29.8195V26.0395C25.7998 26.0395 25.7598 25.9995 25.7398 25.9795H25.3198Z" fill="#323334"/>
<path d="M24.7893 0.359573C24.6793 0.299573 24.5793 0.289573 24.5093 0.359573C24.4593 0.479573 24.4693 0.599574 24.4693 0.719574C24.4693 0.989574 24.4693 1.25957 24.4693 1.52957C24.4693 1.58957 24.4693 1.63957 24.4193 1.67957C24.3393 1.63957 24.3193 1.54958 24.2993 1.47958C24.2093 1.14958 24.1293 0.829573 24.0393 0.499573C24.0193 0.409573 23.9693 0.32957 23.8593 0.30957C23.7593 0.31957 23.6493 0.27957 23.5493 0.37957C23.5493 0.44957 23.5293 0.529573 23.5293 0.609573C23.5293 1.21957 23.5493 1.81957 23.5493 2.42957C23.5493 2.51957 23.5493 2.61957 23.5493 2.70957C23.5493 2.78957 23.5693 2.86958 23.6493 2.90958C23.7093 2.90958 23.7693 2.90958 23.8193 2.90958C23.8493 2.88958 23.8693 2.86957 23.8893 2.84957C23.8893 2.78957 23.8893 2.73958 23.8893 2.68958C23.8893 2.29958 23.8593 1.90957 23.9093 1.49957C23.9193 1.49957 23.9393 1.47957 23.9693 1.44957C23.9993 1.53957 24.0393 1.60958 24.0593 1.68958C24.1493 2.01958 24.2293 2.34957 24.3193 2.67957C24.3393 2.75957 24.3593 2.84957 24.4393 2.88957C24.5293 2.88957 24.6293 2.88957 24.7293 2.88957C24.7493 2.86957 24.7693 2.84957 24.7793 2.83957C24.7793 2.81957 24.7793 2.80958 24.7793 2.79958C24.7793 2.01958 24.7793 1.23957 24.7793 0.459572C24.7793 0.419572 24.7593 0.369569 24.7593 0.339569L24.7893 0.359573Z" fill="#323334"/>
<path d="M15.2798 3.06002C15.3598 3.22002 15.4698 3.33003 15.6498 3.35003C15.6898 3.35003 15.7298 3.35003 15.7698 3.35003C15.9198 3.37003 16.1298 3.32003 16.2398 3.23003C16.2798 3.19003 16.3298 3.16003 16.3598 3.11003C16.4398 2.97003 16.4698 2.83002 16.4498 2.67002C16.4298 2.44002 16.4098 2.20003 16.3898 1.97003C16.3698 1.74003 16.3498 1.51003 16.3298 1.28003C16.3298 1.14003 16.2798 1.02003 16.1998 0.91003C16.1198 0.79003 16.0098 0.720024 15.8598 0.700024C15.7498 0.680024 15.6498 0.690024 15.5498 0.700024C15.3798 0.730024 15.2398 0.820028 15.1498 0.970028C15.0598 1.12003 15.0498 1.29002 15.0598 1.45002C15.1098 1.93002 15.1198 2.41002 15.2198 2.88002C15.2298 2.93002 15.2398 2.99003 15.2698 3.04003L15.2798 3.06002ZM15.4798 1.18003C15.5398 1.10003 15.5898 1.04003 15.6898 1.04003C15.7798 1.04003 15.8498 1.07003 15.8898 1.14003C15.9298 1.20003 15.9498 1.26002 15.9598 1.34002C15.9998 1.79002 16.0398 2.24003 16.0798 2.69003C16.0798 2.79003 16.0598 2.87003 15.9998 2.96003C15.8498 3.08003 15.6998 3.04002 15.5998 2.84002C15.5498 2.35002 15.5098 1.84002 15.4598 1.34002C15.4598 1.28002 15.4698 1.23003 15.4798 1.18003Z" fill="#323334"/>
<path d="M17.2399 3.01944C17.2599 3.08944 17.2699 3.16945 17.3499 3.18945C17.4199 3.18945 17.4898 3.17944 17.5598 3.16944C17.5798 3.14944 17.5998 3.11944 17.6198 3.09944C17.5998 2.83944 17.5798 2.56944 17.5598 2.30944C17.5598 2.20944 17.5599 2.11944 17.5999 2.03944C17.6699 1.95944 17.7498 1.99944 17.8298 2.01944C17.8898 2.05944 17.9399 2.09944 17.9599 2.16944C17.9799 2.25944 17.9998 2.34945 18.0098 2.43945C18.0298 2.62945 18.0399 2.81944 18.0499 3.01944C18.0799 3.04944 18.1098 3.09944 18.1398 3.12944C18.2298 3.12944 18.2998 3.11944 18.3698 3.10944C18.4098 3.04944 18.4298 2.98944 18.4198 2.92944C18.4098 2.84944 18.3899 2.77944 18.3799 2.69944C18.3699 2.61944 18.3698 2.52944 18.3598 2.44944C18.3598 2.35944 18.3498 2.26944 18.3398 2.17944C18.3398 2.08944 18.3098 2.00944 18.2498 1.94944C18.1898 1.87944 18.1698 1.81945 18.1798 1.72945C18.2898 1.60945 18.3198 1.45944 18.3098 1.28944C18.3098 1.20944 18.3098 1.12945 18.2898 1.04945C18.2698 0.829446 18.1798 0.659439 17.9498 0.589439C17.9198 0.589439 17.8998 0.569443 17.8898 0.569443C17.7998 0.569443 17.7198 0.54944 17.6398 0.55944C17.5198 0.55944 17.3899 0.579445 17.2699 0.579445C17.1999 0.579445 17.1498 0.599447 17.0898 0.659447C17.0898 0.729447 17.0898 0.809442 17.0898 0.889442C17.1398 1.55944 17.1899 2.22944 17.2399 2.89944C17.2399 2.92944 17.2399 2.95944 17.2399 2.98944V3.01944ZM17.4899 0.959442C17.4899 0.959442 17.5298 0.919444 17.5598 0.899444C17.5998 0.899444 17.6499 0.899442 17.7099 0.889442C17.8499 0.929442 17.8398 0.949439 17.9198 1.08944C17.9198 1.20944 17.9398 1.33944 17.9498 1.45944C17.9298 1.50944 17.9098 1.54944 17.8898 1.59944C17.8398 1.62944 17.7998 1.64944 17.7498 1.67944C17.7098 1.67944 17.6699 1.67944 17.6299 1.67944C17.6099 1.65944 17.5798 1.63944 17.5598 1.62944C17.4898 1.40944 17.4798 1.17944 17.5098 0.94944L17.4899 0.959442Z" fill="#323334"/>
<path d="M31.3098 3.10954C31.3098 3.10954 31.3598 3.06954 31.3798 3.03954C31.3998 2.75954 31.4098 2.48954 31.4298 2.21954C31.4298 2.15954 31.4498 2.09954 31.4698 2.03954C31.4998 1.95954 31.5698 1.92954 31.6598 1.96954C31.6898 1.96954 31.7098 1.98953 31.7298 1.99953C31.7798 2.04953 31.8298 2.09953 31.8298 2.16953C31.8298 2.26953 31.8398 2.36954 31.8298 2.46954C31.8298 2.61954 31.8098 2.77953 31.7998 2.92953C31.7998 3.01953 31.8098 3.08953 31.8798 3.13953C31.9498 3.13953 32.0198 3.14954 32.0998 3.15954C32.1198 3.11954 32.1498 3.08953 32.1598 3.06953C32.1598 2.84953 32.1698 2.65953 32.1798 2.45953C32.1798 2.38953 32.1798 2.31953 32.1998 2.24953C32.1998 2.15953 32.1898 2.06953 32.1398 1.99953C32.0898 1.92953 32.0798 1.85953 32.0998 1.76953C32.2298 1.66953 32.2798 1.52954 32.2898 1.36954C32.2898 1.28954 32.2998 1.20953 32.3098 1.12953C32.3198 0.909532 32.2598 0.719537 32.0398 0.619537C32.0198 0.609537 31.9898 0.589531 31.9798 0.589531C31.8798 0.569531 31.8098 0.549536 31.7298 0.539536C31.6098 0.529536 31.4898 0.529531 31.3798 0.519531C31.3098 0.519531 31.2498 0.519534 31.1798 0.569534C31.1698 0.629534 31.1498 0.709533 31.1398 0.779533C31.1098 1.26953 31.0798 1.75953 31.0498 2.24953C31.0398 2.45953 31.0198 2.66954 31.0098 2.86954C31.0098 2.95954 31.0098 3.03953 31.0898 3.08953C31.1598 3.08953 31.2198 3.08953 31.2998 3.09953L31.3098 3.10954ZM31.5098 1.05953C31.5198 0.979532 31.5298 0.889531 31.6198 0.839531C31.8098 0.809531 31.9098 0.909536 31.9498 1.07954C31.9498 1.18954 31.9298 1.31954 31.9298 1.43954C31.9098 1.47954 31.8798 1.52954 31.8498 1.57954C31.7998 1.59954 31.7498 1.61953 31.6998 1.63953C31.6598 1.63953 31.6198 1.63953 31.5798 1.63953C31.4898 1.57953 31.4898 1.48954 31.4898 1.40954C31.4898 1.28954 31.4898 1.17953 31.5098 1.06953V1.05953Z" fill="#323334"/>
<path d="M29.3698 3.00029C29.4998 3.05029 29.6398 3.07029 29.7898 3.05029C30.0298 3.02029 30.2098 2.83029 30.2498 2.62029C30.2798 2.47029 30.2898 2.31029 30.2998 2.15029C30.3298 1.70029 30.3498 1.25029 30.3698 0.800292C30.3698 0.690292 30.3698 0.590287 30.3398 0.490287C30.1998 0.410287 30.1198 0.410287 30.0098 0.490287C29.9598 1.17029 29.9698 1.86029 29.8698 2.56029C29.8298 2.64029 29.7698 2.72029 29.6498 2.72029C29.5098 2.72029 29.4498 2.61029 29.4198 2.49029C29.4498 1.88029 29.4698 1.26029 29.4998 0.640288C29.4998 0.570288 29.4998 0.510286 29.4598 0.450286C29.3198 0.370286 29.2598 0.370287 29.1298 0.490287C29.0998 1.13029 29.0798 1.76029 29.0498 2.39029C29.0498 2.50029 29.0498 2.61029 29.0898 2.71029C29.1298 2.85029 29.2198 2.95029 29.3598 3.00029H29.3698Z" fill="#323334"/>
<path d="M26.41 2.2998C26.43 2.4398 26.46 2.5998 26.48 2.7498C26.48 2.8298 26.52 2.87981 26.57 2.90981C26.66 2.90981 26.74 2.90981 26.82 2.90981C26.84 2.87981 26.86 2.8398 26.87 2.8198C26.85 2.7098 26.84 2.6198 26.82 2.5298C26.8 2.3998 26.79 2.2698 26.77 2.1398C26.75 2.0098 26.72 1.8798 26.7 1.7398C26.68 1.6098 26.67 1.4698 26.65 1.3398C26.63 1.2098 26.6 1.0798 26.58 0.939804C26.56 0.809804 26.55 0.669803 26.53 0.539803C26.52 0.469803 26.49 0.4098 26.47 0.3498C26.33 0.2698 26.19 0.319805 26.04 0.299805C26 0.329805 25.95 0.359799 25.92 0.379799C25.89 0.549799 25.86 0.699802 25.83 0.859802C25.8 1.0198 25.77 1.1798 25.74 1.3498C25.73 1.4298 25.72 1.5098 25.71 1.5998C25.71 1.6698 25.69 1.7398 25.67 1.8098C25.65 1.9498 25.62 2.0798 25.59 2.2198C25.57 2.3098 25.55 2.4098 25.54 2.4998C25.52 2.6098 25.51 2.7198 25.5 2.8398C25.53 2.8698 25.55 2.8898 25.56 2.8998C25.64 2.8998 25.71 2.8998 25.79 2.8998C25.82 2.8598 25.85 2.8098 25.87 2.7898C25.88 2.6598 25.88 2.5598 25.91 2.4598C25.93 2.3798 25.93 2.2698 26.04 2.2198C26.15 2.2298 26.28 2.1798 26.39 2.2898L26.41 2.2998ZM26.04 1.6298C26.07 1.5498 26.07 1.4598 26.08 1.3698C26.1 1.2498 26.11 1.1398 26.18 1.0398C26.26 1.0698 26.25 1.1398 26.26 1.1898C26.31 1.3998 26.34 1.6098 26.32 1.8298C26.24 1.8998 26.16 1.9198 26.07 1.8398C26.03 1.7798 26.02 1.7198 26.04 1.6398V1.6298Z" fill="#323334"/>
<path d="M33.1093 3.22993C33.1093 3.22993 33.1693 3.14992 33.1893 3.12992C33.2093 3.00992 33.2193 2.89993 33.2493 2.79993C33.2793 2.71993 33.2893 2.60992 33.3993 2.56992C33.6493 2.57992 33.6493 2.58992 33.7493 2.66992C33.7593 2.81992 33.7793 2.96992 33.7893 3.12992C33.7893 3.20992 33.8193 3.26993 33.8693 3.29993C33.9593 3.29993 34.0393 3.30992 34.1193 3.31992C34.1393 3.27992 34.1593 3.24993 34.1793 3.22993C34.1793 3.17993 34.1693 3.13992 34.1693 3.09992C34.1693 2.96992 34.1593 2.83992 34.1493 2.70992C34.1393 2.57992 34.1193 2.43992 34.1093 2.30992C34.0993 2.17992 34.0993 2.03993 34.0893 1.90993C34.0693 1.71993 34.0493 1.53992 34.0293 1.34992C34.0193 1.21992 34.0193 1.07992 34.0093 0.949921C34.0093 0.879921 33.9793 0.809926 33.9693 0.759926C33.8393 0.659926 33.6893 0.699922 33.5493 0.669922C33.4993 0.689922 33.4593 0.719922 33.4193 0.739922C33.3793 0.909922 33.3293 1.05992 33.2893 1.21992C33.2493 1.37992 33.2093 1.53992 33.1693 1.69992C33.1493 1.77992 33.1393 1.85993 33.1193 1.93993C33.1093 2.00993 33.0893 2.06992 33.0693 2.13992C33.0393 2.26992 32.9993 2.40992 32.9593 2.53992C32.9393 2.62992 32.9093 2.71992 32.8893 2.81992C32.8693 2.92992 32.8493 3.03993 32.8193 3.14993C32.8493 3.17993 32.8593 3.20993 32.8793 3.22993C32.9593 3.22993 33.0293 3.23992 33.1093 3.24992V3.22993ZM33.4393 1.96992C33.4793 1.88992 33.4793 1.79992 33.4993 1.71992C33.5193 1.60992 33.5593 1.48993 33.6193 1.39993C33.7093 1.42993 33.6893 1.51993 33.6993 1.57993C33.7193 1.76993 33.7493 1.94992 33.7093 2.13992C33.7093 2.15992 33.7093 2.16993 33.7093 2.18993C33.6193 2.25993 33.5393 2.25993 33.4593 2.18993C33.4193 2.11993 33.4093 2.05993 33.4493 1.97993L33.4393 1.96992Z" fill="#323334"/>
<path d="M20.8795 1.4799C20.9795 1.5899 21.0795 1.6899 21.1995 1.7699C21.3595 1.8799 21.4895 1.9999 21.5595 2.1799C21.5595 2.2899 21.5595 2.3999 21.5695 2.5299C21.5395 2.5699 21.4995 2.6299 21.4595 2.6799C21.3795 2.6799 21.3195 2.6799 21.2695 2.6799C21.1095 2.5899 21.1495 2.4099 21.0795 2.2799C21.0295 2.2699 20.9895 2.2499 20.9395 2.2399C20.8695 2.2699 20.7895 2.2699 20.7595 2.3499C20.7595 2.6399 20.8195 2.8899 21.1595 2.9899C21.2795 2.9899 21.3995 3.0299 21.5195 2.9899C21.6595 2.9499 21.7695 2.8799 21.8395 2.7599C21.9495 2.5899 21.9395 2.3999 21.9595 2.2199C21.9595 2.2099 21.9595 2.1999 21.9595 2.1799C21.9595 2.1499 21.9395 2.1099 21.9395 2.0799C21.9295 1.9699 21.8895 1.8699 21.8295 1.7799C21.7195 1.6199 21.5695 1.5099 21.4195 1.4099C21.1995 1.2599 21.0795 1.0799 21.1395 0.819901C21.1395 0.809901 21.1395 0.789902 21.1395 0.789902C21.1895 0.729902 21.2395 0.679905 21.3195 0.659905C21.3495 0.679905 21.3895 0.689898 21.4095 0.699898C21.5195 0.809898 21.4695 0.959904 21.5695 1.0499C21.6595 1.0499 21.7395 1.0499 21.8195 1.0499C21.8895 0.969904 21.8895 0.889904 21.8595 0.799904C21.8595 0.779904 21.8495 0.759899 21.8395 0.739899C21.7995 0.559899 21.6995 0.439898 21.5095 0.379898C21.3895 0.339898 21.2595 0.349898 21.1495 0.379898C21.0295 0.409898 20.9095 0.459897 20.8395 0.589897C20.7895 0.689897 20.7795 0.7799 20.7495 0.8899C20.7095 1.0599 20.7495 1.2099 20.8095 1.3599C20.8295 1.4099 20.8495 1.4599 20.8895 1.4999L20.8795 1.4799Z" fill="#323334"/>
<path d="M38.4496 3.84023C38.5596 3.85023 38.6696 3.91024 38.7996 3.89024C38.9396 3.87024 39.0596 3.83024 39.1596 3.72024C39.2896 3.57024 39.3196 3.39024 39.3696 3.21024C39.3696 3.20024 39.3696 3.18023 39.3696 3.17023C39.3696 3.13023 39.3696 3.10024 39.3696 3.07024C39.3696 2.96024 39.3596 2.85024 39.3096 2.75024C39.2296 2.58024 39.0996 2.44023 38.9696 2.31023C38.7796 2.13023 38.6896 1.93024 38.7896 1.68024C38.7896 1.67024 38.7896 1.66024 38.7996 1.65024C38.8596 1.60024 38.9196 1.56024 38.9996 1.55024C39.0296 1.57024 39.0596 1.59024 39.0796 1.61024C39.1696 1.73024 39.0896 1.88024 39.1796 1.98024C39.2696 1.99024 39.3496 2.00023 39.4296 2.02023C39.5096 1.96023 39.5296 1.87024 39.5196 1.78024C39.5196 1.76024 39.5196 1.74024 39.5196 1.72024C39.5196 1.54024 39.4296 1.40023 39.2596 1.31023C39.1496 1.25023 39.0196 1.24023 38.8996 1.24023C38.7696 1.24023 38.6496 1.28024 38.5596 1.40024C38.4896 1.49024 38.4596 1.58024 38.4196 1.68024C38.3496 1.84024 38.3696 2.00024 38.3896 2.16024C38.3896 2.21024 38.4096 2.26023 38.4396 2.31023C38.5196 2.43023 38.6096 2.55024 38.7096 2.65024C38.8496 2.78024 38.9596 2.93024 38.9896 3.11024C38.9696 3.22024 38.9596 3.33024 38.9396 3.46024C38.8996 3.50024 38.8496 3.55023 38.8096 3.59023C38.7396 3.58023 38.6796 3.57023 38.6196 3.56023C38.5496 3.50023 38.5296 3.43024 38.5196 3.36024C38.5196 3.29024 38.5196 3.21024 38.4996 3.14024C38.4596 3.12024 38.4096 3.10024 38.3696 3.08024C38.2996 3.10024 38.2196 3.08024 38.1696 3.16024C38.1096 3.45024 38.1396 3.71024 38.4596 3.87024L38.4496 3.84023Z" fill="#323334"/>
<path d="M13.45 3.22008C13.52 3.39008 13.64 3.51007 13.83 3.56007C13.85 3.56007 13.89 3.54007 13.92 3.56007C14.06 3.60007 14.17 3.52007 14.3 3.49007C14.33 3.49007 14.36 3.45008 14.39 3.43008C14.56 3.27008 14.59 3.07008 14.56 2.85008C14.55 2.76008 14.51 2.74007 14.42 2.74007C14.37 2.74007 14.32 2.74008 14.28 2.75008C14.24 2.79008 14.21 2.82007 14.19 2.84007C14.19 3.01007 14.19 3.16008 14.02 3.23008C13.92 3.21008 13.84 3.16007 13.8 3.06007C13.74 2.51007 13.68 1.97008 13.62 1.43008C13.68 1.27008 13.72 1.25008 13.88 1.25008C13.91 1.28008 13.95 1.30007 13.97 1.34007C14.01 1.42007 14.04 1.51008 14.07 1.60008C14.15 1.66008 14.24 1.63008 14.35 1.62008C14.37 1.57008 14.4 1.51007 14.41 1.49007C14.39 1.41007 14.38 1.35008 14.37 1.30008C14.33 1.14008 14.24 1.00008 14.07 0.94008C13.96 0.90008 13.84 0.910075 13.72 0.920075C13.52 0.940075 13.29 1.11008 13.26 1.33008C13.25 1.43008 13.23 1.53007 13.24 1.63007C13.29 2.08007 13.34 2.54007 13.39 2.99007C13.4 3.08007 13.43 3.16007 13.46 3.24007L13.45 3.22008Z" fill="#323334"/>
<path d="M37.5592 1.07C37.3692 1.05 37.1692 1.02 36.9692 1C36.9092 1 36.8592 1 36.8192 1C36.7292 1.07 36.7292 1.14 36.7192 1.2C36.6392 1.89 36.5592 2.58 36.4792 3.27C36.4792 3.35 36.4592 3.44 36.4892 3.52C36.5092 3.53 36.5292 3.55 36.5592 3.56C36.8392 3.59 37.1192 3.63 37.3992 3.66C37.4392 3.59 37.4692 3.53 37.5092 3.47C37.4892 3.43 37.4792 3.39 37.4592 3.36C37.2892 3.33 37.1092 3.34 36.9392 3.25C36.8792 3.2 36.8792 3.12 36.8792 3.04C36.8892 2.92 36.9092 2.8 36.9192 2.68C36.9192 2.6 36.9492 2.53 36.9992 2.45C37.1492 2.38 37.2992 2.46 37.4592 2.45C37.4892 2.43 37.5292 2.4 37.5492 2.38C37.5492 2.32 37.5592 2.27 37.5692 2.21C37.5492 2.18 37.5192 2.14 37.4992 2.13C37.3292 2.07 37.1592 2.13 37.0292 2.01C37.0192 1.96 37.0092 1.93 36.9992 1.89C36.9992 1.85 36.9992 1.8 37.0092 1.76C37.0092 1.7 37.0192 1.65 37.0292 1.59C37.0492 1.47 37.0892 1.38 37.2292 1.36C37.3792 1.35 37.5392 1.45 37.6892 1.35C37.6892 1.32 37.6892 1.29 37.6992 1.27C37.7292 1.14 37.6692 1.06 37.5292 1.05L37.5592 1.07Z" fill="#323334"/>
<path d="M19.1294 2.82029C19.1294 2.89029 19.1494 2.96029 19.1594 3.04029C19.1994 3.05029 19.2294 3.07029 19.2594 3.07029C19.5394 3.06029 19.8194 3.04029 20.0994 3.03029C20.1294 2.96029 20.1494 2.89029 20.1694 2.82029C20.1394 2.78029 20.1194 2.75029 20.0994 2.72029C19.9194 2.72029 19.7494 2.76029 19.5694 2.70029C19.4994 2.65029 19.4794 2.58029 19.4794 2.50029C19.4794 2.39029 19.4694 2.2703 19.4594 2.1603C19.4594 2.0803 19.4594 1.9903 19.4994 1.9103C19.6294 1.8203 19.7994 1.88029 19.9494 1.84029C19.9794 1.81029 20.0094 1.7803 20.0294 1.7603C20.0294 1.7003 20.0294 1.65029 20.0294 1.59029C19.9894 1.56029 19.9594 1.53029 19.9394 1.52029C19.7694 1.50029 19.6194 1.57029 19.4794 1.49029C19.3994 1.33029 19.4094 1.1703 19.4094 1.0103C19.4094 0.880295 19.4894 0.820291 19.6294 0.810291C19.6994 0.810291 19.7794 0.810296 19.8494 0.800296C19.9194 0.800296 19.9694 0.780294 20.0194 0.720294C20.0194 0.690294 20.0194 0.66029 20.0194 0.63029C20.0194 0.50029 19.9594 0.44029 19.8194 0.45029C19.6194 0.47029 19.4194 0.470297 19.2194 0.480297C19.1594 0.480297 19.0994 0.500294 19.0594 0.540294C19.0094 0.600294 19.0194 0.660297 19.0194 0.730297C19.0594 1.4303 19.0994 2.14029 19.1394 2.84029L19.1294 2.82029Z" fill="#323334"/>
<path d="M27.3493 0.680077C27.3493 0.680077 27.4293 0.680077 27.4693 0.680077C27.5793 0.680077 27.6293 0.720078 27.6593 0.830078C27.6693 0.880078 27.6793 0.920078 27.6793 0.970078C27.6693 1.59008 27.6493 2.21008 27.6293 2.83008C27.6293 2.85008 27.6293 2.86008 27.6293 2.87008C27.6493 2.90008 27.6693 2.93007 27.6793 2.95007C27.7693 2.95007 27.8293 2.95007 27.9093 2.95007C27.9393 2.91007 27.9693 2.86008 27.9993 2.82008C28.0193 2.13008 28.0393 1.46008 28.0593 0.780075C28.0993 0.750075 28.1493 0.720073 28.1893 0.700073C28.2693 0.700073 28.3293 0.700073 28.3893 0.700073C28.5193 0.600073 28.5293 0.550078 28.4493 0.400078C28.3993 0.370078 28.3493 0.350075 28.2893 0.350075C28.0393 0.350075 27.7893 0.340078 27.5393 0.330078C27.4493 0.330078 27.3693 0.330077 27.2893 0.360077C27.2293 0.440077 27.2493 0.520075 27.2493 0.600075C27.2893 0.620075 27.3193 0.64008 27.3493 0.66008V0.680077Z" fill="#323334"/>
<path d="M35.7701 3.48008C35.7701 3.48008 35.8001 3.45008 35.8101 3.43008C35.8501 3.37008 35.8801 3.32008 35.8501 3.25008C35.8201 3.18008 35.7701 3.17008 35.7001 3.16008C35.5901 3.15008 35.4801 3.14008 35.3601 3.12008C35.3201 3.09008 35.2901 3.06008 35.2601 3.04008C35.2201 2.89008 35.2401 2.75008 35.2601 2.62008C35.3101 2.10008 35.3701 1.57008 35.4201 1.05008C35.4201 1.02008 35.4201 0.990075 35.4201 0.960075C35.4201 0.900075 35.3701 0.840078 35.3101 0.830078C35.2301 0.820078 35.1601 0.800073 35.0701 0.880073C35.0601 0.940073 35.0301 1.02007 35.0301 1.10007C34.9701 1.65007 34.9201 2.20008 34.8701 2.75008C34.8601 2.89008 34.8401 3.03007 34.8301 3.17007C34.8301 3.25007 34.8301 3.34008 34.9101 3.39008C35.1901 3.42008 35.4701 3.45008 35.7701 3.48008Z" fill="#323334"/>
<path d="M11.6401 3.49934C11.6401 3.49934 11.5601 3.49934 11.5201 3.49934C11.4401 3.49934 11.3501 3.51934 11.2701 3.52934C11.1801 3.54934 11.1001 3.52934 11.0501 3.47934C10.9701 3.33934 10.9701 3.19933 10.9501 3.05933C10.8801 2.54933 10.8101 2.02933 10.7401 1.51933C10.7401 1.48933 10.7401 1.45934 10.7301 1.42934C10.7101 1.35934 10.6601 1.31934 10.5901 1.31934C10.5201 1.31934 10.4501 1.33934 10.3901 1.39934C10.3601 1.47934 10.3701 1.54933 10.3801 1.62933C10.4801 2.29933 10.5701 2.97934 10.6701 3.64934C10.6701 3.67934 10.6701 3.70933 10.6801 3.73933C10.7001 3.80933 10.7201 3.87934 10.8001 3.90934C11.0801 3.86934 11.3601 3.82934 11.6401 3.79934C11.7401 3.67934 11.7401 3.63934 11.6501 3.50934L11.6401 3.49934Z" fill="#323334"/>
<path d="M12.3099 3.5197C12.3299 3.5897 12.3499 3.6597 12.4299 3.6897C12.4999 3.6897 12.5699 3.66971 12.6399 3.65971C12.6599 3.62971 12.6799 3.6097 12.6899 3.5897C12.5999 2.8097 12.4999 2.0397 12.4099 1.2697C12.3899 1.1097 12.2799 1.04971 12.1299 1.11971C12.1099 1.12971 12.0899 1.14971 12.0699 1.15971C12.0399 1.23971 12.0399 1.3197 12.0499 1.3997C12.1399 2.0797 12.2199 2.7497 12.3099 3.4297C12.3099 3.4597 12.3099 3.4897 12.3199 3.5197H12.3099Z" fill="#323334"/>
<path d="M42.7795 24.5895C42.6995 24.5895 42.6095 24.5895 42.5295 24.5895C42.4995 24.5895 42.4795 24.5995 42.4595 24.6095C42.3595 24.6395 42.3595 24.7295 42.3395 24.8095C42.3195 24.8995 42.3095 24.9795 42.2995 25.0695C42.2695 25.2495 42.2395 25.4195 42.2095 25.5895C42.1895 25.6995 42.1795 25.7995 42.1495 25.9095C42.1395 25.9495 42.1295 26.0095 42.0695 26.0195C42.0095 25.9995 42.0095 25.9295 41.9995 25.8895C41.9595 25.7095 41.9395 25.5295 41.9195 25.3495C41.8995 25.1895 41.8895 25.0395 41.8595 24.8795C41.8495 24.7895 41.8195 24.7095 41.7895 24.6195C41.6095 24.5695 41.4395 24.5495 41.2495 24.6195C41.2495 24.7095 41.2295 24.7995 41.2295 24.8795C41.2295 25.5495 41.2295 26.2295 41.2295 26.8995C41.2295 26.9295 41.2295 26.9595 41.2295 26.9895C41.2495 27.0595 41.2495 27.1395 41.3295 27.1695C41.3995 27.1695 41.4695 27.1795 41.5495 27.1195C41.5495 27.0795 41.5695 27.0295 41.5695 26.9795C41.5695 26.6395 41.5695 26.3095 41.5695 25.9695C41.5695 25.8795 41.5895 25.7895 41.5995 25.6995C41.5995 25.6895 41.6195 25.6695 41.6395 25.6595C41.7195 25.8395 41.7295 26.0195 41.7595 26.1995C41.7795 26.2895 41.7795 26.3895 41.7895 26.4895C41.8095 26.6595 41.8495 26.8195 41.8695 26.9895C41.8695 27.0695 41.8995 27.1295 41.9695 27.1795H42.1695C42.2295 27.1395 42.2595 27.0795 42.2695 26.9995C42.2695 26.9195 42.2895 26.8395 42.2995 26.7695C42.3095 26.6795 42.3295 26.5895 42.3495 26.4995C42.3595 26.4095 42.3695 26.3195 42.3795 26.2295C42.3995 26.0795 42.4295 25.9395 42.4595 25.7995C42.4695 25.7395 42.4995 25.6795 42.5295 25.6095C42.5495 25.6395 42.5595 25.6495 42.5595 25.6595C42.5695 25.7495 42.5895 25.8295 42.5995 25.9195C42.5995 26.2895 42.5995 26.6595 42.5995 27.0195C42.5995 27.0795 42.5995 27.1295 42.6595 27.1695C42.7295 27.2095 42.8095 27.1795 42.8795 27.1895C42.8995 27.1595 42.9295 27.1395 42.9395 27.1195V24.7595C42.9395 24.7595 42.9395 24.7295 42.9395 24.7195C42.9395 24.6395 42.8895 24.5895 42.8095 24.5895H42.7795Z" fill="#323334"/>
<path d="M44.4393 25.9896C44.3993 25.8596 44.3893 25.7495 44.4393 25.6195C44.5493 25.3295 44.6593 25.0296 44.7593 24.7396C44.7693 24.7096 44.7593 24.6696 44.7693 24.6396C44.7393 24.6196 44.7093 24.6096 44.6893 24.5996C44.5493 24.5496 44.4393 24.5996 44.3893 24.7396C44.3493 24.8796 44.3093 25.0095 44.2693 25.1495C44.2593 25.1895 44.2293 25.2296 44.2093 25.2696C44.1093 25.2496 44.0993 25.2396 44.0793 25.1696C44.0393 25.0496 44.0093 24.9296 43.9693 24.8096C43.9493 24.7396 43.9193 24.6796 43.9093 24.6196C43.7793 24.5696 43.6693 24.5396 43.5593 24.6396C43.5593 24.6896 43.5593 24.7296 43.5793 24.7796C43.6893 25.0796 43.7793 25.3795 43.8893 25.6795C43.9293 25.7995 43.9393 25.9096 43.8893 26.0296C43.7693 26.3496 43.6593 26.6896 43.5493 27.0196C43.5393 27.0496 43.5393 27.0895 43.5293 27.1195C43.5593 27.1495 43.5793 27.1695 43.5993 27.1795H43.7993C43.8593 27.1395 43.8993 27.0896 43.9093 27.0196C43.9493 26.8796 43.9793 26.7396 44.0293 26.6096C44.0493 26.5396 44.0593 26.4596 44.1393 26.4096C44.1593 26.4196 44.1893 26.4296 44.2093 26.4496C44.2393 26.4896 44.2593 26.5296 44.2693 26.5796C44.3193 26.7596 44.3593 26.9296 44.4093 27.0996C44.4493 27.1296 44.4693 27.1595 44.4993 27.1795H44.7393C44.7393 27.1795 44.7793 27.1395 44.7993 27.1195C44.7993 27.0795 44.7893 27.0496 44.7793 27.0296C44.6693 26.6796 44.5493 26.3396 44.4293 25.9896H44.4393Z" fill="#323334"/>
<path d="M5.55977 24.5995C5.32977 24.6695 5.15977 24.8995 5.14977 25.2195C5.12977 25.6695 5.12977 26.1195 5.14977 26.5695C5.15977 26.8795 5.23978 27.1595 5.62978 27.2395C5.91978 27.2995 6.23977 27.1394 6.32977 26.8694C6.35977 26.7694 6.37978 26.6595 6.37978 26.5595C6.37978 26.3395 6.37978 26.1295 6.37978 25.9095C6.37978 25.6695 6.38978 25.4295 6.37978 25.1895C6.33978 24.7295 5.99977 24.4795 5.54977 24.6095L5.55977 24.5995ZM5.98978 26.3795C5.98978 26.4795 5.96977 26.5794 5.93977 26.6794C5.91977 26.7594 5.85977 26.8095 5.77977 26.8095C5.68977 26.8095 5.61977 26.7495 5.60977 26.6695C5.58977 26.5595 5.56978 26.4494 5.56978 26.3394C5.56978 26.0494 5.56978 25.7595 5.56978 25.4595C5.56978 25.3495 5.58977 25.2494 5.61977 25.1494C5.63977 25.0694 5.68977 24.9994 5.79977 25.0094C5.89977 25.0094 5.94977 25.0595 5.96977 25.1595C5.98977 25.2595 5.99977 25.3694 6.00977 25.4794C6.00977 25.6194 6.00977 25.7594 6.00977 25.8994C6.00977 26.0694 6.00977 26.2294 6.00977 26.3994L5.98978 26.3795Z" fill="#323334"/>
<path d="M7.60945 24.95C7.60945 24.58 7.43945 24.5201 7.15945 24.6701C6.95945 24.7801 6.91944 24.8801 7.05944 25.0501C7.17944 25.1901 7.20944 25.3501 7.19944 25.5201C7.19944 25.9801 7.19944 26.4301 7.19944 26.8901C7.19944 26.9601 7.20945 27.0401 7.24945 27.1101C7.29945 27.2101 7.39945 27.2201 7.48945 27.1601C7.57945 27.0901 7.60945 27.01 7.60945 26.9C7.60945 26.57 7.60945 26.2401 7.60945 25.9101C7.60945 25.5901 7.60945 25.2701 7.60945 24.9601V24.95Z" fill="#323334"/>
<path d="M24.0494 19.6995V9.71954C24.0494 8.91954 23.3994 8.26953 22.5994 8.26953C21.7994 8.26953 21.1494 8.91954 21.1494 9.71954V19.6995C21.1494 20.4995 21.7994 21.1495 22.5994 21.1495C23.3994 21.1495 24.0494 20.4995 24.0494 19.6995Z" fill="#323334"/>
<path d="M35.9693 8.26953H33.5993C33.5093 8.26953 33.4293 8.30954 33.3593 8.36954L31.3293 11.0495C31.2393 11.1395 31.0893 11.1395 30.9993 11.0495L28.9693 8.36954C28.9093 8.30954 28.8193 8.26953 28.7293 8.26953H26.3593C26.1793 8.26953 26.0293 8.41953 26.0293 8.59953V20.8095C26.0293 20.9895 26.1793 21.1395 26.3593 21.1395H28.5893C28.7693 21.1395 28.9193 20.9895 28.9193 20.8095V13.5395C28.9193 13.3295 29.1693 13.2295 29.3193 13.3695L30.9893 15.0395C31.0793 15.1295 31.2293 15.1295 31.3193 15.0395L32.9893 13.3695C33.1393 13.2195 33.3893 13.3295 33.3893 13.5395V20.8095C33.3893 20.9895 33.5393 21.1395 33.7193 21.1395H35.9493C36.1293 21.1395 36.2793 20.9895 36.2793 20.8095V8.59953C36.2793 8.41953 36.1293 8.26953 35.9493 8.26953H35.9693Z" fill="#323334"/>
<path d="M5.42964 8.26953H1.21965C1.03965 8.26953 0.889648 8.41953 0.889648 8.59953V20.8095C0.889648 20.9895 1.03965 21.1395 1.21965 21.1395H3.44965C3.62965 21.1395 3.77965 20.9895 3.77965 20.8095V18.0995C3.77965 17.9195 3.92965 17.7695 4.10965 17.7695H5.42964C7.54964 17.7695 9.26965 16.0495 9.26965 13.9295V12.1095C9.26965 9.98954 7.54964 8.26953 5.42964 8.26953ZM7.09966 13.4495C7.09966 14.4095 6.31965 15.1895 5.35965 15.1895H4.10965C3.92965 15.1895 3.77965 15.0395 3.77965 14.8595V11.1695C3.77965 10.9895 3.92965 10.8395 4.10965 10.8395H5.35965C6.31965 10.8395 7.09966 11.6195 7.09966 12.5795V13.4495Z" fill="#323334"/>
<path d="M19.1398 18.5303C18.4698 18.3903 17.7998 17.9603 17.5098 17.3903C17.4498 17.2803 17.4899 17.1403 17.5999 17.0703C18.5799 16.3803 19.2198 15.2303 19.2198 13.9403V12.1203C19.2198 10.0003 17.4999 8.28027 15.3799 8.28027H11.1698C10.9898 8.28027 10.8398 8.43028 10.8398 8.61028V20.8203C10.8398 21.0003 10.9898 21.1503 11.1698 21.1503H13.3998C13.5798 21.1503 13.7298 21.0003 13.7298 20.8203V18.1103C13.7298 17.9303 13.8798 17.7803 14.0598 17.7803H14.8499C15.0099 17.7803 15.1498 17.8903 15.1798 18.0403C15.5198 19.8103 17.0798 21.1503 18.9498 21.1503H19.0798C19.2498 21.1503 19.3799 21.0203 19.3799 20.8503V18.8203C19.3799 18.6803 19.2798 18.5603 19.1398 18.5303ZM17.0499 13.4603C17.0499 14.4203 16.2698 15.2003 15.3098 15.2003H14.0598C13.8798 15.2003 13.7298 15.0503 13.7298 14.8703V11.1803C13.7298 11.0003 13.8798 10.8503 14.0598 10.8503H15.3098C16.2698 10.8503 17.0499 11.6303 17.0499 12.5903V13.4603Z" fill="#323334"/>
<path d="M43.4393 8.26953C40.3293 8.26953 37.8193 10.7895 37.8193 13.8895V15.5195C37.8193 18.6295 40.3393 21.1395 43.4393 21.1395C46.5493 21.1395 49.0593 18.6195 49.0593 15.5195V13.8895C49.0593 10.7795 46.5393 8.26953 43.4393 8.26953ZM46.1693 15.8495C46.1693 17.3595 44.9493 18.5795 43.4393 18.5795C41.9293 18.5795 40.7093 17.3595 40.7093 15.8495V13.5695C40.7093 12.0595 41.9293 10.8395 43.4393 10.8395C44.9493 10.8395 46.1693 12.0595 46.1693 13.5695V15.8495Z" fill="#323334"/>
</svg>
