<svg xmlns="http://www.w3.org/2000/svg" width="448" height="163" viewBox="0 0 448 163" fill="none"><path d="M447.17 150.6H276.36V159.66H447.17V150.6Z" fill="white"></path><path d="M431.68 83.07C433.24 83.94 434.88 84.38 436.59 84.38C438.3 84.38 439.94 83.94 441.5 83.07C443.06 82.2 444.27 80.98 445.14 79.43C446.01 77.87 446.45 76.24 446.45 74.52C446.45 72.8 446.01 71.14 445.12 69.56C444.23 67.98 443.01 66.77 441.46 65.92C439.91 65.07 438.28 64.65 436.59 64.65C434.9 64.65 433.28 65.07 431.72 65.92C430.17 66.77 428.95 67.98 428.06 69.56C427.17 71.14 426.73 72.79 426.73 74.52C426.73 76.25 427.17 77.87 428.04 79.43C428.91 80.99 430.13 82.2 431.68 83.07ZM429.77 70.52C430.49 69.25 431.47 68.27 432.71 67.6C433.95 66.92 435.25 66.58 436.61 66.58C437.97 66.58 439.27 66.92 440.52 67.6C441.77 68.28 442.75 69.25 443.47 70.52C444.19 71.79 444.54 73.12 444.54 74.51C444.54 75.9 444.19 77.21 443.48 78.46C442.78 79.71 441.8 80.69 440.55 81.4C439.3 82.1 437.99 82.46 436.6 82.46C435.21 82.46 433.91 82.11 432.66 81.4C431.41 80.7 430.43 79.72 429.73 78.46C429.03 77.21 428.68 75.89 428.68 74.51C428.68 73.13 429.04 71.79 429.76 70.52H429.77Z" fill="white"></path><path d="M434.27 75.4901H434.82C435.41 75.4901 435.9 75.6401 436.29 75.9301C436.68 76.2301 437.17 76.9401 437.76 78.0901L438.64 79.7901H441.27L440.03 77.6801C439.59 76.9301 439.33 76.5101 439.26 76.4101C438.96 76.0101 438.72 75.7501 438.55 75.6001C438.38 75.4601 438.13 75.3301 437.82 75.2101C438.71 75.0801 439.41 74.7501 439.9 74.2101C440.39 73.6701 440.64 73.0301 440.64 72.2701C440.64 71.7201 440.51 71.2201 440.25 70.7701C439.99 70.3201 439.66 69.9801 439.27 69.7701C438.88 69.5601 438.33 69.4101 437.63 69.3501C437.39 69.3301 436.27 69.3201 434.28 69.3201H432.16V79.7901H434.28V75.4901H434.27ZM434.27 70.9901H435.13C436.34 70.9901 437.1 71.0401 437.41 71.1401C437.72 71.2401 437.96 71.4001 438.12 71.6301C438.29 71.8601 438.37 72.1201 438.37 72.4101C438.37 72.7001 438.28 72.9801 438.11 73.2101C437.94 73.4501 437.7 73.6101 437.41 73.7101C437.12 73.8101 436.35 73.8501 435.12 73.8501H434.26V70.9901H434.27Z" fill="white"></path><path d="M178.47 76.93C177.99 77.25 177.43 77.48 176.79 77.62C176.15 77.76 175.5 77.83 174.82 77.83C173.33 77.83 171.84 77.45 170.33 76.68C168.82 75.92 167.61 74.97 166.69 73.84L160.74 79.9C162.41 81.63 164.5 82.97 167.02 83.91C169.53 84.85 172.14 85.32 174.83 85.32C176.67 85.32 178.46 85.07 180.2 84.58C181.93 84.08 183.48 83.32 184.82 82.3C186.17 81.27 187.24 79.97 188.04 78.39C188.84 76.81 189.24 74.95 189.24 72.79C189.24 70.91 188.86 69.34 188.12 68.08C187.38 66.82 186.44 65.76 185.3 64.92C184.16 64.08 182.9 63.39 181.53 62.87C180.15 62.35 178.82 61.89 177.54 61.46C176.65 61.18 175.86 60.9 175.15 60.64C174.44 60.37 173.83 60.08 173.32 59.76C172.8 59.44 172.41 59.07 172.15 58.65C171.88 58.22 171.76 57.69 171.76 57.05C171.76 56.31 171.93 55.7 172.26 55.22C172.6 54.74 173.01 54.35 173.51 54.05C174 53.75 174.56 53.55 175.18 53.44C175.8 53.33 176.42 53.28 177.02 53.28C178.19 53.28 179.4 53.57 180.66 54.16C181.92 54.74 182.94 55.53 183.72 56.52L189.51 50.41C187.84 48.88 185.91 47.73 183.68 46.95C181.47 46.17 179.3 45.78 177.17 45.78C175.4 45.78 173.64 46 171.91 46.45C170.18 46.89 168.62 47.59 167.23 48.55C165.85 49.51 164.73 50.73 163.88 52.22C163.03 53.71 162.6 55.49 162.6 57.59C162.6 59.29 162.87 60.74 163.42 61.93C163.97 63.11 164.7 64.12 165.6 64.96C166.51 65.79 167.53 66.47 168.68 67.01C169.83 67.55 171.01 68.01 172.22 68.39C173.46 68.78 174.56 69.14 175.54 69.48C176.51 69.82 177.33 70.19 177.99 70.6C178.64 71.01 179.15 71.45 179.5 71.95C179.85 72.45 180.03 73.05 180.03 73.76C180.03 74.5 179.89 75.15 179.6 75.68C179.32 76.21 178.94 76.64 178.46 76.95L178.47 76.93Z" fill="white"></path><path d="M221.5 76.62H204.01V68.8H219.64V61.51H204.01V54.4H220.54V46.74H195.24V84.38H221.5V76.62Z" fill="white"></path><path d="M236.38 69.44H239.48L247.65 84.38H258.28L248.44 68.27C250.89 67.53 252.8 66.29 254.18 64.55C255.56 62.82 256.26 60.67 256.26 58.12C256.26 55.96 255.85 54.15 255.04 52.7C254.22 51.24 253.13 50.08 251.77 49.19C250.4 48.3 248.86 47.68 247.14 47.3C245.42 46.93 243.66 46.74 241.85 46.74H227.49V84.38H236.37V69.44H236.38ZM236.33 54.07H241.19C241.86 54.07 242.57 54.13 243.3 54.23C244.03 54.33 244.68 54.54 245.27 54.84C245.86 55.14 246.34 55.57 246.71 56.12C247.09 56.67 247.27 57.38 247.27 58.27C247.27 59.23 247.06 60.01 246.66 60.61C246.25 61.21 245.72 61.67 245.08 61.99C244.44 62.31 243.73 62.53 242.94 62.66C242.16 62.78 241.39 62.85 240.64 62.85H236.32V54.07H236.33Z" fill="white"></path><path d="M280.77 84.38L295.28 46.74H285.24L276.57 73.42H276.36L267.64 46.74H257.43L271.68 84.38H280.77Z" fill="white"></path><path d="M307.5 46.74H298.36V84.38H307.5V46.74Z" fill="white"></path><path d="M191.14 114.66C191.96 113.15 192.36 111.3 192.36 109.1C192.36 106.9 191.98 105.13 191.22 103.66C190.46 102.18 189.41 101 188.08 100.09C186.75 99.19 185.19 98.53 183.4 98.12C181.61 97.72 179.69 97.51 177.63 97.51H163.81V135.15H172.9V120.96H177.42C179.37 120.96 181.25 120.75 183.06 120.32C184.87 119.9 186.46 119.23 187.84 118.3C189.23 117.38 190.32 116.17 191.13 114.66H191.14ZM182.75 111.36C182.39 111.94 181.91 112.42 181.29 112.76C180.67 113.12 179.97 113.36 179.19 113.5C178.41 113.64 177.6 113.71 176.75 113.71H172.92V104.83H176.91C177.73 104.83 178.51 104.89 179.28 104.99C180.04 105.09 180.72 105.31 181.33 105.63C181.93 105.95 182.41 106.39 182.77 106.96C183.12 107.53 183.3 108.25 183.3 109.14C183.3 110.03 183.12 110.76 182.77 111.35L182.75 111.36Z" fill="white"></path><path d="M223.15 105.17V97.51H197.84V135.15H224.11V127.39H206.62V119.58H222.24V112.29H206.62V105.17H223.15Z" fill="white"></path><path d="M251.06 119.04C253.51 118.3 255.42 117.06 256.8 115.32C258.18 113.59 258.87 111.44 258.87 108.89C258.87 106.73 258.46 104.92 257.65 103.47C256.83 102.01 255.75 100.85 254.38 99.96C253.01 99.07 251.47 98.45 249.76 98.07C248.04 97.7 246.28 97.51 244.47 97.51H230.12V135.15H238.99V120.21H242.09L250.26 135.15H260.89L251.06 119.04ZM249.27 111.39C248.86 111.99 248.34 112.45 247.7 112.77C247.06 113.09 246.35 113.31 245.56 113.44C244.78 113.56 244.01 113.63 243.26 113.63H238.93V104.85H243.79C244.47 104.85 245.17 104.91 245.9 105.01C246.63 105.11 247.29 105.32 247.88 105.63C248.46 105.93 248.95 106.35 249.32 106.91C249.7 107.46 249.88 108.17 249.88 109.06C249.88 110.02 249.67 110.8 249.26 111.4L249.27 111.39Z" fill="white"></path><path d="M281.73 135.36C283.46 134.86 285 134.1 286.36 133.08C287.71 132.05 288.77 130.75 289.57 129.17C290.37 127.59 290.77 125.73 290.77 123.56C290.77 121.68 290.4 120.11 289.66 118.85C288.92 117.59 287.98 116.53 286.84 115.69C285.71 114.84 284.45 114.16 283.07 113.64C281.69 113.12 280.36 112.66 279.08 112.23C278.19 111.95 277.4 111.67 276.69 111.41C275.98 111.14 275.37 110.85 274.85 110.53C274.34 110.21 273.95 109.84 273.68 109.42C273.41 108.99 273.28 108.46 273.28 107.82C273.28 107.08 273.45 106.47 273.78 105.99C274.12 105.51 274.53 105.12 275.03 104.82C275.53 104.52 276.09 104.32 276.71 104.21C277.33 104.1 277.94 104.05 278.54 104.05C279.71 104.05 280.92 104.34 282.18 104.93C283.44 105.51 284.46 106.3 285.23 107.29L291.02 101.18C289.36 99.65 287.41 98.5 285.2 97.72C282.99 96.94 280.81 96.55 278.69 96.55C276.92 96.55 275.16 96.77 273.43 97.22C271.69 97.66 270.14 98.3601 268.75 99.3201C267.37 100.28 266.25 101.5 265.4 102.99C264.55 104.48 264.12 106.27 264.12 108.36C264.12 110.06 264.4 111.51 264.95 112.7C265.5 113.88 266.23 114.89 267.12 115.73C268.03 116.56 269.06 117.24 270.21 117.78C271.36 118.31 272.54 118.78 273.74 119.16C274.98 119.55 276.09 119.91 277.06 120.25C278.04 120.59 278.85 120.96 279.51 121.37C280.16 121.78 280.67 122.22 281.02 122.72C281.37 123.22 281.55 123.82 281.55 124.53C281.55 125.27 281.41 125.91 281.13 126.45C280.85 126.98 280.46 127.41 279.98 127.73C279.5 128.05 278.94 128.28 278.3 128.42C277.67 128.56 277.01 128.63 276.33 128.63C274.85 128.63 273.35 128.25 271.84 127.48C270.34 126.72 269.12 125.77 268.2 124.64L262.25 130.7C263.91 132.43 266 133.77 268.52 134.71C271.04 135.65 273.64 136.12 276.33 136.12C278.17 136.12 279.97 135.87 281.7 135.38L281.73 135.36Z" fill="white"></path><path d="M296.56 124.33C297.59 126.79 299.01 128.9 300.84 130.65C302.66 132.4 304.83 133.76 307.33 134.71C309.83 135.67 312.55 136.15 315.49 136.15C318.43 136.15 321.16 135.67 323.68 134.71C326.19 133.75 328.37 132.4 330.19 130.65C332.02 128.9 333.44 126.79 334.47 124.33C335.5 121.86 336.01 119.15 336.01 116.17C336.01 113.19 335.5 110.44 334.47 108.01C333.44 105.58 332.02 103.52 330.19 101.82C328.36 100.12 326.19 98.81 323.68 97.89C321.16 96.97 318.43 96.51 315.49 96.51C312.55 96.51 309.83 96.97 307.33 97.89C304.83 98.82 302.67 100.12 300.84 101.82C299.01 103.52 297.59 105.59 296.56 108.01C295.53 110.44 295.02 113.16 295.02 116.17C295.02 119.18 295.53 121.87 296.56 124.33ZM305.51 111.6C306.02 110.18 306.76 108.97 307.72 107.96C308.68 106.95 309.81 106.15 311.12 105.57C312.43 104.99 313.89 104.7 315.48 104.7C317.07 104.7 318.54 104.99 319.86 105.57C321.19 106.16 322.33 106.95 323.26 107.96C324.2 108.97 324.94 110.19 325.47 111.6C326 113.02 326.27 114.54 326.27 116.17C326.27 117.8 326 119.44 325.47 120.88C324.94 122.31 324.19 123.55 323.24 124.58C322.28 125.6 321.15 126.41 319.84 126.99C318.53 127.58 317.08 127.87 315.48 127.87C313.88 127.87 312.43 127.58 311.12 126.99C309.81 126.41 308.69 125.6 307.75 124.58C306.81 123.55 306.07 122.32 305.54 120.88C305.01 119.44 304.74 117.88 304.74 116.17C304.74 114.46 304.99 113.02 305.51 111.6Z" fill="white"></path><path d="M350.62 110.54H350.78L365.92 135.15H376.24V97.51H367.41L367.63 122.08H367.47L352.37 97.51H342V135.15H350.83L350.62 110.54Z" fill="white"></path><path d="M392.03 127.76H406.59L409.52 135.15H419.62L403.99 97.51H395.17L379.38 135.15H389.27L392.03 127.76ZM399.42 107.56L404.09 120.48H394.63L399.42 107.56Z" fill="white"></path><path d="M446.46 127.23H431.9V97.51H422.75V135.15H446.46V127.23Z" fill="white"></path><path d="M175.22 153.42C175.8 152.69 176.09 151.8 176.09 150.73C176.09 149.83 175.92 149.07 175.58 148.46C175.24 147.85 174.78 147.36 174.21 146.99C173.64 146.62 173 146.36 172.28 146.2C171.56 146.04 170.83 145.97 170.07 145.97H164.07V161.7H167.78V155.46H169.07L172.48 161.7H176.92L172.81 154.97C173.83 154.66 174.63 154.14 175.21 153.41L175.22 153.42ZM172.07 151.78C171.9 152.03 171.68 152.22 171.41 152.36C171.14 152.49 170.84 152.59 170.52 152.64C170.19 152.69 169.87 152.72 169.56 152.72H167.75V149.05H169.78C170.06 149.05 170.36 149.07 170.66 149.12C170.96 149.16 171.24 149.25 171.49 149.38C171.74 149.51 171.94 149.68 172.09 149.91C172.25 150.14 172.32 150.44 172.32 150.81C172.32 151.21 172.23 151.54 172.06 151.79L172.07 151.78Z" fill="white"></path><path d="M203.86 147.78C203.1 147.07 202.19 146.52 201.14 146.14C200.09 145.75 198.95 145.56 197.72 145.56C196.49 145.56 195.35 145.75 194.31 146.14C193.27 146.53 192.36 147.07 191.6 147.78C190.84 148.49 190.24 149.35 189.81 150.37C189.38 151.38 189.17 152.52 189.17 153.78C189.17 155.04 189.38 156.16 189.81 157.19C190.24 158.22 190.83 159.1 191.6 159.83C192.36 160.56 193.27 161.13 194.31 161.53C195.35 161.93 196.49 162.13 197.72 162.13C198.95 162.13 200.09 161.93 201.14 161.53C202.19 161.13 203.1 160.56 203.86 159.83C204.62 159.1 205.22 158.22 205.65 157.19C206.08 156.16 206.29 155.02 206.29 153.78C206.29 152.54 206.08 151.38 205.65 150.37C205.22 149.36 204.62 148.49 203.86 147.78ZM201.9 155.75C201.68 156.35 201.37 156.86 200.97 157.29C200.57 157.72 200.1 158.06 199.55 158.3C199 158.54 198.39 158.67 197.73 158.67C197.07 158.67 196.46 158.55 195.91 158.3C195.36 158.05 194.89 157.72 194.5 157.29C194.11 156.86 193.8 156.35 193.58 155.75C193.36 155.15 193.25 154.49 193.25 153.78C193.25 153.07 193.36 152.46 193.57 151.87C193.79 151.28 194.09 150.77 194.49 150.35C194.89 149.93 195.36 149.59 195.91 149.35C196.46 149.11 197.07 148.98 197.73 148.98C198.39 148.98 199.01 149.1 199.56 149.35C200.12 149.59 200.59 149.93 200.98 150.35C201.37 150.77 201.68 151.28 201.9 151.87C202.12 152.46 202.23 153.1 202.23 153.78C202.23 154.46 202.12 155.15 201.9 155.75Z" fill="white"></path><path d="M228.99 156.07H228.9L225.32 145.98H219.91V161.71H223.49L223.4 150.58H223.47L227.44 161.71H230.11L234.2 150.58H234.26L234.18 161.71H237.91V145.98H232.41L228.99 156.07Z" fill="white"></path><path d="M256.9 145.98L250.3 161.71H254.43L255.58 158.62H261.67L262.89 161.71H267.11L260.58 145.98H256.89H256.9ZM256.68 155.58L258.68 150.18L260.64 155.58H256.69H256.68Z" fill="white"></path><path d="M0.690002 47.68V154.09C0.690002 159.58 6.66001 162.98 11.38 160.19L55.52 134.12L41.21 127.35L15 142.54V55.51L74.8 17.16L134.6 55.51V143.05L109.16 127.35L94.85 134.12L140.61 160.95C144.28 163.1 148.91 160.45 148.91 156.19V47.68L74.8 0.150024L0.690002 47.68Z" fill="white"></path><path d="M76.61 91.33C75.53 92.35 73.92 92.61 72.58 91.97L52.56 82.49C50.82 81.66 48.77 81.81 47.16 82.88L44.77 84.46L71.92 110.9C73.47 112.41 75.98 112.25 77.33 110.56L118.95 55.02C119.49 54.29 118.52 53.41 117.85 54.02L76.61 91.33Z" fill="white"></path></svg>