<svg width="53" height="36" viewBox="0 0 53 36" fill="none" xmlns="http://www.w3.org/2000/svg">
<path d="M1.94974 9.57977C2.06974 9.77977 2.22972 9.93977 2.42972 10.0498C2.62972 10.1698 2.84973 10.2498 3.09973 10.2998C3.34973 10.3498 3.60972 10.3798 3.86972 10.3798C4.06972 10.3798 4.28974 10.3598 4.50974 10.3298C4.72974 10.2998 4.93973 10.2398 5.12973 10.1598C5.31973 10.0798 5.4697 9.95977 5.5997 9.79977C5.7197 9.63977 5.77975 9.43976 5.77975 9.19976C5.77975 8.85976 5.64975 8.60977 5.39975 8.43977C5.14975 8.26977 4.82973 8.12976 4.43973 8.01976C4.04973 7.90976 3.63973 7.81977 3.18973 7.72977C2.73973 7.63977 2.32973 7.51976 1.93973 7.35976C1.55973 7.19976 1.23974 6.97976 0.979736 6.69976C0.729736 6.40976 0.599731 6.01977 0.599731 5.50977C0.599731 5.10977 0.68972 4.76976 0.86972 4.48976C1.04972 4.19976 1.27972 3.96976 1.55972 3.78976C1.83972 3.60976 2.15974 3.47976 2.50974 3.38976C2.85974 3.29976 3.20972 3.25977 3.55972 3.25977C4.00972 3.25977 4.41971 3.29977 4.79971 3.36977C5.17971 3.44977 5.50971 3.57976 5.79971 3.76976C6.08971 3.95976 6.31973 4.20976 6.49973 4.52976C6.66973 4.84976 6.77972 5.24977 6.80972 5.72977H5.50974C5.48974 5.47977 5.41972 5.25976 5.30972 5.09976C5.19972 4.92976 5.05973 4.79976 4.87973 4.69976C4.70973 4.59976 4.51972 4.51977 4.30972 4.47977C4.09972 4.42977 3.88972 4.40977 3.67972 4.40977C3.48972 4.40977 3.28972 4.42976 3.08972 4.45976C2.88972 4.48976 2.70971 4.53977 2.54971 4.61977C2.38971 4.69977 2.24972 4.79976 2.14972 4.92976C2.04972 5.05976 1.99973 5.21976 1.99973 5.42976C1.99973 5.64976 2.07972 5.83976 2.23972 5.98976C2.39972 6.13976 2.59972 6.25976 2.83972 6.35976C3.07972 6.45976 3.35974 6.53976 3.66974 6.59976C3.97974 6.66976 4.27972 6.73976 4.58972 6.80976C4.91972 6.87976 5.22971 6.96976 5.54971 7.06976C5.85971 7.16976 6.13973 7.30976 6.37973 7.46976C6.61973 7.63976 6.80975 7.84976 6.95975 8.09976C7.10975 8.34976 7.17972 8.66977 7.17972 9.04977C7.17972 9.52977 7.07973 9.92976 6.87973 10.2398C6.67973 10.5598 6.4197 10.8098 6.0997 10.9998C5.7797 11.1898 5.41974 11.3298 5.00974 11.3998C4.60974 11.4798 4.20972 11.5098 3.80972 11.5098C3.36972 11.5098 2.94972 11.4598 2.55972 11.3698C2.15972 11.2798 1.80974 11.1298 1.50974 10.9198C1.19974 10.7098 0.959724 10.4398 0.779724 10.0898C0.599724 9.74976 0.489727 9.32976 0.469727 8.83976H1.76971C1.77971 9.12976 1.84973 9.36976 1.96973 9.56976L1.94974 9.57977Z" fill="#323334"/>
<path d="M14.1899 10.8402C13.5999 11.2902 12.86 11.5102 11.96 11.5102C11.33 11.5102 10.7799 11.4102 10.3199 11.2002C9.85995 11.0002 9.46996 10.7102 9.14996 10.3402C8.82996 9.97023 8.59994 9.54024 8.43994 9.03024C8.27994 8.52024 8.18992 7.97024 8.16992 7.36024C8.16992 6.76024 8.25995 6.21024 8.44995 5.71024C8.63995 5.21024 8.88991 4.78024 9.21991 4.41024C9.54991 4.04024 9.93996 3.76024 10.4 3.55024C10.85 3.35024 11.35 3.24023 11.89 3.24023C12.59 3.24023 13.18 3.39024 13.64 3.68024C14.1 3.97024 14.4799 4.34024 14.7599 4.79024C15.0399 5.24024 15.23 5.73024 15.34 6.26024C15.45 6.79024 15.4899 7.29023 15.4699 7.77023H9.55994C9.54994 8.12023 9.58993 8.45024 9.67993 8.76024C9.76993 9.07024 9.91993 9.35023 10.1199 9.59023C10.3199 9.83023 10.58 10.0202 10.9 10.1602C11.22 10.3002 11.59 10.3702 12.02 10.3702C12.57 10.3702 13.0199 10.2402 13.3699 9.99023C13.7199 9.74023 13.9499 9.35024 14.0699 8.83024H15.3499C15.1799 9.72024 14.79 10.3802 14.2 10.8302L14.1899 10.8402ZM13.8799 5.77023C13.7599 5.49023 13.5999 5.26023 13.4099 5.06023C13.2199 4.86023 12.98 4.70023 12.71 4.59023C12.44 4.47023 12.1399 4.41024 11.8199 4.41024C11.4999 4.41024 11.1799 4.47023 10.9099 4.59023C10.6399 4.71023 10.41 4.87024 10.21 5.07024C10.02 5.27024 9.85994 5.51024 9.74994 5.78024C9.63994 6.05024 9.56993 6.34024 9.54993 6.64024H14.09C14.07 6.33024 13.9999 6.04023 13.8799 5.77023Z" fill="#323334"/>
<path d="M17.7993 9.57977C17.9193 9.77977 18.0794 9.93977 18.2794 10.0498C18.4794 10.1698 18.6993 10.2498 18.9493 10.2998C19.1993 10.3498 19.4593 10.3798 19.7193 10.3798C19.9193 10.3798 20.1393 10.3598 20.3593 10.3298C20.5793 10.2998 20.7893 10.2398 20.9793 10.1598C21.1693 10.0798 21.3193 9.95977 21.4493 9.79977C21.5693 9.63977 21.6293 9.43976 21.6293 9.19976C21.6293 8.85976 21.4993 8.60977 21.2493 8.43977C20.9993 8.26977 20.6793 8.12976 20.2893 8.01976C19.9093 7.90976 19.4893 7.81977 19.0393 7.72977C18.5893 7.63977 18.1793 7.51976 17.7893 7.35976C17.3993 7.19976 17.0893 6.97976 16.8293 6.69976C16.5793 6.40976 16.4493 6.01977 16.4493 5.50977C16.4493 5.10977 16.5393 4.76976 16.7193 4.48976C16.8993 4.19976 17.1293 3.96976 17.4093 3.78976C17.6893 3.60976 18.0093 3.47976 18.3593 3.38976C18.7093 3.29976 19.0593 3.25977 19.4093 3.25977C19.8593 3.25977 20.2694 3.29977 20.6494 3.36977C21.0294 3.44977 21.3594 3.57976 21.6494 3.76976C21.9394 3.95976 22.1693 4.20976 22.3493 4.52976C22.5193 4.84976 22.6293 5.24977 22.6593 5.72977H21.3593C21.3393 5.47977 21.2693 5.25976 21.1593 5.09976C21.0493 4.92976 20.9093 4.79976 20.7293 4.69976C20.5593 4.59976 20.3693 4.51977 20.1593 4.47977C19.9493 4.42977 19.7394 4.40977 19.5294 4.40977C19.3394 4.40977 19.1393 4.42976 18.9393 4.45976C18.7393 4.48976 18.5594 4.53977 18.3994 4.61977C18.2394 4.69977 18.0993 4.79976 17.9993 4.92976C17.8993 5.05976 17.8493 5.21976 17.8493 5.42976C17.8493 5.64976 17.9294 5.83976 18.0894 5.98976C18.2494 6.13976 18.4493 6.25976 18.6893 6.35976C18.9293 6.45976 19.2093 6.53976 19.5193 6.59976C19.8293 6.66976 20.1293 6.73976 20.4393 6.80976C20.7693 6.87976 21.0794 6.96976 21.3994 7.06976C21.7094 7.16976 21.9893 7.30976 22.2293 7.46976C22.4693 7.63976 22.6593 7.84976 22.8093 8.09976C22.9593 8.34976 23.0294 8.66977 23.0294 9.04977C23.0294 9.52977 22.9293 9.92976 22.7293 10.2398C22.5293 10.5598 22.2693 10.8098 21.9493 10.9998C21.6293 11.1898 21.2693 11.3298 20.8593 11.3998C20.4593 11.4798 20.0593 11.5098 19.6593 11.5098C19.2193 11.5098 18.7993 11.4598 18.4093 11.3698C18.0193 11.2798 17.6593 11.1298 17.3593 10.9198C17.0493 10.7098 16.8093 10.4398 16.6293 10.0898C16.4493 9.74976 16.3393 9.32976 16.3193 8.83976H17.6193C17.6293 9.12976 17.6993 9.36976 17.8193 9.56976L17.7993 9.57977Z" fill="#323334"/>
<path d="M31.44 11.32C31.22 11.45 30.91 11.52 30.51 11.52C30.17 11.52 29.91 11.43 29.71 11.24C29.51 11.05 29.41 10.74 29.41 10.32C29.05 10.75 28.64 11.06 28.16 11.24C27.69 11.43 27.17 11.52 26.62 11.52C26.26 11.52 25.92 11.48 25.6 11.4C25.28 11.32 25 11.19 24.77 11.02C24.54 10.85 24.35 10.62 24.21 10.34C24.07 10.06 24 9.72 24 9.32C24 8.87 24.08 8.5 24.23 8.22C24.38 7.93 24.58 7.7 24.83 7.52C25.08 7.34 25.36 7.21 25.69 7.12C26.02 7.03 26.34 6.95 26.68 6.89C27.04 6.82 27.38 6.77 27.7 6.73C28.02 6.69 28.3 6.64 28.55 6.58C28.79 6.51 28.99 6.42 29.13 6.29C29.27 6.16 29.34 5.98 29.34 5.73C29.34 5.44 29.29 5.22 29.18 5.04C29.07 4.87 28.94 4.73 28.77 4.64C28.6 4.55 28.41 4.49 28.2 4.46C27.99 4.43 27.78 4.41 27.58 4.41C27.03 4.41 26.57 4.51 26.2 4.72C25.83 4.93 25.63 5.32 25.6 5.9H24.3C24.32 5.41 24.42 5 24.61 4.66C24.79 4.32 25.04 4.05 25.34 3.84C25.65 3.63 25.99 3.48 26.39 3.39C26.78 3.3 27.2 3.25 27.65 3.25C28.01 3.25 28.36 3.28 28.71 3.33C29.06 3.38 29.38 3.48 29.67 3.64C29.96 3.8 30.18 4.02 30.36 4.3C30.53 4.58 30.62 4.96 30.62 5.41V9.47C30.62 9.78 30.64 10 30.67 10.14C30.71 10.28 30.83 10.35 31.03 10.35C31.14 10.35 31.27 10.33 31.43 10.29V11.3L31.44 11.32ZM29.34 7.27C29.18 7.39 28.96 7.48 28.7 7.54C28.43 7.6 28.16 7.64 27.87 7.68C27.58 7.72 27.29 7.76 26.99 7.8C26.69 7.85 26.43 7.92 26.2 8.02C25.97 8.12 25.77 8.27 25.63 8.45C25.48 8.64 25.41 8.89 25.41 9.22C25.41 9.43 25.45 9.61 25.54 9.76C25.63 9.91 25.74 10.03 25.88 10.12C26.02 10.21 26.18 10.28 26.36 10.32C26.54 10.36 26.74 10.38 26.94 10.38C27.37 10.38 27.73 10.32 28.04 10.21C28.35 10.09 28.6 9.95 28.79 9.77C28.98 9.59 29.13 9.4 29.22 9.19C29.31 8.98 29.36 8.79 29.36 8.6V7.28L29.34 7.27Z" fill="#323334"/>
<path d="M33.8696 3.43977V4.59976H33.8997C34.4897 3.69976 35.3396 3.25977 36.4496 3.25977C36.9396 3.25977 37.3797 3.35976 37.7797 3.56976C38.1797 3.76976 38.4596 4.11976 38.6196 4.60976C38.8796 4.17976 39.2296 3.84977 39.6696 3.61977C40.0996 3.38977 40.5796 3.26976 41.0996 3.26976C41.4996 3.26976 41.8596 3.30977 42.1796 3.39977C42.4996 3.48977 42.7796 3.61977 43.0096 3.79977C43.2396 3.97977 43.4196 4.21977 43.5396 4.50977C43.6696 4.79977 43.7296 5.14976 43.7296 5.55976V11.3498H42.4296V6.16976C42.4296 5.92976 42.4096 5.69977 42.3696 5.47977C42.3296 5.26977 42.2496 5.07976 42.1396 4.91976C42.0296 4.75976 41.8696 4.63977 41.6696 4.54977C41.4696 4.45977 41.2097 4.40977 40.8997 4.40977C40.2597 4.40977 39.7496 4.58976 39.3896 4.95976C39.0196 5.32976 38.8397 5.81976 38.8397 6.42976V11.3498H37.5396V6.16976C37.5396 5.91976 37.5196 5.67976 37.4696 5.46976C37.4196 5.25976 37.3496 5.06977 37.2296 4.90977C37.1196 4.74977 36.9697 4.62976 36.7797 4.53976C36.5897 4.44976 36.3496 4.40977 36.0496 4.40977C35.6696 4.40977 35.3497 4.48976 35.0797 4.63976C34.8097 4.78976 34.5896 4.97977 34.4196 5.18977C34.2496 5.39977 34.1296 5.62976 34.0496 5.84976C33.9696 6.07976 33.9396 6.26976 33.9396 6.41976V11.3398H32.6396V3.43977H33.8596H33.8696Z" fill="#323334"/>
<path d="M51.2798 10.8402C50.6898 11.2902 49.9497 11.5102 49.0497 11.5102C48.4197 11.5102 47.8697 11.4102 47.4097 11.2002C46.9497 11.0002 46.5597 10.7102 46.2397 10.3402C45.9197 9.97023 45.6898 9.54024 45.5298 9.03024C45.3698 8.52024 45.2798 7.97024 45.2598 7.36024C45.2598 6.76024 45.3497 6.21024 45.5397 5.71024C45.7297 5.21024 45.9798 4.78024 46.3098 4.41024C46.6398 4.04024 47.0297 3.76024 47.4897 3.55024C47.9397 3.35024 48.4397 3.24023 48.9797 3.24023C49.6797 3.24023 50.2697 3.39024 50.7297 3.68024C51.1897 3.97024 51.5697 4.34024 51.8497 4.79024C52.1297 5.24024 52.3197 5.73024 52.4297 6.26024C52.5397 6.79024 52.5798 7.29023 52.5598 7.77023H46.6498C46.6398 8.12023 46.6798 8.45024 46.7698 8.76024C46.8598 9.07024 47.0098 9.35023 47.2098 9.59023C47.4098 9.83023 47.6697 10.0202 47.9897 10.1602C48.3097 10.3002 48.6797 10.3702 49.1097 10.3702C49.6597 10.3702 50.1098 10.2402 50.4598 9.99023C50.8098 9.74023 51.0397 9.35024 51.1597 8.83024H52.4398C52.2698 9.72024 51.8797 10.3802 51.2897 10.8302L51.2798 10.8402ZM50.9697 5.77023C50.8497 5.49023 50.6898 5.26023 50.4998 5.06023C50.2998 4.86023 50.0697 4.70023 49.7997 4.59023C49.5297 4.47023 49.2297 4.41024 48.9097 4.41024C48.5897 4.41024 48.2698 4.47023 47.9998 4.59023C47.7298 4.71023 47.4997 4.87024 47.2997 5.07024C47.1097 5.27024 46.9498 5.51024 46.8398 5.78024C46.7298 6.05024 46.6598 6.34024 46.6398 6.64024H51.1797C51.1597 6.33024 51.0897 6.04023 50.9697 5.77023Z" fill="#323334"/>
<path d="M30.9002 0.160156H24.2002V1.13015H30.9002V0.160156Z" fill="#323334"/>
<path d="M52.5499 0.160156H45.71V1.13015H52.5499V0.160156Z" fill="#323334"/>
<path d="M16.4006 28.0305C16.4006 28.0905 16.4006 28.1405 16.4106 28.1905C16.4106 28.2405 16.4406 28.2805 16.4606 28.3105C16.4906 28.3405 16.5206 28.3705 16.5606 28.3905C16.6006 28.4105 16.6606 28.4205 16.7206 28.4205C16.8006 28.4205 16.8606 28.4005 16.9306 28.3505C16.9906 28.3005 17.0206 28.2205 17.0206 28.1205C17.0206 28.0605 17.0206 28.0205 17.0006 27.9805C16.9906 27.9405 16.9606 27.9005 16.9306 27.8705C16.9006 27.8405 16.8506 27.8105 16.7906 27.7805C16.7306 27.7505 16.6606 27.7305 16.5806 27.7005C16.4706 27.6605 16.3706 27.6205 16.2906 27.5805C16.2106 27.5405 16.1406 27.4805 16.0906 27.4305C16.0406 27.3705 16.0006 27.3005 15.9706 27.2305C15.9406 27.1505 15.9306 27.0605 15.9306 26.9605C15.9306 26.7205 16.0006 26.5305 16.1306 26.4105C16.2706 26.2905 16.4506 26.2305 16.6906 26.2305C16.8006 26.2305 16.9006 26.2405 17.0006 26.2705C17.1006 26.3005 17.1706 26.3305 17.2406 26.3905C17.3106 26.4405 17.3606 26.5105 17.4006 26.6005C17.4406 26.6805 17.4606 26.7905 17.4606 26.9005V26.9705H16.9806C16.9806 26.8505 16.9606 26.7605 16.9206 26.7005C16.8806 26.6405 16.8106 26.6005 16.7106 26.6005C16.6506 26.6005 16.6106 26.6005 16.5706 26.6205C16.5306 26.6405 16.5006 26.6605 16.4806 26.6805C16.4606 26.7105 16.4406 26.7405 16.4406 26.7705C16.4406 26.8005 16.4306 26.8405 16.4306 26.8805C16.4306 26.9605 16.4506 27.0205 16.4806 27.0705C16.5106 27.1205 16.5806 27.1705 16.6906 27.2105L17.0706 27.3805C17.1606 27.4205 17.2406 27.4605 17.3006 27.5105C17.3606 27.5505 17.4106 27.6005 17.4406 27.6605C17.4806 27.7105 17.5006 27.7705 17.5106 27.8305C17.5206 27.8905 17.5306 27.9605 17.5306 28.0405C17.5306 28.3005 17.4506 28.4905 17.3006 28.6105C17.1506 28.7305 16.9406 28.7905 16.6706 28.7905C16.4006 28.7905 16.1906 28.7305 16.0706 28.6105C15.9506 28.4905 15.8906 28.3105 15.8906 28.0805V27.9805H16.3906V28.0505L16.4006 28.0305Z" fill="#323334"/>
<path d="M19.5009 26.66H18.9609V28.72H18.4609V26.66H17.9209V26.25H19.5009V26.66Z" fill="#323334"/>
<path d="M20.8902 26.25C21.1002 26.25 21.2602 26.3 21.3702 26.41C21.4902 26.51 21.5402 26.67 21.5402 26.89C21.5402 27.06 21.5102 27.19 21.4402 27.3C21.3702 27.41 21.2702 27.47 21.1302 27.5C21.2502 27.53 21.3502 27.57 21.4002 27.63C21.4602 27.69 21.4902 27.79 21.5102 27.93C21.5102 27.98 21.5102 28.03 21.5202 28.08C21.5202 28.13 21.5202 28.19 21.5202 28.26C21.5202 28.39 21.5302 28.49 21.5402 28.56C21.5502 28.63 21.5802 28.68 21.6302 28.7V28.72H21.0902C21.0902 28.72 21.0502 28.65 21.0402 28.6C21.0302 28.55 21.0302 28.51 21.0302 28.46V27.99C21.0102 27.89 20.9902 27.82 20.9402 27.76C20.9002 27.7 20.8202 27.68 20.7202 27.68H20.4502V28.73H19.9502V26.26H20.8702L20.8902 26.25ZM20.6802 27.33C20.8002 27.33 20.8902 27.3 20.9602 27.25C21.0202 27.19 21.0602 27.1 21.0602 26.96C21.0602 26.73 20.9402 26.62 20.7102 26.62H20.4702V27.33H20.6802Z" fill="#323334"/>
<path d="M23.5402 26.66H22.6602V27.24H23.4902V27.65H22.6602V28.31H23.5802V28.72H22.1602V26.25H23.5402V26.66Z" fill="#323334"/>
<path d="M25.4611 26.66H24.5811V27.24H25.411V27.65H24.5811V28.31H25.501V28.72H24.0811V26.25H25.4611V26.66Z" fill="#323334"/>
<path d="M27.4511 26.66H26.9111V28.72H26.4111V26.66H25.8711V26.25H27.4511V26.66Z" fill="#323334"/>
<path d="M30.4005 26.25V26.66H29.5205V27.24H30.3505V27.65H29.5205V28.72H29.0205V26.25H30.4005Z" fill="#323334"/>
<path d="M30.8503 26.9702C30.8703 26.8102 30.9103 26.6802 30.9603 26.5602C31.0203 26.4502 31.1003 26.3602 31.2103 26.3002C31.3203 26.2402 31.4703 26.2002 31.6603 26.2002C31.8503 26.2002 32.0003 26.2302 32.1103 26.3002C32.2203 26.3602 32.3103 26.4502 32.3603 26.5602C32.4103 26.6702 32.4603 26.8102 32.4703 26.9702C32.4903 27.1302 32.5003 27.3002 32.5003 27.4902C32.5003 27.6802 32.5003 27.8502 32.4703 28.0102C32.4503 28.1702 32.4103 28.3002 32.3603 28.4102C32.3003 28.5202 32.2203 28.6102 32.1103 28.6702C32.0003 28.7302 31.8503 28.7602 31.6603 28.7602C31.4703 28.7602 31.3203 28.7302 31.2103 28.6702C31.1003 28.6102 31.0103 28.5202 30.9603 28.4102C30.9003 28.3002 30.8603 28.1602 30.8503 28.0102C30.8303 27.8502 30.8203 27.6802 30.8203 27.4902C30.8203 27.3002 30.8203 27.1302 30.8503 26.9702ZM31.3403 27.9102C31.3403 28.0302 31.3603 28.1202 31.3903 28.1902C31.4103 28.2602 31.4503 28.3202 31.4903 28.3502C31.5303 28.3802 31.5903 28.4002 31.6703 28.4002C31.7503 28.4002 31.8003 28.3802 31.8503 28.3502C31.8903 28.3202 31.9303 28.2602 31.9503 28.1902C31.9703 28.1202 31.9903 28.0202 32.0003 27.9102C32.0003 27.7902 32.0103 27.6502 32.0103 27.4902C32.0103 27.3302 32.0103 27.1802 32.0003 27.0702C32.0003 26.9502 31.9803 26.8602 31.9503 26.7902C31.9203 26.7202 31.8903 26.6602 31.8503 26.6302C31.8103 26.6002 31.7503 26.5802 31.6703 26.5802C31.5903 26.5802 31.5403 26.6002 31.4903 26.6302C31.4503 26.6602 31.4103 26.7202 31.3903 26.7902C31.3703 26.8602 31.3503 26.9602 31.3403 27.0702C31.3403 27.1902 31.3303 27.3302 31.3303 27.4902C31.3303 27.6502 31.3303 27.8002 31.3403 27.9102Z" fill="#323334"/>
<path d="M33.0407 26.9702C33.0607 26.8102 33.1008 26.6802 33.1508 26.5602C33.2008 26.4402 33.2908 26.3602 33.4008 26.3002C33.5108 26.2402 33.6607 26.2002 33.8507 26.2002C34.0407 26.2002 34.1907 26.2302 34.3007 26.3002C34.4107 26.3602 34.5007 26.4502 34.5507 26.5602C34.6107 26.6702 34.6507 26.8102 34.6607 26.9702C34.6807 27.1302 34.6907 27.3002 34.6907 27.4902C34.6907 27.6802 34.6907 27.8502 34.6607 28.0102C34.6407 28.1702 34.6007 28.3002 34.5507 28.4102C34.4907 28.5202 34.4107 28.6102 34.3007 28.6702C34.1907 28.7302 34.0407 28.7602 33.8507 28.7602C33.6607 28.7602 33.5108 28.7302 33.4008 28.6702C33.2908 28.6102 33.2008 28.5202 33.1508 28.4102C33.0908 28.3002 33.0507 28.1602 33.0407 28.0102C33.0207 27.8502 33.0107 27.6802 33.0107 27.4902C33.0107 27.3002 33.0107 27.1302 33.0407 26.9702ZM33.5208 27.9102C33.5208 28.0302 33.5407 28.1202 33.5707 28.1902C33.5907 28.2602 33.6307 28.3202 33.6707 28.3502C33.7107 28.3802 33.7707 28.4002 33.8507 28.4002C33.9307 28.4002 33.9808 28.3802 34.0308 28.3502C34.0708 28.3202 34.1107 28.2602 34.1307 28.1902C34.1507 28.1202 34.1707 28.0202 34.1807 27.9102C34.1807 27.7902 34.1907 27.6502 34.1907 27.4902C34.1907 27.3302 34.1907 27.1802 34.1807 27.0702C34.1807 26.9502 34.1607 26.8602 34.1307 26.7902C34.1007 26.7202 34.0708 26.6602 34.0308 26.6302C33.9908 26.6002 33.9307 26.5802 33.8507 26.5802C33.7707 26.5802 33.7207 26.6002 33.6707 26.6302C33.6307 26.6602 33.5907 26.7202 33.5707 26.7902C33.5507 26.8602 33.5308 26.9602 33.5208 27.0702C33.5208 27.1902 33.5107 27.3302 33.5107 27.4902C33.5107 27.6502 33.5108 27.8002 33.5208 27.9102Z" fill="#323334"/>
<path d="M36.0905 26.25C36.2605 26.25 36.4005 26.28 36.5105 26.33C36.6205 26.39 36.7005 26.47 36.7605 26.57C36.8205 26.67 36.8605 26.8 36.8805 26.95C36.9005 27.1 36.9105 27.26 36.9105 27.44C36.9105 27.66 36.9005 27.85 36.8705 28.01C36.8405 28.17 36.8005 28.3 36.7305 28.41C36.6705 28.51 36.5805 28.59 36.4705 28.64C36.3605 28.69 36.2205 28.72 36.0605 28.72H35.2705V26.25H36.0905ZM35.9905 28.36C36.0805 28.36 36.1505 28.34 36.2005 28.31C36.2505 28.28 36.3005 28.23 36.3305 28.16C36.3605 28.09 36.3805 28 36.3905 27.89C36.4005 27.78 36.4105 27.64 36.4105 27.47C36.4105 27.33 36.4105 27.21 36.4005 27.1C36.4005 26.99 36.3705 26.91 36.3405 26.84C36.3105 26.77 36.2705 26.72 36.2105 26.68C36.1505 26.64 36.0805 26.63 35.9805 26.63H35.7705V28.37H35.9905V28.36Z" fill="#323334"/>
<path d="M10.5901 33.6701C10.5601 33.6101 10.5101 33.5901 10.4301 33.5901C10.3901 33.5901 10.3501 33.6001 10.3201 33.6201C10.2901 33.6401 10.2701 33.6801 10.2501 33.7301C10.2301 33.7801 10.2201 33.8501 10.2201 33.9301C10.2201 34.0101 10.2201 34.1201 10.2201 34.2401C10.2201 34.3701 10.2201 34.4701 10.2301 34.5501C10.2301 34.6301 10.2501 34.6901 10.2701 34.7401C10.2901 34.7801 10.3101 34.8101 10.3401 34.8301C10.3701 34.8501 10.4001 34.8501 10.4401 34.8501C10.4701 34.8501 10.5001 34.8501 10.5201 34.8301C10.5401 34.8101 10.5701 34.8001 10.5901 34.7701C10.6101 34.7401 10.6201 34.7001 10.6401 34.6401C10.6501 34.5801 10.6601 34.5101 10.6601 34.4201H11.0001C11.0001 34.5101 11.0001 34.6001 10.9801 34.6801C10.9701 34.7601 10.9401 34.8401 10.9001 34.9001C10.8601 34.9601 10.8101 35.0101 10.7401 35.0501C10.6701 35.0901 10.5801 35.1001 10.4601 35.1001C10.3301 35.1001 10.2301 35.0801 10.1501 35.0401C10.0701 35.0001 10.0101 34.9401 9.97009 34.8601C9.93009 34.7801 9.90014 34.6901 9.89014 34.5801C9.88014 34.4701 9.87012 34.3501 9.87012 34.2201C9.87012 34.0901 9.87014 33.9701 9.89014 33.8601C9.90014 33.7501 9.93009 33.6601 9.97009 33.5801C10.0101 33.5001 10.0701 33.4401 10.1501 33.4001C10.2301 33.3601 10.3301 33.3301 10.4601 33.3301C10.5901 33.3301 10.6801 33.3501 10.7501 33.3901C10.8201 33.4301 10.8701 33.4801 10.9101 33.5401C10.9501 33.6001 10.9701 33.6701 10.9801 33.7401C10.9801 33.8101 10.9901 33.8801 10.9901 33.9401H10.6501C10.6501 33.8201 10.6401 33.7301 10.6101 33.6701H10.5901Z" fill="#323334"/>
<path d="M11.35 33.8601C11.36 33.7501 11.3901 33.6601 11.4301 33.5801C11.4701 33.5001 11.53 33.4401 11.61 33.4001C11.69 33.3601 11.79 33.3301 11.92 33.3301C12.05 33.3301 12.15 33.3501 12.23 33.4001C12.31 33.4401 12.36 33.5001 12.41 33.5801C12.45 33.6601 12.4801 33.7501 12.4901 33.8601C12.5001 33.9701 12.5101 34.0901 12.5101 34.2201C12.5101 34.3501 12.5101 34.4701 12.4901 34.5801C12.4801 34.6901 12.45 34.7801 12.41 34.8601C12.37 34.9401 12.31 35.0001 12.23 35.0401C12.15 35.0801 12.05 35.1001 11.92 35.1001C11.79 35.1001 11.69 35.0801 11.61 35.0401C11.53 35.0001 11.4801 34.9401 11.4301 34.8601C11.3901 34.7801 11.36 34.6901 11.35 34.5801C11.34 34.4701 11.3301 34.3501 11.3301 34.2201C11.3301 34.0901 11.33 33.9701 11.35 33.8601ZM11.6801 34.5101C11.6801 34.5901 11.7001 34.6601 11.7101 34.7101C11.7301 34.7601 11.7501 34.8001 11.7801 34.8201C11.8101 34.8401 11.8501 34.8501 11.9001 34.8501C11.9501 34.8501 11.9901 34.8401 12.0201 34.8201C12.0501 34.8001 12.0701 34.7601 12.0901 34.7101C12.1101 34.6601 12.1201 34.5901 12.1201 34.5101C12.1201 34.4301 12.1201 34.3301 12.1201 34.2201C12.1201 34.1101 12.1201 34.0101 12.1201 33.9301C12.1201 33.8501 12.1001 33.7901 12.0901 33.7301C12.0701 33.6801 12.0501 33.6401 12.0201 33.6201C11.9901 33.6001 11.9501 33.5901 11.9001 33.5901C11.8501 33.5901 11.8101 33.6001 11.7801 33.6201C11.7501 33.6401 11.7301 33.6801 11.7101 33.7301C11.6901 33.7801 11.6801 33.8501 11.6801 33.9301C11.6801 34.0101 11.6801 34.1101 11.6801 34.2201C11.6801 34.3301 11.6801 34.4301 11.6801 34.5101Z" fill="#323334"/>
<path d="M12.8701 33.3596H13.2101V34.7796H13.8201V35.0596H12.8701V33.3496V33.3596Z" fill="#323334"/>
<path d="M14.1797 33.3604H14.5197V35.0704H14.1797V33.3604Z" fill="#323334"/>
<path d="M15.4699 33.3604L15.71 34.5603L15.96 33.3604H16.4699V35.0704H16.15V33.7104L15.8499 35.0704H15.58L15.28 33.7104V35.0704H14.96V33.3604H15.4699Z" fill="#323334"/>
<path d="M17.6602 33.3604L18.1102 35.0704H17.7502L17.6702 34.7104H17.2202L17.1403 35.0704H16.7803L17.2302 33.3604H17.6602ZM17.6102 34.4303L17.4503 33.6604L17.2902 34.4303H17.6202H17.6102Z" fill="#323334"/>
<path d="M19.4806 33.8699H19.1406V33.6499H19.1706C19.2806 33.6499 19.3806 33.6299 19.4406 33.5899C19.5106 33.5499 19.5506 33.4799 19.5706 33.3799H19.8206V35.0699H19.4806V33.8799V33.8699Z" fill="#323334"/>
<path d="M20.4803 34.3201C20.5303 34.2401 20.6004 34.2001 20.7004 34.1801C20.7004 34.1801 20.6204 34.1501 20.5804 34.1201C20.5504 34.1001 20.5204 34.0701 20.5004 34.0401C20.4804 34.0101 20.4704 33.9801 20.4604 33.9401C20.4604 33.9101 20.4504 33.8701 20.4504 33.8401C20.4504 33.6701 20.4904 33.5601 20.5804 33.4801C20.6704 33.4101 20.7904 33.3701 20.9404 33.3701C21.0904 33.3701 21.2204 33.4101 21.3004 33.4801C21.3804 33.5501 21.4304 33.6701 21.4304 33.8401C21.4304 33.8701 21.4303 33.9001 21.4203 33.9401C21.4203 33.9701 21.4004 34.0101 21.3804 34.0401C21.3604 34.0701 21.3404 34.1001 21.3004 34.1201C21.2704 34.1401 21.2304 34.1601 21.1904 34.1701C21.2904 34.1901 21.3603 34.2401 21.4103 34.3201C21.4603 34.4001 21.4803 34.4901 21.4803 34.5901C21.4803 34.6401 21.4804 34.6901 21.4604 34.7501C21.4504 34.8101 21.4204 34.8601 21.3804 34.9101C21.3404 34.9601 21.2903 35.0001 21.2203 35.0401C21.1503 35.0701 21.0504 35.0901 20.9404 35.0901C20.8304 35.0901 20.7303 35.0701 20.6603 35.0401C20.5903 35.0101 20.5304 34.9601 20.5004 34.9101C20.4604 34.8601 20.4403 34.8001 20.4203 34.7501C20.4103 34.6901 20.4004 34.6401 20.4004 34.5901C20.4004 34.4801 20.4203 34.3901 20.4703 34.3201H20.4803ZM20.7604 34.7001C20.7604 34.7001 20.7803 34.7701 20.7903 34.7901C20.8103 34.8201 20.8303 34.8401 20.8503 34.8501C20.8703 34.8601 20.9104 34.8701 20.9504 34.8701C20.9904 34.8701 21.0204 34.8701 21.0504 34.8501C21.0804 34.8301 21.1004 34.8101 21.1104 34.7901C21.1304 34.7601 21.1404 34.7301 21.1404 34.7001C21.1404 34.6601 21.1404 34.6301 21.1404 34.5901C21.1404 34.5501 21.1404 34.5101 21.1404 34.4801C21.1404 34.4401 21.1204 34.4101 21.1104 34.3901C21.0904 34.3601 21.0704 34.3401 21.0504 34.3301C21.0304 34.3201 20.9904 34.3101 20.9504 34.3101C20.9104 34.3101 20.8803 34.3101 20.8503 34.3301C20.8203 34.3501 20.8003 34.3701 20.7903 34.3901C20.7703 34.4201 20.7604 34.4501 20.7604 34.4801C20.7604 34.5201 20.7604 34.5501 20.7604 34.5901C20.7604 34.6301 20.7604 34.6701 20.7604 34.7001ZM20.8204 34.0101C20.8204 34.0101 20.8904 34.0701 20.9404 34.0701C20.9904 34.0701 21.0304 34.0501 21.0604 34.0101C21.0904 33.9701 21.1104 33.9101 21.1104 33.8301C21.1104 33.6801 21.0504 33.6001 20.9404 33.6001C20.8304 33.6001 20.7704 33.6801 20.7704 33.8301C20.7704 33.9101 20.7904 33.9701 20.8204 34.0101Z" fill="#323334"/>
<path d="M22.1097 34.8004C22.1297 34.8504 22.1798 34.8804 22.2598 34.8804C22.2998 34.8804 22.3297 34.8804 22.3597 34.8604C22.3797 34.8504 22.3997 34.8304 22.4197 34.8004C22.4297 34.7804 22.4398 34.7504 22.4498 34.7104C22.4498 34.6804 22.4498 34.6404 22.4498 34.6004C22.4498 34.5604 22.4498 34.5304 22.4498 34.4904C22.4498 34.4604 22.4297 34.4304 22.4197 34.4004C22.3997 34.3704 22.3797 34.3504 22.3497 34.3404C22.3197 34.3204 22.2797 34.3204 22.2397 34.3204H22.1298V34.1004H22.2397C22.2397 34.1004 22.3098 34.1004 22.3298 34.0804C22.3498 34.0604 22.3698 34.0504 22.3898 34.0204C22.4098 33.9904 22.4197 33.9704 22.4197 33.9404C22.4197 33.9104 22.4297 33.8704 22.4297 33.8404C22.4297 33.7604 22.4198 33.7004 22.3898 33.6704C22.3598 33.6404 22.3198 33.6204 22.2698 33.6204C22.2298 33.6204 22.1997 33.6204 22.1797 33.6404C22.1597 33.6504 22.1398 33.6704 22.1298 33.7004C22.1198 33.7204 22.1097 33.7504 22.0997 33.7904C22.0997 33.8204 22.0997 33.8604 22.0997 33.9004H21.7798C21.7798 33.7304 21.8197 33.6104 21.9097 33.5204C21.9897 33.4404 22.1198 33.4004 22.2798 33.4004C22.4398 33.4004 22.5498 33.4404 22.6398 33.5104C22.7298 33.5804 22.7698 33.6904 22.7698 33.8404C22.7698 33.9404 22.7498 34.0304 22.6998 34.0904C22.6498 34.1504 22.5898 34.2004 22.5098 34.2104C22.6198 34.2304 22.6997 34.2804 22.7397 34.3504C22.7897 34.4204 22.8098 34.5104 22.8098 34.6204C22.8098 34.6804 22.8097 34.7404 22.7897 34.8004C22.7697 34.8604 22.7498 34.9204 22.7098 34.9604C22.6698 35.0104 22.6097 35.0504 22.5397 35.0804C22.4697 35.1104 22.3698 35.1304 22.2498 35.1304C22.0898 35.1304 21.9598 35.0904 21.8798 35.0004C21.7998 34.9104 21.7598 34.7804 21.7598 34.6204H22.0898C22.0898 34.7204 22.0998 34.7904 22.1298 34.8504L22.1097 34.8004Z" fill="#323334"/>
<path d="M24.5499 34.5202H23.8799V34.2402H24.5499V34.5202Z" fill="#323334"/>
<path d="M26.3997 33.6701C26.3697 33.6101 26.3197 33.5901 26.2397 33.5901C26.1997 33.5901 26.1597 33.6001 26.1297 33.6201C26.0997 33.6401 26.0797 33.6801 26.0597 33.7301C26.0397 33.7801 26.0297 33.8501 26.0297 33.9301C26.0297 34.0101 26.0297 34.1201 26.0297 34.2401C26.0297 34.3701 26.0297 34.4701 26.0397 34.5501C26.0397 34.6301 26.0597 34.6901 26.0797 34.7401C26.0997 34.7801 26.1197 34.8101 26.1497 34.8301C26.1797 34.8501 26.2097 34.8501 26.2497 34.8501C26.2797 34.8501 26.3097 34.8501 26.3297 34.8301C26.3597 34.8201 26.3797 34.8001 26.3997 34.7701C26.4197 34.7401 26.4297 34.7001 26.4497 34.6401C26.4597 34.5801 26.4697 34.5101 26.4697 34.4201H26.8097C26.8097 34.5101 26.8097 34.6001 26.7897 34.6801C26.7797 34.7601 26.7497 34.8401 26.7097 34.9001C26.6697 34.9601 26.6197 35.0101 26.5497 35.0501C26.4797 35.0901 26.3897 35.1001 26.2697 35.1001C26.1397 35.1001 26.0397 35.0801 25.9597 35.0401C25.8797 35.0001 25.8297 34.9401 25.7797 34.8601C25.7397 34.7801 25.7097 34.6901 25.6997 34.5801C25.6897 34.4701 25.6797 34.3501 25.6797 34.2201C25.6797 34.0901 25.6797 33.9701 25.6997 33.8601C25.7097 33.7501 25.7397 33.6601 25.7797 33.5801C25.8197 33.5001 25.8797 33.4401 25.9597 33.4001C26.0397 33.3601 26.1397 33.3301 26.2697 33.3301C26.3997 33.3301 26.4897 33.3501 26.5597 33.3901C26.6297 33.4301 26.6797 33.4801 26.7197 33.5401C26.7497 33.6001 26.7797 33.6701 26.7897 33.7401C26.7897 33.8101 26.7997 33.8801 26.7997 33.9401H26.4597C26.4597 33.8201 26.4497 33.7301 26.4197 33.6701H26.3997Z" fill="#323334"/>
<path d="M27.1606 33.8601C27.1706 33.7501 27.2006 33.6601 27.2406 33.5801C27.2806 33.5001 27.3406 33.4401 27.4206 33.4001C27.5006 33.3601 27.6006 33.3301 27.7306 33.3301C27.8606 33.3301 27.9606 33.3501 28.0406 33.4001C28.1206 33.4401 28.1806 33.5001 28.2206 33.5801C28.2606 33.6601 28.2906 33.7501 28.3006 33.8601C28.3106 33.9701 28.3206 34.0901 28.3206 34.2201C28.3206 34.3501 28.3206 34.4701 28.3006 34.5801C28.2806 34.6901 28.2606 34.7801 28.2206 34.8601C28.1806 34.9401 28.1206 35.0001 28.0406 35.0401C27.9606 35.0801 27.8606 35.1001 27.7306 35.1001C27.6006 35.1001 27.5006 35.0801 27.4206 35.0401C27.3406 35.0001 27.2906 34.9401 27.2406 34.8601C27.2006 34.7801 27.1706 34.6901 27.1606 34.5801C27.1506 34.4701 27.1406 34.3501 27.1406 34.2201C27.1406 34.0901 27.1406 33.9701 27.1606 33.8601ZM27.4906 34.5101C27.4906 34.5901 27.5106 34.6601 27.5206 34.7101C27.5306 34.7601 27.5606 34.8001 27.5906 34.8201C27.6206 34.8401 27.6606 34.8501 27.7106 34.8501C27.7606 34.8501 27.8006 34.8401 27.8306 34.8201C27.8606 34.8001 27.8906 34.7601 27.9006 34.7101C27.9106 34.6601 27.9306 34.5901 27.9306 34.5101C27.9306 34.4301 27.9306 34.3301 27.9306 34.2201C27.9306 34.1101 27.9306 34.0101 27.9306 33.9301C27.9306 33.8501 27.9106 33.7901 27.9006 33.7301C27.8906 33.6701 27.8606 33.6401 27.8306 33.6201C27.8006 33.6001 27.7606 33.5901 27.7106 33.5901C27.6606 33.5901 27.6206 33.6001 27.5906 33.6201C27.5606 33.6401 27.5306 33.6801 27.5206 33.7301C27.5106 33.7801 27.4906 33.8501 27.4906 33.9301C27.4906 34.0101 27.4906 34.1101 27.4906 34.2201C27.4906 34.3301 27.4906 34.4301 27.4906 34.5101Z" fill="#323334"/>
<path d="M28.6797 33.3596H29.0197V34.7796H29.6297V35.0596H28.6797V33.3496V33.3596Z" fill="#323334"/>
<path d="M30.2897 35.0702H29.9697V34.7002H30.2897V35.0702Z" fill="#323334"/>
<path d="M32.0199 33.3596C32.1599 33.3596 32.2699 33.3996 32.3499 33.4696C32.4299 33.5396 32.4698 33.6496 32.4698 33.7996C32.4698 33.9096 32.4499 34.0096 32.3999 34.0796C32.3499 34.1496 32.2799 34.1996 32.1799 34.2196C32.2699 34.2396 32.3299 34.2696 32.3699 34.3096C32.4099 34.3496 32.4299 34.4196 32.4399 34.5196C32.4399 34.5496 32.4399 34.5896 32.4399 34.6196C32.4399 34.6596 32.4399 34.6996 32.4399 34.7496C32.4399 34.8396 32.4399 34.9096 32.4499 34.9596C32.4499 35.0096 32.4799 35.0396 32.5099 35.0596L32.1399 35.0696C32.1199 35.0496 32.1099 35.0196 32.1099 34.9896C32.1099 34.9596 32.1099 34.9296 32.1099 34.8896V34.5596C32.0999 34.4896 32.0799 34.4396 32.0499 34.3996C32.0199 34.3596 31.9699 34.3396 31.8999 34.3396H31.7198V35.0596H31.3799V33.3496H32.0199V33.3596ZM31.8699 34.1096C31.9499 34.1096 32.0199 34.0896 32.0599 34.0496C32.0999 34.0096 32.1299 33.9496 32.1299 33.8496C32.1299 33.6896 32.0499 33.6096 31.8899 33.6096H31.7299V34.0996H31.8699V34.1096Z" fill="#323334"/>
<path d="M32.8696 33.8601C32.8796 33.7501 32.9096 33.6601 32.9496 33.5801C32.9896 33.5001 33.0496 33.4401 33.1296 33.4001C33.2096 33.3601 33.3096 33.3301 33.4396 33.3301C33.5696 33.3301 33.6696 33.3501 33.7496 33.4001C33.8296 33.4401 33.8796 33.5001 33.9296 33.5801C33.9696 33.6601 33.9996 33.7501 34.0096 33.8601C34.0196 33.9701 34.0297 34.0901 34.0297 34.2201C34.0297 34.3501 34.0296 34.4701 34.0096 34.5801C33.9896 34.6901 33.9696 34.7801 33.9296 34.8601C33.8896 34.9401 33.8296 35.0001 33.7496 35.0401C33.6696 35.0801 33.5696 35.1001 33.4396 35.1001C33.3096 35.1001 33.2096 35.0801 33.1296 35.0401C33.0496 35.0001 32.9996 34.9401 32.9496 34.8601C32.9096 34.7801 32.8796 34.6901 32.8696 34.5801C32.8596 34.4701 32.8496 34.3501 32.8496 34.2201C32.8496 34.0901 32.8496 33.9701 32.8696 33.8601ZM33.2097 34.5101C33.2097 34.5901 33.2296 34.6601 33.2396 34.7101C33.2596 34.7601 33.2796 34.8001 33.3096 34.8201C33.3396 34.8401 33.3796 34.8501 33.4296 34.8501C33.4796 34.8501 33.5196 34.8401 33.5496 34.8201C33.5796 34.8001 33.5996 34.7601 33.6196 34.7101C33.6396 34.6601 33.6497 34.5901 33.6497 34.5101C33.6497 34.4301 33.6497 34.3301 33.6497 34.2201C33.6497 34.1101 33.6497 34.0101 33.6497 33.9301C33.6497 33.8501 33.6296 33.7901 33.6196 33.7301C33.5996 33.6801 33.5796 33.6401 33.5496 33.6201C33.5196 33.6001 33.4796 33.5901 33.4296 33.5901C33.3796 33.5901 33.3396 33.6001 33.3096 33.6201C33.2796 33.6401 33.2596 33.6801 33.2396 33.7301C33.2196 33.7801 33.2097 33.8501 33.2097 33.9301C33.2097 34.0101 33.2097 34.1101 33.2097 34.2201C33.2097 34.3301 33.2097 34.4301 33.2097 34.5101Z" fill="#323334"/>
<path d="M34.9202 33.3604L35.1602 34.5603L35.4102 33.3604H35.9202V35.0704H35.6002V33.7104L35.3002 35.0704H35.0302L34.7302 33.7104V35.0704H34.4102V33.3604H34.9202Z" fill="#323334"/>
<path d="M37.1105 33.3604L37.5605 35.0704H37.2005L37.1205 34.7104H36.6705L36.5905 35.0704H36.2305L36.6805 33.3604H37.1105ZM37.0605 34.4303L36.9005 33.6604L36.7405 34.4303H37.0705H37.0605Z" fill="#323334"/>
<path d="M39.4203 34.5303V33.3604H39.7404V35.0704H39.3503L38.9304 33.8804V35.0704H38.6104V33.3604H39.0104L39.4304 34.5303H39.4203Z" fill="#323334"/>
<path d="M41.16 33.6404H40.79V35.0603H40.4501V33.6404H40.0801V33.3604H41.17V33.6404H41.16Z" fill="#323334"/>
<path d="M42.4405 33.6396H41.8305V34.0396H42.4005V34.3196H41.8305V34.7796H42.4605V35.0596H41.4805V33.3496H42.4305V33.6296L42.4405 33.6396Z" fill="#323334"/>
<path d="M43.1403 35.0702H42.8203V34.7002H43.1403V35.0702Z" fill="#323334"/>
<path d="M21.5497 19.2705L22.9797 21.3905L22.4897 21.5605L22.2098 21.1005L21.5898 21.3205L21.6498 21.8505L21.1597 22.0205L20.9697 19.4705L21.5497 19.2705ZM21.9897 20.7505L21.3998 19.7805L21.5397 20.9105L21.9998 20.7505H21.9897Z" fill="#323334"/>
<path d="M24.01 20.4703C24.01 20.5303 24.03 20.5803 24.05 20.6203C24.07 20.6703 24.09 20.7003 24.12 20.7303C24.15 20.7603 24.19 20.7803 24.23 20.7903C24.28 20.8003 24.33 20.8003 24.39 20.7903C24.47 20.7803 24.53 20.7403 24.58 20.6803C24.63 20.6203 24.65 20.5403 24.64 20.4403C24.64 20.3903 24.62 20.3403 24.6 20.3003C24.58 20.2603 24.55 20.2303 24.51 20.2003C24.47 20.1703 24.42 20.1503 24.36 20.1303C24.3 20.1103 24.23 20.1003 24.14 20.0803C24.02 20.0603 23.92 20.0403 23.84 20.0003C23.75 19.9703 23.68 19.9303 23.62 19.8803C23.56 19.8303 23.51 19.7703 23.47 19.7003C23.43 19.6303 23.41 19.5403 23.39 19.4403C23.35 19.2003 23.39 19.0103 23.51 18.8703C23.63 18.7303 23.8 18.6403 24.04 18.6103C24.15 18.5903 24.25 18.5903 24.35 18.6003C24.45 18.6003 24.53 18.6403 24.61 18.6803C24.69 18.7203 24.75 18.7803 24.8 18.8603C24.85 18.9403 24.88 19.0303 24.9 19.1503V19.2203L24.44 19.2903C24.42 19.1703 24.39 19.0903 24.34 19.0303C24.29 18.9703 24.22 18.9503 24.12 18.9703C24.07 18.9703 24.02 18.9903 23.99 19.0203C23.96 19.0403 23.93 19.0703 23.91 19.1003C23.89 19.1303 23.88 19.1603 23.88 19.2003C23.88 19.2403 23.88 19.2703 23.88 19.3103C23.89 19.3903 23.92 19.4503 23.96 19.4903C24 19.5403 24.08 19.5703 24.19 19.6003L24.6 19.7103C24.7 19.7403 24.78 19.7703 24.85 19.8003C24.92 19.8403 24.97 19.8803 25.01 19.9203C25.05 19.9703 25.09 20.0203 25.11 20.0803C25.13 20.1403 25.15 20.2103 25.16 20.2803C25.2 20.5403 25.16 20.7403 25.02 20.8803C24.89 21.0203 24.69 21.1103 24.42 21.1503C24.14 21.1903 23.93 21.1603 23.8 21.0603C23.66 20.9603 23.57 20.7903 23.54 20.5703L23.52 20.4703L24.01 20.3903V20.4603V20.4703Z" fill="#323334"/>
<path d="M26.0996 18.4805H26.5996L26.6396 20.9405H26.1396L26.0996 18.4805Z" fill="#323334"/>
<path d="M29.0202 18.6601L29.3402 21.2001L28.8302 21.1301L28.7902 20.6001L28.1402 20.5101L27.9602 21.0101L27.4502 20.9401L28.4202 18.5801L29.0302 18.6601H29.0202ZM28.7602 20.1801L28.6702 19.0501L28.2902 20.1201L28.7702 20.1801H28.7602Z" fill="#323334"/>
<path d="M31.4498 21.0103L31.9798 19.4003L32.4098 19.5403L31.6398 21.8903L31.0998 21.7103L31.0598 19.8803L30.5198 21.5203L30.0898 21.3803L30.8598 19.0303L31.4098 19.2103L31.4498 21.0103Z" fill="#323334"/>
</svg>
