<svg width="30" height="35" viewBox="0 0 30 35" fill="none" xmlns="http://www.w3.org/2000/svg">
<path d="M29.7903 21.2204L29.8603 21.1804V4.6104L22.5503 0.440399L22.4803 0.400391L15.3403 4.4704L8.27029 0.440399L8.20032 0.400391L0.89032 4.5704L0.820312 4.6104V21.1804L8.08029 25.3204L8.20032 25.3904L15.3403 21.3204L22.4803 25.3904L29.7903 21.2204ZM29.1403 12.9004L22.7203 16.5604V9.2404L29.1403 12.9004ZM15.5903 12.4904V5.1604L22.0203 8.8304L15.5903 12.5004V12.4904ZM22.2503 9.2404V16.5604L15.8303 12.9004L22.2503 9.2404ZM29.3903 12.4904L15.8303 4.7504L22.4903 0.950394L29.3903 4.8904V12.5004V12.4904ZM22.0103 16.9704L15.5803 20.6404V13.3104L22.0103 16.9704ZM29.3903 13.3004V20.9104L22.4903 24.8504L15.8203 21.0504L29.3903 13.3104V13.3004ZM15.1103 13.3004V20.6304L8.69031 16.9604L15.1103 13.3004ZM8.45032 16.5604V9.2404L14.8703 12.9004L8.45032 16.5604ZM7.97031 9.2404V16.5604L1.55029 12.9004L7.97031 9.2404ZM1.3103 12.4904V4.8804L8.2103 0.940399L14.8703 4.7404L1.3103 12.4804V12.4904ZM1.3103 13.3004L14.8803 21.0404L8.22031 24.8404L1.32031 20.9004V13.2904L1.3103 13.3004ZM8.6803 8.8304L15.1103 5.1604V12.4904L8.6803 8.8204V8.8304Z" fill="#323334"/>
<path d="M2.24008 27.9307H2.12009C1.41009 27.9307 0.830078 28.5007 0.830078 29.2107V29.6307C0.830078 30.4207 1.3901 30.8207 1.9101 31.1307L1.9501 31.1507C2.5401 31.4907 3.05008 31.7907 3.05008 32.6707V33.2607C3.05008 33.7007 2.69008 34.0607 2.24008 34.0607H2.12009C1.67009 34.0607 1.31009 33.7007 1.31009 33.2607V31.9507H0.830078V33.2607C0.830078 33.9707 1.41009 34.5407 2.12009 34.5407H2.24008C2.95008 34.5407 3.53009 33.9707 3.53009 33.2607V32.6707C3.53009 31.5307 2.80009 31.1007 2.22009 30.7507C1.73009 30.4607 1.30008 30.2007 1.30008 29.6307V29.2107C1.30008 28.7707 1.66008 28.4107 2.11008 28.4107H2.2301C2.6801 28.4107 3.0401 28.7707 3.0401 29.2407V29.3807H3.3801L3.52008 29.3507V29.2107C3.52008 28.5107 2.9401 27.9307 2.2301 27.9307H2.24008Z" fill="#323334"/>
<path d="M5.42072 27.9307H5.26071C4.55071 27.9307 3.9707 28.5007 3.9707 29.2107V33.2707C3.9707 33.9707 4.55071 34.5507 5.26071 34.5507H5.42072C6.13072 34.5507 6.71069 33.9807 6.71069 33.2707V29.2107C6.71069 28.5007 6.13072 27.9307 5.42072 27.9307ZM5.42072 34.0707H5.26071C4.81071 34.0707 4.45071 33.7107 4.45071 33.2707V29.2107C4.45071 28.7707 4.81071 28.4107 5.26071 28.4107H5.42072C5.87072 28.4107 6.23071 28.7707 6.23071 29.2107V33.2707C6.23071 33.7107 5.87072 34.0707 5.42072 34.0707Z" fill="#323334"/>
<path d="M9.58057 33.1305L7.95059 28.0705L7.92059 27.9805H7.70059H7.55057H7.35059V34.4705H7.83057V29.2705L9.48059 34.3805L9.51059 34.4705H9.73059H9.86057H10.0706V27.9805H9.58057V33.1305Z" fill="#323334"/>
<path d="M13.5106 27.9805H12.0605V34.4805H13.5106C14.2206 34.4805 14.8005 33.9105 14.8005 33.2005V29.2105C14.8005 28.5105 14.2406 27.9805 13.5106 27.9805ZM13.5106 33.9905H12.5406V28.4505H13.5106C13.9706 28.4505 14.3206 28.7705 14.3206 29.2005V33.1905C14.3206 33.6305 13.9606 33.9905 13.5106 33.9905Z" fill="#323334"/>
<path d="M15.4404 34.4705H17.7104V33.9905H15.9204V31.1505H17.5004V30.6705H15.9204V28.4505H17.7204V27.9805H15.4404V34.4705Z" fill="#323334"/>
<path d="M22.8903 27.9805H22.6802H22.5202H22.3102L21.1902 33.0405L20.0902 28.0905L20.0703 27.9805H19.8602H19.7003H19.5002L19.2502 34.3005L19.2402 34.4705H19.7202L19.9203 29.5005L20.9803 34.2905L21.0103 34.4005H21.3802L22.4602 29.5005L22.6502 34.3105L22.6602 34.4705H23.1403L22.8903 28.1105V27.9805Z" fill="#323334"/>
<path d="M24.3306 27.9805H23.8506V34.4805H24.3306V27.9805Z" fill="#323334"/>
<path d="M25.1201 34.4705H27.3901V33.9905H25.6001V31.1505H27.1801V30.6705H25.6001V28.4505H27.4001V27.9805H25.1201V34.4705Z" fill="#323334"/>
<path d="M28.0806 33.9905V27.9805H27.6006V34.4705H29.8806V33.9905H28.0806Z" fill="#323334"/>
</svg>
