<svg width="37" height="37" viewBox="0 0 37 37" fill="none" xmlns="http://www.w3.org/2000/svg">
<path d="M28.5703 7.32031C26.2903 8.28031 24.0903 11.0303 24.0903 11.0303C22.6303 10.7403 21.7803 12.6103 21.7803 12.6103C22.5903 12.1103 23.0103 12.6303 23.0103 12.6303L22.9403 13.1203L23.3803 13.4803L23.7803 13.3303C24.3203 13.6703 24.0203 14.5903 24.0203 14.5903C25.9303 13.1803 25.3203 12.1503 25.3203 12.1503C27.8303 9.7203 28.5703 7.33029 28.5703 7.33029V7.32031ZM26.7303 8.9303C26.9003 8.9003 27.0703 9.02032 27.1003 9.20032C27.1303 9.38032 27.0103 9.54031 26.8303 9.57031C26.6603 9.60031 26.4903 9.48029 26.4603 9.30029C26.4303 9.13029 26.5503 8.9603 26.7303 8.9303Z" fill="#323334"/>
<path d="M15.3901 14.1803L15.6401 13.8803L15.3301 14.1303L15.2801 13.3203L15.2001 14.1303L14.9001 13.8703L15.1501 14.1803L14.3301 14.2303L15.1501 14.3103L14.8901 14.6103L15.1901 14.3603L15.2501 15.1803L15.3301 14.3703L15.6301 14.6303L15.3801 14.3203L16.2001 14.2603L15.3901 14.1803Z" fill="#323334"/>
<path d="M13.0503 11.6905L13.4203 11.2704L12.9803 11.6305L12.9003 10.4805L12.7903 11.6305L12.3703 11.2605L12.7203 11.6905L11.5703 11.7704L12.7203 11.8805L12.3503 12.3105L12.7803 11.9604L12.8603 13.1104L12.9803 11.9604L13.4003 12.3304L13.0503 11.8905L14.2003 11.8105L13.0503 11.6905Z" fill="#323334"/>
<path d="M21.3297 29.8301C29.7297 27.3001 30.2097 19.8902 30.2197 19.8102V19.6101L21.4597 18.3601C22.1197 16.8601 22.4797 15.6001 22.6597 14.8001C22.7997 14.3201 22.8197 14.0502 22.8297 13.9702L23.1097 13.2701L22.5497 13.7802C22.3297 13.8802 19.2897 15.3402 16.7897 17.6902L12.8397 17.1302C12.8397 17.1302 12.8397 17.1102 12.8497 17.1002C12.8797 17.0202 12.9097 16.9501 12.9497 16.8701L13.0897 16.5901L13.2597 16.3202C13.2597 16.3202 13.2997 16.2602 13.3197 16.2202C13.3597 16.1602 13.3897 16.1101 13.4297 16.0501C13.4897 15.9701 13.5597 15.8801 13.6197 15.8001C13.8897 15.4801 14.1997 15.1801 14.5297 14.9301L14.4597 14.8401C14.0997 15.0801 13.7797 15.3702 13.4897 15.6902C13.4197 15.7602 13.3497 15.8502 13.2797 15.9402C13.2297 16.0002 13.1897 16.0501 13.1497 16.1101C13.1297 16.1401 13.1097 16.1702 13.0897 16.2002L12.8997 16.4702L12.7397 16.7502C12.6897 16.8402 12.6497 16.9301 12.6097 17.0201L12.5897 17.0702L10.0697 16.7101C10.1097 16.4801 10.1597 16.2502 10.2297 16.0102L10.3597 15.5602L10.5397 15.1201C10.5597 15.0701 10.5797 15.0101 10.5997 14.9601C10.6397 14.8701 10.6697 14.7701 10.7197 14.6801C10.7997 14.5201 10.8697 14.3802 10.9397 14.2502C11.2497 13.6902 11.6097 13.1602 12.0297 12.6902L11.9497 12.6101C11.4997 13.0801 11.0997 13.5901 10.7697 14.1501C10.6897 14.2801 10.6197 14.4201 10.5297 14.5801C10.4797 14.6701 10.4397 14.7701 10.3997 14.8701C10.3797 14.9201 10.3597 14.9702 10.3297 15.0302L10.1297 15.4802L9.97974 15.9402C9.89974 16.1902 9.83972 16.4502 9.79972 16.6702L8.24973 16.4502L8.27973 16.2101L8.46973 15.3502C8.48973 15.2302 8.53974 15.1101 8.56974 14.9901C8.58974 14.9201 8.60973 14.8602 8.62973 14.7902C8.64973 14.7202 8.66973 14.6601 8.68973 14.5901C8.72973 14.4701 8.75973 14.3501 8.80973 14.2401C9.16973 13.3701 9.50972 12.7301 9.89972 12.1801L10.2297 11.7002L10.6097 11.2502C10.6597 11.2002 10.6997 11.1401 10.7497 11.0901C10.8297 11.0001 10.9097 10.9002 10.9997 10.8102C11.1497 10.6602 11.2897 10.5201 11.4197 10.4001C11.9997 9.87015 12.6297 9.40016 13.3097 9.01016L13.2597 8.91016C12.5497 9.27016 11.8897 9.72014 11.2797 10.2401C11.1397 10.3601 10.9997 10.4902 10.8397 10.6402C10.7397 10.7302 10.6597 10.8302 10.5697 10.9202C10.5197 10.9702 10.4797 11.0201 10.4297 11.0801L10.0197 11.5302L9.65973 12.0102C9.23973 12.5602 8.87972 13.2101 8.48972 14.1101C8.43972 14.2301 8.38974 14.3602 8.34974 14.4802C8.32974 14.5502 8.30973 14.6101 8.27973 14.6801C8.25973 14.7501 8.22972 14.8102 8.20972 14.8802C8.16972 15.0002 8.11973 15.1302 8.08973 15.2602L7.87973 16.1402L7.83973 16.4001L5.97974 16.1302L5.93973 16.3401C5.92973 16.4201 4.69973 24.1802 11.8097 28.5302C11.5997 28.7102 11.4597 28.9601 11.4197 29.2401V29.3001C11.3697 29.6001 11.4497 29.8902 11.6297 30.1302C11.8097 30.3702 12.0797 30.5202 12.3797 30.5702L20.2097 31.6302C20.2597 31.6302 20.3097 31.6402 20.3597 31.6402C20.3597 31.6402 20.3797 31.6402 20.3897 31.6402C20.6297 31.6402 20.8497 31.5502 21.0397 31.4102C21.2797 31.2302 21.4297 30.9602 21.4797 30.6602V30.6002C21.5297 30.3202 21.4597 30.0402 21.2997 29.8102L21.3297 29.8301ZM19.6497 19.8401C18.6697 21.3201 17.4097 22.3901 16.5097 22.4901C16.4197 22.4901 16.3297 22.4902 16.2497 22.4802C17.0197 22.1802 18.4297 20.9402 20.1497 18.2902C21.0397 16.9102 21.7297 15.8302 22.1997 15.0602C21.8697 16.0302 21.1497 17.5701 19.6597 19.8401H19.6497ZM21.2797 17.8601C20.8197 18.9601 20.2697 20.0302 19.6397 21.0402C18.9097 22.2202 17.9197 22.8502 16.9197 22.7602C17.8797 22.4602 19.0097 21.4502 19.9497 20.0402C20.4497 19.2802 20.8997 18.5501 21.2797 17.8601ZM19.8397 18.1002C17.7997 21.2502 16.3797 22.1701 15.9097 22.2101C15.8497 22.2101 15.8197 22.2102 15.8097 22.2002C15.4497 21.8302 16.9497 20.2601 17.8397 19.3301L17.8597 19.3102C18.2097 18.9502 18.5397 18.6002 18.8097 18.2902C20.1397 16.7802 21.1197 15.7302 21.7897 15.0402C21.3197 15.8002 20.6697 16.8302 19.8397 18.1002ZM18.5397 18.0501C18.2597 18.3601 17.9197 18.7301 17.5797 19.0801C16.7397 19.9601 15.8697 20.8701 15.5397 21.5501C15.5397 20.6201 16.5297 19.3902 17.2997 18.5102C18.7997 16.8002 20.3297 15.6102 21.4597 14.8502C20.7997 15.5302 19.8297 16.5701 18.5297 18.0501H18.5397ZM18.8697 16.4202C18.2197 17.0002 17.5997 17.6201 17.0397 18.2701C16.3197 19.0901 15.3797 20.2601 15.2197 21.2701C15.0797 20.5501 15.3497 19.7402 16.0097 19.0002C16.7797 18.1202 17.7497 17.2602 18.8797 16.4202H18.8697ZM21.0797 30.5501V30.6101C21.0497 30.7901 20.9497 30.9502 20.8097 31.0702C20.6597 31.1802 20.4797 31.2301 20.2997 31.2101L12.4697 30.1501C12.0897 30.1001 11.8297 29.7501 11.8797 29.3701V29.3102C11.9297 28.9802 12.2197 28.7201 12.5497 28.7101C12.5497 28.7101 12.5597 28.7101 12.5697 28.7101C12.5997 28.7101 12.6297 28.7101 12.6597 28.7101L20.4897 29.7701C20.6697 29.7901 20.8297 29.8902 20.9397 30.0402C21.0497 30.1902 21.0997 30.3701 21.0797 30.5501ZM20.9497 29.4802C20.8197 29.4102 20.6897 29.3601 20.5497 29.3401L12.7197 28.2802C12.6697 28.2802 12.6197 28.2701 12.5697 28.2701C12.4797 28.2701 12.3797 28.2802 12.2897 28.3102C5.88974 24.5602 6.21973 18.0601 6.37973 16.6501L7.80973 16.8502L7.77973 17.0501C7.75973 17.1801 7.75973 17.3102 7.74973 17.4402C7.74973 17.5102 7.74973 17.5801 7.74973 17.6501C7.74973 17.7201 7.74973 17.7802 7.74973 17.8502C7.74973 17.9802 7.73973 18.1202 7.74973 18.2602L7.78974 18.9702C7.78974 19.0402 7.78972 19.1002 7.79972 19.1702L7.93973 20.0602C7.95973 20.1902 7.99973 20.3202 8.02973 20.4402C8.04973 20.5102 8.06972 20.5801 8.07972 20.6501C8.09972 20.7201 8.11973 20.7902 8.12973 20.8502C8.15973 20.9802 8.18972 21.1102 8.23972 21.2302C8.73972 22.7702 9.59973 24.1902 10.7197 25.3502C10.7397 25.3702 10.7697 25.4001 10.7897 25.4301C10.8297 25.4801 10.8797 25.5302 10.9297 25.5702L11.6097 26.1702C11.7097 26.2602 11.8197 26.3302 11.9297 26.4102C11.9897 26.4502 12.0497 26.4902 12.0997 26.5302C12.1597 26.5702 12.2197 26.6101 12.2697 26.6501C12.3697 26.7201 12.4797 26.8001 12.5897 26.8701C13.4397 27.3701 14.1097 27.6901 14.7797 27.9001L15.3597 28.0901L15.9497 28.2202C16.2397 28.3002 16.5497 28.3401 16.8397 28.3701C16.9397 28.3801 17.0397 28.3902 17.1397 28.4102C17.2897 28.4402 17.4397 28.4402 17.5897 28.4402C17.6397 28.4402 17.6997 28.4402 17.7497 28.4402H17.9497C18.0797 28.4502 18.2197 28.4501 18.3597 28.4601L19.0797 28.4102C19.2397 28.4002 19.3997 28.3902 19.5597 28.3502C21.1597 28.1202 22.6997 27.5201 24.0197 26.6201C24.1297 26.5401 24.2297 26.4602 24.3297 26.3802C24.3797 26.3402 24.4397 26.2902 24.4897 26.2502L24.7297 26.0602C24.8097 26.0002 24.8797 25.9401 24.9497 25.8701L25.3897 25.4502C25.5297 25.3202 25.6697 25.1802 25.7997 25.0302C26.3297 24.4402 26.7897 23.7801 27.1697 23.0801L27.0697 23.0201C26.6597 23.6901 26.1797 24.3202 25.6397 24.8902C25.5097 25.0302 25.3697 25.1602 25.2197 25.2902L24.7797 25.6801C24.7097 25.7401 24.6397 25.8001 24.5597 25.8601L24.3197 26.0302C24.2597 26.0702 24.2097 26.1101 24.1497 26.1501C24.0497 26.2201 23.9497 26.3001 23.8497 26.3701C22.5497 27.2101 21.0497 27.7602 19.5097 27.9502C16.3997 28.3402 13.1697 27.2102 11.0597 25.0002C9.97973 23.9002 9.14973 22.5501 8.65973 21.0901C8.22973 19.8101 8.08974 18.4001 8.22974 16.9001L9.73972 17.1201C9.69972 17.4001 9.66972 17.6502 9.64972 17.8802C9.64972 17.9902 9.64972 18.1002 9.64972 18.2002C9.64972 18.2602 9.64972 18.3101 9.64972 18.3701C9.64972 18.4301 9.64972 18.4802 9.64972 18.5402C9.64972 18.6502 9.64972 18.7501 9.64972 18.8601L9.71973 19.5901L9.85971 20.3102C9.87971 20.4202 9.90973 20.5201 9.93973 20.6201C9.95973 20.6701 9.96972 20.7302 9.98972 20.7902C10.0097 20.8402 10.0197 20.8902 10.0397 20.9402C10.0697 21.0402 10.0997 21.1502 10.1397 21.2602L10.3597 21.7902C10.3597 21.7902 10.3997 21.8902 10.4197 21.9402L10.7597 22.5901C10.8097 22.6901 10.8697 22.7801 10.9297 22.8601C10.9597 22.9101 10.9897 22.9502 11.0197 23.0002C11.0497 23.0502 11.0797 23.0902 11.1097 23.1402C11.1697 23.2302 11.2297 23.3202 11.2897 23.4102C12.0797 24.4602 13.1097 25.3401 14.2797 25.9301C14.3097 25.9401 14.3297 25.9602 14.3497 25.9702C14.3997 26.0002 14.4497 26.0202 14.4997 26.0402L15.1797 26.3202C15.2797 26.3602 15.3897 26.3902 15.4897 26.4202C15.5397 26.4402 15.5997 26.4502 15.6497 26.4702C15.6997 26.4902 15.7597 26.5001 15.8097 26.5201C15.9097 26.5501 16.0197 26.5801 16.1197 26.6101C16.9097 26.7701 17.5097 26.8401 18.0797 26.8301H18.5797L19.0597 26.7701C19.3097 26.7501 19.5497 26.7001 19.7897 26.6501C19.8697 26.6301 19.9497 26.6202 20.0297 26.6002C20.1497 26.5802 20.2697 26.5402 20.3797 26.5102C20.4197 26.5002 20.4597 26.4802 20.4997 26.4702L20.6497 26.4202C20.7597 26.3902 20.8597 26.3602 20.9697 26.3202L21.5097 26.0901C21.6297 26.0401 21.7497 25.9902 21.8697 25.9202C23.0397 25.3202 24.0697 24.4602 24.8497 23.4202C24.9097 23.3302 24.9697 23.2401 25.0297 23.1501C25.0597 23.1001 25.0897 23.0602 25.1197 23.0102L25.2497 22.8001C25.2897 22.7301 25.3397 22.6601 25.3797 22.5901L25.5997 22.1602C25.6697 22.0202 25.7497 21.8702 25.8097 21.7202C26.0397 21.1902 26.2097 20.6302 26.3197 20.0602C26.2797 20.0502 26.2397 20.0302 26.1997 20.0302C26.0597 20.5802 25.8697 21.1202 25.6297 21.6402C25.5697 21.7802 25.4897 21.9102 25.4197 22.0402L25.1697 22.4802C25.1397 22.5402 25.0997 22.6002 25.0397 22.6702L24.8997 22.8701C24.8997 22.8701 24.8297 22.9602 24.7997 23.0102C24.7397 23.0902 24.6797 23.1802 24.6197 23.2602C23.8397 24.2502 22.8297 25.0601 21.6897 25.6101C19.3997 26.7201 16.6197 26.6902 14.4297 25.5402C13.3097 24.9802 12.3197 24.1502 11.5697 23.1602C10.8497 22.2102 10.3297 21.0301 10.0697 19.7401L10.0197 19.5102L9.93973 18.8001C9.92973 18.7001 9.92972 18.6002 9.92972 18.5002C9.92972 18.4402 9.92972 18.3801 9.92972 18.3301C9.92972 18.2701 9.92972 18.2202 9.92972 18.1602C9.92972 18.0602 9.92972 17.9601 9.92972 17.8601C9.94972 17.6401 9.96974 17.4001 10.0097 17.1201L12.4197 17.4601C12.3597 17.6201 12.3097 17.7801 12.2597 17.9301C12.2397 18.0001 12.2297 18.0702 12.2097 18.1402C12.2097 18.1802 12.1997 18.2102 12.1897 18.2502C12.1897 18.2902 12.1797 18.3201 12.1697 18.3601C12.1497 18.4301 12.1397 18.5002 12.1297 18.5702L12.0797 19.0602V19.5501C12.0797 19.6201 12.0797 19.7001 12.0797 19.7701C12.0797 19.8101 12.0797 19.8402 12.0797 19.8802C12.0797 19.9102 12.0797 19.9501 12.0797 19.9901C12.0797 20.0601 12.0897 20.1401 12.1097 20.2101L12.1797 20.5901C12.1797 20.5901 12.1897 20.6602 12.1997 20.6902L12.3397 21.1602C12.3597 21.2302 12.3897 21.2901 12.4197 21.3601C12.4297 21.4001 12.4497 21.4302 12.4597 21.4702C12.4697 21.5002 12.4897 21.5401 12.4997 21.5801C12.5297 21.6501 12.5497 21.7102 12.5797 21.7802C12.9597 22.5702 13.5197 23.2802 14.1997 23.8202C14.2097 23.8302 14.2297 23.8402 14.2397 23.8502C14.2697 23.8702 14.2997 23.9002 14.3297 23.9202L14.7397 24.1902C14.7997 24.2302 14.8697 24.2601 14.9297 24.3001C14.9597 24.3201 14.9997 24.3302 15.0297 24.3502C15.0597 24.3702 15.0997 24.3901 15.1297 24.4001C15.1897 24.4301 15.2597 24.4702 15.3197 24.5002C15.8097 24.7102 16.1897 24.8301 16.5697 24.9001L16.8897 24.9601L17.2097 24.9901C17.3697 25.0101 17.5397 25.0102 17.6997 25.0102C17.7497 25.0102 17.8097 25.0102 17.8597 25.0102C17.9397 25.0102 18.0297 25.0102 18.1097 25.0002C18.1397 25.0002 18.1697 25.0002 18.1997 25.0002H18.2997C18.3697 24.9802 18.4497 24.9802 18.5297 24.9702L18.9097 24.8902C18.9897 24.8702 19.0797 24.8601 19.1597 24.8301C19.9997 24.5901 20.7897 24.1601 21.4397 23.5901C21.4897 23.5401 21.5397 23.4902 21.5897 23.4402C21.6197 23.4102 21.6397 23.3901 21.6697 23.3601L21.7797 23.2401C21.7797 23.2401 21.8597 23.1601 21.8897 23.1201L22.0897 22.8701C22.1597 22.7901 22.2197 22.7001 22.2797 22.6101C22.5197 22.2601 22.7297 21.8701 22.8797 21.4601L22.7797 21.4202C22.6097 21.8102 22.3997 22.1702 22.1497 22.5102C22.0897 22.5902 22.0197 22.6702 21.9497 22.7502L21.7397 22.9901C21.7397 22.9901 21.6697 23.0602 21.6297 23.1002L21.5097 23.2101C21.5097 23.2101 21.4497 23.2602 21.4297 23.2902C21.3797 23.3402 21.3297 23.3801 21.2797 23.4301C20.6497 23.9701 19.8797 24.3602 19.0797 24.5702C17.4497 24.9902 15.6497 24.6101 14.3797 23.5801C13.7297 23.0701 13.1897 22.4102 12.8297 21.6602C12.4897 20.9502 12.2997 20.1201 12.2997 19.2401V19.0901L12.3397 18.6201C12.3397 18.5601 12.3597 18.4901 12.3697 18.4301C12.3697 18.3901 12.3797 18.3602 12.3897 18.3202C12.3897 18.2802 12.3997 18.2401 12.4097 18.2101C12.4197 18.1501 12.4297 18.0801 12.4497 18.0201C12.4897 17.8501 12.5497 17.6901 12.5997 17.5201L16.3197 18.0501C16.0597 18.3101 15.8497 18.5301 15.6697 18.7401C14.8197 19.7001 14.5497 20.7901 14.9197 21.7101C15.2297 22.4901 15.9497 23.0101 16.8097 23.0901C16.9997 23.1101 17.1897 23.1001 17.3797 23.0801C18.3197 22.9501 19.2097 22.2801 19.8797 21.2101C20.3597 20.4301 20.8097 19.6102 21.2097 18.7502L29.6997 19.9601C29.6397 20.4801 29.3897 22.0302 28.4497 23.7502C27.3997 25.6702 25.2397 28.2201 20.8997 29.4601L20.9497 29.4802Z" fill="#323334"/>
<path d="M36 18.4901C36 18.3701 36 18.2501 35.99 18.1301L35.96 17.0901L35.82 16.0701C35.67 14.8901 35.34 13.6501 34.75 12.0701C34.67 11.8601 34.57 11.6502 34.48 11.4502C34.43 11.3402 34.38 11.2301 34.32 11.1201C34.27 11.0101 34.2201 10.9001 34.1701 10.7901C34.0801 10.5901 33.98 10.3801 33.87 10.1901L33.07 8.85015L32.15 7.59014C32.01 7.41014 31.86 7.24015 31.71 7.07015C31.63 6.98015 31.55 6.89015 31.47 6.79015C31.39 6.71015 31.32 6.62014 31.24 6.53014C31.09 6.36014 30.93 6.18013 30.76 6.02013L29.99 5.32015C29.99 5.32015 29.9 5.24015 29.85 5.20015C29.77 5.12015 29.69 5.05014 29.6 4.97014L28.35 4.03014C28.17 3.90014 27.97 3.78015 27.78 3.67015C27.67 3.61015 27.57 3.54015 27.46 3.48015C27.35 3.42015 27.25 3.35015 27.15 3.29015C26.96 3.17015 26.77 3.05015 26.56 2.95015C24.09 1.65015 21.32 0.930148 18.55 0.850148C18.49 0.850148 18.43 0.850148 18.37 0.850148C18.26 0.850148 18.14 0.840148 18.03 0.850148L16.47 0.930134C16.24 0.940134 16.02 0.98013 15.8 1.02013C15.68 1.04013 15.56 1.06013 15.44 1.08013C15.32 1.10013 15.2 1.12016 15.08 1.14016C14.86 1.17016 14.63 1.21014 14.41 1.25014C12.76 1.65014 11.55 2.07015 10.47 2.60015L9.53004 3.06014L8.64005 3.60015C8.18005 3.85015 7.76004 4.18013 7.35004 4.49013C7.21004 4.60013 7.07003 4.70013 6.93003 4.80013C6.72003 4.95013 6.52003 5.12013 6.34003 5.30013C6.27003 5.36013 6.21005 5.42013 6.14005 5.49013C6.06005 5.57013 5.97005 5.64014 5.89005 5.72014C5.72005 5.88014 5.55004 6.03015 5.38004 6.20015L4.69004 6.98015C4.64004 7.03015 4.60002 7.08015 4.55002 7.13015C4.37002 7.33015 4.18003 7.55014 4.02003 7.78014C2.32003 9.99014 1.14004 12.5801 0.600043 15.2701C0.560043 15.4901 0.530036 15.7201 0.500036 15.9401C0.480036 16.0601 0.470049 16.1801 0.450049 16.3001L0.380041 16.8301C0.360041 16.9901 0.330023 17.1601 0.330023 17.3301L0.300024 18.3701C0.290024 18.7001 0.270024 19.0502 0.300024 19.3902C0.350024 20.7602 0.570049 22.1202 0.950049 23.4502L1.06003 23.4202C0.750034 22.1002 0.590023 20.7401 0.580023 19.3801C0.580023 19.0501 0.600032 18.7102 0.620032 18.3902L0.690039 17.3601C0.690039 17.2001 0.720036 17.0401 0.750036 16.8801L0.840033 16.3601C0.860033 16.2401 0.88003 16.1201 0.90003 16.0001C0.93003 15.7901 0.970025 15.5701 1.02003 15.3601C1.61003 12.7501 2.82004 10.2601 4.50004 8.16015C7.89004 3.93015 13.26 1.43016 18.54 1.64016C21.21 1.70016 23.87 2.37015 26.24 3.60015C28.5 4.76015 30.58 6.56014 32.27 8.81014L32.57 9.21013L33.37 10.5001C33.48 10.6801 33.5801 10.8801 33.6701 11.0701C33.7201 11.1801 33.77 11.2902 33.83 11.3902C33.88 11.5002 33.94 11.6101 33.99 11.7101C34.09 11.9001 34.19 12.1001 34.26 12.2901C34.86 13.8101 35.2101 15.0001 35.3901 16.1601L35.56 17.1601L35.63 18.1702C35.63 18.2902 35.65 18.4101 35.66 18.5301C35.68 18.7401 35.69 18.9601 35.69 19.1801C35.69 19.5601 35.6901 19.8901 35.6701 20.1901C35.6001 21.5501 35.37 22.9002 35.01 24.2002L35.12 24.2302C35.56 22.9302 35.84 21.5801 35.96 20.2101C35.99 19.8901 36.01 19.5601 36.02 19.1801C36.03 18.9601 36.02 18.7302 36.02 18.5102L36 18.4901Z" fill="#323334"/>
<path d="M3.72025 26.65L3.23026 25.65C3.18026 25.54 3.16025 25.46 3.19025 25.39C3.21025 25.32 3.28025 25.26 3.38025 25.21C3.49025 25.16 3.57026 25.15 3.64026 25.17C3.71026 25.19 3.77025 25.26 3.82025 25.36L4.65024 27.06L5.05023 26.86L4.22025 25.16C4.11025 24.93 3.96025 24.79 3.79025 24.73C3.61025 24.67 3.41024 24.69 3.18024 24.81C2.95024 24.92 2.81024 25.07 2.75024 25.24C2.69024 25.41 2.71025 25.62 2.82025 25.85L3.31024 26.85C3.36024 26.96 3.38025 27.04 3.35025 27.11C3.33025 27.18 3.26025 27.24 3.16025 27.29C3.05025 27.34 2.97024 27.36 2.90024 27.33C2.83024 27.31 2.77025 27.24 2.72025 27.14L1.89026 25.44L1.49023 25.64L2.32025 27.34C2.47025 27.65 2.69026 27.81 2.95026 27.81C3.08026 27.81 3.22023 27.77 3.36023 27.7C3.59023 27.59 3.73025 27.44 3.79025 27.27C3.85025 27.09 3.83025 26.89 3.72025 26.66V26.65Z" fill="#323334"/>
<path d="M7.19998 29.9006C7.20998 29.7106 7.13997 29.5206 6.96997 29.3306L5.73996 27.8906L3.70996 29.6306L3.99997 29.9706L4.84998 29.2406L5.78998 30.3406C5.94998 30.5306 6.12998 30.6406 6.31998 30.6506C6.32998 30.6506 6.34995 30.6506 6.35995 30.6506C6.52995 30.6506 6.70998 30.5706 6.88998 30.4206C7.07998 30.2606 7.18998 30.0806 7.19998 29.8906V29.9006ZM6.59998 30.0906C6.50998 30.1706 6.42995 30.2006 6.35995 30.2006C6.28995 30.2006 6.20997 30.1506 6.12997 30.0606L5.18997 28.9606L5.69998 28.5306L6.63998 29.6306C6.78998 29.8106 6.77998 29.9506 6.59998 30.1006V30.0906Z" fill="#323334"/>
<path d="M9.96011 31.8305L9.04013 31.1905C8.62013 30.9005 8.24013 30.9705 7.95013 31.3905L6.87012 32.9505L7.24011 33.2105L7.81012 32.3905L9.27011 33.4105L8.70013 34.2305L9.07013 34.4905L10.1501 32.9305C10.2901 32.7205 10.3501 32.5205 10.3201 32.3405C10.2901 32.1605 10.1601 31.9905 9.96011 31.8405V31.8305ZM9.78012 32.6605L9.53012 33.0305L8.07013 32.0105L8.32013 31.6405C8.39013 31.5405 8.46012 31.4905 8.53012 31.4805C8.60012 31.4705 8.69012 31.4905 8.78012 31.5605L9.70013 32.2005C9.89013 32.3405 9.92012 32.4705 9.78012 32.6605Z" fill="#323334"/>
<path d="M11.8105 33.0998C11.6405 33.1798 11.5105 33.3398 11.4205 33.5798L11.0405 34.6298C10.9505 34.8698 10.9505 35.0698 11.0305 35.2398C11.1105 35.4098 11.2705 35.5398 11.5105 35.6298L13.2905 36.2798L13.4405 35.8598L11.6605 35.2098C11.4405 35.1298 11.3805 34.9998 11.4605 34.7798L11.8405 33.7298C11.9205 33.5098 12.0505 33.4498 12.2705 33.5298L14.0505 34.1798L14.2005 33.7598L12.4205 33.1098C12.1805 33.0198 11.9805 33.0198 11.8105 33.0998Z" fill="#323334"/>
<path d="M15.1602 36.7003L17.8301 36.9403L17.8701 36.5003L15.6501 36.2903L15.7101 35.6303L17.9301 35.8303L17.9702 35.3903L15.7502 35.1803L15.8202 34.5203L18.0402 34.7203L18.0801 34.2803L15.4102 34.0303L15.1602 36.7003Z" fill="#323334"/>
<path d="M24.4095 34.1606L22.2795 34.8406L22.0795 34.2006L24.1996 33.5306L24.0695 33.1006L21.5195 33.9106L22.3295 36.4606L22.7495 36.3306L22.4196 35.2706L24.5396 34.5906L24.4095 34.1606Z" fill="#323334"/>
<path d="M27.86 31.8098C27.59 31.3798 27.21 31.2898 26.78 31.5698L25.84 32.1698C25.63 32.3098 25.5 32.4698 25.46 32.6498C25.42 32.8298 25.46 33.0298 25.6 33.2498L26.2 34.1898C26.37 34.4598 26.57 34.5898 26.81 34.5898C26.96 34.5898 27.11 34.5398 27.28 34.4298L28.22 33.8297C28.43 33.6897 28.56 33.5298 28.6 33.3498C28.64 33.1698 28.6 32.9698 28.46 32.7498L27.86 31.8098ZM28.15 33.2498C28.13 33.3198 28.08 33.3898 27.98 33.4498L27.04 34.0497C26.84 34.1697 26.71 34.1398 26.58 33.9498L25.98 33.0098C25.86 32.8098 25.89 32.6797 26.08 32.5497L27.02 31.9498C27.1 31.8998 27.17 31.8698 27.23 31.8698C27.25 31.8698 27.26 31.8698 27.28 31.8698C27.35 31.8898 27.42 31.9398 27.48 32.0398L28.08 32.9798C28.14 33.0798 28.17 33.1697 28.15 33.2397V33.2498Z" fill="#323334"/>
<path d="M30.7899 28.9298C30.4199 28.5798 30.0299 28.5899 29.6899 28.9699L28.9298 29.7799C28.5798 30.1499 28.5899 30.5399 28.9699 30.8799L29.7799 31.6399C29.9599 31.8099 30.1399 31.8899 30.3199 31.8899C30.5099 31.8899 30.6999 31.7899 30.8799 31.5999L31.6399 30.7899C31.9899 30.4199 31.9799 30.0299 31.5999 29.6899L30.7899 28.9298ZM31.3199 30.4898L30.5599 31.2998C30.4799 31.3898 30.3998 31.4298 30.3298 31.4298C30.2598 31.4298 30.1799 31.3899 30.0899 31.3099L29.2799 30.5498C29.1099 30.3898 29.0999 30.2498 29.2599 30.0798L30.0198 29.2698C30.0998 29.1798 30.1799 29.1399 30.2599 29.1399C30.3299 29.1399 30.4098 29.1799 30.4898 29.2599L31.2998 30.0198C31.4698 30.1798 31.4799 30.3198 31.3199 30.4898Z" fill="#323334"/>
<path d="M33.8902 25.9403L32.9102 25.4103C32.6902 25.2903 32.4802 25.2602 32.3002 25.3102C32.1202 25.3602 31.9702 25.5003 31.8502 25.7303L30.9502 27.4002L33.3102 28.6703L34.2102 27.0003C34.4502 26.5503 34.3402 26.1803 33.8902 25.9403ZM33.8102 26.7903L33.1202 28.0602L31.5502 27.2102L32.2402 25.9403C32.3002 25.8403 32.3602 25.7703 32.4302 25.7503C32.5002 25.7303 32.5902 25.7502 32.6902 25.8002L33.6702 26.3302C33.7702 26.3902 33.8402 26.4502 33.8602 26.5202C33.8802 26.5902 33.8602 26.6803 33.8102 26.7803V26.7903Z" fill="#323334"/>
<path d="M13.2695 8.21036V8.23038C13.5995 8.36038 13.9395 8.40036 14.2995 8.34036C14.1595 8.47036 14.0596 8.62035 13.9796 8.80035C14.1796 8.71035 14.3395 8.59036 14.4695 8.43036C14.4695 8.57036 14.4496 8.73035 14.4496 8.86035C14.4796 8.86035 14.5196 8.87036 14.5396 8.87036C14.5396 8.73036 14.5595 8.58037 14.5595 8.44037C14.6995 8.60037 14.8496 8.71035 15.0396 8.80035C14.9596 8.62035 14.8496 8.47035 14.6996 8.33035C15.0696 8.40035 15.4096 8.35037 15.7596 8.22037C15.4996 8.12037 15.2395 8.07037 14.9695 8.07037C15.2595 7.81037 15.4695 7.51037 15.6195 7.16037C15.2895 7.30037 14.9995 7.50036 14.7395 7.77036C14.7695 7.27036 14.6896 6.81035 14.5096 6.36035C14.3296 6.81035 14.2495 7.27036 14.2795 7.77036C14.0195 7.50036 13.7395 7.30037 13.3995 7.16037C13.5495 7.51037 13.7596 7.81037 14.0396 8.07037C13.9096 8.08037 13.7795 8.09035 13.6495 8.11035C13.5195 8.13035 13.3995 8.17038 13.2695 8.20038V8.21036Z" fill="#323334"/>
</svg>
