<svg width="55" height="25" viewBox="0 0 55 25" fill="none" xmlns="http://www.w3.org/2000/svg">
<path d="M52.7704 2.95996C53.0304 2.95996 53.2905 3.02997 53.5305 3.15997C53.7705 3.28997 53.9605 3.47998 54.1005 3.72998C54.2405 3.97998 54.3105 4.23998 54.3105 4.50998C54.3105 4.77998 54.2404 5.03997 54.1104 5.27997C53.9704 5.51997 53.7805 5.71998 53.5405 5.84998C53.3005 5.98998 53.0404 6.05997 52.7704 6.05997C52.5004 6.05997 52.2405 5.98998 52.0005 5.84998C51.7605 5.70998 51.5705 5.51997 51.4305 5.27997C51.2905 5.03997 51.2305 4.77998 51.2305 4.50998C51.2305 4.23998 51.3005 3.97998 51.4405 3.72998C51.5805 3.47998 51.7705 3.28997 52.0105 3.15997C52.2505 3.02997 52.5104 2.95996 52.7704 2.95996ZM52.7704 3.25998C52.5604 3.25998 52.3505 3.30998 52.1605 3.41998C51.9705 3.52998 51.8105 3.67997 51.7005 3.87997C51.5905 4.07997 51.5305 4.28998 51.5305 4.50998C51.5305 4.72998 51.5805 4.92997 51.6905 5.12997C51.8005 5.32997 51.9505 5.47997 52.1505 5.58997C52.3505 5.69997 52.5504 5.75998 52.7704 5.75998C52.9904 5.75998 53.1905 5.69997 53.3905 5.58997C53.5905 5.47997 53.7405 5.31997 53.8505 5.12997C53.9605 4.92997 54.0204 4.72998 54.0204 4.50998C54.0204 4.28998 53.9605 4.07997 53.8505 3.87997C53.7405 3.67997 53.5805 3.52998 53.3905 3.41998C53.1905 3.30998 52.9905 3.25998 52.7805 3.25998H52.7704ZM52.0705 5.33997V3.68997H52.4005C52.7105 3.68997 52.8905 3.68997 52.9205 3.68997C53.0305 3.68997 53.1205 3.71998 53.1805 3.75998C53.2405 3.78998 53.2904 3.84998 53.3304 3.91998C53.3704 3.98998 53.3905 4.06997 53.3905 4.15997C53.3905 4.27997 53.3504 4.37997 53.2704 4.46997C53.1904 4.54997 53.0805 4.60997 52.9405 4.62997C52.9905 4.64997 53.0305 4.66997 53.0605 4.68997C53.0905 4.70997 53.1205 4.74998 53.1705 4.81998C53.1805 4.83998 53.2205 4.89996 53.2905 5.01996L53.4805 5.34998H53.0705L52.9305 5.07996C52.8405 4.89996 52.7605 4.78996 52.7005 4.73996C52.6405 4.68996 52.5605 4.66998 52.4705 4.66998H52.3805V5.34998H52.0504L52.0705 5.33997ZM52.4105 4.39996H52.5504C52.7404 4.39996 52.8605 4.39997 52.9105 4.37997C52.9605 4.35997 52.9904 4.33996 53.0204 4.29996C53.0504 4.25996 53.0605 4.21998 53.0605 4.16998C53.0605 4.11998 53.0504 4.07996 53.0204 4.04996C52.9904 4.00996 52.9605 3.98997 52.9105 3.96997C52.8605 3.94997 52.7404 3.94998 52.5504 3.94998H52.4105V4.39996Z" fill="#323334"/>
<path d="M7.54013 24.1798C5.55013 24.1798 3.62013 23.3399 2.23013 21.8899C0.840128 20.4199 0.120118 18.4699 0.220118 16.4099C0.260118 15.5499 0.470103 14.6798 0.830103 13.8398C1.2501 12.8698 1.2501 11.8999 0.830103 10.8899C-0.379897 8.03986 0.210122 4.90984 2.38012 2.73984C3.76012 1.35984 5.59011 0.589844 7.52011 0.589844C8.53011 0.589844 9.51011 0.79986 10.4601 1.19986C11.4901 1.63986 12.4601 1.63986 13.4901 1.19986C14.4201 0.79986 15.4001 0.599854 16.3901 0.599854C18.3201 0.599854 20.1401 1.35986 21.5301 2.72986C23.6701 4.84986 24.3001 8.01986 23.1401 10.7899C22.6801 11.8799 22.6801 12.8898 23.1401 13.9698C24.0901 16.2298 23.8601 18.7998 22.5101 20.8398C21.1401 22.9198 18.8001 24.1699 16.2601 24.1699C16.2301 24.1699 16.1701 24.1699 16.1101 24.1699C15.2601 24.1699 14.3501 23.9599 13.4601 23.5699C12.4501 23.1299 11.5001 23.1298 10.4301 23.5798C9.50011 23.9698 8.52013 24.1699 7.54013 24.1699V24.1798ZM7.52011 2.13986C5.99011 2.13986 4.55012 2.73983 3.47012 3.82983C1.76012 5.54983 1.29012 8.01985 2.25012 10.2798C2.85012 11.6798 2.85012 13.0899 2.25012 14.4499C1.96012 15.1199 1.80011 15.7898 1.77011 16.4698C1.69011 18.1098 2.2501 19.6498 3.3601 20.8098C4.4501 21.9598 5.9801 22.6198 7.5501 22.6198C8.3301 22.6198 9.10012 22.4598 9.85012 22.1498C11.2901 21.5398 12.7101 21.5398 14.0901 22.1498C14.8301 22.4798 15.5801 22.6398 16.2501 22.6098C18.3301 22.6098 20.1301 21.6498 21.2401 19.9698C22.3201 18.3398 22.5001 16.3698 21.7301 14.5598C21.1201 13.1098 21.1201 11.6399 21.7301 10.1699C22.6501 7.98986 22.1501 5.48984 20.4601 3.80984C19.3701 2.71984 17.9201 2.11984 16.4101 2.11984C15.6201 2.11984 14.8501 2.27985 14.1101 2.59985C12.7001 3.19985 11.2701 3.20983 9.87011 2.60983C9.12011 2.28983 8.33012 2.12985 7.53012 2.12985L7.52011 2.13986Z" fill="#323334"/>
<path d="M10.8905 11.5594C11.1405 11.3994 11.1605 11.1194 11.1605 11.1194L12.0905 5.93945L12.7605 11.2195C12.7605 11.2195 12.7805 11.4095 12.9405 11.5695C13.1305 11.7595 13.4105 11.7195 13.4105 11.7195L18.6605 10.9995L13.8905 13.2694C13.8905 13.2694 13.6405 13.3995 13.5805 13.6395C13.5205 13.8795 13.6205 14.0894 13.6205 14.0894L15.9005 18.8394L12.3005 14.9995C12.3005 14.9995 12.1405 14.7994 11.8805 14.7794C11.6405 14.7594 11.4305 14.9495 11.4305 14.9495L7.62051 18.6194L10.1505 13.9795C10.1505 13.9795 10.3005 13.7594 10.1905 13.4894C10.0905 13.2494 9.90051 13.1494 9.90051 13.1494L5.27051 10.6494L10.3805 11.6194C10.3805 11.6194 10.6305 11.7194 10.8905 11.5594Z" fill="#323334"/>
<path d="M26.32 10.3302C26.85 10.6402 27.65 10.9102 28.49 10.9102C29.54 10.9102 30.13 10.4102 30.13 9.68018C30.13 9.00018 29.68 8.60018 28.53 8.18018C27.05 7.64018 26.1 6.85017 26.1 5.55017C26.1 4.08017 27.33 2.9502 29.28 2.9502C30.25 2.9502 30.97 3.16019 31.44 3.41019L31.04 4.74017C30.72 4.57017 30.09 4.31018 29.25 4.31018C28.21 4.31018 27.76 4.8702 27.76 5.3902C27.76 6.0902 28.28 6.41019 29.48 6.88019C31.04 7.47019 31.8 8.26018 31.8 9.56018C31.8 11.0102 30.71 12.2602 28.39 12.2602C27.44 12.2602 26.46 11.9902 25.96 11.7002L26.32 10.3302Z" fill="#323334"/>
<path d="M35.0502 3.74023V5.60025H36.6102V6.83023H35.0502V9.71024C35.0502 10.5002 35.2602 10.9203 35.8902 10.9203C36.1702 10.9203 36.3802 10.8802 36.5302 10.8402L36.5602 12.1003C36.3202 12.1903 35.8902 12.2603 35.3702 12.2603C34.7702 12.2603 34.2602 12.0603 33.9602 11.7303C33.6102 11.3503 33.4502 10.7602 33.4502 9.91025V6.84024V5.61023V4.14026L35.0502 3.75024V3.74023Z" fill="#323334"/>
<path d="M41.4996 12.13L41.3896 11.41H41.3496C40.9496 11.92 40.2696 12.28 39.4296 12.28C38.1196 12.28 37.3896 11.33 37.3896 10.34C37.3896 8.68997 38.8396 7.85997 41.2496 7.87997V7.76996C41.2496 7.33996 41.0796 6.62997 39.9296 6.62997C39.2896 6.62997 38.6196 6.82995 38.1796 7.10995L37.8596 6.03998C38.3396 5.73998 39.1796 5.45996 40.2096 5.45996C42.2896 5.45996 42.8896 6.78996 42.8896 8.20996V10.57C42.8896 11.16 42.9196 11.74 42.9796 12.14H41.4996V12.13ZM41.2896 8.93997C40.1296 8.90997 39.0196 9.16997 39.0196 10.16C39.0196 10.8 39.4296 11.1 39.9496 11.1C40.5996 11.1 41.0796 10.67 41.2296 10.2C41.2696 10.08 41.2796 9.94997 41.2796 9.83997V8.93997H41.2896Z" fill="#323334"/>
<path d="M44.6301 7.70972C44.6301 6.82972 44.6201 6.19971 44.5801 5.60971H46.0101L46.0601 6.85971H46.1101C46.4301 5.93971 47.1901 5.46973 47.8801 5.46973C48.0401 5.46973 48.1301 5.47974 48.2701 5.50974V7.05972C48.1401 7.02972 47.9901 7.00974 47.7901 7.00974C47.0001 7.00974 46.4701 7.51974 46.3201 8.25974C46.2901 8.40974 46.2701 8.57971 46.2701 8.76971V12.1497H44.6301V7.72974V7.70972Z" fill="#323334"/>
<path d="M27.6198 12.8906V15.3606H29.1598V16.5706H27.6198V19.4006C27.6198 20.1806 27.8298 20.5906 28.4498 20.5906C28.7298 20.5906 28.9398 20.5506 29.0798 20.5106L29.1098 21.7506C28.8698 21.8406 28.4498 21.9106 27.9398 21.9106C27.3498 21.9106 26.8498 21.7106 26.5498 21.3806C26.2098 21.0106 26.0498 20.4306 26.0498 19.5906V16.5706V15.3606V13.2706L27.6298 12.8906H27.6198Z" fill="#323334"/>
<path d="M31.4396 19.0297C31.4796 20.1897 32.3896 20.6897 33.4096 20.6897C34.1596 20.6897 34.6996 20.5797 35.1796 20.3997L35.4196 21.5197C34.8696 21.7397 34.1096 21.9097 33.1896 21.9097C31.1196 21.9097 29.8896 20.6297 29.8896 18.6697C29.8896 16.8897 30.9696 15.2197 33.0196 15.2197C35.0696 15.2197 35.7796 16.9297 35.7796 18.3397C35.7796 18.6397 35.7496 18.8797 35.7296 19.0297H31.4496H31.4396ZM34.2496 17.8897C34.2596 17.2997 33.9996 16.3197 32.9196 16.3197C31.9196 16.3197 31.4996 17.2297 31.4396 17.8897H34.2496Z" fill="#323334"/>
<path d="M38.2099 19.0297C38.2499 20.1897 39.1499 20.6897 40.1799 20.6897C40.9299 20.6897 41.4699 20.5797 41.9499 20.3997L42.1899 21.5197C41.6399 21.7397 40.8799 21.9097 39.9599 21.9097C37.8799 21.9097 36.6699 20.6297 36.6699 18.6697C36.6699 16.8897 37.7499 15.2197 39.7899 15.2197C41.8299 15.2197 42.5499 16.9297 42.5499 18.3397C42.5499 18.6397 42.5199 18.8797 42.4999 19.0297H38.2199H38.2099ZM41.0199 17.8897C41.0299 17.2997 40.7699 16.3197 39.6899 16.3197C38.6899 16.3197 38.2699 17.2297 38.2099 17.8897H41.0199Z" fill="#323334"/>
<path d="M45.6999 13.5303V15.3603H47.2399V16.5703H45.6999V19.4003C45.6999 20.1803 45.9099 20.5903 46.5299 20.5903C46.8099 20.5903 47.0199 20.5503 47.1599 20.5103L47.1899 21.7503C46.9499 21.8403 46.5299 21.9103 46.0199 21.9103C45.4299 21.9103 44.9299 21.7103 44.6299 21.3803C44.2899 21.0103 44.1299 20.4303 44.1299 19.5903V16.5703V15.3603V13.9103L45.7099 13.5303H45.6999Z" fill="#323334"/>
<path d="M48.4602 12.4199H50.0902V16.2399H50.1202C50.3202 15.9399 50.5802 15.6899 50.9202 15.4999C51.2402 15.3199 51.6202 15.2099 52.0202 15.2099C53.1102 15.2099 54.2502 15.9299 54.2502 17.9899V21.7699H52.6302V18.1699C52.6302 17.2299 52.2902 16.5399 51.4002 16.5399C50.7702 16.5399 50.3202 16.9599 50.1502 17.4499C50.1002 17.5799 50.0802 17.7499 50.0802 17.9399V21.7799H48.4502V12.4199H48.4602Z" fill="#323334"/>
</svg>
