<svg width="33" height="43" viewBox="0 0 33 43" fill="none" xmlns="http://www.w3.org/2000/svg">
<path d="M31.8195 15.9397C31.1395 15.9097 22.1095 15.3596 21.9295 15.3496C21.9095 15.2296 21.8995 15.1297 21.8895 15.0097C22.9795 14.5997 24.0495 14.1997 25.1295 13.7997C25.0895 13.7097 25.0495 13.6696 24.9595 13.6996C24.8795 13.7196 24.7995 13.7296 24.7195 13.7496C23.7695 13.9696 22.8095 14.1897 21.8595 14.4097C21.8195 14.4097 21.7795 14.4097 21.7395 14.4097C21.6795 14.2297 21.6195 14.0696 21.5595 13.8896C23.1995 12.7496 24.8295 11.6097 26.4595 10.4697C26.3895 10.3897 26.3295 10.3197 26.2695 10.2597C24.4495 11.0597 22.6495 11.8496 20.8395 12.6396C20.7495 12.5396 20.6795 12.4396 20.5895 12.3396C21.0695 11.7796 21.5395 11.2397 22.0195 10.6897C21.9795 10.6497 21.9495 10.6197 21.9195 10.5797C21.3295 11.0397 20.7495 11.4796 20.1795 11.9196C20.0495 11.7996 19.9295 11.6996 19.7995 11.5896C20.6195 9.81965 21.4295 8.05965 22.2495 6.28965C22.1895 6.22965 22.1195 6.16965 22.0495 6.09965C20.8795 7.68965 19.7295 9.26965 18.5695 10.8596C18.3995 10.7996 18.2395 10.7396 18.0995 10.6796C18.0995 10.6496 18.0895 10.6396 18.0995 10.6296C18.1995 10.0896 18.2995 9.53965 18.3995 8.99965C18.4895 8.49965 18.5795 7.99965 18.6795 7.49965C18.6995 7.39965 18.6795 7.34965 18.5795 7.29965C18.2295 8.37965 17.8695 9.43965 17.5195 10.5296C17.3395 10.4996 17.1795 10.4697 17.0095 10.4397C17.0095 10.4097 16.9995 10.3897 16.9995 10.3697C16.9695 9.86965 16.5095 1.40965 16.4795 0.679649C16.4795 0.549649 16.4295 0.459648 16.3095 0.389648C16.2495 0.449648 16.1595 0.489648 16.1595 0.599648C16.1595 0.739648 16.1395 0.889648 16.1295 1.02965C16.0995 1.45965 15.5695 10.1397 15.5495 10.4397C15.5195 10.4397 15.4995 10.4496 15.4795 10.4596C15.1495 10.5296 14.8195 10.5996 14.4995 10.7096C13.1395 11.1796 12.1195 12.0496 11.4095 13.2896C10.9195 14.1396 10.6895 15.0697 10.6995 16.0497C10.6995 16.5397 10.7595 17.0296 10.8995 17.4996C11.0795 18.1596 11.3795 18.7797 11.7895 19.3297C12.1795 19.8497 12.6295 20.2897 13.1695 20.6597C13.8595 21.1297 14.6095 21.4196 15.4295 21.5596C15.5895 21.5896 15.5895 21.5896 15.5995 21.7496C15.6095 22.0196 15.6195 22.2996 15.6395 22.5696C15.6695 22.9896 16.0395 29.4596 16.0595 29.7696C16.0895 30.3396 16.1195 30.9196 16.1495 31.4896C16.1495 31.6096 16.1795 31.7097 16.2995 31.7597C16.3995 31.7097 16.4395 31.6296 16.4395 31.5196C16.4495 31.2696 16.4695 31.0197 16.4895 30.7597C16.5295 30.0497 16.9695 22.4196 16.9795 22.1396C16.9895 21.9596 17.0095 21.7797 17.0195 21.5797C17.1395 21.5597 17.2695 21.5396 17.3995 21.5196C17.7395 22.5896 18.0895 23.6496 18.4395 24.6996C18.5395 24.6496 18.5595 24.5896 18.5395 24.4896C18.4795 24.1996 18.4295 23.9097 18.3795 23.6197C18.2795 23.0497 18.1695 22.4797 18.0695 21.9097C18.0395 21.7397 18.0095 21.5596 17.9795 21.3796C18.1095 21.3396 18.2295 21.2996 18.3495 21.2496C19.5295 22.7996 20.6995 24.3397 21.8895 25.8997C21.9795 25.8097 22.0495 25.7196 22.1295 25.6296C21.2995 23.9496 20.4695 22.2596 19.6295 20.5596C19.7495 20.4696 19.8595 20.3897 19.9695 20.2997C20.0995 20.3997 20.2195 20.4796 20.3395 20.5696C20.7795 20.8896 21.2295 21.2196 21.6695 21.5396C21.7695 21.6096 21.7795 21.6096 21.8495 21.4996C21.3695 20.9696 20.8895 20.4296 20.4095 19.8896C20.5495 19.7296 20.6895 19.5697 20.8295 19.4097C22.4995 20.2697 24.1495 21.1197 25.8095 21.9697C25.8895 21.8997 25.9595 21.8296 26.0395 21.7496C24.5295 20.5496 23.0295 19.3596 21.5295 18.1796C21.5895 18.0296 21.6395 17.8997 21.6895 17.7597C22.0695 17.8797 22.4395 17.9896 22.8095 18.1096C23.3995 18.2896 23.9895 18.4797 24.5795 18.6597C24.7095 18.6997 24.7095 18.6997 24.7995 18.5497C23.8195 18.0997 22.8395 17.6497 21.8495 17.1897C21.8495 17.1197 21.8695 17.0596 21.8795 16.9996C21.9195 16.7796 21.9295 16.7796 22.1495 16.7696C22.6195 16.7496 31.2895 16.2297 31.8595 16.1897C31.9595 16.1897 32.0295 16.1496 32.0795 16.0596C32.0195 15.9596 31.9395 15.9296 31.8195 15.9196V15.9397ZM16.3395 20.9097C13.5895 20.9097 11.4195 18.6997 11.4095 16.0396C11.4095 13.3696 13.5095 11.2096 16.1595 11.1296C18.9795 11.0396 21.2195 13.3197 21.2295 16.0097C21.2295 18.6897 19.0595 20.8996 16.3395 20.9196V20.9097Z" fill="#323334"/>
<path d="M10.1696 6.89L11.2096 6.97L10.6096 7.7C10.6096 7.7 10.6096 7.73 10.6096 7.75C10.6196 7.76 10.6396 7.76 10.6596 7.75L11.3796 7.15L11.4696 8.19C11.4696 8.19 11.4896 8.22 11.4996 8.22C11.4996 8.22 11.5296 8.21 11.5296 8.19L11.6096 7.15L12.3396 7.75C12.3396 7.75 12.3696 7.75 12.3896 7.75C12.3996 7.74 12.3996 7.72 12.3896 7.7L11.7896 6.98L12.8296 6.89C12.8296 6.89 12.8596 6.87 12.8596 6.86C12.8596 6.84 12.8496 6.83 12.8296 6.83L11.7896 6.75L12.3896 6.02C12.3896 6.02 12.3896 5.99 12.3896 5.97C12.3796 5.96 12.3596 5.96 12.3396 5.97L11.6196 6.57L11.5296 5.53C11.5296 5.53 11.5096 5.5 11.4996 5.5C11.4996 5.5 11.4696 5.51 11.4696 5.53L11.3896 6.57L10.6596 5.97C10.6596 5.97 10.6296 5.96 10.6096 5.97C10.5996 5.98 10.5996 6 10.6096 6.02L11.2096 6.74L10.1696 6.83C10.1696 6.83 10.1396 6.85 10.1396 6.86C10.1396 6.87 10.1496 6.89 10.1696 6.89Z" fill="#323334"/>
<path d="M6.01004 12.3299C6.01004 12.3299 6.01004 12.3599 6.01004 12.3799C6.02004 12.3899 6.04003 12.3899 6.06003 12.3799L6.78003 11.7799L6.87003 12.8199C6.87003 12.8199 6.89002 12.8499 6.90002 12.8499C6.90002 12.8499 6.93002 12.8399 6.93002 12.8199L7.01004 11.7799L7.74002 12.3799C7.74002 12.3799 7.77004 12.3799 7.79004 12.3799C7.80004 12.3699 7.80004 12.3499 7.79004 12.3299L7.19003 11.6099L8.23004 11.5199C8.23004 11.5199 8.26004 11.4999 8.26004 11.4899C8.26004 11.4699 8.25004 11.4599 8.23004 11.4599L7.19003 11.3799L7.79004 10.6499C7.79004 10.6499 7.79004 10.6199 7.79004 10.5999C7.78004 10.5899 7.76002 10.5899 7.74002 10.5999L7.02002 11.1999L6.93002 10.1599C6.93002 10.1599 6.91002 10.1299 6.90002 10.1299C6.90002 10.1299 6.87003 10.1399 6.87003 10.1599L6.79004 11.1999L6.06003 10.5999C6.06003 10.5999 6.03004 10.5999 6.01004 10.5999C5.99004 10.5999 6.00004 10.6299 6.01004 10.6499L6.61002 11.3699L5.57004 11.4599C5.57004 11.4599 5.54004 11.4799 5.54004 11.4899C5.54004 11.5099 5.55004 11.5199 5.57004 11.5199L6.61002 11.5999L6.01004 12.3299Z" fill="#323334"/>
<path d="M3.61969 16.0497L2.57968 15.9697L3.17969 15.2397C3.17969 15.2397 3.18969 15.2097 3.17969 15.1897C3.16969 15.1797 3.1497 15.1797 3.1297 15.1897L2.4097 15.7897L2.3197 14.7497C2.3197 14.7497 2.2997 14.7197 2.2897 14.7197C2.2897 14.7197 2.2597 14.7297 2.2597 14.7497L2.17969 15.7897L1.44971 15.1897C1.44971 15.1897 1.41969 15.1797 1.39969 15.1897C1.38969 15.1997 1.38969 15.2197 1.39969 15.2397L1.99969 15.9597L0.959686 16.0497C0.959686 16.0497 0.929688 16.0697 0.929688 16.0797C0.929688 16.0997 0.939686 16.1097 0.959686 16.1097L1.99969 16.1897L1.39969 16.9197C1.39969 16.9197 1.38969 16.9497 1.39969 16.9697C1.40969 16.9797 1.42971 16.9797 1.44971 16.9697L2.16971 16.3697L2.2597 17.4097C2.2597 17.4097 2.2797 17.4397 2.2897 17.4397C2.2897 17.4397 2.3197 17.4297 2.3197 17.4097L2.39969 16.3697L3.1297 16.9697C3.1297 16.9697 3.15969 16.9697 3.17969 16.9697C3.18969 16.9597 3.18969 16.9397 3.17969 16.9197L2.57968 16.1997L3.61969 16.1097C3.61969 16.1097 3.64969 16.0897 3.64969 16.0797C3.64969 16.0697 3.63969 16.0497 3.61969 16.0497Z" fill="#323334"/>
<path d="M8.37946 20.83L7.33945 20.75L7.93945 20.02C7.93945 20.02 7.93945 19.99 7.93945 19.97C7.92945 19.96 7.90947 19.96 7.88947 19.97L7.16946 20.57L7.07944 19.53C7.07944 19.53 7.05944 19.5 7.04944 19.5C7.04944 19.5 7.01944 19.51 7.01944 19.53L6.93945 20.57L6.20944 19.97C6.20944 19.97 6.17945 19.96 6.15945 19.97C6.14945 19.98 6.14945 20 6.15945 20.02L6.75946 20.74L5.71945 20.83C5.71945 20.83 5.68945 20.85 5.68945 20.86C5.68945 20.88 5.69945 20.89 5.71945 20.89L6.75946 20.97L6.15945 21.7C6.15945 21.7 6.15945 21.73 6.15945 21.75C6.16945 21.76 6.18944 21.76 6.20944 21.75L6.92944 21.15L7.01944 22.19C7.01944 22.19 7.03944 22.22 7.04944 22.22C7.04944 22.22 7.07944 22.21 7.07944 22.19L7.15945 21.15L7.88947 21.75C7.88947 21.75 7.91945 21.75 7.93945 21.75C7.94945 21.74 7.94945 21.72 7.93945 21.7L7.33945 20.98L8.37946 20.89C8.37946 20.89 8.40945 20.87 8.40945 20.86C8.40945 20.84 8.39946 20.83 8.37946 20.83Z" fill="#323334"/>
<path d="M12.7896 25.2099L11.7496 25.1299L12.3496 24.3999C12.3496 24.3999 12.3496 24.3699 12.3496 24.3499C12.3396 24.3399 12.3196 24.3399 12.2996 24.3499L11.5796 24.9499L11.4896 23.9099C11.4896 23.9099 11.4696 23.8799 11.4596 23.8799C11.4596 23.8799 11.4296 23.8899 11.4296 23.9099L11.3496 24.9499L10.6196 24.3499C10.6196 24.3499 10.5896 24.3499 10.5696 24.3499C10.5496 24.3499 10.5596 24.3799 10.5696 24.3999L11.1696 25.1199L10.1296 25.2099C10.1296 25.2099 10.0996 25.2299 10.0996 25.2399C10.0996 25.2599 10.1096 25.2699 10.1296 25.2699L11.1696 25.3499L10.5696 26.0799C10.5696 26.0799 10.5696 26.1099 10.5696 26.1299C10.5796 26.1399 10.5996 26.1399 10.6196 26.1299L11.3396 25.5299L11.4296 26.5699C11.4296 26.5699 11.4496 26.5999 11.4596 26.5999C11.4596 26.5999 11.4896 26.5899 11.4896 26.5699L11.5696 25.5299L12.2996 26.1299C12.2996 26.1299 12.3296 26.1299 12.3496 26.1299C12.3596 26.1199 12.3596 26.0999 12.3496 26.0799L11.7496 25.3599L12.7896 25.2699C12.7896 25.2699 12.8196 25.2499 12.8196 25.2399C12.8196 25.2199 12.8096 25.2099 12.7896 25.2099Z" fill="#323334"/>
<path d="M13.8799 8.67969L13.5798 9.03969V9.05968H13.5999L13.9598 8.75969L14.0099 9.27969C14.0099 9.27969 14.0098 9.29969 14.0298 9.29969C14.0298 9.29969 14.0498 9.29969 14.0498 9.27969L14.0898 8.75969L14.4499 9.05968H14.4698V9.03969L14.1699 8.67969L14.6898 8.62968C14.6898 8.62968 14.7098 8.62969 14.7098 8.60969C14.7098 8.58969 14.7098 8.58968 14.6898 8.58968L14.1699 8.54969L14.4698 8.18969V8.16969H14.4499L14.0898 8.46969L14.0399 7.94968C14.0399 7.94968 14.0398 7.92969 14.0198 7.92969C14.0198 7.92969 13.9998 7.92968 13.9998 7.94968L13.9598 8.46969L13.5999 8.16969H13.5798V8.18969L13.8799 8.54969L13.3598 8.59969C13.3598 8.59969 13.3398 8.59969 13.3398 8.61969C13.3398 8.63969 13.3398 8.63969 13.3598 8.63969L13.8799 8.67969Z" fill="#323334"/>
<path d="M11.7997 11.4798C11.7997 11.4798 11.7997 11.4598 11.7797 11.4598L11.2597 11.4198L11.5597 11.0598V11.0398H11.5397L11.1797 11.3398L11.1297 10.8198C11.1297 10.8198 11.1297 10.7998 11.1097 10.7998C11.1097 10.7998 11.0897 10.7998 11.0897 10.8198L11.0497 11.3398L10.6897 11.0398H10.6697V11.0598L10.9697 11.4198L10.4497 11.4698C10.4497 11.4698 10.4297 11.4698 10.4297 11.4898C10.4297 11.4898 10.4297 11.5098 10.4497 11.5098L10.9697 11.5498L10.6697 11.9098V11.9298H10.6897L11.0497 11.6298L11.0997 12.1498C11.0997 12.1498 11.0997 12.1698 11.1197 12.1698C11.1197 12.1698 11.1397 12.1698 11.1397 12.1498L11.1797 11.6298L11.5397 11.9298H11.5597V11.9098L11.2597 11.5498L11.7797 11.4998C11.7797 11.4998 11.7997 11.4998 11.7997 11.4798Z" fill="#323334"/>
<path d="M8.0701 13.6697V13.6897L8.37009 14.0497L7.8501 14.0997C7.8501 14.0997 7.83008 14.0997 7.83008 14.1197C7.83008 14.1197 7.8301 14.1397 7.8501 14.1397L8.37009 14.1797L8.0701 14.5397V14.5597H8.09009L8.4501 14.2597L8.50009 14.7797C8.50009 14.7797 8.50008 14.7997 8.52008 14.7997C8.52008 14.7997 8.5401 14.7997 8.5401 14.7797L8.58008 14.2597L8.94009 14.5597H8.96008V14.5397L8.6601 14.1797L9.18008 14.1297C9.18008 14.1297 9.2001 14.1297 9.2001 14.1097C9.2001 14.0897 9.20008 14.0897 9.18008 14.0897L8.6601 14.0497L8.96008 13.6897V13.6697H8.94009L8.58008 13.9697L8.53009 13.4497C8.53009 13.4497 8.5301 13.4297 8.5101 13.4297C8.5101 13.4297 8.49008 13.4297 8.49008 13.4497L8.4501 13.9697L8.09009 13.6697H8.0701Z" fill="#323334"/>
<path d="M7.18933 16.0794C7.18933 16.0794 7.18934 16.0594 7.16934 16.0594L6.64932 16.0194L6.94934 15.6594V15.6394H6.92932L6.56934 15.9394L6.51932 15.4194C6.51932 15.4194 6.51933 15.3994 6.49933 15.3994C6.49933 15.3994 6.47934 15.3994 6.47934 15.4194L6.43933 15.9394L6.07932 15.6394H6.05933V15.6594L6.35931 16.0194L5.83932 16.0694C5.83932 16.0694 5.81934 16.0694 5.81934 16.0894C5.81934 16.1094 5.81932 16.1094 5.83932 16.1094L6.35931 16.1494L6.05933 16.5094V16.5294H6.07932L6.43933 16.2294L6.48932 16.7494C6.48932 16.7494 6.48934 16.7694 6.50934 16.7694C6.50934 16.7694 6.52933 16.7694 6.52933 16.7494L6.56934 16.2294L6.92932 16.5294H6.94934V16.5094L6.64932 16.1494L7.16934 16.0994C7.16934 16.0994 7.18933 16.0994 7.18933 16.0794Z" fill="#323334"/>
<path d="M8.78998 18.1893L9.08997 17.8293V17.8093H9.06998L8.70996 18.1093L8.65997 17.5893C8.65997 17.5893 8.65998 17.5693 8.63998 17.5693C8.63998 17.5693 8.61996 17.5693 8.61996 17.5893L8.57996 18.1093L8.21997 17.8093H8.19998V17.8293L8.49997 18.1893L7.97998 18.2393C7.97998 18.2393 7.95996 18.2393 7.95996 18.2593C7.95996 18.2793 7.95998 18.2793 7.97998 18.2793L8.49997 18.3193L8.19998 18.6793V18.6993H8.21997L8.57996 18.3993L8.62997 18.9193C8.62997 18.9193 8.62996 18.9393 8.64996 18.9393C8.64996 18.9393 8.66998 18.9393 8.66998 18.9193L8.70996 18.3993L9.06998 18.6993H9.08997V18.6793L8.78998 18.3193L9.30997 18.2693C9.30997 18.2693 9.32996 18.2693 9.32996 18.2493C9.32996 18.2493 9.32997 18.2293 9.30997 18.2293L8.78998 18.1893Z" fill="#323334"/>
<path d="M10.5693 20.8697C10.5693 20.8697 10.5693 20.8897 10.5893 20.8897L11.1093 20.9297L10.8093 21.2897V21.3097H10.8293L11.1893 21.0097L11.2393 21.5297C11.2393 21.5297 11.2393 21.5497 11.2593 21.5497C11.2593 21.5497 11.2793 21.5497 11.2793 21.5297L11.3193 21.0097L11.6793 21.3097H11.6993V21.2897L11.3993 20.9297L11.9193 20.8797C11.9193 20.8797 11.9393 20.8797 11.9393 20.8597C11.9393 20.8597 11.9393 20.8397 11.9193 20.8397L11.3993 20.7997L11.6993 20.4397V20.4197H11.6793L11.3193 20.7197L11.2693 20.1997C11.2693 20.1997 11.2693 20.1797 11.2493 20.1797C11.2493 20.1797 11.2293 20.1797 11.2293 20.1997L11.1893 20.7197L10.8293 20.4197H10.8093V20.4397L11.1093 20.7997L10.5893 20.8497C10.5893 20.8497 10.5693 20.8497 10.5693 20.8697Z" fill="#323334"/>
<path d="M14.1601 23.5692L14.4601 23.2092V23.1892H14.4401L14.0801 23.4892L14.0301 22.9692C14.0301 22.9692 14.0301 22.9492 14.0101 22.9492C14.0101 22.9492 13.9901 22.9492 13.9901 22.9692L13.9501 23.4892L13.5901 23.1892H13.5701V23.2092L13.8701 23.5692L13.3501 23.6192C13.3501 23.6192 13.3301 23.6192 13.3301 23.6392C13.3301 23.6592 13.3301 23.6592 13.3501 23.6592L13.8701 23.6992L13.5701 24.0592V24.0792H13.5901L13.9501 23.7792L14.0001 24.2992C14.0001 24.2992 14.0001 24.3192 14.0201 24.3192C14.0201 24.3192 14.0401 24.3192 14.0401 24.2992L14.0801 23.7792L14.4401 24.0792H14.4601V24.0592L14.1601 23.6992L14.6801 23.6492C14.6801 23.6492 14.7001 23.6492 14.7001 23.6292C14.7001 23.6092 14.7001 23.6092 14.6801 23.6092L14.1601 23.5692Z" fill="#323334"/>
<path d="M3.32 38.3501C3.32 38.3501 3.40998 37.4501 2.58998 37.4501C1.75998 37.4501 1.59998 37.8701 1.58998 38.3301C1.57998 38.7901 1.51998 39.1401 2.36998 39.4101C3.21998 39.6701 3.89998 39.8901 3.92998 40.4901C3.95998 41.1001 3.92998 41.6801 3.92998 41.6801C3.92998 41.6801 3.73999 42.5501 2.93999 42.5601C2.13999 42.5601 1.92 42.5601 1.92 42.5601C1.92 42.5601 0.909981 42.4101 0.929981 41.3701V41.1201L1.54998 41.1401V41.5601C1.54998 41.5601 1.66998 42.1201 2.42998 42.1301C3.19998 42.1401 3.37 41.6301 3.39 41.3201C3.41 41.0101 3.39 40.7401 3.39 40.7401C3.39 40.7401 3.34998 40.2501 2.89998 40.1101C2.43998 39.9701 1.00998 39.6801 1.01998 38.7901C1.01998 37.9001 1.09998 36.9901 2.51998 37.0001C3.93998 37.0001 3.93998 38.0501 3.92998 38.3901L3.32 38.3701V38.3501Z" fill="#323334"/>
<path d="M8.46011 36.9697H7.87012V41.5997H8.46011V36.9697Z" fill="#323334"/>
<path d="M10.7296 36.9697H10.1396V41.5997H10.7296V36.9697Z" fill="#323334"/>
<path d="M10.1401 41.3701C10.1201 41.7301 9.84012 42.0901 9.47012 42.0901H9.13013C8.76013 42.0901 8.48011 41.7401 8.46011 41.3701L7.87012 41.4901C7.87012 42.1001 8.46013 42.5401 9.07013 42.5401H9.54013C10.1501 42.5401 10.7401 42.0801 10.7401 41.4901L10.1501 41.3701H10.1401Z" fill="#323334"/>
<path d="M16.6404 36.9697H14.8604V42.5397H15.4504V40.0697C15.7104 40.0697 16.1304 40.0697 16.6804 40.0697C17.6504 40.0697 17.7204 39.0097 17.7204 39.0097V38.0597C17.7504 37.1097 16.6404 36.9797 16.6404 36.9797V36.9697ZM17.1404 38.9597C17.1304 39.6097 16.4904 39.6797 16.4904 39.6797L15.4404 39.6997V37.4497C15.6704 37.4397 15.9904 37.4297 16.3604 37.4297C17.1104 37.4297 17.1504 38.1397 17.1504 38.1397C17.1504 38.1397 17.1504 38.3097 17.1504 38.9597H17.1404Z" fill="#323334"/>
<path d="M24.8698 42.5395L23.7997 40.0495C24.5597 39.8995 24.6198 39.0095 24.6198 39.0095V38.0595C24.6498 37.1095 23.5398 36.9795 23.5398 36.9795H21.7598V42.5495H22.3498V40.0795C22.5398 40.0795 22.8198 40.0795 23.1698 40.0795L24.2298 42.5495H24.8698V42.5395ZM22.3498 39.6995V37.4495C22.5798 37.4395 22.8997 37.4295 23.2697 37.4295C24.0197 37.4295 24.0598 38.1395 24.0598 38.1395C24.0598 38.1395 24.0598 38.3095 24.0598 38.9595C24.0498 39.6095 23.4098 39.6795 23.4098 39.6795L22.3597 39.6995H22.3498Z" fill="#323334"/>
<path d="M31.2197 42.54H31.8797L30.2997 37.04H29.7597L28.1797 42.55H28.8397L29.2497 41.01H30.8197L31.2297 42.55L31.2197 42.54ZM29.3497 40.59L30.0297 38.05L30.7097 40.59H29.3597H29.3497Z" fill="#323334"/>
</svg>
