<svg width="62" height="18" viewBox="0 0 62 18" fill="none" xmlns="http://www.w3.org/2000/svg">
<path d="M5.42029 17.6004C5.54029 17.6704 5.68026 17.7004 5.83026 17.7004C5.94026 17.7004 6.05029 17.6804 6.14029 17.6404C6.24029 17.6004 6.32029 17.5504 6.39029 17.4804L6.32028 17.4104C6.20028 17.5304 6.04027 17.6004 5.84027 17.6004C5.71027 17.6004 5.59029 17.5704 5.48029 17.5104C5.37029 17.4504 5.29029 17.3704 5.23029 17.2604C5.16029 17.1504 5.14029 17.0404 5.14029 16.9104C5.14029 16.7804 5.17029 16.6604 5.23029 16.5604C5.29029 16.4504 5.37029 16.3704 5.48029 16.3104C5.59029 16.2504 5.71027 16.2204 5.84027 16.2204C6.03027 16.2204 6.19028 16.2804 6.32028 16.4104L6.39029 16.3304C6.32029 16.2604 6.24027 16.2104 6.15027 16.1704C6.05027 16.1404 5.95027 16.1104 5.84027 16.1104C5.68027 16.1104 5.55027 16.1504 5.43027 16.2104C5.31027 16.2804 5.21029 16.3704 5.14029 16.5004C5.07029 16.6204 5.03027 16.7604 5.03027 16.9104C5.03027 17.0604 5.06029 17.2004 5.14029 17.3204C5.21029 17.4404 5.30027 17.5404 5.43027 17.6004H5.42029Z" fill="#323334"/>
<path d="M5.42029 17.6004C5.54029 17.6704 5.68026 17.7004 5.83026 17.7004C5.94026 17.7004 6.05029 17.6804 6.14029 17.6404C6.24029 17.6004 6.32029 17.5504 6.39029 17.4804L6.32028 17.4104C6.20028 17.5304 6.04027 17.6004 5.84027 17.6004C5.71027 17.6004 5.59029 17.5704 5.48029 17.5104C5.37029 17.4504 5.29029 17.3704 5.23029 17.2604C5.16029 17.1504 5.14029 17.0404 5.14029 16.9104C5.14029 16.7804 5.17029 16.6604 5.23029 16.5604C5.29029 16.4504 5.37029 16.3704 5.48029 16.3104C5.59029 16.2504 5.71027 16.2204 5.84027 16.2204C6.03027 16.2204 6.19028 16.2804 6.32028 16.4104L6.39029 16.3304C6.32029 16.2604 6.24027 16.2104 6.15027 16.1704C6.05027 16.1404 5.95027 16.1104 5.84027 16.1104C5.68027 16.1104 5.55027 16.1504 5.43027 16.2104C5.31027 16.2804 5.21029 16.3704 5.14029 16.5004C5.07029 16.6204 5.03027 16.7604 5.03027 16.9104C5.03027 17.0604 5.06029 17.2004 5.14029 17.3204C5.21029 17.4404 5.30027 17.5404 5.43027 17.6004H5.42029Z" fill="#323334"/>
<path d="M6.83984 16.1299V17.6999H7.85983V17.5899H6.95984V16.1299H6.83984Z" fill="#323334"/>
<path d="M6.83984 16.1299V17.6999H7.85983V17.5899H6.95984V16.1299H6.83984Z" fill="#323334"/>
<path d="M8.46039 15.7402L8.15039 16.0002H8.27039L8.62039 15.7402H8.46039ZM8.2204 16.1302V17.6902H8.34039V16.1302H8.2204Z" fill="#323334"/>
<path d="M8.46039 15.7402L8.15039 16.0002H8.27039L8.62039 15.7402H8.46039ZM8.2204 16.1302V17.6902H8.34039V16.1302H8.2204Z" fill="#323334"/>
<path d="M10.2302 16.1299H10.1102V17.4899L9.05017 16.1299H8.9502V17.6999H9.07019V16.3399L10.1302 17.6999H10.2302V16.1299Z" fill="#323334"/>
<path d="M10.2302 16.1299H10.1102V17.4899L9.05017 16.1299H8.9502V17.6999H9.07019V16.3399L10.1302 17.6999H10.2302V16.1299Z" fill="#323334"/>
<path d="M10.9499 16.1299H10.8398V17.6899H10.9499V16.1299Z" fill="#323334"/>
<path d="M10.9499 16.1299H10.8398V17.6899H10.9499V16.1299Z" fill="#323334"/>
<path d="M11.8207 17.6004C11.9407 17.6704 12.0807 17.7004 12.2307 17.7004C12.3407 17.7004 12.4506 17.6804 12.5406 17.6404C12.6406 17.6004 12.7206 17.5504 12.7906 17.4804L12.7206 17.4104C12.6006 17.5304 12.4307 17.6004 12.2407 17.6004C12.1107 17.6004 11.9907 17.5704 11.8807 17.5104C11.7707 17.4504 11.6907 17.3704 11.6307 17.2604C11.5707 17.1504 11.5307 17.0404 11.5307 16.9104C11.5307 16.7804 11.5607 16.6604 11.6307 16.5604C11.6907 16.4504 11.7707 16.3704 11.8807 16.3104C11.9907 16.2504 12.1007 16.2204 12.2407 16.2204C12.4307 16.2204 12.5906 16.2804 12.7206 16.4104L12.7906 16.3304C12.7206 16.2604 12.6406 16.2104 12.5406 16.1704C12.4406 16.1404 12.3407 16.1104 12.2307 16.1104C12.0707 16.1104 11.9407 16.1504 11.8207 16.2104C11.7007 16.2804 11.6007 16.3704 11.5307 16.5004C11.4607 16.6204 11.4307 16.7604 11.4307 16.9104C11.4307 17.0604 11.4607 17.2004 11.5307 17.3204C11.6007 17.4404 11.7007 17.5404 11.8207 17.6004Z" fill="#323334"/>
<path d="M11.8207 17.6004C11.9407 17.6704 12.0807 17.7004 12.2307 17.7004C12.3407 17.7004 12.4506 17.6804 12.5406 17.6404C12.6406 17.6004 12.7206 17.5504 12.7906 17.4804L12.7206 17.4104C12.6006 17.5304 12.4307 17.6004 12.2407 17.6004C12.1107 17.6004 11.9907 17.5704 11.8807 17.5104C11.7707 17.4504 11.6907 17.3704 11.6307 17.2604C11.5707 17.1504 11.5307 17.0404 11.5307 16.9104C11.5307 16.7804 11.5607 16.6604 11.6307 16.5604C11.6907 16.4504 11.7707 16.3704 11.8807 16.3104C11.9907 16.2504 12.1007 16.2204 12.2407 16.2204C12.4307 16.2204 12.5906 16.2804 12.7206 16.4104L12.7906 16.3304C12.7206 16.2604 12.6406 16.2104 12.5406 16.1704C12.4406 16.1404 12.3407 16.1104 12.2307 16.1104C12.0707 16.1104 11.9407 16.1504 11.8207 16.2104C11.7007 16.2804 11.6007 16.3704 11.5307 16.5004C11.4607 16.6204 11.4307 16.7604 11.4307 16.9104C11.4307 17.0604 11.4607 17.2004 11.5307 17.3204C11.6007 17.4404 11.7007 17.5404 11.8207 17.6004Z" fill="#323334"/>
<path d="M13.7704 16.1299H13.6604L12.9404 17.6999H13.0604L13.7104 16.2599L14.3704 17.6999H14.4904L13.7704 16.1299Z" fill="#323334"/>
<path d="M13.7704 16.1299H13.6604L12.9404 17.6999H13.0604L13.7104 16.2599L14.3704 17.6999H14.4904L13.7704 16.1299Z" fill="#323334"/>
<path d="M16.77 16.5099C16.7 16.3899 16.5999 16.2999 16.4799 16.2299C16.3599 16.1699 16.2099 16.1299 16.0499 16.1299H15.4299V16.2299H16.0399C16.1799 16.2299 16.3099 16.2599 16.4199 16.3199C16.5299 16.3799 16.6099 16.4599 16.6799 16.5599C16.7399 16.6599 16.77 16.7799 16.77 16.9099C16.77 17.0399 16.7399 17.1599 16.6799 17.2599C16.6199 17.3599 16.5299 17.4399 16.4199 17.4999C16.3099 17.5599 16.1799 17.5899 16.0399 17.5899H15.5399V16.9099H15.4199V17.6899H16.0399C16.1999 17.6899 16.3499 17.6599 16.4699 17.5899C16.5899 17.5199 16.6899 17.4299 16.7599 17.3099C16.8299 17.1899 16.8599 17.0499 16.8599 16.8999C16.8599 16.7499 16.8299 16.6199 16.7599 16.4999L16.77 16.5099Z" fill="#323334"/>
<path d="M16.77 16.5099C16.7 16.3899 16.5999 16.2999 16.4799 16.2299C16.3599 16.1699 16.2099 16.1299 16.0499 16.1299H15.4299V16.2299H16.0399C16.1799 16.2299 16.3099 16.2599 16.4199 16.3199C16.5299 16.3799 16.6099 16.4599 16.6799 16.5599C16.7399 16.6599 16.77 16.7799 16.77 16.9099C16.77 17.0399 16.7399 17.1599 16.6799 17.2599C16.6199 17.3599 16.5299 17.4399 16.4199 17.4999C16.3099 17.5599 16.1799 17.5899 16.0399 17.5899H15.5399V16.9099H15.4199V17.6899H16.0399C16.1999 17.6899 16.3499 17.6599 16.4699 17.5899C16.5899 17.5199 16.6899 17.4299 16.7599 17.3099C16.8299 17.1899 16.8599 17.0499 16.8599 16.8999C16.8599 16.7499 16.8299 16.6199 16.7599 16.4999L16.77 16.5099Z" fill="#323334"/>
<path d="M17.3301 17.5899V17.6899H18.3401V17.5899H17.3301ZM18.35 16.1299H17.3401V16.2299H18.35V16.1299ZM18.35 16.8499H17.3401V16.9499H18.35V16.8499Z" fill="#323334"/>
<path d="M17.3301 17.5899V17.6899H18.3401V17.5899H17.3301ZM18.35 16.1299H17.3401V16.2299H18.35V16.1299ZM18.35 16.8499H17.3401V16.9499H18.35V16.8499Z" fill="#323334"/>
<path d="M20.7505 16.1299H20.6405V17.4899L19.5805 16.1299H19.4805V17.6999H19.5905V16.3399L20.6605 17.6999H20.7505V16.1299Z" fill="#323334"/>
<path d="M20.7505 16.1299H20.6405V17.4899L19.5805 16.1299H19.4805V17.6999H19.5905V16.3399L20.6605 17.6999H20.7505V16.1299Z" fill="#323334"/>
<path d="M21.5206 17.5406C21.6306 17.6606 21.7806 17.7106 21.9806 17.7106C22.1806 17.7106 22.3306 17.6506 22.4406 17.5406C22.5506 17.4306 22.6106 17.2606 22.6106 17.0406V16.1406H22.4906V17.0406C22.4906 17.2306 22.4506 17.3806 22.3606 17.4706C22.2706 17.5706 22.1406 17.6206 21.9806 17.6206C21.8206 17.6206 21.6806 17.5706 21.6006 17.4706C21.5106 17.3806 21.4706 17.2306 21.4706 17.0406V16.1406H21.3506V17.0406C21.3506 17.2606 21.4106 17.4306 21.5106 17.5406H21.5206Z" fill="#323334"/>
<path d="M21.5206 17.5406C21.6306 17.6606 21.7806 17.7106 21.9806 17.7106C22.1806 17.7106 22.3306 17.6506 22.4406 17.5406C22.5506 17.4306 22.6106 17.2606 22.6106 17.0406V16.1406H22.4906V17.0406C22.4906 17.2306 22.4506 17.3806 22.3606 17.4706C22.2706 17.5706 22.1406 17.6206 21.9806 17.6206C21.8206 17.6206 21.6806 17.5706 21.6006 17.4706C21.5106 17.3806 21.4706 17.2306 21.4706 17.0406V16.1406H21.3506V17.0406C21.3506 17.2606 21.4106 17.4306 21.5106 17.5406H21.5206Z" fill="#323334"/>
<path d="M23.4799 16.2399V17.6999H23.59V16.2399H24.1599V16.1299H22.9199V16.2399H23.4799Z" fill="#323334"/>
<path d="M23.4799 16.2399V17.6999H23.59V16.2399H24.1599V16.1299H22.9199V16.2399H23.4799Z" fill="#323334"/>
<path d="M25.3307 17.1506C25.4507 17.1206 25.5407 17.0506 25.6007 16.9706C25.6607 16.8806 25.7007 16.7806 25.7007 16.6606C25.7007 16.5006 25.6408 16.3706 25.5308 16.2806C25.4208 16.1806 25.2707 16.1406 25.0707 16.1406H24.5107V16.2406H25.0707C25.2307 16.2406 25.3607 16.2806 25.4507 16.3506C25.5407 16.4206 25.5807 16.5306 25.5807 16.6606C25.5807 16.7906 25.5407 16.9006 25.4507 16.9706C25.3607 17.0406 25.2307 17.0806 25.0707 17.0806H24.5107V17.6906H24.6307V17.1806H25.0707C25.0707 17.1806 25.1707 17.1806 25.2207 17.1706L25.6007 17.6906H25.7307L25.3408 17.1506H25.3307Z" fill="#323334"/>
<path d="M25.3307 17.1506C25.4507 17.1206 25.5407 17.0506 25.6007 16.9706C25.6607 16.8806 25.7007 16.7806 25.7007 16.6606C25.7007 16.5006 25.6408 16.3706 25.5308 16.2806C25.4208 16.1806 25.2707 16.1406 25.0707 16.1406H24.5107V16.2406H25.0707C25.2307 16.2406 25.3607 16.2806 25.4507 16.3506C25.5407 16.4206 25.5807 16.5306 25.5807 16.6606C25.5807 16.7906 25.5407 16.9006 25.4507 16.9706C25.3607 17.0406 25.2307 17.0806 25.0707 17.0806H24.5107V17.6906H24.6307V17.1806H25.0707C25.0707 17.1806 25.1707 17.1806 25.2207 17.1706L25.6007 17.6906H25.7307L25.3408 17.1506H25.3307Z" fill="#323334"/>
<path d="M26.3007 16.1299H26.1807V17.6899H26.3007V16.1299Z" fill="#323334"/>
<path d="M26.3007 16.1299H26.1807V17.6899H26.3007V16.1299Z" fill="#323334"/>
<path d="M27.1605 17.6004C27.2805 17.6704 27.4205 17.7004 27.5705 17.7004C27.6805 17.7004 27.7905 17.6804 27.8805 17.6404C27.9805 17.6004 28.0605 17.5504 28.1305 17.4804L28.0605 17.4104C27.9405 17.5304 27.7705 17.6004 27.5805 17.6004C27.4505 17.6004 27.3305 17.5704 27.2205 17.5104C27.1205 17.4504 27.0305 17.3704 26.9705 17.2604C26.9005 17.1504 26.8805 17.0404 26.8805 16.9104C26.8805 16.7804 26.9105 16.6604 26.9705 16.5604C27.0305 16.4504 27.1205 16.3704 27.2205 16.3104C27.3305 16.2504 27.4505 16.2204 27.5805 16.2204C27.7705 16.2204 27.9305 16.2804 28.0605 16.4104L28.1305 16.3304C28.0605 16.2604 27.9805 16.2104 27.8905 16.1704C27.7905 16.1404 27.6905 16.1104 27.5805 16.1104C27.4205 16.1104 27.2905 16.1504 27.1705 16.2104C27.0505 16.2804 26.9505 16.3704 26.8805 16.5004C26.8105 16.6204 26.7705 16.7604 26.7705 16.9104C26.7705 17.0604 26.8105 17.2004 26.8805 17.3204C26.9505 17.4404 27.0405 17.5404 27.1705 17.6004H27.1605Z" fill="#323334"/>
<path d="M27.1605 17.6004C27.2805 17.6704 27.4205 17.7004 27.5705 17.7004C27.6805 17.7004 27.7905 17.6804 27.8805 17.6404C27.9805 17.6004 28.0605 17.5504 28.1305 17.4804L28.0605 17.4104C27.9405 17.5304 27.7705 17.6004 27.5805 17.6004C27.4505 17.6004 27.3305 17.5704 27.2205 17.5104C27.1205 17.4504 27.0305 17.3704 26.9705 17.2604C26.9005 17.1504 26.8805 17.0404 26.8805 16.9104C26.8805 16.7804 26.9105 16.6604 26.9705 16.5604C27.0305 16.4504 27.1205 16.3704 27.2205 16.3104C27.3305 16.2504 27.4505 16.2204 27.5805 16.2204C27.7705 16.2204 27.9305 16.2804 28.0605 16.4104L28.1305 16.3304C28.0605 16.2604 27.9805 16.2104 27.8905 16.1704C27.7905 16.1404 27.6905 16.1104 27.5805 16.1104C27.4205 16.1104 27.2905 16.1504 27.1705 16.2104C27.0505 16.2804 26.9505 16.3704 26.8805 16.5004C26.8105 16.6204 26.7705 16.7604 26.7705 16.9104C26.7705 17.0604 26.8105 17.2004 26.8805 17.3204C26.9505 17.4404 27.0405 17.5404 27.1705 17.6004H27.1605Z" fill="#323334"/>
<path d="M28.7001 16.1299H28.5801V17.6899H28.7001V16.1299Z" fill="#323334"/>
<path d="M28.7001 16.1299H28.5801V17.6899H28.7001V16.1299Z" fill="#323334"/>
<path d="M30.1602 15.7402L29.8502 16.0002H29.9702L30.3202 15.7402H30.1602ZM30.3302 17.5103C30.2202 17.5703 30.1102 17.6003 29.9802 17.6003C29.8502 17.6003 29.7302 17.5703 29.6202 17.5103C29.5102 17.4503 29.4302 17.3703 29.3702 17.2603C29.3102 17.1503 29.2802 17.0402 29.2802 16.9102C29.2802 16.7802 29.3102 16.6602 29.3702 16.5602C29.4302 16.4502 29.5102 16.3702 29.6202 16.3102C29.7302 16.2502 29.8402 16.2202 29.9802 16.2202C30.1202 16.2202 30.2302 16.2502 30.3302 16.3102C30.4302 16.3702 30.5202 16.4502 30.5802 16.5602C30.6402 16.6602 30.6702 16.7802 30.6702 16.9102C30.6702 17.0402 30.6402 17.1603 30.5802 17.2603C30.5202 17.3603 30.4302 17.4503 30.3302 17.5103ZM29.5602 17.6003C29.6802 17.6703 29.8202 17.7003 29.9702 17.7003C30.1202 17.7003 30.2602 17.6703 30.3802 17.6003C30.5002 17.5303 30.6002 17.4403 30.6702 17.3203C30.7402 17.2003 30.7802 17.0602 30.7802 16.9102C30.7802 16.7602 30.7502 16.6302 30.6702 16.5002C30.6002 16.3802 30.5102 16.2802 30.3802 16.2102C30.2502 16.1502 30.1202 16.1102 29.9702 16.1102C29.8202 16.1102 29.6802 16.1502 29.5602 16.2202C29.4302 16.2902 29.3302 16.3802 29.2702 16.5002C29.2002 16.6202 29.1602 16.7602 29.1602 16.9102C29.1602 17.0602 29.2002 17.2003 29.2702 17.3203C29.3402 17.4403 29.4402 17.5403 29.5602 17.6003Z" fill="#323334"/>
<path d="M30.1602 15.7402L29.8502 16.0002H29.9702L30.3202 15.7402H30.1602ZM30.3302 17.5103C30.2202 17.5703 30.1102 17.6003 29.9802 17.6003C29.8502 17.6003 29.7302 17.5703 29.6202 17.5103C29.5102 17.4503 29.4302 17.3703 29.3702 17.2603C29.3102 17.1503 29.2802 17.0402 29.2802 16.9102C29.2802 16.7802 29.3102 16.6602 29.3702 16.5602C29.4302 16.4502 29.5102 16.3702 29.6202 16.3102C29.7302 16.2502 29.8402 16.2202 29.9802 16.2202C30.1202 16.2202 30.2302 16.2502 30.3302 16.3102C30.4302 16.3702 30.5202 16.4502 30.5802 16.5602C30.6402 16.6602 30.6702 16.7802 30.6702 16.9102C30.6702 17.0402 30.6402 17.1603 30.5802 17.2603C30.5202 17.3603 30.4302 17.4503 30.3302 17.5103ZM29.5602 17.6003C29.6802 17.6703 29.8202 17.7003 29.9702 17.7003C30.1202 17.7003 30.2602 17.6703 30.3802 17.6003C30.5002 17.5303 30.6002 17.4403 30.6702 17.3203C30.7402 17.2003 30.7802 17.0602 30.7802 16.9102C30.7802 16.7602 30.7502 16.6302 30.6702 16.5002C30.6002 16.3802 30.5102 16.2802 30.3802 16.2102C30.2502 16.1502 30.1202 16.1102 29.9702 16.1102C29.8202 16.1102 29.6802 16.1502 29.5602 16.2202C29.4302 16.2902 29.3302 16.3802 29.2702 16.5002C29.2002 16.6202 29.1602 16.7602 29.1602 16.9102C29.1602 17.0602 29.2002 17.2003 29.2702 17.3203C29.3402 17.4403 29.4402 17.5403 29.5602 17.6003Z" fill="#323334"/>
<path d="M32.5308 16.1299H32.4207V17.4899L31.3507 16.1299H31.2607V17.6999H31.3707V16.3399L32.4307 17.6999H32.5308V16.1299Z" fill="#323334"/>
<path d="M32.5308 16.1299H32.4207V17.4899L31.3507 16.1299H31.2607V17.6999H31.3707V16.3399L32.4307 17.6999H32.5308V16.1299Z" fill="#323334"/>
<path d="M34.2 17.1599L34.83 16.1299H34.71L34.15 17.0499L33.58 16.1299H33.46L34.09 17.1599V17.6999H34.2V17.1599Z" fill="#323334"/>
<path d="M34.2 17.1599L34.83 16.1299H34.71L34.15 17.0499L33.58 16.1299H33.46L34.09 17.1599V17.6999H34.2V17.1599Z" fill="#323334"/>
<path d="M35.7607 17.5899V17.6899H36.7708V17.5899H35.7607ZM36.7808 16.1299H35.7708V16.2299H36.7808V16.1299ZM36.7808 16.8499H35.7708V16.9499H36.7808V16.8499Z" fill="#323334"/>
<path d="M35.7607 17.5899V17.6899H36.7708V17.5899H35.7607ZM36.7808 16.1299H35.7708V16.2299H36.7808V16.1299ZM36.7808 16.8499H35.7708V16.9499H36.7808V16.8499Z" fill="#323334"/>
<path d="M38.6 16.1299H38.4901V17.4899L37.4301 16.1299H37.3301V17.6999H37.4401V16.3399L38.5101 17.6999H38.6V16.1299Z" fill="#323334"/>
<path d="M38.6 16.1299H38.4901V17.4899L37.4301 16.1299H37.3301V17.6999H37.4401V16.3399L38.5101 17.6999H38.6V16.1299Z" fill="#323334"/>
<path d="M39.52 16.2399V17.6999H39.6299V16.2399H40.2V16.1299H38.96V16.2399H39.52Z" fill="#323334"/>
<path d="M39.52 16.2399V17.6999H39.6299V16.2399H40.2V16.1299H38.96V16.2399H39.52Z" fill="#323334"/>
<path d="M41.3698 17.1506C41.4898 17.1206 41.5798 17.0506 41.6398 16.9706C41.6998 16.8806 41.7398 16.7806 41.7398 16.6606C41.7398 16.5006 41.6798 16.3706 41.5698 16.2806C41.4598 16.1806 41.3098 16.1406 41.1098 16.1406H40.5498V16.2406H41.1098C41.2698 16.2406 41.3998 16.2806 41.4898 16.3506C41.5798 16.4206 41.6198 16.5306 41.6198 16.6606C41.6198 16.7906 41.5798 16.9006 41.4898 16.9706C41.3998 17.0406 41.2698 17.0806 41.1098 17.0806H40.5498V17.6906H40.6698V17.1806H41.1098C41.1098 17.1806 41.2098 17.1806 41.2598 17.1706L41.6298 17.6906H41.7598L41.3698 17.1506Z" fill="#323334"/>
<path d="M41.3698 17.1506C41.4898 17.1206 41.5798 17.0506 41.6398 16.9706C41.6998 16.8806 41.7398 16.7806 41.7398 16.6606C41.7398 16.5006 41.6798 16.3706 41.5698 16.2806C41.4598 16.1806 41.3098 16.1406 41.1098 16.1406H40.5498V16.2406H41.1098C41.2698 16.2406 41.3998 16.2806 41.4898 16.3506C41.5798 16.4206 41.6198 16.5306 41.6198 16.6606C41.6198 16.7906 41.5798 16.9006 41.4898 16.9706C41.3998 17.0406 41.2698 17.0806 41.1098 17.0806H40.5498V17.6906H40.6698V17.1806H41.1098C41.1098 17.1806 41.2098 17.1806 41.2598 17.1706L41.6298 17.6906H41.7598L41.3698 17.1506Z" fill="#323334"/>
<path d="M42.2305 17.5899V17.6899H43.2405V17.5899H42.2305ZM43.2405 16.1299H42.2305V16.2299H43.2405V16.1299ZM43.2405 16.8499H42.2305V16.9499H43.2405V16.8499Z" fill="#323334"/>
<path d="M42.2305 17.5899V17.6899H43.2405V17.5899H42.2305ZM43.2405 16.1299H42.2305V16.2299H43.2405V16.1299ZM43.2405 16.8499H42.2305V16.9499H43.2405V16.8499Z" fill="#323334"/>
<path d="M45.0701 16.1299H44.9501V17.4899L43.8901 16.1299H43.79V17.6999H43.91V16.3399L44.98 17.6999H45.0701V16.1299Z" fill="#323334"/>
<path d="M45.0701 16.1299H44.9501V17.4899L43.8901 16.1299H43.79V17.6999H43.91V16.3399L44.98 17.6999H45.0701V16.1299Z" fill="#323334"/>
<path d="M46.2499 16.1299H46.14L45.4199 17.6999H45.5499L46.2 16.2599L46.8499 17.6999H46.9699L46.2499 16.1299Z" fill="#323334"/>
<path d="M46.2499 16.1299H46.14L45.4199 17.6999H45.5499L46.2 16.2599L46.8499 17.6999H46.9699L46.2499 16.1299Z" fill="#323334"/>
<path d="M48.8101 17.6999H48.92V16.1299H48.8201L48.1201 17.3399L47.42 16.1299H47.3301V17.6999H47.4401V16.3599L48.1 17.4899H48.1501L48.8 16.3599L48.8101 17.6999Z" fill="#323334"/>
<path d="M48.8101 17.6999H48.92V16.1299H48.8201L48.1201 17.3399L47.42 16.1299H47.3301V17.6999H47.4401V16.3599L48.1 17.4899H48.1501L48.8 16.3599L48.8101 17.6999Z" fill="#323334"/>
<path d="M49.6503 16.1299H49.5303V17.6899H49.6503V16.1299Z" fill="#323334"/>
<path d="M49.6503 16.1299H49.5303V17.6899H49.6503V16.1299Z" fill="#323334"/>
<path d="M50.2607 17.5899V17.6899H51.2708V17.5899H50.2607ZM51.2708 16.1299H50.2607V16.2299H51.2708V16.1299ZM51.2708 16.8499H50.2607V16.9499H51.2708V16.8499Z" fill="#323334"/>
<path d="M50.2607 17.5899V17.6899H51.2708V17.5899H50.2607ZM51.2708 16.1299H50.2607V16.2299H51.2708V16.1299ZM51.2708 16.8499H50.2607V16.9499H51.2708V16.8499Z" fill="#323334"/>
<path d="M53.1 16.1299H52.9901V17.4899L51.92 16.1299H51.8301V17.6999H51.9401V16.3399L53.0001 17.6999H53.1V16.1299Z" fill="#323334"/>
<path d="M53.1 16.1299H52.9901V17.4899L51.92 16.1299H51.8301V17.6999H51.9401V16.3399L53.0001 17.6999H53.1V16.1299Z" fill="#323334"/>
<path d="M54.0102 16.2399V17.6999H54.1302V16.2399H54.6902V16.1299H53.4502V16.2399H54.0102Z" fill="#323334"/>
<path d="M54.0102 16.2399V17.6999H54.1302V16.2399H54.6902V16.1299H53.4502V16.2399H54.0102Z" fill="#323334"/>
<path d="M56.0401 17.5104C55.9301 17.5704 55.8101 17.6004 55.6901 17.6004C55.5701 17.6004 55.4401 17.5704 55.3301 17.5104C55.2201 17.4504 55.1401 17.3704 55.0801 17.2604C55.0201 17.1504 54.9901 17.0404 54.9901 16.9104C54.9901 16.7804 55.0201 16.6604 55.0801 16.5604C55.1401 16.4504 55.2201 16.3704 55.3301 16.3104C55.4401 16.2504 55.5501 16.2204 55.6901 16.2204C55.8301 16.2204 55.9401 16.2504 56.0401 16.3104C56.1401 16.3704 56.2301 16.4504 56.2901 16.5604C56.3501 16.6604 56.3801 16.7804 56.3801 16.9104C56.3801 17.0404 56.3501 17.1604 56.2901 17.2604C56.2301 17.3604 56.1401 17.4504 56.0401 17.5104ZM55.2701 17.6004C55.3901 17.6704 55.5301 17.7004 55.6801 17.7004C55.8301 17.7004 55.9701 17.6704 56.0901 17.6004C56.2201 17.5304 56.3101 17.4404 56.3801 17.3204C56.4501 17.2004 56.4901 17.0604 56.4901 16.9104C56.4901 16.7604 56.4501 16.6304 56.3801 16.5004C56.3101 16.3804 56.2201 16.2804 56.0901 16.2104C55.9701 16.1504 55.8301 16.1104 55.6801 16.1104C55.5301 16.1104 55.3901 16.1504 55.2701 16.2204C55.1501 16.2904 55.0501 16.3804 54.9801 16.5004C54.9101 16.6204 54.8701 16.7604 54.8701 16.9104C54.8701 17.0604 54.9001 17.2004 54.9801 17.3204C55.0501 17.4404 55.1501 17.5404 55.2701 17.6004Z" fill="#323334"/>
<path d="M56.0401 17.5104C55.9301 17.5704 55.8101 17.6004 55.6901 17.6004C55.5701 17.6004 55.4401 17.5704 55.3301 17.5104C55.2201 17.4504 55.1401 17.3704 55.0801 17.2604C55.0201 17.1504 54.9901 17.0404 54.9901 16.9104C54.9901 16.7804 55.0201 16.6604 55.0801 16.5604C55.1401 16.4504 55.2201 16.3704 55.3301 16.3104C55.4401 16.2504 55.5501 16.2204 55.6901 16.2204C55.8301 16.2204 55.9401 16.2504 56.0401 16.3104C56.1401 16.3704 56.2301 16.4504 56.2901 16.5604C56.3501 16.6604 56.3801 16.7804 56.3801 16.9104C56.3801 17.0404 56.3501 17.1604 56.2901 17.2604C56.2301 17.3604 56.1401 17.4504 56.0401 17.5104ZM55.2701 17.6004C55.3901 17.6704 55.5301 17.7004 55.6801 17.7004C55.8301 17.7004 55.9701 17.6704 56.0901 17.6004C56.2201 17.5304 56.3101 17.4404 56.3801 17.3204C56.4501 17.2004 56.4901 17.0604 56.4901 16.9104C56.4901 16.7604 56.4501 16.6304 56.3801 16.5004C56.3101 16.3804 56.2201 16.2804 56.0901 16.2104C55.9701 16.1504 55.8301 16.1104 55.6801 16.1104C55.5301 16.1104 55.3901 16.1504 55.2701 16.2204C55.1501 16.2904 55.0501 16.3804 54.9801 16.5004C54.9101 16.6204 54.8701 16.7604 54.8701 16.9104C54.8701 17.0604 54.9001 17.2004 54.9801 17.3204C55.0501 17.4404 55.1501 17.5404 55.2701 17.6004Z" fill="#323334"/>
<path d="M4.50027 1.43015V12.3902H5.36026V1.43015H9.58026V0.660156H0.280273V1.43015H4.50027Z" fill="#323334"/>
<path d="M18.7903 8.28992C19.6603 8.03992 20.3504 7.5999 20.8204 6.9599C21.2904 6.3199 21.5403 5.5499 21.5403 4.6199C21.5403 3.3899 21.1204 2.41991 20.2804 1.71991C19.4404 1.01991 18.2904 0.669922 16.8104 0.669922H12.6104V1.43991H16.8104C18.0504 1.43991 19.0104 1.72991 19.6804 2.27991C20.3304 2.82991 20.6703 3.61991 20.6703 4.62991C20.6703 5.63991 20.3304 6.4399 19.6804 6.9899C19.0104 7.5399 18.0504 7.80991 16.8104 7.80991H12.6104V12.3999H13.4604V8.55991H16.8104C17.1504 8.55991 17.5304 8.53992 17.9504 8.47992L20.7504 12.3999H21.7303L18.7903 8.28992Z" fill="#323334"/>
<path d="M25.6201 11.6201V12.3902H33.2101V11.6201H25.6201ZM33.2101 0.660156H25.6201V1.43015H33.2101V0.660156ZM33.2101 6.06015H25.6201V6.81015H33.2101V6.06015Z" fill="#323334"/>
<path d="M61.2504 0.660156H60.3904V10.8502L52.4104 0.660156H51.6904V12.3902H52.5504V2.20016L60.5404 12.3902H61.2504V0.660156Z" fill="#323334"/>
<path d="M43.6098 1.71002H43.5498C43.5498 1.71002 43.4998 1.71003 43.4798 1.72003C43.4598 1.72003 43.4298 1.73002 43.4098 1.74002C43.3898 1.74002 43.3698 1.76002 43.3498 1.77002C43.3298 1.78002 43.3098 1.80003 43.2898 1.81003C43.2898 1.81003 43.2598 1.84002 43.2398 1.86002C43.2198 1.88002 43.1998 1.91002 43.1798 1.93002C43.1798 1.95002 43.1498 1.98003 43.1498 2.00003C43.1498 2.02003 43.1298 2.05004 43.1298 2.07004C43.1298 2.09004 43.1198 2.12005 43.1098 2.14005V2.22003C43.1098 2.22003 43.1098 2.27004 43.1098 2.29004C43.1098 2.31004 43.1198 2.34002 43.1298 2.36002C43.1298 2.38002 43.1498 2.40004 43.1598 2.42004C43.1598 2.44004 43.1898 2.47004 43.1998 2.48004C43.2098 2.50004 43.2298 2.52004 43.2498 2.54004C43.2598 2.55004 43.2798 2.57002 43.2998 2.58002C43.3198 2.58002 43.3398 2.61002 43.3498 2.61002C43.3598 2.61002 43.3898 2.63004 43.3998 2.63004C43.4098 2.63004 43.4598 2.65003 43.4998 2.66003C43.5398 2.67003 43.6098 2.69002 43.6498 2.71002C43.6898 2.72002 43.7598 2.75004 43.7998 2.76004C43.8398 2.77004 43.8998 2.80004 43.9398 2.82004C43.9698 2.83004 44.0398 2.86004 44.0798 2.88004C44.1198 2.90004 44.1998 2.93002 44.2498 2.96002C44.2998 2.99002 44.3698 3.02002 44.4098 3.05002C44.4498 3.07002 44.5098 3.11004 44.5598 3.13004C44.5998 3.16004 44.6598 3.20004 44.6998 3.23004C44.7398 3.25004 44.7998 3.30002 44.8398 3.33002C44.8798 3.36002 44.9398 3.40002 44.9698 3.43002C44.9998 3.46002 45.0498 3.49004 45.0698 3.51004C45.0898 3.53004 45.1398 3.57003 45.1698 3.59003C45.1998 3.62003 45.2398 3.66002 45.2698 3.68002C45.2998 3.70002 45.3498 3.75002 45.3998 3.80002C45.4398 3.84002 45.5098 3.90003 45.5398 3.94003C45.5698 3.97003 45.6198 4.03003 45.6498 4.06003C45.6798 4.09003 45.7398 4.16002 45.7698 4.21002C45.8098 4.26002 45.8598 4.32002 45.8898 4.36002C45.9198 4.40002 45.9698 4.48003 46.0098 4.53003C46.0498 4.59003 46.0898 4.66004 46.1198 4.70004C46.1498 4.74004 46.1898 4.81004 46.2098 4.85004C46.2298 4.89004 46.2698 4.97002 46.2998 5.02002C46.3198 5.07002 46.3598 5.14002 46.3798 5.18002C46.3998 5.22002 46.4198 5.29002 46.4398 5.33002C46.4598 5.37002 46.4798 5.43004 46.4998 5.48004C46.5098 5.52004 46.5398 5.59005 46.5598 5.64005C46.5698 5.68005 46.5998 5.76002 46.6098 5.80002C46.6198 5.85002 46.6498 5.92002 46.6498 5.96002C46.6598 6.00002 46.6798 6.08003 46.6898 6.12003C46.6898 6.16003 46.7198 6.23002 46.7198 6.27002C46.7198 6.31002 46.7398 6.38004 46.7498 6.42004C46.7498 6.46004 46.7698 6.53003 46.7698 6.56003C46.7698 6.59003 46.7698 6.64003 46.7698 6.66003C46.7698 6.68003 46.7698 6.73003 46.7698 6.78003C46.7698 6.83003 46.7698 6.94004 46.7698 7.04004C46.7698 7.16004 46.7698 7.25003 46.7698 7.31003C46.7698 7.36003 46.7698 7.43003 46.7598 7.47003C46.7598 7.51003 46.7598 7.57003 46.7598 7.59003C46.7598 7.62003 46.7598 7.67002 46.7498 7.71002C46.7498 7.74002 46.7398 7.81004 46.7298 7.85004C46.7298 7.89004 46.7098 7.97004 46.6998 8.01004C46.6998 8.05004 46.6798 8.12004 46.6698 8.17004C46.6698 8.22004 46.6398 8.29002 46.6298 8.33002C46.6198 8.38002 46.5898 8.45003 46.5798 8.50003C46.5698 8.55003 46.5398 8.62002 46.5298 8.65002C46.5198 8.69002 46.4898 8.75002 46.4698 8.80002C46.4498 8.84002 46.4198 8.92002 46.3998 8.96002C46.3798 9.00002 46.3498 9.07002 46.3298 9.11002C46.3098 9.15002 46.2698 9.22004 46.2498 9.26004C46.2298 9.31004 46.1898 9.37003 46.1698 9.41003C46.1498 9.45003 46.1098 9.50003 46.0998 9.53003C46.0798 9.56003 46.0398 9.62003 46.0098 9.66003C45.9798 9.70003 45.9398 9.76002 45.9098 9.80002C45.8798 9.83002 45.8398 9.89004 45.8198 9.92004C45.7898 9.96004 45.7498 10.01 45.7198 10.04C45.6898 10.07 45.6498 10.12 45.6298 10.14C45.6098 10.16 45.5598 10.22 45.5198 10.26C45.4798 10.3 45.4198 10.37 45.3698 10.41C45.3298 10.45 45.2698 10.51 45.2398 10.53C45.2098 10.56 45.1498 10.6 45.1198 10.63C45.0798 10.66 45.0198 10.71 44.9998 10.73C44.9698 10.75 44.9198 10.79 44.8798 10.82C44.8398 10.85 44.7898 10.89 44.7498 10.91C44.7098 10.94 44.6498 10.98 44.6098 11C44.5698 11.03 44.5098 11.06 44.4798 11.08C44.4498 11.1 44.3898 11.13 44.3598 11.15C44.3298 11.17 44.2598 11.21 44.1998 11.23C44.1398 11.26 44.0698 11.29 44.0198 11.31C43.9798 11.33 43.9098 11.36 43.8698 11.37C43.8298 11.39 43.7698 11.41 43.7298 11.43C43.6898 11.44 43.6198 11.46 43.5798 11.48C43.5398 11.49 43.4798 11.51 43.4498 11.52C43.4098 11.53 43.3598 11.55 43.3198 11.55C43.2898 11.56 43.2198 11.58 43.1798 11.58C43.1398 11.59 43.0698 11.61 43.0398 11.61C42.9998 11.61 42.9398 11.63 42.8998 11.64C42.8598 11.64 42.7898 11.66 42.7498 11.67C42.6998 11.67 42.6198 11.68 42.5798 11.69C42.5298 11.69 42.4598 11.69 42.4198 11.7C42.3798 11.7 42.2698 11.7 42.1598 11.7C42.0498 11.7 41.9398 11.7 41.8998 11.7C41.8598 11.7 41.7898 11.7 41.7498 11.69C41.6998 11.69 41.6398 11.68 41.5998 11.67C41.5698 11.67 41.4998 11.66 41.4598 11.65C41.4198 11.65 41.3498 11.63 41.3098 11.62C41.2698 11.62 41.2098 11.6 41.1798 11.59C41.1498 11.59 41.0898 11.57 41.0598 11.56C41.0298 11.56 40.9698 11.54 40.9298 11.53C40.8898 11.53 40.8298 11.5 40.7898 11.49C40.7598 11.48 40.6898 11.46 40.6598 11.45C40.6298 11.44 40.5698 11.42 40.5398 11.41C40.5098 11.4 40.4398 11.37 40.4098 11.35C40.3698 11.33 40.3098 11.31 40.2698 11.29C40.2398 11.27 40.1798 11.25 40.1398 11.23C40.0998 11.21 40.0398 11.18 39.9998 11.16C39.9598 11.14 39.8998 11.1 39.8698 11.08C39.8398 11.06 39.7798 11.03 39.7498 11.01C39.7198 10.99 39.6498 10.95 39.6098 10.92C39.5698 10.89 39.4998 10.84 39.4598 10.81C39.4198 10.78 39.3598 10.74 39.3298 10.71C39.2998 10.68 39.2398 10.64 39.2098 10.61C39.1798 10.58 39.1098 10.53 39.0798 10.49C39.0398 10.45 38.9798 10.39 38.9298 10.35C38.8898 10.31 38.8198 10.24 38.7898 10.21C38.7598 10.17 38.7098 10.12 38.6798 10.09C38.6498 10.06 38.6098 10.01 38.5898 9.98004C38.5598 9.94004 38.5298 9.90004 38.5098 9.88004C38.4898 9.85004 38.4498 9.81002 38.4298 9.77002C38.3998 9.74002 38.3498 9.66002 38.3198 9.61002C38.2798 9.55002 38.2298 9.48002 38.1998 9.43002C38.1698 9.39002 38.1398 9.32004 38.1198 9.29004C38.0998 9.26004 38.0598 9.17002 38.0198 9.11002C37.9898 9.04002 37.9498 8.96004 37.9298 8.92004C37.9098 8.88004 37.8798 8.80004 37.8598 8.76004C37.8398 8.71004 37.8098 8.64004 37.7998 8.60004C37.7898 8.55004 37.7598 8.48003 37.7498 8.44003C37.7398 8.40003 37.7198 8.33002 37.7098 8.30002C37.7098 8.26002 37.6798 8.20003 37.6798 8.16003C37.6798 8.12003 37.6498 8.06002 37.6398 8.02002C37.6398 7.98002 37.6198 7.91003 37.6098 7.87003C37.6098 7.83003 37.5898 7.76003 37.5798 7.72003C37.5798 7.68003 37.5698 7.61004 37.5598 7.57004C37.5598 7.53004 37.5498 7.47002 37.5398 7.43002C37.5398 7.40002 37.5398 7.32002 37.5398 7.27002C37.5398 7.21002 37.5398 7.11004 37.5398 7.01004C37.5398 6.92004 37.5398 6.81004 37.5398 6.76004C37.5398 6.72004 37.5498 6.65004 37.5598 6.60004C37.5598 6.56004 37.5598 6.50003 37.5698 6.47003C37.5698 6.44003 37.5798 6.38004 37.5898 6.35004C37.5898 6.31004 37.6098 6.25002 37.6198 6.21002C37.6198 6.17002 37.6398 6.11004 37.6498 6.07004C37.6498 6.03004 37.6698 5.98003 37.6798 5.94003C37.6798 5.90003 37.7098 5.84002 37.7198 5.80002C37.7298 5.76002 37.7498 5.70003 37.7598 5.66003C37.7798 5.62003 37.7998 5.55004 37.8098 5.51004C37.8198 5.48004 37.8398 5.41004 37.8598 5.38004C37.8698 5.34004 37.8898 5.29004 37.9098 5.26004C37.9198 5.23004 37.9398 5.18002 37.9598 5.15002C37.9698 5.11002 38.0098 5.04002 38.0398 4.99002C38.0698 4.93002 38.0998 4.86002 38.1198 4.83002C38.1398 4.79002 38.1798 4.73003 38.1998 4.69003C38.2298 4.65003 38.2698 4.58003 38.2998 4.53003C38.3298 4.49003 38.3698 4.43002 38.3898 4.40002C38.4098 4.37002 38.4498 4.33002 38.4698 4.30002C38.4898 4.27002 38.5298 4.22002 38.5598 4.18002C38.5898 4.14002 38.6398 4.09002 38.6598 4.05002C38.6898 4.02002 38.7398 3.96004 38.7798 3.92004C38.8098 3.89004 38.8798 3.82002 38.9198 3.77002C38.9698 3.73002 39.0298 3.67005 39.0598 3.64005C39.0998 3.61005 39.1598 3.56003 39.1898 3.53003C39.2298 3.50003 39.2898 3.45004 39.3198 3.42004C39.3498 3.39004 39.4098 3.35004 39.4398 3.32004C39.4798 3.29004 39.5498 3.25003 39.5898 3.22003C39.6398 3.19003 39.7098 3.14002 39.7698 3.11002C39.8198 3.08002 39.8898 3.04004 39.9298 3.01004C39.9698 2.99004 40.0398 2.95002 40.0898 2.93002C40.1398 2.90002 40.2098 2.87002 40.2398 2.86002C40.2798 2.84002 40.3398 2.82002 40.3698 2.80002C40.3998 2.79002 40.4698 2.76002 40.5098 2.74002C40.5498 2.73002 40.6198 2.70002 40.6698 2.68002C40.7198 2.66002 40.7698 2.65005 40.7898 2.64005C40.8098 2.64005 40.8298 2.61002 40.8498 2.61002C40.8698 2.60002 40.8998 2.57002 40.9198 2.55002C40.9398 2.52002 40.9698 2.49004 40.9798 2.48004C40.9798 2.46004 41.0098 2.44004 41.0098 2.42004C41.0098 2.40004 41.0298 2.38002 41.0298 2.36002C41.0298 2.34002 41.0398 2.32002 41.0498 2.30002C41.0498 2.28002 41.0498 2.24003 41.0498 2.22003C41.0498 2.19003 41.0498 2.16005 41.0498 2.14005C41.0498 2.12005 41.0398 2.09004 41.0298 2.07004C41.0298 2.05004 41.0098 2.02003 40.9998 2.00003C40.9898 1.98003 40.9698 1.95002 40.9598 1.93002C40.9498 1.91002 40.9198 1.89003 40.9098 1.87003C40.8998 1.86003 40.8698 1.84002 40.8598 1.83002C40.8398 1.82002 40.8098 1.80004 40.7898 1.79004C40.7698 1.79004 40.7398 1.77004 40.7198 1.76004C40.6998 1.76004 40.6698 1.74002 40.6498 1.74002C40.6298 1.74002 40.5898 1.74002 40.5698 1.74002C40.5398 1.74002 40.4998 1.74002 40.4798 1.74002C40.4598 1.74002 40.3898 1.76003 40.3398 1.78003C40.2898 1.80003 40.2198 1.82003 40.1798 1.84003C40.1498 1.85003 40.0898 1.87004 40.0598 1.88004C40.0298 1.89004 39.9798 1.91002 39.9398 1.93002C39.9098 1.94002 39.8498 1.96004 39.8198 1.98004C39.7798 2.00004 39.7198 2.03002 39.6698 2.05002C39.6198 2.08002 39.5598 2.11004 39.5198 2.13004C39.4798 2.15004 39.4298 2.18004 39.3998 2.20004C39.3698 2.22004 39.3198 2.24004 39.2898 2.26004C39.2598 2.28004 39.2098 2.31002 39.1798 2.33002C39.1498 2.35002 39.0898 2.39003 39.0598 2.41003C39.0198 2.44003 38.9598 2.48003 38.9298 2.50003C38.8898 2.52003 38.8398 2.56002 38.8098 2.58002C38.7798 2.61002 38.7298 2.64003 38.7098 2.66003C38.6798 2.68003 38.6498 2.71003 38.6298 2.72003C38.6098 2.74003 38.5598 2.77002 38.5298 2.80002C38.4998 2.83002 38.4398 2.87003 38.3998 2.91003C38.3598 2.95003 38.2998 3.01002 38.2498 3.05002C38.1998 3.09002 38.1398 3.16004 38.0998 3.20004C38.0698 3.24004 38.0098 3.30004 37.9798 3.32004C37.9498 3.35004 37.9098 3.40002 37.8798 3.43002C37.8498 3.46002 37.8098 3.52002 37.7798 3.55002C37.7498 3.59002 37.7098 3.65002 37.6798 3.68002C37.6498 3.71002 37.6098 3.77002 37.5898 3.80002C37.5698 3.83002 37.5298 3.88003 37.5098 3.91003C37.4898 3.94003 37.4498 4.00004 37.4198 4.04004C37.3898 4.08004 37.3498 4.14002 37.3298 4.18002C37.3098 4.22002 37.2698 4.29002 37.2398 4.33002C37.2198 4.38002 37.1698 4.47004 37.1398 4.54004C37.1098 4.61004 37.0598 4.70002 37.0398 4.74002C37.0198 4.78002 36.9898 4.85005 36.9798 4.89005C36.9598 4.93005 36.9398 4.99003 36.9198 5.03003C36.9098 5.07003 36.8798 5.13004 36.8698 5.17004C36.8598 5.21004 36.8398 5.27002 36.8298 5.30002C36.8198 5.33002 36.7998 5.40003 36.7798 5.44003C36.7698 5.48003 36.7498 5.56004 36.7398 5.60004C36.7398 5.64004 36.7098 5.71004 36.6998 5.76004C36.6898 5.81004 36.6698 5.89004 36.6598 5.95004C36.6498 6.00004 36.6298 6.07002 36.6198 6.11002C36.6198 6.14002 36.6098 6.21002 36.5998 6.24002C36.5998 6.27002 36.5798 6.34005 36.5798 6.39005C36.5798 6.43005 36.5698 6.50003 36.5698 6.53003C36.5698 6.57003 36.5698 6.63002 36.5598 6.68002C36.5598 6.72002 36.5598 6.83003 36.5498 6.91003V7.20004C36.5498 7.28004 36.5498 7.39002 36.5598 7.43002C36.5598 7.47002 36.5598 7.54004 36.5698 7.57004C36.5698 7.60004 36.5698 7.67004 36.5798 7.70004C36.5898 7.73004 36.5798 7.80002 36.5998 7.83002C36.5998 7.87002 36.6098 7.93004 36.6198 7.95004C36.6198 7.98004 36.6398 8.04002 36.6398 8.08002C36.6398 8.12002 36.6598 8.18004 36.6698 8.23004C36.6698 8.27004 36.6998 8.35005 36.7098 8.39005C36.7198 8.44005 36.7398 8.50003 36.7498 8.53003C36.7498 8.56003 36.7798 8.62003 36.7898 8.66003C36.7998 8.71003 36.8298 8.78002 36.8398 8.83002C36.8598 8.88002 36.8798 8.95003 36.8998 9.00003C36.9198 9.04003 36.9398 9.11002 36.9598 9.15002C36.9798 9.18002 36.9998 9.25002 37.0298 9.30002C37.0498 9.35002 37.0898 9.43002 37.1198 9.49002C37.1498 9.55002 37.1898 9.63002 37.2198 9.68002C37.2398 9.72002 37.2798 9.79004 37.2998 9.82004C37.3198 9.85004 37.3598 9.92002 37.3798 9.96002C37.4098 10 37.4498 10.08 37.4898 10.13C37.5198 10.18 37.5698 10.25 37.5898 10.28C37.6098 10.31 37.6498 10.37 37.6798 10.4C37.7098 10.44 37.7598 10.5 37.7898 10.54C37.8198 10.58 37.8698 10.64 37.8998 10.67C37.9298 10.7 37.9698 10.75 37.9898 10.78C38.0098 10.8 38.0698 10.86 38.1098 10.9C38.1598 10.95 38.2298 11.02 38.2798 11.07C38.3298 11.12 38.3898 11.17 38.4098 11.19C38.4298 11.21 38.4798 11.25 38.5198 11.29C38.5598 11.32 38.6198 11.37 38.6498 11.4C38.6898 11.43 38.7498 11.48 38.7898 11.5C38.8198 11.53 38.8798 11.57 38.9098 11.59C38.9398 11.61 38.9998 11.66 39.0498 11.69C39.0998 11.72 39.1698 11.76 39.2098 11.79C39.2498 11.82 39.3198 11.86 39.3698 11.89C39.4198 11.92 39.4898 11.96 39.5298 11.98C39.5598 12 39.6498 12.04 39.6998 12.07C39.7598 12.1 39.8398 12.14 39.8898 12.16C39.9398 12.18 40.0198 12.22 40.0798 12.24C40.1398 12.26 40.2098 12.29 40.2498 12.31C40.2898 12.33 40.3598 12.35 40.4098 12.36C40.4598 12.38 40.5298 12.4 40.5698 12.41C40.6098 12.42 40.6798 12.44 40.7298 12.45C40.7798 12.46 40.8498 12.48 40.8998 12.49C40.9498 12.49 41.0198 12.52 41.0698 12.52C41.1198 12.53 41.1998 12.55 41.2398 12.55C41.2898 12.55 41.3498 12.57 41.3898 12.58C41.4298 12.58 41.4898 12.59 41.5098 12.59C41.5398 12.59 41.5898 12.59 41.6198 12.6C41.6598 12.6 41.7198 12.6 41.7598 12.61C41.7998 12.61 41.8898 12.61 41.9498 12.61C42.0198 12.61 42.1198 12.61 42.2198 12.61C42.2998 12.61 42.4098 12.61 42.4398 12.61C42.4798 12.61 42.5398 12.61 42.5898 12.61C42.6298 12.61 42.6998 12.6 42.7498 12.59C42.7998 12.59 42.8898 12.57 42.9398 12.56C42.9998 12.56 43.0798 12.54 43.1298 12.53C43.1698 12.53 43.2398 12.51 43.2798 12.5C43.3098 12.5 43.3798 12.48 43.4198 12.47C43.4598 12.47 43.5398 12.44 43.5898 12.43C43.6398 12.42 43.7098 12.4 43.7598 12.38C43.7998 12.37 43.8798 12.35 43.9298 12.33C43.9798 12.31 44.0498 12.29 44.0898 12.27C44.1198 12.26 44.1798 12.24 44.2298 12.22C44.2698 12.2 44.3398 12.18 44.3798 12.16C44.4198 12.14 44.4798 12.12 44.5198 12.1C44.5598 12.08 44.6098 12.06 44.6498 12.04C44.6798 12.02 44.7398 12 44.7698 11.98C44.7998 11.96 44.8698 11.93 44.9098 11.91C44.9498 11.89 45.0198 11.85 45.0598 11.82C45.0998 11.79 45.1698 11.75 45.2098 11.72C45.2498 11.69 45.3098 11.66 45.3298 11.64C45.3598 11.62 45.4098 11.58 45.4398 11.56C45.4798 11.54 45.5398 11.49 45.5698 11.46C45.6098 11.43 45.6698 11.38 45.6998 11.35C45.7398 11.32 45.7998 11.27 45.8298 11.24C45.8598 11.21 45.9098 11.17 45.9398 11.14C45.9698 11.11 46.0298 11.06 46.0698 11.02C46.1098 10.98 46.1698 10.92 46.1998 10.88C46.2298 10.85 46.2898 10.79 46.3198 10.75C46.3498 10.72 46.3998 10.65 46.4398 10.61C46.4698 10.57 46.5298 10.51 46.5598 10.46C46.5898 10.42 46.6398 10.35 46.6698 10.31C46.6998 10.27 46.7498 10.19 46.7798 10.15C46.8098 10.1 46.8598 10.03 46.8798 9.99002C46.9098 9.95002 46.9398 9.89004 46.9698 9.85004C46.9898 9.81004 47.0298 9.75002 47.0498 9.71002C47.0698 9.67002 47.1098 9.59004 47.1398 9.54004C47.1698 9.49004 47.2098 9.41004 47.2198 9.38004C47.2398 9.35004 47.2698 9.28004 47.2898 9.23004C47.3098 9.18004 47.3498 9.09004 47.3598 9.04004C47.3798 8.99004 47.4198 8.89004 47.4398 8.82004C47.4598 8.76004 47.4898 8.66004 47.5098 8.60004C47.5298 8.54004 47.5498 8.46003 47.5598 8.41003C47.5698 8.36003 47.5898 8.28004 47.5998 8.23004C47.5998 8.18004 47.6298 8.10002 47.6398 8.05002C47.6398 8.00002 47.6598 7.94002 47.6698 7.90002C47.6698 7.87002 47.6798 7.80004 47.6898 7.76004C47.6898 7.72004 47.6998 7.65002 47.7098 7.61002C47.7098 7.57002 47.7098 7.49004 47.7198 7.45004C47.7198 7.40004 47.7198 7.31002 47.7198 7.24002C47.7198 7.17002 47.7198 7.06004 47.7198 6.98004C47.7198 6.91004 47.7198 6.81002 47.7198 6.77002C47.7198 6.73002 47.7198 6.66003 47.7198 6.62003C47.7198 6.58003 47.7198 6.50004 47.7098 6.45004C47.7098 6.40004 47.6898 6.32003 47.6898 6.28003C47.6898 6.24003 47.6698 6.17004 47.6598 6.13004C47.6598 6.09004 47.6398 6.02003 47.6298 5.97003C47.6198 5.92003 47.5998 5.85002 47.5898 5.80002C47.5898 5.76002 47.5598 5.69002 47.5598 5.65002C47.5598 5.61002 47.5298 5.55002 47.5198 5.52002C47.5198 5.48002 47.4898 5.41002 47.4698 5.36002C47.4598 5.31002 47.4298 5.24004 47.4198 5.20004C47.3998 5.16004 47.3798 5.10002 47.3798 5.08002C47.3698 5.05002 47.3498 5.01004 47.3398 4.98004C47.3298 4.94004 47.3098 4.89004 47.2898 4.85004C47.2698 4.81004 47.2498 4.75002 47.2198 4.71002C47.1998 4.67002 47.1698 4.60002 47.1398 4.55002C47.1198 4.51002 47.0798 4.44002 47.0598 4.40002C47.0398 4.36002 47.0098 4.30002 46.9898 4.27002C46.9698 4.23002 46.9298 4.17004 46.9098 4.13004C46.8798 4.09004 46.8398 4.03004 46.8098 3.98004C46.7798 3.94004 46.7398 3.87003 46.7098 3.84003C46.6898 3.81003 46.6398 3.75002 46.6098 3.71002C46.5798 3.67002 46.5198 3.60003 46.4898 3.56003C46.4498 3.51003 46.3998 3.45003 46.3698 3.41003C46.3398 3.38003 46.2998 3.33002 46.2698 3.30002C46.2398 3.27002 46.1898 3.21002 46.1598 3.18002C46.1298 3.15002 46.0598 3.08004 46.0298 3.04004C45.9898 3.00004 45.9298 2.95002 45.9098 2.93002C45.8798 2.91002 45.8498 2.87002 45.8298 2.86002C45.8098 2.84002 45.7698 2.81003 45.7398 2.78003C45.7098 2.76003 45.6598 2.71002 45.6198 2.68002C45.5798 2.65002 45.5198 2.61002 45.4898 2.58002C45.4598 2.55002 45.3998 2.51002 45.3698 2.49002C45.3398 2.47002 45.2898 2.43003 45.2598 2.41003C45.2298 2.39003 45.1598 2.35004 45.1298 2.32004C45.0898 2.29004 45.0298 2.26002 44.9898 2.24002C44.9598 2.22002 44.8998 2.19004 44.8698 2.17004C44.8398 2.15004 44.7798 2.12004 44.7498 2.10004C44.7198 2.08004 44.6598 2.05003 44.6198 2.03003C44.5798 2.01003 44.5198 1.98002 44.4698 1.96002C44.4298 1.94002 44.3698 1.91005 44.3298 1.89005C44.2898 1.88005 44.2298 1.85003 44.2098 1.84003C44.1798 1.83003 44.1098 1.80004 44.0698 1.79004C44.0198 1.77004 43.9498 1.75004 43.9098 1.73004C43.8698 1.71004 43.7898 1.69002 43.7598 1.68002C43.7198 1.67002 43.6698 1.66002 43.6598 1.65002C43.6398 1.65002 43.6198 1.65002 43.5998 1.65002L43.6098 1.71002ZM42.1898 0.790039C42.1898 0.790039 42.1298 0.790039 42.1198 0.790039C42.0998 0.790039 42.0798 0.790039 42.0598 0.790039C42.0398 0.790039 42.0098 0.800028 41.9998 0.810028C41.9798 0.810028 41.9598 0.830027 41.9398 0.840027C41.9298 0.840027 41.9098 0.860026 41.8998 0.870026C41.8998 0.870026 41.8698 0.890024 41.8498 0.900024C41.8298 0.910024 41.8098 0.940022 41.7998 0.960022C41.7898 0.980022 41.7698 1.00004 41.7598 1.01004C41.7598 1.01004 41.7398 1.04003 41.7298 1.06003C41.7298 1.08003 41.7098 1.10003 41.6998 1.12003C41.6998 1.13003 41.6898 1.16003 41.6898 1.19003V1.22003V4.22003C41.6898 6.85003 41.6898 7.22003 41.6898 7.25003C41.6898 7.27003 41.6998 7.30004 41.7098 7.32004C41.7098 7.34004 41.7298 7.36004 41.7298 7.38004C41.7298 7.39004 41.7498 7.42003 41.7698 7.44003C41.7798 7.46003 41.7998 7.48003 41.8098 7.50003C41.8198 7.51003 41.8398 7.53002 41.8498 7.55002C41.8598 7.55002 41.8898 7.58003 41.8998 7.59003C41.9198 7.59003 41.9398 7.61003 41.9598 7.62003C41.9698 7.62003 41.9998 7.64002 42.0098 7.65002C42.0298 7.65002 42.0598 7.66004 42.0798 7.67004C42.1098 7.67004 42.1298 7.67004 42.1698 7.67004C42.2098 7.67004 42.2298 7.67004 42.2598 7.67004C42.2798 7.67004 42.3198 7.65005 42.3398 7.64005C42.3598 7.64005 42.3898 7.62002 42.4098 7.61002C42.4298 7.60002 42.4498 7.58004 42.4698 7.57004C42.4798 7.56004 42.5098 7.54002 42.5298 7.52002C42.5398 7.50002 42.5698 7.48002 42.5798 7.46002C42.5898 7.44002 42.6098 7.42002 42.6098 7.40002C42.6098 7.39002 42.6298 7.36003 42.6298 7.34003C42.6298 7.32003 42.6398 7.29002 42.6498 7.27002V7.24002V1.23004V1.20004C42.6498 1.20004 42.6298 1.15004 42.6198 1.13004C42.6198 1.11004 42.5998 1.09004 42.5898 1.07004C42.5898 1.06004 42.5698 1.03004 42.5598 1.01004C42.5498 1.00004 42.5198 0.960033 42.4998 0.940033C42.4798 0.920033 42.4398 0.890035 42.4298 0.880035C42.4098 0.880035 42.3898 0.850037 42.3698 0.850037C42.3498 0.850037 42.3298 0.830017 42.3098 0.830017C42.2898 0.830017 42.2698 0.820028 42.2498 0.810028C42.2298 0.810028 42.1998 0.810028 42.1798 0.810028L42.1898 0.790039Z" fill="#323334"/>
</svg>
