<svg width="56" height="26" viewBox="0 0 56 26" fill="none" xmlns="http://www.w3.org/2000/svg">
<path d="M8.32016 8.87953H5.14017V5.67953L4.38016 7.71953L3.56015 5.67953V8.87953H0.410156V0.519531H3.56015L4.37015 3.90953L5.14017 0.519531H8.32016V8.87953Z" fill="#323334"/>
<path d="M17.7501 8.87953H9.87012V5.48953L10.6501 4.69953L9.87012 3.92953V0.519531H17.7501V3.21953H12.9901L14.6801 4.69953L12.9901 6.17953H17.7501V8.87953Z" fill="#323334"/>
<path d="M27.3503 8.87953H19.3203V6.14953L22.9503 3.21953H19.3203V0.519531H27.3503V3.23953L23.7103 6.17953H27.3503V8.87953Z" fill="#323334"/>
<path d="M36.6403 8.87953H28.7803V0.519531H36.6403V3.21953H31.6303V6.17953H36.6403V8.87953Z" fill="#323334"/>
<path d="M46.1 8.8793H43.26V7.9193H41.09V8.8793H38.25V0.529297H46.1V8.8793ZM43.25 5.1493V3.2193H41.09V5.1493H43.25Z" fill="#323334"/>
<path d="M55.5502 8.87953H47.7002V0.519531H50.5402V6.17953H55.5502V8.87953Z" fill="#323334"/>
<path d="M37.0704 9.76953H42.9104V11.1195H34.6904L37.0704 9.76953Z" fill="#323334"/>
<path d="M6.77014 11.7695V23.4795H4.65015V11.7695H0.410156V23.6695L3.03015 25.7995H11.0102V11.7695H6.77014Z" fill="#323334"/>
<path d="M34.3397 11.7695L32.2197 13.0095V25.7895H40.6997L42.8197 23.4695V11.7695H34.3397ZM38.5797 23.4795H36.6097V14.0995H38.5797V23.4795Z" fill="#323334"/>
<path d="M30.1004 11.7695H25.8604V25.7895H30.1004V11.7695Z" fill="#323334"/>
<path d="M23.7399 11.7695V25.6395H20.2799L16.5599 19.6895V25.6395H13.1299V11.7695H16.5699L20.3099 17.7595V11.7695H23.7399Z" fill="#323334"/>
<path d="M55.5504 11.7695V25.6395H52.0904L48.3704 19.6895V25.6395H44.9404V11.7695H48.3804L52.1204 17.7595V11.7695H55.5504Z" fill="#323334"/>
<path d="M53.3604 9.91992H53.5804L53.7504 10.4099C53.7704 10.4799 53.7904 10.5299 53.7904 10.5299C53.7904 10.5299 53.8004 10.4799 53.8204 10.4099L53.9904 9.91992H54.2104V10.7399H54.0604V10.0799C54.0604 10.0799 54.0504 10.1399 54.0104 10.2399L53.8404 10.7399H53.7204L53.5504 10.2399C53.5204 10.1499 53.5004 10.0799 53.5004 10.0799V10.7399H53.3604V9.91992Z" fill="#323334"/>
<path d="M54.5106 10.5791H54.3506V10.7391H54.5106V10.5791Z" fill="#323334"/>
<path d="M54.9504 10.4092H54.8004V10.7292H54.6504V9.90918H54.9604C55.0104 9.90918 55.0704 9.90918 55.1204 9.93918C55.1904 9.97918 55.2504 10.0392 55.2504 10.1392C55.2504 10.2792 55.1604 10.3392 55.0904 10.3592L55.2704 10.7192H55.1104L54.9504 10.3992V10.4092ZM54.9504 10.2992C55.0304 10.2992 55.1004 10.2592 55.1004 10.1592C55.1004 10.0592 55.0304 10.0192 54.9504 10.0192H54.8004V10.2992H54.9404H54.9504Z" fill="#323334"/>
<path d="M55.5301 10.5791H55.3701V10.7391H55.5301V10.5791Z" fill="#323334"/>
</svg>
