<svg width="71" height="31" viewBox="0 0 71 31" fill="none" xmlns="http://www.w3.org/2000/svg">
<path d="M45.2296 13.9795H42.0396C42.0196 13.8462 42.1496 13.7562 42.4296 13.7095C41.5996 11.9995 40.7796 10.2895 39.9396 8.53953C39.0096 10.3595 38.0996 12.1395 37.1696 13.9795C36.2496 12.1395 35.3596 10.3495 34.4396 8.52953C33.5096 10.3595 32.5996 12.1495 31.6596 13.9795C31.4496 13.5595 31.2596 13.1895 31.0696 12.8095C29.3096 9.28953 27.5596 5.76953 25.7996 2.24953C25.5496 1.74953 25.2996 1.25953 25.0596 0.749531C24.9796 0.579531 24.8796 0.48953 24.6896 0.52953C24.6496 0.52953 24.6096 0.53953 24.5796 0.52953C24.4996 0.48953 24.4296 0.439532 24.3496 0.399532C24.4196 0.359532 24.4896 0.29953 24.5596 0.27953C24.6696 0.25953 24.7896 0.27953 24.8996 0.27953C25.7096 0.27953 26.5296 0.27953 27.3396 0.27953C27.4296 0.27953 27.5196 0.359532 27.6096 0.399532C27.5196 0.439532 27.4396 0.49953 27.3496 0.52953C27.2996 0.54953 27.2396 0.53953 27.1496 0.54953C28.8896 4.14953 30.6196 7.73953 32.3696 11.3595C32.6296 10.8495 32.8796 10.3795 33.1196 9.89953C33.4196 9.30953 33.7296 8.71953 34.0096 8.12953C34.0596 8.01953 34.0696 7.84953 34.0096 7.74953C32.9096 5.46953 31.7896 3.20953 30.6796 0.929531C30.5396 0.639531 30.3896 0.46953 30.0496 0.52953C30.0096 0.52953 29.9596 0.519529 29.9096 0.509529C29.8496 0.349529 29.8796 0.269531 30.0596 0.269531C31.0196 0.269531 31.9696 0.269531 32.9296 0.269531C32.9996 0.269531 33.0596 0.349532 33.1296 0.399532C33.0596 0.439532 32.9996 0.499531 32.9196 0.519531C32.8396 0.539531 32.7596 0.529532 32.6296 0.539532C34.3696 4.14953 36.0996 7.73953 37.8496 11.3595C38.2596 10.5495 38.6596 9.77953 39.0496 9.00953C39.2096 8.69953 39.3696 8.38953 39.5196 8.07953C39.6396 7.83953 39.5896 7.74953 39.3196 7.74953C38.5296 7.74953 37.7496 7.72953 36.9596 7.74953C36.6596 7.74953 36.5296 7.64953 36.4796 7.34953H39.2896C39.2596 7.08953 39.1496 6.96953 38.8796 6.97953C38.1196 6.99953 37.3596 6.96953 36.6096 6.99953C36.2796 7.00953 36.1596 6.85953 36.0896 6.55953H38.9396C38.3396 5.31953 37.7696 4.11953 37.1596 2.85953C36.6696 3.84953 36.1896 4.79953 35.7196 5.74953C35.3996 5.37953 35.3896 5.27953 35.5896 4.86953C36.3096 3.42953 37.0396 1.97953 37.7596 0.539532C37.7996 0.459532 37.8396 0.379531 37.8996 0.269531C38.5096 1.49953 39.1096 2.68953 39.6996 3.87953C41.2896 7.04953 42.8696 10.2295 44.4496 13.4095C44.5696 13.6495 44.6996 13.7895 44.9796 13.7395C45.1196 13.7195 45.2596 13.7395 45.1796 13.9695L45.2296 13.9795ZM38.0296 1.22953C37.8996 1.46953 37.7896 1.61953 37.9096 1.86953C39.8196 5.73953 41.7196 9.60953 43.6096 13.4795C43.7296 13.7195 43.8596 13.8095 44.1296 13.6995C42.0996 9.54953 40.0796 5.40953 38.0296 1.22953ZM37.4496 12.1795C37.6196 11.9595 37.6896 11.7795 37.5596 11.5195C35.7896 7.92953 34.0296 4.33953 32.2696 0.749531C32.1396 0.479531 32.1096 0.469533 31.7796 0.579533C33.6696 4.43953 35.5596 8.29953 37.4596 12.1795H37.4496ZM31.9296 12.1695C32.1296 11.9495 32.1596 11.7595 32.0296 11.5095C30.2596 7.92953 28.5096 4.33953 26.7596 0.759529C26.6396 0.519529 26.4996 0.489532 26.2496 0.559532C28.1396 4.42953 30.0296 8.28953 31.9296 12.1695Z" fill="#323334"/>
<path d="M6.05993 24.9395C5.56993 23.8295 5.10992 22.7695 4.60992 21.6395C4.11992 22.7595 3.64992 23.8295 3.15992 24.9395C2.39992 23.1195 1.66992 21.3495 0.919922 19.5395C1.07992 19.5395 1.18992 19.5395 1.29992 19.5395C1.46992 19.5195 1.54992 19.5895 1.60992 19.7495C2.08992 20.9595 2.58993 22.1595 3.07993 23.3695C3.10993 23.4395 3.13992 23.5095 3.19992 23.6395C3.66992 22.5495 4.11992 21.5095 4.59992 20.4095C5.07992 21.4895 5.53992 22.5195 6.03992 23.6295C6.24992 23.1295 6.42992 22.6995 6.59992 22.2595C6.90992 21.4995 7.20992 20.7395 7.51992 19.9795C7.64659 19.6661 7.90326 19.5295 8.28992 19.5695C7.54992 21.3495 6.81993 23.1195 6.05993 24.9395Z" fill="#323334"/>
<path d="M54.2497 24.8494C52.7797 24.8494 51.6697 23.9294 51.4497 22.5594C51.1997 20.9894 52.3297 19.5694 53.9297 19.4494C55.2497 19.3494 56.3797 19.9394 56.8597 20.9694C57.7297 22.8494 56.3797 24.8594 54.2597 24.8494H54.2497ZM52.0097 22.1094C52.0097 23.3494 52.9797 24.3594 54.2497 24.3594C55.6297 24.3594 56.4997 23.3894 56.5097 22.1794C56.5197 20.8894 55.5597 19.9594 54.2397 19.9494C52.9397 19.9494 52.0097 20.8394 51.9997 22.0994L52.0097 22.1094Z" fill="#323334"/>
<path d="M25.7297 24.8491C24.3397 24.8491 23.2597 24.0291 22.9597 22.7491C22.5697 21.1091 23.7697 19.5191 25.4597 19.4391C26.6497 19.3891 27.6697 19.7491 28.2597 20.8391C29.2697 22.7191 27.9097 24.8791 25.7297 24.8391V24.8491ZM27.9897 22.1291C27.9897 20.8791 27.0297 19.9591 25.7197 19.9491C24.4197 19.9491 23.4797 20.8391 23.4797 22.0991C23.4797 23.3591 24.4997 24.3791 25.7397 24.3591C27.0497 24.3391 27.9797 23.4091 27.9797 22.1291H27.9897Z" fill="#323334"/>
<path d="M17.5498 19.4795C18.3498 19.5395 19.1598 19.5095 19.9198 19.6695C21.1598 19.9295 21.8698 20.8995 21.8598 22.1195C21.8498 23.3795 21.0698 24.4095 19.8298 24.6395C19.0898 24.7795 18.3298 24.7695 17.5498 24.8195V19.4795ZM18.0898 20.0095V24.3495C18.6398 24.2995 19.1698 24.2995 19.6798 24.1895C20.5698 23.9995 21.1898 23.2295 21.2598 22.3395C21.3398 21.3695 20.8698 20.5695 19.9998 20.1995C19.3898 19.9395 18.7398 20.0195 18.0798 20.0095H18.0898Z" fill="#323334"/>
<path d="M33.5996 24.7392C33.1596 24.8292 32.8696 24.7392 32.5896 24.4192C32.0096 23.7292 31.3796 23.0892 30.7796 22.4292C30.6996 22.3392 30.6196 22.2492 30.4996 22.1192C30.8896 22.1192 31.2197 22.1192 31.5497 22.1192C32.1797 22.0992 32.6596 21.6892 32.6996 21.1292C32.7396 20.5592 32.3296 20.1092 31.6396 20.0392C31.2496 19.9992 30.8496 20.0392 30.4296 20.0392V24.7692H29.8896V19.5892C29.8896 19.5892 29.9296 19.5592 29.9496 19.5592C30.5696 19.5592 31.1996 19.5292 31.8196 19.5592C32.7196 19.6092 33.2996 20.2392 33.2796 21.0792C33.2596 21.8792 32.6097 22.4592 31.7297 22.4792C31.6797 22.4792 31.6197 22.4792 31.5097 22.4892C32.2197 23.2592 32.8996 23.9892 33.5996 24.7492V24.7392Z" fill="#323334"/>
<path d="M58.9404 19.9896V24.7596H58.4004V19.5796C59.1304 19.5796 59.8604 19.5096 60.5804 19.5996C61.4104 19.6996 61.8704 20.3996 61.7904 21.2096C61.7204 21.9196 61.0804 22.4596 60.2904 22.4796C60.2304 22.4796 60.1604 22.4796 60.0204 22.4796C60.7404 23.2596 61.4204 23.9896 62.1404 24.7696C61.7704 24.7696 61.4904 24.8596 61.2204 24.5396C60.5604 23.7696 59.8604 23.0396 59.1704 22.2996C59.1304 22.2596 59.1104 22.2096 59.0504 22.1296C59.4104 22.1296 59.7304 22.1296 60.0504 22.1296C60.4104 22.1296 60.7404 22.0096 60.9804 21.7296C61.4904 21.1196 61.1904 20.2396 60.3804 20.0996C59.9204 20.0196 59.4404 20.0396 58.9504 20.0096L58.9404 19.9896Z" fill="#323334"/>
<path d="M8.07031 24.7491C8.86031 22.9691 9.64031 21.1991 10.4503 19.3691C11.2603 21.1991 12.0403 22.9691 12.8403 24.7591C12.7603 24.7591 12.7203 24.7691 12.6703 24.7791C12.3403 24.8491 12.1303 24.7091 12.0603 24.3791C11.9603 23.8891 11.6603 23.7491 11.1703 23.7891C10.5603 23.8391 9.94031 23.8091 9.33031 23.7891C9.14031 23.7891 9.03031 23.8491 8.98031 24.0291C8.95031 24.1391 8.89031 24.2391 8.85031 24.3391C8.71031 24.6591 8.45031 24.7925 8.07031 24.7391V24.7491ZM10.4603 20.6091C10.0603 21.5391 9.69031 22.4091 9.32031 23.2991H11.6003C11.2203 22.4091 10.8503 21.5391 10.4603 20.6091Z" fill="#323334"/>
<path d="M44.4299 24.7394C43.8599 24.8394 43.8299 24.8494 43.6699 24.3694C43.5199 23.9194 43.2799 23.7494 42.7899 23.7894C42.1699 23.8394 41.5399 23.8094 40.9199 23.7894C40.7499 23.7894 40.6299 23.8194 40.5899 24.0094C40.5599 24.1194 40.4999 24.2194 40.4599 24.3194C40.3199 24.6394 40.0566 24.7827 39.6699 24.7494C40.4599 22.9594 41.2499 21.1794 42.0599 19.3594C42.8699 21.1894 43.6499 22.9594 44.4399 24.7394H44.4299ZM43.1899 23.2994C42.7999 22.3894 42.4399 21.5194 42.0499 20.6094C41.6599 21.5294 41.2899 22.3994 40.9099 23.2994H43.1999H43.1899Z" fill="#323334"/>
<path d="M69.9497 24.7496C69.8797 24.7596 69.8497 24.7696 69.8197 24.7696C69.3597 24.7896 69.3197 24.7996 69.1797 24.3496C69.0297 23.9096 68.7997 23.7396 68.3197 23.7796C67.6997 23.8296 67.0697 23.7996 66.4497 23.7796C66.2597 23.7796 66.1497 23.8196 66.0897 24.0096C66.0597 24.1296 65.9897 24.2296 65.9497 24.3496C65.8164 24.6563 65.5597 24.7829 65.1797 24.7296C65.9697 22.9496 66.7497 21.1796 67.5597 19.3496C68.3697 21.1696 69.1497 22.9396 69.9497 24.7396V24.7496ZM66.4197 23.2896H68.6997C68.3197 22.3896 67.9497 21.5296 67.5597 20.6096C67.1697 21.5296 66.7997 22.3896 66.4197 23.2896Z" fill="#323334"/>
<path d="M44.8096 24.2997C44.9196 24.1797 45.0196 24.0697 45.0796 23.9997C45.4296 24.1297 45.7496 24.2797 46.0796 24.3497C46.5196 24.4397 46.8696 24.2597 47.0296 23.9197C47.2196 23.5197 47.1396 23.0397 46.7996 22.7597C46.6096 22.5997 46.3896 22.4797 46.1896 22.3497C45.9396 22.1797 45.6696 22.0397 45.4396 21.8497C44.9096 21.4197 44.7596 20.7897 45.0196 20.1997C45.2596 19.6597 45.8496 19.3697 46.5096 19.4697C46.8996 19.5297 47.2596 19.6597 47.5696 19.9697C47.4596 20.0897 47.3596 20.2197 47.2996 20.2797C46.9296 20.1597 46.6196 20.0297 46.2996 19.9697C45.9696 19.9097 45.6996 20.0697 45.5596 20.3697C45.4096 20.6997 45.4196 21.0497 45.6796 21.3197C45.8496 21.4997 46.0796 21.6297 46.2896 21.7797C46.5896 21.9897 46.9296 22.1597 47.1996 22.3897C47.6896 22.7997 47.8196 23.3497 47.6296 23.9497C47.4496 24.4897 46.9496 24.8397 46.3196 24.8597C45.7496 24.8797 45.2396 24.7197 44.8196 24.3097L44.8096 24.2997Z" fill="#323334"/>
<path d="M37.0602 22.0096V22.5096H35.2202V24.7496H34.7002V19.5596H37.6302V20.0096H35.2402V22.0096H37.0602Z" fill="#323334"/>
<path d="M13.7903 24.7593V19.5693H14.3203V24.2893H16.5303V24.7593H13.7803H13.7903Z" fill="#323334"/>
<path d="M50.3799 24.7598H49.8299V20.0098H48.6699V19.5498H51.5499V19.9998H50.3799V24.7598Z" fill="#323334"/>
<path d="M41.2598 5.89953C40.9898 5.58953 40.9698 5.29953 41.1698 4.91953C41.8798 3.56953 42.5498 2.18953 43.2298 0.829533C43.2798 0.739533 43.3198 0.649531 43.3798 0.519531C42.9698 0.519531 42.5898 0.519531 42.2198 0.519531C42.1398 0.519531 42.0598 0.439532 41.9798 0.399532C42.0598 0.359532 42.1298 0.279531 42.2098 0.269531C43.1498 0.269531 44.0798 0.269531 45.0198 0.269531C45.0898 0.269531 45.1698 0.359532 45.2398 0.399532C45.1698 0.439532 45.0998 0.509529 45.0298 0.509529C44.7498 0.519529 44.4598 0.519529 44.1798 0.509529C44.0198 0.509529 43.9298 0.55953 43.8498 0.70953C43.0298 2.36953 42.2098 4.01953 41.3798 5.66953C41.3398 5.74953 41.2998 5.81953 41.2598 5.88953V5.89953Z" fill="#323334"/>
<path d="M26.1799 30.3695V27.1295C26.5199 27.1295 26.8499 27.0995 27.1699 27.1295C27.4999 27.1595 27.7999 27.3195 27.8999 27.6695C27.9999 28.0395 27.9299 28.3795 27.5599 28.6295C27.6099 28.6595 27.6499 28.6895 27.6799 28.7095C28.0499 28.8995 28.1999 29.1795 28.1499 29.5795C28.1099 29.9195 27.8699 30.2095 27.4999 30.2695C27.0699 30.3295 26.6399 30.3295 26.1699 30.3595L26.1799 30.3695ZM26.5099 30.0095C26.7699 30.0095 27.0199 30.0295 27.2599 30.0095C27.5899 29.9795 27.7899 29.7895 27.8099 29.5095C27.8399 29.1895 27.6999 28.9695 27.3599 28.8995C27.0899 28.8495 26.7999 28.8595 26.5099 28.8495V30.0095ZM26.5199 27.4395V28.5295C26.8899 28.5195 27.2999 28.6495 27.5099 28.2595C27.5899 28.1095 27.5999 27.8295 27.5099 27.6795C27.2799 27.3095 26.8799 27.4695 26.5199 27.4395Z" fill="#323334"/>
<path d="M31.8998 28.7197C31.8998 29.6597 31.1998 30.3797 30.2998 30.3897C29.3798 30.3897 28.6698 29.6497 28.6798 28.7097C28.6798 27.7797 29.4098 27.0497 30.3098 27.0597C31.2298 27.0697 31.9098 27.7797 31.9098 28.7297L31.8998 28.7197ZM31.5598 28.7297C31.5598 27.9797 31.0198 27.3997 30.3098 27.3897C29.5798 27.3897 29.0198 27.9497 29.0098 28.7097C29.0098 29.4397 29.5698 30.0497 30.2598 30.0597C30.9798 30.0697 31.5498 29.4797 31.5498 28.7297H31.5598Z" fill="#323334"/>
<path d="M13.3496 28.6897C13.3496 27.7697 14.0596 27.0497 14.9596 27.0597C15.8896 27.0597 16.5896 27.7997 16.5696 28.7497C16.5496 29.6897 15.8496 30.4097 14.9496 30.3997C14.0296 30.3897 13.3496 29.6597 13.3596 28.6997L13.3496 28.6897ZM13.6996 28.7197C13.6996 29.4597 14.2596 30.0497 14.9496 30.0597C15.6696 30.0597 16.2196 29.4797 16.2196 28.7097C16.2196 27.9497 15.6796 27.3797 14.9696 27.3797C14.2296 27.3797 13.6996 27.9397 13.6996 28.7197Z" fill="#323334"/>
<path d="M64.1704 24.7598H63.6504V19.5498H64.1704V24.7598Z" fill="#323334"/>
<path d="M54.9797 29.2597H53.9797C53.9797 29.1597 53.9597 29.0897 53.9497 28.9797H55.3397C55.4097 29.5497 54.9197 30.1697 54.2897 30.3297C53.6397 30.4997 52.9397 30.2397 52.5297 29.6897C52.1397 29.1597 52.1297 28.3597 52.4997 27.7997C52.8597 27.2497 53.5497 26.9397 54.1997 27.0997C54.5097 27.1697 54.7997 27.3397 55.1497 27.4797C55.0197 27.6297 54.9597 27.7097 54.8997 27.7797C54.2397 27.3097 53.5997 27.2697 53.1097 27.6497C52.6597 27.9997 52.4697 28.6597 52.6697 29.2097C52.8697 29.7497 53.4097 30.1097 53.9997 30.0697C54.4797 30.0397 54.8697 29.7397 54.9897 29.2697L54.9797 29.2597Z" fill="#323334"/>
<path d="M44.1399 30.3297V27.1297C44.8099 27.0997 45.4899 27.0297 46.0399 27.5297C46.5599 27.9997 46.6599 28.5897 46.4599 29.2397C46.2499 29.9397 45.7099 30.2597 45.0199 30.3297C44.7299 30.3597 44.4399 30.3297 44.1299 30.3297H44.1399ZM44.4699 27.4197V30.0297C45.0599 30.0597 45.6099 30.0197 45.9599 29.4797C46.2699 29.0097 46.2899 28.4897 46.0099 28.0097C45.6699 27.4297 45.0999 27.3797 44.4699 27.4197Z" fill="#323334"/>
<path d="M47.1997 27.1196C47.5897 27.1196 47.9797 27.0896 48.3597 27.1196C48.8497 27.1696 49.1897 27.5896 49.1597 28.0596C49.1397 28.5296 48.7797 28.8796 48.2697 28.9096C48.2397 28.9096 48.2197 28.9096 48.1497 28.9296C48.5397 29.3896 48.9197 29.8196 49.3197 30.2796C49.0797 30.3596 48.9197 30.3296 48.7597 30.1296C48.3697 29.6496 47.9597 29.1996 47.5097 28.6696C47.7497 28.6696 47.9397 28.6696 48.1297 28.6696C48.6197 28.6396 48.8997 28.2596 48.7697 27.8196C48.6997 27.5896 48.5397 27.4396 48.3097 27.4196C48.0497 27.3996 47.7797 27.4196 47.4797 27.4196V30.2996C47.3697 30.2996 47.2797 30.3096 47.1797 30.3196V27.0996L47.1997 27.1196Z" fill="#323334"/>
<path d="M51.6095 28.6399V28.9199H50.2794V30.0199H51.7094C51.7094 30.1299 51.7295 30.2199 51.7295 30.3299H49.9395V27.1299H51.6195C51.6895 27.3499 51.6495 27.4499 51.3995 27.4399C51.0295 27.4299 50.6495 27.4399 50.2595 27.4399V28.6399H51.5994H51.6095Z" fill="#323334"/>
<path d="M24.3595 27.0898C24.8395 28.1998 25.2995 29.2498 25.7495 30.2898C25.4195 30.3698 25.3895 30.3798 25.2995 30.0798C25.2095 29.7898 25.0495 29.6999 24.7595 29.7299C24.4895 29.7599 24.2095 29.7599 23.9395 29.7299C23.6495 29.6999 23.4995 29.8098 23.4395 30.0798C23.3795 30.3198 23.2395 30.3998 22.9795 30.3098C23.4395 29.2598 23.8895 28.2098 24.3695 27.0998L24.3595 27.0898ZM23.6995 29.4298H24.9995C24.7795 28.9098 24.5795 28.4199 24.3495 27.8699C24.1195 28.4099 23.9195 28.8998 23.6895 29.4298H23.6995Z" fill="#323334"/>
<path d="M58.4097 30.2996C58.1397 30.4096 57.9996 30.3096 57.9496 30.0796C57.8796 29.7896 57.7096 29.6996 57.4196 29.7296C57.1596 29.7596 56.8896 29.7496 56.6296 29.7296C56.3496 29.6996 56.1596 29.7796 56.0996 30.0796C56.0496 30.3196 55.8996 30.3996 55.6396 30.3096C56.0996 29.2596 56.5496 28.2096 57.0296 27.0996C57.5096 28.2096 57.9696 29.2596 58.4196 30.3096L58.4097 30.2996ZM57.0196 27.8696C56.7796 28.4396 56.5797 28.9196 56.3697 29.4296H57.6696C57.4596 28.9196 57.2596 28.4396 57.0196 27.8696Z" fill="#323334"/>
<path d="M42.0202 28.9199V30.0099H43.4402V30.3299H41.7002V27.1299H43.3702V27.4399H42.0202V28.6399H43.3102V28.9199H42.0202Z" fill="#323334"/>
<path d="M22.64 27.5892C22.56 27.6592 22.49 27.7192 22.42 27.7792C21.68 27.2492 21.04 27.2692 20.57 27.8092C20.11 28.3392 20.14 29.1893 20.63 29.6893C21.14 30.2093 21.75 30.1792 22.48 29.5992C22.55 29.6492 22.62 29.7093 22.69 29.7593C22.33 30.2893 21.66 30.4992 21.03 30.3192C20.41 30.1392 19.94 29.5293 19.91 28.8693C19.87 28.0793 20.27 27.4192 20.93 27.1692C21.56 26.9292 22.23 27.0892 22.65 27.5892H22.64Z" fill="#323334"/>
<path d="M39.3203 27.0893C39.7403 27.1193 40.1303 27.1093 40.5103 27.1693C40.9503 27.2493 41.2303 27.6493 41.2103 28.0693C41.1903 28.5493 40.8503 28.9293 40.3903 28.9693C40.1503 28.9893 39.9003 28.9693 39.6303 28.9693V30.3093H39.3203V27.0693V27.0893ZM39.6403 28.6993C40.0603 28.6693 40.5003 28.8193 40.7603 28.3793C40.9003 28.1493 40.9103 27.8793 40.7203 27.6593C40.4203 27.3093 40.0203 27.4493 39.6303 27.4393V28.6993H39.6403Z" fill="#323334"/>
<path d="M32.2402 30.0794C32.3502 29.9494 32.4002 29.8894 32.4302 29.8494C32.6802 29.9294 32.8902 30.0294 33.1202 30.0594C33.4202 30.0994 33.6702 29.9294 33.7502 29.6894C33.8302 29.4494 33.7402 29.2194 33.4702 29.0494C33.2802 28.9294 33.0802 28.8194 32.8802 28.7094C32.3502 28.4094 32.1702 27.9894 32.3702 27.5394C32.5502 27.1394 33.0402 26.9594 33.5702 27.1294C33.7302 27.1794 33.8702 27.2794 34.0402 27.3694C33.9602 27.4794 33.9102 27.5494 33.8802 27.5894C33.6202 27.5194 33.3902 27.4394 33.1602 27.4094C32.9202 27.3894 32.7402 27.5194 32.6702 27.7594C32.6102 27.9794 32.6902 28.1794 32.8902 28.2994C33.1002 28.4294 33.3102 28.5494 33.5302 28.6694C34.0702 28.9794 34.2602 29.3894 34.0702 29.8494C33.9002 30.2794 33.4002 30.4894 32.8502 30.3494C32.6602 30.2994 32.4802 30.1894 32.2502 30.0894L32.2402 30.0794Z" fill="#323334"/>
<path d="M18.7199 27.3396C18.5999 27.4796 18.5499 27.5496 18.5199 27.5896C18.2899 27.5196 18.0899 27.4296 17.8799 27.3996C17.6399 27.3696 17.4199 27.4596 17.3399 27.7096C17.2599 27.9696 17.3399 28.1796 17.5799 28.3096C17.7899 28.4396 17.9999 28.5596 18.2199 28.6796C18.7299 28.9696 18.8799 29.2996 18.7199 29.8296C18.5899 30.2496 18.0899 30.4696 17.5699 30.3496C17.3599 30.2996 17.1599 30.1896 16.9199 30.0996C17.0099 29.9796 17.0599 29.9096 17.1099 29.8296C17.2899 29.8996 17.4399 29.9896 17.6099 30.0396C17.9399 30.1396 18.2699 30.0096 18.3899 29.7496C18.5199 29.4696 18.4299 29.2296 18.0899 29.0196C17.8799 28.8796 17.6399 28.7696 17.4299 28.6396C17.0199 28.3796 16.8599 27.9796 17.0099 27.5796C17.1499 27.2096 17.5899 26.9896 18.0499 27.0896C18.2599 27.1396 18.4599 27.2496 18.7199 27.3496V27.3396Z" fill="#323334"/>
<path d="M11.4004 27.1191H11.7104V30.0091H13.0304C13.0304 30.1291 13.0404 30.2191 13.0504 30.3191H11.4104V27.1191H11.4004Z" fill="#323334"/>
<path d="M59.1498 30.0194H60.4799V30.3194H58.8398V27.1294C58.9398 27.1294 59.0298 27.1194 59.1498 27.1094V30.0194Z" fill="#323334"/>
<path d="M37.0399 29.1496C36.8899 29.1496 36.7699 29.1496 36.6499 29.1496C36.5799 29.1496 36.5199 29.1496 36.4599 29.1496C36.2699 28.5496 36.3999 28.4196 37.0499 28.5296V29.1596L37.0399 29.1496Z" fill="#323334"/>
<path d="M70.1302 20.5799C69.7802 20.5799 69.4902 20.3199 69.4902 19.9999C69.4902 19.6899 69.7702 19.4299 70.1002 19.4199C70.4602 19.4199 70.7302 19.6599 70.7302 19.9999C70.7302 20.3299 70.4702 20.5799 70.1302 20.5799ZM70.4902 20.3099C70.6702 20.0599 70.6602 19.8599 70.4902 19.6799C70.3302 19.5099 70.0302 19.4899 69.8402 19.6199C69.6102 19.7799 69.5602 20.0799 69.7302 20.2899C69.9202 20.5299 70.2302 20.5399 70.5002 20.3099H70.4902Z" fill="#323334"/>
<path d="M70.4899 20.3097C70.3499 20.2797 70.2099 20.2496 70.0399 20.2096C70.0399 20.2096 70.0099 20.2796 69.9699 20.3496C69.9499 20.3496 69.9299 20.3496 69.9199 20.3496V19.6396C70.0699 19.6896 70.2299 19.7096 70.3399 19.7896C70.3799 19.8196 70.3099 19.9896 70.2799 20.1596C70.3099 20.1896 70.3999 20.2597 70.4899 20.3297V20.3097Z" fill="#323334"/>
</svg>
