<svg width="56" height="29" viewBox="0 0 56 29" fill="none" xmlns="http://www.w3.org/2000/svg">
<path d="M20.3795 28.719C20.3095 28.719 20.2695 28.469 20.2695 27.979C20.2695 27.459 20.3695 26.719 20.5595 25.769C20.7495 24.819 21.0595 23.819 21.4895 22.759C21.8395 20.919 22.0996 19.999 22.2596 19.999C22.3196 19.999 22.3695 20.029 22.3995 20.089C22.4095 20.109 22.4196 20.139 22.4196 20.169C22.4196 20.209 22.4095 20.249 22.3795 20.299C22.2095 20.599 22.0195 21.189 21.8195 22.059C22.2195 21.299 22.6495 20.789 23.1195 20.519C23.3795 20.369 23.6195 20.299 23.8295 20.299C23.9995 20.299 24.1496 20.349 24.2896 20.439C24.5296 20.599 24.6396 20.899 24.6396 21.339C24.6396 21.469 24.6295 21.619 24.6095 21.779C25.3195 21.399 26.0595 21.189 26.8195 21.169C26.8795 21.169 26.9095 21.189 26.9095 21.229C26.9095 21.269 26.8795 21.289 26.8195 21.289C26.0895 21.309 25.3395 21.519 24.5795 21.929C24.4395 22.559 24.1095 23.159 23.5995 23.719C23.1495 24.179 22.7995 24.409 22.5295 24.409C22.3995 24.409 22.3295 24.339 22.3295 24.189C22.3295 23.989 22.4796 23.689 22.7896 23.279C23.1896 22.749 23.7496 22.269 24.4796 21.859V21.529C24.4796 20.789 24.2795 20.419 23.8595 20.419C23.5395 20.419 23.1496 20.659 22.6996 21.139C22.2496 21.619 21.8595 22.379 21.5195 23.399C21.3395 24.259 21.1696 25.109 21.0096 25.959C20.6696 27.809 20.4595 28.729 20.3795 28.729V28.719ZM20.3896 28.399C20.5896 27.559 20.8595 26.169 21.2195 24.219C20.9295 25.079 20.7095 25.889 20.5595 26.659C20.4395 27.249 20.3795 27.729 20.3795 28.109C20.3795 28.219 20.3795 28.319 20.3995 28.409L20.3896 28.399ZM22.5595 24.289C22.7795 24.289 23.0995 24.069 23.5195 23.629C23.9395 23.189 24.2495 22.649 24.4395 22.009C24.3095 22.079 24.1795 22.159 24.0595 22.249C23.5595 22.609 23.1696 22.979 22.8896 23.339C22.5896 23.739 22.4395 24.009 22.4395 24.149C22.4395 24.239 22.4795 24.289 22.5595 24.289Z" fill="#323334"/>
<path d="M26.7199 23.5293C26.4999 23.5293 26.3799 23.3593 26.3799 23.0093C26.3799 22.7593 26.4299 22.4293 26.5299 22.0393C26.6299 21.6493 26.7299 21.3393 26.8299 21.1093C26.8599 21.0193 26.9399 20.9693 27.0699 20.9693C27.1699 20.9693 27.2199 20.9993 27.2199 21.0693V21.1193C27.1299 21.3393 27.0399 21.6693 26.9299 22.0893C26.7899 22.6393 26.7199 22.9893 26.7199 23.1493C26.7199 23.2793 26.7699 23.3493 26.8599 23.3493C27.0399 23.3493 27.3799 23.1093 27.8999 22.6393C28.5399 22.0593 29.0199 21.5693 29.3499 21.1693C29.3599 21.1593 29.3699 21.1493 29.3799 21.1493C29.4299 21.1493 29.4499 21.1693 29.4499 21.2093C29.4499 21.2393 29.2499 21.4693 28.8499 21.8993C28.0399 22.7693 27.3899 23.2993 26.9099 23.4693C26.8399 23.4993 26.7699 23.5093 26.7099 23.5093L26.7199 23.5293ZM27.2999 20.3993H27.2699C27.2099 20.3993 27.1799 20.3393 27.1799 20.2093C27.1799 20.1093 27.1999 19.9993 27.2399 19.8993C27.2799 19.7893 27.3399 19.7393 27.4099 19.7393C27.4399 19.7393 27.4799 19.7593 27.5199 19.7993C27.5599 19.8393 27.5799 19.8893 27.5799 19.9493C27.5799 19.9893 27.5699 20.0393 27.5399 20.1093C27.5099 20.1793 27.4799 20.2393 27.4299 20.2993C27.3799 20.3593 27.3399 20.3993 27.2899 20.4093L27.2999 20.3993Z" fill="#323334"/>
<path d="M29.3093 25.8397H29.2893C29.0293 25.6297 28.8693 25.3097 28.8093 24.8797C28.7893 24.6997 28.7793 24.5197 28.7793 24.3197C28.7793 23.6497 28.8993 22.8697 29.1293 21.9697C29.4693 20.6297 29.8993 19.3497 30.3993 18.1497C30.7593 17.2997 31.0993 16.6197 31.4293 16.1197C31.7193 15.6897 31.9693 15.4697 32.1693 15.4697C32.2793 15.4697 32.3293 15.5397 32.3293 15.6797C32.3293 16.0397 32.0093 16.8697 31.3693 18.1797C31.0393 18.8497 30.7193 19.4497 30.4193 19.9897C30.1193 20.5197 29.9193 20.8397 29.8193 20.9497C29.8193 20.9597 29.7393 21.1697 29.5893 21.5697C29.4393 21.9697 29.2993 22.4597 29.1593 23.0297C29.0193 23.5997 28.9393 24.1497 28.9393 24.6697C28.9393 25.1597 29.0693 25.5097 29.3393 25.7197C29.3593 25.7297 29.3693 25.7497 29.3693 25.7597C29.3693 25.8097 29.3493 25.8397 29.3093 25.8397ZM29.8993 20.6897C29.9793 20.5797 30.1593 20.2697 30.4193 19.7597C30.6893 19.2597 30.9793 18.6897 31.2793 18.0697C31.9093 16.7797 32.2293 15.9997 32.2293 15.7197C32.2293 15.6597 32.2093 15.6197 32.1693 15.6197C32.0293 15.6197 31.8293 15.8597 31.5493 16.3497C31.2793 16.8397 30.9893 17.4797 30.6793 18.2597C30.3693 19.0497 30.1093 19.8597 29.8993 20.6797V20.6897Z" fill="#323334"/>
<path d="M30.959 23.2893C30.869 23.2893 30.7991 23.2593 30.7291 23.1993C30.5991 23.0993 30.5391 22.9493 30.5391 22.7493C30.5391 22.6193 30.5691 22.4593 30.6291 22.2793C30.7691 21.9593 30.9791 21.6593 31.2491 21.3893C31.5291 21.1193 31.8091 20.9393 32.0991 20.8493C32.1691 20.8293 32.2491 20.8193 32.3191 20.8193C32.5091 20.8193 32.6691 20.9093 32.7891 21.0993C32.7991 21.1193 32.8091 21.1293 32.8091 21.1393C32.8091 21.1693 32.789 21.1893 32.739 21.1893C32.719 21.1893 32.6991 21.1793 32.6891 21.1593C32.6291 21.0593 32.5491 21.0093 32.4491 21.0093C32.3791 21.0093 32.269 21.0493 32.109 21.1393C31.959 21.2293 31.7591 21.4093 31.5391 21.6893C31.3091 21.9693 31.1291 22.2393 30.9991 22.5093C30.9091 22.7093 30.859 22.8693 30.859 22.9693C30.859 23.1093 30.9191 23.1893 31.0291 23.1893C31.3091 23.1893 31.7291 22.6793 32.2791 21.6493C32.4191 21.3993 32.5291 21.2693 32.5991 21.2693C32.6691 21.2693 32.6991 21.3093 32.6991 21.3793C32.6991 21.4293 32.6991 21.4693 32.6691 21.4993C32.5491 21.8693 32.489 22.1493 32.489 22.3493V22.5193C32.489 22.6293 32.5791 22.6893 32.7491 22.6893C32.8991 22.6893 33.0791 22.6493 33.2791 22.5593C33.6491 22.3993 34.0291 22.1793 34.4091 21.9093C34.7891 21.6293 35.079 21.3893 35.269 21.1893C35.279 21.1693 35.2991 21.1593 35.3091 21.1593C35.3491 21.1593 35.369 21.1793 35.369 21.2093C35.369 21.2993 35.0691 21.5593 34.4691 21.9993C34.0891 22.2893 33.6991 22.5093 33.3191 22.6693C33.0991 22.7593 32.8991 22.8093 32.7291 22.8093C32.4091 22.8093 32.2591 22.6393 32.2591 22.2893C32.2591 22.1393 32.2891 21.9493 32.3491 21.7093C32.3091 21.7693 32.2591 21.8593 32.1991 21.9793C32.0291 22.2993 31.819 22.6093 31.549 22.9393C31.309 23.1793 31.1091 23.2893 30.9391 23.2893H30.959Z" fill="#323334"/>
<path d="M34.5391 28.0094C34.3191 28.0094 34.1991 27.7194 34.1991 27.1494C34.1991 26.4794 34.3291 25.4894 34.5991 24.1794C34.9691 22.3294 35.4691 20.3594 36.0791 18.2894C34.9291 18.3294 33.9191 18.3894 33.0491 18.4694C32.1791 18.5494 31.6991 18.6394 31.5991 18.7394C31.5291 18.8694 31.4691 18.9394 31.4191 18.9394H31.3791C31.3791 18.9394 31.3291 18.8594 31.3291 18.7494C31.3291 18.5094 31.4091 18.3794 31.5591 18.3494C31.6891 18.3094 32.1891 18.2594 33.0691 18.2094C33.9491 18.1594 34.9691 18.1194 36.1191 18.0994C36.3891 17.1994 36.5791 16.6294 36.7091 16.3594C36.9091 15.9494 37.0891 15.6694 37.2691 15.5194C37.3591 15.4394 37.4391 15.3994 37.4991 15.3994C37.6091 15.3994 37.6691 15.5094 37.6691 15.7294C37.6691 16.1394 37.4291 16.9294 36.9591 18.0994C37.8291 18.0994 38.5491 18.1094 39.1391 18.1294C40.4391 18.1894 41.0891 18.3394 41.0891 18.5694C41.0891 18.6294 41.0491 18.6594 40.9791 18.6594C40.9091 18.6594 40.8791 18.6194 40.8791 18.5394C40.7291 18.3594 39.7591 18.2594 37.9691 18.2594H36.8891C36.3891 19.4994 35.9791 20.4094 35.6691 20.9894L35.5391 21.4294L35.1191 22.9494C34.6791 24.5694 34.4491 25.8194 34.4291 26.6994C34.4291 27.2194 34.5191 27.5494 34.6991 27.6694C34.7391 27.6894 34.7591 27.7294 34.7591 27.7694C34.7591 27.8594 34.7191 27.9294 34.6291 27.9894C34.5991 28.0094 34.5691 28.0194 34.5291 28.0194L34.5391 28.0094ZM35.7991 20.4894C35.9991 20.1194 36.3191 19.3794 36.7591 18.2594H36.4291C36.1291 19.2594 35.9191 19.9994 35.7891 20.4894H35.7991ZM36.8391 18.0794C37.3391 16.7894 37.5991 15.9894 37.5991 15.6494C37.5991 15.5794 37.5891 15.5394 37.5591 15.5394C37.5591 15.5394 37.5291 15.5394 37.4691 15.5494C37.4191 15.5494 37.2791 15.8594 37.0491 16.4394C36.8691 16.9194 36.6791 17.4694 36.4991 18.0794H36.8391Z" fill="#323334"/>
<path d="M37.8493 23.4797C37.6493 23.4797 37.4893 23.4297 37.3393 23.3297C37.1593 23.1497 37.0693 22.9397 37.0693 22.6997C37.0693 22.3397 37.2193 21.9497 37.5193 21.5297C37.8993 20.9897 38.2993 20.7197 38.6993 20.7197C38.9093 20.7197 39.0093 20.8097 39.0093 20.9997C39.0093 21.1197 38.9593 21.2797 38.8493 21.4697C38.6993 21.7097 38.4893 21.9197 38.2393 22.0997C37.9893 22.2797 37.7493 22.3797 37.5293 22.4197C37.5093 22.5297 37.4993 22.6297 37.4993 22.7197C37.4993 23.0697 37.6593 23.2397 37.9893 23.2397C38.0793 23.2397 38.2393 23.2097 38.4593 23.1397C38.6793 23.0697 38.9893 22.9197 39.3693 22.6797C39.7493 22.4397 40.0993 22.1897 40.4193 21.9197C40.7393 21.6497 40.9493 21.4197 41.0693 21.2397C41.0993 21.1897 41.1393 21.1597 41.1593 21.1597C41.1793 21.1597 41.1993 21.1797 41.1993 21.2097C41.1993 21.2297 41.1893 21.2597 41.1693 21.2997C40.9593 21.6197 40.5993 21.9697 40.0993 22.3697C39.5993 22.7697 39.0893 23.0797 38.5593 23.2997C38.2893 23.4097 38.0493 23.4697 37.8393 23.4697L37.8493 23.4797ZM37.5493 22.2797C37.7393 22.2297 37.9493 22.1097 38.1693 21.9197C38.3893 21.7297 38.5693 21.5397 38.7093 21.3297C38.8093 21.1597 38.8593 21.0397 38.8593 20.9597C38.8593 20.8697 38.8093 20.8297 38.7093 20.8297C38.5793 20.8297 38.4093 20.9097 38.2193 21.0797C37.8993 21.3997 37.6793 21.7897 37.5593 22.2797H37.5493Z" fill="#323334"/>
<path d="M40.3294 25.9093H40.2994C40.1894 25.9093 40.0994 25.8793 40.0194 25.8193C39.9394 25.7593 39.8994 25.6493 39.8994 25.5093C39.8994 25.0593 40.5094 24.3693 41.7194 23.4493C41.6494 23.0793 41.5394 22.7193 41.3994 22.3893C41.2094 21.9293 41.1194 21.5693 41.1194 21.2993C41.1194 21.0993 41.1694 20.9193 41.2694 20.7293C41.4794 20.3693 41.8194 20.1193 42.2794 19.9593C42.5394 19.8693 42.7994 19.8193 43.0494 19.8193C43.2394 19.8193 43.4194 19.8493 43.5894 19.8993C43.6994 19.9393 43.7494 19.9993 43.7494 20.0693C43.7494 20.1293 43.7294 20.1793 43.6794 20.2193C43.6494 20.2393 43.6094 20.2493 43.5694 20.2493H43.4894C43.2894 20.1693 43.0994 20.1293 42.8994 20.1293C42.2694 20.1293 41.8094 20.3693 41.5294 20.8593C41.4394 21.0393 41.3994 21.2293 41.3994 21.4093C41.3994 21.4793 41.4094 21.6093 41.4394 21.7693C41.4694 21.9393 41.5394 22.1593 41.6394 22.4293C41.7494 22.7093 41.8294 22.9993 41.8994 23.2993C42.6894 22.7093 43.5294 22.1593 44.4094 21.6493C44.9594 21.3293 45.2794 21.1793 45.3694 21.1793C45.3994 21.1793 45.4094 21.1993 45.4094 21.2293C45.4094 21.2593 45.3994 21.2793 45.3694 21.2893C45.1994 21.3493 44.8894 21.5093 44.4394 21.7593C43.6294 22.2293 42.7794 22.7893 41.9094 23.4393C41.9194 23.5293 41.9294 23.6293 41.9294 23.7293C41.9294 23.9093 41.8994 24.1193 41.8394 24.3693C41.7794 24.6193 41.6194 24.9093 41.3494 25.2493C40.9794 25.6893 40.6294 25.9093 40.3094 25.9093H40.3294ZM40.3294 25.7893C40.6194 25.7893 40.9294 25.5793 41.2794 25.1693C41.5994 24.7293 41.7594 24.2793 41.7594 23.8193C41.7594 23.7393 41.7594 23.6593 41.7394 23.5893C40.5894 24.4693 40.0194 25.1093 40.0194 25.5193C40.0194 25.6993 40.1094 25.7993 40.2994 25.7993H40.3294V25.7893Z" fill="#323334"/>
<path d="M23.0194 9.93002C22.6994 9.58002 22.3094 9.31004 21.8694 9.10004C21.4294 8.90004 20.9494 8.79004 20.4494 8.79004C19.9494 8.79004 19.4894 8.89003 19.0594 9.09003C18.6294 9.29003 18.2494 9.56003 17.9294 9.91003C17.6094 10.26 17.3494 10.66 17.1694 11.12C16.9894 11.58 16.8994 12.08 16.8994 12.6C16.8994 13.12 16.9994 13.65 17.1894 14.12C17.3794 14.59 17.6394 15.01 17.9694 15.37C18.2994 15.73 18.6794 16.02 19.1194 16.23C19.5594 16.44 20.0394 16.54 20.5294 16.54C20.8594 16.54 21.1794 16.49 21.4994 16.4C21.8094 16.31 22.0994 16.18 22.3694 16.02C22.6394 15.86 22.8694 15.67 23.0694 15.45C23.2694 15.23 23.4294 14.98 23.5394 14.71L23.6494 14.45L22.9194 14.26L22.8294 14.45C22.7394 14.64 22.6194 14.82 22.4694 14.98C22.3194 15.14 22.1294 15.29 21.9294 15.4C21.7194 15.52 21.4994 15.61 21.2594 15.68C21.0294 15.75 20.7794 15.78 20.5394 15.78C20.1694 15.78 19.8194 15.7 19.4894 15.55C19.1494 15.4 18.8494 15.18 18.5994 14.92C18.3394 14.65 18.1294 14.33 17.9594 13.97C17.8294 13.68 17.7394 13.38 17.6894 13.05H24.0794V12.66C24.0794 12.13 23.9794 11.62 23.7894 11.15C23.5994 10.68 23.3394 10.27 23.0194 9.93002ZM17.6794 12.3C17.7194 11.97 17.7994 11.65 17.9194 11.35C18.0694 10.98 18.2694 10.66 18.5294 10.4C18.7794 10.14 19.0794 9.93003 19.4094 9.78003C19.7394 9.63003 20.0894 9.56003 20.4694 9.56003C20.8494 9.56003 21.1994 9.63003 21.5294 9.78003C21.8594 9.93003 22.1594 10.14 22.4094 10.4C22.6594 10.66 22.8694 10.98 23.0294 11.35C23.1594 11.64 23.2394 11.96 23.2794 12.3H17.6794Z" fill="#323334"/>
<path d="M27.3593 15.6296C27.2493 15.6596 27.1393 15.6896 27.0093 15.7096C26.8793 15.7296 26.7793 15.7396 26.6893 15.7396C26.4793 15.7396 26.3293 15.6896 26.2093 15.5796C26.0993 15.4696 26.0393 15.3296 26.0393 15.1396V6.05957H25.2793V15.1396C25.2793 15.5396 25.3993 15.8696 25.6493 16.1196C25.8993 16.3696 26.2093 16.4996 26.5993 16.4996C26.7393 16.4996 26.9093 16.4796 27.1093 16.4496C27.3093 16.4196 27.4793 16.3696 27.6193 16.3196L27.8693 16.2296L27.5793 15.5696L27.3693 15.6296H27.3593Z" fill="#323334"/>
<path d="M30.5703 15.6296C30.4603 15.6596 30.3502 15.6896 30.2202 15.7096C30.0902 15.7296 29.9902 15.7396 29.9002 15.7396C29.6902 15.7396 29.5403 15.6896 29.4203 15.5796C29.3103 15.4696 29.2502 15.3296 29.2502 15.1396V6.05957H28.4902V15.1396C28.4902 15.5396 28.6102 15.8696 28.8602 16.1196C29.1102 16.3696 29.4202 16.4996 29.8102 16.4996C29.9502 16.4996 30.1203 16.4796 30.3203 16.4496C30.5203 16.4196 30.6902 16.3696 30.8302 16.3196L31.0802 16.2296L30.7903 15.5696L30.5802 15.6296H30.5703Z" fill="#323334"/>
<path d="M36.9696 14.4898C36.9296 14.6398 36.8396 14.7998 36.6996 14.9498C36.5596 15.1098 36.3796 15.2498 36.1696 15.3798C35.9596 15.4998 35.7196 15.6098 35.4696 15.6798C35.2196 15.7498 34.9696 15.7898 34.7196 15.7898C34.3396 15.7898 33.9696 15.7098 33.6396 15.5398C33.2996 15.3698 32.9896 15.1398 32.7296 14.8598C32.4696 14.5698 32.2596 14.2298 32.1096 13.8498C31.9596 13.4698 31.8796 13.0598 31.8796 12.6298C31.8796 12.1998 31.9496 11.7998 32.0996 11.4198C32.2496 11.0498 32.4496 10.7198 32.7096 10.4398C32.9696 10.1698 33.2696 9.94983 33.6096 9.78983C33.9496 9.62983 34.3196 9.55981 34.7096 9.55981C35.1796 9.55981 35.6096 9.66981 35.9996 9.89981C36.3896 10.1198 36.6896 10.4398 36.8996 10.8298L36.9996 11.0098L37.7296 10.7598L37.6096 10.5098C37.3596 9.96983 36.9696 9.54982 36.4696 9.24982C35.9696 8.94982 35.3896 8.7998 34.7596 8.7998C34.2496 8.7998 33.7696 8.89982 33.3296 9.09982C32.8896 9.29982 32.5096 9.56982 32.1796 9.90982C31.8496 10.2498 31.5896 10.6598 31.4096 11.1298C31.2296 11.5898 31.1396 12.0998 31.1396 12.6298C31.1396 13.1598 31.2396 13.6798 31.4296 14.1498C31.6196 14.6198 31.8796 15.0398 32.2096 15.3898C32.5396 15.7498 32.9296 16.0298 33.3696 16.2398C33.8196 16.4498 34.2896 16.5498 34.7896 16.5498C35.1196 16.5498 35.4396 16.4998 35.7596 16.4098C36.0696 16.3198 36.3596 16.1898 36.6196 16.0298C36.8796 15.8698 37.1096 15.6798 37.3096 15.4498C37.5096 15.2198 37.6496 14.9798 37.7396 14.7098L37.8196 14.4698L37.0696 14.2398L36.9996 14.4798L36.9696 14.4898Z" fill="#323334"/>
<path d="M44.2399 9.71002C43.8099 9.10002 43.1899 8.79004 42.3799 8.79004C42.0599 8.79004 41.7399 8.84003 41.4199 8.94003C41.1099 9.04003 40.8099 9.18004 40.5299 9.35004C40.2599 9.53004 39.9999 9.75003 39.7799 10C39.7399 10.04 39.7099 10.08 39.6799 10.12V6.04004H38.9199V16.4H39.6799V11.75C39.7599 11.45 39.8899 11.16 40.0699 10.9C40.2499 10.63 40.4699 10.39 40.7199 10.19C40.9699 9.99003 41.2399 9.83002 41.5299 9.71002C41.8099 9.60002 42.1099 9.54004 42.3999 9.54004C42.9699 9.54004 43.3799 9.75004 43.6599 10.17C43.9599 10.62 44.1099 11.32 44.1099 12.25V16.4H44.8699V12.25C44.8699 11.7 44.8199 11.21 44.7199 10.79C44.6199 10.36 44.4599 9.99004 44.2599 9.70004L44.2399 9.71002Z" fill="#323334"/>
<path d="M47.3098 6.0498H46.5498V7.5798H47.3098V6.0498Z" fill="#323334"/>
<path d="M47.3098 8.91016H46.5498V16.4202H47.3098V8.91016Z" fill="#323334"/>
<path d="M54.4998 14.2498L54.4298 14.4898C54.3898 14.6398 54.2999 14.7998 54.1599 14.9498C54.0199 15.1098 53.8399 15.2498 53.6299 15.3798C53.4199 15.4998 53.1798 15.6098 52.9298 15.6798C52.6798 15.7498 52.4298 15.7898 52.1798 15.7898C51.7998 15.7898 51.4299 15.7098 51.0999 15.5398C50.7599 15.3698 50.4498 15.1398 50.1898 14.8598C49.9298 14.5698 49.7199 14.2298 49.5699 13.8498C49.4199 13.4698 49.3398 13.0598 49.3398 12.6298C49.3398 12.1998 49.4098 11.7998 49.5598 11.4198C49.7098 11.0498 49.9099 10.7198 50.1699 10.4398C50.4299 10.1698 50.7299 9.94983 51.0699 9.78983C51.4099 9.62983 51.7799 9.55981 52.1699 9.55981C52.6399 9.55981 53.0698 9.66981 53.4598 9.89981C53.8498 10.1198 54.1498 10.4398 54.3598 10.8298L54.4598 11.0098L55.1898 10.7598L55.0699 10.5098C54.8199 9.96983 54.4299 9.54982 53.9199 9.24982C53.4199 8.94982 52.8398 8.7998 52.2098 8.7998C51.6998 8.7998 51.2198 8.89982 50.7798 9.09982C50.3398 9.29982 49.9599 9.56982 49.6299 9.90982C49.2999 10.2498 49.0398 10.6598 48.8598 11.1298C48.6798 11.5898 48.5898 12.0998 48.5898 12.6298C48.5898 13.1598 48.6899 13.6798 48.8799 14.1498C49.0699 14.6198 49.3299 15.0398 49.6599 15.3898C49.9899 15.7498 50.3799 16.0298 50.8199 16.2398C51.2699 16.4498 51.7398 16.5498 52.2398 16.5498C52.5698 16.5498 52.8898 16.4998 53.2098 16.4098C53.5198 16.3198 53.8099 16.1898 54.0699 16.0298C54.3299 15.8698 54.5599 15.6798 54.7599 15.4498C54.9599 15.2198 55.0998 14.9798 55.1898 14.7098L55.2698 14.4698L54.5198 14.2398L54.4998 14.2498Z" fill="#323334"/>
<path d="M17.1897 4.25944H16.9597L15.5897 4.24943V4.60942H16.7298L13.6097 17.0994L12.6497 14.5494L13.6097 17.0694L13.9198 15.8294L10.6097 7.21944L11.6797 4.46944L11.7797 4.21944H11.5197H8.63976H8.37975L8.46974 4.45943L8.89974 5.58943L8.92973 5.67943L9.85973 8.15944L8.30974 12.1194C8.09974 11.4894 7.89975 10.8494 7.69975 10.2194C7.43975 9.42944 7.19975 8.62943 6.94975 7.83943C6.89975 7.64943 6.83974 7.45942 6.77974 7.26942L6.72975 7.13945C6.36975 5.93945 5.83975 4.97944 5.15975 4.25944C4.44975 3.49944 3.71974 3.16943 2.96974 3.27943C2.06974 3.40943 1.38976 4.09944 0.919755 5.34944C0.459755 6.59944 0.339729 8.04945 0.579729 9.66945C0.819729 11.2994 1.33974 12.6594 2.14974 13.7194C2.94974 14.7794 3.79975 15.2494 4.69975 15.1194C5.43975 15.0094 6.03975 14.4994 6.50975 13.5994C6.96975 12.7094 6.80975 11.5494 6.81975 10.2894C6.57975 12.2894 6.07973 13.0494 6.07973 13.0494C5.68973 13.7794 5.18973 14.1794 4.57973 14.2694C3.80973 14.3794 3.07976 13.9794 2.38976 13.0694C1.69976 12.1594 1.24973 10.9994 1.04973 9.59944C0.83973 8.19944 0.939738 6.95945 1.33974 5.88945C1.73974 4.81945 2.31974 4.22943 3.08974 4.11943C3.70974 4.02943 4.31975 4.28945 4.90975 4.88945C5.47975 5.46945 5.91973 6.24944 6.23973 7.21944L6.26973 7.33943V7.35942C6.34973 7.56942 6.39974 7.77942 6.46974 7.98942C6.74974 8.77942 7.02973 9.55944 7.29973 10.3494C7.56973 11.1394 7.84973 11.9294 8.10973 12.7194L8.26973 13.1994L8.44975 12.7294L10.0297 8.66945L13.4597 17.7694L13.6597 18.3094L13.7997 17.7494L17.1197 4.47945L17.1797 4.25944H17.1897ZM10.4097 6.72945L9.58974 4.58943H11.2497L10.4198 6.72945H10.4097Z" fill="#323334"/>
<path d="M11.33 1.2002L10.46 3.46017L12.33 1.22018L11.33 1.2002Z" fill="#323334"/>
<path d="M11.2694 1.13016L10.4995 0.160156L9.68945 1.09015L11.2694 1.13016Z" fill="#323334"/>
<path d="M11.6598 0.129395L10.5498 0.109375L11.3098 1.04938L11.6598 0.129395Z" fill="#323334"/>
<path d="M11.3694 1.12991L12.3394 1.1499L11.7194 0.169922L11.3594 1.1199L11.3694 1.12991Z" fill="#323334"/>
<path d="M10.3794 3.47992L11.2494 1.19992L9.60938 1.16992L10.3794 3.47992Z" fill="#323334"/>
<path d="M9.59976 1.08984L10.4398 0.109833L9.25977 0.0898438L9.58975 1.08984H9.59976Z" fill="#323334"/>
<path d="M9.53976 1.15964L8.50977 1.13965L10.2798 3.40964L9.53976 1.15964Z" fill="#323334"/>
<path d="M9.19003 0.129883L8.54004 1.06989L9.51004 1.08987L9.19003 0.129883Z" fill="#323334"/>
</svg>
