<svg width="67" height="8" viewBox="0 0 67 8" fill="none" xmlns="http://www.w3.org/2000/svg">
<path d="M23.55 1.4509H25.13V6.97089H25.94V1.44089H27.52L27.82 0.670898H23.25L23.55 1.4509Z" fill="#323334"/>
<path d="M10.4006 0.670898H9.60059V6.97089H10.4006V0.670898Z" fill="#323334"/>
<path d="M16.3302 2.22025C16.2602 1.77025 16.0601 1.40025 15.7001 1.12025C15.3101 0.810248 14.8502 0.670256 14.3602 0.660256C13.7302 0.640256 12.1802 0.660256 12.1602 0.660256V6.97025H12.9702V4.52024H13.0401C13.3701 4.52024 13.9301 4.52024 14.2601 4.52024C14.5601 4.52024 14.8502 4.47025 15.1302 4.37025C15.6502 4.18025 16.0402 3.84026 16.2402 3.32026C16.3702 2.97026 16.3902 2.60026 16.3302 2.23026M15.4501 3.07026C15.3101 3.42026 15.0502 3.62026 14.6902 3.70026C14.5202 3.74026 14.3402 3.76026 14.1702 3.76026C13.8602 3.77026 13.3202 3.76026 13.0202 3.76026C13.0102 3.76026 12.9901 3.76026 12.9801 3.76026V1.41026C12.9801 1.41026 13.0102 1.41026 13.0202 1.41026C13.3502 1.41026 13.9002 1.41026 14.2202 1.41026C14.4702 1.41026 14.7201 1.45026 14.9501 1.57026C15.2901 1.74026 15.4702 2.03025 15.5202 2.40025C15.5502 2.63025 15.5301 2.85026 15.4501 3.07026Z" fill="#323334"/>
<path d="M22.6202 3.82016C22.6202 4.49016 22.3702 5.10016 21.9002 5.57016C21.4202 6.05016 20.8102 6.30014 20.1602 6.30014C19.5102 6.30014 18.9002 6.05016 18.4202 5.57016C17.9502 5.09016 17.7002 4.49016 17.7002 3.82016C17.7002 3.15016 17.9502 2.53014 18.4202 2.05014C18.8802 1.58014 19.5002 1.33014 20.1602 1.33014C20.8202 1.33014 21.4302 1.58014 21.9002 2.05014C22.3702 2.52014 22.6202 3.15016 22.6202 3.82016ZM23.3702 3.82016C23.3702 2.96016 23.0502 2.18014 22.4402 1.58014C21.8302 0.990139 21.0102 0.660156 20.1602 0.660156C19.3102 0.660156 18.4902 0.990139 17.8902 1.58014C17.2702 2.18014 16.9502 2.96016 16.9502 3.82016C16.9502 4.68016 17.2802 5.45014 17.8902 6.05014C18.5002 6.64014 19.3102 6.98016 20.1602 6.98016C21.0102 6.98016 21.8302 6.65014 22.4402 6.05014C23.0502 5.46014 23.3702 4.68016 23.3702 3.82016Z" fill="#323334"/>
<path d="M33.9708 3.71014C33.9408 2.89014 33.6308 2.15014 33.0408 1.58014C32.4308 0.990139 31.6108 0.660156 30.7608 0.660156C29.9108 0.660156 29.0908 0.990139 28.4908 1.58014C27.8808 2.18014 27.5508 2.96016 27.5508 3.82016C27.5508 4.68016 27.8808 5.45014 28.4908 6.05014C29.1008 6.64014 29.9108 6.98016 30.7608 6.98016C31.6108 6.98016 32.4308 6.65014 33.0408 6.05014C33.2708 5.83014 33.4608 5.58015 33.6008 5.31015L32.9208 5.01016C32.8108 5.21016 32.6708 5.40016 32.5008 5.57016C32.0208 6.05016 31.4108 6.30014 30.7608 6.30014C30.1108 6.30014 29.5008 6.05016 29.0208 5.57016C28.5508 5.09016 28.3008 4.49016 28.3008 3.82016C28.3008 3.78016 28.3008 3.75014 28.3008 3.71014H33.9708ZM29.0208 2.05014C29.4808 1.58014 30.1008 1.33014 30.7608 1.33014C31.4208 1.33014 32.0308 1.58014 32.5008 2.05014C32.7908 2.33014 32.9908 2.67014 33.1008 3.05014H28.4108C28.5308 2.68014 28.7308 2.34014 29.0108 2.05014" fill="#323334"/>
<path d="M8.69048 0.670837C7.97048 2.80084 7.02047 4.91081 6.29047 7.05081C5.72047 5.56081 5.15047 4.09083 4.58047 2.60083C4.01047 4.09083 3.42048 5.56081 2.85048 7.05081C2.13048 4.92081 1.20047 2.80084 0.480469 0.670837H0.540466C0.780466 0.670837 1.02047 0.670837 1.26047 0.670837C1.30047 0.670837 1.32047 0.670825 1.33047 0.720825C1.78047 2.08083 2.46048 3.44082 2.91048 4.81082C2.91048 4.83082 2.92047 4.84082 2.93047 4.87082C3.48047 3.44082 4.02048 2.03082 4.57048 0.59082C5.12048 2.02082 5.67047 3.44082 6.22047 4.87082C6.26047 4.76082 6.29048 4.66082 6.32048 4.56082C6.74048 3.28082 7.40048 2.00083 7.82048 0.720825C7.83048 0.680825 7.85047 0.670837 7.89047 0.670837C8.13047 0.670837 8.37047 0.670837 8.61047 0.670837H8.67047H8.69048Z" fill="#323334"/>
<path d="M37.97 6.31067C37.3 6.31067 36.71 6.06066 36.23 5.58066C35.76 5.10066 35.5 4.50066 35.5 3.83066C35.5 3.16066 35.75 2.54067 36.23 2.06067C36.69 1.59067 37.31 1.34067 37.97 1.34067C38.56 1.34067 39.1 1.54068 39.54 1.91068L39.79 1.23068C39.25 0.870682 38.62 0.680664 37.96 0.680664C37.11 0.680664 36.29 1.01068 35.69 1.60068C35.08 2.20068 34.75 2.98067 34.75 3.84067C34.75 4.70067 35.08 5.47068 35.69 6.07068C36.3 6.66068 37.11 7.00067 37.96 7.00067C38.6 7.00067 39.22 6.81066 39.76 6.46066L39.5 5.77066C39.06 6.13066 38.53 6.32068 37.96 6.32068" fill="#323334"/>
<path d="M46.2902 5.16013L45.9902 4.37012V6.97012H46.2902V5.16013Z" fill="#323334"/>
<path d="M44.6602 6.97058H45.1402V2.12057L44.6602 0.850586V6.97058Z" fill="#323334"/>
<path d="M45.7108 3.64017L45.3408 2.66016V6.97015H45.7108V3.64017Z" fill="#323334"/>
<path d="M46.6504 6.12012V6.97012H46.9704L46.6504 6.12012Z" fill="#323334"/>
<path d="M44.5206 0.490448V0.480469L42.0605 6.97046H44.5206V0.490448Z" fill="#323334"/>
<path d="M54.2003 3.81039C54.2003 4.48039 53.9503 5.09039 53.4703 5.56039C52.9903 6.04039 52.3803 6.29041 51.7303 6.29041C51.0803 6.29041 50.4703 6.04039 49.9903 5.56039C49.5203 5.08039 49.2703 4.48039 49.2703 3.81039C49.2703 3.14039 49.5203 2.52041 49.9903 2.04041C50.4503 1.57041 51.0703 1.3204 51.7303 1.3204C52.3903 1.3204 53.0003 1.57041 53.4703 2.04041C53.9403 2.51041 54.2003 3.13039 54.2003 3.81039ZM54.9503 3.81039C54.9503 2.95039 54.6303 2.1704 54.0203 1.5704C53.4103 0.980404 52.5903 0.650391 51.7403 0.650391C50.8903 0.650391 50.0703 0.980404 49.4703 1.5704C48.8503 2.1704 48.5303 2.95039 48.5303 3.81039C48.5303 4.67039 48.8603 5.44041 49.4703 6.04041C50.0803 6.63041 50.8903 6.9704 51.7403 6.9704C52.5903 6.9704 53.4103 6.64041 54.0203 6.04041C54.6303 5.45041 54.9503 4.67039 54.9503 3.81039Z" fill="#323334"/>
<path d="M58.72 6.29016C58.06 6.29016 57.46 6.04015 56.98 5.56015C56.51 5.08015 56.26 4.48015 56.26 3.81015C56.26 3.14015 56.51 2.52016 56.98 2.04016C57.44 1.57016 58.06 1.32016 58.72 1.32016C59.31 1.32016 59.85 1.52017 60.29 1.89017L60.54 1.21014C60.01 0.850144 59.37 0.660156 58.71 0.660156C57.86 0.660156 57.04 0.990139 56.44 1.58014C55.83 2.18014 55.5 2.96016 55.5 3.82016C55.5 4.68016 55.83 5.45014 56.44 6.05014C57.05 6.64014 57.86 6.98016 58.71 6.98016C59.35 6.98016 59.97 6.79016 60.51 6.44016L60.25 5.75015C59.81 6.11015 59.28 6.30014 58.71 6.30014" fill="#323334"/>
<path d="M61.1809 5.87042C61.6509 6.65042 62.4909 7.05042 63.6609 7.05042C65.2709 7.05042 66.2709 6.36043 66.2709 5.28043C66.2709 4.37043 65.6709 3.98042 64.3609 3.49042C63.2009 3.06042 62.3909 2.89042 62.3909 2.15042C62.3909 1.56042 62.9409 1.18042 63.8209 1.18042C64.4709 1.18042 64.9709 1.37042 65.2209 1.71042L65.8409 1.46042C65.4309 0.950419 64.7709 0.69043 63.8709 0.69043C62.5009 0.69043 61.5609 1.29042 61.5609 2.15042C61.5609 3.01042 62.3809 3.39044 63.7909 3.89044C64.8409 4.26044 65.4909 4.54044 65.4909 5.29044C65.4909 6.10044 64.8209 6.57043 63.6909 6.57043C62.8209 6.57043 62.1209 6.23043 61.8709 5.63043L61.1709 5.88043L61.1809 5.87042Z" fill="#323334"/>
</svg>
