<svg xmlns="http://www.w3.org/2000/svg" width="375" height="150" viewBox="0 0 375 150" fill="none"><path d="M47.23 73.47H46.1C38.7 68.63 35.74 52.9301 32.62 36.3101L32.54 35.88C32.01 33.08 31.48 30.26 30.92 27.44C26.7 6.30003 10.71 1.88003 2.84998 2.50003L0.859985 2.66003L1.72998 14.08L3.68997 13.9601C4.98997 13.8901 16.45 13.68 19.65 29.69C20.2 32.46 20.73 35.24 21.24 37.98L21.33 38.4301C24.62 55.9101 27.75 72.51 37.09 80.97V112.5H50.45V82.3L50.76 82.42L81.14 3.61005L75.07 1.28003L47.24 73.47H47.23Z" fill="white"></path><path d="M189.13 70.6701V2.31012H183.62V70.9701C183.62 71.0601 183.34 80.3601 178.77 89.5001C172.78 101.49 162.51 107.61 148.24 107.69C120.06 107.88 118.68 75.5201 118.62 71.8701V1.87012H103.27V78.9901C103.27 82.4501 103.97 91.3601 110.43 99.2201C118.02 108.45 130.76 113.22 148.31 113.41C148.52 113.41 148.72 113.41 148.93 113.41C160.59 113.41 170.01 109.88 176.92 102.92C189.25 90.5001 189.15 71.7201 189.14 70.6801L189.13 70.6701Z" fill="white"></path><path d="M374.41 68.8V0.440002H368.9V69.1C368.9 69.19 368.62 78.49 364.05 87.63C358.06 99.62 347.79 105.74 333.52 105.82C333.45 105.82 333.37 105.82 333.3 105.82C305.36 105.82 303.96 73.64 303.9 70V0H288.55V77.12C288.55 80.58 289.25 89.49 295.71 97.35C303.3 106.58 316.04 111.35 333.59 111.54C333.8 111.54 334 111.54 334.21 111.54C345.87 111.54 355.29 108.01 362.2 101.05C374.54 88.62 374.43 69.84 374.42 68.81L374.41 68.8Z" fill="white"></path><path d="M271.91 92.53V0.310059H258.85V2.30005C258.85 3.09005 258.55 81.56 258.44 92.95C258.36 101.57 253.59 105.82 251.97 107.02C250.61 107.23 249.12 107.35 247.48 107.35C240.19 107.35 232.76 104.53 225.55 101.79C212.98 97.02 198.74 91.6 185.78 103.5L184.31 104.85L188.7 109.64L190.17 108.29C200.18 99.11 210.87 103.17 223.25 107.88C230.99 110.82 238.99 113.86 247.47 113.86C254.73 113.86 259.93 111.87 263.53 109.56C265.2 108.79 266.65 107.77 267.87 106.48C269.12 105.15 270 103.66 270.62 102.17L271.33 100.8L271.15 100.71C272.33 96.9001 272.01 93.35 271.91 92.54V92.53Z" fill="white"></path><path d="M109.68 148.74C108.62 148.42 107.79 147.99 107.17 147.46L108.12 145.34C108.72 145.82 109.46 146.2 110.33 146.51C111.21 146.81 112.08 146.96 112.97 146.96C114.06 146.96 114.88 146.79 115.42 146.44C115.96 146.09 116.23 145.63 116.23 145.05C116.23 144.63 116.08 144.28 115.78 144.01C115.48 143.74 115.1 143.52 114.64 143.37C114.18 143.22 113.55 143.04 112.75 142.85C111.63 142.58 110.72 142.32 110.03 142.05C109.34 141.78 108.74 141.37 108.24 140.8C107.74 140.23 107.49 139.47 107.49 138.5C107.49 137.69 107.71 136.95 108.15 136.28C108.59 135.61 109.26 135.09 110.14 134.69C111.03 134.3 112.12 134.1 113.41 134.1C114.31 134.1 115.19 134.21 116.06 134.44C116.93 134.66 117.68 134.99 118.31 135.41L117.45 137.53C116.81 137.15 116.13 136.86 115.43 136.67C114.73 136.47 114.05 136.38 113.39 136.38C112.31 136.38 111.51 136.56 110.99 136.93C110.46 137.29 110.2 137.78 110.2 138.38C110.2 138.8 110.35 139.14 110.65 139.41C110.95 139.68 111.33 139.89 111.79 140.04C112.25 140.19 112.88 140.37 113.68 140.56C114.77 140.81 115.67 141.07 116.37 141.35C117.07 141.62 117.67 142.04 118.17 142.6C118.67 143.16 118.91 143.92 118.91 144.87C118.91 145.68 118.69 146.42 118.25 147.08C117.81 147.74 117.14 148.26 116.24 148.66C115.34 149.05 114.25 149.25 112.96 149.25C111.83 149.25 110.73 149.09 109.67 148.77L109.68 148.74Z" fill="white"></path><path d="M128.63 148.24C127.43 147.59 126.48 146.69 125.8 145.53C125.11 144.38 124.77 143.08 124.77 141.66C124.77 140.24 125.11 138.94 125.8 137.79C126.49 136.64 127.43 135.73 128.63 135.08C129.83 134.43 131.18 134.1 132.68 134.1C134.18 134.1 135.53 134.43 136.73 135.08C137.93 135.73 138.88 136.63 139.56 137.78C140.25 138.93 140.59 140.22 140.59 141.66C140.59 143.1 140.25 144.4 139.56 145.55C138.87 146.7 137.93 147.6 136.73 148.25C135.53 148.9 134.18 149.23 132.68 149.23C131.18 149.23 129.83 148.9 128.63 148.25V148.24ZM135.33 146.17C136.11 145.73 136.73 145.11 137.18 144.32C137.63 143.53 137.85 142.64 137.85 141.66C137.85 140.68 137.63 139.79 137.18 139C136.73 138.21 136.12 137.59 135.33 137.15C134.55 136.71 133.66 136.49 132.68 136.49C131.7 136.49 130.82 136.71 130.03 137.15C129.25 137.59 128.63 138.21 128.18 139C127.73 139.79 127.51 140.68 127.51 141.66C127.51 142.64 127.73 143.53 128.18 144.32C128.63 145.11 129.24 145.73 130.03 146.17C130.81 146.61 131.7 146.83 132.68 146.83C133.66 146.83 134.54 146.61 135.33 146.17Z" fill="white"></path><path d="M149.27 147.51C148.14 146.37 147.57 144.73 147.57 142.61V134.31H150.3V142.5C150.3 145.38 151.55 146.83 154.04 146.83C156.53 146.83 157.76 145.39 157.76 142.5V134.31H160.45V142.61C160.45 144.74 159.89 146.37 158.76 147.51C157.63 148.65 156.05 149.22 154.02 149.22C151.99 149.22 150.41 148.65 149.27 147.51Z" fill="white"></path><path d="M181.9 134.31L175.49 149.01H172.8L166.37 134.31H169.33L174.22 145.65L179.15 134.31H181.88H181.9Z" fill="white"></path><path d="M198.68 146.72V149.01H187.65V134.31H198.38V136.6H190.38V140.42H197.48V142.67H190.38V146.72H198.67H198.68Z" fill="white"></path><path d="M218.99 134.31V149.01H216.74L208.63 139.06V149.01H205.92V134.31H208.17L216.28 144.26V134.31H218.99Z" fill="white"></path><path d="M227.14 134.31H229.87V149.01H227.14V134.31Z" fill="white"></path><path d="M247.65 149.01L244.65 144.7C244.52 144.71 244.34 144.72 244.08 144.72H240.76V149H238.03V134.3H244.08C245.35 134.3 246.46 134.51 247.41 134.93C248.36 135.35 249.08 135.95 249.58 136.74C250.08 137.52 250.34 138.46 250.34 139.53C250.34 140.6 250.07 141.59 249.53 142.39C248.99 143.19 248.22 143.78 247.21 144.18L250.59 149.01H247.65ZM246.67 137.38C246.05 136.88 245.15 136.62 243.96 136.62H240.77V142.48H243.96C245.15 142.48 246.05 142.22 246.67 141.71C247.29 141.2 247.59 140.47 247.59 139.54C247.59 138.61 247.28 137.88 246.67 137.38Z" fill="white"></path><path d="M258.86 148.74C257.8 148.42 256.97 147.99 256.35 147.46L257.29 145.34C257.89 145.82 258.63 146.2 259.51 146.51C260.39 146.81 261.26 146.96 262.15 146.96C263.24 146.96 264.06 146.79 264.6 146.44C265.14 146.09 265.41 145.63 265.41 145.05C265.41 144.63 265.26 144.28 264.96 144.01C264.66 143.74 264.28 143.52 263.82 143.37C263.36 143.22 262.73 143.04 261.93 142.85C260.81 142.58 259.9 142.32 259.21 142.05C258.52 141.78 257.92 141.37 257.43 140.8C256.93 140.23 256.68 139.47 256.68 138.5C256.68 137.69 256.9 136.95 257.34 136.28C257.78 135.61 258.45 135.09 259.33 134.69C260.22 134.3 261.31 134.1 262.6 134.1C263.5 134.1 264.38 134.21 265.25 134.44C266.12 134.66 266.87 134.99 267.5 135.41L266.64 137.53C266 137.15 265.32 136.86 264.62 136.67C263.92 136.47 263.24 136.38 262.58 136.38C261.5 136.38 260.7 136.56 260.18 136.93C259.65 137.29 259.39 137.78 259.39 138.38C259.39 138.8 259.54 139.14 259.84 139.41C260.14 139.68 260.52 139.89 260.98 140.04C261.44 140.19 262.07 140.37 262.87 140.56C263.96 140.81 264.86 141.07 265.56 141.35C266.26 141.62 266.86 142.04 267.36 142.6C267.86 143.16 268.11 143.92 268.11 144.87C268.11 145.68 267.89 146.42 267.45 147.08C267.01 147.74 266.34 148.26 265.44 148.66C264.54 149.05 263.45 149.25 262.16 149.25C261.03 149.25 259.93 149.09 258.87 148.77L258.86 148.74Z" fill="white"></path></svg>