<svg xmlns="http://www.w3.org/2000/svg" width="374" height="150" viewBox="0 0 374 150" fill="none"><path d="M46.37 73.47H45.24C37.84 68.63 34.88 52.9301 31.76 36.3101L31.68 35.88C31.15 33.08 30.62 30.26 30.06 27.44C25.84 6.30003 9.84999 1.88003 1.98999 2.50003L0 2.66003L0.869995 14.08L2.82999 13.9601C4.12999 13.8901 15.59 13.68 18.79 29.69C19.34 32.46 19.87 35.24 20.38 37.98L20.47 38.4301C23.76 55.9101 26.89 72.51 36.23 80.97V112.5H49.59V82.3L49.9 82.42L80.28 3.61005L74.21 1.28003L46.38 73.47H46.37Z" fill="#323334"></path><path d="M188.27 70.6701V2.31012H182.76V70.9701C182.76 71.0601 182.48 80.3601 177.91 89.5001C171.92 101.49 161.65 107.61 147.38 107.69C119.2 107.88 117.82 75.5201 117.76 71.8701V1.87012H102.41V78.9901C102.41 82.4501 103.11 91.3601 109.57 99.2201C117.16 108.45 129.9 113.22 147.45 113.41C147.66 113.41 147.86 113.41 148.07 113.41C159.73 113.41 169.15 109.88 176.06 102.92C188.39 90.5001 188.29 71.7201 188.28 70.6801L188.27 70.6701Z" fill="#323334"></path><path d="M373.55 68.8V0.440002H368.04V69.1C368.04 69.19 367.76 78.49 363.19 87.63C357.2 99.62 346.93 105.74 332.66 105.82C332.59 105.82 332.51 105.82 332.44 105.82C304.5 105.82 303.1 73.64 303.04 70V0H287.69V77.12C287.69 80.58 288.39 89.49 294.85 97.35C302.44 106.58 315.18 111.35 332.73 111.54C332.94 111.54 333.14 111.54 333.35 111.54C345.01 111.54 354.43 108.01 361.34 101.05C373.68 88.62 373.57 69.84 373.56 68.81L373.55 68.8Z" fill="#323334"></path><path d="M271.05 92.53V0.310059H257.99V2.30005C257.99 3.09005 257.69 81.56 257.58 92.95C257.5 101.57 252.73 105.82 251.11 107.02C249.75 107.23 248.26 107.35 246.62 107.35C239.33 107.35 231.9 104.53 224.69 101.79C212.12 97.02 197.88 91.6 184.92 103.5L183.45 104.85L187.84 109.64L189.31 108.29C199.32 99.11 210.01 103.17 222.39 107.88C230.13 110.82 238.13 113.86 246.61 113.86C253.87 113.86 259.07 111.87 262.67 109.56C264.34 108.79 265.79 107.77 267.01 106.48C268.26 105.15 269.14 103.66 269.76 102.17L270.47 100.8L270.29 100.71C271.47 96.9001 271.15 93.35 271.05 92.54V92.53Z" fill="#323334"></path><path d="M108.82 148.74C107.76 148.42 106.93 147.99 106.31 147.46L107.26 145.34C107.86 145.82 108.6 146.2 109.47 146.51C110.35 146.81 111.22 146.96 112.11 146.96C113.2 146.96 114.02 146.79 114.56 146.44C115.1 146.09 115.37 145.63 115.37 145.05C115.37 144.63 115.22 144.28 114.92 144.01C114.62 143.74 114.24 143.52 113.78 143.37C113.32 143.22 112.69 143.04 111.89 142.85C110.77 142.58 109.86 142.32 109.17 142.05C108.48 141.78 107.88 141.37 107.38 140.8C106.88 140.23 106.63 139.47 106.63 138.5C106.63 137.69 106.85 136.95 107.29 136.28C107.73 135.61 108.4 135.09 109.28 134.69C110.17 134.3 111.26 134.1 112.55 134.1C113.45 134.1 114.33 134.21 115.2 134.44C116.07 134.66 116.82 134.99 117.45 135.41L116.59 137.53C115.95 137.15 115.27 136.86 114.57 136.67C113.87 136.47 113.19 136.38 112.53 136.38C111.45 136.38 110.65 136.56 110.13 136.93C109.6 137.29 109.34 137.78 109.34 138.38C109.34 138.8 109.49 139.14 109.79 139.41C110.09 139.68 110.47 139.89 110.93 140.04C111.39 140.19 112.02 140.37 112.82 140.56C113.91 140.81 114.81 141.07 115.51 141.35C116.21 141.62 116.81 142.04 117.31 142.6C117.81 143.16 118.05 143.92 118.05 144.87C118.05 145.68 117.83 146.42 117.39 147.08C116.95 147.74 116.28 148.26 115.38 148.66C114.48 149.05 113.39 149.25 112.1 149.25C110.97 149.25 109.87 149.09 108.81 148.77L108.82 148.74Z" fill="#323334"></path><path d="M127.77 148.24C126.57 147.59 125.62 146.69 124.94 145.53C124.25 144.38 123.91 143.08 123.91 141.66C123.91 140.24 124.25 138.94 124.94 137.79C125.63 136.64 126.57 135.73 127.77 135.08C128.97 134.43 130.32 134.1 131.82 134.1C133.32 134.1 134.67 134.43 135.87 135.08C137.07 135.73 138.02 136.63 138.7 137.78C139.39 138.93 139.73 140.22 139.73 141.66C139.73 143.1 139.39 144.4 138.7 145.55C138.01 146.7 137.07 147.6 135.87 148.25C134.67 148.9 133.32 149.23 131.82 149.23C130.32 149.23 128.97 148.9 127.77 148.25V148.24ZM134.47 146.17C135.25 145.73 135.87 145.11 136.32 144.32C136.77 143.53 136.99 142.64 136.99 141.66C136.99 140.68 136.77 139.79 136.32 139C135.87 138.21 135.26 137.59 134.47 137.15C133.69 136.71 132.8 136.49 131.82 136.49C130.84 136.49 129.96 136.71 129.17 137.15C128.39 137.59 127.77 138.21 127.32 139C126.87 139.79 126.65 140.68 126.65 141.66C126.65 142.64 126.87 143.53 127.32 144.32C127.77 145.11 128.38 145.73 129.17 146.17C129.95 146.61 130.84 146.83 131.82 146.83C132.8 146.83 133.68 146.61 134.47 146.17Z" fill="#323334"></path><path d="M148.41 147.51C147.28 146.37 146.71 144.73 146.71 142.61V134.31H149.44V142.5C149.44 145.38 150.69 146.83 153.18 146.83C155.67 146.83 156.9 145.39 156.9 142.5V134.31H159.59V142.61C159.59 144.74 159.03 146.37 157.9 147.51C156.77 148.65 155.19 149.22 153.16 149.22C151.13 149.22 149.55 148.65 148.41 147.51Z" fill="#323334"></path><path d="M181.04 134.31L174.63 149.01H171.94L165.51 134.31H168.47L173.36 145.65L178.29 134.31H181.02H181.04Z" fill="#323334"></path><path d="M197.82 146.72V149.01H186.79V134.31H197.52V136.6H189.52V140.42H196.62V142.67H189.52V146.72H197.81H197.82Z" fill="#323334"></path><path d="M218.13 134.31V149.01H215.88L207.77 139.06V149.01H205.06V134.31H207.31L215.42 144.26V134.31H218.13Z" fill="#323334"></path><path d="M226.28 134.31H229.01V149.01H226.28V134.31Z" fill="#323334"></path><path d="M246.79 149.01L243.79 144.7C243.66 144.71 243.48 144.72 243.22 144.72H239.9V149H237.17V134.3H243.22C244.49 134.3 245.6 134.51 246.55 134.93C247.5 135.35 248.22 135.95 248.72 136.74C249.22 137.52 249.48 138.46 249.48 139.53C249.48 140.6 249.21 141.59 248.67 142.39C248.13 143.19 247.36 143.78 246.35 144.18L249.73 149.01H246.79ZM245.81 137.38C245.19 136.88 244.29 136.62 243.1 136.62H239.91V142.48H243.1C244.29 142.48 245.19 142.22 245.81 141.71C246.43 141.2 246.73 140.47 246.73 139.54C246.73 138.61 246.42 137.88 245.81 137.38Z" fill="#323334"></path><path d="M258 148.74C256.94 148.42 256.11 147.99 255.49 147.46L256.43 145.34C257.03 145.82 257.77 146.2 258.65 146.51C259.53 146.81 260.4 146.96 261.29 146.96C262.38 146.96 263.2 146.79 263.74 146.44C264.28 146.09 264.55 145.63 264.55 145.05C264.55 144.63 264.4 144.28 264.1 144.01C263.8 143.74 263.42 143.52 262.96 143.37C262.5 143.22 261.87 143.04 261.07 142.85C259.95 142.58 259.04 142.32 258.35 142.05C257.66 141.78 257.06 141.37 256.57 140.8C256.07 140.23 255.82 139.47 255.82 138.5C255.82 137.69 256.04 136.95 256.48 136.28C256.92 135.61 257.59 135.09 258.47 134.69C259.36 134.3 260.45 134.1 261.74 134.1C262.64 134.1 263.52 134.21 264.39 134.44C265.26 134.66 266.01 134.99 266.64 135.41L265.78 137.53C265.14 137.15 264.46 136.86 263.76 136.67C263.06 136.47 262.38 136.38 261.72 136.38C260.64 136.38 259.84 136.56 259.32 136.93C258.79 137.29 258.53 137.78 258.53 138.38C258.53 138.8 258.68 139.14 258.98 139.41C259.28 139.68 259.66 139.89 260.12 140.04C260.58 140.19 261.21 140.37 262.01 140.56C263.1 140.81 264 141.07 264.7 141.35C265.4 141.62 266 142.04 266.5 142.6C267 143.16 267.25 143.92 267.25 144.87C267.25 145.68 267.03 146.42 266.59 147.08C266.15 147.74 265.48 148.26 264.58 148.66C263.68 149.05 262.59 149.25 261.3 149.25C260.17 149.25 259.07 149.09 258.01 148.77L258 148.74Z" fill="#323334"></path></svg>