<?xml version="1.0" encoding="utf-8"?>
<!-- Generator: Adobe Illustrator 23.0.1, SVG Export Plug-In . SVG Version: 6.00 Build 0)  -->
<svg version="1.1" id="Layer_1" xmlns="http://www.w3.org/2000/svg" xmlns:xlink="http://www.w3.org/1999/xlink" x="0px" y="0px"
	 viewBox="0 0 100 100" style="enable-background:new 0 0 100 100;" xml:space="preserve">
<style type="text/css">
	.st0{fill:#C6E3E5;}
	.st1{opacity:0.2;}
	.st2{fill:#FFFFFF;}
	.st3{fill:#E0E0E0;}
	.st4{fill:#354D5C;}
	.st5{opacity:0.1;fill:#FFFFFF;}
</style>
<g>
	<g>
		<path class="st0" d="M100.5,50c0,1.6-0.1,3.2-0.2,4.7c-0.6,6.5-2.5,12.6-5.3,18.1c-0.3,0.5-0.5,1-0.8,1.5
			c-0.2,0.4-0.4,0.7-0.6,1.1c0,0,0,0,0,0c-7.5,12.7-20.4,21.7-35.6,24c-0.4,0.1-0.8,0.1-1.3,0.2c-1.9,0.2-3.8,0.4-5.7,0.4
			c-0.2,0-0.3,0-0.5,0c-0.4,0-0.7,0-1.1,0c-0.2,0-0.4,0-0.6,0c-0.2,0-0.3,0-0.5,0c-0.1,0-0.3,0-0.4,0C21.7,98.7,0.5,76.9,0.5,50
			c0-27.6,22.4-50,50-50C76.6,0,98,20,100.3,45.5C100.5,47,100.5,48.5,100.5,50z"/>
		<g>
			<path class="st1" d="M100.5,50c0,1.6-0.1,3.2-0.2,4.7c-0.6,6.5-2.5,12.6-5.3,18.1c-0.3,0.5-0.5,1-0.8,1.5
				c-0.2,0.4-0.4,0.7-0.6,1.1c0,0,0,0,0,0c-7.5,12.7-20.4,21.7-35.6,24c-0.4,0.1-0.8,0.1-1.3,0.2c-1.9,0.2-3.8,0.4-5.7,0.4
				c-0.2,0-0.3,0-0.5,0c-0.4,0-0.7,0-1.1,0c-0.2,0-0.4,0-0.6,0c-0.2,0-0.3,0-0.5,0c-0.1,0-0.3,0-0.4,0C31.3,83.3,12,64,11.9,63.9
				c-3.3-2.6-5.4-6.6-5.4-11.1c0-7.8,6.3-14.1,14.1-14.1c0.6,0,1.1,0,1.7,0.1c1.2-3.3,4.4-5.7,8.2-5.7c1.3,0,2.6,0.3,3.7,0.8
				c2.2-9.8,10.9-17.2,21.4-17.2c6.7,0,12.7,3,16.7,7.7c0.9,0.8,1.7,1.6,2.5,2.5c0.5,0.5,1,0.9,1.5,1.4c5.5,0.3,10.4,2.9,13.7,6.9
				c0,0,4.1,4.1,10.2,10.2C100.5,47,100.5,48.5,100.5,50z"/>
			<path class="st2" d="M75.3,28.4c-0.1,0-0.2,0-0.3,0c-3.7-6.9-11-11.6-19.4-11.6c-10.5,0-19.3,7.4-21.4,17.2
				c-1.1-0.5-2.4-0.8-3.7-0.8c-3.7,0-6.9,2.4-8.2,5.7c-0.6-0.1-1.1-0.1-1.7-0.1c-7.8,0-14.1,6.3-14.1,14.1c0,7.8,6.3,14.1,14.1,14.1
				h50.9c0.6,0,1.2,0,1.8-0.1c0.6,0.1,1.3,0.1,1.9,0.1c10.6,0,19.3-8.6,19.3-19.3C94.5,37,85.9,28.4,75.3,28.4z"/>
			<path class="st3" d="M86.9,32.3c1.6,2.8,2.5,6.1,2.5,9.5c0,10.6-8.6,19.3-19.3,19.3c-2.7,0-5.3-0.6-7.7-1.6
				c8.7-2.9,15.1-11.1,15.1-20.8c0-6.9-3.2-13.1-8.2-17.1c1.4,2.9,2.2,6.1,2.2,9.5c0,10.2-7,18.8-16.5,21.2
				c-1.4,0.3-2.8,0.6-4.2,0.7c-0.2,0-0.4,0-0.6,0c-0.2,0-0.4,0-0.7,0c-0.7,0-1.4,0-2-0.1c-0.7-0.1-1.3-0.2-2-0.3
				c-3.5-0.6-6.7-2.1-9.4-4.2c1.9-1.6,3-4,3-6.6c0-2.6-1.1-4.9-2.9-6.5c0.8,1.3,1.2,2.8,1.2,4.4c0,4.5-3.5,8.2-8,8.4
				c-0.8,0.2-1.6,0.3-2.4,0.3c-1,0-1.9-0.2-2.7-0.4c1.5,1.5,3.6,2.4,6,2.4c-0.8,7.1-6.8,12.6-14,12.6c-2.6,0-5-0.7-7.1-1.9
				c2.6,3.5,6.7,5.7,11.3,5.7h54.7c10.6,0,19.3-8.6,19.3-19.3C94.5,41.4,91.6,35.8,86.9,32.3z"/>
		</g>
	</g>
	<path class="st4" d="M66.2,75.6L50.9,89.7l-0.1,0l0,0L35.7,75.6h9.9v-23c0.7,0.1,1.3,0.2,2,0.3c0.7,0.1,1.4,0.1,2,0.1
		c0.2,0,0.4,0,0.7,0c0.2,0,0.4,0,0.6,0c1.4-0.1,2.9-0.3,4.2-0.7h1.1v23.3H66.2z"/>
	<path class="st5" d="M50.9,53v36.8l0,0L35.7,75.6h9.9v-23c1.3,0.2,2.6,0.4,4,0.4C50,53,50.5,53,50.9,53z"/>
</g>
</svg>
