<svg id="Image_copy" data-name="Image copy" xmlns="http://www.w3.org/2000/svg" width="352" height="282" viewBox="0 0 352 282">
  <defs>
    <style>
      .cls-1 {
        fill: #fa674a;
      }

      .cls-1, .cls-10, .cls-11, .cls-12, .cls-13, .cls-14, .cls-15, .cls-16, .cls-4, .cls-5, .cls-6, .cls-7, .cls-8, .cls-9 {
        fill-rule: evenodd;
      }

      .cls-2 {
        font-size: 67.625px;
      }

      .cls-2, .cls-3 {
        fill: #fff;
        font-family: "Overlock SC";
      }

      .cls-3 {
        font-size: 75.139px;
      }

      .cls-4 {
        fill: #be523d;
      }

      .cls-5 {
        fill: #282d36;
      }

      .cls-6 {
        fill: #2a5785;
      }

      .cls-7 {
        fill: #95eb66;
      }

      .cls-8 {
        fill: #2a343e;
      }

      .cls-9 {
        fill: #48515a;
      }

      .cls-10 {
        fill: #ffc7b1;
      }

      .cls-11 {
        fill: #191e25;
      }

      .cls-12 {
        fill: #373d46;
      }

      .cls-13 {
        fill: #a51717;
      }

      .cls-14 {
        fill: #56616c;
      }

      .cls-15 {
        fill: #778594;
      }

      .cls-16 {
        fill: #1d1d1d;
      }
    </style>
  </defs>
  <g id="Svg">
    <path id="Ellipse_34_copy_6" data-name="Ellipse 34 copy 6" class="cls-1" d="M351,182.914c1.119-30.831-9.048-67.113-48-87.914-21.581-11.526-33.232-24.131-44.809-36.9C269.538,68.122,281.364,78,299,87,345.265,110.61,354.412,151.1,351,182.914ZM56,51c-12.322,21.8-26.684,49.96-37.656,77.063A439.112,439.112,0,0,1,48,56C61.761,29.2,81.665,14.658,103.156,7.94,85.2,15.29,68.582,28.745,56,51Zm48.434,225.991c25.357-.362,46.33-11.477,79.7-14.4C152.492,268.1,134.372,280.157,109,281c-35.678,1.185-60.576-7.837-76.953-22.4C48.535,270.444,72.162,277.451,104.434,276.991Z"/>
    <path id="Ellipse_34_copy_4" data-name="Ellipse 34 copy 4" class="cls-1" d="M59,59C32.353,91.885,11.082,153.032,13,187c2.4,42.445,28.458,79.3,94.241,84.727C138.471,274.3,149.886,248.98,223,264c38.884,7.988,82.911-1.966,106-33,13.313-17.9,29.052-85.875-36.2-135.16-40.346-30.473-39.722-51.535-90.2-76.169C165.882,1.752,107.17-.447,59,59Z"/>
    <text id="_" data-name="?" class="cls-2" transform="translate(127.396 66.249) rotate(5.961) scale(1.065)">?</text>
    <text id="_2" data-name="?" class="cls-3" transform="matrix(0.947, 0.487, -0.487, 0.947, 144.531, 65.989)">?</text>
    <text id="_3" data-name="?" class="cls-2" transform="matrix(0.591, 0.886, -0.886, 0.591, 159.472, 76.917)">?</text>
  </g>
  <g id="_3-2" data-name="3">
    <path id="Ellipse_41_copy_2" data-name="Ellipse 41 copy 2" class="cls-4" d="M211.127,248.374c13.894-3.823-24.563-7.43-73.205-7.39-48.6.039-107.928,3.581-107.928,8S185.4,255.454,211.127,248.374Z"/>
    <path class="cls-5" d="M80.3,181.837c-0.174-1.436,17.462-.037,16.231-3.9s4.758,12.305-2.6,13.654S81.828,194.457,80.3,181.837Zm11.686,7.152v43.536H87.439V188.339Zm-2.443,41.4c21.676,0,26.019,30.174,26.019,14.767,0-.953-4.343-11.485-26.019-11.485s-26.018,11.363-26.018,11.485C63.523,260.566,67.865,230.392,89.541,230.392Z"/>
    <path class="cls-5" d="M12.776,100.565S29.6,88.126,36.8,125.271s14.735,61.888,34.41,61.768,38.282-15.679,48.694-3.9c10.042,11.36,18.656-.558,14.933-13.653s-23.345-11.545-31.164-11.053c-25.911,1.628-31.409-1.288-35.709-20.806S54.475,93.19,41.342,90.812C30.824,88.907,15.644,88.256,12.776,100.565Z"/>
    <path id="Shape_13_copy" data-name="Shape 13 copy" class="cls-6" d="M10.824,93.4S27.652,80.964,34.846,118.11,49.581,180,69.256,179.877s38.281-15.679,48.693-3.9c10.043,11.359,18.657-.558,14.933-13.654s-23.344-11.545-31.164-11.053c-25.91,1.628-31.408-1.287-35.708-20.806S52.523,86.028,39.391,83.65C28.872,81.745,13.692,81.1,10.824,93.4Z"/>
  </g>
  <g id="_2-2" data-name="2">
    <path id="Ellipse_19_copy_3" data-name="Ellipse 19 copy 3" class="cls-4" d="M248.1,241.363c22.4,0,40.551,2.108,40.551,4.708s-18.155,4.707-40.551,4.707-40.55-2.107-40.55-4.707S225.706,241.363,248.1,241.363Z"/>
    <path id="Shape_76_copy_3" data-name="Shape 76 copy 3" class="cls-7" d="M198.362,99.291c-0.417-.285,20.512-1.232,28.021,12.755,6.306,10.838,14.611,16.086,11.855,22.8-6.323,16.861.729,10.205,2.767,17.422a11.018,11.018,0,0,1-1.509,8.992c-1.391,2.253-3.022,4.646-3.022,4.644a126.6,126.6,0,0,1,4.415,24.254c0.377,4.016.584,6.089,0.636,10.108,0.064,4.915.085,8.615,0.076,11.386,0,1.386-.014,2.539-0.03,3.5s-0.035,1.728-.057,2.342c-0.089,2.451-.212,2.431-0.212,2.431-0.413-.11-4.826-0.22-5.239-0.33,0.353,0,5.045-13.9,3.073-31.446a143.987,143.987,0,0,0-4.359-23.757c-0.958-3.706-7.638-5.573-8.683-9.566-0.895-3.173,2.3-10.122.046-15.485,0.115,0.008-1.02-3.6-8.533-8.178-4.147-4.832-7.342-6.77-9.607-15.161-4.7-5.113-3.934-8.2-4-10-0.256-1.709-.714-3.945-5.638-6.709h0Zm37.265,65.136c0.233-.3-1.236-10.907-5.033-25.713-4.267-14.387-10.861-32.975-31.753-39.559a39.025,39.025,0,0,1,12.4,8.545c6.179,5.892,11.712,15.49,16.6,25.3,12.9,27.609,7.547,31.544,7.788,31.428h0Zm71.76-1.373c-0.018-.2-14.266-8.21-23.561-2.166-7.686,4.638-8.171,2.286-11.605,8.086-2.708,4.763-6.245,6.669-9.895,10.41-3.635,3.761-2.471,6.535-2.477,6.518a127.859,127.859,0,0,0-13.73,24.048,103.911,103.911,0,0,0-4.2,11.138,6.161,6.161,0,0,0-.279,1.419c0,0.206.054,0.21,0.054,0.21,0.236,0.09,3.473.181,3.71,0.271a50.923,50.923,0,0,1,5.158-19.212,72.177,72.177,0,0,1,10.712-16.525c1.74-1.912,6.585-1.525,8.73-3.251,3.553-2.795,3.963-7.661,5.361-8.186,1.248-2.551,13.708.405,20.881-5.206,7.809-5.052,2.234-7,11.145-7.554h0Zm-23.92,4.014C266.606,177.876,261.256,186.233,261,186a98.737,98.737,0,0,1,17.475-17.723,30.253,30.253,0,0,1,17.587-6.764,33.977,33.977,0,0,1,11.423,1.473,33.858,33.858,0,0,0-10.176-.2,37.7,37.7,0,0,0-14.005,4.286ZM287.156,106s-14.618,4.006-21.464,17.559c-5.655,11.193-3.349,10.463-4.983,19.562-1.332,7.422-8.83,10.743-11.835,17.561s3.4,10.718,3.4,10.718a166.28,166.28,0,0,0-8.688,31.34c-2.779,17.221-2.123,21.269-2.123,21.269l4.974-.081c-1.147,1.329-3.191-14.648.674-30.365a126.992,126.992,0,0,1,7.291-21.524c1.427-3.368,8.51-5.986,10.12-9.655,1.27-2.895-.445-2.637,2-13.737,0,0,15.624-9.732,18.315-23.125S283.039,115.539,287.156,106Zm-15.641,28.5c-13.177,25.691-17.4,36.7-17.4,36.7-0.043-.785,10.253-26.52,14.606-36.326a119.818,119.818,0,0,1,18.01-29.086S276.848,124.1,271.515,134.5ZM207,142s11.614,3.184,14.206,12.3c2,7.039,4.966,5.412,6,11.48a46.6,46.6,0,0,0,3.86,12.513c1.934,4.3-.671,6.021-0.671,6.021s3.638,8.022,5.325,21.585c1.449,11.646,6.581,13,6.581,13l-6.488-.047s-0.764-4.117-2.248-16.592c-0.581-4.881-.942-9.091-4.353-16.054-1.02-2.083-4.342-1.269-6.98-5.9-0.988-1.735-.7-8.274-5.023-9.221,0,0-5.857-3.99-7.57-12.883-1.439-7.474-.405-8.605-1.075-12.068m19.894,35.506c0.007-.014-9.541-24.068-22.462-40.642-0.007.015,1.244,2.841,1.868,3.925,11.29,19.627,7.932,13.35,11.609,19.83C223.232,171.376,228.462,181.642,228.462,181.642ZM191,185c0.144-.028,9.733-4.828,18.782-2.581,4.215,1.378,5.534,2.548,10.163,7.007,2.773,2.811,4.027,4.884,6.128,7.384,2.062,2.469,1.157,4.163,1.172,4.165,0.1,0.122,3.7,4.514,6.236,13.485,2.33,7.916,2.241,8.831,2.217,8.792h-0.711a0.527,0.527,0,0,1-.023-0.062c-0.015-.042-0.037-0.107-0.066-0.193-0.057-.172-0.143-0.426-0.255-0.756-0.223-.659-3.161-1.334-3.569-2.5-0.818-2.343,1.437-5.639-.074-8.74-1.337-2.743-1.7-5.444-5.023-9.109-1-1.1-2.887-1.806-4.483-2.459a10.777,10.777,0,0,1-4.155-4.573c0,0.076-9.211-.411-15.134-4.4-6.442-3.664-1.728-4.744-9.3-5.639h0Z"/>
    <path id="Rounded_Rectangle_8" data-name="Rounded Rectangle 8" class="cls-8" d="M239.907,214.47c9.6,0,18.912-8.681,18.912.914l-1.22,15.241C256.256,242.662,251.035,248,241.433,248s-14.579-5.46-16.167-17.374l-1.22-15.241C224.046,205.789,230.305,214.47,239.907,214.47Z"/>
  </g>
  <g id="_1" data-name="1">
    <path id="Ellipse_17_copy" data-name="Ellipse 17 copy" class="cls-9" d="M139,98c2.608-.073-5.036,1.5-6,3-1.994,3.1,7.487,2.562-2,4-2.241.339-6.882,1.138-9.125,2.379-2.449,1.354-4,5.563-5.973,9.029-5.773,10.146-11.618,15.266-12.47,15.94-5.425,4.291-6.422,7.528-10.911.1a65.8,65.8,0,0,1-6.692-15.716c-1.745-6.153-2.524-11.81-3.945-16.939C79.4,90.82,81.565,88,82.2,86.253c0.826-2.277,5.042-.161,7.881,2.5,1.13,1.057,1.4,3.894,1.649,5.357,2.352,13.655,3.66,31.45,6.418,29.988,6.087-3.23,8.552-7.818,12.948-12.762,1.136-1.278,3.529-4.448,5.865-7.571,2.057-2.749,1.111-3.306,2.042-4.761,2.57-4.017,3.622-3.781,3-8-0.111-.753,1.433-0.044,2,3,0.458,2.457,0,4.581,0,4C124,97.151,137.7,98.037,139,98Z"/>
    <path id="Ellipse_18_copy" data-name="Ellipse 18 copy" class="cls-10" d="M144.617,82.987a17.084,17.084,0,0,1-1.785,24.091c-7.131,6-32.471,2.824-27.976-8.178,3.64-8.912-11.814-8.079-3.194-14.68C119.062,78.553,138.472,75.683,144.617,82.987Z"/>
    <path class="cls-11" d="M98.735,169.064s25.046-8.106,25.309,1.128-0.532,27.927-1.017,43.109,0.371,19.2,4.308,25.638c2.936,4.8,5.514,6.593,9.25,7.556,7.782,2,7.945-1.758,8.609-4.284,0.458-1.743.163-9.26-.87-14.084-2.444-11.424-4.764-21.34-6.094-38.82s0.638-29.2-2.65-30.444-14.444-2.135-17.3-1.39-2.59,1.17-4.689,2.74S98.735,169.064,98.735,169.064Z"/>
    <path class="cls-12" d="M68.719,151.575S64.841,167.5,72.155,170.8s11.746,2.076,20.674,0c7.934-1.846,39.924-16.929,47.254-1.773,4.909,10.152,6.137,14.96,11.813,26.606,2.663,5.464.864,2.317,3.544,10.051,1.965,5.672,3.784,14.421,8.86,17.737,6.936,4.531,10.353,4.525,11.813,2.365,2.715-4.013-.973-15.021,0-13.007-1.647-3.4-4.245-10.64-5.394-12.74-8.817-16.108-23.115-47.918-26.5-49.932a13.078,13.078,0,0,0-8.86-2.956c-11.433.22-35.163,0.514-44.933,2.538A85.828,85.828,0,0,1,68.719,151.575Z"/>
    <path class="cls-13" d="M83.378,80.932c5.093,3.1,7.651,6.6,8.934,15.055,1.37,9.032-3.826,21.154-3.618,32.245,0.243,12.967.773,18.589,2.363,21.285,0.712,1.208-6.628,1.785-12.968,4.358-10.015,4.064-8.182,14.7-9.477,12.2-4.476-8.633-6.306-21.86-7.088-46.709-0.273-8.693-.192-24.173,1.181-27.2C67.75,81.061,78.962,78.242,83.378,80.932Z"/>
    <path class="cls-14" d="M103.4,147.119l65.073-9.326-0.839,8.954S131.96,152.016,132,152s-26.1-2.517-26.1-2.517Z"/>
    <path class="cls-15" d="M134.073,145.375l8.9-26.015,21.838-1.624,14.558-1.627-9.705,28.453-37.206,4.878Z"/>
    <path id="Ellipse_17_copy_2" data-name="Ellipse 17 copy 2" class="cls-9" d="M126.462,146.379c2.563,0.936,5.1.745,5.3,2.28,0.125,1-7.812,1.59-11.9,1.071-1.951-.247-4.683-2.875-6.868-3.3-3-.59-4.855-0.213-9.415-0.647-11.041-1.05-12.908-.953-16.915-1.634-11.645-1.98-9.628-1.285-12.356-6.043a57.238,57.238,0,0,1-6.656-15.327c-2.048-7.129-3.132-11.335-4.8-17.278-2.919-10.4,1.691-16.97,3.579-18.009,4-2.2,6.2,2.327,8,5.179a20.759,20.759,0,0,1,1.934,6.207c2.775,15.824,2.48,32.014,5.926,33.166,10.256,3.426,20.262,7.367,25.943,7.922a71.5,71.5,0,0,0,7.321.079,25.083,25.083,0,0,1,5.389.794c7.977,1.828-1.133,1.962-1.1,2.285C119.959,144.361,125.494,146.025,126.462,146.379Z"/>
    <path id="Ellipse_18_copy_2" data-name="Ellipse 18 copy 2" class="cls-10" d="M128.108,127.766a14.739,14.739,0,0,1,13.76,15.884c-0.767,8.079-18.626,21.756-22.6,12.233-3.221-7.714-12.4,2.327-11.072-7.038C109.337,140.8,119.741,127.073,128.108,127.766Z"/>
    <path id="Shape_2_copy" data-name="Shape 2 copy" class="cls-10" d="M107.03,57.581s2.238,8.2,0,11.862c-1.473,2.4-4.9,5.025-8.025,6.557,2.109-1.034-2.477-8.133-6-5-0.245.218-2.3,2.61,0,3,4,0.679,5.086,2.334,4,3-1.027.63-2.633,0.421-3.974,0.5A21.578,21.578,0,0,0,83.6,91.718s-2.806-8.591-5.852-8.557A23.617,23.617,0,0,0,87.013,66.57c1.223-11.307,5.164-12.105,5.164-12.105a7.093,7.093,0,0,1,3.488,1.564c1.527,1.342,2.816,2.729,3.188,2.609S107.03,57.581,107.03,57.581Z"/>
    <path id="Shape_1_copy" data-name="Shape 1 copy" class="cls-16" d="M116,72s11.714-18.055-16.742-24.565C94.076,46.251,87.8,48.572,86.379,55.07s1.61,11.129-.542,17.395c-0.5,1.464,5.6-4.077,3.856-7.392-1.016-1.931,2.5-5,3.65-2.917,0,0-.63-0.99.333,1.445,0.077,0.194-.621,5.544,2.668,1.635,3.419-4.064,8.7-2.521,10.26-2.075S112.18,63.71,114,66C114.775,66.975,116.9,67.6,116,72Z"/>
  </g>
</svg>
